<?xml version="1.0" encoding="utf-8"?>
<svg xmlns="http://www.w3.org/2000/svg" xmlns:xlink="http://www.w3.org/1999/xlink" width="600" height="400" viewBox="0 0 2400 1600">
<defs>
  <clipPath id="clip660">
    <rect x="0" y="0" width="2400" height="1600"/>
  </clipPath>
</defs>
<path clip-path="url(#clip660)" d="
M0 1600 L2400 1600 L2400 0 L0 0  Z
  " fill="#ffffff" fill-rule="evenodd" fill-opacity="1"/>
<defs>
  <clipPath id="clip661">
    <rect x="480" y="0" width="1681" height="1600"/>
  </clipPath>
</defs>
<path clip-path="url(#clip660)" d="
M226.232 1423.18 L2352.76 1423.18 L2352.76 123.472 L226.232 123.472  Z
  " fill="#ffffff" fill-rule="evenodd" fill-opacity="1"/>
<defs>
  <clipPath id="clip662">
    <rect x="226" y="123" width="2128" height="1301"/>
  </clipPath>
</defs>
<polyline clip-path="url(#clip662)" style="stroke:#000000; stroke-width:2; stroke-opacity:0.1; fill:none" points="
  286.417,1423.18 286.417,123.472 
  "/>
<polyline clip-path="url(#clip662)" style="stroke:#000000; stroke-width:2; stroke-opacity:0.1; fill:none" points="
  687.648,1423.18 687.648,123.472 
  "/>
<polyline clip-path="url(#clip662)" style="stroke:#000000; stroke-width:2; stroke-opacity:0.1; fill:none" points="
  1088.88,1423.18 1088.88,123.472 
  "/>
<polyline clip-path="url(#clip662)" style="stroke:#000000; stroke-width:2; stroke-opacity:0.1; fill:none" points="
  1490.11,1423.18 1490.11,123.472 
  "/>
<polyline clip-path="url(#clip662)" style="stroke:#000000; stroke-width:2; stroke-opacity:0.1; fill:none" points="
  1891.34,1423.18 1891.34,123.472 
  "/>
<polyline clip-path="url(#clip662)" style="stroke:#000000; stroke-width:2; stroke-opacity:0.1; fill:none" points="
  2292.57,1423.18 2292.57,123.472 
  "/>
<polyline clip-path="url(#clip660)" style="stroke:#000000; stroke-width:4; stroke-opacity:1; fill:none" points="
  226.232,1423.18 2352.76,1423.18 
  "/>
<polyline clip-path="url(#clip660)" style="stroke:#000000; stroke-width:4; stroke-opacity:1; fill:none" points="
  286.417,1423.18 286.417,1407.58 
  "/>
<polyline clip-path="url(#clip660)" style="stroke:#000000; stroke-width:4; stroke-opacity:1; fill:none" points="
  687.648,1423.18 687.648,1407.58 
  "/>
<polyline clip-path="url(#clip660)" style="stroke:#000000; stroke-width:4; stroke-opacity:1; fill:none" points="
  1088.88,1423.18 1088.88,1407.58 
  "/>
<polyline clip-path="url(#clip660)" style="stroke:#000000; stroke-width:4; stroke-opacity:1; fill:none" points="
  1490.11,1423.18 1490.11,1407.58 
  "/>
<polyline clip-path="url(#clip660)" style="stroke:#000000; stroke-width:4; stroke-opacity:1; fill:none" points="
  1891.34,1423.18 1891.34,1407.58 
  "/>
<polyline clip-path="url(#clip660)" style="stroke:#000000; stroke-width:4; stroke-opacity:1; fill:none" points="
  2292.57,1423.18 2292.57,1407.58 
  "/>
<path clip-path="url(#clip660)" d="M 0 0 M286.417 1452.37 Q282.806 1452.37 280.977 1455.94 Q279.171 1459.48 279.171 1466.61 Q279.171 1473.71 280.977 1477.28 Q282.806 1480.82 286.417 1480.82 Q290.051 1480.82 291.856 1477.28 Q293.685 1473.71 293.685 1466.61 Q293.685 1459.48 291.856 1455.94 Q290.051 1452.37 286.417 1452.37 M286.417 1448.67 Q292.227 1448.67 295.282 1453.27 Q298.361 1457.86 298.361 1466.61 Q298.361 1475.33 295.282 1479.94 Q292.227 1484.52 286.417 1484.52 Q280.606 1484.52 277.528 1479.94 Q274.472 1475.33 274.472 1466.61 Q274.472 1457.86 277.528 1453.27 Q280.606 1448.67 286.417 1448.67 Z" fill="#000000" fill-rule="evenodd" fill-opacity="1" /><path clip-path="url(#clip660)" d="M 0 0 M678.03 1479.92 L685.668 1479.92 L685.668 1453.55 L677.358 1455.22 L677.358 1450.96 L685.622 1449.29 L690.298 1449.29 L690.298 1479.92 L697.937 1479.92 L697.937 1483.85 L678.03 1483.85 L678.03 1479.92 Z" fill="#000000" fill-rule="evenodd" fill-opacity="1" /><path clip-path="url(#clip660)" d="M 0 0 M1083.53 1479.92 L1099.85 1479.92 L1099.85 1483.85 L1077.91 1483.85 L1077.91 1479.92 Q1080.57 1477.16 1085.15 1472.53 Q1089.76 1467.88 1090.94 1466.54 Q1093.18 1464.01 1094.06 1462.28 Q1094.97 1460.52 1094.97 1458.83 Q1094.97 1456.07 1093.02 1454.34 Q1091.1 1452.6 1088 1452.6 Q1085.8 1452.6 1083.35 1453.37 Q1080.92 1454.13 1078.14 1455.68 L1078.14 1450.96 Q1080.96 1449.82 1083.42 1449.25 Q1085.87 1448.67 1087.91 1448.67 Q1093.28 1448.67 1096.47 1451.35 Q1099.67 1454.04 1099.67 1458.53 Q1099.67 1460.66 1098.86 1462.58 Q1098.07 1464.48 1095.96 1467.07 Q1095.38 1467.74 1092.28 1470.96 Q1089.18 1474.15 1083.53 1479.92 Z" fill="#000000" fill-rule="evenodd" fill-opacity="1" /><path clip-path="url(#clip660)" d="M 0 0 M1494.36 1465.22 Q1497.71 1465.94 1499.59 1468.2 Q1501.49 1470.47 1501.49 1473.81 Q1501.49 1478.92 1497.97 1481.72 Q1494.45 1484.52 1487.97 1484.52 Q1485.79 1484.52 1483.48 1484.08 Q1481.19 1483.67 1478.73 1482.81 L1478.73 1478.3 Q1480.68 1479.43 1482.99 1480.01 Q1485.31 1480.59 1487.83 1480.59 Q1492.23 1480.59 1494.52 1478.85 Q1496.83 1477.12 1496.83 1473.81 Q1496.83 1470.75 1494.68 1469.04 Q1492.55 1467.3 1488.73 1467.3 L1484.7 1467.3 L1484.7 1463.46 L1488.92 1463.46 Q1492.37 1463.46 1494.2 1462.09 Q1496.02 1460.7 1496.02 1458.11 Q1496.02 1455.45 1494.13 1454.04 Q1492.25 1452.6 1488.73 1452.6 Q1486.81 1452.6 1484.61 1453.02 Q1482.41 1453.44 1479.77 1454.31 L1479.77 1450.15 Q1482.44 1449.41 1484.75 1449.04 Q1487.09 1448.67 1489.15 1448.67 Q1494.47 1448.67 1497.57 1451.1 Q1500.68 1453.5 1500.68 1457.63 Q1500.68 1460.5 1499.03 1462.49 Q1497.39 1464.45 1494.36 1465.22 Z" fill="#000000" fill-rule="evenodd" fill-opacity="1" /><path clip-path="url(#clip660)" d="M 0 0 M1894.35 1453.37 L1882.54 1471.81 L1894.35 1471.81 L1894.35 1453.37 M1893.12 1449.29 L1899 1449.29 L1899 1471.81 L1903.93 1471.81 L1903.93 1475.7 L1899 1475.7 L1899 1483.85 L1894.35 1483.85 L1894.35 1475.7 L1878.75 1475.7 L1878.75 1471.19 L1893.12 1449.29 Z" fill="#000000" fill-rule="evenodd" fill-opacity="1" /><path clip-path="url(#clip660)" d="M 0 0 M2282.85 1449.29 L2301.21 1449.29 L2301.21 1453.23 L2287.13 1453.23 L2287.13 1461.7 Q2288.15 1461.35 2289.17 1461.19 Q2290.19 1461 2291.21 1461 Q2296.99 1461 2300.37 1464.18 Q2303.75 1467.35 2303.75 1472.76 Q2303.75 1478.34 2300.28 1481.44 Q2296.81 1484.52 2290.49 1484.52 Q2288.31 1484.52 2286.04 1484.15 Q2283.8 1483.78 2281.39 1483.04 L2281.39 1478.34 Q2283.47 1479.48 2285.7 1480.03 Q2287.92 1480.59 2290.4 1480.59 Q2294.4 1480.59 2296.74 1478.48 Q2299.08 1476.38 2299.08 1472.76 Q2299.08 1469.15 2296.74 1467.05 Q2294.4 1464.94 2290.4 1464.94 Q2288.52 1464.94 2286.65 1465.36 Q2284.79 1465.77 2282.85 1466.65 L2282.85 1449.29 Z" fill="#000000" fill-rule="evenodd" fill-opacity="1" /><path clip-path="url(#clip660)" d="M 0 0 M1014.34 1520.4 L1020.19 1520.4 L1027.51 1548.21 L1034.8 1520.4 L1041.71 1520.4 L1049.03 1548.21 L1056.32 1520.4 L1062.17 1520.4 L1052.85 1556.04 L1045.94 1556.04 L1038.27 1526.83 L1030.57 1556.04 L1023.66 1556.04 L1014.34 1520.4 Z" fill="#000000" fill-rule="evenodd" fill-opacity="1" /><path clip-path="url(#clip660)" d="M 0 0 M1068.32 1520.4 L1074.17 1520.4 L1074.17 1556.04 L1068.32 1556.04 L1068.32 1520.4 M1068.32 1506.52 L1074.17 1506.52 L1074.17 1513.93 L1068.32 1513.93 L1068.32 1506.52 Z" fill="#000000" fill-rule="evenodd" fill-opacity="1" /><path clip-path="url(#clip660)" d="M 0 0 M1109.95 1534.53 L1109.95 1556.04 L1104.09 1556.04 L1104.09 1534.72 Q1104.09 1529.66 1102.12 1527.14 Q1100.15 1524.63 1096.2 1524.63 Q1091.46 1524.63 1088.72 1527.65 Q1085.98 1530.68 1085.98 1535.9 L1085.98 1556.04 L1080.09 1556.04 L1080.09 1520.4 L1085.98 1520.4 L1085.98 1525.93 Q1088.08 1522.72 1090.92 1521.13 Q1093.78 1519.54 1097.5 1519.54 Q1103.65 1519.54 1106.8 1523.36 Q1109.95 1527.14 1109.95 1534.53 Z" fill="#000000" fill-rule="evenodd" fill-opacity="1" /><path clip-path="url(#clip660)" d="M 0 0 M1139.55 1525.81 L1139.55 1506.52 L1145.41 1506.52 L1145.41 1556.04 L1139.55 1556.04 L1139.55 1550.7 Q1137.7 1553.88 1134.87 1555.44 Q1132.07 1556.97 1128.12 1556.97 Q1121.66 1556.97 1117.59 1551.81 Q1113.55 1546.65 1113.55 1538.25 Q1113.55 1529.85 1117.59 1524.69 Q1121.66 1519.54 1128.12 1519.54 Q1132.07 1519.54 1134.87 1521.1 Q1137.7 1522.62 1139.55 1525.81 M1119.59 1538.25 Q1119.59 1544.71 1122.23 1548.4 Q1124.91 1552.07 1129.56 1552.07 Q1134.2 1552.07 1136.88 1548.4 Q1139.55 1544.71 1139.55 1538.25 Q1139.55 1531.79 1136.88 1528.13 Q1134.2 1524.44 1129.56 1524.44 Q1124.91 1524.44 1122.23 1528.13 Q1119.59 1531.79 1119.59 1538.25 Z" fill="#000000" fill-rule="evenodd" fill-opacity="1" /><path clip-path="url(#clip660)" d="M 0 0 M1174.27 1521.45 L1174.27 1526.98 Q1171.79 1525.71 1169.12 1525.07 Q1166.44 1524.44 1163.58 1524.44 Q1159.22 1524.44 1157.02 1525.77 Q1154.86 1527.11 1154.86 1529.79 Q1154.86 1531.82 1156.42 1533 Q1157.98 1534.15 1162.69 1535.2 L1164.69 1535.64 Q1170.93 1536.98 1173.54 1539.43 Q1176.18 1541.85 1176.18 1546.21 Q1176.18 1551.17 1172.24 1554.07 Q1168.32 1556.97 1161.45 1556.97 Q1158.58 1556.97 1155.46 1556.39 Q1152.38 1555.85 1148.94 1554.74 L1148.94 1548.69 Q1152.19 1550.38 1155.34 1551.24 Q1158.49 1552.07 1161.58 1552.07 Q1165.71 1552.07 1167.94 1550.66 Q1170.17 1549.23 1170.17 1546.65 Q1170.17 1544.27 1168.55 1542.99 Q1166.95 1541.72 1161.51 1540.54 L1159.47 1540.07 Q1154.03 1538.92 1151.61 1536.56 Q1149.19 1534.18 1149.19 1530.04 Q1149.19 1525.01 1152.76 1522.27 Q1156.32 1519.54 1162.88 1519.54 Q1166.13 1519.54 1168.99 1520.01 Q1171.86 1520.49 1174.27 1521.45 Z" fill="#000000" fill-rule="evenodd" fill-opacity="1" /><path clip-path="url(#clip660)" d="M 0 0 M1187.99 1550.7 L1187.99 1569.6 L1182.1 1569.6 L1182.1 1520.4 L1187.99 1520.4 L1187.99 1525.81 Q1189.84 1522.62 1192.64 1521.1 Q1195.47 1519.54 1199.39 1519.54 Q1205.88 1519.54 1209.92 1524.69 Q1214 1529.85 1214 1538.25 Q1214 1546.65 1209.92 1551.81 Q1205.88 1556.97 1199.39 1556.97 Q1195.47 1556.97 1192.64 1555.44 Q1189.84 1553.88 1187.99 1550.7 M1207.92 1538.25 Q1207.92 1531.79 1205.24 1528.13 Q1202.6 1524.44 1197.96 1524.44 Q1193.31 1524.44 1190.63 1528.13 Q1187.99 1531.79 1187.99 1538.25 Q1187.99 1544.71 1190.63 1548.4 Q1193.31 1552.07 1197.96 1552.07 Q1202.6 1552.07 1205.24 1548.4 Q1207.92 1544.71 1207.92 1538.25 Z" fill="#000000" fill-rule="evenodd" fill-opacity="1" /><path clip-path="url(#clip660)" d="M 0 0 M1250.63 1536.76 L1250.63 1539.62 L1223.7 1539.62 Q1224.09 1545.67 1227.33 1548.85 Q1230.61 1552 1236.44 1552 Q1239.81 1552 1242.96 1551.17 Q1246.14 1550.35 1249.26 1548.69 L1249.26 1554.23 Q1246.11 1555.57 1242.8 1556.27 Q1239.49 1556.97 1236.09 1556.97 Q1227.56 1556.97 1222.56 1552 Q1217.59 1547.04 1217.59 1538.57 Q1217.59 1529.82 1222.3 1524.69 Q1227.05 1519.54 1235.07 1519.54 Q1242.26 1519.54 1246.43 1524.18 Q1250.63 1528.8 1250.63 1536.76 M1244.77 1535.04 Q1244.71 1530.23 1242.07 1527.37 Q1239.46 1524.5 1235.13 1524.5 Q1230.23 1524.5 1227.27 1527.27 Q1224.34 1530.04 1223.9 1535.07 L1244.77 1535.04 Z" fill="#000000" fill-rule="evenodd" fill-opacity="1" /><path clip-path="url(#clip660)" d="M 0 0 M1287.27 1536.76 L1287.27 1539.62 L1260.34 1539.62 Q1260.72 1545.67 1263.97 1548.85 Q1267.25 1552 1273.07 1552 Q1276.44 1552 1279.6 1551.17 Q1282.78 1550.35 1285.9 1548.69 L1285.9 1554.23 Q1282.75 1555.57 1279.44 1556.27 Q1276.13 1556.97 1272.72 1556.97 Q1264.19 1556.97 1259.19 1552 Q1254.23 1547.04 1254.23 1538.57 Q1254.23 1529.82 1258.94 1524.69 Q1263.68 1519.54 1271.7 1519.54 Q1278.9 1519.54 1283.06 1524.18 Q1287.27 1528.8 1287.27 1536.76 M1281.41 1535.04 Q1281.35 1530.23 1278.7 1527.37 Q1276.09 1524.5 1271.77 1524.5 Q1266.86 1524.5 1263.9 1527.27 Q1260.98 1530.04 1260.53 1535.07 L1281.41 1535.04 Z" fill="#000000" fill-rule="evenodd" fill-opacity="1" /><path clip-path="url(#clip660)" d="M 0 0 M1316.87 1525.81 L1316.87 1506.52 L1322.72 1506.52 L1322.72 1556.04 L1316.87 1556.04 L1316.87 1550.7 Q1315.02 1553.88 1312.19 1555.44 Q1309.39 1556.97 1305.44 1556.97 Q1298.98 1556.97 1294.9 1551.81 Q1290.86 1546.65 1290.86 1538.25 Q1290.86 1529.85 1294.9 1524.69 Q1298.98 1519.54 1305.44 1519.54 Q1309.39 1519.54 1312.19 1521.1 Q1315.02 1522.62 1316.87 1525.81 M1296.91 1538.25 Q1296.91 1544.71 1299.55 1548.4 Q1302.23 1552.07 1306.87 1552.07 Q1311.52 1552.07 1314.19 1548.4 Q1316.87 1544.71 1316.87 1538.25 Q1316.87 1531.79 1314.19 1528.13 Q1311.52 1524.44 1306.87 1524.44 Q1302.23 1524.44 1299.55 1528.13 Q1296.91 1531.79 1296.91 1538.25 Z" fill="#000000" fill-rule="evenodd" fill-opacity="1" /><path clip-path="url(#clip660)" d="M 0 0 M1330.36 1547.96 L1337.08 1547.96 L1337.08 1553.43 L1331.86 1563.62 L1327.75 1563.62 L1330.36 1553.43 L1330.36 1547.96 Z" fill="#000000" fill-rule="evenodd" fill-opacity="1" /><path clip-path="url(#clip660)" d="M 0 0 M1363.34 1541.98 L1363.34 1520.4 L1369.19 1520.4 L1369.19 1541.75 Q1369.19 1546.81 1371.17 1549.36 Q1373.14 1551.87 1377.09 1551.87 Q1381.83 1551.87 1384.57 1548.85 Q1387.33 1545.83 1387.33 1540.61 L1387.33 1520.4 L1393.19 1520.4 L1393.19 1556.04 L1387.33 1556.04 L1387.33 1550.57 Q1385.2 1553.82 1382.37 1555.41 Q1379.57 1556.97 1375.84 1556.97 Q1369.7 1556.97 1366.52 1553.15 Q1363.34 1549.33 1363.34 1541.98 M1378.07 1519.54 L1378.07 1519.54 Z" fill="#000000" fill-rule="evenodd" fill-opacity="1" /><path clip-path="url(#clip660)" d="M 0 0 M1434.12 1506.58 Q1429.86 1513.9 1427.79 1521.06 Q1425.72 1528.23 1425.72 1535.58 Q1425.72 1542.93 1427.79 1550.16 Q1429.89 1557.35 1434.12 1564.64 L1429.03 1564.64 Q1424.26 1557.16 1421.87 1549.93 Q1419.51 1542.71 1419.51 1535.58 Q1419.51 1528.48 1421.87 1521.29 Q1424.22 1514.09 1429.03 1506.58 L1434.12 1506.58 Z" fill="#000000" fill-rule="evenodd" fill-opacity="1" /><path clip-path="url(#clip660)" d="M 0 0 M1468.02 1527.24 Q1470.22 1523.29 1473.27 1521.41 Q1476.33 1519.54 1480.47 1519.54 Q1486.04 1519.54 1489.06 1523.45 Q1492.08 1527.33 1492.08 1534.53 L1492.08 1556.04 L1486.19 1556.04 L1486.19 1534.72 Q1486.19 1529.59 1484.38 1527.11 Q1482.57 1524.63 1478.84 1524.63 Q1474.29 1524.63 1471.65 1527.65 Q1469.01 1530.68 1469.01 1535.9 L1469.01 1556.04 L1463.12 1556.04 L1463.12 1534.72 Q1463.12 1529.56 1461.3 1527.11 Q1459.49 1524.63 1455.7 1524.63 Q1451.21 1524.63 1448.57 1527.68 Q1445.93 1530.71 1445.93 1535.9 L1445.93 1556.04 L1440.04 1556.04 L1440.04 1520.4 L1445.93 1520.4 L1445.93 1525.93 Q1447.94 1522.66 1450.74 1521.1 Q1453.54 1519.54 1457.39 1519.54 Q1461.27 1519.54 1463.98 1521.51 Q1466.72 1523.48 1468.02 1527.24 Z" fill="#000000" fill-rule="evenodd" fill-opacity="1" /><path clip-path="url(#clip660)" d="M 0 0 M1508.63 1508.52 L1514.04 1508.52 L1497.49 1562.09 L1492.08 1562.09 L1508.63 1508.52 Z" fill="#000000" fill-rule="evenodd" fill-opacity="1" /><path clip-path="url(#clip660)" d="M 0 0 M1542.91 1521.45 L1542.91 1526.98 Q1540.43 1525.71 1537.76 1525.07 Q1535.08 1524.44 1532.22 1524.44 Q1527.86 1524.44 1525.66 1525.77 Q1523.5 1527.11 1523.5 1529.79 Q1523.5 1531.82 1525.06 1533 Q1526.62 1534.15 1531.33 1535.2 L1533.33 1535.64 Q1539.57 1536.98 1542.18 1539.43 Q1544.82 1541.85 1544.82 1546.21 Q1544.82 1551.17 1540.88 1554.07 Q1536.96 1556.97 1530.09 1556.97 Q1527.22 1556.97 1524.1 1556.39 Q1521.01 1555.85 1517.58 1554.74 L1517.58 1548.69 Q1520.82 1550.38 1523.97 1551.24 Q1527.13 1552.07 1530.21 1552.07 Q1534.35 1552.07 1536.58 1550.66 Q1538.81 1549.23 1538.81 1546.65 Q1538.81 1544.27 1537.18 1542.99 Q1535.59 1541.72 1530.15 1540.54 L1528.11 1540.07 Q1522.67 1538.92 1520.25 1536.56 Q1517.83 1534.18 1517.83 1530.04 Q1517.83 1525.01 1521.4 1522.27 Q1524.96 1519.54 1531.52 1519.54 Q1534.76 1519.54 1537.63 1520.01 Q1540.49 1520.49 1542.91 1521.45 Z" fill="#000000" fill-rule="evenodd" fill-opacity="1" /><path clip-path="url(#clip660)" d="M 0 0 M1550.04 1506.58 L1555.13 1506.58 Q1559.91 1514.09 1562.26 1521.29 Q1564.65 1528.48 1564.65 1535.58 Q1564.65 1542.71 1562.26 1549.93 Q1559.91 1557.16 1555.13 1564.64 L1550.04 1564.64 Q1554.28 1557.35 1556.34 1550.16 Q1558.45 1542.93 1558.45 1535.58 Q1558.45 1528.23 1556.34 1521.06 Q1554.28 1513.9 1550.04 1506.58 Z" fill="#000000" fill-rule="evenodd" fill-opacity="1" /><polyline clip-path="url(#clip662)" style="stroke:#000000; stroke-width:2; stroke-opacity:0.1; fill:none" points="
  226.232,1423.18 2352.76,1423.18 
  "/>
<polyline clip-path="url(#clip662)" style="stroke:#000000; stroke-width:2; stroke-opacity:0.1; fill:none" points="
  226.232,1163.24 2352.76,1163.24 
  "/>
<polyline clip-path="url(#clip662)" style="stroke:#000000; stroke-width:2; stroke-opacity:0.1; fill:none" points="
  226.232,903.297 2352.76,903.297 
  "/>
<polyline clip-path="url(#clip662)" style="stroke:#000000; stroke-width:2; stroke-opacity:0.1; fill:none" points="
  226.232,643.355 2352.76,643.355 
  "/>
<polyline clip-path="url(#clip662)" style="stroke:#000000; stroke-width:2; stroke-opacity:0.1; fill:none" points="
  226.232,383.414 2352.76,383.414 
  "/>
<polyline clip-path="url(#clip662)" style="stroke:#000000; stroke-width:2; stroke-opacity:0.1; fill:none" points="
  226.232,123.472 2352.76,123.472 
  "/>
<polyline clip-path="url(#clip660)" style="stroke:#000000; stroke-width:4; stroke-opacity:1; fill:none" points="
  226.232,1423.18 226.232,123.472 
  "/>
<polyline clip-path="url(#clip660)" style="stroke:#000000; stroke-width:4; stroke-opacity:1; fill:none" points="
  226.232,1423.18 251.75,1423.18 
  "/>
<polyline clip-path="url(#clip660)" style="stroke:#000000; stroke-width:4; stroke-opacity:1; fill:none" points="
  226.232,1163.24 251.75,1163.24 
  "/>
<polyline clip-path="url(#clip660)" style="stroke:#000000; stroke-width:4; stroke-opacity:1; fill:none" points="
  226.232,903.297 251.75,903.297 
  "/>
<polyline clip-path="url(#clip660)" style="stroke:#000000; stroke-width:4; stroke-opacity:1; fill:none" points="
  226.232,643.355 251.75,643.355 
  "/>
<polyline clip-path="url(#clip660)" style="stroke:#000000; stroke-width:4; stroke-opacity:1; fill:none" points="
  226.232,383.414 251.75,383.414 
  "/>
<polyline clip-path="url(#clip660)" style="stroke:#000000; stroke-width:4; stroke-opacity:1; fill:none" points="
  226.232,123.472 251.75,123.472 
  "/>
<path clip-path="url(#clip660)" d="M 0 0 M178.288 1408.98 Q174.677 1408.98 172.848 1412.54 Q171.042 1416.08 171.042 1423.21 Q171.042 1430.32 172.848 1433.89 Q174.677 1437.43 178.288 1437.43 Q181.922 1437.43 183.727 1433.89 Q185.556 1430.32 185.556 1423.21 Q185.556 1416.08 183.727 1412.54 Q181.922 1408.98 178.288 1408.98 M178.288 1405.27 Q184.098 1405.27 187.153 1409.88 Q190.232 1414.46 190.232 1423.21 Q190.232 1431.94 187.153 1436.55 Q184.098 1441.13 178.288 1441.13 Q172.477 1441.13 169.399 1436.55 Q166.343 1431.94 166.343 1423.21 Q166.343 1414.46 169.399 1409.88 Q172.477 1405.27 178.288 1405.27 Z" fill="#000000" fill-rule="evenodd" fill-opacity="1" /><path clip-path="url(#clip660)" d="M 0 0 M142.316 1145.96 L160.672 1145.96 L160.672 1149.89 L146.598 1149.89 L146.598 1158.37 Q147.616 1158.02 148.635 1157.86 Q149.653 1157.67 150.672 1157.67 Q156.459 1157.67 159.839 1160.84 Q163.218 1164.01 163.218 1169.43 Q163.218 1175.01 159.746 1178.11 Q156.274 1181.19 149.954 1181.19 Q147.778 1181.19 145.51 1180.82 Q143.265 1180.45 140.857 1179.71 L140.857 1175.01 Q142.941 1176.14 145.163 1176.7 Q147.385 1177.25 149.862 1177.25 Q153.866 1177.25 156.204 1175.15 Q158.542 1173.04 158.542 1169.43 Q158.542 1165.82 156.204 1163.71 Q153.866 1161.61 149.862 1161.61 Q147.987 1161.61 146.112 1162.02 Q144.26 1162.44 142.316 1163.32 L142.316 1145.96 Z" fill="#000000" fill-rule="evenodd" fill-opacity="1" /><path clip-path="url(#clip660)" d="M 0 0 M178.288 1149.04 Q174.677 1149.04 172.848 1152.6 Q171.042 1156.14 171.042 1163.27 Q171.042 1170.38 172.848 1173.94 Q174.677 1177.49 178.288 1177.49 Q181.922 1177.49 183.727 1173.94 Q185.556 1170.38 185.556 1163.27 Q185.556 1156.14 183.727 1152.6 Q181.922 1149.04 178.288 1149.04 M178.288 1145.33 Q184.098 1145.33 187.153 1149.94 Q190.232 1154.52 190.232 1163.27 Q190.232 1172 187.153 1176.61 Q184.098 1181.19 178.288 1181.19 Q172.477 1181.19 169.399 1176.61 Q166.343 1172 166.343 1163.27 Q166.343 1154.52 169.399 1149.94 Q172.477 1145.33 178.288 1145.33 Z" fill="#000000" fill-rule="evenodd" fill-opacity="1" /><path clip-path="url(#clip660)" d="M 0 0 M116.297 916.642 L123.936 916.642 L123.936 890.276 L115.626 891.943 L115.626 887.683 L123.89 886.017 L128.566 886.017 L128.566 916.642 L136.204 916.642 L136.204 920.577 L116.297 920.577 L116.297 916.642 Z" fill="#000000" fill-rule="evenodd" fill-opacity="1" /><path clip-path="url(#clip660)" d="M 0 0 M151.274 889.095 Q147.663 889.095 145.834 892.66 Q144.029 896.202 144.029 903.331 Q144.029 910.438 145.834 914.003 Q147.663 917.544 151.274 917.544 Q154.908 917.544 156.714 914.003 Q158.542 910.438 158.542 903.331 Q158.542 896.202 156.714 892.66 Q154.908 889.095 151.274 889.095 M151.274 885.392 Q157.084 885.392 160.14 889.998 Q163.218 894.582 163.218 903.331 Q163.218 912.058 160.14 916.665 Q157.084 921.248 151.274 921.248 Q145.464 921.248 142.385 916.665 Q139.329 912.058 139.329 903.331 Q139.329 894.582 142.385 889.998 Q145.464 885.392 151.274 885.392 Z" fill="#000000" fill-rule="evenodd" fill-opacity="1" /><path clip-path="url(#clip660)" d="M 0 0 M178.288 889.095 Q174.677 889.095 172.848 892.66 Q171.042 896.202 171.042 903.331 Q171.042 910.438 172.848 914.003 Q174.677 917.544 178.288 917.544 Q181.922 917.544 183.727 914.003 Q185.556 910.438 185.556 903.331 Q185.556 896.202 183.727 892.66 Q181.922 889.095 178.288 889.095 M178.288 885.392 Q184.098 885.392 187.153 889.998 Q190.232 894.582 190.232 903.331 Q190.232 912.058 187.153 916.665 Q184.098 921.248 178.288 921.248 Q172.477 921.248 169.399 916.665 Q166.343 912.058 166.343 903.331 Q166.343 894.582 169.399 889.998 Q172.477 885.392 178.288 885.392 Z" fill="#000000" fill-rule="evenodd" fill-opacity="1" /><path clip-path="url(#clip660)" d="M 0 0 M117.293 656.7 L124.931 656.7 L124.931 630.334 L116.621 632.001 L116.621 627.742 L124.885 626.075 L129.561 626.075 L129.561 656.7 L137.2 656.7 L137.2 660.635 L117.293 660.635 L117.293 656.7 Z" fill="#000000" fill-rule="evenodd" fill-opacity="1" /><path clip-path="url(#clip660)" d="M 0 0 M142.316 626.075 L160.672 626.075 L160.672 630.01 L146.598 630.01 L146.598 638.483 Q147.616 638.135 148.635 637.973 Q149.653 637.788 150.672 637.788 Q156.459 637.788 159.839 640.959 Q163.218 644.131 163.218 649.547 Q163.218 655.126 159.746 658.228 Q156.274 661.307 149.954 661.307 Q147.778 661.307 145.51 660.936 Q143.265 660.566 140.857 659.825 L140.857 655.126 Q142.941 656.26 145.163 656.816 Q147.385 657.371 149.862 657.371 Q153.866 657.371 156.204 655.265 Q158.542 653.158 158.542 649.547 Q158.542 645.936 156.204 643.83 Q153.866 641.723 149.862 641.723 Q147.987 641.723 146.112 642.14 Q144.26 642.557 142.316 643.436 L142.316 626.075 Z" fill="#000000" fill-rule="evenodd" fill-opacity="1" /><path clip-path="url(#clip660)" d="M 0 0 M178.288 629.154 Q174.677 629.154 172.848 632.719 Q171.042 636.26 171.042 643.39 Q171.042 650.496 172.848 654.061 Q174.677 657.603 178.288 657.603 Q181.922 657.603 183.727 654.061 Q185.556 650.496 185.556 643.39 Q185.556 636.26 183.727 632.719 Q181.922 629.154 178.288 629.154 M178.288 625.45 Q184.098 625.45 187.153 630.057 Q190.232 634.64 190.232 643.39 Q190.232 652.117 187.153 656.723 Q184.098 661.307 178.288 661.307 Q172.477 661.307 169.399 656.723 Q166.343 652.117 166.343 643.39 Q166.343 634.64 169.399 630.057 Q172.477 625.45 178.288 625.45 Z" fill="#000000" fill-rule="evenodd" fill-opacity="1" /><path clip-path="url(#clip660)" d="M 0 0 M119.885 396.759 L136.204 396.759 L136.204 400.694 L114.26 400.694 L114.26 396.759 Q116.922 394.004 121.505 389.374 Q126.112 384.722 127.292 383.379 Q129.538 380.856 130.417 379.12 Q131.32 377.36 131.32 375.671 Q131.32 372.916 129.376 371.18 Q127.455 369.444 124.353 369.444 Q122.154 369.444 119.7 370.208 Q117.269 370.972 114.492 372.523 L114.492 367.8 Q117.316 366.666 119.769 366.087 Q122.223 365.509 124.26 365.509 Q129.63 365.509 132.825 368.194 Q136.019 370.879 136.019 375.37 Q136.019 377.499 135.209 379.421 Q134.422 381.319 132.316 383.911 Q131.737 384.583 128.635 387.8 Q125.533 390.995 119.885 396.759 Z" fill="#000000" fill-rule="evenodd" fill-opacity="1" /><path clip-path="url(#clip660)" d="M 0 0 M151.274 369.212 Q147.663 369.212 145.834 372.777 Q144.029 376.319 144.029 383.448 Q144.029 390.555 145.834 394.12 Q147.663 397.661 151.274 397.661 Q154.908 397.661 156.714 394.12 Q158.542 390.555 158.542 383.448 Q158.542 376.319 156.714 372.777 Q154.908 369.212 151.274 369.212 M151.274 365.509 Q157.084 365.509 160.14 370.115 Q163.218 374.698 163.218 383.448 Q163.218 392.175 160.14 396.782 Q157.084 401.365 151.274 401.365 Q145.464 401.365 142.385 396.782 Q139.329 392.175 139.329 383.448 Q139.329 374.698 142.385 370.115 Q145.464 365.509 151.274 365.509 Z" fill="#000000" fill-rule="evenodd" fill-opacity="1" /><path clip-path="url(#clip660)" d="M 0 0 M178.288 369.212 Q174.677 369.212 172.848 372.777 Q171.042 376.319 171.042 383.448 Q171.042 390.555 172.848 394.12 Q174.677 397.661 178.288 397.661 Q181.922 397.661 183.727 394.12 Q185.556 390.555 185.556 383.448 Q185.556 376.319 183.727 372.777 Q181.922 369.212 178.288 369.212 M178.288 365.509 Q184.098 365.509 187.153 370.115 Q190.232 374.698 190.232 383.448 Q190.232 392.175 187.153 396.782 Q184.098 401.365 178.288 401.365 Q172.477 401.365 169.399 396.782 Q166.343 392.175 166.343 383.448 Q166.343 374.698 169.399 370.115 Q172.477 365.509 178.288 365.509 Z" fill="#000000" fill-rule="evenodd" fill-opacity="1" /><path clip-path="url(#clip660)" d="M 0 0 M120.88 136.817 L137.2 136.817 L137.2 140.752 L115.256 140.752 L115.256 136.817 Q117.918 134.062 122.501 129.433 Q127.107 124.78 128.288 123.437 Q130.533 120.914 131.413 119.178 Q132.316 117.419 132.316 115.729 Q132.316 112.974 130.371 111.238 Q128.45 109.502 125.348 109.502 Q123.149 109.502 120.695 110.266 Q118.265 111.03 115.487 112.581 L115.487 107.859 Q118.311 106.725 120.765 106.146 Q123.218 105.567 125.255 105.567 Q130.626 105.567 133.82 108.252 Q137.015 110.937 137.015 115.428 Q137.015 117.558 136.204 119.479 Q135.417 121.377 133.311 123.97 Q132.732 124.641 129.63 127.859 Q126.529 131.053 120.88 136.817 Z" fill="#000000" fill-rule="evenodd" fill-opacity="1" /><path clip-path="url(#clip660)" d="M 0 0 M142.316 106.192 L160.672 106.192 L160.672 110.127 L146.598 110.127 L146.598 118.599 Q147.616 118.252 148.635 118.09 Q149.653 117.905 150.672 117.905 Q156.459 117.905 159.839 121.076 Q163.218 124.248 163.218 129.664 Q163.218 135.243 159.746 138.345 Q156.274 141.423 149.954 141.423 Q147.778 141.423 145.51 141.053 Q143.265 140.683 140.857 139.942 L140.857 135.243 Q142.941 136.377 145.163 136.933 Q147.385 137.488 149.862 137.488 Q153.866 137.488 156.204 135.382 Q158.542 133.275 158.542 129.664 Q158.542 126.053 156.204 123.947 Q153.866 121.84 149.862 121.84 Q147.987 121.84 146.112 122.257 Q144.26 122.674 142.316 123.553 L142.316 106.192 Z" fill="#000000" fill-rule="evenodd" fill-opacity="1" /><path clip-path="url(#clip660)" d="M 0 0 M178.288 109.271 Q174.677 109.271 172.848 112.836 Q171.042 116.377 171.042 123.507 Q171.042 130.613 172.848 134.178 Q174.677 137.72 178.288 137.72 Q181.922 137.72 183.727 134.178 Q185.556 130.613 185.556 123.507 Q185.556 116.377 183.727 112.836 Q181.922 109.271 178.288 109.271 M178.288 105.567 Q184.098 105.567 187.153 110.174 Q190.232 114.757 190.232 123.507 Q190.232 132.234 187.153 136.84 Q184.098 141.423 178.288 141.423 Q172.477 141.423 169.399 136.84 Q166.343 132.234 166.343 123.507 Q166.343 114.757 169.399 110.174 Q172.477 105.567 178.288 105.567 Z" fill="#000000" fill-rule="evenodd" fill-opacity="1" /><path clip-path="url(#clip660)" d="M 0 0 M68.7161 1118.82 L71.5806 1118.82 L71.5806 1145.75 Q77.6281 1145.37 80.8109 1142.12 Q83.9619 1138.84 83.9619 1133.02 Q83.9619 1129.65 83.1344 1126.5 Q82.3069 1123.31 80.6518 1120.19 L86.1899 1120.19 Q87.5267 1123.34 88.227 1126.65 Q88.9272 1129.96 88.9272 1133.37 Q88.9272 1141.9 83.9619 1146.9 Q78.9967 1151.86 70.5303 1151.86 Q61.7774 1151.86 56.6531 1147.15 Q51.4968 1142.41 51.4968 1134.39 Q51.4968 1127.2 56.1438 1123.03 Q60.7589 1118.82 68.7161 1118.82 M66.9973 1124.68 Q62.1912 1124.74 59.3266 1127.39 Q56.4621 1130 56.4621 1134.33 Q56.4621 1139.23 59.2312 1142.19 Q62.0002 1145.12 67.0292 1145.56 L66.9973 1124.68 Z" fill="#000000" fill-rule="evenodd" fill-opacity="1" /><path clip-path="url(#clip660)" d="M 0 0 M38.479 1094.64 L43.3487 1094.64 L43.3487 1100.24 Q43.3487 1103.39 44.6219 1104.63 Q45.895 1105.84 49.2052 1105.84 L52.3562 1105.84 L52.3562 1096.19 L56.9077 1096.19 L56.9077 1105.84 L88.0042 1105.84 L88.0042 1111.73 L56.9077 1111.73 L56.9077 1117.33 L52.3562 1117.33 L52.3562 1111.73 L49.8736 1111.73 Q43.9216 1111.73 41.2162 1108.96 Q38.479 1106.19 38.479 1100.17 L38.479 1094.64 Z" fill="#000000" fill-rule="evenodd" fill-opacity="1" /><path clip-path="url(#clip660)" d="M 0 0 M38.479 1070.45 L43.3487 1070.45 L43.3487 1076.05 Q43.3487 1079.2 44.6219 1080.44 Q45.895 1081.65 49.2052 1081.65 L52.3562 1081.65 L52.3562 1072 L56.9077 1072 L56.9077 1081.65 L88.0042 1081.65 L88.0042 1087.54 L56.9077 1087.54 L56.9077 1093.14 L52.3562 1093.14 L52.3562 1087.54 L49.8736 1087.54 Q43.9216 1087.54 41.2162 1084.77 Q38.479 1082 38.479 1075.98 L38.479 1070.45 Z" fill="#000000" fill-rule="evenodd" fill-opacity="1" /><path clip-path="url(#clip660)" d="M 0 0 M68.7161 1033.81 L71.5806 1033.81 L71.5806 1060.74 Q77.6281 1060.36 80.8109 1057.11 Q83.9619 1053.83 83.9619 1048.01 Q83.9619 1044.63 83.1344 1041.48 Q82.3069 1038.3 80.6518 1035.18 L86.1899 1035.18 Q87.5267 1038.33 88.227 1041.64 Q88.9272 1044.95 88.9272 1048.36 Q88.9272 1056.89 83.9619 1061.88 Q78.9967 1066.85 70.5303 1066.85 Q61.7774 1066.85 56.6531 1062.14 Q51.4968 1057.4 51.4968 1049.37 Q51.4968 1042.18 56.1438 1038.01 Q60.7589 1033.81 68.7161 1033.81 M66.9973 1039.67 Q62.1912 1039.73 59.3266 1042.37 Q56.4621 1044.98 56.4621 1049.31 Q56.4621 1054.21 59.2312 1057.17 Q62.0002 1060.1 67.0292 1060.55 L66.9973 1039.67 Z" fill="#000000" fill-rule="evenodd" fill-opacity="1" /><path clip-path="url(#clip660)" d="M 0 0 M53.7248 1002.01 L59.1993 1002.01 Q57.8307 1004.5 57.1623 1007.01 Q56.4621 1009.49 56.4621 1012.04 Q56.4621 1017.74 60.0905 1020.89 Q63.6872 1024.04 70.212 1024.04 Q76.7369 1024.04 80.3653 1020.89 Q83.9619 1017.74 83.9619 1012.04 Q83.9619 1009.49 83.2935 1007.01 Q82.5933 1004.5 81.2247 1002.01 L86.6355 1002.01 Q87.7814 1004.46 88.3543 1007.11 Q88.9272 1009.72 88.9272 1012.68 Q88.9272 1020.73 83.8664 1025.47 Q78.8057 1030.21 70.212 1030.21 Q61.491 1030.21 56.4939 1025.44 Q51.4968 1020.63 51.4968 1012.29 Q51.4968 1009.59 52.0697 1007.01 Q52.6108 1004.43 53.7248 1002.01 Z" fill="#000000" fill-rule="evenodd" fill-opacity="1" /><path clip-path="url(#clip660)" d="M 0 0 M42.2347 990.078 L52.3562 990.078 L52.3562 978.015 L56.9077 978.015 L56.9077 990.078 L76.2594 990.078 Q80.6199 990.078 81.8613 988.901 Q83.1026 987.691 83.1026 984.031 L83.1026 978.015 L88.0042 978.015 L88.0042 984.031 Q88.0042 990.81 85.4897 993.388 Q82.9434 995.967 76.2594 995.967 L56.9077 995.967 L56.9077 1000.26 L52.3562 1000.26 L52.3562 995.967 L42.2347 995.967 L42.2347 990.078 Z" fill="#000000" fill-rule="evenodd" fill-opacity="1" /><path clip-path="url(#clip660)" d="M 0 0 M52.3562 971.872 L52.3562 966.016 L88.0042 966.016 L88.0042 971.872 L52.3562 971.872 M38.479 971.872 L38.479 966.016 L45.895 966.016 L45.895 971.872 L38.479 971.872 Z" fill="#000000" fill-rule="evenodd" fill-opacity="1" /><path clip-path="url(#clip660)" d="M 0 0 M52.3562 964.074 L52.3562 957.868 L82.275 946.728 L52.3562 935.588 L52.3562 929.381 L88.0042 942.749 L88.0042 950.706 L52.3562 964.074 Z" fill="#000000" fill-rule="evenodd" fill-opacity="1" /><path clip-path="url(#clip660)" d="M 0 0 M68.7161 892.747 L71.5806 892.747 L71.5806 919.674 Q77.6281 919.292 80.8109 916.045 Q83.9619 912.767 83.9619 906.942 Q83.9619 903.568 83.1344 900.417 Q82.3069 897.234 80.6518 894.115 L86.1899 894.115 Q87.5267 897.266 88.227 900.576 Q88.9272 903.887 88.9272 907.292 Q88.9272 915.822 83.9619 920.819 Q78.9967 925.785 70.5303 925.785 Q61.7774 925.785 56.6531 921.074 Q51.4968 916.332 51.4968 908.311 Q51.4968 901.118 56.1438 896.948 Q60.7589 892.747 68.7161 892.747 M66.9973 898.603 Q62.1912 898.667 59.3266 901.309 Q56.4621 903.918 56.4621 908.247 Q56.4621 913.149 59.2312 916.109 Q62.0002 919.037 67.0292 919.483 L66.9973 898.603 Z" fill="#000000" fill-rule="evenodd" fill-opacity="1" /><path clip-path="url(#clip660)" d="M 0 0 M53.4065 843.158 L58.9447 843.158 Q57.6716 845.64 57.035 848.314 Q56.3984 850.988 56.3984 853.852 Q56.3984 858.213 57.7352 860.409 Q59.072 862.573 61.7456 862.573 Q63.7826 862.573 64.9603 861.014 Q66.1061 859.454 67.1565 854.743 L67.6021 852.738 Q68.9389 846.5 71.3897 843.89 Q73.8086 841.248 78.1691 841.248 Q83.1344 841.248 86.0308 845.195 Q88.9272 849.11 88.9272 855.985 Q88.9272 858.849 88.3543 861.968 Q87.8132 865.056 86.6992 868.493 L80.6518 868.493 Q82.3387 865.247 83.198 862.096 Q84.0256 858.945 84.0256 855.857 Q84.0256 851.72 82.6251 849.492 Q81.1929 847.264 78.6147 847.264 Q76.2276 847.264 74.9545 848.887 Q73.6813 850.478 72.5037 855.921 L72.0262 857.958 Q70.8804 863.401 68.5251 865.82 Q66.138 868.239 62.0002 868.239 Q56.9713 868.239 54.2341 864.674 Q51.4968 861.109 51.4968 854.552 Q51.4968 851.306 51.9743 848.441 Q52.4517 845.577 53.4065 843.158 Z" fill="#000000" fill-rule="evenodd" fill-opacity="1" /><path clip-path="url(#clip660)" d="M 0 0 M42.2347 829.312 L52.3562 829.312 L52.3562 817.249 L56.9077 817.249 L56.9077 829.312 L76.2594 829.312 Q80.6199 829.312 81.8613 828.135 Q83.1026 826.925 83.1026 823.265 L83.1026 817.249 L88.0042 817.249 L88.0042 823.265 Q88.0042 830.044 85.4897 832.623 Q82.9434 835.201 76.2594 835.201 L56.9077 835.201 L56.9077 839.498 L52.3562 839.498 L52.3562 835.201 L42.2347 835.201 L42.2347 829.312 Z" fill="#000000" fill-rule="evenodd" fill-opacity="1" /><path clip-path="url(#clip660)" d="M 0 0 M70.0847 794.906 Q70.0847 802.003 71.7079 804.741 Q73.3312 807.478 77.2461 807.478 Q80.3653 807.478 82.2114 805.441 Q84.0256 803.372 84.0256 799.839 Q84.0256 794.969 80.5881 792.041 Q77.1188 789.081 71.3897 789.081 L70.0847 789.081 L70.0847 794.906 M67.6657 783.225 L88.0042 783.225 L88.0042 789.081 L82.5933 789.081 Q85.8398 791.086 87.3994 794.078 Q88.9272 797.07 88.9272 801.399 Q88.9272 806.873 85.8716 810.12 Q82.7843 813.334 77.6281 813.334 Q71.6125 813.334 68.5569 809.324 Q65.5014 805.282 65.5014 797.293 L65.5014 789.081 L64.9285 789.081 Q60.8862 789.081 58.6901 791.755 Q56.4621 794.396 56.4621 799.203 Q56.4621 802.258 57.1941 805.155 Q57.9262 808.051 59.3903 810.725 L53.9795 810.725 Q52.7381 807.51 52.1334 804.486 Q51.4968 801.462 51.4968 798.598 Q51.4968 790.864 55.5072 787.044 Q59.5176 783.225 67.6657 783.225 Z" fill="#000000" fill-rule="evenodd" fill-opacity="1" /><path clip-path="url(#clip660)" d="M 0 0 M53.7248 751.428 L59.1993 751.428 Q57.8307 753.911 57.1623 756.425 Q56.4621 758.908 56.4621 761.454 Q56.4621 767.151 60.0905 770.302 Q63.6872 773.453 70.212 773.453 Q76.7369 773.453 80.3653 770.302 Q83.9619 767.151 83.9619 761.454 Q83.9619 758.908 83.2935 756.425 Q82.5933 753.911 81.2247 751.428 L86.6355 751.428 Q87.7814 753.879 88.3543 756.521 Q88.9272 759.13 88.9272 762.091 Q88.9272 770.143 83.8664 774.886 Q78.8057 779.628 70.212 779.628 Q61.491 779.628 56.4939 774.854 Q51.4968 770.048 51.4968 761.709 Q51.4968 759.003 52.0697 756.425 Q52.6108 753.847 53.7248 751.428 Z" fill="#000000" fill-rule="evenodd" fill-opacity="1" /><path clip-path="url(#clip660)" d="M 0 0 M38.479 745.508 L38.479 739.62 L67.7294 739.62 L52.3562 722.146 L52.3562 714.666 L69.0344 733.572 L88.0042 713.87 L88.0042 721.509 L70.5939 739.62 L88.0042 739.62 L88.0042 745.508 L38.479 745.508 Z" fill="#000000" fill-rule="evenodd" fill-opacity="1" /><path clip-path="url(#clip660)" d="M 0 0 M66.4881 657.375 L88.0042 657.375 L88.0042 663.231 L66.679 663.231 Q61.6183 663.231 59.1038 665.204 Q56.5894 667.178 56.5894 671.125 Q56.5894 675.867 59.6131 678.604 Q62.6368 681.342 67.8567 681.342 L88.0042 681.342 L88.0042 687.23 L38.479 687.23 L38.479 681.342 L57.8944 681.342 Q54.6797 679.241 53.0883 676.408 Q51.4968 673.544 51.4968 669.82 Q51.4968 663.677 55.3163 660.526 Q59.1038 657.375 66.4881 657.375 Z" fill="#000000" fill-rule="evenodd" fill-opacity="1" /><path clip-path="url(#clip660)" d="M 0 0 M68.7161 620.74 L71.5806 620.74 L71.5806 647.667 Q77.6281 647.285 80.8109 644.038 Q83.9619 640.76 83.9619 634.936 Q83.9619 631.562 83.1344 628.411 Q82.3069 625.228 80.6518 622.109 L86.1899 622.109 Q87.5267 625.26 88.227 628.57 Q88.9272 631.88 88.9272 635.286 Q88.9272 643.816 83.9619 648.813 Q78.9967 653.778 70.5303 653.778 Q61.7774 653.778 56.6531 649.067 Q51.4968 644.325 51.4968 636.304 Q51.4968 629.111 56.1438 624.941 Q60.7589 620.74 68.7161 620.74 M66.9973 626.596 Q62.1912 626.66 59.3266 629.302 Q56.4621 631.912 56.4621 636.24 Q56.4621 641.142 59.2312 644.102 Q62.0002 647.03 67.0292 647.476 L66.9973 626.596 Z" fill="#000000" fill-rule="evenodd" fill-opacity="1" /><path clip-path="url(#clip660)" d="M 0 0 M52.3562 614.597 L52.3562 608.741 L88.0042 608.741 L88.0042 614.597 L52.3562 614.597 M38.479 614.597 L38.479 608.741 L45.895 608.741 L45.895 614.597 L38.479 614.597 Z" fill="#000000" fill-rule="evenodd" fill-opacity="1" /><path clip-path="url(#clip660)" d="M 0 0 M69.7664 579.14 Q63.4007 579.14 59.8996 581.782 Q56.3984 584.392 56.3984 589.134 Q56.3984 593.845 59.8996 596.487 Q63.4007 599.097 69.7664 599.097 Q76.1003 599.097 79.6014 596.487 Q83.1026 593.845 83.1026 589.134 Q83.1026 584.392 79.6014 581.782 Q76.1003 579.14 69.7664 579.14 M83.58 573.284 Q92.683 573.284 97.1071 577.326 Q101.563 581.368 101.563 589.707 Q101.563 592.795 101.086 595.532 Q100.64 598.269 99.6852 600.847 L93.9879 600.847 Q95.3884 598.269 96.0568 595.755 Q96.7252 593.24 96.7252 590.63 Q96.7252 584.869 93.7015 582.005 Q90.7096 579.14 84.6303 579.14 L81.7339 579.14 Q84.885 580.954 86.4446 583.787 Q88.0042 586.62 88.0042 590.567 Q88.0042 597.123 83.0071 601.134 Q78.01 605.144 69.7664 605.144 Q61.491 605.144 56.4939 601.134 Q51.4968 597.123 51.4968 590.567 Q51.4968 586.62 53.0564 583.787 Q54.616 580.954 57.7671 579.14 L52.3562 579.14 L52.3562 573.284 L83.58 573.284 Z" fill="#000000" fill-rule="evenodd" fill-opacity="1" /><path clip-path="url(#clip660)" d="M 0 0 M66.4881 537.508 L88.0042 537.508 L88.0042 543.365 L66.679 543.365 Q61.6183 543.365 59.1038 545.338 Q56.5894 547.312 56.5894 551.258 Q56.5894 556.001 59.6131 558.738 Q62.6368 561.475 67.8567 561.475 L88.0042 561.475 L88.0042 567.364 L38.479 567.364 L38.479 561.475 L57.8944 561.475 Q54.6797 559.375 53.0883 556.542 Q51.4968 553.677 51.4968 549.953 Q51.4968 543.81 55.3163 540.659 Q59.1038 537.508 66.4881 537.508 Z" fill="#000000" fill-rule="evenodd" fill-opacity="1" /><path clip-path="url(#clip660)" d="M 0 0 M42.2347 525.573 L52.3562 525.573 L52.3562 513.51 L56.9077 513.51 L56.9077 525.573 L76.2594 525.573 Q80.6199 525.573 81.8613 524.395 Q83.1026 523.186 83.1026 519.525 L83.1026 513.51 L88.0042 513.51 L88.0042 519.525 Q88.0042 526.305 85.4897 528.883 Q82.9434 531.461 76.2594 531.461 L56.9077 531.461 L56.9077 535.758 L52.3562 535.758 L52.3562 531.461 L42.2347 531.461 L42.2347 525.573 Z" fill="#000000" fill-rule="evenodd" fill-opacity="1" /><path clip-path="url(#clip660)" d="M 0 0 M38.5426 472.578 Q45.8632 476.843 53.0246 478.912 Q60.186 480.981 67.5384 480.981 Q74.8908 480.981 82.1159 478.912 Q89.3091 476.811 96.5979 472.578 L96.5979 477.671 Q89.1182 482.445 81.8931 484.832 Q74.668 487.187 67.5384 487.187 Q60.4406 487.187 53.2474 484.832 Q46.0542 482.477 38.5426 477.671 L38.5426 472.578 Z" fill="#000000" fill-rule="evenodd" fill-opacity="1" /><path clip-path="url(#clip660)" d="M 0 0 M59.1993 438.681 Q55.2526 436.485 53.3747 433.429 Q51.4968 430.374 51.4968 426.236 Q51.4968 420.666 55.4117 417.642 Q59.2948 414.618 66.4881 414.618 L88.0042 414.618 L88.0042 420.507 L66.679 420.507 Q61.5546 420.507 59.072 422.321 Q56.5894 424.135 56.5894 427.859 Q56.5894 432.411 59.6131 435.052 Q62.6368 437.694 67.8567 437.694 L88.0042 437.694 L88.0042 443.582 L66.679 443.582 Q61.5228 443.582 59.072 445.397 Q56.5894 447.211 56.5894 450.998 Q56.5894 455.486 59.6449 458.128 Q62.6686 460.77 67.8567 460.77 L88.0042 460.77 L88.0042 466.658 L52.3562 466.658 L52.3562 460.77 L57.8944 460.77 Q54.616 458.765 53.0564 455.964 Q51.4968 453.163 51.4968 449.312 Q51.4968 445.428 53.4702 442.723 Q55.4436 439.986 59.1993 438.681 Z" fill="#000000" fill-rule="evenodd" fill-opacity="1" /><path clip-path="url(#clip660)" d="M 0 0 M38.5426 409.399 L38.5426 404.306 Q46.0542 399.532 53.2474 397.176 Q60.4406 394.789 67.5384 394.789 Q74.668 394.789 81.8931 397.176 Q89.1182 399.532 96.5979 404.306 L96.5979 409.399 Q89.3091 405.165 82.1159 403.096 Q74.8908 400.996 67.5384 400.996 Q60.186 400.996 53.0246 403.096 Q45.8632 405.165 38.5426 409.399 Z" fill="#000000" fill-rule="evenodd" fill-opacity="1" /><path clip-path="url(#clip660)" d="M 0 0 M592.009 18.8205 L592.009 41.5461 L602.299 41.5461 Q608.01 41.5461 611.13 38.5889 Q614.249 35.6318 614.249 30.163 Q614.249 24.7348 611.13 21.7777 Q608.01 18.8205 602.299 18.8205 L592.009 18.8205 M583.826 12.096 L602.299 12.096 Q612.466 12.096 617.651 16.714 Q622.877 21.2916 622.877 30.163 Q622.877 39.1155 617.651 43.6931 Q612.466 48.2706 602.299 48.2706 L592.009 48.2706 L592.009 72.576 L583.826 72.576 L583.826 12.096 Z" fill="#000000" fill-rule="evenodd" fill-opacity="1" /><path clip-path="url(#clip660)" d="M 0 0 M630.695 9.54393 L638.149 9.54393 L638.149 72.576 L630.695 72.576 L630.695 9.54393 Z" fill="#000000" fill-rule="evenodd" fill-opacity="1" /><path clip-path="url(#clip660)" d="M 0 0 M645.198 54.671 L645.198 27.2059 L652.651 27.2059 L652.651 54.3874 Q652.651 60.8284 655.163 64.0691 Q657.674 67.2693 662.698 67.2693 Q668.733 67.2693 672.217 63.421 Q675.741 59.5726 675.741 52.9291 L675.741 27.2059 L683.195 27.2059 L683.195 72.576 L675.741 72.576 L675.741 65.6084 Q673.027 69.7404 669.422 71.7658 Q665.857 73.7508 661.118 73.7508 Q653.299 73.7508 649.249 68.8897 Q645.198 64.0286 645.198 54.671 M663.953 26.1121 L663.953 26.1121 Z" fill="#000000" fill-rule="evenodd" fill-opacity="1" /><path clip-path="url(#clip660)" d="M 0 0 M726.337 35.9153 Q729.132 30.8922 733.021 28.5022 Q736.91 26.1121 742.176 26.1121 Q749.265 26.1121 753.114 31.0947 Q756.962 36.0368 756.962 45.1919 L756.962 72.576 L749.468 72.576 L749.468 45.4349 Q749.468 38.913 747.159 35.7533 Q744.85 32.5936 740.11 32.5936 Q734.318 32.5936 730.955 36.4419 Q727.593 40.2903 727.593 46.9338 L727.593 72.576 L720.099 72.576 L720.099 45.4349 Q720.099 38.8725 717.79 35.7533 Q715.481 32.5936 710.66 32.5936 Q704.948 32.5936 701.586 36.4824 Q698.224 40.3308 698.224 46.9338 L698.224 72.576 L690.73 72.576 L690.73 27.2059 L698.224 27.2059 L698.224 34.2544 Q700.776 30.082 704.341 28.0971 Q707.906 26.1121 712.807 26.1121 Q717.749 26.1121 721.193 28.6237 Q724.676 31.1352 726.337 35.9153 Z" fill="#000000" fill-rule="evenodd" fill-opacity="1" /><path clip-path="url(#clip660)" d="M 0 0 M803.588 48.0275 L803.588 51.6733 L769.317 51.6733 Q769.803 59.3701 773.935 63.421 Q778.108 67.4314 785.521 67.4314 Q789.815 67.4314 793.825 66.3781 Q797.876 65.3249 801.846 63.2184 L801.846 70.267 Q797.836 71.9684 793.623 72.8596 Q789.41 73.7508 785.075 73.7508 Q774.219 73.7508 767.859 67.4314 Q761.54 61.1119 761.54 50.3365 Q761.54 39.1965 767.535 32.6746 Q773.571 26.1121 783.779 26.1121 Q792.934 26.1121 798.241 32.0264 Q803.588 37.9003 803.588 48.0275 M796.134 45.84 Q796.053 39.7232 792.691 36.0774 Q789.369 32.4315 783.86 32.4315 Q777.622 32.4315 773.854 35.9558 Q770.128 39.4801 769.56 45.8805 L796.134 45.84 Z" fill="#000000" fill-rule="evenodd" fill-opacity="1" /><path clip-path="url(#clip660)" d="M 0 0 M864.068 34.1734 Q862.812 33.4443 861.313 33.1202 Q859.855 32.7556 858.073 32.7556 Q851.753 32.7556 848.35 36.8875 Q844.988 40.9789 844.988 48.6757 L844.988 72.576 L837.494 72.576 L837.494 27.2059 L844.988 27.2059 L844.988 34.2544 Q847.338 30.1225 851.105 28.1376 Q854.872 26.1121 860.26 26.1121 Q861.03 26.1121 861.962 26.2337 Q862.893 26.3147 864.027 26.5172 L864.068 34.1734 Z" fill="#000000" fill-rule="evenodd" fill-opacity="1" /><path clip-path="url(#clip660)" d="M 0 0 M871.886 27.2059 L879.34 27.2059 L879.34 72.576 L871.886 72.576 L871.886 27.2059 M871.886 9.54393 L879.34 9.54393 L879.34 18.9825 L871.886 18.9825 L871.886 9.54393 Z" fill="#000000" fill-rule="evenodd" fill-opacity="1" /><path clip-path="url(#clip660)" d="M 0 0 M916.082 28.5427 L916.082 35.5912 Q912.922 33.9709 909.519 33.1607 Q906.116 32.3505 902.471 32.3505 Q896.921 32.3505 894.126 34.0519 Q891.371 35.7533 891.371 39.156 Q891.371 41.7486 893.356 43.2475 Q895.341 44.7058 901.336 46.0426 L903.888 46.6097 Q911.828 48.3111 915.15 51.4303 Q918.512 54.509 918.512 60.0587 Q918.512 66.3781 913.489 70.0644 Q908.506 73.7508 899.756 73.7508 Q896.111 73.7508 892.141 73.0216 Q888.211 72.3329 883.836 70.9151 L883.836 63.2184 Q887.968 65.3654 891.979 66.4591 Q895.989 67.5124 899.918 67.5124 Q905.185 67.5124 908.02 65.73 Q910.856 63.9071 910.856 60.6258 Q910.856 57.5877 908.79 55.9673 Q906.765 54.3469 899.837 52.8481 L897.245 52.2405 Q890.318 50.7821 887.239 47.7845 Q884.16 44.7463 884.16 39.4801 Q884.16 33.0797 888.697 29.5959 Q893.234 26.1121 901.579 26.1121 Q905.711 26.1121 909.357 26.7198 Q913.003 27.3274 916.082 28.5427 Z" fill="#000000" fill-rule="evenodd" fill-opacity="1" /><path clip-path="url(#clip660)" d="M 0 0 M965.138 48.0275 L965.138 51.6733 L930.867 51.6733 Q931.353 59.3701 935.485 63.421 Q939.658 67.4314 947.071 67.4314 Q951.365 67.4314 955.375 66.3781 Q959.426 65.3249 963.396 63.2184 L963.396 70.267 Q959.386 71.9684 955.173 72.8596 Q950.96 73.7508 946.625 73.7508 Q935.769 73.7508 929.409 67.4314 Q923.09 61.1119 923.09 50.3365 Q923.09 39.1965 929.085 32.6746 Q935.121 26.1121 945.329 26.1121 Q954.484 26.1121 959.791 32.0264 Q965.138 37.9003 965.138 48.0275 M957.684 45.84 Q957.603 39.7232 954.241 36.0774 Q950.919 32.4315 945.41 32.4315 Q939.172 32.4315 935.404 35.9558 Q931.678 39.4801 931.11 45.8805 L957.684 45.84 Z" fill="#000000" fill-rule="evenodd" fill-opacity="1" /><path clip-path="url(#clip660)" d="M 0 0 M1019.95 49.7694 Q1010.91 49.7694 1007.43 51.8354 Q1003.95 53.9013 1003.95 58.8839 Q1003.95 62.8538 1006.54 65.2034 Q1009.17 67.5124 1013.67 67.5124 Q1019.87 67.5124 1023.59 63.1374 Q1027.36 58.7219 1027.36 51.4303 L1027.36 49.7694 L1019.95 49.7694 M1034.81 46.6907 L1034.81 72.576 L1027.36 72.576 L1027.36 65.6895 Q1024.81 69.8214 1021 71.8063 Q1017.19 73.7508 1011.68 73.7508 Q1004.72 73.7508 1000.58 69.8619 Q996.492 65.9325 996.492 59.3701 Q996.492 51.7138 1001.6 47.825 Q1006.74 43.9361 1016.91 43.9361 L1027.36 43.9361 L1027.36 43.2069 Q1027.36 38.0623 1023.96 35.2672 Q1020.59 32.4315 1014.48 32.4315 Q1010.59 32.4315 1006.9 33.3632 Q1003.22 34.295 999.814 36.1584 L999.814 29.2718 Q1003.91 27.692 1007.75 26.9223 Q1011.6 26.1121 1015.25 26.1121 Q1025.09 26.1121 1029.95 31.2163 Q1034.81 36.3204 1034.81 46.6907 Z" fill="#000000" fill-rule="evenodd" fill-opacity="1" /><path clip-path="url(#clip660)" d="M 0 0 M1071.56 28.5427 L1071.56 35.5912 Q1068.4 33.9709 1064.99 33.1607 Q1061.59 32.3505 1057.94 32.3505 Q1052.39 32.3505 1049.6 34.0519 Q1046.84 35.7533 1046.84 39.156 Q1046.84 41.7486 1048.83 43.2475 Q1050.81 44.7058 1056.81 46.0426 L1059.36 46.6097 Q1067.3 48.3111 1070.62 51.4303 Q1073.99 54.509 1073.99 60.0587 Q1073.99 66.3781 1068.96 70.0644 Q1063.98 73.7508 1055.23 73.7508 Q1051.58 73.7508 1047.61 73.0216 Q1043.69 72.3329 1039.31 70.9151 L1039.31 63.2184 Q1043.44 65.3654 1047.45 66.4591 Q1051.46 67.5124 1055.39 67.5124 Q1060.66 67.5124 1063.49 65.73 Q1066.33 63.9071 1066.33 60.6258 Q1066.33 57.5877 1064.26 55.9673 Q1062.24 54.3469 1055.31 52.8481 L1052.72 52.2405 Q1045.79 50.7821 1042.71 47.7845 Q1039.63 44.7463 1039.63 39.4801 Q1039.63 33.0797 1044.17 29.5959 Q1048.71 26.1121 1057.05 26.1121 Q1061.18 26.1121 1064.83 26.7198 Q1068.48 27.3274 1071.56 28.5427 Z" fill="#000000" fill-rule="evenodd" fill-opacity="1" /><path clip-path="url(#clip660)" d="M 0 0 M1128.79 49.7694 Q1119.76 49.7694 1116.28 51.8354 Q1112.79 53.9013 1112.79 58.8839 Q1112.79 62.8538 1115.39 65.2034 Q1118.02 67.5124 1122.52 67.5124 Q1128.71 67.5124 1132.44 63.1374 Q1136.21 58.7219 1136.21 51.4303 L1136.21 49.7694 L1128.79 49.7694 M1143.66 46.6907 L1143.66 72.576 L1136.21 72.576 L1136.21 65.6895 Q1133.66 69.8214 1129.85 71.8063 Q1126.04 73.7508 1120.53 73.7508 Q1113.56 73.7508 1109.43 69.8619 Q1105.34 65.9325 1105.34 59.3701 Q1105.34 51.7138 1110.44 47.825 Q1115.59 43.9361 1125.76 43.9361 L1136.21 43.9361 L1136.21 43.2069 Q1136.21 38.0623 1132.8 35.2672 Q1129.44 32.4315 1123.33 32.4315 Q1119.44 32.4315 1115.75 33.3632 Q1112.06 34.295 1108.66 36.1584 L1108.66 29.2718 Q1112.75 27.692 1116.6 26.9223 Q1120.45 26.1121 1124.1 26.1121 Q1133.94 26.1121 1138.8 31.2163 Q1143.66 36.3204 1143.66 46.6907 Z" fill="#000000" fill-rule="evenodd" fill-opacity="1" /><path clip-path="url(#clip660)" d="M 0 0 M1200.82 9.54393 L1200.82 15.7418 L1193.69 15.7418 Q1189.68 15.7418 1188.1 17.3622 Q1186.56 18.9825 1186.56 23.1955 L1186.56 27.2059 L1198.83 27.2059 L1198.83 32.9987 L1186.56 32.9987 L1186.56 72.576 L1179.07 72.576 L1179.07 32.9987 L1171.94 32.9987 L1171.94 27.2059 L1179.07 27.2059 L1179.07 24.0462 Q1179.07 16.471 1182.59 13.0277 Q1186.11 9.54393 1193.77 9.54393 L1200.82 9.54393 Z" fill="#000000" fill-rule="evenodd" fill-opacity="1" /><path clip-path="url(#clip660)" d="M 0 0 M1207.87 54.671 L1207.87 27.2059 L1215.32 27.2059 L1215.32 54.3874 Q1215.32 60.8284 1217.83 64.0691 Q1220.35 67.2693 1225.37 67.2693 Q1231.4 67.2693 1234.89 63.421 Q1238.41 59.5726 1238.41 52.9291 L1238.41 27.2059 L1245.87 27.2059 L1245.87 72.576 L1238.41 72.576 L1238.41 65.6084 Q1235.7 69.7404 1232.09 71.7658 Q1228.53 73.7508 1223.79 73.7508 Q1215.97 73.7508 1211.92 68.8897 Q1207.87 64.0286 1207.87 54.671 M1226.62 26.1121 L1226.62 26.1121 Z" fill="#000000" fill-rule="evenodd" fill-opacity="1" /><path clip-path="url(#clip660)" d="M 0 0 M1291.4 45.1919 L1291.4 72.576 L1283.94 72.576 L1283.94 45.4349 Q1283.94 38.994 1281.43 35.7938 Q1278.92 32.5936 1273.9 32.5936 Q1267.86 32.5936 1264.38 36.4419 Q1260.89 40.2903 1260.89 46.9338 L1260.89 72.576 L1253.4 72.576 L1253.4 27.2059 L1260.89 27.2059 L1260.89 34.2544 Q1263.57 30.163 1267.17 28.1376 Q1270.82 26.1121 1275.56 26.1121 Q1283.38 26.1121 1287.39 30.9732 Q1291.4 35.7938 1291.4 45.1919 Z" fill="#000000" fill-rule="evenodd" fill-opacity="1" /><path clip-path="url(#clip660)" d="M 0 0 M1331.87 28.9478 L1331.87 35.9153 Q1328.71 34.1734 1325.51 33.3227 Q1322.35 32.4315 1319.11 32.4315 Q1311.85 32.4315 1307.84 37.0496 Q1303.83 41.6271 1303.83 49.9314 Q1303.83 58.2358 1307.84 62.8538 Q1311.85 67.4314 1319.11 67.4314 Q1322.35 67.4314 1325.51 66.5807 Q1328.71 65.6895 1331.87 63.9476 L1331.87 70.8341 Q1328.75 72.2924 1325.38 73.0216 Q1322.06 73.7508 1318.3 73.7508 Q1308.05 73.7508 1302.01 67.3098 Q1295.98 60.8689 1295.98 49.9314 Q1295.98 38.832 1302.05 32.472 Q1308.17 26.1121 1318.78 26.1121 Q1322.23 26.1121 1325.51 26.8413 Q1328.79 27.5299 1331.87 28.9478 Z" fill="#000000" fill-rule="evenodd" fill-opacity="1" /><path clip-path="url(#clip660)" d="M 0 0 M1347.06 14.324 L1347.06 27.2059 L1362.41 27.2059 L1362.41 32.9987 L1347.06 32.9987 L1347.06 57.6282 Q1347.06 63.1779 1348.56 64.7578 Q1350.1 66.3376 1354.75 66.3376 L1362.41 66.3376 L1362.41 72.576 L1354.75 72.576 Q1346.13 72.576 1342.84 69.3758 Q1339.56 66.1351 1339.56 57.6282 L1339.56 32.9987 L1334.09 32.9987 L1334.09 27.2059 L1339.56 27.2059 L1339.56 14.324 L1347.06 14.324 Z" fill="#000000" fill-rule="evenodd" fill-opacity="1" /><path clip-path="url(#clip660)" d="M 0 0 M1370.23 27.2059 L1377.68 27.2059 L1377.68 72.576 L1370.23 72.576 L1370.23 27.2059 M1370.23 9.54393 L1377.68 9.54393 L1377.68 18.9825 L1370.23 18.9825 L1370.23 9.54393 Z" fill="#000000" fill-rule="evenodd" fill-opacity="1" /><path clip-path="url(#clip660)" d="M 0 0 M1403.08 32.4315 Q1397.09 32.4315 1393.6 37.1306 Q1390.12 41.7891 1390.12 49.9314 Q1390.12 58.0738 1393.56 62.7728 Q1397.05 67.4314 1403.08 67.4314 Q1409.04 67.4314 1412.52 62.7323 Q1416 58.0333 1416 49.9314 Q1416 41.8701 1412.52 37.1711 Q1409.04 32.4315 1403.08 32.4315 M1403.08 26.1121 Q1412.8 26.1121 1418.35 32.4315 Q1423.9 38.7509 1423.9 49.9314 Q1423.9 61.0714 1418.35 67.4314 Q1412.8 73.7508 1403.08 73.7508 Q1393.32 73.7508 1387.77 67.4314 Q1382.26 61.0714 1382.26 49.9314 Q1382.26 38.7509 1387.77 32.4315 Q1393.32 26.1121 1403.08 26.1121 Z" fill="#000000" fill-rule="evenodd" fill-opacity="1" /><path clip-path="url(#clip660)" d="M 0 0 M1469.44 45.1919 L1469.44 72.576 L1461.98 72.576 L1461.98 45.4349 Q1461.98 38.994 1459.47 35.7938 Q1456.96 32.5936 1451.94 32.5936 Q1445.9 32.5936 1442.42 36.4419 Q1438.93 40.2903 1438.93 46.9338 L1438.93 72.576 L1431.44 72.576 L1431.44 27.2059 L1438.93 27.2059 L1438.93 34.2544 Q1441.61 30.163 1445.21 28.1376 Q1448.86 26.1121 1453.6 26.1121 Q1461.41 26.1121 1465.42 30.9732 Q1469.44 35.7938 1469.44 45.1919 Z" fill="#000000" fill-rule="evenodd" fill-opacity="1" /><path clip-path="url(#clip660)" d="M 0 0 M1521.21 32.4315 Q1515.21 32.4315 1511.73 37.1306 Q1508.24 41.7891 1508.24 49.9314 Q1508.24 58.0738 1511.69 62.7728 Q1515.17 67.4314 1521.21 67.4314 Q1527.16 67.4314 1530.64 62.7323 Q1534.13 58.0333 1534.13 49.9314 Q1534.13 41.8701 1530.64 37.1711 Q1527.16 32.4315 1521.21 32.4315 M1521.21 26.1121 Q1530.93 26.1121 1536.48 32.4315 Q1542.03 38.7509 1542.03 49.9314 Q1542.03 61.0714 1536.48 67.4314 Q1530.93 73.7508 1521.21 73.7508 Q1511.44 73.7508 1505.89 67.4314 Q1500.38 61.0714 1500.38 49.9314 Q1500.38 38.7509 1505.89 32.4315 Q1511.44 26.1121 1521.21 26.1121 Z" fill="#000000" fill-rule="evenodd" fill-opacity="1" /><path clip-path="url(#clip660)" d="M 0 0 M1572.81 9.54393 L1572.81 15.7418 L1565.68 15.7418 Q1561.67 15.7418 1560.09 17.3622 Q1558.55 18.9825 1558.55 23.1955 L1558.55 27.2059 L1570.83 27.2059 L1570.83 32.9987 L1558.55 32.9987 L1558.55 72.576 L1551.06 72.576 L1551.06 32.9987 L1543.93 32.9987 L1543.93 27.2059 L1551.06 27.2059 L1551.06 24.0462 Q1551.06 16.471 1554.59 13.0277 Q1558.11 9.54393 1565.77 9.54393 L1572.81 9.54393 Z" fill="#000000" fill-rule="evenodd" fill-opacity="1" /><path clip-path="url(#clip660)" d="M 0 0 M1602.67 27.2059 L1610.12 27.2059 L1619.44 62.6108 L1628.72 27.2059 L1637.51 27.2059 L1646.82 62.6108 L1656.1 27.2059 L1663.55 27.2059 L1651.69 72.576 L1642.89 72.576 L1633.13 35.3887 L1623.33 72.576 L1614.54 72.576 L1602.67 27.2059 Z" fill="#000000" fill-rule="evenodd" fill-opacity="1" /><path clip-path="url(#clip660)" d="M 0 0 M1671.37 27.2059 L1678.83 27.2059 L1678.83 72.576 L1671.37 72.576 L1671.37 27.2059 M1671.37 9.54393 L1678.83 9.54393 L1678.83 18.9825 L1671.37 18.9825 L1671.37 9.54393 Z" fill="#000000" fill-rule="evenodd" fill-opacity="1" /><path clip-path="url(#clip660)" d="M 0 0 M1724.36 45.1919 L1724.36 72.576 L1716.9 72.576 L1716.9 45.4349 Q1716.9 38.994 1714.39 35.7938 Q1711.88 32.5936 1706.86 32.5936 Q1700.82 32.5936 1697.34 36.4419 Q1693.86 40.2903 1693.86 46.9338 L1693.86 72.576 L1686.36 72.576 L1686.36 27.2059 L1693.86 27.2059 L1693.86 34.2544 Q1696.53 30.163 1700.13 28.1376 Q1703.78 26.1121 1708.52 26.1121 Q1716.34 26.1121 1720.35 30.9732 Q1724.36 35.7938 1724.36 45.1919 Z" fill="#000000" fill-rule="evenodd" fill-opacity="1" /><path clip-path="url(#clip660)" d="M 0 0 M1762.03 34.0924 L1762.03 9.54393 L1769.49 9.54393 L1769.49 72.576 L1762.03 72.576 L1762.03 65.7705 Q1759.68 69.8214 1756.08 71.8063 Q1752.51 73.7508 1747.49 73.7508 Q1739.27 73.7508 1734.08 67.1883 Q1728.94 60.6258 1728.94 49.9314 Q1728.94 39.2371 1734.08 32.6746 Q1739.27 26.1121 1747.49 26.1121 Q1752.51 26.1121 1756.08 28.0971 Q1759.68 30.0415 1762.03 34.0924 M1736.63 49.9314 Q1736.63 58.1548 1739.99 62.8538 Q1743.4 67.5124 1749.31 67.5124 Q1755.23 67.5124 1758.63 62.8538 Q1762.03 58.1548 1762.03 49.9314 Q1762.03 41.7081 1758.63 37.0496 Q1755.23 32.3505 1749.31 32.3505 Q1743.4 32.3505 1739.99 37.0496 Q1736.63 41.7081 1736.63 49.9314 Z" fill="#000000" fill-rule="evenodd" fill-opacity="1" /><path clip-path="url(#clip660)" d="M 0 0 M1806.23 28.5427 L1806.23 35.5912 Q1803.07 33.9709 1799.66 33.1607 Q1796.26 32.3505 1792.62 32.3505 Q1787.07 32.3505 1784.27 34.0519 Q1781.52 35.7533 1781.52 39.156 Q1781.52 41.7486 1783.5 43.2475 Q1785.49 44.7058 1791.48 46.0426 L1794.03 46.6097 Q1801.97 48.3111 1805.3 51.4303 Q1808.66 54.509 1808.66 60.0587 Q1808.66 66.3781 1803.63 70.0644 Q1798.65 73.7508 1789.9 73.7508 Q1786.26 73.7508 1782.29 73.0216 Q1778.36 72.3329 1773.98 70.9151 L1773.98 63.2184 Q1778.11 65.3654 1782.12 66.4591 Q1786.13 67.5124 1790.06 67.5124 Q1795.33 67.5124 1798.17 65.73 Q1801 63.9071 1801 60.6258 Q1801 57.5877 1798.94 55.9673 Q1796.91 54.3469 1789.98 52.8481 L1787.39 52.2405 Q1780.46 50.7821 1777.38 47.7845 Q1774.31 44.7463 1774.31 39.4801 Q1774.31 33.0797 1778.84 29.5959 Q1783.38 26.1121 1791.73 26.1121 Q1795.86 26.1121 1799.5 26.7198 Q1803.15 27.3274 1806.23 28.5427 Z" fill="#000000" fill-rule="evenodd" fill-opacity="1" /><path clip-path="url(#clip660)" d="M 0 0 M1823.69 65.7705 L1823.69 89.8329 L1816.19 89.8329 L1816.19 27.2059 L1823.69 27.2059 L1823.69 34.0924 Q1826.04 30.0415 1829.6 28.0971 Q1833.21 26.1121 1838.19 26.1121 Q1846.45 26.1121 1851.6 32.6746 Q1856.78 39.2371 1856.78 49.9314 Q1856.78 60.6258 1851.6 67.1883 Q1846.45 73.7508 1838.19 73.7508 Q1833.21 73.7508 1829.6 71.8063 Q1826.04 69.8214 1823.69 65.7705 M1849.05 49.9314 Q1849.05 41.7081 1845.64 37.0496 Q1842.28 32.3505 1836.37 32.3505 Q1830.45 32.3505 1827.05 37.0496 Q1823.69 41.7081 1823.69 49.9314 Q1823.69 58.1548 1827.05 62.8538 Q1830.45 67.5124 1836.37 67.5124 Q1842.28 67.5124 1845.64 62.8538 Q1849.05 58.1548 1849.05 49.9314 Z" fill="#000000" fill-rule="evenodd" fill-opacity="1" /><path clip-path="url(#clip660)" d="M 0 0 M1903.41 48.0275 L1903.41 51.6733 L1869.14 51.6733 Q1869.62 59.3701 1873.76 63.421 Q1877.93 67.4314 1885.34 67.4314 Q1889.64 67.4314 1893.65 66.3781 Q1897.7 65.3249 1901.67 63.2184 L1901.67 70.267 Q1897.66 71.9684 1893.44 72.8596 Q1889.23 73.7508 1884.9 73.7508 Q1874.04 73.7508 1867.68 67.4314 Q1861.36 61.1119 1861.36 50.3365 Q1861.36 39.1965 1867.36 32.6746 Q1873.39 26.1121 1883.6 26.1121 Q1892.75 26.1121 1898.06 32.0264 Q1903.41 37.9003 1903.41 48.0275 M1895.95 45.84 Q1895.87 39.7232 1892.51 36.0774 Q1889.19 32.4315 1883.68 32.4315 Q1877.44 32.4315 1873.67 35.9558 Q1869.95 39.4801 1869.38 45.8805 L1895.95 45.84 Z" fill="#000000" fill-rule="evenodd" fill-opacity="1" /><path clip-path="url(#clip660)" d="M 0 0 M1950.03 48.0275 L1950.03 51.6733 L1915.76 51.6733 Q1916.25 59.3701 1920.38 63.421 Q1924.55 67.4314 1931.97 67.4314 Q1936.26 67.4314 1940.27 66.3781 Q1944.32 65.3249 1948.29 63.2184 L1948.29 70.267 Q1944.28 71.9684 1940.07 72.8596 Q1935.86 73.7508 1931.52 73.7508 Q1920.67 73.7508 1914.31 67.4314 Q1907.99 61.1119 1907.99 50.3365 Q1907.99 39.1965 1913.98 32.6746 Q1920.02 26.1121 1930.23 26.1121 Q1939.38 26.1121 1944.69 32.0264 Q1950.03 37.9003 1950.03 48.0275 M1942.58 45.84 Q1942.5 39.7232 1939.14 36.0774 Q1935.82 32.4315 1930.31 32.4315 Q1924.07 32.4315 1920.3 35.9558 Q1916.57 39.4801 1916.01 45.8805 L1942.58 45.84 Z" fill="#000000" fill-rule="evenodd" fill-opacity="1" /><path clip-path="url(#clip660)" d="M 0 0 M1987.71 34.0924 L1987.71 9.54393 L1995.16 9.54393 L1995.16 72.576 L1987.71 72.576 L1987.71 65.7705 Q1985.36 69.8214 1981.75 71.8063 Q1978.19 73.7508 1973.17 73.7508 Q1964.94 73.7508 1959.76 67.1883 Q1954.61 60.6258 1954.61 49.9314 Q1954.61 39.2371 1959.76 32.6746 Q1964.94 26.1121 1973.17 26.1121 Q1978.19 26.1121 1981.75 28.0971 Q1985.36 30.0415 1987.71 34.0924 M1962.31 49.9314 Q1962.31 58.1548 1965.67 62.8538 Q1969.07 67.5124 1974.99 67.5124 Q1980.9 67.5124 1984.31 62.8538 Q1987.71 58.1548 1987.71 49.9314 Q1987.71 41.7081 1984.31 37.0496 Q1980.9 32.3505 1974.99 32.3505 Q1969.07 32.3505 1965.67 37.0496 Q1962.31 41.7081 1962.31 49.9314 Z" fill="#000000" fill-rule="evenodd" fill-opacity="1" /><polyline clip-path="url(#clip662)" style="stroke:#009af9; stroke-width:4; stroke-opacity:1; fill:none" points="
  306.478,88.978 326.54,353.498 346.601,482.154 366.663,563.448 386.724,621.348 406.786,665.562 426.847,700.904 446.909,730.085 466.971,754.768 487.032,776.041 
  507.094,794.651 527.155,811.133 547.217,825.878 567.278,839.184 587.34,851.279 607.401,862.345 627.463,872.524 647.524,881.935 667.586,890.674 687.648,898.82 
  707.709,906.44 727.771,913.591 747.832,920.322 767.894,926.673 787.955,932.681 808.017,938.376 828.078,943.787 848.14,948.937 868.201,953.847 888.263,958.537 
  908.325,963.023 928.386,967.32 948.448,971.441 968.509,975.399 988.571,979.205 1008.63,982.869 1028.69,986.399 1048.76,989.805 1068.82,993.093 1088.88,996.27 
  1108.94,999.343 1129,1002.32 1149.06,1005.2 1169.12,1007.99 1189.19,1010.7 1209.25,1013.34 1229.31,1015.89 1249.37,1018.38 1269.43,1020.79 1289.49,1023.15 
  1309.56,1025.44 1329.62,1027.67 1349.68,1029.84 1369.74,1031.96 1389.8,1034.03 1409.86,1036.05 1429.92,1038.02 1449.99,1039.95 1470.05,1041.83 1490.11,1043.67 
  1510.17,1045.47 1530.23,1047.23 1550.29,1048.95 1570.36,1050.64 1590.42,1052.29 1610.48,1053.91 1630.54,1055.5 1650.6,1057.05 1670.66,1058.58 1690.72,1060.07 
  1710.79,1061.54 1730.85,1062.98 1750.91,1064.39 1770.97,1065.78 1791.03,1067.15 1811.09,1068.48 1831.16,1069.8 1851.22,1071.09 1871.28,1072.37 1891.34,1073.62 
  1911.4,1074.85 1931.46,1076.06 1951.52,1077.25 1971.59,1078.42 1991.65,1079.57 2011.71,1080.7 2031.77,1081.82 2051.83,1082.92 2071.89,1084.01 2091.96,1085.07 
  2112.02,1086.12 2132.08,1087.16 2152.14,1088.18 2172.2,1089.19 2192.26,1090.18 2212.33,1091.16 2232.39,1092.13 2252.45,1093.08 2272.51,1094.02 2292.57,1094.95 
  
  "/>
<circle clip-path="url(#clip662)" cx="888.263" cy="958.537" r="14" fill="#e26f46" fill-rule="evenodd" fill-opacity="1" stroke="#000000" stroke-opacity="1" stroke-width="3.2"/>
<path clip-path="url(#clip660)" d="
M1699.51 803.566 L2281.87 803.566 L2281.87 682.606 L1699.51 682.606  Z
  " fill="#ffffff" fill-rule="evenodd" fill-opacity="1"/>
<polyline clip-path="url(#clip660)" style="stroke:#000000; stroke-width:4; stroke-opacity:1; fill:none" points="
  1699.51,803.566 2281.87,803.566 2281.87,682.606 1699.51,682.606 1699.51,803.566 
  "/>
<circle clip-path="url(#clip660)" cx="1794.02" cy="743.086" r="23" fill="#e26f46" fill-rule="evenodd" fill-opacity="1" stroke="#000000" stroke-opacity="1" stroke-width="5.12"/>
<path clip-path="url(#clip660)" d="M 0 0 M1909.04 735.436 L1909.04 739.417 Q1907.23 738.422 1905.4 737.936 Q1903.6 737.426 1901.75 737.426 Q1897.6 737.426 1895.31 740.065 Q1893.02 742.681 1893.02 747.426 Q1893.02 752.172 1895.31 754.81 Q1897.6 757.426 1901.75 757.426 Q1903.6 757.426 1905.4 756.94 Q1907.23 756.431 1909.04 755.435 L1909.04 759.371 Q1907.26 760.204 1905.34 760.621 Q1903.44 761.037 1901.28 761.037 Q1895.43 761.037 1891.98 757.357 Q1888.53 753.676 1888.53 747.426 Q1888.53 741.084 1892 737.449 Q1895.5 733.815 1901.56 733.815 Q1903.53 733.815 1905.4 734.232 Q1907.28 734.625 1909.04 735.436 Z" fill="#000000" fill-rule="evenodd" fill-opacity="1" /><path clip-path="url(#clip660)" d="M 0 0 M1913.07 750.135 L1913.07 734.44 L1917.33 734.44 L1917.33 749.973 Q1917.33 753.653 1918.76 755.505 Q1920.2 757.334 1923.07 757.334 Q1926.52 757.334 1928.51 755.135 Q1930.52 752.935 1930.52 749.139 L1930.52 734.44 L1934.78 734.44 L1934.78 760.366 L1930.52 760.366 L1930.52 756.385 Q1928.97 758.746 1926.91 759.903 Q1924.87 761.037 1922.16 761.037 Q1917.7 761.037 1915.38 758.26 Q1913.07 755.482 1913.07 750.135 M1923.78 733.815 L1923.78 733.815 Z" fill="#000000" fill-rule="evenodd" fill-opacity="1" /><path clip-path="url(#clip660)" d="M 0 0 M1954.27 738.422 Q1953.55 738.005 1952.7 737.82 Q1951.86 737.611 1950.84 737.611 Q1947.23 737.611 1945.29 739.973 Q1943.37 742.311 1943.37 746.709 L1943.37 760.366 L1939.08 760.366 L1939.08 734.44 L1943.37 734.44 L1943.37 738.468 Q1944.71 736.107 1946.86 734.973 Q1949.02 733.815 1952.09 733.815 Q1952.53 733.815 1953.07 733.885 Q1953.6 733.931 1954.25 734.047 L1954.27 738.422 Z" fill="#000000" fill-rule="evenodd" fill-opacity="1" /><path clip-path="url(#clip660)" d="M 0 0 M1972.93 738.422 Q1972.21 738.005 1971.35 737.82 Q1970.52 737.611 1969.5 737.611 Q1965.89 737.611 1963.95 739.973 Q1962.02 742.311 1962.02 746.709 L1962.02 760.366 L1957.74 760.366 L1957.74 734.44 L1962.02 734.44 L1962.02 738.468 Q1963.37 736.107 1965.52 734.973 Q1967.67 733.815 1970.75 733.815 Q1971.19 733.815 1971.72 733.885 Q1972.26 733.931 1972.9 734.047 L1972.93 738.422 Z" fill="#000000" fill-rule="evenodd" fill-opacity="1" /><path clip-path="url(#clip660)" d="M 0 0 M1998.53 746.338 L1998.53 748.422 L1978.95 748.422 Q1979.22 752.82 1981.58 755.135 Q1983.97 757.426 1988.2 757.426 Q1990.66 757.426 1992.95 756.824 Q1995.27 756.222 1997.53 755.019 L1997.53 759.047 Q1995.24 760.019 1992.83 760.528 Q1990.43 761.037 1987.95 761.037 Q1981.75 761.037 1978.11 757.426 Q1974.5 753.815 1974.5 747.658 Q1974.5 741.292 1977.93 737.565 Q1981.38 733.815 1987.21 733.815 Q1992.44 733.815 1995.47 737.195 Q1998.53 740.551 1998.53 746.338 M1994.27 745.088 Q1994.22 741.593 1992.3 739.51 Q1990.4 737.426 1987.26 737.426 Q1983.69 737.426 1981.54 739.44 Q1979.41 741.454 1979.08 745.111 L1994.27 745.088 Z" fill="#000000" fill-rule="evenodd" fill-opacity="1" /><path clip-path="url(#clip660)" d="M 0 0 M2024.55 744.718 L2024.55 760.366 L2020.29 760.366 L2020.29 744.857 Q2020.29 741.176 2018.85 739.348 Q2017.42 737.519 2014.55 737.519 Q2011.1 737.519 2009.11 739.718 Q2007.12 741.917 2007.12 745.713 L2007.12 760.366 L2002.83 760.366 L2002.83 734.44 L2007.12 734.44 L2007.12 738.468 Q2008.64 736.13 2010.7 734.973 Q2012.79 733.815 2015.5 733.815 Q2019.96 733.815 2022.26 736.593 Q2024.55 739.348 2024.55 744.718 Z" fill="#000000" fill-rule="evenodd" fill-opacity="1" /><path clip-path="url(#clip660)" d="M 0 0 M2033.23 727.079 L2033.23 734.44 L2042 734.44 L2042 737.75 L2033.23 737.75 L2033.23 751.824 Q2033.23 754.996 2034.08 755.898 Q2034.96 756.801 2037.63 756.801 L2042 756.801 L2042 760.366 L2037.63 760.366 Q2032.7 760.366 2030.82 758.537 Q2028.95 756.685 2028.95 751.824 L2028.95 737.75 L2025.82 737.75 L2025.82 734.44 L2028.95 734.44 L2028.95 727.079 L2033.23 727.079 Z" fill="#000000" fill-rule="evenodd" fill-opacity="1" /><path clip-path="url(#clip660)" d="M 0 0 M2078.07 735.204 L2078.07 739.232 Q2076.26 738.306 2074.32 737.843 Q2072.37 737.38 2070.29 737.38 Q2067.12 737.38 2065.52 738.352 Q2063.95 739.324 2063.95 741.269 Q2063.95 742.75 2065.08 743.607 Q2066.21 744.44 2069.64 745.204 L2071.1 745.528 Q2075.64 746.5 2077.53 748.283 Q2079.45 750.042 2079.45 753.213 Q2079.45 756.824 2076.58 758.931 Q2073.74 761.037 2068.74 761.037 Q2066.65 761.037 2064.39 760.621 Q2062.14 760.227 2059.64 759.417 L2059.64 755.019 Q2062 756.246 2064.29 756.871 Q2066.58 757.472 2068.83 757.472 Q2071.84 757.472 2073.46 756.454 Q2075.08 755.412 2075.08 753.537 Q2075.08 751.801 2073.9 750.875 Q2072.74 749.949 2068.78 749.093 L2067.3 748.746 Q2063.34 747.912 2061.58 746.199 Q2059.82 744.463 2059.82 741.454 Q2059.82 737.797 2062.42 735.806 Q2065.01 733.815 2069.78 733.815 Q2072.14 733.815 2074.22 734.162 Q2076.31 734.51 2078.07 735.204 Z" fill="#000000" fill-rule="evenodd" fill-opacity="1" /><path clip-path="url(#clip660)" d="M 0 0 M2102.58 735.436 L2102.58 739.417 Q2100.77 738.422 2098.95 737.936 Q2097.14 737.426 2095.29 737.426 Q2091.14 737.426 2088.85 740.065 Q2086.56 742.681 2086.56 747.426 Q2086.56 752.172 2088.85 754.81 Q2091.14 757.426 2095.29 757.426 Q2097.14 757.426 2098.95 756.94 Q2100.77 756.431 2102.58 755.435 L2102.58 759.371 Q2100.8 760.204 2098.88 760.621 Q2096.98 761.037 2094.82 761.037 Q2088.97 761.037 2085.52 757.357 Q2082.07 753.676 2082.07 747.426 Q2082.07 741.084 2085.54 737.449 Q2089.04 733.815 2095.1 733.815 Q2097.07 733.815 2098.95 734.232 Q2100.82 734.625 2102.58 735.436 Z" fill="#000000" fill-rule="evenodd" fill-opacity="1" /><path clip-path="url(#clip660)" d="M 0 0 M2129.22 746.338 L2129.22 748.422 L2109.64 748.422 Q2109.92 752.82 2112.28 755.135 Q2114.66 757.426 2118.9 757.426 Q2121.35 757.426 2123.64 756.824 Q2125.96 756.222 2128.23 755.019 L2128.23 759.047 Q2125.94 760.019 2123.53 760.528 Q2121.12 761.037 2118.64 761.037 Q2112.44 761.037 2108.81 757.426 Q2105.2 753.815 2105.2 747.658 Q2105.2 741.292 2108.62 737.565 Q2112.07 733.815 2117.9 733.815 Q2123.13 733.815 2126.17 737.195 Q2129.22 740.551 2129.22 746.338 M2124.96 745.088 Q2124.92 741.593 2123 739.51 Q2121.1 737.426 2117.95 737.426 Q2114.38 737.426 2112.23 739.44 Q2110.1 741.454 2109.78 745.111 L2124.96 745.088 Z" fill="#000000" fill-rule="evenodd" fill-opacity="1" /><path clip-path="url(#clip660)" d="M 0 0 M2155.24 744.718 L2155.24 760.366 L2150.98 760.366 L2150.98 744.857 Q2150.98 741.176 2149.55 739.348 Q2148.11 737.519 2145.24 737.519 Q2141.79 737.519 2139.8 739.718 Q2137.81 741.917 2137.81 745.713 L2137.81 760.366 L2133.53 760.366 L2133.53 734.44 L2137.81 734.44 L2137.81 738.468 Q2139.34 736.13 2141.4 734.973 Q2143.48 733.815 2146.19 733.815 Q2150.66 733.815 2152.95 736.593 Q2155.24 739.348 2155.24 744.718 Z" fill="#000000" fill-rule="evenodd" fill-opacity="1" /><path clip-path="url(#clip660)" d="M 0 0 M2171.49 747.334 Q2166.33 747.334 2164.34 748.514 Q2162.35 749.695 2162.35 752.542 Q2162.35 754.81 2163.83 756.153 Q2165.33 757.472 2167.9 757.472 Q2171.44 757.472 2173.57 754.972 Q2175.73 752.449 2175.73 748.283 L2175.73 747.334 L2171.49 747.334 M2179.99 745.574 L2179.99 760.366 L2175.73 760.366 L2175.73 756.431 Q2174.27 758.792 2172.09 759.926 Q2169.92 761.037 2166.77 761.037 Q2162.79 761.037 2160.43 758.815 Q2158.09 756.57 2158.09 752.82 Q2158.09 748.445 2161 746.223 Q2163.94 744 2169.75 744 L2175.73 744 L2175.73 743.584 Q2175.73 740.644 2173.78 739.047 Q2171.86 737.426 2168.37 737.426 Q2166.14 737.426 2164.04 737.959 Q2161.93 738.491 2159.99 739.556 L2159.99 735.621 Q2162.32 734.718 2164.52 734.278 Q2166.72 733.815 2168.81 733.815 Q2174.43 733.815 2177.21 736.732 Q2179.99 739.649 2179.99 745.574 Z" fill="#000000" fill-rule="evenodd" fill-opacity="1" /><path clip-path="url(#clip660)" d="M 0 0 M2199.48 738.422 Q2198.76 738.005 2197.9 737.82 Q2197.07 737.611 2196.05 737.611 Q2192.44 737.611 2190.5 739.973 Q2188.57 742.311 2188.57 746.709 L2188.57 760.366 L2184.29 760.366 L2184.29 734.44 L2188.57 734.44 L2188.57 738.468 Q2189.92 736.107 2192.07 734.973 Q2194.22 733.815 2197.3 733.815 Q2197.74 733.815 2198.27 733.885 Q2198.81 733.931 2199.45 734.047 L2199.48 738.422 Z" fill="#000000" fill-rule="evenodd" fill-opacity="1" /><path clip-path="url(#clip660)" d="M 0 0 M2203.94 734.44 L2208.2 734.44 L2208.2 760.366 L2203.94 760.366 L2203.94 734.44 M2203.94 724.348 L2208.2 724.348 L2208.2 729.741 L2203.94 729.741 L2203.94 724.348 Z" fill="#000000" fill-rule="evenodd" fill-opacity="1" /><path clip-path="url(#clip660)" d="M 0 0 M2222.72 737.426 Q2219.29 737.426 2217.3 740.111 Q2215.31 742.773 2215.31 747.426 Q2215.31 752.079 2217.28 754.764 Q2219.27 757.426 2222.72 757.426 Q2226.12 757.426 2228.11 754.741 Q2230.1 752.056 2230.1 747.426 Q2230.1 742.82 2228.11 740.135 Q2226.12 737.426 2222.72 737.426 M2222.72 733.815 Q2228.27 733.815 2231.44 737.426 Q2234.62 741.037 2234.62 747.426 Q2234.62 753.792 2231.44 757.426 Q2228.27 761.037 2222.72 761.037 Q2217.14 761.037 2213.97 757.426 Q2210.82 753.792 2210.82 747.426 Q2210.82 741.037 2213.97 737.426 Q2217.14 733.815 2222.72 733.815 Z" fill="#000000" fill-rule="evenodd" fill-opacity="1" /></svg>
