<?xml version="1.0" encoding="utf-8"?>
<svg xmlns="http://www.w3.org/2000/svg" xmlns:xlink="http://www.w3.org/1999/xlink" width="600" height="400" viewBox="0 0 2400 1600">
<defs>
  <clipPath id="clip580">
    <rect x="0" y="0" width="2400" height="1600"/>
  </clipPath>
</defs>
<path clip-path="url(#clip580)" d="
M0 1600 L2400 1600 L2400 0 L0 0  Z
  " fill="#ffffff" fill-rule="evenodd" fill-opacity="1"/>
<defs>
  <clipPath id="clip581">
    <rect x="480" y="0" width="1681" height="1600"/>
  </clipPath>
</defs>
<path clip-path="url(#clip580)" d="
M224.866 1423.18 L2352.76 1423.18 L2352.76 123.472 L224.866 123.472  Z
  " fill="#ffffff" fill-rule="evenodd" fill-opacity="1"/>
<defs>
  <clipPath id="clip582">
    <rect x="224" y="123" width="2129" height="1301"/>
  </clipPath>
</defs>
<polyline clip-path="url(#clip582)" style="stroke:#000000; stroke-width:2; stroke-opacity:0.1; fill:none" points="
  285.09,1423.18 285.09,123.472 
  "/>
<polyline clip-path="url(#clip582)" style="stroke:#000000; stroke-width:2; stroke-opacity:0.1; fill:none" points="
  786.95,1423.18 786.95,123.472 
  "/>
<polyline clip-path="url(#clip582)" style="stroke:#000000; stroke-width:2; stroke-opacity:0.1; fill:none" points="
  1288.81,1423.18 1288.81,123.472 
  "/>
<polyline clip-path="url(#clip582)" style="stroke:#000000; stroke-width:2; stroke-opacity:0.1; fill:none" points="
  1790.67,1423.18 1790.67,123.472 
  "/>
<polyline clip-path="url(#clip582)" style="stroke:#000000; stroke-width:2; stroke-opacity:0.1; fill:none" points="
  2292.53,1423.18 2292.53,123.472 
  "/>
<polyline clip-path="url(#clip580)" style="stroke:#000000; stroke-width:4; stroke-opacity:1; fill:none" points="
  224.866,1423.18 2352.76,1423.18 
  "/>
<polyline clip-path="url(#clip580)" style="stroke:#000000; stroke-width:4; stroke-opacity:1; fill:none" points="
  285.09,1423.18 285.09,1407.58 
  "/>
<polyline clip-path="url(#clip580)" style="stroke:#000000; stroke-width:4; stroke-opacity:1; fill:none" points="
  786.95,1423.18 786.95,1407.58 
  "/>
<polyline clip-path="url(#clip580)" style="stroke:#000000; stroke-width:4; stroke-opacity:1; fill:none" points="
  1288.81,1423.18 1288.81,1407.58 
  "/>
<polyline clip-path="url(#clip580)" style="stroke:#000000; stroke-width:4; stroke-opacity:1; fill:none" points="
  1790.67,1423.18 1790.67,1407.58 
  "/>
<polyline clip-path="url(#clip580)" style="stroke:#000000; stroke-width:4; stroke-opacity:1; fill:none" points="
  2292.53,1423.18 2292.53,1407.58 
  "/>
<path clip-path="url(#clip580)" d="M 0 0 M285.09 1452.37 Q281.478 1452.37 279.65 1455.94 Q277.844 1459.48 277.844 1466.61 Q277.844 1473.71 279.65 1477.28 Q281.478 1480.82 285.09 1480.82 Q288.724 1480.82 290.529 1477.28 Q292.358 1473.71 292.358 1466.61 Q292.358 1459.48 290.529 1455.94 Q288.724 1452.37 285.09 1452.37 M285.09 1448.67 Q290.9 1448.67 293.955 1453.27 Q297.034 1457.86 297.034 1466.61 Q297.034 1475.33 293.955 1479.94 Q290.9 1484.52 285.09 1484.52 Q279.279 1484.52 276.201 1479.94 Q273.145 1475.33 273.145 1466.61 Q273.145 1457.86 276.201 1453.27 Q279.279 1448.67 285.09 1448.67 Z" fill="#000000" fill-rule="evenodd" fill-opacity="1" /><path clip-path="url(#clip580)" d="M 0 0 M755.087 1479.92 L771.406 1479.92 L771.406 1483.85 L749.462 1483.85 L749.462 1479.92 Q752.124 1477.16 756.707 1472.53 Q761.314 1467.88 762.494 1466.54 Q764.74 1464.01 765.619 1462.28 Q766.522 1460.52 766.522 1458.83 Q766.522 1456.07 764.578 1454.34 Q762.656 1452.6 759.555 1452.6 Q757.356 1452.6 754.902 1453.37 Q752.471 1454.13 749.694 1455.68 L749.694 1450.96 Q752.518 1449.82 754.971 1449.25 Q757.425 1448.67 759.462 1448.67 Q764.832 1448.67 768.027 1451.35 Q771.221 1454.04 771.221 1458.53 Q771.221 1460.66 770.411 1462.58 Q769.624 1464.48 767.518 1467.07 Q766.939 1467.74 763.837 1470.96 Q760.735 1474.15 755.087 1479.92 Z" fill="#000000" fill-rule="evenodd" fill-opacity="1" /><path clip-path="url(#clip580)" d="M 0 0 M776.522 1449.29 L794.879 1449.29 L794.879 1453.23 L780.805 1453.23 L780.805 1461.7 Q781.823 1461.35 782.842 1461.19 Q783.86 1461 784.879 1461 Q790.666 1461 794.045 1464.18 Q797.425 1467.35 797.425 1472.76 Q797.425 1478.34 793.953 1481.44 Q790.48 1484.52 784.161 1484.52 Q781.985 1484.52 779.717 1484.15 Q777.471 1483.78 775.064 1483.04 L775.064 1478.34 Q777.147 1479.48 779.369 1480.03 Q781.592 1480.59 784.068 1480.59 Q788.073 1480.59 790.411 1478.48 Q792.749 1476.38 792.749 1472.76 Q792.749 1469.15 790.411 1467.05 Q788.073 1464.94 784.068 1464.94 Q782.193 1464.94 780.318 1465.36 Q778.467 1465.77 776.522 1466.65 L776.522 1449.29 Z" fill="#000000" fill-rule="evenodd" fill-opacity="1" /><path clip-path="url(#clip580)" d="M 0 0 M812.494 1452.37 Q808.883 1452.37 807.054 1455.94 Q805.249 1459.48 805.249 1466.61 Q805.249 1473.71 807.054 1477.28 Q808.883 1480.82 812.494 1480.82 Q816.128 1480.82 817.934 1477.28 Q819.763 1473.71 819.763 1466.61 Q819.763 1459.48 817.934 1455.94 Q816.128 1452.37 812.494 1452.37 M812.494 1448.67 Q818.304 1448.67 821.36 1453.27 Q824.439 1457.86 824.439 1466.61 Q824.439 1475.33 821.36 1479.94 Q818.304 1484.52 812.494 1484.52 Q806.684 1484.52 803.605 1479.94 Q800.55 1475.33 800.55 1466.61 Q800.55 1457.86 803.605 1453.27 Q806.684 1448.67 812.494 1448.67 Z" fill="#000000" fill-rule="evenodd" fill-opacity="1" /><path clip-path="url(#clip580)" d="M 0 0 M1252.08 1449.29 L1270.43 1449.29 L1270.43 1453.23 L1256.36 1453.23 L1256.36 1461.7 Q1257.38 1461.35 1258.39 1461.19 Q1259.41 1461 1260.43 1461 Q1266.22 1461 1269.6 1464.18 Q1272.98 1467.35 1272.98 1472.76 Q1272.98 1478.34 1269.51 1481.44 Q1266.03 1484.52 1259.71 1484.52 Q1257.54 1484.52 1255.27 1484.15 Q1253.02 1483.78 1250.62 1483.04 L1250.62 1478.34 Q1252.7 1479.48 1254.92 1480.03 Q1257.14 1480.59 1259.62 1480.59 Q1263.63 1480.59 1265.96 1478.48 Q1268.3 1476.38 1268.3 1472.76 Q1268.3 1469.15 1265.96 1467.05 Q1263.63 1464.94 1259.62 1464.94 Q1257.75 1464.94 1255.87 1465.36 Q1254.02 1465.77 1252.08 1466.65 L1252.08 1449.29 Z" fill="#000000" fill-rule="evenodd" fill-opacity="1" /><path clip-path="url(#clip580)" d="M 0 0 M1288.05 1452.37 Q1284.44 1452.37 1282.61 1455.94 Q1280.8 1459.48 1280.8 1466.61 Q1280.8 1473.71 1282.61 1477.28 Q1284.44 1480.82 1288.05 1480.82 Q1291.68 1480.82 1293.49 1477.28 Q1295.32 1473.71 1295.32 1466.61 Q1295.32 1459.48 1293.49 1455.94 Q1291.68 1452.37 1288.05 1452.37 M1288.05 1448.67 Q1293.86 1448.67 1296.91 1453.27 Q1299.99 1457.86 1299.99 1466.61 Q1299.99 1475.33 1296.91 1479.94 Q1293.86 1484.52 1288.05 1484.52 Q1282.24 1484.52 1279.16 1479.94 Q1276.1 1475.33 1276.1 1466.61 Q1276.1 1457.86 1279.16 1453.27 Q1282.24 1448.67 1288.05 1448.67 Z" fill="#000000" fill-rule="evenodd" fill-opacity="1" /><path clip-path="url(#clip580)" d="M 0 0 M1315.06 1452.37 Q1311.45 1452.37 1309.62 1455.94 Q1307.82 1459.48 1307.82 1466.61 Q1307.82 1473.71 1309.62 1477.28 Q1311.45 1480.82 1315.06 1480.82 Q1318.7 1480.82 1320.5 1477.28 Q1322.33 1473.71 1322.33 1466.61 Q1322.33 1459.48 1320.5 1455.94 Q1318.7 1452.37 1315.06 1452.37 M1315.06 1448.67 Q1320.87 1448.67 1323.93 1453.27 Q1327.01 1457.86 1327.01 1466.61 Q1327.01 1475.33 1323.93 1479.94 Q1320.87 1484.52 1315.06 1484.52 Q1309.25 1484.52 1306.17 1479.94 Q1303.12 1475.33 1303.12 1466.61 Q1303.12 1457.86 1306.17 1453.27 Q1309.25 1448.67 1315.06 1448.67 Z" fill="#000000" fill-rule="evenodd" fill-opacity="1" /><path clip-path="url(#clip580)" d="M 0 0 M1753.04 1449.29 L1775.27 1449.29 L1775.27 1451.28 L1762.72 1483.85 L1757.84 1483.85 L1769.64 1453.23 L1753.04 1453.23 L1753.04 1449.29 Z" fill="#000000" fill-rule="evenodd" fill-opacity="1" /><path clip-path="url(#clip580)" d="M 0 0 M1780.38 1449.29 L1798.74 1449.29 L1798.74 1453.23 L1784.66 1453.23 L1784.66 1461.7 Q1785.68 1461.35 1786.7 1461.19 Q1787.72 1461 1788.74 1461 Q1794.53 1461 1797.91 1464.18 Q1801.29 1467.35 1801.29 1472.76 Q1801.29 1478.34 1797.81 1481.44 Q1794.34 1484.52 1788.02 1484.52 Q1785.85 1484.52 1783.58 1484.15 Q1781.33 1483.78 1778.92 1483.04 L1778.92 1478.34 Q1781.01 1479.48 1783.23 1480.03 Q1785.45 1480.59 1787.93 1480.59 Q1791.93 1480.59 1794.27 1478.48 Q1796.61 1476.38 1796.61 1472.76 Q1796.61 1469.15 1794.27 1467.05 Q1791.93 1464.94 1787.93 1464.94 Q1786.05 1464.94 1784.18 1465.36 Q1782.33 1465.77 1780.38 1466.65 L1780.38 1449.29 Z" fill="#000000" fill-rule="evenodd" fill-opacity="1" /><path clip-path="url(#clip580)" d="M 0 0 M1816.35 1452.37 Q1812.74 1452.37 1810.91 1455.94 Q1809.11 1459.48 1809.11 1466.61 Q1809.11 1473.71 1810.91 1477.28 Q1812.74 1480.82 1816.35 1480.82 Q1819.99 1480.82 1821.79 1477.28 Q1823.62 1473.71 1823.62 1466.61 Q1823.62 1459.48 1821.79 1455.94 Q1819.99 1452.37 1816.35 1452.37 M1816.35 1448.67 Q1822.16 1448.67 1825.22 1453.27 Q1828.3 1457.86 1828.3 1466.61 Q1828.3 1475.33 1825.22 1479.94 Q1822.16 1484.52 1816.35 1484.52 Q1810.54 1484.52 1807.47 1479.94 Q1804.41 1475.33 1804.41 1466.61 Q1804.41 1457.86 1807.47 1453.27 Q1810.54 1448.67 1816.35 1448.67 Z" fill="#000000" fill-rule="evenodd" fill-opacity="1" /><path clip-path="url(#clip580)" d="M 0 0 M2242.39 1479.92 L2250.03 1479.92 L2250.03 1453.55 L2241.72 1455.22 L2241.72 1450.96 L2249.99 1449.29 L2254.66 1449.29 L2254.66 1479.92 L2262.3 1479.92 L2262.3 1483.85 L2242.39 1483.85 L2242.39 1479.92 Z" fill="#000000" fill-rule="evenodd" fill-opacity="1" /><path clip-path="url(#clip580)" d="M 0 0 M2277.37 1452.37 Q2273.76 1452.37 2271.93 1455.94 Q2270.13 1459.48 2270.13 1466.61 Q2270.13 1473.71 2271.93 1477.28 Q2273.76 1480.82 2277.37 1480.82 Q2281 1480.82 2282.81 1477.28 Q2284.64 1473.71 2284.64 1466.61 Q2284.64 1459.48 2282.81 1455.94 Q2281 1452.37 2277.37 1452.37 M2277.37 1448.67 Q2283.18 1448.67 2286.24 1453.27 Q2289.32 1457.86 2289.32 1466.61 Q2289.32 1475.33 2286.24 1479.94 Q2283.18 1484.52 2277.37 1484.52 Q2271.56 1484.52 2268.48 1479.94 Q2265.43 1475.33 2265.43 1466.61 Q2265.43 1457.86 2268.48 1453.27 Q2271.56 1448.67 2277.37 1448.67 Z" fill="#000000" fill-rule="evenodd" fill-opacity="1" /><path clip-path="url(#clip580)" d="M 0 0 M2304.38 1452.37 Q2300.77 1452.37 2298.94 1455.94 Q2297.14 1459.48 2297.14 1466.61 Q2297.14 1473.71 2298.94 1477.28 Q2300.77 1480.82 2304.38 1480.82 Q2308.02 1480.82 2309.82 1477.28 Q2311.65 1473.71 2311.65 1466.61 Q2311.65 1459.48 2309.82 1455.94 Q2308.02 1452.37 2304.38 1452.37 M2304.38 1448.67 Q2310.19 1448.67 2313.25 1453.27 Q2316.33 1457.86 2316.33 1466.61 Q2316.33 1475.33 2313.25 1479.94 Q2310.19 1484.52 2304.38 1484.52 Q2298.57 1484.52 2295.5 1479.94 Q2292.44 1475.33 2292.44 1466.61 Q2292.44 1457.86 2295.5 1453.27 Q2298.57 1448.67 2304.38 1448.67 Z" fill="#000000" fill-rule="evenodd" fill-opacity="1" /><path clip-path="url(#clip580)" d="M 0 0 M2331.4 1452.37 Q2327.79 1452.37 2325.96 1455.94 Q2324.15 1459.48 2324.15 1466.61 Q2324.15 1473.71 2325.96 1477.28 Q2327.79 1480.82 2331.4 1480.82 Q2335.03 1480.82 2336.84 1477.28 Q2338.67 1473.71 2338.67 1466.61 Q2338.67 1459.48 2336.84 1455.94 Q2335.03 1452.37 2331.4 1452.37 M2331.4 1448.67 Q2337.21 1448.67 2340.26 1453.27 Q2343.34 1457.86 2343.34 1466.61 Q2343.34 1475.33 2340.26 1479.94 Q2337.21 1484.52 2331.4 1484.52 Q2325.59 1484.52 2322.51 1479.94 Q2319.45 1475.33 2319.45 1466.61 Q2319.45 1457.86 2322.51 1453.27 Q2325.59 1448.67 2331.4 1448.67 Z" fill="#000000" fill-rule="evenodd" fill-opacity="1" /><path clip-path="url(#clip580)" d="M 0 0 M980.695 1525.81 L980.695 1506.52 L986.551 1506.52 L986.551 1556.04 L980.695 1556.04 L980.695 1550.7 Q978.849 1553.88 976.016 1555.44 Q973.215 1556.97 969.269 1556.97 Q962.807 1556.97 958.733 1551.81 Q954.691 1546.65 954.691 1538.25 Q954.691 1529.85 958.733 1524.69 Q962.807 1519.54 969.269 1519.54 Q973.215 1519.54 976.016 1521.1 Q978.849 1522.62 980.695 1525.81 M960.738 1538.25 Q960.738 1544.71 963.38 1548.4 Q966.054 1552.07 970.701 1552.07 Q975.348 1552.07 978.021 1548.4 Q980.695 1544.71 980.695 1538.25 Q980.695 1531.79 978.021 1528.13 Q975.348 1524.44 970.701 1524.44 Q966.054 1524.44 963.38 1528.13 Q960.738 1531.79 960.738 1538.25 Z" fill="#000000" fill-rule="evenodd" fill-opacity="1" /><path clip-path="url(#clip580)" d="M 0 0 M1006.51 1524.5 Q1001.8 1524.5 999.06 1528.19 Q996.323 1531.85 996.323 1538.25 Q996.323 1544.65 999.028 1548.34 Q1001.77 1552 1006.51 1552 Q1011.19 1552 1013.92 1548.31 Q1016.66 1544.62 1016.66 1538.25 Q1016.66 1531.92 1013.92 1528.23 Q1011.19 1524.5 1006.51 1524.5 M1006.51 1519.54 Q1014.15 1519.54 1018.51 1524.5 Q1022.87 1529.47 1022.87 1538.25 Q1022.87 1547 1018.51 1552 Q1014.15 1556.97 1006.51 1556.97 Q998.837 1556.97 994.477 1552 Q990.148 1547 990.148 1538.25 Q990.148 1529.47 994.477 1524.5 Q998.837 1519.54 1006.51 1519.54 Z" fill="#000000" fill-rule="evenodd" fill-opacity="1" /><path clip-path="url(#clip580)" d="M 0 0 M1025.61 1520.4 L1031.46 1520.4 L1038.78 1548.21 L1046.07 1520.4 L1052.98 1520.4 L1060.3 1548.21 L1067.59 1520.4 L1073.44 1520.4 L1064.12 1556.04 L1057.21 1556.04 L1049.54 1526.83 L1041.84 1556.04 L1034.93 1556.04 L1025.61 1520.4 Z" fill="#000000" fill-rule="evenodd" fill-opacity="1" /><path clip-path="url(#clip580)" d="M 0 0 M1109.22 1534.53 L1109.22 1556.04 L1103.36 1556.04 L1103.36 1534.72 Q1103.36 1529.66 1101.39 1527.14 Q1099.42 1524.63 1095.47 1524.63 Q1090.73 1524.63 1087.99 1527.65 Q1085.25 1530.68 1085.25 1535.9 L1085.25 1556.04 L1079.36 1556.04 L1079.36 1520.4 L1085.25 1520.4 L1085.25 1525.93 Q1087.35 1522.72 1090.19 1521.13 Q1093.05 1519.54 1096.77 1519.54 Q1102.92 1519.54 1106.07 1523.36 Q1109.22 1527.14 1109.22 1534.53 Z" fill="#000000" fill-rule="evenodd" fill-opacity="1" /><path clip-path="url(#clip580)" d="M 0 0 M1111.96 1520.4 L1117.81 1520.4 L1125.13 1548.21 L1132.42 1520.4 L1139.33 1520.4 L1146.65 1548.21 L1153.94 1520.4 L1159.79 1520.4 L1150.47 1556.04 L1143.56 1556.04 L1135.89 1526.83 L1128.19 1556.04 L1121.28 1556.04 L1111.96 1520.4 Z" fill="#000000" fill-rule="evenodd" fill-opacity="1" /><path clip-path="url(#clip580)" d="M 0 0 M1165.94 1520.4 L1171.79 1520.4 L1171.79 1556.04 L1165.94 1556.04 L1165.94 1520.4 M1165.94 1506.52 L1171.79 1506.52 L1171.79 1513.93 L1165.94 1513.93 L1165.94 1506.52 Z" fill="#000000" fill-rule="evenodd" fill-opacity="1" /><path clip-path="url(#clip580)" d="M 0 0 M1207.57 1534.53 L1207.57 1556.04 L1201.71 1556.04 L1201.71 1534.72 Q1201.71 1529.66 1199.74 1527.14 Q1197.77 1524.63 1193.82 1524.63 Q1189.08 1524.63 1186.34 1527.65 Q1183.6 1530.68 1183.6 1535.9 L1183.6 1556.04 L1177.71 1556.04 L1177.71 1520.4 L1183.6 1520.4 L1183.6 1525.93 Q1185.7 1522.72 1188.54 1521.13 Q1191.4 1519.54 1195.12 1519.54 Q1201.27 1519.54 1204.42 1523.36 Q1207.57 1527.14 1207.57 1534.53 Z" fill="#000000" fill-rule="evenodd" fill-opacity="1" /><path clip-path="url(#clip580)" d="M 0 0 M1237.17 1525.81 L1237.17 1506.52 L1243.03 1506.52 L1243.03 1556.04 L1237.17 1556.04 L1237.17 1550.7 Q1235.32 1553.88 1232.49 1555.44 Q1229.69 1556.97 1225.74 1556.97 Q1219.28 1556.97 1215.21 1551.81 Q1211.17 1546.65 1211.17 1538.25 Q1211.17 1529.85 1215.21 1524.69 Q1219.28 1519.54 1225.74 1519.54 Q1229.69 1519.54 1232.49 1521.1 Q1235.32 1522.62 1237.17 1525.81 M1217.21 1538.25 Q1217.21 1544.71 1219.85 1548.4 Q1222.53 1552.07 1227.18 1552.07 Q1231.82 1552.07 1234.5 1548.4 Q1237.17 1544.71 1237.17 1538.25 Q1237.17 1531.79 1234.5 1528.13 Q1231.82 1524.44 1227.18 1524.44 Q1222.53 1524.44 1219.85 1528.13 Q1217.21 1531.79 1217.21 1538.25 Z" fill="#000000" fill-rule="evenodd" fill-opacity="1" /><path clip-path="url(#clip580)" d="M 0 0 M1293.35 1525.81 L1293.35 1506.52 L1299.2 1506.52 L1299.2 1556.04 L1293.35 1556.04 L1293.35 1550.7 Q1291.5 1553.88 1288.67 1555.44 Q1285.87 1556.97 1281.92 1556.97 Q1275.46 1556.97 1271.38 1551.81 Q1267.34 1546.65 1267.34 1538.25 Q1267.34 1529.85 1271.38 1524.69 Q1275.46 1519.54 1281.92 1519.54 Q1285.87 1519.54 1288.67 1521.1 Q1291.5 1522.62 1293.35 1525.81 M1273.39 1538.25 Q1273.39 1544.71 1276.03 1548.4 Q1278.71 1552.07 1283.35 1552.07 Q1288 1552.07 1290.67 1548.4 Q1293.35 1544.71 1293.35 1538.25 Q1293.35 1531.79 1290.67 1528.13 Q1288 1524.44 1283.35 1524.44 Q1278.71 1524.44 1276.03 1528.13 Q1273.39 1531.79 1273.39 1538.25 Z" fill="#000000" fill-rule="evenodd" fill-opacity="1" /><path clip-path="url(#clip580)" d="M 0 0 M1305.35 1520.4 L1311.2 1520.4 L1311.2 1556.04 L1305.35 1556.04 L1305.35 1520.4 M1305.35 1506.52 L1311.2 1506.52 L1311.2 1513.93 L1305.35 1513.93 L1305.35 1506.52 Z" fill="#000000" fill-rule="evenodd" fill-opacity="1" /><path clip-path="url(#clip580)" d="M 0 0 M1340.07 1521.45 L1340.07 1526.98 Q1337.59 1525.71 1334.91 1525.07 Q1332.24 1524.44 1329.38 1524.44 Q1325.02 1524.44 1322.82 1525.77 Q1320.66 1527.11 1320.66 1529.79 Q1320.66 1531.82 1322.22 1533 Q1323.77 1534.15 1328.49 1535.2 L1330.49 1535.64 Q1336.73 1536.98 1339.34 1539.43 Q1341.98 1541.85 1341.98 1546.21 Q1341.98 1551.17 1338.03 1554.07 Q1334.12 1556.97 1327.24 1556.97 Q1324.38 1556.97 1321.26 1556.39 Q1318.17 1555.85 1314.74 1554.74 L1314.74 1548.69 Q1317.98 1550.38 1321.13 1551.24 Q1324.28 1552.07 1327.37 1552.07 Q1331.51 1552.07 1333.74 1550.66 Q1335.97 1549.23 1335.97 1546.65 Q1335.97 1544.27 1334.34 1542.99 Q1332.75 1541.72 1327.31 1540.54 L1325.27 1540.07 Q1319.83 1538.92 1317.41 1536.56 Q1314.99 1534.18 1314.99 1530.04 Q1314.99 1525.01 1318.55 1522.27 Q1322.12 1519.54 1328.68 1519.54 Q1331.92 1519.54 1334.79 1520.01 Q1337.65 1520.49 1340.07 1521.45 Z" fill="#000000" fill-rule="evenodd" fill-opacity="1" /><path clip-path="url(#clip580)" d="M 0 0 M1353.92 1510.27 L1353.92 1520.4 L1365.98 1520.4 L1365.98 1524.95 L1353.92 1524.95 L1353.92 1544.3 Q1353.92 1548.66 1355.09 1549.9 Q1356.3 1551.14 1359.96 1551.14 L1365.98 1551.14 L1365.98 1556.04 L1359.96 1556.04 Q1353.18 1556.04 1350.61 1553.53 Q1348.03 1550.98 1348.03 1544.3 L1348.03 1524.95 L1343.73 1524.95 L1343.73 1520.4 L1348.03 1520.4 L1348.03 1510.27 L1353.92 1510.27 Z" fill="#000000" fill-rule="evenodd" fill-opacity="1" /><path clip-path="url(#clip580)" d="M 0 0 M1388.32 1538.12 Q1381.23 1538.12 1378.49 1539.75 Q1375.75 1541.37 1375.75 1545.29 Q1375.75 1548.4 1377.79 1550.25 Q1379.86 1552.07 1383.39 1552.07 Q1388.26 1552.07 1391.19 1548.63 Q1394.15 1545.16 1394.15 1539.43 L1394.15 1538.12 L1388.32 1538.12 M1400 1535.71 L1400 1556.04 L1394.15 1556.04 L1394.15 1550.63 Q1392.14 1553.88 1389.15 1555.44 Q1386.16 1556.97 1381.83 1556.97 Q1376.36 1556.97 1373.11 1553.91 Q1369.89 1550.82 1369.89 1545.67 Q1369.89 1539.65 1373.9 1536.6 Q1377.95 1533.54 1385.94 1533.54 L1394.15 1533.54 L1394.15 1532.97 Q1394.15 1528.93 1391.47 1526.73 Q1388.83 1524.5 1384.03 1524.5 Q1380.97 1524.5 1378.07 1525.23 Q1375.18 1525.97 1372.5 1527.43 L1372.5 1522.02 Q1375.72 1520.78 1378.74 1520.17 Q1381.77 1519.54 1384.63 1519.54 Q1392.37 1519.54 1396.18 1523.55 Q1400 1527.56 1400 1535.71 Z" fill="#000000" fill-rule="evenodd" fill-opacity="1" /><path clip-path="url(#clip580)" d="M 0 0 M1435.78 1534.53 L1435.78 1556.04 L1429.92 1556.04 L1429.92 1534.72 Q1429.92 1529.66 1427.95 1527.14 Q1425.98 1524.63 1422.03 1524.63 Q1417.29 1524.63 1414.55 1527.65 Q1411.81 1530.68 1411.81 1535.9 L1411.81 1556.04 L1405.92 1556.04 L1405.92 1520.4 L1411.81 1520.4 L1411.81 1525.93 Q1413.91 1522.72 1416.75 1521.13 Q1419.61 1519.54 1423.33 1519.54 Q1429.48 1519.54 1432.63 1523.36 Q1435.78 1527.14 1435.78 1534.53 Z" fill="#000000" fill-rule="evenodd" fill-opacity="1" /><path clip-path="url(#clip580)" d="M 0 0 M1467.58 1521.76 L1467.58 1527.24 Q1465.09 1525.87 1462.58 1525.2 Q1460.1 1524.5 1457.55 1524.5 Q1451.85 1524.5 1448.7 1528.13 Q1445.55 1531.73 1445.55 1538.25 Q1445.55 1544.78 1448.7 1548.4 Q1451.85 1552 1457.55 1552 Q1460.1 1552 1462.58 1551.33 Q1465.09 1550.63 1467.58 1549.26 L1467.58 1554.68 Q1465.13 1555.82 1462.48 1556.39 Q1459.87 1556.97 1456.91 1556.97 Q1448.86 1556.97 1444.12 1551.91 Q1439.38 1546.85 1439.38 1538.25 Q1439.38 1529.53 1444.15 1524.53 Q1448.96 1519.54 1457.3 1519.54 Q1460 1519.54 1462.58 1520.11 Q1465.16 1520.65 1467.58 1521.76 Z" fill="#000000" fill-rule="evenodd" fill-opacity="1" /><path clip-path="url(#clip580)" d="M 0 0 M1504.21 1536.76 L1504.21 1539.62 L1477.28 1539.62 Q1477.67 1545.67 1480.91 1548.85 Q1484.19 1552 1490.02 1552 Q1493.39 1552 1496.54 1551.17 Q1499.72 1550.35 1502.84 1548.69 L1502.84 1554.23 Q1499.69 1555.57 1496.38 1556.27 Q1493.07 1556.97 1489.67 1556.97 Q1481.13 1556.97 1476.14 1552 Q1471.17 1547.04 1471.17 1538.57 Q1471.17 1529.82 1475.88 1524.69 Q1480.63 1519.54 1488.65 1519.54 Q1495.84 1519.54 1500.01 1524.18 Q1504.21 1528.8 1504.21 1536.76 M1498.35 1535.04 Q1498.29 1530.23 1495.65 1527.37 Q1493.04 1524.5 1488.71 1524.5 Q1483.81 1524.5 1480.85 1527.27 Q1477.92 1530.04 1477.47 1535.07 L1498.35 1535.04 Z" fill="#000000" fill-rule="evenodd" fill-opacity="1" /><path clip-path="url(#clip580)" d="M 0 0 M1545.14 1506.58 Q1540.88 1513.9 1538.81 1521.06 Q1536.74 1528.23 1536.74 1535.58 Q1536.74 1542.93 1538.81 1550.16 Q1540.91 1557.35 1545.14 1564.64 L1540.05 1564.64 Q1535.28 1557.16 1532.89 1549.93 Q1530.53 1542.71 1530.53 1535.58 Q1530.53 1528.48 1532.89 1521.29 Q1535.24 1514.09 1540.05 1506.58 L1545.14 1506.58 Z" fill="#000000" fill-rule="evenodd" fill-opacity="1" /><path clip-path="url(#clip580)" d="M 0 0 M1579.04 1527.24 Q1581.24 1523.29 1584.29 1521.41 Q1587.35 1519.54 1591.48 1519.54 Q1597.05 1519.54 1600.08 1523.45 Q1603.1 1527.33 1603.1 1534.53 L1603.1 1556.04 L1597.21 1556.04 L1597.21 1534.72 Q1597.21 1529.59 1595.4 1527.11 Q1593.59 1524.63 1589.86 1524.63 Q1585.31 1524.63 1582.67 1527.65 Q1580.03 1530.68 1580.03 1535.9 L1580.03 1556.04 L1574.14 1556.04 L1574.14 1534.72 Q1574.14 1529.56 1572.32 1527.11 Q1570.51 1524.63 1566.72 1524.63 Q1562.23 1524.63 1559.59 1527.68 Q1556.95 1530.71 1556.95 1535.9 L1556.95 1556.04 L1551.06 1556.04 L1551.06 1520.4 L1556.95 1520.4 L1556.95 1525.93 Q1558.96 1522.66 1561.76 1521.1 Q1564.56 1519.54 1568.41 1519.54 Q1572.29 1519.54 1575 1521.51 Q1577.73 1523.48 1579.04 1527.24 Z" fill="#000000" fill-rule="evenodd" fill-opacity="1" /><path clip-path="url(#clip580)" d="M 0 0 M1608.32 1506.58 L1613.41 1506.58 Q1618.19 1514.09 1620.54 1521.29 Q1622.93 1528.48 1622.93 1535.58 Q1622.93 1542.71 1620.54 1549.93 Q1618.19 1557.16 1613.41 1564.64 L1608.32 1564.64 Q1612.55 1557.35 1614.62 1550.16 Q1616.72 1542.93 1616.72 1535.58 Q1616.72 1528.23 1614.62 1521.06 Q1612.55 1513.9 1608.32 1506.58 Z" fill="#000000" fill-rule="evenodd" fill-opacity="1" /><polyline clip-path="url(#clip582)" style="stroke:#000000; stroke-width:2; stroke-opacity:0.1; fill:none" points="
  224.866,1423.18 2352.76,1423.18 
  "/>
<polyline clip-path="url(#clip582)" style="stroke:#000000; stroke-width:2; stroke-opacity:0.1; fill:none" points="
  224.866,1163.24 2352.76,1163.24 
  "/>
<polyline clip-path="url(#clip582)" style="stroke:#000000; stroke-width:2; stroke-opacity:0.1; fill:none" points="
  224.866,903.297 2352.76,903.297 
  "/>
<polyline clip-path="url(#clip582)" style="stroke:#000000; stroke-width:2; stroke-opacity:0.1; fill:none" points="
  224.866,643.355 2352.76,643.355 
  "/>
<polyline clip-path="url(#clip582)" style="stroke:#000000; stroke-width:2; stroke-opacity:0.1; fill:none" points="
  224.866,383.414 2352.76,383.414 
  "/>
<polyline clip-path="url(#clip582)" style="stroke:#000000; stroke-width:2; stroke-opacity:0.1; fill:none" points="
  224.866,123.472 2352.76,123.472 
  "/>
<polyline clip-path="url(#clip580)" style="stroke:#000000; stroke-width:4; stroke-opacity:1; fill:none" points="
  224.866,1423.18 224.866,123.472 
  "/>
<polyline clip-path="url(#clip580)" style="stroke:#000000; stroke-width:4; stroke-opacity:1; fill:none" points="
  224.866,1423.18 250.401,1423.18 
  "/>
<polyline clip-path="url(#clip580)" style="stroke:#000000; stroke-width:4; stroke-opacity:1; fill:none" points="
  224.866,1163.24 250.401,1163.24 
  "/>
<polyline clip-path="url(#clip580)" style="stroke:#000000; stroke-width:4; stroke-opacity:1; fill:none" points="
  224.866,903.297 250.401,903.297 
  "/>
<polyline clip-path="url(#clip580)" style="stroke:#000000; stroke-width:4; stroke-opacity:1; fill:none" points="
  224.866,643.355 250.401,643.355 
  "/>
<polyline clip-path="url(#clip580)" style="stroke:#000000; stroke-width:4; stroke-opacity:1; fill:none" points="
  224.866,383.414 250.401,383.414 
  "/>
<polyline clip-path="url(#clip580)" style="stroke:#000000; stroke-width:4; stroke-opacity:1; fill:none" points="
  224.866,123.472 250.401,123.472 
  "/>
<path clip-path="url(#clip580)" d="M 0 0 M176.922 1408.98 Q173.311 1408.98 171.482 1412.54 Q169.677 1416.08 169.677 1423.21 Q169.677 1430.32 171.482 1433.89 Q173.311 1437.43 176.922 1437.43 Q180.556 1437.43 182.362 1433.89 Q184.19 1430.32 184.19 1423.21 Q184.19 1416.08 182.362 1412.54 Q180.556 1408.98 176.922 1408.98 M176.922 1405.27 Q182.732 1405.27 185.788 1409.88 Q188.866 1414.46 188.866 1423.21 Q188.866 1431.94 185.788 1436.55 Q182.732 1441.13 176.922 1441.13 Q171.112 1441.13 168.033 1436.55 Q164.977 1431.94 164.977 1423.21 Q164.977 1414.46 168.033 1409.88 Q171.112 1405.27 176.922 1405.27 Z" fill="#000000" fill-rule="evenodd" fill-opacity="1" /><path clip-path="url(#clip580)" d="M 0 0 M145.533 1176.58 L161.852 1176.58 L161.852 1180.52 L139.908 1180.52 L139.908 1176.58 Q142.57 1173.83 147.153 1169.2 Q151.76 1164.55 152.941 1163.2 Q155.186 1160.68 156.065 1158.94 Q156.968 1157.19 156.968 1155.5 Q156.968 1152.74 155.024 1151 Q153.103 1149.27 150.001 1149.27 Q147.802 1149.27 145.348 1150.03 Q142.917 1150.8 140.14 1152.35 L140.14 1147.62 Q142.964 1146.49 145.417 1145.91 Q147.871 1145.33 149.908 1145.33 Q155.278 1145.33 158.473 1148.02 Q161.667 1150.7 161.667 1155.19 Q161.667 1157.32 160.857 1159.25 Q160.07 1161.14 157.964 1163.74 Q157.385 1164.41 154.283 1167.62 Q151.181 1170.82 145.533 1176.58 Z" fill="#000000" fill-rule="evenodd" fill-opacity="1" /><path clip-path="url(#clip580)" d="M 0 0 M176.922 1149.04 Q173.311 1149.04 171.482 1152.6 Q169.677 1156.14 169.677 1163.27 Q169.677 1170.38 171.482 1173.94 Q173.311 1177.49 176.922 1177.49 Q180.556 1177.49 182.362 1173.94 Q184.19 1170.38 184.19 1163.27 Q184.19 1156.14 182.362 1152.6 Q180.556 1149.04 176.922 1149.04 M176.922 1145.33 Q182.732 1145.33 185.788 1149.94 Q188.866 1154.52 188.866 1163.27 Q188.866 1172 185.788 1176.61 Q182.732 1181.19 176.922 1181.19 Q171.112 1181.19 168.033 1176.61 Q164.977 1172 164.977 1163.27 Q164.977 1154.52 168.033 1149.94 Q171.112 1145.33 176.922 1145.33 Z" fill="#000000" fill-rule="evenodd" fill-opacity="1" /><path clip-path="url(#clip580)" d="M 0 0 M152.269 890.091 L140.464 908.54 L152.269 908.54 L152.269 890.091 M151.042 886.017 L156.922 886.017 L156.922 908.54 L161.852 908.54 L161.852 912.429 L156.922 912.429 L156.922 920.577 L152.269 920.577 L152.269 912.429 L136.667 912.429 L136.667 907.915 L151.042 886.017 Z" fill="#000000" fill-rule="evenodd" fill-opacity="1" /><path clip-path="url(#clip580)" d="M 0 0 M176.922 889.095 Q173.311 889.095 171.482 892.66 Q169.677 896.202 169.677 903.331 Q169.677 910.438 171.482 914.003 Q173.311 917.544 176.922 917.544 Q180.556 917.544 182.362 914.003 Q184.19 910.438 184.19 903.331 Q184.19 896.202 182.362 892.66 Q180.556 889.095 176.922 889.095 M176.922 885.392 Q182.732 885.392 185.788 889.998 Q188.866 894.582 188.866 903.331 Q188.866 912.058 185.788 916.665 Q182.732 921.248 176.922 921.248 Q171.112 921.248 168.033 916.665 Q164.977 912.058 164.977 903.331 Q164.977 894.582 168.033 889.998 Q171.112 885.392 176.922 885.392 Z" fill="#000000" fill-rule="evenodd" fill-opacity="1" /><path clip-path="url(#clip580)" d="M 0 0 M150.325 641.492 Q147.177 641.492 145.325 643.645 Q143.496 645.797 143.496 649.547 Q143.496 653.274 145.325 655.45 Q147.177 657.603 150.325 657.603 Q153.473 657.603 155.302 655.45 Q157.153 653.274 157.153 649.547 Q157.153 645.797 155.302 643.645 Q153.473 641.492 150.325 641.492 M159.607 626.839 L159.607 631.098 Q157.848 630.265 156.042 629.825 Q154.26 629.385 152.501 629.385 Q147.871 629.385 145.417 632.51 Q142.987 635.635 142.64 641.955 Q144.005 639.941 146.066 638.876 Q148.126 637.788 150.603 637.788 Q155.811 637.788 158.82 640.959 Q161.852 644.108 161.852 649.547 Q161.852 654.871 158.704 658.089 Q155.556 661.307 150.325 661.307 Q144.329 661.307 141.158 656.723 Q137.987 652.117 137.987 643.39 Q137.987 635.196 141.876 630.334 Q145.765 625.45 152.316 625.45 Q154.075 625.45 155.857 625.797 Q157.663 626.145 159.607 626.839 Z" fill="#000000" fill-rule="evenodd" fill-opacity="1" /><path clip-path="url(#clip580)" d="M 0 0 M176.922 629.154 Q173.311 629.154 171.482 632.719 Q169.677 636.26 169.677 643.39 Q169.677 650.496 171.482 654.061 Q173.311 657.603 176.922 657.603 Q180.556 657.603 182.362 654.061 Q184.19 650.496 184.19 643.39 Q184.19 636.26 182.362 632.719 Q180.556 629.154 176.922 629.154 M176.922 625.45 Q182.732 625.45 185.788 630.057 Q188.866 634.64 188.866 643.39 Q188.866 652.117 185.788 656.723 Q182.732 661.307 176.922 661.307 Q171.112 661.307 168.033 656.723 Q164.977 652.117 164.977 643.39 Q164.977 634.64 168.033 630.057 Q171.112 625.45 176.922 625.45 Z" fill="#000000" fill-rule="evenodd" fill-opacity="1" /><path clip-path="url(#clip580)" d="M 0 0 M150.001 384.282 Q146.667 384.282 144.746 386.064 Q142.848 387.847 142.848 390.971 Q142.848 394.096 144.746 395.879 Q146.667 397.661 150.001 397.661 Q153.334 397.661 155.255 395.879 Q157.177 394.073 157.177 390.971 Q157.177 387.847 155.255 386.064 Q153.357 384.282 150.001 384.282 M145.325 382.291 Q142.316 381.55 140.626 379.49 Q138.959 377.43 138.959 374.467 Q138.959 370.323 141.899 367.916 Q144.862 365.509 150.001 365.509 Q155.163 365.509 158.103 367.916 Q161.042 370.323 161.042 374.467 Q161.042 377.43 159.353 379.49 Q157.686 381.55 154.7 382.291 Q158.079 383.078 159.954 385.37 Q161.852 387.661 161.852 390.971 Q161.852 395.995 158.774 398.68 Q155.718 401.365 150.001 401.365 Q144.283 401.365 141.204 398.68 Q138.149 395.995 138.149 390.971 Q138.149 387.661 140.047 385.37 Q141.945 383.078 145.325 382.291 M143.612 374.907 Q143.612 377.592 145.279 379.097 Q146.968 380.601 150.001 380.601 Q153.01 380.601 154.7 379.097 Q156.413 377.592 156.413 374.907 Q156.413 372.222 154.7 370.717 Q153.01 369.212 150.001 369.212 Q146.968 369.212 145.279 370.717 Q143.612 372.222 143.612 374.907 Z" fill="#000000" fill-rule="evenodd" fill-opacity="1" /><path clip-path="url(#clip580)" d="M 0 0 M176.922 369.212 Q173.311 369.212 171.482 372.777 Q169.677 376.319 169.677 383.448 Q169.677 390.555 171.482 394.12 Q173.311 397.661 176.922 397.661 Q180.556 397.661 182.362 394.12 Q184.19 390.555 184.19 383.448 Q184.19 376.319 182.362 372.777 Q180.556 369.212 176.922 369.212 M176.922 365.509 Q182.732 365.509 185.788 370.115 Q188.866 374.698 188.866 383.448 Q188.866 392.175 185.788 396.782 Q182.732 401.365 176.922 401.365 Q171.112 401.365 168.033 396.782 Q164.977 392.175 164.977 383.448 Q164.977 374.698 168.033 370.115 Q171.112 365.509 176.922 365.509 Z" fill="#000000" fill-rule="evenodd" fill-opacity="1" /><path clip-path="url(#clip580)" d="M 0 0 M114.931 136.817 L122.57 136.817 L122.57 110.451 L114.26 112.118 L114.26 107.859 L122.524 106.192 L127.2 106.192 L127.2 136.817 L134.839 136.817 L134.839 140.752 L114.931 140.752 L114.931 136.817 Z" fill="#000000" fill-rule="evenodd" fill-opacity="1" /><path clip-path="url(#clip580)" d="M 0 0 M149.908 109.271 Q146.297 109.271 144.468 112.836 Q142.663 116.377 142.663 123.507 Q142.663 130.613 144.468 134.178 Q146.297 137.72 149.908 137.72 Q153.542 137.72 155.348 134.178 Q157.177 130.613 157.177 123.507 Q157.177 116.377 155.348 112.836 Q153.542 109.271 149.908 109.271 M149.908 105.567 Q155.718 105.567 158.774 110.174 Q161.852 114.757 161.852 123.507 Q161.852 132.234 158.774 136.84 Q155.718 141.423 149.908 141.423 Q144.098 141.423 141.019 136.84 Q137.964 132.234 137.964 123.507 Q137.964 114.757 141.019 110.174 Q144.098 105.567 149.908 105.567 Z" fill="#000000" fill-rule="evenodd" fill-opacity="1" /><path clip-path="url(#clip580)" d="M 0 0 M176.922 109.271 Q173.311 109.271 171.482 112.836 Q169.677 116.377 169.677 123.507 Q169.677 130.613 171.482 134.178 Q173.311 137.72 176.922 137.72 Q180.556 137.72 182.362 134.178 Q184.19 130.613 184.19 123.507 Q184.19 116.377 182.362 112.836 Q180.556 109.271 176.922 109.271 M176.922 105.567 Q182.732 105.567 185.788 110.174 Q188.866 114.757 188.866 123.507 Q188.866 132.234 185.788 136.84 Q182.732 141.423 176.922 141.423 Q171.112 141.423 168.033 136.84 Q164.977 132.234 164.977 123.507 Q164.977 114.757 168.033 110.174 Q171.112 105.567 176.922 105.567 Z" fill="#000000" fill-rule="evenodd" fill-opacity="1" /><path clip-path="url(#clip580)" d="M 0 0 M68.7161 1118.82 L71.5806 1118.82 L71.5806 1145.75 Q77.6281 1145.37 80.8109 1142.12 Q83.9619 1138.84 83.9619 1133.02 Q83.9619 1129.65 83.1344 1126.5 Q82.3069 1123.31 80.6518 1120.19 L86.1899 1120.19 Q87.5267 1123.34 88.227 1126.65 Q88.9272 1129.96 88.9272 1133.37 Q88.9272 1141.9 83.9619 1146.9 Q78.9967 1151.86 70.5303 1151.86 Q61.7774 1151.86 56.6531 1147.15 Q51.4968 1142.41 51.4968 1134.39 Q51.4968 1127.2 56.1438 1123.03 Q60.7589 1118.82 68.7161 1118.82 M66.9973 1124.68 Q62.1912 1124.74 59.3266 1127.39 Q56.4621 1130 56.4621 1134.33 Q56.4621 1139.23 59.2312 1142.19 Q62.0002 1145.12 67.0292 1145.56 L66.9973 1124.68 Z" fill="#000000" fill-rule="evenodd" fill-opacity="1" /><path clip-path="url(#clip580)" d="M 0 0 M38.479 1094.64 L43.3487 1094.64 L43.3487 1100.24 Q43.3487 1103.39 44.6219 1104.63 Q45.895 1105.84 49.2052 1105.84 L52.3562 1105.84 L52.3562 1096.19 L56.9077 1096.19 L56.9077 1105.84 L88.0042 1105.84 L88.0042 1111.73 L56.9077 1111.73 L56.9077 1117.33 L52.3562 1117.33 L52.3562 1111.73 L49.8736 1111.73 Q43.9216 1111.73 41.2162 1108.96 Q38.479 1106.19 38.479 1100.17 L38.479 1094.64 Z" fill="#000000" fill-rule="evenodd" fill-opacity="1" /><path clip-path="url(#clip580)" d="M 0 0 M38.479 1070.45 L43.3487 1070.45 L43.3487 1076.05 Q43.3487 1079.2 44.6219 1080.44 Q45.895 1081.65 49.2052 1081.65 L52.3562 1081.65 L52.3562 1072 L56.9077 1072 L56.9077 1081.65 L88.0042 1081.65 L88.0042 1087.54 L56.9077 1087.54 L56.9077 1093.14 L52.3562 1093.14 L52.3562 1087.54 L49.8736 1087.54 Q43.9216 1087.54 41.2162 1084.77 Q38.479 1082 38.479 1075.98 L38.479 1070.45 Z" fill="#000000" fill-rule="evenodd" fill-opacity="1" /><path clip-path="url(#clip580)" d="M 0 0 M68.7161 1033.81 L71.5806 1033.81 L71.5806 1060.74 Q77.6281 1060.36 80.8109 1057.11 Q83.9619 1053.83 83.9619 1048.01 Q83.9619 1044.63 83.1344 1041.48 Q82.3069 1038.3 80.6518 1035.18 L86.1899 1035.18 Q87.5267 1038.33 88.227 1041.64 Q88.9272 1044.95 88.9272 1048.36 Q88.9272 1056.89 83.9619 1061.88 Q78.9967 1066.85 70.5303 1066.85 Q61.7774 1066.85 56.6531 1062.14 Q51.4968 1057.4 51.4968 1049.37 Q51.4968 1042.18 56.1438 1038.01 Q60.7589 1033.81 68.7161 1033.81 M66.9973 1039.67 Q62.1912 1039.73 59.3266 1042.37 Q56.4621 1044.98 56.4621 1049.31 Q56.4621 1054.21 59.2312 1057.17 Q62.0002 1060.1 67.0292 1060.55 L66.9973 1039.67 Z" fill="#000000" fill-rule="evenodd" fill-opacity="1" /><path clip-path="url(#clip580)" d="M 0 0 M53.7248 1002.01 L59.1993 1002.01 Q57.8307 1004.5 57.1623 1007.01 Q56.4621 1009.49 56.4621 1012.04 Q56.4621 1017.74 60.0905 1020.89 Q63.6872 1024.04 70.212 1024.04 Q76.7369 1024.04 80.3653 1020.89 Q83.9619 1017.74 83.9619 1012.04 Q83.9619 1009.49 83.2935 1007.01 Q82.5933 1004.5 81.2247 1002.01 L86.6355 1002.01 Q87.7814 1004.46 88.3543 1007.11 Q88.9272 1009.72 88.9272 1012.68 Q88.9272 1020.73 83.8664 1025.47 Q78.8057 1030.21 70.212 1030.21 Q61.491 1030.21 56.4939 1025.44 Q51.4968 1020.63 51.4968 1012.29 Q51.4968 1009.59 52.0697 1007.01 Q52.6108 1004.43 53.7248 1002.01 Z" fill="#000000" fill-rule="evenodd" fill-opacity="1" /><path clip-path="url(#clip580)" d="M 0 0 M42.2347 990.078 L52.3562 990.078 L52.3562 978.015 L56.9077 978.015 L56.9077 990.078 L76.2594 990.078 Q80.6199 990.078 81.8613 988.901 Q83.1026 987.691 83.1026 984.031 L83.1026 978.015 L88.0042 978.015 L88.0042 984.031 Q88.0042 990.81 85.4897 993.388 Q82.9434 995.967 76.2594 995.967 L56.9077 995.967 L56.9077 1000.26 L52.3562 1000.26 L52.3562 995.967 L42.2347 995.967 L42.2347 990.078 Z" fill="#000000" fill-rule="evenodd" fill-opacity="1" /><path clip-path="url(#clip580)" d="M 0 0 M52.3562 971.872 L52.3562 966.016 L88.0042 966.016 L88.0042 971.872 L52.3562 971.872 M38.479 971.872 L38.479 966.016 L45.895 966.016 L45.895 971.872 L38.479 971.872 Z" fill="#000000" fill-rule="evenodd" fill-opacity="1" /><path clip-path="url(#clip580)" d="M 0 0 M52.3562 964.074 L52.3562 957.868 L82.275 946.728 L52.3562 935.588 L52.3562 929.381 L88.0042 942.749 L88.0042 950.706 L52.3562 964.074 Z" fill="#000000" fill-rule="evenodd" fill-opacity="1" /><path clip-path="url(#clip580)" d="M 0 0 M68.7161 892.747 L71.5806 892.747 L71.5806 919.674 Q77.6281 919.292 80.8109 916.045 Q83.9619 912.767 83.9619 906.942 Q83.9619 903.568 83.1344 900.417 Q82.3069 897.234 80.6518 894.115 L86.1899 894.115 Q87.5267 897.266 88.227 900.576 Q88.9272 903.887 88.9272 907.292 Q88.9272 915.822 83.9619 920.819 Q78.9967 925.785 70.5303 925.785 Q61.7774 925.785 56.6531 921.074 Q51.4968 916.332 51.4968 908.311 Q51.4968 901.118 56.1438 896.948 Q60.7589 892.747 68.7161 892.747 M66.9973 898.603 Q62.1912 898.667 59.3266 901.309 Q56.4621 903.918 56.4621 908.247 Q56.4621 913.149 59.2312 916.109 Q62.0002 919.037 67.0292 919.483 L66.9973 898.603 Z" fill="#000000" fill-rule="evenodd" fill-opacity="1" /><path clip-path="url(#clip580)" d="M 0 0 M53.4065 843.158 L58.9447 843.158 Q57.6716 845.64 57.035 848.314 Q56.3984 850.988 56.3984 853.852 Q56.3984 858.213 57.7352 860.409 Q59.072 862.573 61.7456 862.573 Q63.7826 862.573 64.9603 861.014 Q66.1061 859.454 67.1565 854.743 L67.6021 852.738 Q68.9389 846.5 71.3897 843.89 Q73.8086 841.248 78.1691 841.248 Q83.1344 841.248 86.0308 845.195 Q88.9272 849.11 88.9272 855.985 Q88.9272 858.849 88.3543 861.968 Q87.8132 865.056 86.6992 868.493 L80.6518 868.493 Q82.3387 865.247 83.198 862.096 Q84.0256 858.945 84.0256 855.857 Q84.0256 851.72 82.6251 849.492 Q81.1929 847.264 78.6147 847.264 Q76.2276 847.264 74.9545 848.887 Q73.6813 850.478 72.5037 855.921 L72.0262 857.958 Q70.8804 863.401 68.5251 865.82 Q66.138 868.239 62.0002 868.239 Q56.9713 868.239 54.2341 864.674 Q51.4968 861.109 51.4968 854.552 Q51.4968 851.306 51.9743 848.441 Q52.4517 845.577 53.4065 843.158 Z" fill="#000000" fill-rule="evenodd" fill-opacity="1" /><path clip-path="url(#clip580)" d="M 0 0 M42.2347 829.312 L52.3562 829.312 L52.3562 817.249 L56.9077 817.249 L56.9077 829.312 L76.2594 829.312 Q80.6199 829.312 81.8613 828.135 Q83.1026 826.925 83.1026 823.265 L83.1026 817.249 L88.0042 817.249 L88.0042 823.265 Q88.0042 830.044 85.4897 832.623 Q82.9434 835.201 76.2594 835.201 L56.9077 835.201 L56.9077 839.498 L52.3562 839.498 L52.3562 835.201 L42.2347 835.201 L42.2347 829.312 Z" fill="#000000" fill-rule="evenodd" fill-opacity="1" /><path clip-path="url(#clip580)" d="M 0 0 M70.0847 794.906 Q70.0847 802.003 71.7079 804.741 Q73.3312 807.478 77.2461 807.478 Q80.3653 807.478 82.2114 805.441 Q84.0256 803.372 84.0256 799.839 Q84.0256 794.969 80.5881 792.041 Q77.1188 789.081 71.3897 789.081 L70.0847 789.081 L70.0847 794.906 M67.6657 783.225 L88.0042 783.225 L88.0042 789.081 L82.5933 789.081 Q85.8398 791.086 87.3994 794.078 Q88.9272 797.07 88.9272 801.399 Q88.9272 806.873 85.8716 810.12 Q82.7843 813.334 77.6281 813.334 Q71.6125 813.334 68.5569 809.324 Q65.5014 805.282 65.5014 797.293 L65.5014 789.081 L64.9285 789.081 Q60.8862 789.081 58.6901 791.755 Q56.4621 794.396 56.4621 799.203 Q56.4621 802.258 57.1941 805.155 Q57.9262 808.051 59.3903 810.725 L53.9795 810.725 Q52.7381 807.51 52.1334 804.486 Q51.4968 801.462 51.4968 798.598 Q51.4968 790.864 55.5072 787.044 Q59.5176 783.225 67.6657 783.225 Z" fill="#000000" fill-rule="evenodd" fill-opacity="1" /><path clip-path="url(#clip580)" d="M 0 0 M53.7248 751.428 L59.1993 751.428 Q57.8307 753.911 57.1623 756.425 Q56.4621 758.908 56.4621 761.454 Q56.4621 767.151 60.0905 770.302 Q63.6872 773.453 70.212 773.453 Q76.7369 773.453 80.3653 770.302 Q83.9619 767.151 83.9619 761.454 Q83.9619 758.908 83.2935 756.425 Q82.5933 753.911 81.2247 751.428 L86.6355 751.428 Q87.7814 753.879 88.3543 756.521 Q88.9272 759.13 88.9272 762.091 Q88.9272 770.143 83.8664 774.886 Q78.8057 779.628 70.212 779.628 Q61.491 779.628 56.4939 774.854 Q51.4968 770.048 51.4968 761.709 Q51.4968 759.003 52.0697 756.425 Q52.6108 753.847 53.7248 751.428 Z" fill="#000000" fill-rule="evenodd" fill-opacity="1" /><path clip-path="url(#clip580)" d="M 0 0 M38.479 745.508 L38.479 739.62 L67.7294 739.62 L52.3562 722.146 L52.3562 714.666 L69.0344 733.572 L88.0042 713.87 L88.0042 721.509 L70.5939 739.62 L88.0042 739.62 L88.0042 745.508 L38.479 745.508 Z" fill="#000000" fill-rule="evenodd" fill-opacity="1" /><path clip-path="url(#clip580)" d="M 0 0 M66.4881 657.375 L88.0042 657.375 L88.0042 663.231 L66.679 663.231 Q61.6183 663.231 59.1038 665.204 Q56.5894 667.178 56.5894 671.125 Q56.5894 675.867 59.6131 678.604 Q62.6368 681.342 67.8567 681.342 L88.0042 681.342 L88.0042 687.23 L38.479 687.23 L38.479 681.342 L57.8944 681.342 Q54.6797 679.241 53.0883 676.408 Q51.4968 673.544 51.4968 669.82 Q51.4968 663.677 55.3163 660.526 Q59.1038 657.375 66.4881 657.375 Z" fill="#000000" fill-rule="evenodd" fill-opacity="1" /><path clip-path="url(#clip580)" d="M 0 0 M68.7161 620.74 L71.5806 620.74 L71.5806 647.667 Q77.6281 647.285 80.8109 644.038 Q83.9619 640.76 83.9619 634.936 Q83.9619 631.562 83.1344 628.411 Q82.3069 625.228 80.6518 622.109 L86.1899 622.109 Q87.5267 625.26 88.227 628.57 Q88.9272 631.88 88.9272 635.286 Q88.9272 643.816 83.9619 648.813 Q78.9967 653.778 70.5303 653.778 Q61.7774 653.778 56.6531 649.067 Q51.4968 644.325 51.4968 636.304 Q51.4968 629.111 56.1438 624.941 Q60.7589 620.74 68.7161 620.74 M66.9973 626.596 Q62.1912 626.66 59.3266 629.302 Q56.4621 631.912 56.4621 636.24 Q56.4621 641.142 59.2312 644.102 Q62.0002 647.03 67.0292 647.476 L66.9973 626.596 Z" fill="#000000" fill-rule="evenodd" fill-opacity="1" /><path clip-path="url(#clip580)" d="M 0 0 M52.3562 614.597 L52.3562 608.741 L88.0042 608.741 L88.0042 614.597 L52.3562 614.597 M38.479 614.597 L38.479 608.741 L45.895 608.741 L45.895 614.597 L38.479 614.597 Z" fill="#000000" fill-rule="evenodd" fill-opacity="1" /><path clip-path="url(#clip580)" d="M 0 0 M69.7664 579.14 Q63.4007 579.14 59.8996 581.782 Q56.3984 584.392 56.3984 589.134 Q56.3984 593.845 59.8996 596.487 Q63.4007 599.097 69.7664 599.097 Q76.1003 599.097 79.6014 596.487 Q83.1026 593.845 83.1026 589.134 Q83.1026 584.392 79.6014 581.782 Q76.1003 579.14 69.7664 579.14 M83.58 573.284 Q92.683 573.284 97.1071 577.326 Q101.563 581.368 101.563 589.707 Q101.563 592.795 101.086 595.532 Q100.64 598.269 99.6852 600.847 L93.9879 600.847 Q95.3884 598.269 96.0568 595.755 Q96.7252 593.24 96.7252 590.63 Q96.7252 584.869 93.7015 582.005 Q90.7096 579.14 84.6303 579.14 L81.7339 579.14 Q84.885 580.954 86.4446 583.787 Q88.0042 586.62 88.0042 590.567 Q88.0042 597.123 83.0071 601.134 Q78.01 605.144 69.7664 605.144 Q61.491 605.144 56.4939 601.134 Q51.4968 597.123 51.4968 590.567 Q51.4968 586.62 53.0564 583.787 Q54.616 580.954 57.7671 579.14 L52.3562 579.14 L52.3562 573.284 L83.58 573.284 Z" fill="#000000" fill-rule="evenodd" fill-opacity="1" /><path clip-path="url(#clip580)" d="M 0 0 M66.4881 537.508 L88.0042 537.508 L88.0042 543.365 L66.679 543.365 Q61.6183 543.365 59.1038 545.338 Q56.5894 547.312 56.5894 551.258 Q56.5894 556.001 59.6131 558.738 Q62.6368 561.475 67.8567 561.475 L88.0042 561.475 L88.0042 567.364 L38.479 567.364 L38.479 561.475 L57.8944 561.475 Q54.6797 559.375 53.0883 556.542 Q51.4968 553.677 51.4968 549.953 Q51.4968 543.81 55.3163 540.659 Q59.1038 537.508 66.4881 537.508 Z" fill="#000000" fill-rule="evenodd" fill-opacity="1" /><path clip-path="url(#clip580)" d="M 0 0 M42.2347 525.573 L52.3562 525.573 L52.3562 513.51 L56.9077 513.51 L56.9077 525.573 L76.2594 525.573 Q80.6199 525.573 81.8613 524.395 Q83.1026 523.186 83.1026 519.525 L83.1026 513.51 L88.0042 513.51 L88.0042 519.525 Q88.0042 526.305 85.4897 528.883 Q82.9434 531.461 76.2594 531.461 L56.9077 531.461 L56.9077 535.758 L52.3562 535.758 L52.3562 531.461 L42.2347 531.461 L42.2347 525.573 Z" fill="#000000" fill-rule="evenodd" fill-opacity="1" /><path clip-path="url(#clip580)" d="M 0 0 M38.5426 472.578 Q45.8632 476.843 53.0246 478.912 Q60.186 480.981 67.5384 480.981 Q74.8908 480.981 82.1159 478.912 Q89.3091 476.811 96.5979 472.578 L96.5979 477.671 Q89.1182 482.445 81.8931 484.832 Q74.668 487.187 67.5384 487.187 Q60.4406 487.187 53.2474 484.832 Q46.0542 482.477 38.5426 477.671 L38.5426 472.578 Z" fill="#000000" fill-rule="evenodd" fill-opacity="1" /><path clip-path="url(#clip580)" d="M 0 0 M59.1993 438.681 Q55.2526 436.485 53.3747 433.429 Q51.4968 430.374 51.4968 426.236 Q51.4968 420.666 55.4117 417.642 Q59.2948 414.618 66.4881 414.618 L88.0042 414.618 L88.0042 420.507 L66.679 420.507 Q61.5546 420.507 59.072 422.321 Q56.5894 424.135 56.5894 427.859 Q56.5894 432.411 59.6131 435.052 Q62.6368 437.694 67.8567 437.694 L88.0042 437.694 L88.0042 443.582 L66.679 443.582 Q61.5228 443.582 59.072 445.397 Q56.5894 447.211 56.5894 450.998 Q56.5894 455.486 59.6449 458.128 Q62.6686 460.77 67.8567 460.77 L88.0042 460.77 L88.0042 466.658 L52.3562 466.658 L52.3562 460.77 L57.8944 460.77 Q54.616 458.765 53.0564 455.964 Q51.4968 453.163 51.4968 449.312 Q51.4968 445.428 53.4702 442.723 Q55.4436 439.986 59.1993 438.681 Z" fill="#000000" fill-rule="evenodd" fill-opacity="1" /><path clip-path="url(#clip580)" d="M 0 0 M38.5426 409.399 L38.5426 404.306 Q46.0542 399.532 53.2474 397.176 Q60.4406 394.789 67.5384 394.789 Q74.668 394.789 81.8931 397.176 Q89.1182 399.532 96.5979 404.306 L96.5979 409.399 Q89.3091 405.165 82.1159 403.096 Q74.8908 400.996 67.5384 400.996 Q60.186 400.996 53.0246 403.096 Q45.8632 405.165 38.5426 409.399 Z" fill="#000000" fill-rule="evenodd" fill-opacity="1" /><path clip-path="url(#clip580)" d="M 0 0 M437.331 18.8205 L437.331 41.5461 L447.621 41.5461 Q453.332 41.5461 456.452 38.5889 Q459.571 35.6318 459.571 30.163 Q459.571 24.7348 456.452 21.7777 Q453.332 18.8205 447.621 18.8205 L437.331 18.8205 M429.148 12.096 L447.621 12.096 Q457.788 12.096 462.973 16.714 Q468.199 21.2916 468.199 30.163 Q468.199 39.1155 462.973 43.6931 Q457.788 48.2706 447.621 48.2706 L437.331 48.2706 L437.331 72.576 L429.148 72.576 L429.148 12.096 Z" fill="#000000" fill-rule="evenodd" fill-opacity="1" /><path clip-path="url(#clip580)" d="M 0 0 M476.017 9.54393 L483.471 9.54393 L483.471 72.576 L476.017 72.576 L476.017 9.54393 Z" fill="#000000" fill-rule="evenodd" fill-opacity="1" /><path clip-path="url(#clip580)" d="M 0 0 M490.52 54.671 L490.52 27.2059 L497.973 27.2059 L497.973 54.3874 Q497.973 60.8284 500.485 64.0691 Q502.996 67.2693 508.02 67.2693 Q514.055 67.2693 517.539 63.421 Q521.063 59.5726 521.063 52.9291 L521.063 27.2059 L528.517 27.2059 L528.517 72.576 L521.063 72.576 L521.063 65.6084 Q518.349 69.7404 514.744 71.7658 Q511.179 73.7508 506.44 73.7508 Q498.621 73.7508 494.571 68.8897 Q490.52 64.0286 490.52 54.671 M509.275 26.1121 L509.275 26.1121 Z" fill="#000000" fill-rule="evenodd" fill-opacity="1" /><path clip-path="url(#clip580)" d="M 0 0 M571.659 35.9153 Q574.454 30.8922 578.343 28.5022 Q582.232 26.1121 587.498 26.1121 Q594.587 26.1121 598.436 31.0947 Q602.284 36.0368 602.284 45.1919 L602.284 72.576 L594.79 72.576 L594.79 45.4349 Q594.79 38.913 592.481 35.7533 Q590.172 32.5936 585.432 32.5936 Q579.64 32.5936 576.277 36.4419 Q572.915 40.2903 572.915 46.9338 L572.915 72.576 L565.421 72.576 L565.421 45.4349 Q565.421 38.8725 563.112 35.7533 Q560.803 32.5936 555.982 32.5936 Q550.27 32.5936 546.908 36.4824 Q543.546 40.3308 543.546 46.9338 L543.546 72.576 L536.052 72.576 L536.052 27.2059 L543.546 27.2059 L543.546 34.2544 Q546.098 30.082 549.663 28.0971 Q553.228 26.1121 558.129 26.1121 Q563.071 26.1121 566.515 28.6237 Q569.998 31.1352 571.659 35.9153 Z" fill="#000000" fill-rule="evenodd" fill-opacity="1" /><path clip-path="url(#clip580)" d="M 0 0 M648.91 48.0275 L648.91 51.6733 L614.639 51.6733 Q615.125 59.3701 619.257 63.421 Q623.43 67.4314 630.843 67.4314 Q635.137 67.4314 639.147 66.3781 Q643.198 65.3249 647.168 63.2184 L647.168 70.267 Q643.158 71.9684 638.945 72.8596 Q634.732 73.7508 630.397 73.7508 Q619.541 73.7508 613.181 67.4314 Q606.862 61.1119 606.862 50.3365 Q606.862 39.1965 612.857 32.6746 Q618.893 26.1121 629.101 26.1121 Q638.256 26.1121 643.563 32.0264 Q648.91 37.9003 648.91 48.0275 M641.456 45.84 Q641.375 39.7232 638.013 36.0774 Q634.691 32.4315 629.182 32.4315 Q622.944 32.4315 619.176 35.9558 Q615.45 39.4801 614.882 45.8805 L641.456 45.84 Z" fill="#000000" fill-rule="evenodd" fill-opacity="1" /><path clip-path="url(#clip580)" d="M 0 0 M709.39 34.1734 Q708.134 33.4443 706.635 33.1202 Q705.177 32.7556 703.395 32.7556 Q697.075 32.7556 693.672 36.8875 Q690.31 40.9789 690.31 48.6757 L690.31 72.576 L682.816 72.576 L682.816 27.2059 L690.31 27.2059 L690.31 34.2544 Q692.66 30.1225 696.427 28.1376 Q700.194 26.1121 705.582 26.1121 Q706.352 26.1121 707.284 26.2337 Q708.215 26.3147 709.349 26.5172 L709.39 34.1734 Z" fill="#000000" fill-rule="evenodd" fill-opacity="1" /><path clip-path="url(#clip580)" d="M 0 0 M717.208 27.2059 L724.662 27.2059 L724.662 72.576 L717.208 72.576 L717.208 27.2059 M717.208 9.54393 L724.662 9.54393 L724.662 18.9825 L717.208 18.9825 L717.208 9.54393 Z" fill="#000000" fill-rule="evenodd" fill-opacity="1" /><path clip-path="url(#clip580)" d="M 0 0 M761.404 28.5427 L761.404 35.5912 Q758.244 33.9709 754.841 33.1607 Q751.438 32.3505 747.793 32.3505 Q742.243 32.3505 739.448 34.0519 Q736.693 35.7533 736.693 39.156 Q736.693 41.7486 738.678 43.2475 Q740.663 44.7058 746.658 46.0426 L749.21 46.6097 Q757.15 48.3111 760.472 51.4303 Q763.834 54.509 763.834 60.0587 Q763.834 66.3781 758.811 70.0644 Q753.828 73.7508 745.078 73.7508 Q741.433 73.7508 737.463 73.0216 Q733.533 72.3329 729.158 70.9151 L729.158 63.2184 Q733.29 65.3654 737.301 66.4591 Q741.311 67.5124 745.24 67.5124 Q750.507 67.5124 753.342 65.73 Q756.178 63.9071 756.178 60.6258 Q756.178 57.5877 754.112 55.9673 Q752.087 54.3469 745.159 52.8481 L742.567 52.2405 Q735.64 50.7821 732.561 47.7845 Q729.482 44.7463 729.482 39.4801 Q729.482 33.0797 734.019 29.5959 Q738.556 26.1121 746.901 26.1121 Q751.033 26.1121 754.679 26.7198 Q758.325 27.3274 761.404 28.5427 Z" fill="#000000" fill-rule="evenodd" fill-opacity="1" /><path clip-path="url(#clip580)" d="M 0 0 M810.46 48.0275 L810.46 51.6733 L776.189 51.6733 Q776.676 59.3701 780.807 63.421 Q784.98 67.4314 792.393 67.4314 Q796.687 67.4314 800.697 66.3781 Q804.748 65.3249 808.718 63.2184 L808.718 70.267 Q804.708 71.9684 800.495 72.8596 Q796.282 73.7508 791.947 73.7508 Q781.091 73.7508 774.731 67.4314 Q768.412 61.1119 768.412 50.3365 Q768.412 39.1965 774.407 32.6746 Q780.443 26.1121 790.651 26.1121 Q799.806 26.1121 805.113 32.0264 Q810.46 37.9003 810.46 48.0275 M803.006 45.84 Q802.925 39.7232 799.563 36.0774 Q796.241 32.4315 790.732 32.4315 Q784.494 32.4315 780.726 35.9558 Q777 39.4801 776.432 45.8805 L803.006 45.84 Z" fill="#000000" fill-rule="evenodd" fill-opacity="1" /><path clip-path="url(#clip580)" d="M 0 0 M865.269 49.7694 Q856.235 49.7694 852.751 51.8354 Q849.268 53.9013 849.268 58.8839 Q849.268 62.8538 851.86 65.2034 Q854.493 67.5124 858.99 67.5124 Q865.188 67.5124 868.915 63.1374 Q872.682 58.7219 872.682 51.4303 L872.682 49.7694 L865.269 49.7694 M880.136 46.6907 L880.136 72.576 L872.682 72.576 L872.682 65.6895 Q870.13 69.8214 866.322 71.8063 Q862.514 73.7508 857.005 73.7508 Q850.037 73.7508 845.905 69.8619 Q841.814 65.9325 841.814 59.3701 Q841.814 51.7138 846.918 47.825 Q852.063 43.9361 862.231 43.9361 L872.682 43.9361 L872.682 43.2069 Q872.682 38.0623 869.279 35.2672 Q865.917 32.4315 859.8 32.4315 Q855.911 32.4315 852.225 33.3632 Q848.539 34.295 845.136 36.1584 L845.136 29.2718 Q849.227 27.692 853.076 26.9223 Q856.924 26.1121 860.57 26.1121 Q870.413 26.1121 875.275 31.2163 Q880.136 36.3204 880.136 46.6907 Z" fill="#000000" fill-rule="evenodd" fill-opacity="1" /><path clip-path="url(#clip580)" d="M 0 0 M916.877 28.5427 L916.877 35.5912 Q913.718 33.9709 910.315 33.1607 Q906.912 32.3505 903.266 32.3505 Q897.717 32.3505 894.921 34.0519 Q892.167 35.7533 892.167 39.156 Q892.167 41.7486 894.152 43.2475 Q896.137 44.7058 902.132 46.0426 L904.684 46.6097 Q912.624 48.3111 915.946 51.4303 Q919.308 54.509 919.308 60.0587 Q919.308 66.3781 914.285 70.0644 Q909.302 73.7508 900.552 73.7508 Q896.906 73.7508 892.936 73.0216 Q889.007 72.3329 884.632 70.9151 L884.632 63.2184 Q888.764 65.3654 892.774 66.4591 Q896.785 67.5124 900.714 67.5124 Q905.98 67.5124 908.816 65.73 Q911.652 63.9071 911.652 60.6258 Q911.652 57.5877 909.586 55.9673 Q907.56 54.3469 900.633 52.8481 L898.041 52.2405 Q891.114 50.7821 888.035 47.7845 Q884.956 44.7463 884.956 39.4801 Q884.956 33.0797 889.493 29.5959 Q894.03 26.1121 902.375 26.1121 Q906.507 26.1121 910.153 26.7198 Q913.799 27.3274 916.877 28.5427 Z" fill="#000000" fill-rule="evenodd" fill-opacity="1" /><path clip-path="url(#clip580)" d="M 0 0 M974.117 49.7694 Q965.083 49.7694 961.599 51.8354 Q958.116 53.9013 958.116 58.8839 Q958.116 62.8538 960.708 65.2034 Q963.341 67.5124 967.838 67.5124 Q974.036 67.5124 977.762 63.1374 Q981.53 58.7219 981.53 51.4303 L981.53 49.7694 L974.117 49.7694 M988.983 46.6907 L988.983 72.576 L981.53 72.576 L981.53 65.6895 Q978.978 69.8214 975.17 71.8063 Q971.362 73.7508 965.853 73.7508 Q958.885 73.7508 954.753 69.8619 Q950.662 65.9325 950.662 59.3701 Q950.662 51.7138 955.766 47.825 Q960.911 43.9361 971.078 43.9361 L981.53 43.9361 L981.53 43.2069 Q981.53 38.0623 978.127 35.2672 Q974.765 32.4315 968.648 32.4315 Q964.759 32.4315 961.073 33.3632 Q957.386 34.295 953.984 36.1584 L953.984 29.2718 Q958.075 27.692 961.923 26.9223 Q965.772 26.1121 969.418 26.1121 Q979.261 26.1121 984.122 31.2163 Q988.983 36.3204 988.983 46.6907 Z" fill="#000000" fill-rule="evenodd" fill-opacity="1" /><path clip-path="url(#clip580)" d="M 0 0 M1046.14 9.54393 L1046.14 15.7418 L1039.01 15.7418 Q1035 15.7418 1033.42 17.3622 Q1031.88 18.9825 1031.88 23.1955 L1031.88 27.2059 L1044.16 27.2059 L1044.16 32.9987 L1031.88 32.9987 L1031.88 72.576 L1024.39 72.576 L1024.39 32.9987 L1017.26 32.9987 L1017.26 27.2059 L1024.39 27.2059 L1024.39 24.0462 Q1024.39 16.471 1027.91 13.0277 Q1031.44 9.54393 1039.09 9.54393 L1046.14 9.54393 Z" fill="#000000" fill-rule="evenodd" fill-opacity="1" /><path clip-path="url(#clip580)" d="M 0 0 M1053.19 54.671 L1053.19 27.2059 L1060.64 27.2059 L1060.64 54.3874 Q1060.64 60.8284 1063.16 64.0691 Q1065.67 67.2693 1070.69 67.2693 Q1076.73 67.2693 1080.21 63.421 Q1083.73 59.5726 1083.73 52.9291 L1083.73 27.2059 L1091.19 27.2059 L1091.19 72.576 L1083.73 72.576 L1083.73 65.6084 Q1081.02 69.7404 1077.41 71.7658 Q1073.85 73.7508 1069.11 73.7508 Q1061.29 73.7508 1057.24 68.8897 Q1053.19 64.0286 1053.19 54.671 M1071.95 26.1121 L1071.95 26.1121 Z" fill="#000000" fill-rule="evenodd" fill-opacity="1" /><path clip-path="url(#clip580)" d="M 0 0 M1136.72 45.1919 L1136.72 72.576 L1129.27 72.576 L1129.27 45.4349 Q1129.27 38.994 1126.75 35.7938 Q1124.24 32.5936 1119.22 32.5936 Q1113.18 32.5936 1109.7 36.4419 Q1106.22 40.2903 1106.22 46.9338 L1106.22 72.576 L1098.72 72.576 L1098.72 27.2059 L1106.22 27.2059 L1106.22 34.2544 Q1108.89 30.163 1112.5 28.1376 Q1116.14 26.1121 1120.88 26.1121 Q1128.7 26.1121 1132.71 30.9732 Q1136.72 35.7938 1136.72 45.1919 Z" fill="#000000" fill-rule="evenodd" fill-opacity="1" /><path clip-path="url(#clip580)" d="M 0 0 M1177.19 28.9478 L1177.19 35.9153 Q1174.03 34.1734 1170.83 33.3227 Q1167.67 32.4315 1164.43 32.4315 Q1157.18 32.4315 1153.17 37.0496 Q1149.16 41.6271 1149.16 49.9314 Q1149.16 58.2358 1153.17 62.8538 Q1157.18 67.4314 1164.43 67.4314 Q1167.67 67.4314 1170.83 66.5807 Q1174.03 65.6895 1177.19 63.9476 L1177.19 70.8341 Q1174.07 72.2924 1170.71 73.0216 Q1167.39 73.7508 1163.62 73.7508 Q1153.37 73.7508 1147.33 67.3098 Q1141.3 60.8689 1141.3 49.9314 Q1141.3 38.832 1147.37 32.472 Q1153.49 26.1121 1164.1 26.1121 Q1167.55 26.1121 1170.83 26.8413 Q1174.11 27.5299 1177.19 28.9478 Z" fill="#000000" fill-rule="evenodd" fill-opacity="1" /><path clip-path="url(#clip580)" d="M 0 0 M1192.38 14.324 L1192.38 27.2059 L1207.73 27.2059 L1207.73 32.9987 L1192.38 32.9987 L1192.38 57.6282 Q1192.38 63.1779 1193.88 64.7578 Q1195.42 66.3376 1200.08 66.3376 L1207.73 66.3376 L1207.73 72.576 L1200.08 72.576 Q1191.45 72.576 1188.17 69.3758 Q1184.89 66.1351 1184.89 57.6282 L1184.89 32.9987 L1179.42 32.9987 L1179.42 27.2059 L1184.89 27.2059 L1184.89 14.324 L1192.38 14.324 Z" fill="#000000" fill-rule="evenodd" fill-opacity="1" /><path clip-path="url(#clip580)" d="M 0 0 M1215.55 27.2059 L1223 27.2059 L1223 72.576 L1215.55 72.576 L1215.55 27.2059 M1215.55 9.54393 L1223 9.54393 L1223 18.9825 L1215.55 18.9825 L1215.55 9.54393 Z" fill="#000000" fill-rule="evenodd" fill-opacity="1" /><path clip-path="url(#clip580)" d="M 0 0 M1248.4 32.4315 Q1242.41 32.4315 1238.92 37.1306 Q1235.44 41.7891 1235.44 49.9314 Q1235.44 58.0738 1238.88 62.7728 Q1242.37 67.4314 1248.4 67.4314 Q1254.36 67.4314 1257.84 62.7323 Q1261.33 58.0333 1261.33 49.9314 Q1261.33 41.8701 1257.84 37.1711 Q1254.36 32.4315 1248.4 32.4315 M1248.4 26.1121 Q1258.13 26.1121 1263.68 32.4315 Q1269.22 38.7509 1269.22 49.9314 Q1269.22 61.0714 1263.68 67.4314 Q1258.13 73.7508 1248.4 73.7508 Q1238.64 73.7508 1233.09 67.4314 Q1227.58 61.0714 1227.58 49.9314 Q1227.58 38.7509 1233.09 32.4315 Q1238.64 26.1121 1248.4 26.1121 Z" fill="#000000" fill-rule="evenodd" fill-opacity="1" /><path clip-path="url(#clip580)" d="M 0 0 M1314.76 45.1919 L1314.76 72.576 L1307.3 72.576 L1307.3 45.4349 Q1307.3 38.994 1304.79 35.7938 Q1302.28 32.5936 1297.26 32.5936 Q1291.22 32.5936 1287.74 36.4419 Q1284.25 40.2903 1284.25 46.9338 L1284.25 72.576 L1276.76 72.576 L1276.76 27.2059 L1284.25 27.2059 L1284.25 34.2544 Q1286.93 30.163 1290.53 28.1376 Q1294.18 26.1121 1298.92 26.1121 Q1306.74 26.1121 1310.75 30.9732 Q1314.76 35.7938 1314.76 45.1919 Z" fill="#000000" fill-rule="evenodd" fill-opacity="1" /><path clip-path="url(#clip580)" d="M 0 0 M1366.53 32.4315 Q1360.53 32.4315 1357.05 37.1306 Q1353.56 41.7891 1353.56 49.9314 Q1353.56 58.0738 1357.01 62.7728 Q1360.49 67.4314 1366.53 67.4314 Q1372.48 67.4314 1375.97 62.7323 Q1379.45 58.0333 1379.45 49.9314 Q1379.45 41.8701 1375.97 37.1711 Q1372.48 32.4315 1366.53 32.4315 M1366.53 26.1121 Q1376.25 26.1121 1381.8 32.4315 Q1387.35 38.7509 1387.35 49.9314 Q1387.35 61.0714 1381.8 67.4314 Q1376.25 73.7508 1366.53 73.7508 Q1356.76 73.7508 1351.22 67.4314 Q1345.71 61.0714 1345.71 49.9314 Q1345.71 38.7509 1351.22 32.4315 Q1356.76 26.1121 1366.53 26.1121 Z" fill="#000000" fill-rule="evenodd" fill-opacity="1" /><path clip-path="url(#clip580)" d="M 0 0 M1418.14 9.54393 L1418.14 15.7418 L1411.01 15.7418 Q1407 15.7418 1405.42 17.3622 Q1403.88 18.9825 1403.88 23.1955 L1403.88 27.2059 L1416.15 27.2059 L1416.15 32.9987 L1403.88 32.9987 L1403.88 72.576 L1396.38 72.576 L1396.38 32.9987 L1389.25 32.9987 L1389.25 27.2059 L1396.38 27.2059 L1396.38 24.0462 Q1396.38 16.471 1399.91 13.0277 Q1403.43 9.54393 1411.09 9.54393 L1418.14 9.54393 Z" fill="#000000" fill-rule="evenodd" fill-opacity="1" /><path clip-path="url(#clip580)" d="M 0 0 M1482.18 34.0924 L1482.18 9.54393 L1489.63 9.54393 L1489.63 72.576 L1482.18 72.576 L1482.18 65.7705 Q1479.83 69.8214 1476.23 71.8063 Q1472.66 73.7508 1467.64 73.7508 Q1459.41 73.7508 1454.23 67.1883 Q1449.09 60.6258 1449.09 49.9314 Q1449.09 39.2371 1454.23 32.6746 Q1459.41 26.1121 1467.64 26.1121 Q1472.66 26.1121 1476.23 28.0971 Q1479.83 30.0415 1482.18 34.0924 M1456.78 49.9314 Q1456.78 58.1548 1460.14 62.8538 Q1463.55 67.5124 1469.46 67.5124 Q1475.38 67.5124 1478.78 62.8538 Q1482.18 58.1548 1482.18 49.9314 Q1482.18 41.7081 1478.78 37.0496 Q1475.38 32.3505 1469.46 32.3505 Q1463.55 32.3505 1460.14 37.0496 Q1456.78 41.7081 1456.78 49.9314 Z" fill="#000000" fill-rule="evenodd" fill-opacity="1" /><path clip-path="url(#clip580)" d="M 0 0 M1515.03 32.4315 Q1509.04 32.4315 1505.55 37.1306 Q1502.07 41.7891 1502.07 49.9314 Q1502.07 58.0738 1505.51 62.7728 Q1509 67.4314 1515.03 67.4314 Q1520.99 67.4314 1524.47 62.7323 Q1527.96 58.0333 1527.96 49.9314 Q1527.96 41.8701 1524.47 37.1711 Q1520.99 32.4315 1515.03 32.4315 M1515.03 26.1121 Q1524.76 26.1121 1530.31 32.4315 Q1535.86 38.7509 1535.86 49.9314 Q1535.86 61.0714 1530.31 67.4314 Q1524.76 73.7508 1515.03 73.7508 Q1505.27 73.7508 1499.72 67.4314 Q1494.21 61.0714 1494.21 49.9314 Q1494.21 38.7509 1499.72 32.4315 Q1505.27 26.1121 1515.03 26.1121 Z" fill="#000000" fill-rule="evenodd" fill-opacity="1" /><path clip-path="url(#clip580)" d="M 0 0 M1539.34 27.2059 L1546.79 27.2059 L1556.11 62.6108 L1565.39 27.2059 L1574.18 27.2059 L1583.49 62.6108 L1592.77 27.2059 L1600.22 27.2059 L1588.36 72.576 L1579.56 72.576 L1569.8 35.3887 L1560 72.576 L1551.21 72.576 L1539.34 27.2059 Z" fill="#000000" fill-rule="evenodd" fill-opacity="1" /><path clip-path="url(#clip580)" d="M 0 0 M1645.76 45.1919 L1645.76 72.576 L1638.3 72.576 L1638.3 45.4349 Q1638.3 38.994 1635.79 35.7938 Q1633.28 32.5936 1628.26 32.5936 Q1622.22 32.5936 1618.74 36.4419 Q1615.25 40.2903 1615.25 46.9338 L1615.25 72.576 L1607.76 72.576 L1607.76 27.2059 L1615.25 27.2059 L1615.25 34.2544 Q1617.93 30.163 1621.53 28.1376 Q1625.18 26.1121 1629.92 26.1121 Q1637.74 26.1121 1641.75 30.9732 Q1645.76 35.7938 1645.76 45.1919 Z" fill="#000000" fill-rule="evenodd" fill-opacity="1" /><path clip-path="url(#clip580)" d="M 0 0 M1649.24 27.2059 L1656.69 27.2059 L1666.01 62.6108 L1675.29 27.2059 L1684.08 27.2059 L1693.4 62.6108 L1702.67 27.2059 L1710.13 27.2059 L1698.26 72.576 L1689.47 72.576 L1679.7 35.3887 L1669.9 72.576 L1661.11 72.576 L1649.24 27.2059 Z" fill="#000000" fill-rule="evenodd" fill-opacity="1" /><path clip-path="url(#clip580)" d="M 0 0 M1717.94 27.2059 L1725.4 27.2059 L1725.4 72.576 L1717.94 72.576 L1717.94 27.2059 M1717.94 9.54393 L1725.4 9.54393 L1725.4 18.9825 L1717.94 18.9825 L1717.94 9.54393 Z" fill="#000000" fill-rule="evenodd" fill-opacity="1" /><path clip-path="url(#clip580)" d="M 0 0 M1770.93 45.1919 L1770.93 72.576 L1763.48 72.576 L1763.48 45.4349 Q1763.48 38.994 1760.96 35.7938 Q1758.45 32.5936 1753.43 32.5936 Q1747.39 32.5936 1743.91 36.4419 Q1740.43 40.2903 1740.43 46.9338 L1740.43 72.576 L1732.93 72.576 L1732.93 27.2059 L1740.43 27.2059 L1740.43 34.2544 Q1743.1 30.163 1746.71 28.1376 Q1750.35 26.1121 1755.09 26.1121 Q1762.91 26.1121 1766.92 30.9732 Q1770.93 35.7938 1770.93 45.1919 Z" fill="#000000" fill-rule="evenodd" fill-opacity="1" /><path clip-path="url(#clip580)" d="M 0 0 M1808.6 34.0924 L1808.6 9.54393 L1816.06 9.54393 L1816.06 72.576 L1808.6 72.576 L1808.6 65.7705 Q1806.25 69.8214 1802.65 71.8063 Q1799.08 73.7508 1794.06 73.7508 Q1785.84 73.7508 1780.65 67.1883 Q1775.51 60.6258 1775.51 49.9314 Q1775.51 39.2371 1780.65 32.6746 Q1785.84 26.1121 1794.06 26.1121 Q1799.08 26.1121 1802.65 28.0971 Q1806.25 30.0415 1808.6 34.0924 M1783.2 49.9314 Q1783.2 58.1548 1786.57 62.8538 Q1789.97 67.5124 1795.88 67.5124 Q1801.8 67.5124 1805.2 62.8538 Q1808.6 58.1548 1808.6 49.9314 Q1808.6 41.7081 1805.2 37.0496 Q1801.8 32.3505 1795.88 32.3505 Q1789.97 32.3505 1786.57 37.0496 Q1783.2 41.7081 1783.2 49.9314 Z" fill="#000000" fill-rule="evenodd" fill-opacity="1" /><path clip-path="url(#clip580)" d="M 0 0 M1880.1 34.0924 L1880.1 9.54393 L1887.55 9.54393 L1887.55 72.576 L1880.1 72.576 L1880.1 65.7705 Q1877.75 69.8214 1874.15 71.8063 Q1870.58 73.7508 1865.56 73.7508 Q1857.34 73.7508 1852.15 67.1883 Q1847.01 60.6258 1847.01 49.9314 Q1847.01 39.2371 1852.15 32.6746 Q1857.34 26.1121 1865.56 26.1121 Q1870.58 26.1121 1874.15 28.0971 Q1877.75 30.0415 1880.1 34.0924 M1854.7 49.9314 Q1854.7 58.1548 1858.06 62.8538 Q1861.47 67.5124 1867.38 67.5124 Q1873.3 67.5124 1876.7 62.8538 Q1880.1 58.1548 1880.1 49.9314 Q1880.1 41.7081 1876.7 37.0496 Q1873.3 32.3505 1867.38 32.3505 Q1861.47 32.3505 1858.06 37.0496 Q1854.7 41.7081 1854.7 49.9314 Z" fill="#000000" fill-rule="evenodd" fill-opacity="1" /><path clip-path="url(#clip580)" d="M 0 0 M1895.37 27.2059 L1902.83 27.2059 L1902.83 72.576 L1895.37 72.576 L1895.37 27.2059 M1895.37 9.54393 L1902.83 9.54393 L1902.83 18.9825 L1895.37 18.9825 L1895.37 9.54393 Z" fill="#000000" fill-rule="evenodd" fill-opacity="1" /><path clip-path="url(#clip580)" d="M 0 0 M1939.57 28.5427 L1939.57 35.5912 Q1936.41 33.9709 1933.01 33.1607 Q1929.6 32.3505 1925.96 32.3505 Q1920.41 32.3505 1917.61 34.0519 Q1914.86 35.7533 1914.86 39.156 Q1914.86 41.7486 1916.84 43.2475 Q1918.83 44.7058 1924.82 46.0426 L1927.38 46.6097 Q1935.32 48.3111 1938.64 51.4303 Q1942 54.509 1942 60.0587 Q1942 66.3781 1936.98 70.0644 Q1931.99 73.7508 1923.24 73.7508 Q1919.6 73.7508 1915.63 73.0216 Q1911.7 72.3329 1907.32 70.9151 L1907.32 63.2184 Q1911.46 65.3654 1915.47 66.4591 Q1919.48 67.5124 1923.41 67.5124 Q1928.67 67.5124 1931.51 65.73 Q1934.34 63.9071 1934.34 60.6258 Q1934.34 57.5877 1932.28 55.9673 Q1930.25 54.3469 1923.32 52.8481 L1920.73 52.2405 Q1913.8 50.7821 1910.73 47.7845 Q1907.65 44.7463 1907.65 39.4801 Q1907.65 33.0797 1912.18 29.5959 Q1916.72 26.1121 1925.07 26.1121 Q1929.2 26.1121 1932.84 26.7198 Q1936.49 27.3274 1939.57 28.5427 Z" fill="#000000" fill-rule="evenodd" fill-opacity="1" /><path clip-path="url(#clip580)" d="M 0 0 M1957.19 14.324 L1957.19 27.2059 L1972.54 27.2059 L1972.54 32.9987 L1957.19 32.9987 L1957.19 57.6282 Q1957.19 63.1779 1958.69 64.7578 Q1960.23 66.3376 1964.89 66.3376 L1972.54 66.3376 L1972.54 72.576 L1964.89 72.576 Q1956.26 72.576 1952.98 69.3758 Q1949.7 66.1351 1949.7 57.6282 L1949.7 32.9987 L1944.23 32.9987 L1944.23 27.2059 L1949.7 27.2059 L1949.7 14.324 L1957.19 14.324 Z" fill="#000000" fill-rule="evenodd" fill-opacity="1" /><path clip-path="url(#clip580)" d="M 0 0 M2000.98 49.7694 Q1991.95 49.7694 1988.46 51.8354 Q1984.98 53.9013 1984.98 58.8839 Q1984.98 62.8538 1987.57 65.2034 Q1990.2 67.5124 1994.7 67.5124 Q2000.9 67.5124 2004.63 63.1374 Q2008.39 58.7219 2008.39 51.4303 L2008.39 49.7694 L2000.98 49.7694 M2015.85 46.6907 L2015.85 72.576 L2008.39 72.576 L2008.39 65.6895 Q2005.84 69.8214 2002.03 71.8063 Q1998.23 73.7508 1992.72 73.7508 Q1985.75 73.7508 1981.62 69.8619 Q1977.53 65.9325 1977.53 59.3701 Q1977.53 51.7138 1982.63 47.825 Q1987.77 43.9361 1997.94 43.9361 L2008.39 43.9361 L2008.39 43.2069 Q2008.39 38.0623 2004.99 35.2672 Q2001.63 32.4315 1995.51 32.4315 Q1991.62 32.4315 1987.94 33.3632 Q1984.25 34.295 1980.85 36.1584 L1980.85 29.2718 Q1984.94 27.692 1988.79 26.9223 Q1992.64 26.1121 1996.28 26.1121 Q2006.12 26.1121 2010.99 31.2163 Q2015.85 36.3204 2015.85 46.6907 Z" fill="#000000" fill-rule="evenodd" fill-opacity="1" /><path clip-path="url(#clip580)" d="M 0 0 M2061.38 45.1919 L2061.38 72.576 L2053.93 72.576 L2053.93 45.4349 Q2053.93 38.994 2051.41 35.7938 Q2048.9 32.5936 2043.88 32.5936 Q2037.84 32.5936 2034.36 36.4419 Q2030.88 40.2903 2030.88 46.9338 L2030.88 72.576 L2023.38 72.576 L2023.38 27.2059 L2030.88 27.2059 L2030.88 34.2544 Q2033.55 30.163 2037.15 28.1376 Q2040.8 26.1121 2045.54 26.1121 Q2053.36 26.1121 2057.37 30.9732 Q2061.38 35.7938 2061.38 45.1919 Z" fill="#000000" fill-rule="evenodd" fill-opacity="1" /><path clip-path="url(#clip580)" d="M 0 0 M2101.85 28.9478 L2101.85 35.9153 Q2098.69 34.1734 2095.49 33.3227 Q2092.33 32.4315 2089.09 32.4315 Q2081.84 32.4315 2077.83 37.0496 Q2073.82 41.6271 2073.82 49.9314 Q2073.82 58.2358 2077.83 62.8538 Q2081.84 67.4314 2089.09 67.4314 Q2092.33 67.4314 2095.49 66.5807 Q2098.69 65.6895 2101.85 63.9476 L2101.85 70.8341 Q2098.73 72.2924 2095.37 73.0216 Q2092.04 73.7508 2088.28 73.7508 Q2078.03 73.7508 2071.99 67.3098 Q2065.96 60.8689 2065.96 49.9314 Q2065.96 38.832 2072.03 32.472 Q2078.15 26.1121 2088.76 26.1121 Q2092.21 26.1121 2095.49 26.8413 Q2098.77 27.5299 2101.85 28.9478 Z" fill="#000000" fill-rule="evenodd" fill-opacity="1" /><path clip-path="url(#clip580)" d="M 0 0 M2148.47 48.0275 L2148.47 51.6733 L2114.2 51.6733 Q2114.69 59.3701 2118.82 63.421 Q2122.99 67.4314 2130.41 67.4314 Q2134.7 67.4314 2138.71 66.3781 Q2142.76 65.3249 2146.73 63.2184 L2146.73 70.267 Q2142.72 71.9684 2138.51 72.8596 Q2134.3 73.7508 2129.96 73.7508 Q2119.1 73.7508 2112.74 67.4314 Q2106.43 61.1119 2106.43 50.3365 Q2106.43 39.1965 2112.42 32.6746 Q2118.46 26.1121 2128.66 26.1121 Q2137.82 26.1121 2143.13 32.0264 Q2148.47 37.9003 2148.47 48.0275 M2141.02 45.84 Q2140.94 39.7232 2137.58 36.0774 Q2134.26 32.4315 2128.75 32.4315 Q2122.51 32.4315 2118.74 35.9558 Q2115.01 39.4801 2114.45 45.8805 L2141.02 45.84 Z" fill="#000000" fill-rule="evenodd" fill-opacity="1" /><polyline clip-path="url(#clip582)" style="stroke:#009af9; stroke-width:4; stroke-opacity:1; fill:none" points="
  285.09,1293.21 305.164,1057.53 325.238,919.09 345.313,802.974 365.387,699.332 385.462,604.076 405.536,515.01 425.611,430.783 445.685,350.488 465.759,273.48 
  485.834,261.573 505.908,261.573 525.983,261.573 546.057,261.573 566.132,261.573 586.206,261.573 606.28,261.573 626.355,261.573 646.429,261.573 666.504,261.573 
  686.578,261.573 706.653,261.573 726.727,261.573 746.801,261.573 766.876,261.573 786.95,261.573 807.025,261.573 827.099,261.573 847.174,261.573 867.248,261.573 
  887.322,261.573 907.397,261.573 927.471,261.573 947.546,261.573 967.62,261.573 987.695,261.573 1007.77,261.573 1027.84,261.573 1047.92,261.573 1067.99,261.573 
  1088.07,261.573 1108.14,261.573 1128.22,261.573 1148.29,261.573 1168.36,261.573 1188.44,261.573 1208.51,261.573 1228.59,261.573 1248.66,261.573 1268.74,261.573 
  1288.81,261.573 1308.89,261.573 1328.96,261.573 1349.03,261.573 1369.11,261.573 1389.18,261.573 1409.26,261.573 1429.33,261.573 1449.41,261.573 1469.48,261.573 
  1489.56,261.573 1509.63,261.573 1529.7,261.573 1549.78,261.573 1569.85,261.573 1589.93,261.573 1610,261.573 1630.08,261.573 1650.15,261.573 1670.23,261.573 
  1690.3,261.573 1710.37,261.573 1730.45,261.573 1750.52,261.573 1770.6,261.573 1790.67,261.573 1810.75,261.573 1830.82,261.573 1850.9,261.573 1870.97,261.573 
  1891.04,261.573 1911.12,261.573 1931.19,261.573 1951.27,261.573 1971.34,261.573 1991.42,261.573 2011.49,261.573 2031.57,261.573 2051.64,261.573 2071.71,261.573 
  2091.79,261.573 2111.86,261.573 2131.94,261.573 2152.01,261.573 2172.09,261.573 2192.16,261.573 2212.23,261.573 2232.31,261.573 2252.38,261.573 2272.46,261.573 
  2292.53,261.573 
  "/>
<circle clip-path="url(#clip582)" cx="285.09" cy="1293.21" r="14" fill="#e26f46" fill-rule="evenodd" fill-opacity="1" stroke="#000000" stroke-opacity="1" stroke-width="3.2"/>
<path clip-path="url(#clip580)" d="
M1647.9 803.566 L2281.83 803.566 L2281.83 682.606 L1647.9 682.606  Z
  " fill="#ffffff" fill-rule="evenodd" fill-opacity="1"/>
<polyline clip-path="url(#clip580)" style="stroke:#000000; stroke-width:4; stroke-opacity:1; fill:none" points="
  1647.9,803.566 2281.83,803.566 2281.83,682.606 1647.9,682.606 1647.9,803.566 
  "/>
<circle clip-path="url(#clip580)" cx="1742.47" cy="743.086" r="23" fill="#e26f46" fill-rule="evenodd" fill-opacity="1" stroke="#000000" stroke-opacity="1" stroke-width="5.12"/>
<path clip-path="url(#clip580)" d="M 0 0 M1850.44 747.334 Q1845.28 747.334 1843.29 748.514 Q1841.3 749.695 1841.3 752.542 Q1841.3 754.81 1842.78 756.153 Q1844.29 757.472 1846.86 757.472 Q1850.4 757.472 1852.53 754.972 Q1854.68 752.449 1854.68 748.283 L1854.68 747.334 L1850.44 747.334 M1858.94 745.574 L1858.94 760.366 L1854.68 760.366 L1854.68 756.431 Q1853.22 758.792 1851.05 759.926 Q1848.87 761.037 1845.72 761.037 Q1841.74 761.037 1839.38 758.815 Q1837.04 756.57 1837.04 752.82 Q1837.04 748.445 1839.96 746.223 Q1842.9 744 1848.71 744 L1854.68 744 L1854.68 743.584 Q1854.68 740.644 1852.74 739.047 Q1850.82 737.426 1847.32 737.426 Q1845.1 737.426 1842.99 737.959 Q1840.88 738.491 1838.94 739.556 L1838.94 735.621 Q1841.28 734.718 1843.48 734.278 Q1845.68 733.815 1847.76 733.815 Q1853.38 733.815 1856.16 736.732 Q1858.94 739.649 1858.94 745.574 Z" fill="#000000" fill-rule="evenodd" fill-opacity="1" /><path clip-path="url(#clip580)" d="M 0 0 M1882.06 735.436 L1882.06 739.417 Q1880.26 738.422 1878.43 737.936 Q1876.63 737.426 1874.77 737.426 Q1870.63 737.426 1868.34 740.065 Q1866.05 742.681 1866.05 747.426 Q1866.05 752.172 1868.34 754.81 Q1870.63 757.426 1874.77 757.426 Q1876.63 757.426 1878.43 756.94 Q1880.26 756.431 1882.06 755.435 L1882.06 759.371 Q1880.28 760.204 1878.36 760.621 Q1876.46 761.037 1874.31 761.037 Q1868.45 761.037 1865 757.357 Q1861.56 753.676 1861.56 747.426 Q1861.56 741.084 1865.03 737.449 Q1868.52 733.815 1874.59 733.815 Q1876.56 733.815 1878.43 734.232 Q1880.31 734.625 1882.06 735.436 Z" fill="#000000" fill-rule="evenodd" fill-opacity="1" /><path clip-path="url(#clip580)" d="M 0 0 M1890.75 727.079 L1890.75 734.44 L1899.52 734.44 L1899.52 737.75 L1890.75 737.75 L1890.75 751.824 Q1890.75 754.996 1891.6 755.898 Q1892.48 756.801 1895.14 756.801 L1899.52 756.801 L1899.52 760.366 L1895.14 760.366 Q1890.21 760.366 1888.34 758.537 Q1886.46 756.685 1886.46 751.824 L1886.46 737.75 L1883.34 737.75 L1883.34 734.44 L1886.46 734.44 L1886.46 727.079 L1890.75 727.079 Z" fill="#000000" fill-rule="evenodd" fill-opacity="1" /><path clip-path="url(#clip580)" d="M 0 0 M1903.55 750.135 L1903.55 734.44 L1907.81 734.44 L1907.81 749.973 Q1907.81 753.653 1909.24 755.505 Q1910.68 757.334 1913.55 757.334 Q1917 757.334 1918.99 755.135 Q1921 752.935 1921 749.139 L1921 734.44 L1925.26 734.44 L1925.26 760.366 L1921 760.366 L1921 756.385 Q1919.45 758.746 1917.39 759.903 Q1915.35 761.037 1912.64 761.037 Q1908.18 761.037 1905.86 758.26 Q1903.55 755.482 1903.55 750.135 M1914.26 733.815 L1914.26 733.815 Z" fill="#000000" fill-rule="evenodd" fill-opacity="1" /><path clip-path="url(#clip580)" d="M 0 0 M1941.51 747.334 Q1936.35 747.334 1934.36 748.514 Q1932.37 749.695 1932.37 752.542 Q1932.37 754.81 1933.85 756.153 Q1935.35 757.472 1937.92 757.472 Q1941.46 757.472 1943.59 754.972 Q1945.75 752.449 1945.75 748.283 L1945.75 747.334 L1941.51 747.334 M1950 745.574 L1950 760.366 L1945.75 760.366 L1945.75 756.431 Q1944.29 758.792 1942.11 759.926 Q1939.93 761.037 1936.79 761.037 Q1932.81 761.037 1930.44 758.815 Q1928.11 756.57 1928.11 752.82 Q1928.11 748.445 1931.02 746.223 Q1933.96 744 1939.77 744 L1945.75 744 L1945.75 743.584 Q1945.75 740.644 1943.8 739.047 Q1941.88 737.426 1938.38 737.426 Q1936.16 737.426 1934.06 737.959 Q1931.95 738.491 1930 739.556 L1930 735.621 Q1932.34 734.718 1934.54 734.278 Q1936.74 733.815 1938.82 733.815 Q1944.45 733.815 1947.23 736.732 Q1950 739.649 1950 745.574 Z" fill="#000000" fill-rule="evenodd" fill-opacity="1" /><path clip-path="url(#clip580)" d="M 0 0 M1954.47 724.348 L1958.73 724.348 L1958.73 760.366 L1954.47 760.366 L1954.47 724.348 Z" fill="#000000" fill-rule="evenodd" fill-opacity="1" /><path clip-path="url(#clip580)" d="M 0 0 M1994.8 735.204 L1994.8 739.232 Q1992.99 738.306 1991.05 737.843 Q1989.1 737.38 1987.02 737.38 Q1983.85 737.38 1982.25 738.352 Q1980.68 739.324 1980.68 741.269 Q1980.68 742.75 1981.81 743.607 Q1982.94 744.44 1986.37 745.204 L1987.83 745.528 Q1992.37 746.5 1994.26 748.283 Q1996.18 750.042 1996.18 753.213 Q1996.18 756.824 1993.31 758.931 Q1990.47 761.037 1985.47 761.037 Q1983.38 761.037 1981.12 760.621 Q1978.87 760.227 1976.37 759.417 L1976.37 755.019 Q1978.73 756.246 1981.02 756.871 Q1983.31 757.472 1985.56 757.472 Q1988.57 757.472 1990.19 756.454 Q1991.81 755.412 1991.81 753.537 Q1991.81 751.801 1990.63 750.875 Q1989.47 749.949 1985.51 749.093 L1984.03 748.746 Q1980.07 747.912 1978.31 746.199 Q1976.56 744.463 1976.56 741.454 Q1976.56 737.797 1979.15 735.806 Q1981.74 733.815 1986.51 733.815 Q1988.87 733.815 1990.95 734.162 Q1993.04 734.51 1994.8 735.204 Z" fill="#000000" fill-rule="evenodd" fill-opacity="1" /><path clip-path="url(#clip580)" d="M 0 0 M2004.87 727.079 L2004.87 734.44 L2013.64 734.44 L2013.64 737.75 L2004.87 737.75 L2004.87 751.824 Q2004.87 754.996 2005.72 755.898 Q2006.6 756.801 2009.26 756.801 L2013.64 756.801 L2013.64 760.366 L2009.26 760.366 Q2004.33 760.366 2002.46 758.537 Q2000.58 756.685 2000.58 751.824 L2000.58 737.75 L1997.46 737.75 L1997.46 734.44 L2000.58 734.44 L2000.58 727.079 L2004.87 727.079 Z" fill="#000000" fill-rule="evenodd" fill-opacity="1" /><path clip-path="url(#clip580)" d="M 0 0 M2029.89 747.334 Q2024.73 747.334 2022.74 748.514 Q2020.74 749.695 2020.74 752.542 Q2020.74 754.81 2022.23 756.153 Q2023.73 757.472 2026.3 757.472 Q2029.84 757.472 2031.97 754.972 Q2034.12 752.449 2034.12 748.283 L2034.12 747.334 L2029.89 747.334 M2038.38 745.574 L2038.38 760.366 L2034.12 760.366 L2034.12 756.431 Q2032.67 758.792 2030.49 759.926 Q2028.31 761.037 2025.17 761.037 Q2021.18 761.037 2018.82 758.815 Q2016.49 756.57 2016.49 752.82 Q2016.49 748.445 2019.4 746.223 Q2022.34 744 2028.15 744 L2034.12 744 L2034.12 743.584 Q2034.12 740.644 2032.18 739.047 Q2030.26 737.426 2026.76 737.426 Q2024.54 737.426 2022.43 737.959 Q2020.33 738.491 2018.38 739.556 L2018.38 735.621 Q2020.72 734.718 2022.92 734.278 Q2025.12 733.815 2027.2 733.815 Q2032.83 733.815 2035.61 736.732 Q2038.38 739.649 2038.38 745.574 Z" fill="#000000" fill-rule="evenodd" fill-opacity="1" /><path clip-path="url(#clip580)" d="M 0 0 M2061.51 735.436 L2061.51 739.417 Q2059.7 738.422 2057.87 737.936 Q2056.07 737.426 2054.22 737.426 Q2050.07 737.426 2047.78 740.065 Q2045.49 742.681 2045.49 747.426 Q2045.49 752.172 2047.78 754.81 Q2050.07 757.426 2054.22 757.426 Q2056.07 757.426 2057.87 756.94 Q2059.7 756.431 2061.51 755.435 L2061.51 759.371 Q2059.73 760.204 2057.8 760.621 Q2055.91 761.037 2053.75 761.037 Q2047.9 761.037 2044.45 757.357 Q2041 753.676 2041 747.426 Q2041 741.084 2044.47 737.449 Q2047.97 733.815 2054.03 733.815 Q2056 733.815 2057.87 734.232 Q2059.75 734.625 2061.51 735.436 Z" fill="#000000" fill-rule="evenodd" fill-opacity="1" /><path clip-path="url(#clip580)" d="M 0 0 M2065.81 724.348 L2070.1 724.348 L2070.1 745.621 L2082.8 734.44 L2088.24 734.44 L2074.49 746.57 L2088.82 760.366 L2083.27 760.366 L2070.1 747.704 L2070.1 760.366 L2065.81 760.366 L2065.81 724.348 Z" fill="#000000" fill-rule="evenodd" fill-opacity="1" /><path clip-path="url(#clip580)" d="M 0 0 M2129.91 744.718 L2129.91 760.366 L2125.65 760.366 L2125.65 744.857 Q2125.65 741.176 2124.22 739.348 Q2122.78 737.519 2119.91 737.519 Q2116.46 737.519 2114.47 739.718 Q2112.48 741.917 2112.48 745.713 L2112.48 760.366 L2108.2 760.366 L2108.2 724.348 L2112.48 724.348 L2112.48 738.468 Q2114.01 736.13 2116.07 734.973 Q2118.15 733.815 2120.86 733.815 Q2125.33 733.815 2127.62 736.593 Q2129.91 739.348 2129.91 744.718 Z" fill="#000000" fill-rule="evenodd" fill-opacity="1" /><path clip-path="url(#clip580)" d="M 0 0 M2156.55 746.338 L2156.55 748.422 L2136.97 748.422 Q2137.25 752.82 2139.61 755.135 Q2141.99 757.426 2146.23 757.426 Q2148.68 757.426 2150.98 756.824 Q2153.29 756.222 2155.56 755.019 L2155.56 759.047 Q2153.27 760.019 2150.86 760.528 Q2148.45 761.037 2145.98 761.037 Q2139.77 761.037 2136.14 757.426 Q2132.53 753.815 2132.53 747.658 Q2132.53 741.292 2135.95 737.565 Q2139.4 733.815 2145.23 733.815 Q2150.47 733.815 2153.5 737.195 Q2156.55 740.551 2156.55 746.338 M2152.29 745.088 Q2152.25 741.593 2150.33 739.51 Q2148.43 737.426 2145.28 737.426 Q2141.72 737.426 2139.56 739.44 Q2137.43 741.454 2137.11 745.111 L2152.29 745.088 Z" fill="#000000" fill-rule="evenodd" fill-opacity="1" /><path clip-path="url(#clip580)" d="M 0 0 M2161.02 734.44 L2165.28 734.44 L2165.28 760.366 L2161.02 760.366 L2161.02 734.44 M2161.02 724.348 L2165.28 724.348 L2165.28 729.741 L2161.02 729.741 L2161.02 724.348 Z" fill="#000000" fill-rule="evenodd" fill-opacity="1" /><path clip-path="url(#clip580)" d="M 0 0 M2186.81 747.102 Q2186.81 742.473 2184.89 739.926 Q2182.99 737.38 2179.54 737.38 Q2176.11 737.38 2174.19 739.926 Q2172.29 742.473 2172.29 747.102 Q2172.29 751.709 2174.19 754.255 Q2176.11 756.801 2179.54 756.801 Q2182.99 756.801 2184.89 754.255 Q2186.81 751.709 2186.81 747.102 M2191.07 757.148 Q2191.07 763.769 2188.13 766.986 Q2185.19 770.227 2179.12 770.227 Q2176.88 770.227 2174.89 769.88 Q2172.9 769.556 2171.02 768.861 L2171.02 764.718 Q2172.9 765.736 2174.73 766.222 Q2176.55 766.709 2178.45 766.709 Q2182.64 766.709 2184.73 764.509 Q2186.81 762.334 2186.81 757.912 L2186.81 755.806 Q2185.49 758.097 2183.43 759.232 Q2181.37 760.366 2178.5 760.366 Q2173.73 760.366 2170.81 756.732 Q2167.9 753.098 2167.9 747.102 Q2167.9 741.084 2170.81 737.449 Q2173.73 733.815 2178.5 733.815 Q2181.37 733.815 2183.43 734.949 Q2185.49 736.084 2186.81 738.375 L2186.81 734.44 L2191.07 734.44 L2191.07 757.148 Z" fill="#000000" fill-rule="evenodd" fill-opacity="1" /><path clip-path="url(#clip580)" d="M 0 0 M2217.09 744.718 L2217.09 760.366 L2212.83 760.366 L2212.83 744.857 Q2212.83 741.176 2211.39 739.348 Q2209.96 737.519 2207.09 737.519 Q2203.64 737.519 2201.65 739.718 Q2199.66 741.917 2199.66 745.713 L2199.66 760.366 L2195.37 760.366 L2195.37 724.348 L2199.66 724.348 L2199.66 738.468 Q2201.18 736.13 2203.24 734.973 Q2205.33 733.815 2208.04 733.815 Q2212.5 733.815 2214.79 736.593 Q2217.09 739.348 2217.09 744.718 Z" fill="#000000" fill-rule="evenodd" fill-opacity="1" /><path clip-path="url(#clip580)" d="M 0 0 M2225.77 727.079 L2225.77 734.44 L2234.54 734.44 L2234.54 737.75 L2225.77 737.75 L2225.77 751.824 Q2225.77 754.996 2226.62 755.898 Q2227.5 756.801 2230.16 756.801 L2234.54 756.801 L2234.54 760.366 L2230.16 760.366 Q2225.23 760.366 2223.36 758.537 Q2221.48 756.685 2221.48 751.824 L2221.48 737.75 L2218.36 737.75 L2218.36 734.44 L2221.48 734.44 L2221.48 727.079 L2225.77 727.079 Z" fill="#000000" fill-rule="evenodd" fill-opacity="1" /></svg>
