<?xml version="1.0" encoding="utf-8"?>
<svg xmlns="http://www.w3.org/2000/svg" xmlns:xlink="http://www.w3.org/1999/xlink" width="600" height="400" viewBox="0 0 2400 1600">
<defs>
  <clipPath id="clip300">
    <rect x="0" y="0" width="2400" height="1600"/>
  </clipPath>
</defs>
<path clip-path="url(#clip300)" d="
M0 1600 L2400 1600 L2400 0 L0 0  Z
  " fill="#ffffff" fill-rule="evenodd" fill-opacity="1"/>
<defs>
  <clipPath id="clip301">
    <rect x="480" y="0" width="1681" height="1600"/>
  </clipPath>
</defs>
<path clip-path="url(#clip300)" d="
M200.028 1423.18 L2352.76 1423.18 L2352.76 183.952 L200.028 183.952  Z
  " fill="#ffffff" fill-rule="evenodd" fill-opacity="1"/>
<defs>
  <clipPath id="clip302">
    <rect x="200" y="183" width="2154" height="1240"/>
  </clipPath>
</defs>
<polyline clip-path="url(#clip302)" style="stroke:#000000; stroke-width:2; stroke-opacity:0.1; fill:none" points="
  260.955,1423.18 260.955,183.952 
  "/>
<polyline clip-path="url(#clip302)" style="stroke:#000000; stroke-width:2; stroke-opacity:0.1; fill:none" points="
  768.673,1423.18 768.673,183.952 
  "/>
<polyline clip-path="url(#clip302)" style="stroke:#000000; stroke-width:2; stroke-opacity:0.1; fill:none" points="
  1276.39,1423.18 1276.39,183.952 
  "/>
<polyline clip-path="url(#clip302)" style="stroke:#000000; stroke-width:2; stroke-opacity:0.1; fill:none" points="
  1784.11,1423.18 1784.11,183.952 
  "/>
<polyline clip-path="url(#clip302)" style="stroke:#000000; stroke-width:2; stroke-opacity:0.1; fill:none" points="
  2291.83,1423.18 2291.83,183.952 
  "/>
<polyline clip-path="url(#clip300)" style="stroke:#000000; stroke-width:4; stroke-opacity:1; fill:none" points="
  200.028,1423.18 2352.76,1423.18 
  "/>
<polyline clip-path="url(#clip300)" style="stroke:#000000; stroke-width:4; stroke-opacity:1; fill:none" points="
  260.955,1423.18 260.955,1408.31 
  "/>
<polyline clip-path="url(#clip300)" style="stroke:#000000; stroke-width:4; stroke-opacity:1; fill:none" points="
  768.673,1423.18 768.673,1408.31 
  "/>
<polyline clip-path="url(#clip300)" style="stroke:#000000; stroke-width:4; stroke-opacity:1; fill:none" points="
  1276.39,1423.18 1276.39,1408.31 
  "/>
<polyline clip-path="url(#clip300)" style="stroke:#000000; stroke-width:4; stroke-opacity:1; fill:none" points="
  1784.11,1423.18 1784.11,1408.31 
  "/>
<polyline clip-path="url(#clip300)" style="stroke:#000000; stroke-width:4; stroke-opacity:1; fill:none" points="
  2291.83,1423.18 2291.83,1408.31 
  "/>
<path clip-path="url(#clip300)" d="M 0 0 M260.955 1452.37 Q257.344 1452.37 255.515 1455.94 Q253.709 1459.48 253.709 1466.61 Q253.709 1473.71 255.515 1477.28 Q257.344 1480.82 260.955 1480.82 Q264.589 1480.82 266.394 1477.28 Q268.223 1473.71 268.223 1466.61 Q268.223 1459.48 266.394 1455.94 Q264.589 1452.37 260.955 1452.37 M260.955 1448.67 Q266.765 1448.67 269.82 1453.27 Q272.899 1457.86 272.899 1466.61 Q272.899 1475.33 269.82 1479.94 Q266.765 1484.52 260.955 1484.52 Q255.145 1484.52 252.066 1479.94 Q249.01 1475.33 249.01 1466.61 Q249.01 1457.86 252.066 1453.27 Q255.145 1448.67 260.955 1448.67 Z" fill="#000000" fill-rule="evenodd" fill-opacity="1" /><path clip-path="url(#clip300)" d="M 0 0 M736.81 1479.92 L753.13 1479.92 L753.13 1483.85 L731.185 1483.85 L731.185 1479.92 Q733.847 1477.16 738.431 1472.53 Q743.037 1467.88 744.218 1466.54 Q746.463 1464.01 747.343 1462.28 Q748.245 1460.52 748.245 1458.83 Q748.245 1456.07 746.301 1454.34 Q744.38 1452.6 741.278 1452.6 Q739.079 1452.6 736.625 1453.37 Q734.194 1454.13 731.417 1455.68 L731.417 1450.96 Q734.241 1449.82 736.694 1449.25 Q739.148 1448.67 741.185 1448.67 Q746.555 1448.67 749.75 1451.35 Q752.944 1454.04 752.944 1458.53 Q752.944 1460.66 752.134 1462.58 Q751.347 1464.48 749.241 1467.07 Q748.662 1467.74 745.56 1470.96 Q742.458 1474.15 736.81 1479.92 Z" fill="#000000" fill-rule="evenodd" fill-opacity="1" /><path clip-path="url(#clip300)" d="M 0 0 M758.245 1449.29 L776.602 1449.29 L776.602 1453.23 L762.528 1453.23 L762.528 1461.7 Q763.546 1461.35 764.565 1461.19 Q765.583 1461 766.602 1461 Q772.389 1461 775.768 1464.18 Q779.148 1467.35 779.148 1472.76 Q779.148 1478.34 775.676 1481.44 Q772.203 1484.52 765.884 1484.52 Q763.708 1484.52 761.44 1484.15 Q759.194 1483.78 756.787 1483.04 L756.787 1478.34 Q758.87 1479.48 761.092 1480.03 Q763.315 1480.59 765.791 1480.59 Q769.796 1480.59 772.134 1478.48 Q774.472 1476.38 774.472 1472.76 Q774.472 1469.15 772.134 1467.05 Q769.796 1464.94 765.791 1464.94 Q763.916 1464.94 762.041 1465.36 Q760.19 1465.77 758.245 1466.65 L758.245 1449.29 Z" fill="#000000" fill-rule="evenodd" fill-opacity="1" /><path clip-path="url(#clip300)" d="M 0 0 M794.217 1452.37 Q790.606 1452.37 788.777 1455.94 Q786.972 1459.48 786.972 1466.61 Q786.972 1473.71 788.777 1477.28 Q790.606 1480.82 794.217 1480.82 Q797.851 1480.82 799.657 1477.28 Q801.486 1473.71 801.486 1466.61 Q801.486 1459.48 799.657 1455.94 Q797.851 1452.37 794.217 1452.37 M794.217 1448.67 Q800.027 1448.67 803.083 1453.27 Q806.162 1457.86 806.162 1466.61 Q806.162 1475.33 803.083 1479.94 Q800.027 1484.52 794.217 1484.52 Q788.407 1484.52 785.328 1479.94 Q782.273 1475.33 782.273 1466.61 Q782.273 1457.86 785.328 1453.27 Q788.407 1448.67 794.217 1448.67 Z" fill="#000000" fill-rule="evenodd" fill-opacity="1" /><path clip-path="url(#clip300)" d="M 0 0 M1239.66 1449.29 L1258.01 1449.29 L1258.01 1453.23 L1243.94 1453.23 L1243.94 1461.7 Q1244.96 1461.35 1245.98 1461.19 Q1246.99 1461 1248.01 1461 Q1253.8 1461 1257.18 1464.18 Q1260.56 1467.35 1260.56 1472.76 Q1260.56 1478.34 1257.09 1481.44 Q1253.61 1484.52 1247.3 1484.52 Q1245.12 1484.52 1242.85 1484.15 Q1240.61 1483.78 1238.2 1483.04 L1238.2 1478.34 Q1240.28 1479.48 1242.5 1480.03 Q1244.73 1480.59 1247.2 1480.59 Q1251.21 1480.59 1253.55 1478.48 Q1255.88 1476.38 1255.88 1472.76 Q1255.88 1469.15 1253.55 1467.05 Q1251.21 1464.94 1247.2 1464.94 Q1245.33 1464.94 1243.45 1465.36 Q1241.6 1465.77 1239.66 1466.65 L1239.66 1449.29 Z" fill="#000000" fill-rule="evenodd" fill-opacity="1" /><path clip-path="url(#clip300)" d="M 0 0 M1275.63 1452.37 Q1272.02 1452.37 1270.19 1455.94 Q1268.38 1459.48 1268.38 1466.61 Q1268.38 1473.71 1270.19 1477.28 Q1272.02 1480.82 1275.63 1480.82 Q1279.26 1480.82 1281.07 1477.28 Q1282.9 1473.71 1282.9 1466.61 Q1282.9 1459.48 1281.07 1455.94 Q1279.26 1452.37 1275.63 1452.37 M1275.63 1448.67 Q1281.44 1448.67 1284.49 1453.27 Q1287.57 1457.86 1287.57 1466.61 Q1287.57 1475.33 1284.49 1479.94 Q1281.44 1484.52 1275.63 1484.52 Q1269.82 1484.52 1266.74 1479.94 Q1263.68 1475.33 1263.68 1466.61 Q1263.68 1457.86 1266.74 1453.27 Q1269.82 1448.67 1275.63 1448.67 Z" fill="#000000" fill-rule="evenodd" fill-opacity="1" /><path clip-path="url(#clip300)" d="M 0 0 M1302.64 1452.37 Q1299.03 1452.37 1297.2 1455.94 Q1295.4 1459.48 1295.4 1466.61 Q1295.4 1473.71 1297.2 1477.28 Q1299.03 1480.82 1302.64 1480.82 Q1306.28 1480.82 1308.08 1477.28 Q1309.91 1473.71 1309.91 1466.61 Q1309.91 1459.48 1308.08 1455.94 Q1306.28 1452.37 1302.64 1452.37 M1302.64 1448.67 Q1308.45 1448.67 1311.51 1453.27 Q1314.59 1457.86 1314.59 1466.61 Q1314.59 1475.33 1311.51 1479.94 Q1308.45 1484.52 1302.64 1484.52 Q1296.83 1484.52 1293.75 1479.94 Q1290.7 1475.33 1290.7 1466.61 Q1290.7 1457.86 1293.75 1453.27 Q1296.83 1448.67 1302.64 1448.67 Z" fill="#000000" fill-rule="evenodd" fill-opacity="1" /><path clip-path="url(#clip300)" d="M 0 0 M1746.48 1449.29 L1768.71 1449.29 L1768.71 1451.28 L1756.16 1483.85 L1751.28 1483.85 L1763.08 1453.23 L1746.48 1453.23 L1746.48 1449.29 Z" fill="#000000" fill-rule="evenodd" fill-opacity="1" /><path clip-path="url(#clip300)" d="M 0 0 M1773.82 1449.29 L1792.18 1449.29 L1792.18 1453.23 L1778.1 1453.23 L1778.1 1461.7 Q1779.12 1461.35 1780.14 1461.19 Q1781.16 1461 1782.18 1461 Q1787.97 1461 1791.34 1464.18 Q1794.72 1467.35 1794.72 1472.76 Q1794.72 1478.34 1791.25 1481.44 Q1787.78 1484.52 1781.46 1484.52 Q1779.28 1484.52 1777.02 1484.15 Q1774.77 1483.78 1772.36 1483.04 L1772.36 1478.34 Q1774.45 1479.48 1776.67 1480.03 Q1778.89 1480.59 1781.37 1480.59 Q1785.37 1480.59 1787.71 1478.48 Q1790.05 1476.38 1790.05 1472.76 Q1790.05 1469.15 1787.71 1467.05 Q1785.37 1464.94 1781.37 1464.94 Q1779.49 1464.94 1777.62 1465.36 Q1775.77 1465.77 1773.82 1466.65 L1773.82 1449.29 Z" fill="#000000" fill-rule="evenodd" fill-opacity="1" /><path clip-path="url(#clip300)" d="M 0 0 M1809.79 1452.37 Q1806.18 1452.37 1804.35 1455.94 Q1802.55 1459.48 1802.55 1466.61 Q1802.55 1473.71 1804.35 1477.28 Q1806.18 1480.82 1809.79 1480.82 Q1813.43 1480.82 1815.23 1477.28 Q1817.06 1473.71 1817.06 1466.61 Q1817.06 1459.48 1815.23 1455.94 Q1813.43 1452.37 1809.79 1452.37 M1809.79 1448.67 Q1815.6 1448.67 1818.66 1453.27 Q1821.74 1457.86 1821.74 1466.61 Q1821.74 1475.33 1818.66 1479.94 Q1815.6 1484.52 1809.79 1484.52 Q1803.98 1484.52 1800.9 1479.94 Q1797.85 1475.33 1797.85 1466.61 Q1797.85 1457.86 1800.9 1453.27 Q1803.98 1448.67 1809.79 1448.67 Z" fill="#000000" fill-rule="evenodd" fill-opacity="1" /><path clip-path="url(#clip300)" d="M 0 0 M2241.69 1479.92 L2249.33 1479.92 L2249.33 1453.55 L2241.02 1455.22 L2241.02 1450.96 L2249.28 1449.29 L2253.96 1449.29 L2253.96 1479.92 L2261.6 1479.92 L2261.6 1483.85 L2241.69 1483.85 L2241.69 1479.92 Z" fill="#000000" fill-rule="evenodd" fill-opacity="1" /><path clip-path="url(#clip300)" d="M 0 0 M2276.67 1452.37 Q2273.06 1452.37 2271.23 1455.94 Q2269.42 1459.48 2269.42 1466.61 Q2269.42 1473.71 2271.23 1477.28 Q2273.06 1480.82 2276.67 1480.82 Q2280.3 1480.82 2282.11 1477.28 Q2283.94 1473.71 2283.94 1466.61 Q2283.94 1459.48 2282.11 1455.94 Q2280.3 1452.37 2276.67 1452.37 M2276.67 1448.67 Q2282.48 1448.67 2285.53 1453.27 Q2288.61 1457.86 2288.61 1466.61 Q2288.61 1475.33 2285.53 1479.94 Q2282.48 1484.52 2276.67 1484.52 Q2270.86 1484.52 2267.78 1479.94 Q2264.72 1475.33 2264.72 1466.61 Q2264.72 1457.86 2267.78 1453.27 Q2270.86 1448.67 2276.67 1448.67 Z" fill="#000000" fill-rule="evenodd" fill-opacity="1" /><path clip-path="url(#clip300)" d="M 0 0 M2303.68 1452.37 Q2300.07 1452.37 2298.24 1455.94 Q2296.44 1459.48 2296.44 1466.61 Q2296.44 1473.71 2298.24 1477.28 Q2300.07 1480.82 2303.68 1480.82 Q2307.32 1480.82 2309.12 1477.28 Q2310.95 1473.71 2310.95 1466.61 Q2310.95 1459.48 2309.12 1455.94 Q2307.32 1452.37 2303.68 1452.37 M2303.68 1448.67 Q2309.49 1448.67 2312.55 1453.27 Q2315.63 1457.86 2315.63 1466.61 Q2315.63 1475.33 2312.55 1479.94 Q2309.49 1484.52 2303.68 1484.52 Q2297.87 1484.52 2294.79 1479.94 Q2291.74 1475.33 2291.74 1466.61 Q2291.74 1457.86 2294.79 1453.27 Q2297.87 1448.67 2303.68 1448.67 Z" fill="#000000" fill-rule="evenodd" fill-opacity="1" /><path clip-path="url(#clip300)" d="M 0 0 M2330.7 1452.37 Q2327.08 1452.37 2325.26 1455.94 Q2323.45 1459.48 2323.45 1466.61 Q2323.45 1473.71 2325.26 1477.28 Q2327.08 1480.82 2330.7 1480.82 Q2334.33 1480.82 2336.13 1477.28 Q2337.96 1473.71 2337.96 1466.61 Q2337.96 1459.48 2336.13 1455.94 Q2334.33 1452.37 2330.7 1452.37 M2330.7 1448.67 Q2336.51 1448.67 2339.56 1453.27 Q2342.64 1457.86 2342.64 1466.61 Q2342.64 1475.33 2339.56 1479.94 Q2336.51 1484.52 2330.7 1484.52 Q2324.89 1484.52 2321.81 1479.94 Q2318.75 1475.33 2318.75 1466.61 Q2318.75 1457.86 2321.81 1453.27 Q2324.89 1448.67 2330.7 1448.67 Z" fill="#000000" fill-rule="evenodd" fill-opacity="1" /><path clip-path="url(#clip300)" d="M 0 0 M944.659 1513.81 L944.659 1550.76 L952.425 1550.76 Q962.26 1550.76 966.812 1546.3 Q971.395 1541.85 971.395 1532.24 Q971.395 1522.69 966.812 1518.26 Q962.26 1513.81 952.425 1513.81 L944.659 1513.81 M938.23 1508.52 L951.439 1508.52 Q965.252 1508.52 971.714 1514.28 Q978.175 1520.01 978.175 1532.24 Q978.175 1544.52 971.682 1550.28 Q965.189 1556.04 951.439 1556.04 L938.23 1556.04 L938.23 1508.52 Z" fill="#000000" fill-rule="evenodd" fill-opacity="1" /><path clip-path="url(#clip300)" d="M 0 0 M998.131 1524.5 Q993.421 1524.5 990.683 1528.19 Q987.946 1531.85 987.946 1538.25 Q987.946 1544.65 990.652 1548.34 Q993.389 1552 998.131 1552 Q1002.81 1552 1005.55 1548.31 Q1008.28 1544.62 1008.28 1538.25 Q1008.28 1531.92 1005.55 1528.23 Q1002.81 1524.5 998.131 1524.5 M998.131 1519.54 Q1005.77 1519.54 1010.13 1524.5 Q1014.49 1529.47 1014.49 1538.25 Q1014.49 1547 1010.13 1552 Q1005.77 1556.97 998.131 1556.97 Q990.461 1556.97 986.1 1552 Q981.771 1547 981.771 1538.25 Q981.771 1529.47 986.1 1524.5 Q990.461 1519.54 998.131 1519.54 Z" fill="#000000" fill-rule="evenodd" fill-opacity="1" /><path clip-path="url(#clip300)" d="M 0 0 M1017.23 1520.4 L1023.08 1520.4 L1030.41 1548.21 L1037.69 1520.4 L1044.6 1520.4 L1051.92 1548.21 L1059.21 1520.4 L1065.07 1520.4 L1055.74 1556.04 L1048.83 1556.04 L1041.16 1526.83 L1033.46 1556.04 L1026.55 1556.04 L1017.23 1520.4 Z" fill="#000000" fill-rule="evenodd" fill-opacity="1" /><path clip-path="url(#clip300)" d="M 0 0 M1100.84 1534.53 L1100.84 1556.04 L1094.99 1556.04 L1094.99 1534.72 Q1094.99 1529.66 1093.01 1527.14 Q1091.04 1524.63 1087.09 1524.63 Q1082.35 1524.63 1079.61 1527.65 Q1076.87 1530.68 1076.87 1535.9 L1076.87 1556.04 L1070.99 1556.04 L1070.99 1520.4 L1076.87 1520.4 L1076.87 1525.93 Q1078.98 1522.72 1081.81 1521.13 Q1084.67 1519.54 1088.4 1519.54 Q1094.54 1519.54 1097.69 1523.36 Q1100.84 1527.14 1100.84 1534.53 Z" fill="#000000" fill-rule="evenodd" fill-opacity="1" /><path clip-path="url(#clip300)" d="M 0 0 M1103.58 1520.4 L1109.44 1520.4 L1116.76 1548.21 L1124.04 1520.4 L1130.95 1520.4 L1138.27 1548.21 L1145.56 1520.4 L1151.42 1520.4 L1142.09 1556.04 L1135.18 1556.04 L1127.51 1526.83 L1119.81 1556.04 L1112.9 1556.04 L1103.58 1520.4 Z" fill="#000000" fill-rule="evenodd" fill-opacity="1" /><path clip-path="url(#clip300)" d="M 0 0 M1157.56 1520.4 L1163.42 1520.4 L1163.42 1556.04 L1157.56 1556.04 L1157.56 1520.4 M1157.56 1506.52 L1163.42 1506.52 L1163.42 1513.93 L1157.56 1513.93 L1157.56 1506.52 Z" fill="#000000" fill-rule="evenodd" fill-opacity="1" /><path clip-path="url(#clip300)" d="M 0 0 M1199.19 1534.53 L1199.19 1556.04 L1193.34 1556.04 L1193.34 1534.72 Q1193.34 1529.66 1191.36 1527.14 Q1189.39 1524.63 1185.44 1524.63 Q1180.7 1524.63 1177.96 1527.65 Q1175.23 1530.68 1175.23 1535.9 L1175.23 1556.04 L1169.34 1556.04 L1169.34 1520.4 L1175.23 1520.4 L1175.23 1525.93 Q1177.33 1522.72 1180.16 1521.13 Q1183.02 1519.54 1186.75 1519.54 Q1192.89 1519.54 1196.04 1523.36 Q1199.19 1527.14 1199.19 1534.53 Z" fill="#000000" fill-rule="evenodd" fill-opacity="1" /><path clip-path="url(#clip300)" d="M 0 0 M1228.79 1525.81 L1228.79 1506.52 L1234.65 1506.52 L1234.65 1556.04 L1228.79 1556.04 L1228.79 1550.7 Q1226.95 1553.88 1224.11 1555.44 Q1221.31 1556.97 1217.37 1556.97 Q1210.9 1556.97 1206.83 1551.81 Q1202.79 1546.65 1202.79 1538.25 Q1202.79 1529.85 1206.83 1524.69 Q1210.9 1519.54 1217.37 1519.54 Q1221.31 1519.54 1224.11 1521.1 Q1226.95 1522.62 1228.79 1525.81 M1208.84 1538.25 Q1208.84 1544.71 1211.48 1548.4 Q1214.15 1552.07 1218.8 1552.07 Q1223.45 1552.07 1226.12 1548.4 Q1228.79 1544.71 1228.79 1538.25 Q1228.79 1531.79 1226.12 1528.13 Q1223.45 1524.44 1218.8 1524.44 Q1214.15 1524.44 1211.48 1528.13 Q1208.84 1531.79 1208.84 1538.25 Z" fill="#000000" fill-rule="evenodd" fill-opacity="1" /><path clip-path="url(#clip300)" d="M 0 0 M1284.97 1525.81 L1284.97 1506.52 L1290.83 1506.52 L1290.83 1556.04 L1284.97 1556.04 L1284.97 1550.7 Q1283.12 1553.88 1280.29 1555.44 Q1277.49 1556.97 1273.54 1556.97 Q1267.08 1556.97 1263.01 1551.81 Q1258.97 1546.65 1258.97 1538.25 Q1258.97 1529.85 1263.01 1524.69 Q1267.08 1519.54 1273.54 1519.54 Q1277.49 1519.54 1280.29 1521.1 Q1283.12 1522.62 1284.97 1525.81 M1265.01 1538.25 Q1265.01 1544.71 1267.66 1548.4 Q1270.33 1552.07 1274.98 1552.07 Q1279.62 1552.07 1282.3 1548.4 Q1284.97 1544.71 1284.97 1538.25 Q1284.97 1531.79 1282.3 1528.13 Q1279.62 1524.44 1274.98 1524.44 Q1270.33 1524.44 1267.66 1528.13 Q1265.01 1531.79 1265.01 1538.25 Z" fill="#000000" fill-rule="evenodd" fill-opacity="1" /><path clip-path="url(#clip300)" d="M 0 0 M1296.97 1520.4 L1302.83 1520.4 L1302.83 1556.04 L1296.97 1556.04 L1296.97 1520.4 M1296.97 1506.52 L1302.83 1506.52 L1302.83 1513.93 L1296.97 1513.93 L1296.97 1506.52 Z" fill="#000000" fill-rule="evenodd" fill-opacity="1" /><path clip-path="url(#clip300)" d="M 0 0 M1331.69 1521.45 L1331.69 1526.98 Q1329.21 1525.71 1326.54 1525.07 Q1323.86 1524.44 1321 1524.44 Q1316.64 1524.44 1314.44 1525.77 Q1312.28 1527.11 1312.28 1529.79 Q1312.28 1531.82 1313.84 1533 Q1315.4 1534.15 1320.11 1535.2 L1322.11 1535.64 Q1328.35 1536.98 1330.96 1539.43 Q1333.6 1541.85 1333.6 1546.21 Q1333.6 1551.17 1329.66 1554.07 Q1325.74 1556.97 1318.87 1556.97 Q1316 1556.97 1312.88 1556.39 Q1309.8 1555.85 1306.36 1554.74 L1306.36 1548.69 Q1309.61 1550.38 1312.76 1551.24 Q1315.91 1552.07 1318.99 1552.07 Q1323.13 1552.07 1325.36 1550.66 Q1327.59 1549.23 1327.59 1546.65 Q1327.59 1544.27 1325.97 1542.99 Q1324.37 1541.72 1318.93 1540.54 L1316.89 1540.07 Q1311.45 1538.92 1309.03 1536.56 Q1306.61 1534.18 1306.61 1530.04 Q1306.61 1525.01 1310.18 1522.27 Q1313.74 1519.54 1320.3 1519.54 Q1323.55 1519.54 1326.41 1520.01 Q1329.28 1520.49 1331.69 1521.45 Z" fill="#000000" fill-rule="evenodd" fill-opacity="1" /><path clip-path="url(#clip300)" d="M 0 0 M1345.54 1510.27 L1345.54 1520.4 L1357.6 1520.4 L1357.6 1524.95 L1345.54 1524.95 L1345.54 1544.3 Q1345.54 1548.66 1346.72 1549.9 Q1347.93 1551.14 1351.59 1551.14 L1357.6 1551.14 L1357.6 1556.04 L1351.59 1556.04 Q1344.81 1556.04 1342.23 1553.53 Q1339.65 1550.98 1339.65 1544.3 L1339.65 1524.95 L1335.35 1524.95 L1335.35 1520.4 L1339.65 1520.4 L1339.65 1510.27 L1345.54 1510.27 Z" fill="#000000" fill-rule="evenodd" fill-opacity="1" /><path clip-path="url(#clip300)" d="M 0 0 M1379.95 1538.12 Q1372.85 1538.12 1370.11 1539.75 Q1367.37 1541.37 1367.37 1545.29 Q1367.37 1548.4 1369.41 1550.25 Q1371.48 1552.07 1375.01 1552.07 Q1379.88 1552.07 1382.81 1548.63 Q1385.77 1545.16 1385.77 1539.43 L1385.77 1538.12 L1379.95 1538.12 M1391.63 1535.71 L1391.63 1556.04 L1385.77 1556.04 L1385.77 1550.63 Q1383.77 1553.88 1380.77 1555.44 Q1377.78 1556.97 1373.45 1556.97 Q1367.98 1556.97 1364.73 1553.91 Q1361.52 1550.82 1361.52 1545.67 Q1361.52 1539.65 1365.53 1536.6 Q1369.57 1533.54 1377.56 1533.54 L1385.77 1533.54 L1385.77 1532.97 Q1385.77 1528.93 1383.1 1526.73 Q1380.46 1524.5 1375.65 1524.5 Q1372.59 1524.5 1369.7 1525.23 Q1366.8 1525.97 1364.13 1527.43 L1364.13 1522.02 Q1367.34 1520.78 1370.37 1520.17 Q1373.39 1519.54 1376.25 1519.54 Q1383.99 1519.54 1387.81 1523.55 Q1391.63 1527.56 1391.63 1535.71 Z" fill="#000000" fill-rule="evenodd" fill-opacity="1" /><path clip-path="url(#clip300)" d="M 0 0 M1427.4 1534.53 L1427.4 1556.04 L1421.55 1556.04 L1421.55 1534.72 Q1421.55 1529.66 1419.57 1527.14 Q1417.6 1524.63 1413.65 1524.63 Q1408.91 1524.63 1406.17 1527.65 Q1403.44 1530.68 1403.44 1535.9 L1403.44 1556.04 L1397.55 1556.04 L1397.55 1520.4 L1403.44 1520.4 L1403.44 1525.93 Q1405.54 1522.72 1408.37 1521.13 Q1411.23 1519.54 1414.96 1519.54 Q1421.1 1519.54 1424.25 1523.36 Q1427.4 1527.14 1427.4 1534.53 Z" fill="#000000" fill-rule="evenodd" fill-opacity="1" /><path clip-path="url(#clip300)" d="M 0 0 M1459.2 1521.76 L1459.2 1527.24 Q1456.72 1525.87 1454.2 1525.2 Q1451.72 1524.5 1449.17 1524.5 Q1443.48 1524.5 1440.33 1528.13 Q1437.17 1531.73 1437.17 1538.25 Q1437.17 1544.78 1440.33 1548.4 Q1443.48 1552 1449.17 1552 Q1451.72 1552 1454.2 1551.33 Q1456.72 1550.63 1459.2 1549.26 L1459.2 1554.68 Q1456.75 1555.82 1454.11 1556.39 Q1451.5 1556.97 1448.54 1556.97 Q1440.48 1556.97 1435.74 1551.91 Q1431 1546.85 1431 1538.25 Q1431 1529.53 1435.77 1524.53 Q1440.58 1519.54 1448.92 1519.54 Q1451.62 1519.54 1454.2 1520.11 Q1456.78 1520.65 1459.2 1521.76 Z" fill="#000000" fill-rule="evenodd" fill-opacity="1" /><path clip-path="url(#clip300)" d="M 0 0 M1495.83 1536.76 L1495.83 1539.62 L1468.91 1539.62 Q1469.29 1545.67 1472.54 1548.85 Q1475.81 1552 1481.64 1552 Q1485.01 1552 1488.16 1551.17 Q1491.35 1550.35 1494.47 1548.69 L1494.47 1554.23 Q1491.31 1555.57 1488 1556.27 Q1484.69 1556.97 1481.29 1556.97 Q1472.76 1556.97 1467.76 1552 Q1462.8 1547.04 1462.8 1538.57 Q1462.8 1529.82 1467.51 1524.69 Q1472.25 1519.54 1480.27 1519.54 Q1487.46 1519.54 1491.63 1524.18 Q1495.83 1528.8 1495.83 1536.76 M1489.98 1535.04 Q1489.91 1530.23 1487.27 1527.37 Q1484.66 1524.5 1480.33 1524.5 Q1475.43 1524.5 1472.47 1527.27 Q1469.54 1530.04 1469.1 1535.07 L1489.98 1535.04 Z" fill="#000000" fill-rule="evenodd" fill-opacity="1" /><path clip-path="url(#clip300)" d="M 0 0 M1536.77 1506.58 Q1532.5 1513.9 1530.43 1521.06 Q1528.36 1528.23 1528.36 1535.58 Q1528.36 1542.93 1530.43 1550.16 Q1532.53 1557.35 1536.77 1564.64 L1531.67 1564.64 Q1526.9 1557.16 1524.51 1549.93 Q1522.16 1542.71 1522.16 1535.58 Q1522.16 1528.48 1524.51 1521.29 Q1526.87 1514.09 1531.67 1506.58 L1536.77 1506.58 Z" fill="#000000" fill-rule="evenodd" fill-opacity="1" /><path clip-path="url(#clip300)" d="M 0 0 M1570.66 1527.24 Q1572.86 1523.29 1575.91 1521.41 Q1578.97 1519.54 1583.11 1519.54 Q1588.68 1519.54 1591.7 1523.45 Q1594.73 1527.33 1594.73 1534.53 L1594.73 1556.04 L1588.84 1556.04 L1588.84 1534.72 Q1588.84 1529.59 1587.02 1527.11 Q1585.21 1524.63 1581.48 1524.63 Q1576.93 1524.63 1574.29 1527.65 Q1571.65 1530.68 1571.65 1535.9 L1571.65 1556.04 L1565.76 1556.04 L1565.76 1534.72 Q1565.76 1529.56 1563.95 1527.11 Q1562.13 1524.63 1558.35 1524.63 Q1553.86 1524.63 1551.22 1527.68 Q1548.57 1530.71 1548.57 1535.9 L1548.57 1556.04 L1542.69 1556.04 L1542.69 1520.4 L1548.57 1520.4 L1548.57 1525.93 Q1550.58 1522.66 1553.38 1521.1 Q1556.18 1519.54 1560.03 1519.54 Q1563.92 1519.54 1566.62 1521.51 Q1569.36 1523.48 1570.66 1527.24 Z" fill="#000000" fill-rule="evenodd" fill-opacity="1" /><path clip-path="url(#clip300)" d="M 0 0 M1599.95 1506.58 L1605.04 1506.58 Q1609.81 1514.09 1612.17 1521.29 Q1614.55 1528.48 1614.55 1535.58 Q1614.55 1542.71 1612.17 1549.93 Q1609.81 1557.16 1605.04 1564.64 L1599.95 1564.64 Q1604.18 1557.35 1606.25 1550.16 Q1608.35 1542.93 1608.35 1535.58 Q1608.35 1528.23 1606.25 1521.06 Q1604.18 1513.9 1599.95 1506.58 Z" fill="#000000" fill-rule="evenodd" fill-opacity="1" /><polyline clip-path="url(#clip302)" style="stroke:#000000; stroke-width:2; stroke-opacity:0.1; fill:none" points="
  200.028,1388.11 2352.76,1388.11 
  "/>
<polyline clip-path="url(#clip302)" style="stroke:#000000; stroke-width:2; stroke-opacity:0.1; fill:none" points="
  200.028,1039.95 2352.76,1039.95 
  "/>
<polyline clip-path="url(#clip302)" style="stroke:#000000; stroke-width:2; stroke-opacity:0.1; fill:none" points="
  200.028,691.801 2352.76,691.801 
  "/>
<polyline clip-path="url(#clip302)" style="stroke:#000000; stroke-width:2; stroke-opacity:0.1; fill:none" points="
  200.028,343.648 2352.76,343.648 
  "/>
<polyline clip-path="url(#clip300)" style="stroke:#000000; stroke-width:4; stroke-opacity:1; fill:none" points="
  200.028,1423.18 200.028,183.952 
  "/>
<polyline clip-path="url(#clip300)" style="stroke:#000000; stroke-width:4; stroke-opacity:1; fill:none" points="
  200.028,1388.11 225.861,1388.11 
  "/>
<polyline clip-path="url(#clip300)" style="stroke:#000000; stroke-width:4; stroke-opacity:1; fill:none" points="
  200.028,1039.95 225.861,1039.95 
  "/>
<polyline clip-path="url(#clip300)" style="stroke:#000000; stroke-width:4; stroke-opacity:1; fill:none" points="
  200.028,691.801 225.861,691.801 
  "/>
<polyline clip-path="url(#clip300)" style="stroke:#000000; stroke-width:4; stroke-opacity:1; fill:none" points="
  200.028,343.648 225.861,343.648 
  "/>
<path clip-path="url(#clip300)" d="M 0 0 M152.084 1373.91 Q148.473 1373.91 146.644 1377.47 Q144.839 1381.01 144.839 1388.14 Q144.839 1395.25 146.644 1398.81 Q148.473 1402.35 152.084 1402.35 Q155.718 1402.35 157.524 1398.81 Q159.353 1395.25 159.353 1388.14 Q159.353 1381.01 157.524 1377.47 Q155.718 1373.91 152.084 1373.91 M152.084 1370.2 Q157.894 1370.2 160.95 1374.81 Q164.028 1379.39 164.028 1388.14 Q164.028 1396.87 160.95 1401.48 Q157.894 1406.06 152.084 1406.06 Q146.274 1406.06 143.195 1401.48 Q140.14 1396.87 140.14 1388.14 Q140.14 1379.39 143.195 1374.81 Q146.274 1370.2 152.084 1370.2 Z" fill="#000000" fill-rule="evenodd" fill-opacity="1" /><path clip-path="url(#clip300)" d="M 0 0 M117.107 1053.3 L124.746 1053.3 L124.746 1026.93 L116.436 1028.6 L116.436 1024.34 L124.7 1022.67 L129.376 1022.67 L129.376 1053.3 L137.015 1053.3 L137.015 1057.23 L117.107 1057.23 L117.107 1053.3 Z" fill="#000000" fill-rule="evenodd" fill-opacity="1" /><path clip-path="url(#clip300)" d="M 0 0 M152.084 1025.75 Q148.473 1025.75 146.644 1029.32 Q144.839 1032.86 144.839 1039.99 Q144.839 1047.1 146.644 1050.66 Q148.473 1054.2 152.084 1054.2 Q155.718 1054.2 157.524 1050.66 Q159.353 1047.1 159.353 1039.99 Q159.353 1032.86 157.524 1029.32 Q155.718 1025.75 152.084 1025.75 M152.084 1022.05 Q157.894 1022.05 160.95 1026.66 Q164.028 1031.24 164.028 1039.99 Q164.028 1048.72 160.95 1053.32 Q157.894 1057.91 152.084 1057.91 Q146.274 1057.91 143.195 1053.32 Q140.14 1048.72 140.14 1039.99 Q140.14 1031.24 143.195 1026.66 Q146.274 1022.05 152.084 1022.05 Z" fill="#000000" fill-rule="evenodd" fill-opacity="1" /><path clip-path="url(#clip300)" d="M 0 0 M120.695 705.146 L137.015 705.146 L137.015 709.081 L115.07 709.081 L115.07 705.146 Q117.732 702.391 122.316 697.761 Q126.922 693.109 128.103 691.766 Q130.348 689.243 131.228 687.507 Q132.13 685.748 132.13 684.058 Q132.13 681.303 130.186 679.567 Q128.265 677.831 125.163 677.831 Q122.964 677.831 120.51 678.595 Q118.08 679.359 115.302 680.91 L115.302 676.188 Q118.126 675.053 120.58 674.475 Q123.033 673.896 125.07 673.896 Q130.441 673.896 133.635 676.581 Q136.829 679.266 136.829 683.757 Q136.829 685.887 136.019 687.808 Q135.232 689.706 133.126 692.299 Q132.547 692.97 129.445 696.187 Q126.343 699.382 120.695 705.146 Z" fill="#000000" fill-rule="evenodd" fill-opacity="1" /><path clip-path="url(#clip300)" d="M 0 0 M152.084 677.6 Q148.473 677.6 146.644 681.164 Q144.839 684.706 144.839 691.836 Q144.839 698.942 146.644 702.507 Q148.473 706.048 152.084 706.048 Q155.718 706.048 157.524 702.507 Q159.353 698.942 159.353 691.836 Q159.353 684.706 157.524 681.164 Q155.718 677.6 152.084 677.6 M152.084 673.896 Q157.894 673.896 160.95 678.502 Q164.028 683.086 164.028 691.836 Q164.028 700.562 160.95 705.169 Q157.894 709.752 152.084 709.752 Q146.274 709.752 143.195 705.169 Q140.14 700.562 140.14 691.836 Q140.14 683.086 143.195 678.502 Q146.274 673.896 152.084 673.896 Z" fill="#000000" fill-rule="evenodd" fill-opacity="1" /><path clip-path="url(#clip300)" d="M 0 0 M129.885 342.293 Q133.242 343.011 135.117 345.28 Q137.015 347.548 137.015 350.881 Q137.015 355.997 133.496 358.798 Q129.978 361.599 123.496 361.599 Q121.32 361.599 119.006 361.159 Q116.714 360.742 114.26 359.886 L114.26 355.372 Q116.205 356.506 118.519 357.085 Q120.834 357.664 123.357 357.664 Q127.755 357.664 130.047 355.928 Q132.362 354.192 132.362 350.881 Q132.362 347.826 130.209 346.113 Q128.08 344.377 124.26 344.377 L120.232 344.377 L120.232 340.534 L124.445 340.534 Q127.894 340.534 129.723 339.168 Q131.552 337.78 131.552 335.187 Q131.552 332.525 129.654 331.113 Q127.779 329.678 124.26 329.678 Q122.339 329.678 120.14 330.094 Q117.941 330.511 115.302 331.391 L115.302 327.224 Q117.964 326.483 120.279 326.113 Q122.617 325.743 124.677 325.743 Q130.001 325.743 133.103 328.173 Q136.204 330.581 136.204 334.701 Q136.204 337.571 134.561 339.562 Q132.917 341.53 129.885 342.293 Z" fill="#000000" fill-rule="evenodd" fill-opacity="1" /><path clip-path="url(#clip300)" d="M 0 0 M152.084 329.446 Q148.473 329.446 146.644 333.011 Q144.839 336.553 144.839 343.682 Q144.839 350.789 146.644 354.354 Q148.473 357.895 152.084 357.895 Q155.718 357.895 157.524 354.354 Q159.353 350.789 159.353 343.682 Q159.353 336.553 157.524 333.011 Q155.718 329.446 152.084 329.446 M152.084 325.743 Q157.894 325.743 160.95 330.349 Q164.028 334.932 164.028 343.682 Q164.028 352.409 160.95 357.016 Q157.894 361.599 152.084 361.599 Q146.274 361.599 143.195 357.016 Q140.14 352.409 140.14 343.682 Q140.14 334.932 143.195 330.349 Q146.274 325.743 152.084 325.743 Z" fill="#000000" fill-rule="evenodd" fill-opacity="1" /><path clip-path="url(#clip300)" d="M 0 0 M45.7677 1005.92 L82.7206 1005.92 L82.7206 998.15 Q82.7206 988.315 78.2646 983.763 Q73.8086 979.18 64.1964 979.18 Q54.6479 979.18 50.2237 983.763 Q45.7677 988.315 45.7677 998.15 L45.7677 1005.92 M40.4842 1012.35 L40.4842 999.136 Q40.4842 985.323 46.2451 978.862 Q51.9743 972.4 64.1964 972.4 Q76.4822 972.4 82.2432 978.893 Q88.0042 985.386 88.0042 999.136 L88.0042 1012.35 L40.4842 1012.35 Z" fill="#000000" fill-rule="evenodd" fill-opacity="1" /><path clip-path="url(#clip300)" d="M 0 0 M52.3562 966.258 L52.3562 960.401 L88.0042 960.401 L88.0042 966.258 L52.3562 966.258 M38.479 966.258 L38.479 960.401 L45.895 960.401 L45.895 966.258 L38.479 966.258 Z" fill="#000000" fill-rule="evenodd" fill-opacity="1" /><path clip-path="url(#clip300)" d="M 0 0 M53.4065 931.533 L58.9447 931.533 Q57.6716 934.015 57.035 936.689 Q56.3984 939.362 56.3984 942.227 Q56.3984 946.587 57.7352 948.784 Q59.072 950.948 61.7456 950.948 Q63.7826 950.948 64.9603 949.388 Q66.1061 947.829 67.1565 943.118 L67.6021 941.113 Q68.9389 934.875 71.3897 932.265 Q73.8086 929.623 78.1691 929.623 Q83.1344 929.623 86.0308 933.57 Q88.9272 937.485 88.9272 944.36 Q88.9272 947.224 88.3543 950.343 Q87.8132 953.431 86.6992 956.868 L80.6518 956.868 Q82.3387 953.622 83.198 950.471 Q84.0256 947.32 84.0256 944.232 Q84.0256 940.094 82.6251 937.866 Q81.1929 935.638 78.6147 935.638 Q76.2276 935.638 74.9545 937.262 Q73.6813 938.853 72.5037 944.296 L72.0262 946.333 Q70.8804 951.776 68.5251 954.195 Q66.138 956.613 62.0002 956.613 Q56.9713 956.613 54.2341 953.049 Q51.4968 949.484 51.4968 942.927 Q51.4968 939.681 51.9743 936.816 Q52.4517 933.952 53.4065 931.533 Z" fill="#000000" fill-rule="evenodd" fill-opacity="1" /><path clip-path="url(#clip300)" d="M 0 0 M82.657 917.815 L101.563 917.815 L101.563 923.703 L52.3562 923.703 L52.3562 917.815 L57.7671 917.815 Q54.5842 915.968 53.0564 913.168 Q51.4968 910.335 51.4968 906.42 Q51.4968 899.927 56.6531 895.885 Q61.8093 891.811 70.212 891.811 Q78.6147 891.811 83.771 895.885 Q88.9272 899.927 88.9272 906.42 Q88.9272 910.335 87.3994 913.168 Q85.8398 915.968 82.657 917.815 M70.212 897.89 Q63.7508 897.89 60.0905 900.563 Q56.3984 903.205 56.3984 907.852 Q56.3984 912.499 60.0905 915.173 Q63.7508 917.815 70.212 917.815 Q76.6732 917.815 80.3653 915.173 Q84.0256 912.499 84.0256 907.852 Q84.0256 903.205 80.3653 900.563 Q76.6732 897.89 70.212 897.89 Z" fill="#000000" fill-rule="evenodd" fill-opacity="1" /><path clip-path="url(#clip300)" d="M 0 0 M68.7161 855.176 L71.5806 855.176 L71.5806 882.103 Q77.6281 881.721 80.8109 878.474 Q83.9619 875.196 83.9619 869.371 Q83.9619 865.998 83.1344 862.847 Q82.3069 859.664 80.6518 856.545 L86.1899 856.545 Q87.5267 859.696 88.227 863.006 Q88.9272 866.316 88.9272 869.722 Q88.9272 878.252 83.9619 883.249 Q78.9967 888.214 70.5303 888.214 Q61.7774 888.214 56.6531 883.503 Q51.4968 878.761 51.4968 870.74 Q51.4968 863.547 56.1438 859.377 Q60.7589 855.176 68.7161 855.176 M66.9973 861.032 Q62.1912 861.096 59.3266 863.738 Q56.4621 866.348 56.4621 870.676 Q56.4621 875.578 59.2312 878.538 Q62.0002 881.466 67.0292 881.912 L66.9973 861.032 Z" fill="#000000" fill-rule="evenodd" fill-opacity="1" /><path clip-path="url(#clip300)" d="M 0 0 M57.8307 828.376 Q57.2578 829.363 57.0032 830.541 Q56.7167 831.686 56.7167 833.087 Q56.7167 838.052 59.9632 840.726 Q63.1779 843.368 69.2253 843.368 L88.0042 843.368 L88.0042 849.256 L52.3562 849.256 L52.3562 843.368 L57.8944 843.368 Q54.6479 841.522 53.0883 838.561 Q51.4968 835.601 51.4968 831.368 Q51.4968 830.763 51.5923 830.031 Q51.656 829.299 51.8151 828.408 L57.8307 828.376 Z" fill="#000000" fill-rule="evenodd" fill-opacity="1" /><path clip-path="url(#clip300)" d="M 0 0 M53.4065 799.508 L58.9447 799.508 Q57.6716 801.99 57.035 804.664 Q56.3984 807.338 56.3984 810.202 Q56.3984 814.563 57.7352 816.759 Q59.072 818.923 61.7456 818.923 Q63.7826 818.923 64.9603 817.364 Q66.1061 815.804 67.1565 811.093 L67.6021 809.088 Q68.9389 802.85 71.3897 800.24 Q73.8086 797.598 78.1691 797.598 Q83.1344 797.598 86.0308 801.545 Q88.9272 805.46 88.9272 812.335 Q88.9272 815.199 88.3543 818.319 Q87.8132 821.406 86.6992 824.843 L80.6518 824.843 Q82.3387 821.597 83.198 818.446 Q84.0256 815.295 84.0256 812.207 Q84.0256 808.07 82.6251 805.842 Q81.1929 803.614 78.6147 803.614 Q76.2276 803.614 74.9545 805.237 Q73.6813 806.828 72.5037 812.271 L72.0262 814.308 Q70.8804 819.751 68.5251 822.17 Q66.138 824.589 62.0002 824.589 Q56.9713 824.589 54.2341 821.024 Q51.4968 817.459 51.4968 810.902 Q51.4968 807.656 51.9743 804.791 Q52.4517 801.927 53.4065 799.508 Z" fill="#000000" fill-rule="evenodd" fill-opacity="1" /><path clip-path="url(#clip300)" d="M 0 0 M52.3562 791.455 L52.3562 785.599 L88.0042 785.599 L88.0042 791.455 L52.3562 791.455 M38.479 791.455 L38.479 785.599 L45.895 785.599 L45.895 791.455 L38.479 791.455 Z" fill="#000000" fill-rule="evenodd" fill-opacity="1" /><path clip-path="url(#clip300)" d="M 0 0 M56.4621 765.642 Q56.4621 770.353 60.1542 773.09 Q63.8145 775.827 70.212 775.827 Q76.6095 775.827 80.3017 773.122 Q83.9619 770.385 83.9619 765.642 Q83.9619 760.963 80.2698 758.226 Q76.5777 755.489 70.212 755.489 Q63.8781 755.489 60.186 758.226 Q56.4621 760.963 56.4621 765.642 M51.4968 765.642 Q51.4968 758.003 56.4621 753.643 Q61.4273 749.282 70.212 749.282 Q78.9649 749.282 83.9619 753.643 Q88.9272 758.003 88.9272 765.642 Q88.9272 773.313 83.9619 777.673 Q78.9649 782.002 70.212 782.002 Q61.4273 782.002 56.4621 777.673 Q51.4968 773.313 51.4968 765.642 Z" fill="#000000" fill-rule="evenodd" fill-opacity="1" /><path clip-path="url(#clip300)" d="M 0 0 M66.4881 713.507 L88.0042 713.507 L88.0042 719.364 L66.679 719.364 Q61.6183 719.364 59.1038 721.337 Q56.5894 723.31 56.5894 727.257 Q56.5894 732 59.6131 734.737 Q62.6368 737.474 67.8567 737.474 L88.0042 737.474 L88.0042 743.362 L52.3562 743.362 L52.3562 737.474 L57.8944 737.474 Q54.6797 735.373 53.0883 732.541 Q51.4968 729.676 51.4968 725.952 Q51.4968 719.809 55.3163 716.658 Q59.1038 713.507 66.4881 713.507 Z" fill="#000000" fill-rule="evenodd" fill-opacity="1" /><path clip-path="url(#clip300)" d="M 0 0 M38.5426 672.576 Q45.8632 676.841 53.0246 678.91 Q60.186 680.978 67.5384 680.978 Q74.8908 680.978 82.1159 678.91 Q89.3091 676.809 96.5979 672.576 L96.5979 677.668 Q89.1182 682.443 81.8931 684.83 Q74.668 687.185 67.5384 687.185 Q60.4406 687.185 53.2474 684.83 Q46.0542 682.474 38.5426 677.668 L38.5426 672.576 Z" fill="#000000" fill-rule="evenodd" fill-opacity="1" /><path clip-path="url(#clip300)" d="M 0 0 M59.1993 638.678 Q55.2526 636.482 53.3747 633.427 Q51.4968 630.371 51.4968 626.233 Q51.4968 620.663 55.4117 617.64 Q59.2948 614.616 66.4881 614.616 L88.0042 614.616 L88.0042 620.504 L66.679 620.504 Q61.5546 620.504 59.072 622.318 Q56.5894 624.133 56.5894 627.857 Q56.5894 632.408 59.6131 635.05 Q62.6368 637.692 67.8567 637.692 L88.0042 637.692 L88.0042 643.58 L66.679 643.58 Q61.5228 643.58 59.072 645.394 Q56.5894 647.208 56.5894 650.996 Q56.5894 655.484 59.6449 658.126 Q62.6686 660.767 67.8567 660.767 L88.0042 660.767 L88.0042 666.656 L52.3562 666.656 L52.3562 660.767 L57.8944 660.767 Q54.616 658.762 53.0564 655.961 Q51.4968 653.16 51.4968 649.309 Q51.4968 645.426 53.4702 642.72 Q55.4436 639.983 59.1993 638.678 Z" fill="#000000" fill-rule="evenodd" fill-opacity="1" /><path clip-path="url(#clip300)" d="M 0 0 M38.5426 609.396 L38.5426 604.303 Q46.0542 599.529 53.2474 597.174 Q60.4406 594.787 67.5384 594.787 Q74.668 594.787 81.8931 597.174 Q89.1182 599.529 96.5979 604.303 L96.5979 609.396 Q89.3091 605.163 82.1159 603.094 Q74.8908 600.993 67.5384 600.993 Q60.186 600.993 53.0246 603.094 Q45.8632 605.163 38.5426 609.396 Z" fill="#000000" fill-rule="evenodd" fill-opacity="1" /><path clip-path="url(#clip300)" d="M 0 0 M567.342 18.8205 L567.342 41.5461 L577.631 41.5461 Q583.343 41.5461 586.462 38.5889 Q589.582 35.6318 589.582 30.163 Q589.582 24.7348 586.462 21.7777 Q583.343 18.8205 577.631 18.8205 L567.342 18.8205 M559.159 12.096 L577.631 12.096 Q587.799 12.096 592.984 16.714 Q598.21 21.2916 598.21 30.163 Q598.21 39.1155 592.984 43.6931 Q587.799 48.2706 577.631 48.2706 L567.342 48.2706 L567.342 72.576 L559.159 72.576 L559.159 12.096 Z" fill="#000000" fill-rule="evenodd" fill-opacity="1" /><path clip-path="url(#clip300)" d="M 0 0 M622.921 49.7694 Q613.887 49.7694 610.403 51.8354 Q606.919 53.9013 606.919 58.8839 Q606.919 62.8538 609.512 65.2034 Q612.145 67.5124 616.642 67.5124 Q622.84 67.5124 626.566 63.1374 Q630.334 58.7219 630.334 51.4303 L630.334 49.7694 L622.921 49.7694 M637.787 46.6907 L637.787 72.576 L630.334 72.576 L630.334 65.6895 Q627.782 69.8214 623.974 71.8063 Q620.166 73.7508 614.657 73.7508 Q607.689 73.7508 603.557 69.8619 Q599.466 65.9325 599.466 59.3701 Q599.466 51.7138 604.57 47.825 Q609.715 43.9361 619.882 43.9361 L630.334 43.9361 L630.334 43.2069 Q630.334 38.0623 626.931 35.2672 Q623.569 32.4315 617.452 32.4315 Q613.563 32.4315 609.877 33.3632 Q606.19 34.295 602.788 36.1584 L602.788 29.2718 Q606.879 27.692 610.727 26.9223 Q614.576 26.1121 618.221 26.1121 Q628.065 26.1121 632.926 31.2163 Q637.787 36.3204 637.787 46.6907 Z" fill="#000000" fill-rule="evenodd" fill-opacity="1" /><path clip-path="url(#clip300)" d="M 0 0 M674.529 28.5427 L674.529 35.5912 Q671.369 33.9709 667.967 33.1607 Q664.564 32.3505 660.918 32.3505 Q655.368 32.3505 652.573 34.0519 Q649.819 35.7533 649.819 39.156 Q649.819 41.7486 651.803 43.2475 Q653.788 44.7058 659.784 46.0426 L662.336 46.6097 Q670.276 48.3111 673.597 51.4303 Q676.96 54.509 676.96 60.0587 Q676.96 66.3781 671.936 70.0644 Q666.954 73.7508 658.204 73.7508 Q654.558 73.7508 650.588 73.0216 Q646.659 72.3329 642.284 70.9151 L642.284 63.2184 Q646.416 65.3654 650.426 66.4591 Q654.437 67.5124 658.366 67.5124 Q663.632 67.5124 666.468 65.73 Q669.303 63.9071 669.303 60.6258 Q669.303 57.5877 667.237 55.9673 Q665.212 54.3469 658.285 52.8481 L655.692 52.2405 Q648.765 50.7821 645.687 47.7845 Q642.608 44.7463 642.608 39.4801 Q642.608 33.0797 647.145 29.5959 Q651.682 26.1121 660.027 26.1121 Q664.159 26.1121 667.805 26.7198 Q671.45 27.3274 674.529 28.5427 Z" fill="#000000" fill-rule="evenodd" fill-opacity="1" /><path clip-path="url(#clip300)" d="M 0 0 M689.234 49.9314 Q689.234 58.1548 692.596 62.8538 Q695.999 67.5124 701.913 67.5124 Q707.827 67.5124 711.23 62.8538 Q714.633 58.1548 714.633 49.9314 Q714.633 41.7081 711.23 37.0496 Q707.827 32.3505 701.913 32.3505 Q695.999 32.3505 692.596 37.0496 Q689.234 41.7081 689.234 49.9314 M714.633 65.7705 Q712.283 69.8214 708.678 71.8063 Q705.113 73.7508 700.09 73.7508 Q691.867 73.7508 686.682 67.1883 Q681.537 60.6258 681.537 49.9314 Q681.537 39.2371 686.682 32.6746 Q691.867 26.1121 700.09 26.1121 Q705.113 26.1121 708.678 28.0971 Q712.283 30.0415 714.633 34.0924 L714.633 27.2059 L722.087 27.2059 L722.087 89.8329 L714.633 89.8329 L714.633 65.7705 Z" fill="#000000" fill-rule="evenodd" fill-opacity="1" /><path clip-path="url(#clip300)" d="M 0 0 M729.135 54.671 L729.135 27.2059 L736.589 27.2059 L736.589 54.3874 Q736.589 60.8284 739.1 64.0691 Q741.612 67.2693 746.635 67.2693 Q752.671 67.2693 756.155 63.421 Q759.679 59.5726 759.679 52.9291 L759.679 27.2059 L767.133 27.2059 L767.133 72.576 L759.679 72.576 L759.679 65.6084 Q756.965 69.7404 753.36 71.7658 Q749.795 73.7508 745.055 73.7508 Q737.237 73.7508 733.186 68.8897 Q729.135 64.0286 729.135 54.671 M747.891 26.1121 L747.891 26.1121 Z" fill="#000000" fill-rule="evenodd" fill-opacity="1" /><path clip-path="url(#clip300)" d="M 0 0 M774.951 27.2059 L782.405 27.2059 L782.405 72.576 L774.951 72.576 L774.951 27.2059 M774.951 9.54393 L782.405 9.54393 L782.405 18.9825 L774.951 18.9825 L774.951 9.54393 Z" fill="#000000" fill-rule="evenodd" fill-opacity="1" /><path clip-path="url(#clip300)" d="M 0 0 M790.223 9.54393 L797.677 9.54393 L797.677 72.576 L790.223 72.576 L790.223 9.54393 Z" fill="#000000" fill-rule="evenodd" fill-opacity="1" /><path clip-path="url(#clip300)" d="M 0 0 M805.495 9.54393 L812.948 9.54393 L812.948 72.576 L805.495 72.576 L805.495 9.54393 Z" fill="#000000" fill-rule="evenodd" fill-opacity="1" /><path clip-path="url(#clip300)" d="M 0 0 M816.999 46.5287 L838.834 46.5287 L838.834 53.1722 L816.999 53.1722 L816.999 46.5287 Z" fill="#000000" fill-rule="evenodd" fill-opacity="1" /><path clip-path="url(#clip300)" d="M 0 0 M891.252 63.9476 L891.252 47.7034 L877.884 47.7034 L877.884 40.9789 L899.354 40.9789 L899.354 66.9452 Q894.615 70.3075 888.903 72.0494 Q883.191 73.7508 876.71 73.7508 Q862.532 73.7508 854.511 65.4869 Q846.53 57.1826 846.53 42.3968 Q846.53 27.5705 854.511 19.3066 Q862.532 11.0023 876.71 11.0023 Q882.624 11.0023 887.931 12.4606 Q893.278 13.9189 897.774 16.7545 L897.774 25.464 Q893.237 21.6156 888.133 19.6712 Q883.029 17.7268 877.398 17.7268 Q866.299 17.7268 860.709 23.9246 Q855.159 30.1225 855.159 42.3968 Q855.159 54.6305 860.709 60.8284 Q866.299 67.0263 877.398 67.0263 Q881.733 67.0263 885.136 66.2971 Q888.538 65.5274 891.252 63.9476 Z" fill="#000000" fill-rule="evenodd" fill-opacity="1" /><path clip-path="url(#clip300)" d="M 0 0 M907.172 27.2059 L914.626 27.2059 L914.626 72.576 L907.172 72.576 L907.172 27.2059 M907.172 9.54393 L914.626 9.54393 L914.626 18.9825 L907.172 18.9825 L907.172 9.54393 Z" fill="#000000" fill-rule="evenodd" fill-opacity="1" /><path clip-path="url(#clip300)" d="M 0 0 M945.413 9.54393 L945.413 15.7418 L938.283 15.7418 Q934.273 15.7418 932.693 17.3622 Q931.154 18.9825 931.154 23.1955 L931.154 27.2059 L943.428 27.2059 L943.428 32.9987 L931.154 32.9987 L931.154 72.576 L923.66 72.576 L923.66 32.9987 L916.53 32.9987 L916.53 27.2059 L923.66 27.2059 L923.66 24.0462 Q923.66 16.471 927.184 13.0277 Q930.708 9.54393 938.364 9.54393 L945.413 9.54393 Z" fill="#000000" fill-rule="evenodd" fill-opacity="1" /><path clip-path="url(#clip300)" d="M 0 0 M976.2 9.54393 L976.2 15.7418 L969.07 15.7418 Q965.06 15.7418 963.48 17.3622 Q961.941 18.9825 961.941 23.1955 L961.941 27.2059 L974.215 27.2059 L974.215 32.9987 L961.941 32.9987 L961.941 72.576 L954.447 72.576 L954.447 32.9987 L947.317 32.9987 L947.317 27.2059 L954.447 27.2059 L954.447 24.0462 Q954.447 16.471 957.971 13.0277 Q961.495 9.54393 969.151 9.54393 L976.2 9.54393 Z" fill="#000000" fill-rule="evenodd" fill-opacity="1" /><path clip-path="url(#clip300)" d="M 0 0 M1001.6 32.4315 Q995.604 32.4315 992.12 37.1306 Q988.636 41.7891 988.636 49.9314 Q988.636 58.0738 992.079 62.7728 Q995.563 67.4314 1001.6 67.4314 Q1007.55 67.4314 1011.04 62.7323 Q1014.52 58.0333 1014.52 49.9314 Q1014.52 41.8701 1011.04 37.1711 Q1007.55 32.4315 1001.6 32.4315 M1001.6 26.1121 Q1011.32 26.1121 1016.87 32.4315 Q1022.42 38.7509 1022.42 49.9314 Q1022.42 61.0714 1016.87 67.4314 Q1011.32 73.7508 1001.6 73.7508 Q991.836 73.7508 986.287 67.4314 Q980.777 61.0714 980.777 49.9314 Q980.777 38.7509 986.287 32.4315 Q991.836 26.1121 1001.6 26.1121 Z" fill="#000000" fill-rule="evenodd" fill-opacity="1" /><path clip-path="url(#clip300)" d="M 0 0 M1056.53 34.1734 Q1055.27 33.4443 1053.77 33.1202 Q1052.32 32.7556 1050.53 32.7556 Q1044.21 32.7556 1040.81 36.8875 Q1037.45 40.9789 1037.45 48.6757 L1037.45 72.576 L1029.96 72.576 L1029.96 27.2059 L1037.45 27.2059 L1037.45 34.2544 Q1039.8 30.1225 1043.57 28.1376 Q1047.33 26.1121 1052.72 26.1121 Q1053.49 26.1121 1054.42 26.2337 Q1055.35 26.3147 1056.49 26.5172 L1056.53 34.1734 Z" fill="#000000" fill-rule="evenodd" fill-opacity="1" /><path clip-path="url(#clip300)" d="M 0 0 M1092.74 34.0924 L1092.74 9.54393 L1100.2 9.54393 L1100.2 72.576 L1092.74 72.576 L1092.74 65.7705 Q1090.39 69.8214 1086.79 71.8063 Q1083.22 73.7508 1078.2 73.7508 Q1069.98 73.7508 1064.79 67.1883 Q1059.65 60.6258 1059.65 49.9314 Q1059.65 39.2371 1064.79 32.6746 Q1069.98 26.1121 1078.2 26.1121 Q1083.22 26.1121 1086.79 28.0971 Q1090.39 30.0415 1092.74 34.0924 M1067.35 49.9314 Q1067.35 58.1548 1070.71 62.8538 Q1074.11 67.5124 1080.02 67.5124 Q1085.94 67.5124 1089.34 62.8538 Q1092.74 58.1548 1092.74 49.9314 Q1092.74 41.7081 1089.34 37.0496 Q1085.94 32.3505 1080.02 32.3505 Q1074.11 32.3505 1070.71 37.0496 Q1067.35 41.7081 1067.35 49.9314 Z" fill="#000000" fill-rule="evenodd" fill-opacity="1" /><path clip-path="url(#clip300)" d="M 0 0 M1164.24 34.0924 L1164.24 9.54393 L1171.7 9.54393 L1171.7 72.576 L1164.24 72.576 L1164.24 65.7705 Q1161.89 69.8214 1158.29 71.8063 Q1154.72 73.7508 1149.7 73.7508 Q1141.48 73.7508 1136.29 67.1883 Q1131.15 60.6258 1131.15 49.9314 Q1131.15 39.2371 1136.29 32.6746 Q1141.48 26.1121 1149.7 26.1121 Q1154.72 26.1121 1158.29 28.0971 Q1161.89 30.0415 1164.24 34.0924 M1138.84 49.9314 Q1138.84 58.1548 1142.21 62.8538 Q1145.61 67.5124 1151.52 67.5124 Q1157.44 67.5124 1160.84 62.8538 Q1164.24 58.1548 1164.24 49.9314 Q1164.24 41.7081 1160.84 37.0496 Q1157.44 32.3505 1151.52 32.3505 Q1145.61 32.3505 1142.21 37.0496 Q1138.84 41.7081 1138.84 49.9314 Z" fill="#000000" fill-rule="evenodd" fill-opacity="1" /><path clip-path="url(#clip300)" d="M 0 0 M1179.51 27.2059 L1186.97 27.2059 L1186.97 72.576 L1179.51 72.576 L1179.51 27.2059 M1179.51 9.54393 L1186.97 9.54393 L1186.97 18.9825 L1179.51 18.9825 L1179.51 9.54393 Z" fill="#000000" fill-rule="evenodd" fill-opacity="1" /><path clip-path="url(#clip300)" d="M 0 0 M1223.71 28.5427 L1223.71 35.5912 Q1220.55 33.9709 1217.15 33.1607 Q1213.74 32.3505 1210.1 32.3505 Q1204.55 32.3505 1201.75 34.0519 Q1199 35.7533 1199 39.156 Q1199 41.7486 1200.98 43.2475 Q1202.97 44.7058 1208.96 46.0426 L1211.52 46.6097 Q1219.46 48.3111 1222.78 51.4303 Q1226.14 54.509 1226.14 60.0587 Q1226.14 66.3781 1221.12 70.0644 Q1216.13 73.7508 1207.39 73.7508 Q1203.74 73.7508 1199.77 73.0216 Q1195.84 72.3329 1191.46 70.9151 L1191.46 63.2184 Q1195.6 65.3654 1199.61 66.4591 Q1203.62 67.5124 1207.55 67.5124 Q1212.81 67.5124 1215.65 65.73 Q1218.48 63.9071 1218.48 60.6258 Q1218.48 57.5877 1216.42 55.9673 Q1214.39 54.3469 1207.47 52.8481 L1204.87 52.2405 Q1197.95 50.7821 1194.87 47.7845 Q1191.79 44.7463 1191.79 39.4801 Q1191.79 33.0797 1196.33 29.5959 Q1200.86 26.1121 1209.21 26.1121 Q1213.34 26.1121 1216.99 26.7198 Q1220.63 27.3274 1223.71 28.5427 Z" fill="#000000" fill-rule="evenodd" fill-opacity="1" /><path clip-path="url(#clip300)" d="M 0 0 M1241.17 65.7705 L1241.17 89.8329 L1233.68 89.8329 L1233.68 27.2059 L1241.17 27.2059 L1241.17 34.0924 Q1243.52 30.0415 1247.08 28.0971 Q1250.69 26.1121 1255.67 26.1121 Q1263.94 26.1121 1269.08 32.6746 Q1274.27 39.2371 1274.27 49.9314 Q1274.27 60.6258 1269.08 67.1883 Q1263.94 73.7508 1255.67 73.7508 Q1250.69 73.7508 1247.08 71.8063 Q1243.52 69.8214 1241.17 65.7705 M1266.53 49.9314 Q1266.53 41.7081 1263.13 37.0496 Q1259.76 32.3505 1253.85 32.3505 Q1247.93 32.3505 1244.53 37.0496 Q1241.17 41.7081 1241.17 49.9314 Q1241.17 58.1548 1244.53 62.8538 Q1247.93 67.5124 1253.85 67.5124 Q1259.76 67.5124 1263.13 62.8538 Q1266.53 58.1548 1266.53 49.9314 Z" fill="#000000" fill-rule="evenodd" fill-opacity="1" /><path clip-path="url(#clip300)" d="M 0 0 M1320.89 48.0275 L1320.89 51.6733 L1286.62 51.6733 Q1287.11 59.3701 1291.24 63.421 Q1295.41 67.4314 1302.82 67.4314 Q1307.12 67.4314 1311.13 66.3781 Q1315.18 65.3249 1319.15 63.2184 L1319.15 70.267 Q1315.14 71.9684 1310.93 72.8596 Q1306.71 73.7508 1302.38 73.7508 Q1291.52 73.7508 1285.16 67.4314 Q1278.84 61.1119 1278.84 50.3365 Q1278.84 39.1965 1284.84 32.6746 Q1290.87 26.1121 1301.08 26.1121 Q1310.24 26.1121 1315.54 32.0264 Q1320.89 37.9003 1320.89 48.0275 M1313.44 45.84 Q1313.36 39.7232 1309.99 36.0774 Q1306.67 32.4315 1301.16 32.4315 Q1294.93 32.4315 1291.16 35.9558 Q1287.43 39.4801 1286.86 45.8805 L1313.44 45.84 Z" fill="#000000" fill-rule="evenodd" fill-opacity="1" /><path clip-path="url(#clip300)" d="M 0 0 M1355 34.1734 Q1353.74 33.4443 1352.25 33.1202 Q1350.79 32.7556 1349 32.7556 Q1342.69 32.7556 1339.28 36.8875 Q1335.92 40.9789 1335.92 48.6757 L1335.92 72.576 L1328.43 72.576 L1328.43 27.2059 L1335.92 27.2059 L1335.92 34.2544 Q1338.27 30.1225 1342.04 28.1376 Q1345.8 26.1121 1351.19 26.1121 Q1351.96 26.1121 1352.89 26.2337 Q1353.83 26.3147 1354.96 26.5172 L1355 34.1734 Z" fill="#000000" fill-rule="evenodd" fill-opacity="1" /><path clip-path="url(#clip300)" d="M 0 0 M1391.74 28.5427 L1391.74 35.5912 Q1388.58 33.9709 1385.18 33.1607 Q1381.78 32.3505 1378.13 32.3505 Q1372.58 32.3505 1369.79 34.0519 Q1367.03 35.7533 1367.03 39.156 Q1367.03 41.7486 1369.02 43.2475 Q1371 44.7058 1377 46.0426 L1379.55 46.6097 Q1387.49 48.3111 1390.81 51.4303 Q1394.17 54.509 1394.17 60.0587 Q1394.17 66.3781 1389.15 70.0644 Q1384.17 73.7508 1375.42 73.7508 Q1371.77 73.7508 1367.8 73.0216 Q1363.87 72.3329 1359.5 70.9151 L1359.5 63.2184 Q1363.63 65.3654 1367.64 66.4591 Q1371.65 67.5124 1375.58 67.5124 Q1380.84 67.5124 1383.68 65.73 Q1386.52 63.9071 1386.52 60.6258 Q1386.52 57.5877 1384.45 55.9673 Q1382.42 54.3469 1375.5 52.8481 L1372.9 52.2405 Q1365.98 50.7821 1362.9 47.7845 Q1359.82 44.7463 1359.82 39.4801 Q1359.82 33.0797 1364.36 29.5959 Q1368.89 26.1121 1377.24 26.1121 Q1381.37 26.1121 1385.02 26.7198 Q1388.66 27.3274 1391.74 28.5427 Z" fill="#000000" fill-rule="evenodd" fill-opacity="1" /><path clip-path="url(#clip300)" d="M 0 0 M1401.99 27.2059 L1409.44 27.2059 L1409.44 72.576 L1401.99 72.576 L1401.99 27.2059 M1401.99 9.54393 L1409.44 9.54393 L1409.44 18.9825 L1401.99 18.9825 L1401.99 9.54393 Z" fill="#000000" fill-rule="evenodd" fill-opacity="1" /><path clip-path="url(#clip300)" d="M 0 0 M1434.84 32.4315 Q1428.85 32.4315 1425.36 37.1306 Q1421.88 41.7891 1421.88 49.9314 Q1421.88 58.0738 1425.32 62.7728 Q1428.81 67.4314 1434.84 67.4314 Q1440.8 67.4314 1444.28 62.7323 Q1447.77 58.0333 1447.77 49.9314 Q1447.77 41.8701 1444.28 37.1711 Q1440.8 32.4315 1434.84 32.4315 M1434.84 26.1121 Q1444.57 26.1121 1450.12 32.4315 Q1455.66 38.7509 1455.66 49.9314 Q1455.66 61.0714 1450.12 67.4314 Q1444.57 73.7508 1434.84 73.7508 Q1425.08 73.7508 1419.53 67.4314 Q1414.02 61.0714 1414.02 49.9314 Q1414.02 38.7509 1419.53 32.4315 Q1425.08 26.1121 1434.84 26.1121 Z" fill="#000000" fill-rule="evenodd" fill-opacity="1" /><path clip-path="url(#clip300)" d="M 0 0 M1501.2 45.1919 L1501.2 72.576 L1493.74 72.576 L1493.74 45.4349 Q1493.74 38.994 1491.23 35.7938 Q1488.72 32.5936 1483.7 32.5936 Q1477.66 32.5936 1474.18 36.4419 Q1470.69 40.2903 1470.69 46.9338 L1470.69 72.576 L1463.2 72.576 L1463.2 27.2059 L1470.69 27.2059 L1470.69 34.2544 Q1473.37 30.163 1476.97 28.1376 Q1480.62 26.1121 1485.36 26.1121 Q1493.18 26.1121 1497.19 30.9732 Q1501.2 35.7938 1501.2 45.1919 Z" fill="#000000" fill-rule="evenodd" fill-opacity="1" /><path clip-path="url(#clip300)" d="M 0 0 M1542.6 65.7705 L1542.6 89.8329 L1535.1 89.8329 L1535.1 27.2059 L1542.6 27.2059 L1542.6 34.0924 Q1544.95 30.0415 1548.51 28.0971 Q1552.12 26.1121 1557.1 26.1121 Q1565.36 26.1121 1570.51 32.6746 Q1575.69 39.2371 1575.69 49.9314 Q1575.69 60.6258 1570.51 67.1883 Q1565.36 73.7508 1557.1 73.7508 Q1552.12 73.7508 1548.51 71.8063 Q1544.95 69.8214 1542.6 65.7705 M1567.96 49.9314 Q1567.96 41.7081 1564.55 37.0496 Q1561.19 32.3505 1555.28 32.3505 Q1549.36 32.3505 1545.96 37.0496 Q1542.6 41.7081 1542.6 49.9314 Q1542.6 58.1548 1545.96 62.8538 Q1549.36 67.5124 1555.28 67.5124 Q1561.19 67.5124 1564.55 62.8538 Q1567.96 58.1548 1567.96 49.9314 Z" fill="#000000" fill-rule="evenodd" fill-opacity="1" /><path clip-path="url(#clip300)" d="M 0 0 M1604.13 49.7694 Q1595.1 49.7694 1591.61 51.8354 Q1588.13 53.9013 1588.13 58.8839 Q1588.13 62.8538 1590.72 65.2034 Q1593.36 67.5124 1597.85 67.5124 Q1604.05 67.5124 1607.78 63.1374 Q1611.54 58.7219 1611.54 51.4303 L1611.54 49.7694 L1604.13 49.7694 M1619 46.6907 L1619 72.576 L1611.54 72.576 L1611.54 65.6895 Q1608.99 69.8214 1605.18 71.8063 Q1601.38 73.7508 1595.87 73.7508 Q1588.9 73.7508 1584.77 69.8619 Q1580.68 65.9325 1580.68 59.3701 Q1580.68 51.7138 1585.78 47.825 Q1590.92 43.9361 1601.09 43.9361 L1611.54 43.9361 L1611.54 43.2069 Q1611.54 38.0623 1608.14 35.2672 Q1604.78 32.4315 1598.66 32.4315 Q1594.77 32.4315 1591.09 33.3632 Q1587.4 34.295 1584 36.1584 L1584 29.2718 Q1588.09 27.692 1591.94 26.9223 Q1595.79 26.1121 1599.43 26.1121 Q1609.28 26.1121 1614.14 31.2163 Q1619 36.3204 1619 46.6907 Z" fill="#000000" fill-rule="evenodd" fill-opacity="1" /><path clip-path="url(#clip300)" d="M 0 0 M1653.11 34.1734 Q1651.85 33.4443 1650.35 33.1202 Q1648.89 32.7556 1647.11 32.7556 Q1640.79 32.7556 1637.39 36.8875 Q1634.03 40.9789 1634.03 48.6757 L1634.03 72.576 L1626.53 72.576 L1626.53 27.2059 L1634.03 27.2059 L1634.03 34.2544 Q1636.38 30.1225 1640.14 28.1376 Q1643.91 26.1121 1649.3 26.1121 Q1650.07 26.1121 1651 26.2337 Q1651.93 26.3147 1653.07 26.5172 L1653.11 34.1734 Z" fill="#000000" fill-rule="evenodd" fill-opacity="1" /><path clip-path="url(#clip300)" d="M 0 0 M1681.54 49.7694 Q1672.51 49.7694 1669.03 51.8354 Q1665.54 53.9013 1665.54 58.8839 Q1665.54 62.8538 1668.13 65.2034 Q1670.77 67.5124 1675.26 67.5124 Q1681.46 67.5124 1685.19 63.1374 Q1688.96 58.7219 1688.96 51.4303 L1688.96 49.7694 L1681.54 49.7694 M1696.41 46.6907 L1696.41 72.576 L1688.96 72.576 L1688.96 65.6895 Q1686.4 69.8214 1682.6 71.8063 Q1678.79 73.7508 1673.28 73.7508 Q1666.31 73.7508 1662.18 69.8619 Q1658.09 65.9325 1658.09 59.3701 Q1658.09 51.7138 1663.19 47.825 Q1668.34 43.9361 1678.51 43.9361 L1688.96 43.9361 L1688.96 43.2069 Q1688.96 38.0623 1685.55 35.2672 Q1682.19 32.4315 1676.07 32.4315 Q1672.19 32.4315 1668.5 33.3632 Q1664.81 34.295 1661.41 36.1584 L1661.41 29.2718 Q1665.5 27.692 1669.35 26.9223 Q1673.2 26.1121 1676.84 26.1121 Q1686.69 26.1121 1691.55 31.2163 Q1696.41 36.3204 1696.41 46.6907 Z" fill="#000000" fill-rule="evenodd" fill-opacity="1" /><path clip-path="url(#clip300)" d="M 0 0 M1739.55 35.9153 Q1742.35 30.8922 1746.24 28.5022 Q1750.13 26.1121 1755.39 26.1121 Q1762.48 26.1121 1766.33 31.0947 Q1770.18 36.0368 1770.18 45.1919 L1770.18 72.576 L1762.68 72.576 L1762.68 45.4349 Q1762.68 38.913 1760.37 35.7533 Q1758.06 32.5936 1753.33 32.5936 Q1747.53 32.5936 1744.17 36.4419 Q1740.81 40.2903 1740.81 46.9338 L1740.81 72.576 L1733.31 72.576 L1733.31 45.4349 Q1733.31 38.8725 1731 35.7533 Q1728.7 32.5936 1723.88 32.5936 Q1718.16 32.5936 1714.8 36.4824 Q1711.44 40.3308 1711.44 46.9338 L1711.44 72.576 L1703.94 72.576 L1703.94 27.2059 L1711.44 27.2059 L1711.44 34.2544 Q1713.99 30.082 1717.56 28.0971 Q1721.12 26.1121 1726.02 26.1121 Q1730.96 26.1121 1734.41 28.6237 Q1737.89 31.1352 1739.55 35.9153 Z" fill="#000000" fill-rule="evenodd" fill-opacity="1" /><path clip-path="url(#clip300)" d="M 0 0 M1816.8 48.0275 L1816.8 51.6733 L1782.53 51.6733 Q1783.02 59.3701 1787.15 63.421 Q1791.32 67.4314 1798.74 67.4314 Q1803.03 67.4314 1807.04 66.3781 Q1811.09 65.3249 1815.06 63.2184 L1815.06 70.267 Q1811.05 71.9684 1806.84 72.8596 Q1802.62 73.7508 1798.29 73.7508 Q1787.43 73.7508 1781.07 67.4314 Q1774.75 61.1119 1774.75 50.3365 Q1774.75 39.1965 1780.75 32.6746 Q1786.79 26.1121 1796.99 26.1121 Q1806.15 26.1121 1811.46 32.0264 Q1816.8 37.9003 1816.8 48.0275 M1809.35 45.84 Q1809.27 39.7232 1805.91 36.0774 Q1802.58 32.4315 1797.08 32.4315 Q1790.84 32.4315 1787.07 35.9558 Q1783.34 39.4801 1782.78 45.8805 L1809.35 45.84 Z" fill="#000000" fill-rule="evenodd" fill-opacity="1" /><path clip-path="url(#clip300)" d="M 0 0 M1831.99 14.324 L1831.99 27.2059 L1847.35 27.2059 L1847.35 32.9987 L1831.99 32.9987 L1831.99 57.6282 Q1831.99 63.1779 1833.49 64.7578 Q1835.03 66.3376 1839.69 66.3376 L1847.35 66.3376 L1847.35 72.576 L1839.69 72.576 Q1831.06 72.576 1827.78 69.3758 Q1824.5 66.1351 1824.5 57.6282 L1824.5 32.9987 L1819.03 32.9987 L1819.03 27.2059 L1824.5 27.2059 L1824.5 14.324 L1831.99 14.324 Z" fill="#000000" fill-rule="evenodd" fill-opacity="1" /><path clip-path="url(#clip300)" d="M 0 0 M1893.97 48.0275 L1893.97 51.6733 L1859.7 51.6733 Q1860.19 59.3701 1864.32 63.421 Q1868.49 67.4314 1875.91 67.4314 Q1880.2 67.4314 1884.21 66.3781 Q1888.26 65.3249 1892.23 63.2184 L1892.23 70.267 Q1888.22 71.9684 1884.01 72.8596 Q1879.79 73.7508 1875.46 73.7508 Q1864.6 73.7508 1858.24 67.4314 Q1851.92 61.1119 1851.92 50.3365 Q1851.92 39.1965 1857.92 32.6746 Q1863.96 26.1121 1874.16 26.1121 Q1883.32 26.1121 1888.63 32.0264 Q1893.97 37.9003 1893.97 48.0275 M1886.52 45.84 Q1886.44 39.7232 1883.08 36.0774 Q1879.75 32.4315 1874.24 32.4315 Q1868.01 32.4315 1864.24 35.9558 Q1860.51 39.4801 1859.95 45.8805 L1886.52 45.84 Z" fill="#000000" fill-rule="evenodd" fill-opacity="1" /><path clip-path="url(#clip300)" d="M 0 0 M1928.08 34.1734 Q1926.83 33.4443 1925.33 33.1202 Q1923.87 32.7556 1922.09 32.7556 Q1915.77 32.7556 1912.36 36.8875 Q1909 40.9789 1909 48.6757 L1909 72.576 L1901.51 72.576 L1901.51 27.2059 L1909 27.2059 L1909 34.2544 Q1911.35 30.1225 1915.12 28.1376 Q1918.89 26.1121 1924.27 26.1121 Q1925.04 26.1121 1925.97 26.2337 Q1926.91 26.3147 1928.04 26.5172 L1928.08 34.1734 Z" fill="#000000" fill-rule="evenodd" fill-opacity="1" /><path clip-path="url(#clip300)" d="M 0 0 M1964.82 28.5427 L1964.82 35.5912 Q1961.66 33.9709 1958.26 33.1607 Q1954.86 32.3505 1951.21 32.3505 Q1945.66 32.3505 1942.87 34.0519 Q1940.11 35.7533 1940.11 39.156 Q1940.11 41.7486 1942.1 43.2475 Q1944.08 44.7058 1950.08 46.0426 L1952.63 46.6097 Q1960.57 48.3111 1963.89 51.4303 Q1967.25 54.509 1967.25 60.0587 Q1967.25 66.3781 1962.23 70.0644 Q1957.25 73.7508 1948.5 73.7508 Q1944.85 73.7508 1940.88 73.0216 Q1936.95 72.3329 1932.58 70.9151 L1932.58 63.2184 Q1936.71 65.3654 1940.72 66.4591 Q1944.73 67.5124 1948.66 67.5124 Q1953.93 67.5124 1956.76 65.73 Q1959.6 63.9071 1959.6 60.6258 Q1959.6 57.5877 1957.53 55.9673 Q1955.51 54.3469 1948.58 52.8481 L1945.99 52.2405 Q1939.06 50.7821 1935.98 47.7845 Q1932.9 44.7463 1932.9 39.4801 Q1932.9 33.0797 1937.44 29.5959 Q1941.98 26.1121 1950.32 26.1121 Q1954.45 26.1121 1958.1 26.7198 Q1961.74 27.3274 1964.82 28.5427 Z" fill="#000000" fill-rule="evenodd" fill-opacity="1" /><path clip-path="url(#clip300)" d="M 0 0 M1047.74 119.263 L1047.74 126.311 Q1044.58 124.691 1041.18 123.881 Q1037.77 123.071 1034.13 123.071 Q1028.58 123.071 1025.78 124.772 Q1023.03 126.473 1023.03 129.876 Q1023.03 132.469 1025.01 133.967 Q1027 135.426 1032.99 136.763 L1035.55 137.33 Q1043.49 139.031 1046.81 142.15 Q1050.17 145.229 1050.17 150.779 Q1050.17 157.098 1045.15 160.784 Q1040.16 164.471 1031.41 164.471 Q1027.77 164.471 1023.8 163.742 Q1019.87 163.053 1015.49 161.635 L1015.49 153.938 Q1019.63 156.085 1023.64 157.179 Q1027.65 158.232 1031.58 158.232 Q1036.84 158.232 1039.68 156.45 Q1042.51 154.627 1042.51 151.346 Q1042.51 148.308 1040.45 146.687 Q1038.42 145.067 1031.49 143.568 L1028.9 142.96 Q1021.98 141.502 1018.9 138.504 Q1015.82 135.466 1015.82 130.2 Q1015.82 123.8 1020.35 120.316 Q1024.89 116.832 1033.24 116.832 Q1037.37 116.832 1041.01 117.44 Q1044.66 118.047 1047.74 119.263 Z" fill="#000000" fill-rule="evenodd" fill-opacity="1" /><path clip-path="url(#clip300)" d="M 0 0 M1065.36 105.044 L1065.36 117.926 L1080.71 117.926 L1080.71 123.719 L1065.36 123.719 L1065.36 148.348 Q1065.36 153.898 1066.86 155.478 Q1068.4 157.058 1073.06 157.058 L1080.71 157.058 L1080.71 163.296 L1073.06 163.296 Q1064.43 163.296 1061.15 160.096 Q1057.87 156.855 1057.87 148.348 L1057.87 123.719 L1052.4 123.719 L1052.4 117.926 L1057.87 117.926 L1057.87 105.044 L1065.36 105.044 Z" fill="#000000" fill-rule="evenodd" fill-opacity="1" /><path clip-path="url(#clip300)" d="M 0 0 M1109.15 140.489 Q1100.12 140.489 1096.63 142.555 Q1093.15 144.621 1093.15 149.604 Q1093.15 153.574 1095.74 155.923 Q1098.38 158.232 1102.87 158.232 Q1109.07 158.232 1112.8 153.857 Q1116.56 149.442 1116.56 142.15 L1116.56 140.489 L1109.15 140.489 M1124.02 137.411 L1124.02 163.296 L1116.56 163.296 L1116.56 156.409 Q1114.01 160.541 1110.2 162.526 Q1106.4 164.471 1100.89 164.471 Q1093.92 164.471 1089.79 160.582 Q1085.7 156.653 1085.7 150.09 Q1085.7 142.434 1090.8 138.545 Q1095.94 134.656 1106.11 134.656 L1116.56 134.656 L1116.56 133.927 Q1116.56 128.782 1113.16 125.987 Q1109.8 123.152 1103.68 123.152 Q1099.79 123.152 1096.11 124.083 Q1092.42 125.015 1089.02 126.878 L1089.02 119.992 Q1093.11 118.412 1096.96 117.642 Q1100.81 116.832 1104.45 116.832 Q1114.3 116.832 1119.16 121.936 Q1124.02 127.04 1124.02 137.411 Z" fill="#000000" fill-rule="evenodd" fill-opacity="1" /><path clip-path="url(#clip300)" d="M 0 0 M1164.4 140.651 Q1164.4 132.428 1161 127.77 Q1157.64 123.071 1151.73 123.071 Q1145.81 123.071 1142.41 127.77 Q1139.05 132.428 1139.05 140.651 Q1139.05 148.875 1142.41 153.574 Q1145.81 158.232 1151.73 158.232 Q1157.64 158.232 1161 153.574 Q1164.4 148.875 1164.4 140.651 M1139.05 124.812 Q1141.4 120.762 1144.96 118.817 Q1148.57 116.832 1153.55 116.832 Q1161.81 116.832 1166.96 123.395 Q1172.14 129.957 1172.14 140.651 Q1172.14 151.346 1166.96 157.908 Q1161.81 164.471 1153.55 164.471 Q1148.57 164.471 1144.96 162.526 Q1141.4 160.541 1139.05 156.49 L1139.05 163.296 L1131.55 163.296 L1131.55 100.264 L1139.05 100.264 L1139.05 124.812 Z" fill="#000000" fill-rule="evenodd" fill-opacity="1" /><path clip-path="url(#clip300)" d="M 0 0 M1179.96 117.926 L1187.41 117.926 L1187.41 163.296 L1179.96 163.296 L1179.96 117.926 M1179.96 100.264 L1187.41 100.264 L1187.41 109.703 L1179.96 109.703 L1179.96 100.264 Z" fill="#000000" fill-rule="evenodd" fill-opacity="1" /><path clip-path="url(#clip300)" d="M 0 0 M1195.23 100.264 L1202.69 100.264 L1202.69 163.296 L1195.23 163.296 L1195.23 100.264 Z" fill="#000000" fill-rule="evenodd" fill-opacity="1" /><path clip-path="url(#clip300)" d="M 0 0 M1210.5 117.926 L1217.96 117.926 L1217.96 163.296 L1210.5 163.296 L1210.5 117.926 M1210.5 100.264 L1217.96 100.264 L1217.96 109.703 L1210.5 109.703 L1210.5 100.264 Z" fill="#000000" fill-rule="evenodd" fill-opacity="1" /><path clip-path="url(#clip300)" d="M 0 0 M1233.15 105.044 L1233.15 117.926 L1248.5 117.926 L1248.5 123.719 L1233.15 123.719 L1233.15 148.348 Q1233.15 153.898 1234.65 155.478 Q1236.19 157.058 1240.85 157.058 L1248.5 157.058 L1248.5 163.296 L1240.85 163.296 Q1232.22 163.296 1228.94 160.096 Q1225.65 156.855 1225.65 148.348 L1225.65 123.719 L1220.19 123.719 L1220.19 117.926 L1225.65 117.926 L1225.65 105.044 L1233.15 105.044 Z" fill="#000000" fill-rule="evenodd" fill-opacity="1" /><path clip-path="url(#clip300)" d="M 0 0 M1275.2 167.509 Q1272.04 175.611 1269.04 178.082 Q1266.04 180.553 1261.02 180.553 L1255.06 180.553 L1255.06 174.314 L1259.44 174.314 Q1262.52 174.314 1264.22 172.856 Q1265.92 171.398 1267.99 165.97 L1269.32 162.567 L1250.97 117.926 L1258.87 117.926 L1273.05 153.412 L1287.23 117.926 L1295.13 117.926 L1275.2 167.509 Z" fill="#000000" fill-rule="evenodd" fill-opacity="1" /><path clip-path="url(#clip300)" d="M 0 0 M1361.97 119.668 L1361.97 126.635 Q1358.81 124.893 1355.61 124.043 Q1352.45 123.152 1349.21 123.152 Q1341.96 123.152 1337.95 127.77 Q1333.94 132.347 1333.94 140.651 Q1333.94 148.956 1337.95 153.574 Q1341.96 158.151 1349.21 158.151 Q1352.45 158.151 1355.61 157.301 Q1358.81 156.409 1361.97 154.668 L1361.97 161.554 Q1358.85 163.012 1355.49 163.742 Q1352.16 164.471 1348.4 164.471 Q1338.15 164.471 1332.11 158.03 Q1326.08 151.589 1326.08 140.651 Q1326.08 129.552 1332.15 123.192 Q1338.27 116.832 1348.88 116.832 Q1352.33 116.832 1355.61 117.561 Q1358.89 118.25 1361.97 119.668 Z" fill="#000000" fill-rule="evenodd" fill-opacity="1" /><path clip-path="url(#clip300)" d="M 0 0 M1369.79 100.264 L1377.24 100.264 L1377.24 163.296 L1369.79 163.296 L1369.79 100.264 Z" fill="#000000" fill-rule="evenodd" fill-opacity="1" /><path clip-path="url(#clip300)" d="M 0 0 M1405.68 140.489 Q1396.64 140.489 1393.16 142.555 Q1389.68 144.621 1389.68 149.604 Q1389.68 153.574 1392.27 155.923 Q1394.9 158.232 1399.4 158.232 Q1405.6 158.232 1409.32 153.857 Q1413.09 149.442 1413.09 142.15 L1413.09 140.489 L1405.68 140.489 M1420.54 137.411 L1420.54 163.296 L1413.09 163.296 L1413.09 156.409 Q1410.54 160.541 1406.73 162.526 Q1402.92 164.471 1397.41 164.471 Q1390.45 164.471 1386.31 160.582 Q1382.22 156.653 1382.22 150.09 Q1382.22 142.434 1387.33 138.545 Q1392.47 134.656 1402.64 134.656 L1413.09 134.656 L1413.09 133.927 Q1413.09 128.782 1409.69 125.987 Q1406.32 123.152 1400.21 123.152 Q1396.32 123.152 1392.63 124.083 Q1388.95 125.015 1385.54 126.878 L1385.54 119.992 Q1389.64 118.412 1393.48 117.642 Q1397.33 116.832 1400.98 116.832 Q1410.82 116.832 1415.68 121.936 Q1420.54 127.04 1420.54 137.411 Z" fill="#000000" fill-rule="evenodd" fill-opacity="1" /><path clip-path="url(#clip300)" d="M 0 0 M1457.29 119.263 L1457.29 126.311 Q1454.13 124.691 1450.72 123.881 Q1447.32 123.071 1443.67 123.071 Q1438.12 123.071 1435.33 124.772 Q1432.57 126.473 1432.57 129.876 Q1432.57 132.469 1434.56 133.967 Q1436.54 135.426 1442.54 136.763 L1445.09 137.33 Q1453.03 139.031 1456.35 142.15 Q1459.72 145.229 1459.72 150.779 Q1459.72 157.098 1454.69 160.784 Q1449.71 164.471 1440.96 164.471 Q1437.31 164.471 1433.34 163.742 Q1429.42 163.053 1425.04 161.635 L1425.04 153.938 Q1429.17 156.085 1433.18 157.179 Q1437.19 158.232 1441.12 158.232 Q1446.39 158.232 1449.22 156.45 Q1452.06 154.627 1452.06 151.346 Q1452.06 148.308 1449.99 146.687 Q1447.97 145.067 1441.04 143.568 L1438.45 142.96 Q1431.52 141.502 1428.44 138.504 Q1425.36 135.466 1425.36 130.2 Q1425.36 123.8 1429.9 120.316 Q1434.44 116.832 1442.78 116.832 Q1446.91 116.832 1450.56 117.44 Q1454.21 118.047 1457.29 119.263 Z" fill="#000000" fill-rule="evenodd" fill-opacity="1" /><path clip-path="url(#clip300)" d="M 0 0 M1496.46 119.263 L1496.46 126.311 Q1493.3 124.691 1489.9 123.881 Q1486.49 123.071 1482.85 123.071 Q1477.3 123.071 1474.5 124.772 Q1471.75 126.473 1471.75 129.876 Q1471.75 132.469 1473.73 133.967 Q1475.72 135.426 1481.71 136.763 L1484.26 137.33 Q1492.2 139.031 1495.53 142.15 Q1498.89 145.229 1498.89 150.779 Q1498.89 157.098 1493.86 160.784 Q1488.88 164.471 1480.13 164.471 Q1476.49 164.471 1472.52 163.742 Q1468.59 163.053 1464.21 161.635 L1464.21 153.938 Q1468.34 156.085 1472.35 157.179 Q1476.37 158.232 1480.29 158.232 Q1485.56 158.232 1488.4 156.45 Q1491.23 154.627 1491.23 151.346 Q1491.23 148.308 1489.17 146.687 Q1487.14 145.067 1480.21 143.568 L1477.62 142.96 Q1470.69 141.502 1467.62 138.504 Q1464.54 135.466 1464.54 130.2 Q1464.54 123.8 1469.07 120.316 Q1473.61 116.832 1481.96 116.832 Q1486.09 116.832 1489.73 117.44 Q1493.38 118.047 1496.46 119.263 Z" fill="#000000" fill-rule="evenodd" fill-opacity="1" /><path clip-path="url(#clip300)" d="M 0 0 M1533.4 102.816 L1568.16 102.816 L1568.16 109.703 L1541.58 109.703 L1541.58 127.527 L1565.57 127.527 L1565.57 134.413 L1541.58 134.413 L1541.58 163.296 L1533.4 163.296 L1533.4 102.816 Z" fill="#000000" fill-rule="evenodd" fill-opacity="1" /><polyline clip-path="url(#clip302)" style="stroke:#009af9; stroke-width:4; stroke-opacity:1; fill:none" points="
  260.955,1388.11 281.263,1375.59 301.572,1366.31 321.881,1357.95 342.19,1350.15 362.498,1342.73 382.807,1335.61 403.116,1328.72 423.425,1322.02 443.733,1315.49 
  464.042,1309.1 484.351,1302.84 504.66,1296.7 524.968,1290.65 545.277,1284.7 565.586,1278.83 585.895,1273.04 606.203,1267.32 626.512,1261.67 646.821,1256.08 
  667.13,1250.55 687.438,1245.08 707.747,1239.66 728.056,1234.28 748.365,1228.95 768.673,1223.67 788.982,1218.43 809.291,1213.23 829.6,1208.07 849.908,1202.94 
  870.217,1197.85 890.526,1192.79 910.835,1187.77 931.143,1182.78 951.452,1177.81 971.761,1172.88 992.07,1167.97 1012.38,1163.09 1032.69,1158.24 1053,1153.42 
  1073.3,1148.61 1093.61,1143.84 1113.92,1139.08 1134.23,1134.35 1154.54,1129.64 1174.85,1124.95 1195.16,1120.28 1215.47,1115.63 1235.77,1111.01 1256.08,1106.4 
  1276.39,1098.03 1296.7,1093.83 1317.01,1089.66 1337.32,1085.52 1357.63,1081.42 1377.94,1077.35 1398.24,1073.31 1418.55,1069.3 1438.86,1065.32 1459.17,1061.37 
  1479.48,1057.45 1499.79,1053.56 1520.1,1049.69 1540.41,1045.86 1560.71,1042.05 1581.02,1038.26 1601.33,1034.5 1621.64,1030.77 1641.95,1027.07 1662.26,1023.38 
  1682.57,1019.72 1702.88,1016.09 1723.18,1012.48 1743.49,1008.89 1763.8,1005.33 1784.11,1001.78 1804.42,998.261 1824.73,994.761 1845.04,991.282 1865.35,987.825 
  1885.65,984.388 1905.96,980.971 1926.27,977.574 1946.58,974.197 1966.89,970.839 1987.2,967.5 2007.51,964.181 2027.82,960.879 2048.12,957.596 2068.43,954.331 
  2088.74,951.084 2109.05,947.855 2129.36,944.642 2149.67,941.447 2169.98,938.269 2190.29,935.107 2210.59,931.962 2230.9,928.833 2251.21,925.72 2271.52,922.623 
  2291.83,919.542 
  "/>
<polyline clip-path="url(#clip302)" style="stroke:#e26f46; stroke-width:4; stroke-opacity:1; fill:none" points="
  260.955,1388.11 281.263,1369.58 301.572,1353.53 321.881,1338.3 342.19,1323.59 362.498,1309.24 382.807,1295.17 403.116,1281.34 423.425,1267.71 443.733,1254.24 
  464.042,1240.93 484.351,1227.75 504.66,1214.68 524.968,1201.73 545.277,1188.87 565.586,1176.11 585.895,1163.43 606.203,1150.83 626.512,1138.31 646.821,1125.85 
  667.13,1113.46 687.438,1101.13 707.747,1088.86 728.056,1076.65 748.365,1064.49 768.673,1052.38 788.982,1040.31 809.291,1028.3 829.6,1016.33 849.908,1004.4 
  870.217,992.509 890.526,980.661 910.835,968.85 931.143,957.077 951.452,945.339 971.761,933.636 992.07,921.966 1012.38,910.329 1032.69,898.723 1053,887.147 
  1073.3,875.601 1093.61,864.084 1113.92,852.595 1134.23,841.133 1154.54,829.698 1174.85,818.289 1195.16,806.905 1215.47,795.546 1235.77,784.211 1256.08,772.9 
  1276.39,761.611 1296.7,750.346 1317.01,739.102 1337.32,727.88 1357.63,716.679 1377.94,705.499 1398.24,694.339 1418.55,683.199 1438.86,672.079 1459.17,660.977 
  1479.48,649.895 1499.79,638.831 1520.1,627.785 1540.41,616.757 1560.71,605.746 1581.02,594.753 1601.33,583.776 1621.64,572.816 1641.95,561.873 1662.26,550.945 
  1682.57,540.034 1702.88,529.138 1723.18,518.257 1743.49,507.391 1763.8,496.541 1784.11,485.705 1804.42,474.883 1824.73,464.076 1845.04,453.282 1865.35,442.503 
  1885.65,431.737 1905.96,420.984 1926.27,410.245 1946.58,399.519 1966.89,388.806 1987.2,378.105 2007.51,367.417 2027.82,356.742 2048.12,346.079 2068.43,335.428 
  2088.74,324.789 2109.05,314.161 2129.36,303.546 2149.67,292.941 2169.98,282.349 2190.29,271.767 2210.59,261.197 2230.9,250.638 2251.21,240.089 2271.52,229.552 
  2291.83,219.025 
  "/>
<path clip-path="url(#clip300)" d="
M271.786 406.7 L563.663 406.7 L563.663 225.26 L271.786 225.26  Z
  " fill="#ffffff" fill-rule="evenodd" fill-opacity="1"/>
<polyline clip-path="url(#clip300)" style="stroke:#000000; stroke-width:4; stroke-opacity:1; fill:none" points="
  271.786,406.7 563.663,406.7 563.663,225.26 271.786,225.26 271.786,406.7 
  "/>
<polyline clip-path="url(#clip300)" style="stroke:#009af9; stroke-width:4; stroke-opacity:1; fill:none" points="
  295.705,285.74 439.22,285.74 
  "/>
<path clip-path="url(#clip300)" d="M 0 0 M475.038 280.474 Q471.519 280.474 469.621 283.02 Q467.63 285.682 467.63 290.08 Q467.63 294.733 469.598 297.418 Q471.589 300.08 475.038 300.08 Q478.44 300.08 480.431 297.395 Q482.422 294.71 482.422 290.08 Q482.422 285.844 480.431 283.02 Q478.602 280.474 475.038 280.474 M475.038 277.094 L489.181 277.094 L489.181 281.353 L484.413 281.353 Q486.936 284.964 486.936 290.08 Q486.936 296.446 483.764 300.057 Q480.593 303.691 475.038 303.691 Q469.459 303.691 466.311 300.057 Q463.14 296.446 463.14 290.08 Q463.14 283.668 466.311 280.08 Q468.927 277.094 475.038 277.094 Z" fill="#000000" fill-rule="evenodd" fill-opacity="1" /><path clip-path="url(#clip300)" d="M 0 0 M491.797 277.094 L512.028 277.094 L512.028 280.983 L496.01 299.617 L512.028 299.617 L512.028 303.02 L491.218 303.02 L491.218 299.131 L507.237 280.497 L491.797 280.497 L491.797 277.094 Z" fill="#000000" fill-rule="evenodd" fill-opacity="1" /><polyline clip-path="url(#clip300)" style="stroke:#e26f46; stroke-width:4; stroke-opacity:1; fill:none" points="
  295.705,346.22 439.22,346.22 
  "/>
<path clip-path="url(#clip300)" d="M 0 0 M475.038 340.954 Q471.519 340.954 469.621 343.5 Q467.63 346.162 467.63 350.56 Q467.63 355.213 469.598 357.898 Q471.589 360.56 475.038 360.56 Q478.44 360.56 480.431 357.875 Q482.422 355.19 482.422 350.56 Q482.422 346.324 480.431 343.5 Q478.602 340.954 475.038 340.954 M475.038 337.574 L489.181 337.574 L489.181 341.833 L484.413 341.833 Q486.936 345.444 486.936 350.56 Q486.936 356.926 483.764 360.537 Q480.593 364.171 475.038 364.171 Q469.459 364.171 466.311 360.537 Q463.14 356.926 463.14 350.56 Q463.14 344.148 466.311 340.56 Q468.927 337.574 475.038 337.574 Z" fill="#000000" fill-rule="evenodd" fill-opacity="1" /><path clip-path="url(#clip300)" d="M 0 0 M504.436 365.907 Q502.63 370.537 500.917 371.949 Q499.204 373.361 496.334 373.361 L492.931 373.361 L492.931 369.796 L495.431 369.796 Q497.19 369.796 498.163 368.963 Q499.135 368.129 500.315 365.027 L501.079 363.083 L490.593 337.574 L495.107 337.574 L503.209 357.852 L511.311 337.574 L515.824 337.574 L504.436 365.907 Z" fill="#000000" fill-rule="evenodd" fill-opacity="1" /></svg>
