<?xml version="1.0" encoding="utf-8"?>
<svg xmlns="http://www.w3.org/2000/svg" xmlns:xlink="http://www.w3.org/1999/xlink" width="600" height="400" viewBox="0 0 2400 1600">
<defs>
  <clipPath id="clip930">
    <rect x="0" y="0" width="2400" height="1600"/>
  </clipPath>
</defs>
<path clip-path="url(#clip930)" d="
M0 1600 L2400 1600 L2400 0 L0 0  Z
  " fill="#ffffff" fill-rule="evenodd" fill-opacity="1"/>
<defs>
  <clipPath id="clip931">
    <rect x="480" y="0" width="1681" height="1600"/>
  </clipPath>
</defs>
<path clip-path="url(#clip930)" d="
M273.14 1410.9 L2352.76 1410.9 L2352.76 123.472 L273.14 123.472  Z
  " fill="#ffffff" fill-rule="evenodd" fill-opacity="1"/>
<defs>
  <clipPath id="clip932">
    <rect x="273" y="123" width="2081" height="1288"/>
  </clipPath>
</defs>
<polyline clip-path="url(#clip932)" style="stroke:#000000; stroke-width:2; stroke-opacity:0.1; fill:none" points="
  331.997,1410.9 331.997,123.472 
  "/>
<polyline clip-path="url(#clip932)" style="stroke:#000000; stroke-width:2; stroke-opacity:0.1; fill:none" points="
  658.981,1410.9 658.981,123.472 
  "/>
<polyline clip-path="url(#clip932)" style="stroke:#000000; stroke-width:2; stroke-opacity:0.1; fill:none" points="
  985.964,1410.9 985.964,123.472 
  "/>
<polyline clip-path="url(#clip932)" style="stroke:#000000; stroke-width:2; stroke-opacity:0.1; fill:none" points="
  1312.95,1410.9 1312.95,123.472 
  "/>
<polyline clip-path="url(#clip932)" style="stroke:#000000; stroke-width:2; stroke-opacity:0.1; fill:none" points="
  1639.93,1410.9 1639.93,123.472 
  "/>
<polyline clip-path="url(#clip932)" style="stroke:#000000; stroke-width:2; stroke-opacity:0.1; fill:none" points="
  1966.92,1410.9 1966.92,123.472 
  "/>
<polyline clip-path="url(#clip932)" style="stroke:#000000; stroke-width:2; stroke-opacity:0.1; fill:none" points="
  2293.9,1410.9 2293.9,123.472 
  "/>
<polyline clip-path="url(#clip930)" style="stroke:#000000; stroke-width:4; stroke-opacity:1; fill:none" points="
  273.14,1410.9 2352.76,1410.9 
  "/>
<polyline clip-path="url(#clip930)" style="stroke:#000000; stroke-width:4; stroke-opacity:1; fill:none" points="
  331.997,1410.9 331.997,1395.45 
  "/>
<polyline clip-path="url(#clip930)" style="stroke:#000000; stroke-width:4; stroke-opacity:1; fill:none" points="
  658.981,1410.9 658.981,1395.45 
  "/>
<polyline clip-path="url(#clip930)" style="stroke:#000000; stroke-width:4; stroke-opacity:1; fill:none" points="
  985.964,1410.9 985.964,1395.45 
  "/>
<polyline clip-path="url(#clip930)" style="stroke:#000000; stroke-width:4; stroke-opacity:1; fill:none" points="
  1312.95,1410.9 1312.95,1395.45 
  "/>
<polyline clip-path="url(#clip930)" style="stroke:#000000; stroke-width:4; stroke-opacity:1; fill:none" points="
  1639.93,1410.9 1639.93,1395.45 
  "/>
<polyline clip-path="url(#clip930)" style="stroke:#000000; stroke-width:4; stroke-opacity:1; fill:none" points="
  1966.92,1410.9 1966.92,1395.45 
  "/>
<polyline clip-path="url(#clip930)" style="stroke:#000000; stroke-width:4; stroke-opacity:1; fill:none" points="
  2293.9,1410.9 2293.9,1395.45 
  "/>
<path clip-path="url(#clip930)" d="M 0 0 M299.957 1489.17 L307.596 1489.17 L307.596 1462.8 L299.286 1464.47 L299.286 1460.21 L307.55 1458.54 L312.226 1458.54 L312.226 1489.17 L319.865 1489.17 L319.865 1493.1 L299.957 1493.1 L299.957 1489.17 Z" fill="#000000" fill-rule="evenodd" fill-opacity="1" /><path clip-path="url(#clip930)" d="M 0 0 M334.934 1461.62 Q331.323 1461.62 329.494 1465.19 Q327.689 1468.73 327.689 1475.86 Q327.689 1482.97 329.494 1486.53 Q331.323 1490.07 334.934 1490.07 Q338.568 1490.07 340.374 1486.53 Q342.202 1482.97 342.202 1475.86 Q342.202 1468.73 340.374 1465.19 Q338.568 1461.62 334.934 1461.62 M334.934 1457.92 Q340.744 1457.92 343.8 1462.53 Q346.878 1467.11 346.878 1475.86 Q346.878 1484.59 343.8 1489.19 Q340.744 1493.78 334.934 1493.78 Q329.124 1493.78 326.045 1489.19 Q322.99 1484.59 322.99 1475.86 Q322.99 1467.11 326.045 1462.53 Q329.124 1457.92 334.934 1457.92 Z" fill="#000000" fill-rule="evenodd" fill-opacity="1" /><path clip-path="url(#clip930)" d="M 0 0 M351.449 1462.5 L364.708 1462.5 L364.708 1465.69 L346.878 1465.69 L346.878 1462.5 Q349.041 1460.26 352.765 1456.5 Q356.508 1452.72 357.467 1451.63 Q359.291 1449.58 360.006 1448.16 Q360.74 1446.74 360.74 1445.36 Q360.74 1443.12 359.16 1441.71 Q357.599 1440.3 355.079 1440.3 Q353.292 1440.3 351.298 1440.92 Q349.323 1441.54 347.066 1442.8 L347.066 1438.97 Q349.361 1438.05 351.355 1437.58 Q353.348 1437.11 355.003 1437.11 Q359.367 1437.11 361.962 1439.29 Q364.558 1441.47 364.558 1445.12 Q364.558 1446.85 363.899 1448.41 Q363.26 1449.95 361.548 1452.06 Q361.078 1452.6 358.558 1455.22 Q356.038 1457.81 351.449 1462.5 Z" fill="#000000" fill-rule="evenodd" fill-opacity="1" /><path clip-path="url(#clip930)" d="M 0 0 M626.612 1489.17 L634.251 1489.17 L634.251 1462.8 L625.94 1464.47 L625.94 1460.21 L634.204 1458.54 L638.88 1458.54 L638.88 1489.17 L646.519 1489.17 L646.519 1493.1 L626.612 1493.1 L626.612 1489.17 Z" fill="#000000" fill-rule="evenodd" fill-opacity="1" /><path clip-path="url(#clip930)" d="M 0 0 M661.588 1461.62 Q657.977 1461.62 656.149 1465.19 Q654.343 1468.73 654.343 1475.86 Q654.343 1482.97 656.149 1486.53 Q657.977 1490.07 661.588 1490.07 Q665.223 1490.07 667.028 1486.53 Q668.857 1482.97 668.857 1475.86 Q668.857 1468.73 667.028 1465.19 Q665.223 1461.62 661.588 1461.62 M661.588 1457.92 Q667.399 1457.92 670.454 1462.53 Q673.533 1467.11 673.533 1475.86 Q673.533 1484.59 670.454 1489.19 Q667.399 1493.78 661.588 1493.78 Q655.778 1493.78 652.7 1489.19 Q649.644 1484.59 649.644 1475.86 Q649.644 1467.11 652.7 1462.53 Q655.778 1457.92 661.588 1457.92 Z" fill="#000000" fill-rule="evenodd" fill-opacity="1" /><path clip-path="url(#clip930)" d="M 0 0 M686.228 1450.55 Q688.955 1451.14 690.479 1452.98 Q692.021 1454.82 692.021 1457.53 Q692.021 1461.69 689.162 1463.96 Q686.303 1466.24 681.037 1466.24 Q679.269 1466.24 677.388 1465.88 Q675.526 1465.54 673.533 1464.85 L673.533 1461.18 Q675.113 1462.1 676.993 1462.57 Q678.874 1463.04 680.924 1463.04 Q684.498 1463.04 686.36 1461.63 Q688.241 1460.22 688.241 1457.53 Q688.241 1455.05 686.491 1453.66 Q684.761 1452.25 681.658 1452.25 L678.385 1452.25 L678.385 1449.12 L681.808 1449.12 Q684.611 1449.12 686.096 1448.01 Q687.582 1446.89 687.582 1444.78 Q687.582 1442.62 686.04 1441.47 Q684.517 1440.3 681.658 1440.3 Q680.097 1440.3 678.31 1440.64 Q676.523 1440.98 674.379 1441.69 L674.379 1438.31 Q676.542 1437.71 678.423 1437.41 Q680.322 1437.11 681.996 1437.11 Q686.322 1437.11 688.842 1439.08 Q691.363 1441.04 691.363 1444.38 Q691.363 1446.72 690.027 1448.33 Q688.692 1449.93 686.228 1450.55 Z" fill="#000000" fill-rule="evenodd" fill-opacity="1" /><path clip-path="url(#clip930)" d="M 0 0 M952.608 1489.17 L960.247 1489.17 L960.247 1462.8 L951.937 1464.47 L951.937 1460.21 L960.201 1458.54 L964.876 1458.54 L964.876 1489.17 L972.515 1489.17 L972.515 1493.1 L952.608 1493.1 L952.608 1489.17 Z" fill="#000000" fill-rule="evenodd" fill-opacity="1" /><path clip-path="url(#clip930)" d="M 0 0 M987.585 1461.62 Q983.974 1461.62 982.145 1465.19 Q980.339 1468.73 980.339 1475.86 Q980.339 1482.97 982.145 1486.53 Q983.974 1490.07 987.585 1490.07 Q991.219 1490.07 993.024 1486.53 Q994.853 1482.97 994.853 1475.86 Q994.853 1468.73 993.024 1465.19 Q991.219 1461.62 987.585 1461.62 M987.585 1457.92 Q993.395 1457.92 996.45 1462.53 Q999.529 1467.11 999.529 1475.86 Q999.529 1484.59 996.45 1489.19 Q993.395 1493.78 987.585 1493.78 Q981.775 1493.78 978.696 1489.19 Q975.64 1484.59 975.64 1475.86 Q975.64 1467.11 978.696 1462.53 Q981.775 1457.92 987.585 1457.92 Z" fill="#000000" fill-rule="evenodd" fill-opacity="1" /><path clip-path="url(#clip930)" d="M 0 0 M1012.21 1440.92 L1002.61 1455.91 L1012.21 1455.91 L1012.21 1440.92 M1011.21 1437.61 L1015.99 1437.61 L1015.99 1455.91 L1019.99 1455.91 L1019.99 1459.07 L1015.99 1459.07 L1015.99 1465.69 L1012.21 1465.69 L1012.21 1459.07 L999.529 1459.07 L999.529 1455.41 L1011.21 1437.61 Z" fill="#000000" fill-rule="evenodd" fill-opacity="1" /><path clip-path="url(#clip930)" d="M 0 0 M1280.74 1489.17 L1288.38 1489.17 L1288.38 1462.8 L1280.07 1464.47 L1280.07 1460.21 L1288.33 1458.54 L1293.01 1458.54 L1293.01 1489.17 L1300.65 1489.17 L1300.65 1493.1 L1280.74 1493.1 L1280.74 1489.17 Z" fill="#000000" fill-rule="evenodd" fill-opacity="1" /><path clip-path="url(#clip930)" d="M 0 0 M1315.72 1461.62 Q1312.1 1461.62 1310.28 1465.19 Q1308.47 1468.73 1308.47 1475.86 Q1308.47 1482.97 1310.28 1486.53 Q1312.1 1490.07 1315.72 1490.07 Q1319.35 1490.07 1321.16 1486.53 Q1322.98 1482.97 1322.98 1475.86 Q1322.98 1468.73 1321.16 1465.19 Q1319.35 1461.62 1315.72 1461.62 M1315.72 1457.92 Q1321.53 1457.92 1324.58 1462.53 Q1327.66 1467.11 1327.66 1475.86 Q1327.66 1484.59 1324.58 1489.19 Q1321.53 1493.78 1315.72 1493.78 Q1309.91 1493.78 1306.83 1489.19 Q1303.77 1484.59 1303.77 1475.86 Q1303.77 1467.11 1306.83 1462.53 Q1309.91 1457.92 1315.72 1457.92 Z" fill="#000000" fill-rule="evenodd" fill-opacity="1" /><path clip-path="url(#clip930)" d="M 0 0 M1328.84 1437.61 L1343.76 1437.61 L1343.76 1440.81 L1332.32 1440.81 L1332.32 1447.69 Q1333.15 1447.41 1333.98 1447.28 Q1334.81 1447.13 1335.63 1447.13 Q1340.34 1447.13 1343.08 1449.71 Q1345.83 1452.28 1345.83 1456.68 Q1345.83 1461.22 1343.01 1463.74 Q1340.19 1466.24 1335.05 1466.24 Q1333.28 1466.24 1331.44 1465.94 Q1329.62 1465.64 1327.66 1465.04 L1327.66 1461.22 Q1329.35 1462.14 1331.16 1462.59 Q1332.96 1463.04 1334.98 1463.04 Q1338.23 1463.04 1340.13 1461.33 Q1342.03 1459.62 1342.03 1456.68 Q1342.03 1453.75 1340.13 1452.04 Q1338.23 1450.33 1334.98 1450.33 Q1333.45 1450.33 1331.93 1450.67 Q1330.42 1451 1328.84 1451.72 L1328.84 1437.61 Z" fill="#000000" fill-rule="evenodd" fill-opacity="1" /><path clip-path="url(#clip930)" d="M 0 0 M1607.11 1489.17 L1614.75 1489.17 L1614.75 1462.8 L1606.44 1464.47 L1606.44 1460.21 L1614.7 1458.54 L1619.38 1458.54 L1619.38 1489.17 L1627.02 1489.17 L1627.02 1493.1 L1607.11 1493.1 L1607.11 1489.17 Z" fill="#000000" fill-rule="evenodd" fill-opacity="1" /><path clip-path="url(#clip930)" d="M 0 0 M1642.09 1461.62 Q1638.48 1461.62 1636.65 1465.19 Q1634.84 1468.73 1634.84 1475.86 Q1634.84 1482.97 1636.65 1486.53 Q1638.48 1490.07 1642.09 1490.07 Q1645.72 1490.07 1647.53 1486.53 Q1649.36 1482.97 1649.36 1475.86 Q1649.36 1468.73 1647.53 1465.19 Q1645.72 1461.62 1642.09 1461.62 M1642.09 1457.92 Q1647.9 1457.92 1650.95 1462.53 Q1654.03 1467.11 1654.03 1475.86 Q1654.03 1484.59 1650.95 1489.19 Q1647.9 1493.78 1642.09 1493.78 Q1636.28 1493.78 1633.2 1489.19 Q1630.14 1484.59 1630.14 1475.86 Q1630.14 1467.11 1633.2 1462.53 Q1636.28 1457.92 1642.09 1457.92 Z" fill="#000000" fill-rule="evenodd" fill-opacity="1" /><path clip-path="url(#clip930)" d="M 0 0 M1664.06 1450.14 Q1661.5 1450.14 1659.99 1451.89 Q1658.51 1453.64 1658.51 1456.68 Q1658.51 1459.71 1659.99 1461.48 Q1661.5 1463.23 1664.06 1463.23 Q1666.61 1463.23 1668.1 1461.48 Q1669.61 1459.71 1669.61 1456.68 Q1669.61 1453.64 1668.1 1451.89 Q1666.61 1450.14 1664.06 1450.14 M1671.6 1438.23 L1671.6 1441.69 Q1670.17 1441.02 1668.7 1440.66 Q1667.25 1440.3 1665.82 1440.3 Q1662.06 1440.3 1660.07 1442.84 Q1658.09 1445.38 1657.81 1450.52 Q1658.92 1448.88 1660.6 1448.01 Q1662.27 1447.13 1664.28 1447.13 Q1668.51 1447.13 1670.96 1449.71 Q1673.42 1452.26 1673.42 1456.68 Q1673.42 1461.01 1670.87 1463.62 Q1668.31 1466.24 1664.06 1466.24 Q1659.19 1466.24 1656.61 1462.51 Q1654.03 1458.77 1654.03 1451.68 Q1654.03 1445.02 1657.19 1441.07 Q1660.35 1437.11 1665.67 1437.11 Q1667.1 1437.11 1668.55 1437.39 Q1670.02 1437.67 1671.6 1438.23 Z" fill="#000000" fill-rule="evenodd" fill-opacity="1" /><path clip-path="url(#clip930)" d="M 0 0 M1934.76 1489.17 L1942.4 1489.17 L1942.4 1462.8 L1934.09 1464.47 L1934.09 1460.21 L1942.36 1458.54 L1947.03 1458.54 L1947.03 1489.17 L1954.67 1489.17 L1954.67 1493.1 L1934.76 1493.1 L1934.76 1489.17 Z" fill="#000000" fill-rule="evenodd" fill-opacity="1" /><path clip-path="url(#clip930)" d="M 0 0 M1969.74 1461.62 Q1966.13 1461.62 1964.3 1465.19 Q1962.49 1468.73 1962.49 1475.86 Q1962.49 1482.97 1964.3 1486.53 Q1966.13 1490.07 1969.74 1490.07 Q1973.37 1490.07 1975.18 1486.53 Q1977.01 1482.97 1977.01 1475.86 Q1977.01 1468.73 1975.18 1465.19 Q1973.37 1461.62 1969.74 1461.62 M1969.74 1457.92 Q1975.55 1457.92 1978.6 1462.53 Q1981.68 1467.11 1981.68 1475.86 Q1981.68 1484.59 1978.6 1489.19 Q1975.55 1493.78 1969.74 1493.78 Q1963.93 1493.78 1960.85 1489.19 Q1957.79 1484.59 1957.79 1475.86 Q1957.79 1467.11 1960.85 1462.53 Q1963.93 1457.92 1969.74 1457.92 Z" fill="#000000" fill-rule="evenodd" fill-opacity="1" /><path clip-path="url(#clip930)" d="M 0 0 M1981.68 1437.61 L1999.74 1437.61 L1999.74 1439.23 L1989.55 1465.69 L1985.58 1465.69 L1995.17 1440.81 L1981.68 1440.81 L1981.68 1437.61 Z" fill="#000000" fill-rule="evenodd" fill-opacity="1" /><path clip-path="url(#clip930)" d="M 0 0 M2261.14 1489.17 L2268.78 1489.17 L2268.78 1462.8 L2260.47 1464.47 L2260.47 1460.21 L2268.74 1458.54 L2273.41 1458.54 L2273.41 1489.17 L2281.05 1489.17 L2281.05 1493.1 L2261.14 1493.1 L2261.14 1489.17 Z" fill="#000000" fill-rule="evenodd" fill-opacity="1" /><path clip-path="url(#clip930)" d="M 0 0 M2296.12 1461.62 Q2292.51 1461.62 2290.68 1465.19 Q2288.88 1468.73 2288.88 1475.86 Q2288.88 1482.97 2290.68 1486.53 Q2292.51 1490.07 2296.12 1490.07 Q2299.76 1490.07 2301.56 1486.53 Q2303.39 1482.97 2303.39 1475.86 Q2303.39 1468.73 2301.56 1465.19 Q2299.76 1461.62 2296.12 1461.62 M2296.12 1457.92 Q2301.93 1457.92 2304.99 1462.53 Q2308.07 1467.11 2308.07 1475.86 Q2308.07 1484.59 2304.99 1489.19 Q2301.93 1493.78 2296.12 1493.78 Q2290.31 1493.78 2287.23 1489.19 Q2284.18 1484.59 2284.18 1475.86 Q2284.18 1467.11 2287.23 1462.53 Q2290.31 1457.92 2296.12 1457.92 Z" fill="#000000" fill-rule="evenodd" fill-opacity="1" /><path clip-path="url(#clip930)" d="M 0 0 M2317.7 1452.36 Q2314.99 1452.36 2313.43 1453.81 Q2311.88 1455.26 2311.88 1457.79 Q2311.88 1460.33 2313.43 1461.78 Q2314.99 1463.23 2317.7 1463.23 Q2320.4 1463.23 2321.96 1461.78 Q2323.53 1460.31 2323.53 1457.79 Q2323.53 1455.26 2321.96 1453.81 Q2320.42 1452.36 2317.7 1452.36 M2313.9 1450.74 Q2311.45 1450.14 2310.08 1448.47 Q2308.72 1446.79 2308.72 1444.38 Q2308.72 1441.02 2311.11 1439.06 Q2313.52 1437.11 2317.7 1437.11 Q2321.89 1437.11 2324.28 1439.06 Q2326.67 1441.02 2326.67 1444.38 Q2326.67 1446.79 2325.29 1448.47 Q2323.94 1450.14 2321.51 1450.74 Q2324.26 1451.38 2325.78 1453.24 Q2327.32 1455.1 2327.32 1457.79 Q2327.32 1461.88 2324.82 1464.06 Q2322.34 1466.24 2317.7 1466.24 Q2313.05 1466.24 2310.55 1464.06 Q2308.07 1461.88 2308.07 1457.79 Q2308.07 1455.1 2309.61 1453.24 Q2311.15 1451.38 2313.9 1450.74 M2312.5 1444.74 Q2312.5 1446.92 2313.86 1448.15 Q2315.23 1449.37 2317.7 1449.37 Q2320.14 1449.37 2321.51 1448.15 Q2322.9 1446.92 2322.9 1444.74 Q2322.9 1442.56 2321.51 1441.34 Q2320.14 1440.11 2317.7 1440.11 Q2315.23 1440.11 2313.86 1441.34 Q2312.5 1442.56 2312.5 1444.74 Z" fill="#000000" fill-rule="evenodd" fill-opacity="1" /><path clip-path="url(#clip930)" d="M 0 0 M1300.12 1539.91 Q1302.19 1540.61 1304.13 1542.9 Q1306.1 1545.19 1308.08 1549.2 L1314.6 1562.19 L1307.7 1562.19 L1301.62 1550 Q1299.26 1545.22 1297.03 1543.66 Q1294.84 1542.1 1291.02 1542.1 L1284.02 1542.1 L1284.02 1562.19 L1277.59 1562.19 L1277.59 1514.67 L1292.1 1514.67 Q1300.25 1514.67 1304.26 1518.07 Q1308.27 1521.48 1308.27 1528.35 Q1308.27 1532.84 1306.17 1535.8 Q1304.1 1538.76 1300.12 1539.91 M1284.02 1519.95 L1284.02 1536.82 L1292.1 1536.82 Q1296.75 1536.82 1299.1 1534.69 Q1301.49 1532.52 1301.49 1528.35 Q1301.49 1524.18 1299.1 1522.08 Q1296.75 1519.95 1292.1 1519.95 L1284.02 1519.95 Z" fill="#000000" fill-rule="evenodd" fill-opacity="1" /><path clip-path="url(#clip930)" d="M 0 0 M1348.31 1542.9 L1348.31 1545.76 L1321.38 1545.76 Q1321.76 1551.81 1325.01 1554.99 Q1328.29 1558.14 1334.11 1558.14 Q1337.49 1558.14 1340.64 1557.32 Q1343.82 1556.49 1346.94 1554.83 L1346.94 1560.37 Q1343.79 1561.71 1340.48 1562.41 Q1337.17 1563.11 1333.76 1563.11 Q1325.23 1563.11 1320.24 1558.14 Q1315.27 1553.18 1315.27 1544.71 Q1315.27 1535.96 1319.98 1530.83 Q1324.72 1525.68 1332.75 1525.68 Q1339.94 1525.68 1344.11 1530.33 Q1348.31 1534.94 1348.31 1542.9 M1342.45 1541.18 Q1342.39 1536.37 1339.75 1533.51 Q1337.14 1530.64 1332.81 1530.64 Q1327.91 1530.64 1324.95 1533.41 Q1322.02 1536.18 1321.57 1541.21 L1342.45 1541.18 Z" fill="#000000" fill-rule="evenodd" fill-opacity="1" /><polyline clip-path="url(#clip932)" style="stroke:#000000; stroke-width:2; stroke-opacity:0.1; fill:none" points="
  273.14,1257.97 2352.76,1257.97 
  "/>
<polyline clip-path="url(#clip932)" style="stroke:#000000; stroke-width:2; stroke-opacity:0.1; fill:none" points="
  273.14,953.995 2352.76,953.995 
  "/>
<polyline clip-path="url(#clip932)" style="stroke:#000000; stroke-width:2; stroke-opacity:0.1; fill:none" points="
  273.14,650.022 2352.76,650.022 
  "/>
<polyline clip-path="url(#clip932)" style="stroke:#000000; stroke-width:2; stroke-opacity:0.1; fill:none" points="
  273.14,346.049 2352.76,346.049 
  "/>
<polyline clip-path="url(#clip930)" style="stroke:#000000; stroke-width:4; stroke-opacity:1; fill:none" points="
  273.14,1410.9 273.14,123.472 
  "/>
<polyline clip-path="url(#clip930)" style="stroke:#000000; stroke-width:4; stroke-opacity:1; fill:none" points="
  273.14,1257.97 298.095,1257.97 
  "/>
<polyline clip-path="url(#clip930)" style="stroke:#000000; stroke-width:4; stroke-opacity:1; fill:none" points="
  273.14,953.995 298.095,953.995 
  "/>
<polyline clip-path="url(#clip930)" style="stroke:#000000; stroke-width:4; stroke-opacity:1; fill:none" points="
  273.14,650.022 298.095,650.022 
  "/>
<polyline clip-path="url(#clip930)" style="stroke:#000000; stroke-width:4; stroke-opacity:1; fill:none" points="
  273.14,346.049 298.095,346.049 
  "/>
<path clip-path="url(#clip930)" d="M 0 0 M115.42 1277.76 L123.059 1277.76 L123.059 1251.39 L114.749 1253.06 L114.749 1248.8 L123.013 1247.14 L127.689 1247.14 L127.689 1277.76 L135.328 1277.76 L135.328 1281.7 L115.42 1281.7 L115.42 1277.76 Z" fill="#000000" fill-rule="evenodd" fill-opacity="1" /><path clip-path="url(#clip930)" d="M 0 0 M150.397 1250.21 Q146.786 1250.21 144.957 1253.78 Q143.152 1257.32 143.152 1264.45 Q143.152 1271.56 144.957 1275.12 Q146.786 1278.66 150.397 1278.66 Q154.031 1278.66 155.837 1275.12 Q157.666 1271.56 157.666 1264.45 Q157.666 1257.32 155.837 1253.78 Q154.031 1250.21 150.397 1250.21 M150.397 1246.51 Q156.207 1246.51 159.263 1251.12 Q162.341 1255.7 162.341 1264.45 Q162.341 1273.18 159.263 1277.78 Q156.207 1282.37 150.397 1282.37 Q144.587 1282.37 141.508 1277.78 Q138.453 1273.18 138.453 1264.45 Q138.453 1255.7 141.508 1251.12 Q144.587 1246.51 150.397 1246.51 Z" fill="#000000" fill-rule="evenodd" fill-opacity="1" /><path clip-path="url(#clip930)" d="M 0 0 M162.341 1240.61 L186.453 1240.61 L186.453 1243.81 L162.341 1243.81 L162.341 1240.61 Z" fill="#000000" fill-rule="evenodd" fill-opacity="1" /><path clip-path="url(#clip930)" d="M 0 0 M193.845 1251.09 L207.104 1251.09 L207.104 1254.28 L189.274 1254.28 L189.274 1251.09 Q191.437 1248.85 195.161 1245.09 Q198.904 1241.31 199.863 1240.22 Q201.687 1238.17 202.402 1236.76 Q203.136 1235.33 203.136 1233.95 Q203.136 1231.72 201.556 1230.3 Q199.995 1228.89 197.474 1228.89 Q195.688 1228.89 193.694 1229.52 Q191.719 1230.14 189.462 1231.4 L189.462 1227.56 Q191.757 1226.64 193.75 1226.17 Q195.744 1225.7 197.399 1225.7 Q201.763 1225.7 204.358 1227.88 Q206.954 1230.06 206.954 1233.71 Q206.954 1235.44 206.295 1237 Q205.656 1238.54 203.944 1240.65 Q203.474 1241.19 200.954 1243.81 Q198.434 1246.4 193.845 1251.09 Z" fill="#000000" fill-rule="evenodd" fill-opacity="1" /><path clip-path="url(#clip930)" d="M 0 0 M211.223 1249.51 L215.191 1249.51 L215.191 1254.28 L211.223 1254.28 L211.223 1249.51 Z" fill="#000000" fill-rule="evenodd" fill-opacity="1" /><path clip-path="url(#clip930)" d="M 0 0 M227.435 1228.71 Q224.501 1228.71 223.015 1231.6 Q221.548 1234.48 221.548 1240.27 Q221.548 1246.05 223.015 1248.94 Q224.501 1251.82 227.435 1251.82 Q230.388 1251.82 231.855 1248.94 Q233.341 1246.05 233.341 1240.27 Q233.341 1234.48 231.855 1231.6 Q230.388 1228.71 227.435 1228.71 M227.435 1225.7 Q232.156 1225.7 234.639 1229.44 Q237.14 1233.16 237.14 1240.27 Q237.14 1247.36 234.639 1251.11 Q232.156 1254.83 227.435 1254.83 Q222.714 1254.83 220.213 1251.11 Q217.73 1247.36 217.73 1240.27 Q217.73 1233.16 220.213 1229.44 Q222.714 1225.7 227.435 1225.7 Z" fill="#000000" fill-rule="evenodd" fill-opacity="1" /><path clip-path="url(#clip930)" d="M 0 0 M115.928 973.787 L123.567 973.787 L123.567 947.422 L115.257 949.088 L115.257 944.829 L123.521 943.162 L128.197 943.162 L128.197 973.787 L135.836 973.787 L135.836 977.722 L115.928 977.722 L115.928 973.787 Z" fill="#000000" fill-rule="evenodd" fill-opacity="1" /><path clip-path="url(#clip930)" d="M 0 0 M150.905 946.241 Q147.294 946.241 145.465 949.806 Q143.66 953.348 143.66 960.477 Q143.66 967.584 145.465 971.148 Q147.294 974.69 150.905 974.69 Q154.539 974.69 156.345 971.148 Q158.173 967.584 158.173 960.477 Q158.173 953.348 156.345 949.806 Q154.539 946.241 150.905 946.241 M150.905 942.537 Q156.715 942.537 159.771 947.144 Q162.849 951.727 162.849 960.477 Q162.849 969.204 159.771 973.81 Q156.715 978.394 150.905 978.394 Q145.095 978.394 142.016 973.81 Q138.961 969.204 138.961 960.477 Q138.961 951.727 142.016 947.144 Q145.095 942.537 150.905 942.537 Z" fill="#000000" fill-rule="evenodd" fill-opacity="1" /><path clip-path="url(#clip930)" d="M 0 0 M162.849 936.639 L186.961 936.639 L186.961 939.836 L162.849 939.836 L162.849 936.639 Z" fill="#000000" fill-rule="evenodd" fill-opacity="1" /><path clip-path="url(#clip930)" d="M 0 0 M191.738 947.115 L197.945 947.115 L197.945 925.693 L191.193 927.047 L191.193 923.586 L197.907 922.232 L201.706 922.232 L201.706 947.115 L207.913 947.115 L207.913 950.312 L191.738 950.312 L191.738 947.115 Z" fill="#000000" fill-rule="evenodd" fill-opacity="1" /><path clip-path="url(#clip930)" d="M 0 0 M212.032 945.535 L216 945.535 L216 950.312 L212.032 950.312 L212.032 945.535 Z" fill="#000000" fill-rule="evenodd" fill-opacity="1" /><path clip-path="url(#clip930)" d="M 0 0 M220.157 922.232 L235.071 922.232 L235.071 925.429 L223.636 925.429 L223.636 932.313 Q224.464 932.031 225.291 931.899 Q226.119 931.749 226.946 931.749 Q231.648 931.749 234.394 934.325 Q237.14 936.902 237.14 941.303 Q237.14 945.836 234.319 948.356 Q231.498 950.858 226.363 950.858 Q224.595 950.858 222.752 950.557 Q220.928 950.256 218.972 949.654 L218.972 945.836 Q220.664 946.757 222.47 947.209 Q224.275 947.66 226.288 947.66 Q229.542 947.66 231.441 945.949 Q233.341 944.237 233.341 941.303 Q233.341 938.369 231.441 936.658 Q229.542 934.946 226.288 934.946 Q224.764 934.946 223.241 935.285 Q221.736 935.623 220.157 936.338 L220.157 922.232 Z" fill="#000000" fill-rule="evenodd" fill-opacity="1" /><path clip-path="url(#clip930)" d="M 0 0 M115.12 669.815 L122.758 669.815 L122.758 643.449 L114.448 645.116 L114.448 640.856 L122.712 639.19 L127.388 639.19 L127.388 669.815 L135.027 669.815 L135.027 673.75 L115.12 673.75 L115.12 669.815 Z" fill="#000000" fill-rule="evenodd" fill-opacity="1" /><path clip-path="url(#clip930)" d="M 0 0 M150.096 642.268 Q146.485 642.268 144.656 645.833 Q142.851 649.375 142.851 656.504 Q142.851 663.611 144.656 667.176 Q146.485 670.717 150.096 670.717 Q153.73 670.717 155.536 667.176 Q157.365 663.611 157.365 656.504 Q157.365 649.375 155.536 645.833 Q153.73 642.268 150.096 642.268 M150.096 638.565 Q155.906 638.565 158.962 643.171 Q162.041 647.755 162.041 656.504 Q162.041 665.231 158.962 669.838 Q155.906 674.421 150.096 674.421 Q144.286 674.421 141.207 669.838 Q138.152 665.231 138.152 656.504 Q138.152 647.755 141.207 643.171 Q144.286 638.565 150.096 638.565 Z" fill="#000000" fill-rule="evenodd" fill-opacity="1" /><path clip-path="url(#clip930)" d="M 0 0 M162.041 632.666 L186.152 632.666 L186.152 635.863 L162.041 635.863 L162.041 632.666 Z" fill="#000000" fill-rule="evenodd" fill-opacity="1" /><path clip-path="url(#clip930)" d="M 0 0 M190.929 643.142 L197.136 643.142 L197.136 621.72 L190.384 623.074 L190.384 619.614 L197.098 618.259 L200.897 618.259 L200.897 643.142 L207.104 643.142 L207.104 646.339 L190.929 646.339 L190.929 643.142 Z" fill="#000000" fill-rule="evenodd" fill-opacity="1" /><path clip-path="url(#clip930)" d="M 0 0 M211.223 641.562 L215.191 641.562 L215.191 646.339 L211.223 646.339 L211.223 641.562 Z" fill="#000000" fill-rule="evenodd" fill-opacity="1" /><path clip-path="url(#clip930)" d="M 0 0 M227.435 620.761 Q224.501 620.761 223.015 623.657 Q221.548 626.535 221.548 632.328 Q221.548 638.102 223.015 640.998 Q224.501 643.876 227.435 643.876 Q230.388 643.876 231.855 640.998 Q233.341 638.102 233.341 632.328 Q233.341 626.535 231.855 623.657 Q230.388 620.761 227.435 620.761 M227.435 617.752 Q232.156 617.752 234.639 621.494 Q237.14 625.218 237.14 632.328 Q237.14 639.418 234.639 643.161 Q232.156 646.885 227.435 646.885 Q222.714 646.885 220.213 643.161 Q217.73 639.418 217.73 632.328 Q217.73 625.218 220.213 621.494 Q222.714 617.752 227.435 617.752 Z" fill="#000000" fill-rule="evenodd" fill-opacity="1" /><path clip-path="url(#clip930)" d="M 0 0 M114.931 365.842 L122.57 365.842 L122.57 339.476 L114.26 341.143 L114.26 336.884 L122.524 335.217 L127.2 335.217 L127.2 365.842 L134.839 365.842 L134.839 369.777 L114.931 369.777 L114.931 365.842 Z" fill="#000000" fill-rule="evenodd" fill-opacity="1" /><path clip-path="url(#clip930)" d="M 0 0 M149.908 338.296 Q146.297 338.296 144.468 341.86 Q142.663 345.402 142.663 352.532 Q142.663 359.638 144.468 363.203 Q146.297 366.745 149.908 366.745 Q153.542 366.745 155.348 363.203 Q157.177 359.638 157.177 352.532 Q157.177 345.402 155.348 341.86 Q153.542 338.296 149.908 338.296 M149.908 334.592 Q155.718 334.592 158.774 339.198 Q161.852 343.782 161.852 352.532 Q161.852 361.259 158.774 365.865 Q155.718 370.448 149.908 370.448 Q144.098 370.448 141.019 365.865 Q137.964 361.259 137.964 352.532 Q137.964 343.782 141.019 339.198 Q144.098 334.592 149.908 334.592 Z" fill="#000000" fill-rule="evenodd" fill-opacity="1" /><path clip-path="url(#clip930)" d="M 0 0 M161.852 328.693 L185.964 328.693 L185.964 331.891 L161.852 331.891 L161.852 328.693 Z" fill="#000000" fill-rule="evenodd" fill-opacity="1" /><path clip-path="url(#clip930)" d="M 0 0 M198.208 316.788 Q195.274 316.788 193.788 319.684 Q192.321 322.562 192.321 328.355 Q192.321 334.129 193.788 337.025 Q195.274 339.903 198.208 339.903 Q201.161 339.903 202.628 337.025 Q204.114 334.129 204.114 328.355 Q204.114 322.562 202.628 319.684 Q201.161 316.788 198.208 316.788 M198.208 313.779 Q202.929 313.779 205.411 317.522 Q207.913 321.245 207.913 328.355 Q207.913 335.445 205.411 339.188 Q202.929 342.912 198.208 342.912 Q193.487 342.912 190.986 339.188 Q188.503 335.445 188.503 328.355 Q188.503 321.245 190.986 317.522 Q193.487 313.779 198.208 313.779 Z" fill="#000000" fill-rule="evenodd" fill-opacity="1" /><path clip-path="url(#clip930)" d="M 0 0 M212.032 337.589 L216 337.589 L216 342.367 L212.032 342.367 L212.032 337.589 Z" fill="#000000" fill-rule="evenodd" fill-opacity="1" /><path clip-path="url(#clip930)" d="M 0 0 M220.157 314.287 L235.071 314.287 L235.071 317.484 L223.636 317.484 L223.636 324.368 Q224.464 324.085 225.291 323.954 Q226.119 323.803 226.946 323.803 Q231.648 323.803 234.394 326.38 Q237.14 328.957 237.14 333.358 Q237.14 337.89 234.319 340.411 Q231.498 342.912 226.363 342.912 Q224.595 342.912 222.752 342.611 Q220.928 342.31 218.972 341.708 L218.972 337.89 Q220.664 338.812 222.47 339.263 Q224.275 339.715 226.288 339.715 Q229.542 339.715 231.441 338.003 Q233.341 336.292 233.341 333.358 Q233.341 330.424 231.441 328.712 Q229.542 327.001 226.288 327.001 Q224.764 327.001 223.241 327.339 Q221.736 327.678 220.157 328.392 L220.157 314.287 Z" fill="#000000" fill-rule="evenodd" fill-opacity="1" /><path clip-path="url(#clip930)" d="M 0 0 M38.479 755.838 L43.3487 755.838 L43.3487 761.439 Q43.3487 764.59 44.6219 765.832 Q45.895 767.041 49.2052 767.041 L52.3562 767.041 L52.3562 757.397 L56.9077 757.397 L56.9077 767.041 L88.0042 767.041 L88.0042 772.929 L56.9077 772.929 L56.9077 778.531 L52.3562 778.531 L52.3562 772.929 L49.8736 772.929 Q43.9216 772.929 41.2162 770.16 Q38.479 767.391 38.479 761.376 L38.479 755.838 Z" fill="#000000" fill-rule="evenodd" fill-opacity="1" /><path clip-path="url(#clip930)" d="M 0 0 M595.513 18.8205 L595.513 65.8515 L605.397 65.8515 Q617.914 65.8515 623.707 60.1802 Q629.54 54.509 629.54 42.2752 Q629.54 30.1225 623.707 24.4918 Q617.914 18.8205 605.397 18.8205 L595.513 18.8205 M587.33 12.096 L604.141 12.096 Q621.722 12.096 629.945 19.4281 Q638.169 26.7198 638.169 42.2752 Q638.169 57.9117 629.905 65.2439 Q621.641 72.576 604.141 72.576 L587.33 72.576 L587.33 12.096 Z" fill="#000000" fill-rule="evenodd" fill-opacity="1" /><path clip-path="url(#clip930)" d="M 0 0 M666.606 49.7694 Q657.572 49.7694 654.089 51.8354 Q650.605 53.9013 650.605 58.8839 Q650.605 62.8538 653.197 65.2034 Q655.831 67.5124 660.327 67.5124 Q666.525 67.5124 670.252 63.1374 Q674.019 58.7219 674.019 51.4303 L674.019 49.7694 L666.606 49.7694 M681.473 46.6907 L681.473 72.576 L674.019 72.576 L674.019 65.6895 Q671.467 69.8214 667.659 71.8063 Q663.851 73.7508 658.342 73.7508 Q651.375 73.7508 647.243 69.8619 Q643.151 65.9325 643.151 59.3701 Q643.151 51.7138 648.255 47.825 Q653.4 43.9361 663.568 43.9361 L674.019 43.9361 L674.019 43.2069 Q674.019 38.0623 670.616 35.2672 Q667.254 32.4315 661.137 32.4315 Q657.248 32.4315 653.562 33.3632 Q649.876 34.295 646.473 36.1584 L646.473 29.2718 Q650.564 27.692 654.413 26.9223 Q658.261 26.1121 661.907 26.1121 Q671.751 26.1121 676.612 31.2163 Q681.473 36.3204 681.473 46.6907 Z" fill="#000000" fill-rule="evenodd" fill-opacity="1" /><path clip-path="url(#clip930)" d="M 0 0 M715.581 34.1734 Q714.326 33.4443 712.827 33.1202 Q711.368 32.7556 709.586 32.7556 Q703.267 32.7556 699.864 36.8875 Q696.502 40.9789 696.502 48.6757 L696.502 72.576 L689.007 72.576 L689.007 27.2059 L696.502 27.2059 L696.502 34.2544 Q698.851 30.1225 702.618 28.1376 Q706.386 26.1121 711.774 26.1121 Q712.543 26.1121 713.475 26.2337 Q714.407 26.3147 715.541 26.5172 L715.581 34.1734 Z" fill="#000000" fill-rule="evenodd" fill-opacity="1" /><path clip-path="url(#clip930)" d="M 0 0 M754.227 28.9478 L754.227 35.9153 Q751.067 34.1734 747.867 33.3227 Q744.707 32.4315 741.467 32.4315 Q734.216 32.4315 730.205 37.0496 Q726.195 41.6271 726.195 49.9314 Q726.195 58.2358 730.205 62.8538 Q734.216 67.4314 741.467 67.4314 Q744.707 67.4314 747.867 66.5807 Q751.067 65.6895 754.227 63.9476 L754.227 70.8341 Q751.108 72.2924 747.746 73.0216 Q744.424 73.7508 740.656 73.7508 Q730.408 73.7508 724.372 67.3098 Q718.336 60.8689 718.336 49.9314 Q718.336 38.832 724.412 32.472 Q730.529 26.1121 741.143 26.1121 Q744.586 26.1121 747.867 26.8413 Q751.148 27.5299 754.227 28.9478 Z" fill="#000000" fill-rule="evenodd" fill-opacity="1" /><path clip-path="url(#clip930)" d="M 0 0 M780.922 76.7889 Q777.763 84.8907 774.765 87.3618 Q771.767 89.8329 766.744 89.8329 L760.789 89.8329 L760.789 83.5945 L765.164 83.5945 Q768.243 83.5945 769.944 82.1361 Q771.646 80.6778 773.712 75.2496 L775.049 71.8468 L756.698 27.2059 L764.597 27.2059 L778.775 62.6918 L792.954 27.2059 L800.853 27.2059 L780.922 76.7889 Z" fill="#000000" fill-rule="evenodd" fill-opacity="1" /><path clip-path="url(#clip930)" d="M 0 0 M858.011 9.54393 L858.011 15.7418 L850.882 15.7418 Q846.871 15.7418 845.291 17.3622 Q843.752 18.9825 843.752 23.1955 L843.752 27.2059 L856.026 27.2059 L856.026 32.9987 L843.752 32.9987 L843.752 72.576 L836.258 72.576 L836.258 32.9987 L829.128 32.9987 L829.128 27.2059 L836.258 27.2059 L836.258 24.0462 Q836.258 16.471 839.782 13.0277 Q843.306 9.54393 850.963 9.54393 L858.011 9.54393 Z" fill="#000000" fill-rule="evenodd" fill-opacity="1" /><path clip-path="url(#clip930)" d="M 0 0 M892.12 34.1734 Q890.864 33.4443 889.365 33.1202 Q887.907 32.7556 886.124 32.7556 Q879.805 32.7556 876.402 36.8875 Q873.04 40.9789 873.04 48.6757 L873.04 72.576 L865.546 72.576 L865.546 27.2059 L873.04 27.2059 L873.04 34.2544 Q875.39 30.1225 879.157 28.1376 Q882.924 26.1121 888.312 26.1121 Q889.082 26.1121 890.013 26.2337 Q890.945 26.3147 892.079 26.5172 L892.12 34.1734 Z" fill="#000000" fill-rule="evenodd" fill-opacity="1" /><path clip-path="url(#clip930)" d="M 0 0 M899.938 27.2059 L907.392 27.2059 L907.392 72.576 L899.938 72.576 L899.938 27.2059 M899.938 9.54393 L907.392 9.54393 L907.392 18.9825 L899.938 18.9825 L899.938 9.54393 Z" fill="#000000" fill-rule="evenodd" fill-opacity="1" /><path clip-path="url(#clip930)" d="M 0 0 M947.86 28.9478 L947.86 35.9153 Q944.701 34.1734 941.5 33.3227 Q938.341 32.4315 935.1 32.4315 Q927.849 32.4315 923.838 37.0496 Q919.828 41.6271 919.828 49.9314 Q919.828 58.2358 923.838 62.8538 Q927.849 67.4314 935.1 67.4314 Q938.341 67.4314 941.5 66.5807 Q944.701 65.6895 947.86 63.9476 L947.86 70.8341 Q944.741 72.2924 941.379 73.0216 Q938.057 73.7508 934.29 73.7508 Q924.041 73.7508 918.005 67.3098 Q911.969 60.8689 911.969 49.9314 Q911.969 38.832 918.046 32.472 Q924.162 26.1121 934.776 26.1121 Q938.219 26.1121 941.5 26.8413 Q944.782 27.5299 947.86 28.9478 Z" fill="#000000" fill-rule="evenodd" fill-opacity="1" /><path clip-path="url(#clip930)" d="M 0 0 M963.051 14.324 L963.051 27.2059 L978.404 27.2059 L978.404 32.9987 L963.051 32.9987 L963.051 57.6282 Q963.051 63.1779 964.55 64.7578 Q966.089 66.3376 970.748 66.3376 L978.404 66.3376 L978.404 72.576 L970.748 72.576 Q962.119 72.576 958.838 69.3758 Q955.557 66.1351 955.557 57.6282 L955.557 32.9987 L950.088 32.9987 L950.088 27.2059 L955.557 27.2059 L955.557 14.324 L963.051 14.324 Z" fill="#000000" fill-rule="evenodd" fill-opacity="1" /><path clip-path="url(#clip930)" d="M 0 0 M986.222 27.2059 L993.676 27.2059 L993.676 72.576 L986.222 72.576 L986.222 27.2059 M986.222 9.54393 L993.676 9.54393 L993.676 18.9825 L986.222 18.9825 L986.222 9.54393 Z" fill="#000000" fill-rule="evenodd" fill-opacity="1" /><path clip-path="url(#clip930)" d="M 0 0 M1019.08 32.4315 Q1013.08 32.4315 1009.6 37.1306 Q1006.11 41.7891 1006.11 49.9314 Q1006.11 58.0738 1009.56 62.7728 Q1013.04 67.4314 1019.08 67.4314 Q1025.03 67.4314 1028.51 62.7323 Q1032 58.0333 1032 49.9314 Q1032 41.8701 1028.51 37.1711 Q1025.03 32.4315 1019.08 32.4315 M1019.08 26.1121 Q1028.8 26.1121 1034.35 32.4315 Q1039.9 38.7509 1039.9 49.9314 Q1039.9 61.0714 1034.35 67.4314 Q1028.8 73.7508 1019.08 73.7508 Q1009.31 73.7508 1003.76 67.4314 Q998.253 61.0714 998.253 49.9314 Q998.253 38.7509 1003.76 32.4315 Q1009.31 26.1121 1019.08 26.1121 Z" fill="#000000" fill-rule="evenodd" fill-opacity="1" /><path clip-path="url(#clip930)" d="M 0 0 M1085.43 45.1919 L1085.43 72.576 L1077.98 72.576 L1077.98 45.4349 Q1077.98 38.994 1075.46 35.7938 Q1072.95 32.5936 1067.93 32.5936 Q1061.89 32.5936 1058.41 36.4419 Q1054.93 40.2903 1054.93 46.9338 L1054.93 72.576 L1047.43 72.576 L1047.43 27.2059 L1054.93 27.2059 L1054.93 34.2544 Q1057.6 30.163 1061.2 28.1376 Q1064.85 26.1121 1069.59 26.1121 Q1077.41 26.1121 1081.42 30.9732 Q1085.43 35.7938 1085.43 45.1919 Z" fill="#000000" fill-rule="evenodd" fill-opacity="1" /><path clip-path="url(#clip930)" d="M 0 0 M1142.59 9.54393 L1142.59 15.7418 L1135.46 15.7418 Q1131.45 15.7418 1129.87 17.3622 Q1128.33 18.9825 1128.33 23.1955 L1128.33 27.2059 L1140.6 27.2059 L1140.6 32.9987 L1128.33 32.9987 L1128.33 72.576 L1120.83 72.576 L1120.83 32.9987 L1113.7 32.9987 L1113.7 27.2059 L1120.83 27.2059 L1120.83 24.0462 Q1120.83 16.471 1124.36 13.0277 Q1127.88 9.54393 1135.54 9.54393 L1142.59 9.54393 Z" fill="#000000" fill-rule="evenodd" fill-opacity="1" /><path clip-path="url(#clip930)" d="M 0 0 M1171.02 49.7694 Q1161.99 49.7694 1158.51 51.8354 Q1155.02 53.9013 1155.02 58.8839 Q1155.02 62.8538 1157.62 65.2034 Q1160.25 67.5124 1164.75 67.5124 Q1170.94 67.5124 1174.67 63.1374 Q1178.44 58.7219 1178.44 51.4303 L1178.44 49.7694 L1171.02 49.7694 M1185.89 46.6907 L1185.89 72.576 L1178.44 72.576 L1178.44 65.6895 Q1175.89 69.8214 1172.08 71.8063 Q1168.27 73.7508 1162.76 73.7508 Q1155.79 73.7508 1151.66 69.8619 Q1147.57 65.9325 1147.57 59.3701 Q1147.57 51.7138 1152.67 47.825 Q1157.82 43.9361 1167.99 43.9361 L1178.44 43.9361 L1178.44 43.2069 Q1178.44 38.0623 1175.03 35.2672 Q1171.67 32.4315 1165.56 32.4315 Q1161.67 32.4315 1157.98 33.3632 Q1154.29 34.295 1150.89 36.1584 L1150.89 29.2718 Q1154.98 27.692 1158.83 26.9223 Q1162.68 26.1121 1166.33 26.1121 Q1176.17 26.1121 1181.03 31.2163 Q1185.89 36.3204 1185.89 46.6907 Z" fill="#000000" fill-rule="evenodd" fill-opacity="1" /><path clip-path="url(#clip930)" d="M 0 0 M1226.36 28.9478 L1226.36 35.9153 Q1223.2 34.1734 1220 33.3227 Q1216.84 32.4315 1213.6 32.4315 Q1206.35 32.4315 1202.34 37.0496 Q1198.33 41.6271 1198.33 49.9314 Q1198.33 58.2358 1202.34 62.8538 Q1206.35 67.4314 1213.6 67.4314 Q1216.84 67.4314 1220 66.5807 Q1223.2 65.6895 1226.36 63.9476 L1226.36 70.8341 Q1223.24 72.2924 1219.88 73.0216 Q1216.56 73.7508 1212.79 73.7508 Q1202.54 73.7508 1196.5 67.3098 Q1190.47 60.8689 1190.47 49.9314 Q1190.47 38.832 1196.55 32.472 Q1202.66 26.1121 1213.28 26.1121 Q1216.72 26.1121 1220 26.8413 Q1223.28 27.5299 1226.36 28.9478 Z" fill="#000000" fill-rule="evenodd" fill-opacity="1" /><path clip-path="url(#clip930)" d="M 0 0 M1241.55 14.324 L1241.55 27.2059 L1256.9 27.2059 L1256.9 32.9987 L1241.55 32.9987 L1241.55 57.6282 Q1241.55 63.1779 1243.05 64.7578 Q1244.59 66.3376 1249.25 66.3376 L1256.9 66.3376 L1256.9 72.576 L1249.25 72.576 Q1240.62 72.576 1237.34 69.3758 Q1234.06 66.1351 1234.06 57.6282 L1234.06 32.9987 L1228.59 32.9987 L1228.59 27.2059 L1234.06 27.2059 L1234.06 14.324 L1241.55 14.324 Z" fill="#000000" fill-rule="evenodd" fill-opacity="1" /><path clip-path="url(#clip930)" d="M 0 0 M1282.3 32.4315 Q1276.31 32.4315 1272.82 37.1306 Q1269.34 41.7891 1269.34 49.9314 Q1269.34 58.0738 1272.78 62.7728 Q1276.27 67.4314 1282.3 67.4314 Q1288.26 67.4314 1291.74 62.7323 Q1295.23 58.0333 1295.23 49.9314 Q1295.23 41.8701 1291.74 37.1711 Q1288.26 32.4315 1282.3 32.4315 M1282.3 26.1121 Q1292.03 26.1121 1297.57 32.4315 Q1303.12 38.7509 1303.12 49.9314 Q1303.12 61.0714 1297.57 67.4314 Q1292.03 73.7508 1282.3 73.7508 Q1272.54 73.7508 1266.99 67.4314 Q1261.48 61.0714 1261.48 49.9314 Q1261.48 38.7509 1266.99 32.4315 Q1272.54 26.1121 1282.3 26.1121 Z" fill="#000000" fill-rule="evenodd" fill-opacity="1" /><path clip-path="url(#clip930)" d="M 0 0 M1337.23 34.1734 Q1335.98 33.4443 1334.48 33.1202 Q1333.02 32.7556 1331.24 32.7556 Q1324.92 32.7556 1321.52 36.8875 Q1318.15 40.9789 1318.15 48.6757 L1318.15 72.576 L1310.66 72.576 L1310.66 27.2059 L1318.15 27.2059 L1318.15 34.2544 Q1320.5 30.1225 1324.27 28.1376 Q1328.04 26.1121 1333.43 26.1121 Q1334.19 26.1121 1335.13 26.2337 Q1336.06 26.3147 1337.19 26.5172 L1337.23 34.1734 Z" fill="#000000" fill-rule="evenodd" fill-opacity="1" /><path clip-path="url(#clip930)" d="M 0 0 M1394.39 9.54393 L1394.39 15.7418 L1387.26 15.7418 Q1383.25 15.7418 1381.67 17.3622 Q1380.13 18.9825 1380.13 23.1955 L1380.13 27.2059 L1392.41 27.2059 L1392.41 32.9987 L1380.13 32.9987 L1380.13 72.576 L1372.64 72.576 L1372.64 32.9987 L1365.51 32.9987 L1365.51 27.2059 L1372.64 27.2059 L1372.64 24.0462 Q1372.64 16.471 1376.16 13.0277 Q1379.69 9.54393 1387.34 9.54393 L1394.39 9.54393 Z" fill="#000000" fill-rule="evenodd" fill-opacity="1" /><path clip-path="url(#clip930)" d="M 0 0 M1419.79 32.4315 Q1413.8 32.4315 1410.31 37.1306 Q1406.83 41.7891 1406.83 49.9314 Q1406.83 58.0738 1410.27 62.7728 Q1413.75 67.4314 1419.79 67.4314 Q1425.75 67.4314 1429.23 62.7323 Q1432.71 58.0333 1432.71 49.9314 Q1432.71 41.8701 1429.23 37.1711 Q1425.75 32.4315 1419.79 32.4315 M1419.79 26.1121 Q1429.51 26.1121 1435.06 32.4315 Q1440.61 38.7509 1440.61 49.9314 Q1440.61 61.0714 1435.06 67.4314 Q1429.51 73.7508 1419.79 73.7508 Q1410.03 73.7508 1404.48 67.4314 Q1398.97 61.0714 1398.97 49.9314 Q1398.97 38.7509 1404.48 32.4315 Q1410.03 26.1121 1419.79 26.1121 Z" fill="#000000" fill-rule="evenodd" fill-opacity="1" /><path clip-path="url(#clip930)" d="M 0 0 M1474.72 34.1734 Q1473.47 33.4443 1471.97 33.1202 Q1470.51 32.7556 1468.73 32.7556 Q1462.41 32.7556 1459 36.8875 Q1455.64 40.9789 1455.64 48.6757 L1455.64 72.576 L1448.15 72.576 L1448.15 27.2059 L1455.64 27.2059 L1455.64 34.2544 Q1457.99 30.1225 1461.76 28.1376 Q1465.53 26.1121 1470.91 26.1121 Q1471.68 26.1121 1472.61 26.2337 Q1473.55 26.3147 1474.68 26.5172 L1474.72 34.1734 Z" fill="#000000" fill-rule="evenodd" fill-opacity="1" /><path clip-path="url(#clip930)" d="M 0 0 M1537.83 28.5427 L1537.83 35.5912 Q1534.67 33.9709 1531.27 33.1607 Q1527.87 32.3505 1524.22 32.3505 Q1518.67 32.3505 1515.88 34.0519 Q1513.12 35.7533 1513.12 39.156 Q1513.12 41.7486 1515.11 43.2475 Q1517.09 44.7058 1523.09 46.0426 L1525.64 46.6097 Q1533.58 48.3111 1536.9 51.4303 Q1540.26 54.509 1540.26 60.0587 Q1540.26 66.3781 1535.24 70.0644 Q1530.26 73.7508 1521.51 73.7508 Q1517.86 73.7508 1513.89 73.0216 Q1509.96 72.3329 1505.59 70.9151 L1505.59 63.2184 Q1509.72 65.3654 1513.73 66.4591 Q1517.74 67.5124 1521.67 67.5124 Q1526.94 67.5124 1529.77 65.73 Q1532.61 63.9071 1532.61 60.6258 Q1532.61 57.5877 1530.54 55.9673 Q1528.52 54.3469 1521.59 52.8481 L1519 52.2405 Q1512.07 50.7821 1508.99 47.7845 Q1505.91 44.7463 1505.91 39.4801 Q1505.91 33.0797 1510.45 29.5959 Q1514.99 26.1121 1523.33 26.1121 Q1527.46 26.1121 1531.11 26.7198 Q1534.76 27.3274 1537.83 28.5427 Z" fill="#000000" fill-rule="evenodd" fill-opacity="1" /><path clip-path="url(#clip930)" d="M 0 0 M1583.41 35.9153 Q1586.2 30.8922 1590.09 28.5022 Q1593.98 26.1121 1599.25 26.1121 Q1606.33 26.1121 1610.18 31.0947 Q1614.03 36.0368 1614.03 45.1919 L1614.03 72.576 L1606.54 72.576 L1606.54 45.4349 Q1606.54 38.913 1604.23 35.7533 Q1601.92 32.5936 1597.18 32.5936 Q1591.39 32.5936 1588.02 36.4419 Q1584.66 40.2903 1584.66 46.9338 L1584.66 72.576 L1577.17 72.576 L1577.17 45.4349 Q1577.17 38.8725 1574.86 35.7533 Q1572.55 32.5936 1567.73 32.5936 Q1562.02 32.5936 1558.66 36.4824 Q1555.29 40.3308 1555.29 46.9338 L1555.29 72.576 L1547.8 72.576 L1547.8 27.2059 L1555.29 27.2059 L1555.29 34.2544 Q1557.85 30.082 1561.41 28.0971 Q1564.97 26.1121 1569.88 26.1121 Q1574.82 26.1121 1578.26 28.6237 Q1581.75 31.1352 1583.41 35.9153 Z" fill="#000000" fill-rule="evenodd" fill-opacity="1" /><path clip-path="url(#clip930)" d="M 0 0 M1639.43 32.4315 Q1633.44 32.4315 1629.95 37.1306 Q1626.47 41.7891 1626.47 49.9314 Q1626.47 58.0738 1629.91 62.7728 Q1633.39 67.4314 1639.43 67.4314 Q1645.39 67.4314 1648.87 62.7323 Q1652.35 58.0333 1652.35 49.9314 Q1652.35 41.8701 1648.87 37.1711 Q1645.39 32.4315 1639.43 32.4315 M1639.43 26.1121 Q1649.15 26.1121 1654.7 32.4315 Q1660.25 38.7509 1660.25 49.9314 Q1660.25 61.0714 1654.7 67.4314 Q1649.15 73.7508 1639.43 73.7508 Q1629.67 73.7508 1624.12 67.4314 Q1618.61 61.0714 1618.61 49.9314 Q1618.61 38.7509 1624.12 32.4315 Q1629.67 26.1121 1639.43 26.1121 Z" fill="#000000" fill-rule="evenodd" fill-opacity="1" /><path clip-path="url(#clip930)" d="M 0 0 M1685.65 32.4315 Q1679.66 32.4315 1676.17 37.1306 Q1672.69 41.7891 1672.69 49.9314 Q1672.69 58.0738 1676.13 62.7728 Q1679.62 67.4314 1685.65 67.4314 Q1691.61 67.4314 1695.09 62.7323 Q1698.57 58.0333 1698.57 49.9314 Q1698.57 41.8701 1695.09 37.1711 Q1691.61 32.4315 1685.65 32.4315 M1685.65 26.1121 Q1695.37 26.1121 1700.92 32.4315 Q1706.47 38.7509 1706.47 49.9314 Q1706.47 61.0714 1700.92 67.4314 Q1695.37 73.7508 1685.65 73.7508 Q1675.89 73.7508 1670.34 67.4314 Q1664.83 61.0714 1664.83 49.9314 Q1664.83 38.7509 1670.34 32.4315 Q1675.89 26.1121 1685.65 26.1121 Z" fill="#000000" fill-rule="evenodd" fill-opacity="1" /><path clip-path="url(#clip930)" d="M 0 0 M1721.66 14.324 L1721.66 27.2059 L1737.02 27.2059 L1737.02 32.9987 L1721.66 32.9987 L1721.66 57.6282 Q1721.66 63.1779 1723.16 64.7578 Q1724.7 66.3376 1729.36 66.3376 L1737.02 66.3376 L1737.02 72.576 L1729.36 72.576 Q1720.73 72.576 1717.45 69.3758 Q1714.17 66.1351 1714.17 57.6282 L1714.17 32.9987 L1708.7 32.9987 L1708.7 27.2059 L1714.17 27.2059 L1714.17 14.324 L1721.66 14.324 Z" fill="#000000" fill-rule="evenodd" fill-opacity="1" /><path clip-path="url(#clip930)" d="M 0 0 M1782.55 45.1919 L1782.55 72.576 L1775.1 72.576 L1775.1 45.4349 Q1775.1 38.994 1772.58 35.7938 Q1770.07 32.5936 1765.05 32.5936 Q1759.01 32.5936 1755.53 36.4419 Q1752.05 40.2903 1752.05 46.9338 L1752.05 72.576 L1744.55 72.576 L1744.55 9.54393 L1752.05 9.54393 L1752.05 34.2544 Q1754.72 30.163 1758.32 28.1376 Q1761.97 26.1121 1766.71 26.1121 Q1774.53 26.1121 1778.54 30.9732 Q1782.55 35.7938 1782.55 45.1919 Z" fill="#000000" fill-rule="evenodd" fill-opacity="1" /><path clip-path="url(#clip930)" d="M 0 0 M1824.11 14.324 L1824.11 27.2059 L1839.46 27.2059 L1839.46 32.9987 L1824.11 32.9987 L1824.11 57.6282 Q1824.11 63.1779 1825.61 64.7578 Q1827.15 66.3376 1831.81 66.3376 L1839.46 66.3376 L1839.46 72.576 L1831.81 72.576 Q1823.18 72.576 1819.9 69.3758 Q1816.62 66.1351 1816.62 57.6282 L1816.62 32.9987 L1811.15 32.9987 L1811.15 27.2059 L1816.62 27.2059 L1816.62 14.324 L1824.11 14.324 Z" fill="#000000" fill-rule="evenodd" fill-opacity="1" /><path clip-path="url(#clip930)" d="M 0 0 M1846.51 54.671 L1846.51 27.2059 L1853.97 27.2059 L1853.97 54.3874 Q1853.97 60.8284 1856.48 64.0691 Q1858.99 67.2693 1864.01 67.2693 Q1870.05 67.2693 1873.53 63.421 Q1877.06 59.5726 1877.06 52.9291 L1877.06 27.2059 L1884.51 27.2059 L1884.51 72.576 L1877.06 72.576 L1877.06 65.6084 Q1874.34 69.7404 1870.74 71.7658 Q1867.17 73.7508 1862.43 73.7508 Q1854.61 73.7508 1850.56 68.8897 Q1846.51 64.0286 1846.51 54.671 M1865.27 26.1121 L1865.27 26.1121 Z" fill="#000000" fill-rule="evenodd" fill-opacity="1" /><path clip-path="url(#clip930)" d="M 0 0 M1924.9 49.9314 Q1924.9 41.7081 1921.5 37.0496 Q1918.13 32.3505 1912.22 32.3505 Q1906.3 32.3505 1902.9 37.0496 Q1899.54 41.7081 1899.54 49.9314 Q1899.54 58.1548 1902.9 62.8538 Q1906.3 67.5124 1912.22 67.5124 Q1918.13 67.5124 1921.5 62.8538 Q1924.9 58.1548 1924.9 49.9314 M1899.54 34.0924 Q1901.89 30.0415 1905.45 28.0971 Q1909.06 26.1121 1914.04 26.1121 Q1922.31 26.1121 1927.45 32.6746 Q1932.64 39.2371 1932.64 49.9314 Q1932.64 60.6258 1927.45 67.1883 Q1922.31 73.7508 1914.04 73.7508 Q1909.06 73.7508 1905.45 71.8063 Q1901.89 69.8214 1899.54 65.7705 L1899.54 72.576 L1892.04 72.576 L1892.04 9.54393 L1899.54 9.54393 L1899.54 34.0924 Z" fill="#000000" fill-rule="evenodd" fill-opacity="1" /><path clip-path="url(#clip930)" d="M 0 0 M1940.45 27.2059 L1947.91 27.2059 L1947.91 72.576 L1940.45 72.576 L1940.45 27.2059 M1940.45 9.54393 L1947.91 9.54393 L1947.91 18.9825 L1940.45 18.9825 L1940.45 9.54393 Z" fill="#000000" fill-rule="evenodd" fill-opacity="1" /><path clip-path="url(#clip930)" d="M 0 0 M1993.44 45.1919 L1993.44 72.576 L1985.99 72.576 L1985.99 45.4349 Q1985.99 38.994 1983.47 35.7938 Q1980.96 32.5936 1975.94 32.5936 Q1969.9 32.5936 1966.42 36.4419 Q1962.94 40.2903 1962.94 46.9338 L1962.94 72.576 L1955.44 72.576 L1955.44 27.2059 L1962.94 27.2059 L1962.94 34.2544 Q1965.61 30.163 1969.21 28.1376 Q1972.86 26.1121 1977.6 26.1121 Q1985.42 26.1121 1989.43 30.9732 Q1993.44 35.7938 1993.44 45.1919 Z" fill="#000000" fill-rule="evenodd" fill-opacity="1" /><path clip-path="url(#clip930)" d="M 0 0 M2031.11 49.3643 Q2031.11 41.2625 2027.75 36.8065 Q2024.43 32.3505 2018.39 32.3505 Q2012.4 32.3505 2009.04 36.8065 Q2005.71 41.2625 2005.71 49.3643 Q2005.71 57.4256 2009.04 61.8816 Q2012.4 66.3376 2018.39 66.3376 Q2024.43 66.3376 2027.75 61.8816 Q2031.11 57.4256 2031.11 49.3643 M2038.57 66.9452 Q2038.57 78.5308 2033.42 84.1616 Q2028.28 89.8329 2017.66 89.8329 Q2013.73 89.8329 2010.25 89.2252 Q2006.77 88.6581 2003.49 87.4428 L2003.49 80.1917 Q2006.77 81.9741 2009.97 82.8248 Q2013.17 83.6755 2016.49 83.6755 Q2023.82 83.6755 2027.47 79.8271 Q2031.11 76.0193 2031.11 68.282 L2031.11 64.5957 Q2028.8 68.6061 2025.2 70.5911 Q2021.59 72.576 2016.57 72.576 Q2008.22 72.576 2003.12 66.2161 Q1998.02 59.8562 1998.02 49.3643 Q1998.02 38.832 2003.12 32.472 Q2008.22 26.1121 2016.57 26.1121 Q2021.59 26.1121 2025.2 28.0971 Q2028.8 30.082 2031.11 34.0924 L2031.11 27.2059 L2038.57 27.2059 L2038.57 66.9452 Z" fill="#000000" fill-rule="evenodd" fill-opacity="1" /><polyline clip-path="url(#clip932)" style="stroke:#000000; stroke-width:4; stroke-opacity:1; fill:none" points="
  331.997,159.909 335.422,166.277 338.767,172.496 342.035,178.572 345.229,184.51 348.353,190.319 351.41,196.002 354.402,201.565 357.333,207.014 370.147,230.838 
  381.899,252.689 392.753,272.87 402.836,291.616 412.25,309.12 421.079,325.535 429.391,340.988 437.243,355.588 451.754,382.567 464.918,407.043 476.965,429.441 
  488.069,450.087 500.36,472.938 511.671,493.968 522.147,513.446 531.903,531.585 547.013,559.678 560.669,585.068 586.464,633.028 606.698,670.647 625.6,705.791 
  644.754,741.402 659.846,769.463 671.877,791.831 683.928,814.237 695.099,835.007 706.506,856.215 716.57,874.927 726.329,893.071 734.054,907.434 742.948,923.972 
  750.831,938.626 762.612,960.531 764.341,963.746 
  "/>
<polyline clip-path="url(#clip932)" style="stroke:#000000; stroke-width:4; stroke-opacity:1; fill:none" points="
  764.341,963.746 765.59,840.846 776.649,847.416 782.902,851.102 787.983,854.08 793.304,857.184 798.038,859.933 802.945,862.769 808.425,865.922 813.124,868.613 
  817.12,870.892 821.353,873.297 825.487,875.637 829.922,878.138 834.017,880.438 838.154,882.752 841.544,884.643 845.577,886.885 849.267,888.929 854.985,892.083 
  855.844,892.556 
  "/>
<polyline clip-path="url(#clip932)" style="stroke:#000000; stroke-width:4; stroke-opacity:1; fill:none" points="
  855.844,892.556 1007.4,970.695 1079.03,1004.4 1126.42,1025.71 1161.89,1041.17 1190.25,1053.25 1213.88,1063.13 1234.13,1071.47 1251.85,1078.67 1281.78,1090.64 
  1306.49,1100.34 1327.52,1108.47 1345.84,1115.46 1376.63,1127.02 1401.91,1136.34 1423.37,1144.13 1442,1150.82 1473.23,1161.84 1498.82,1170.72 1520.49,1178.12 
  1539.29,1184.47 1570.74,1194.93 1596.48,1203.34 1618.26,1210.35 1637.14,1216.35 1701.7,1236.36 1745.92,1249.6 1779.58,1259.44 1806.78,1267.22 1849.25,1279.08 
  1881.9,1287.94 1930.77,1300.79 1967.06,1309.98 2001.12,1318.3 2028.57,1324.8 2048.24,1329.32 2065.52,1333.2 2097.08,1340.04 2121.03,1345.02 2142.89,1349.39 
  2164.61,1353.57 2181.47,1356.68 2194.77,1359.06 2207.98,1361.35 2220.13,1363.39 2232.45,1365.4 2243.26,1367.11 2253.69,1368.72 2261.91,1369.95 2271.35,1371.33 
  2279.68,1372.51 2292.08,1374.22 2293.9,1374.46 
  "/>
<polyline clip-path="url(#clip932)" style="stroke:#0000ff; stroke-width:4; stroke-opacity:1; fill:none" points="
  331.997,512.666 338.767,519.107 345.229,525.212 351.41,531.011 357.333,536.531 370.147,548.351 381.899,559.043 392.753,568.79 402.836,577.737 421.079,593.662 
  437.243,607.492 451.754,619.689 464.918,630.578 476.965,640.398 488.069,649.33 500.36,659.085 511.671,667.942 522.147,676.045 531.903,683.506 547.013,694.901 
  560.669,705.036 586.464,723.771 606.698,738.105 625.6,751.219 644.754,764.245 659.846,774.327 671.877,782.253 683.928,790.096 695.099,797.282 706.506,804.537 
  716.57,810.87 726.329,816.952 734.054,821.725 742.948,827.177 750.831,831.969 762.612,839.065 764.341,840.1 
  "/>
<polyline clip-path="url(#clip932)" style="stroke:#0000ff; stroke-width:4; stroke-opacity:1; fill:none" points="
  764.341,840.1 765.59,840.847 776.649,847.417 782.902,851.102 787.983,854.08 793.304,857.184 798.038,859.933 802.945,862.769 808.425,865.922 813.124,868.613 
  817.12,870.892 821.353,873.297 825.487,875.637 829.922,878.138 834.017,880.438 838.154,882.753 841.544,884.644 845.577,886.885 849.267,888.929 854.985,892.083 
  855.844,892.556 
  "/>
<polyline clip-path="url(#clip932)" style="stroke:#0000ff; stroke-width:4; stroke-opacity:1; fill:none" points="
  855.844,892.556 1007.4,970.699 1079.03,1004.41 1126.42,1025.72 1161.89,1041.18 1190.25,1053.26 1213.88,1063.14 1234.13,1071.48 1251.85,1078.68 1281.78,1090.65 
  1306.49,1100.34 1327.52,1108.48 1345.84,1115.47 1376.63,1127.02 1401.91,1136.35 1423.37,1144.14 1442,1150.82 1473.23,1161.85 1498.82,1170.72 1520.49,1178.13 
  1539.29,1184.48 1570.74,1194.94 1596.48,1203.34 1618.26,1210.36 1637.14,1216.36 1701.7,1236.37 1745.92,1249.61 1779.58,1259.44 1806.78,1267.22 1849.25,1279.08 
  1881.9,1287.95 1930.77,1300.79 1967.06,1309.98 2001.12,1318.31 2028.57,1324.8 2048.24,1329.32 2065.52,1333.2 2097.08,1340.05 2121.03,1345.03 2142.89,1349.4 
  2164.61,1353.57 2181.47,1356.68 2194.77,1359.06 2207.98,1361.35 2220.13,1363.39 2232.45,1365.4 2243.26,1367.12 2253.69,1368.72 2261.91,1369.95 2271.35,1371.33 
  2279.68,1372.51 2292.08,1374.22 2293.9,1374.46 
  "/>
<polyline clip-path="url(#clip932)" style="stroke:#ff0000; stroke-width:4; stroke-opacity:1; fill:none" points="
  331.997,159.909 335.422,166.277 338.767,172.496 342.035,178.572 345.229,184.51 348.353,190.319 351.41,196.002 354.402,201.565 357.333,207.014 370.147,230.838 
  381.899,252.689 392.753,272.87 402.836,291.616 412.25,309.12 421.079,325.535 429.391,340.988 437.243,355.588 451.754,382.567 464.918,407.043 476.965,429.441 
  488.069,450.087 500.36,472.938 511.671,493.968 522.147,513.446 531.903,531.585 547.013,559.678 560.669,585.068 586.464,633.028 606.698,670.647 625.6,705.791 
  644.754,741.402 659.846,769.463 671.877,791.831 683.928,814.237 695.099,835.007 706.506,856.215 716.57,874.927 726.329,893.071 734.054,907.433 742.948,923.962 
  750.831,938.559 762.612,959.228 764.341,961.76 
  "/>
<polyline clip-path="url(#clip932)" style="stroke:#ff0000; stroke-width:4; stroke-opacity:1; fill:none" points="
  764.341,961.76 764.654,962.187 764.967,962.601 765.279,963.002 765.59,963.389 767.021,964.977 768.437,966.176 769.839,966.907 771.227,967.095 772.602,966.687 
  773.964,965.655 775.313,964.011 776.649,961.801 778.238,958.498 779.81,954.633 781.365,950.359 782.902,945.811 785.465,937.799 787.983,929.706 793.304,912.934 
  798.038,899.426 800.513,893.222 802.945,887.838 805.711,882.673 808.425,878.651 810.794,875.979 813.124,874.068 815.136,872.938 817.12,872.239 819.252,871.884 
  821.353,871.871 823.435,872.129 825.487,872.595 829.922,874.131 834.017,875.975 838.154,878.082 841.544,879.917 845.577,882.175 849.267,884.28 854.985,887.579 
  855.844,888.076 
  "/>
<polyline clip-path="url(#clip932)" style="stroke:#ff0000; stroke-width:4; stroke-opacity:1; fill:none" points="
  855.844,888.076 1007.4,970.071 1079.03,1004.81 1126.42,1026.6 1161.89,1042.34 1190.25,1054.59 1213.88,1064.58 1234.13,1073 1251.85,1080.25 1281.78,1092.29 
  1306.49,1102.01 1327.52,1110.16 1345.84,1117.14 1376.63,1128.68 1401.91,1137.96 1423.37,1145.71 1442,1152.35 1473.23,1163.29 1498.82,1172.07 1520.49,1179.39 
  1539.29,1185.66 1570.74,1195.98 1596.48,1204.26 1618.26,1211.15 1637.14,1217.05 1701.7,1236.68 1745.92,1249.64 1779.58,1259.25 1806.78,1266.84 1849.25,1278.4 
  1881.9,1287.03 1930.77,1299.52 1967.06,1308.44 2001.12,1316.53 2028.57,1322.83 2048.24,1327.22 2065.52,1330.99 2097.08,1337.64 2121.03,1342.49 2142.89,1346.75 
  2164.61,1350.82 2181.47,1353.87 2194.77,1356.2 2207.98,1358.45 2220.13,1360.46 2232.45,1362.45 2243.26,1364.14 2253.69,1365.73 2261.91,1366.95 2271.35,1368.33 
  2279.68,1369.51 2292.08,1371.22 2293.9,1371.46 
  "/>
<path clip-path="url(#clip930)" d="
M1617.81 408.306 L2283.44 408.306 L2283.44 166.386 L1617.81 166.386  Z
  " fill="#ffffff" fill-rule="evenodd" fill-opacity="1"/>
<polyline clip-path="url(#clip930)" style="stroke:#000000; stroke-width:4; stroke-opacity:1; fill:none" points="
  1617.81,408.306 2283.44,408.306 2283.44,166.386 1617.81,166.386 1617.81,408.306 
  "/>
<polyline clip-path="url(#clip930)" style="stroke:#000000; stroke-width:4; stroke-opacity:1; fill:none" points="
  1640.92,226.866 1779.56,226.866 
  "/>
<path clip-path="url(#clip930)" d="M 0 0 M1807.34 213.429 L1807.34 240.304 L1812.99 240.304 Q1820.14 240.304 1823.45 237.063 Q1826.78 233.822 1826.78 226.832 Q1826.78 219.887 1823.45 216.67 Q1820.14 213.429 1812.99 213.429 L1807.34 213.429 M1802.66 209.586 L1812.27 209.586 Q1822.32 209.586 1827.02 213.776 Q1831.71 217.943 1831.71 226.832 Q1831.71 235.767 1826.99 239.956 Q1822.27 244.146 1812.27 244.146 L1802.66 244.146 L1802.66 209.586 Z" fill="#000000" fill-rule="evenodd" fill-opacity="1" /><path clip-path="url(#clip930)" d="M 0 0 M1847.96 231.114 Q1842.8 231.114 1840.81 232.294 Q1838.82 233.475 1838.82 236.322 Q1838.82 238.591 1840.3 239.933 Q1841.81 241.253 1844.38 241.253 Q1847.92 241.253 1850.05 238.753 Q1852.2 236.23 1852.2 232.063 L1852.2 231.114 L1847.96 231.114 M1856.46 229.355 L1856.46 244.146 L1852.2 244.146 L1852.2 240.211 Q1850.74 242.572 1848.57 243.706 Q1846.39 244.818 1843.24 244.818 Q1839.26 244.818 1836.9 242.595 Q1834.56 240.35 1834.56 236.6 Q1834.56 232.225 1837.48 230.003 Q1840.42 227.781 1846.23 227.781 L1852.2 227.781 L1852.2 227.364 Q1852.2 224.424 1850.26 222.827 Q1848.33 221.207 1844.84 221.207 Q1842.62 221.207 1840.51 221.739 Q1838.4 222.271 1836.46 223.336 L1836.46 219.401 Q1838.8 218.498 1841 218.058 Q1843.2 217.595 1845.28 217.595 Q1850.9 217.595 1853.68 220.512 Q1856.46 223.429 1856.46 229.355 Z" fill="#000000" fill-rule="evenodd" fill-opacity="1" /><path clip-path="url(#clip930)" d="M 0 0 M1875.95 222.202 Q1875.23 221.785 1874.38 221.6 Q1873.54 221.392 1872.52 221.392 Q1868.91 221.392 1866.97 223.753 Q1865.05 226.091 1865.05 230.489 L1865.05 244.146 L1860.77 244.146 L1860.77 218.22 L1865.05 218.22 L1865.05 222.248 Q1866.39 219.887 1868.54 218.753 Q1870.7 217.595 1873.77 217.595 Q1874.21 217.595 1874.75 217.665 Q1875.28 217.711 1875.93 217.827 L1875.95 222.202 Z" fill="#000000" fill-rule="evenodd" fill-opacity="1" /><path clip-path="url(#clip930)" d="M 0 0 M1898.03 219.216 L1898.03 223.197 Q1896.23 222.202 1894.4 221.716 Q1892.59 221.207 1890.74 221.207 Q1886.6 221.207 1884.31 223.845 Q1882.02 226.461 1882.02 231.207 Q1882.02 235.952 1884.31 238.591 Q1886.6 241.206 1890.74 241.206 Q1892.59 241.206 1894.4 240.72 Q1896.23 240.211 1898.03 239.216 L1898.03 243.151 Q1896.25 243.984 1894.33 244.401 Q1892.43 244.818 1890.28 244.818 Q1884.42 244.818 1880.97 241.137 Q1877.52 237.456 1877.52 231.207 Q1877.52 224.864 1881 221.23 Q1884.49 217.595 1890.56 217.595 Q1892.52 217.595 1894.4 218.012 Q1896.27 218.406 1898.03 219.216 Z" fill="#000000" fill-rule="evenodd" fill-opacity="1" /><path clip-path="url(#clip930)" d="M 0 0 M1913.29 246.554 Q1911.48 251.183 1909.77 252.595 Q1908.06 254.007 1905.19 254.007 L1901.78 254.007 L1901.78 250.443 L1904.28 250.443 Q1906.04 250.443 1907.02 249.609 Q1907.99 248.776 1909.17 245.674 L1909.93 243.73 L1899.45 218.22 L1903.96 218.22 L1912.06 238.498 L1920.16 218.22 L1924.68 218.22 L1913.29 246.554 Z" fill="#000000" fill-rule="evenodd" fill-opacity="1" /><path clip-path="url(#clip930)" d="M 0 0 M1944.4 209.586 L1964.26 209.586 L1964.26 213.521 L1949.08 213.521 L1949.08 223.707 L1962.78 223.707 L1962.78 227.642 L1949.08 227.642 L1949.08 244.146 L1944.4 244.146 L1944.4 209.586 Z" fill="#000000" fill-rule="evenodd" fill-opacity="1" /><path clip-path="url(#clip930)" d="M 0 0 M1980.3 222.202 Q1979.58 221.785 1978.73 221.6 Q1977.89 221.392 1976.88 221.392 Q1973.26 221.392 1971.32 223.753 Q1969.4 226.091 1969.4 230.489 L1969.4 244.146 L1965.12 244.146 L1965.12 218.22 L1969.4 218.22 L1969.4 222.248 Q1970.74 219.887 1972.89 218.753 Q1975.05 217.595 1978.13 217.595 Q1978.57 217.595 1979.1 217.665 Q1979.63 217.711 1980.28 217.827 L1980.3 222.202 Z" fill="#000000" fill-rule="evenodd" fill-opacity="1" /><path clip-path="url(#clip930)" d="M 0 0 M1984.77 218.22 L1989.03 218.22 L1989.03 244.146 L1984.77 244.146 L1984.77 218.22 M1984.77 208.128 L1989.03 208.128 L1989.03 213.521 L1984.77 213.521 L1984.77 208.128 Z" fill="#000000" fill-rule="evenodd" fill-opacity="1" /><path clip-path="url(#clip930)" d="M 0 0 M2012.15 219.216 L2012.15 223.197 Q2010.35 222.202 2008.52 221.716 Q2006.71 221.207 2004.86 221.207 Q2000.72 221.207 1998.43 223.845 Q1996.14 226.461 1996.14 231.207 Q1996.14 235.952 1998.43 238.591 Q2000.72 241.206 2004.86 241.206 Q2006.71 241.206 2008.52 240.72 Q2010.35 240.211 2012.15 239.216 L2012.15 243.151 Q2010.37 243.984 2008.45 244.401 Q2006.55 244.818 2004.4 244.818 Q1998.54 244.818 1995.09 241.137 Q1991.64 237.456 1991.64 231.207 Q1991.64 224.864 1995.12 221.23 Q1998.61 217.595 2004.68 217.595 Q2006.64 217.595 2008.52 218.012 Q2010.39 218.406 2012.15 219.216 Z" fill="#000000" fill-rule="evenodd" fill-opacity="1" /><path clip-path="url(#clip930)" d="M 0 0 M2020.83 210.859 L2020.83 218.22 L2029.61 218.22 L2029.61 221.531 L2020.83 221.531 L2020.83 235.605 Q2020.83 238.776 2021.69 239.679 Q2022.57 240.581 2025.23 240.581 L2029.61 240.581 L2029.61 244.146 L2025.23 244.146 Q2020.3 244.146 2018.43 242.318 Q2016.55 240.466 2016.55 235.605 L2016.55 221.531 L2013.43 221.531 L2013.43 218.22 L2016.55 218.22 L2016.55 210.859 L2020.83 210.859 Z" fill="#000000" fill-rule="evenodd" fill-opacity="1" /><path clip-path="url(#clip930)" d="M 0 0 M2034.07 218.22 L2038.33 218.22 L2038.33 244.146 L2034.07 244.146 L2034.07 218.22 M2034.07 208.128 L2038.33 208.128 L2038.33 213.521 L2034.07 213.521 L2034.07 208.128 Z" fill="#000000" fill-rule="evenodd" fill-opacity="1" /><path clip-path="url(#clip930)" d="M 0 0 M2052.85 221.207 Q2049.42 221.207 2047.43 223.892 Q2045.44 226.554 2045.44 231.207 Q2045.44 235.859 2047.41 238.544 Q2049.4 241.206 2052.85 241.206 Q2056.25 241.206 2058.24 238.521 Q2060.23 235.836 2060.23 231.207 Q2060.23 226.6 2058.24 223.915 Q2056.25 221.207 2052.85 221.207 M2052.85 217.595 Q2058.4 217.595 2061.57 221.207 Q2064.75 224.818 2064.75 231.207 Q2064.75 237.572 2061.57 241.206 Q2058.4 244.818 2052.85 244.818 Q2047.27 244.818 2044.1 241.206 Q2040.95 237.572 2040.95 231.207 Q2040.95 224.818 2044.1 221.207 Q2047.27 217.595 2052.85 217.595 Z" fill="#000000" fill-rule="evenodd" fill-opacity="1" /><path clip-path="url(#clip930)" d="M 0 0 M2090.76 228.498 L2090.76 244.146 L2086.5 244.146 L2086.5 228.637 Q2086.5 224.957 2085.07 223.128 Q2083.63 221.299 2080.76 221.299 Q2077.32 221.299 2075.32 223.498 Q2073.33 225.697 2073.33 229.494 L2073.33 244.146 L2069.05 244.146 L2069.05 218.22 L2073.33 218.22 L2073.33 222.248 Q2074.86 219.91 2076.92 218.753 Q2079 217.595 2081.71 217.595 Q2086.18 217.595 2088.47 220.373 Q2090.76 223.128 2090.76 228.498 Z" fill="#000000" fill-rule="evenodd" fill-opacity="1" /><path clip-path="url(#clip930)" d="M 0 0 M2110.49 209.586 L2130.35 209.586 L2130.35 213.521 L2115.16 213.521 L2115.16 223.707 L2128.87 223.707 L2128.87 227.642 L2115.16 227.642 L2115.16 244.146 L2110.49 244.146 L2110.49 209.586 Z" fill="#000000" fill-rule="evenodd" fill-opacity="1" /><path clip-path="url(#clip930)" d="M 0 0 M2142.25 231.114 Q2137.08 231.114 2135.09 232.294 Q2133.1 233.475 2133.1 236.322 Q2133.1 238.591 2134.58 239.933 Q2136.09 241.253 2138.66 241.253 Q2142.2 241.253 2144.33 238.753 Q2146.48 236.23 2146.48 232.063 L2146.48 231.114 L2142.25 231.114 M2150.74 229.355 L2150.74 244.146 L2146.48 244.146 L2146.48 240.211 Q2145.02 242.572 2142.85 243.706 Q2140.67 244.818 2137.52 244.818 Q2133.54 244.818 2131.18 242.595 Q2128.84 240.35 2128.84 236.6 Q2128.84 232.225 2131.76 230.003 Q2134.7 227.781 2140.51 227.781 L2146.48 227.781 L2146.48 227.364 Q2146.48 224.424 2144.54 222.827 Q2142.62 221.207 2139.12 221.207 Q2136.9 221.207 2134.79 221.739 Q2132.69 222.271 2130.74 223.336 L2130.74 219.401 Q2133.08 218.498 2135.28 218.058 Q2137.48 217.595 2139.56 217.595 Q2145.19 217.595 2147.96 220.512 Q2150.74 223.429 2150.74 229.355 Z" fill="#000000" fill-rule="evenodd" fill-opacity="1" /><path clip-path="url(#clip930)" d="M 0 0 M2173.87 219.216 L2173.87 223.197 Q2172.06 222.202 2170.23 221.716 Q2168.43 221.207 2166.57 221.207 Q2162.43 221.207 2160.14 223.845 Q2157.85 226.461 2157.85 231.207 Q2157.85 235.952 2160.14 238.591 Q2162.43 241.206 2166.57 241.206 Q2168.43 241.206 2170.23 240.72 Q2172.06 240.211 2173.87 239.216 L2173.87 243.151 Q2172.08 243.984 2170.16 244.401 Q2168.26 244.818 2166.11 244.818 Q2160.25 244.818 2156.81 241.137 Q2153.36 237.456 2153.36 231.207 Q2153.36 224.864 2156.83 221.23 Q2160.32 217.595 2166.39 217.595 Q2168.36 217.595 2170.23 218.012 Q2172.11 218.406 2173.87 219.216 Z" fill="#000000" fill-rule="evenodd" fill-opacity="1" /><path clip-path="url(#clip930)" d="M 0 0 M2182.55 210.859 L2182.55 218.22 L2191.32 218.22 L2191.32 221.531 L2182.55 221.531 L2182.55 235.605 Q2182.55 238.776 2183.4 239.679 Q2184.28 240.581 2186.94 240.581 L2191.32 240.581 L2191.32 244.146 L2186.94 244.146 Q2182.01 244.146 2180.14 242.318 Q2178.26 240.466 2178.26 235.605 L2178.26 221.531 L2175.14 221.531 L2175.14 218.22 L2178.26 218.22 L2178.26 210.859 L2182.55 210.859 Z" fill="#000000" fill-rule="evenodd" fill-opacity="1" /><path clip-path="url(#clip930)" d="M 0 0 M2205.83 221.207 Q2202.41 221.207 2200.42 223.892 Q2198.43 226.554 2198.43 231.207 Q2198.43 235.859 2200.39 238.544 Q2202.38 241.206 2205.83 241.206 Q2209.24 241.206 2211.23 238.521 Q2213.22 235.836 2213.22 231.207 Q2213.22 226.6 2211.23 223.915 Q2209.24 221.207 2205.83 221.207 M2205.83 217.595 Q2211.39 217.595 2214.56 221.207 Q2217.73 224.818 2217.73 231.207 Q2217.73 237.572 2214.56 241.206 Q2211.39 244.818 2205.83 244.818 Q2200.25 244.818 2197.08 241.206 Q2193.93 237.572 2193.93 231.207 Q2193.93 224.818 2197.08 221.207 Q2200.25 217.595 2205.83 217.595 Z" fill="#000000" fill-rule="evenodd" fill-opacity="1" /><path clip-path="url(#clip930)" d="M 0 0 M2237.22 222.202 Q2236.5 221.785 2235.65 221.6 Q2234.81 221.392 2233.8 221.392 Q2230.18 221.392 2228.24 223.753 Q2226.32 226.091 2226.32 230.489 L2226.32 244.146 L2222.04 244.146 L2222.04 218.22 L2226.32 218.22 L2226.32 222.248 Q2227.66 219.887 2229.81 218.753 Q2231.97 217.595 2235.05 217.595 Q2235.49 217.595 2236.02 217.665 Q2236.55 217.711 2237.2 217.827 L2237.22 222.202 Z" fill="#000000" fill-rule="evenodd" fill-opacity="1" /><polyline clip-path="url(#clip930)" style="stroke:#0000ff; stroke-width:4; stroke-opacity:1; fill:none" points="
  1640.92,287.346 1779.56,287.346 
  "/>
<path clip-path="url(#clip930)" d="M 0 0 M1824.91 271.201 L1824.91 275.761 Q1822.25 274.488 1819.89 273.863 Q1817.52 273.238 1815.33 273.238 Q1811.51 273.238 1809.42 274.719 Q1807.36 276.201 1807.36 278.932 Q1807.36 281.224 1808.73 282.404 Q1810.12 283.562 1813.96 284.279 L1816.78 284.858 Q1822.02 285.853 1824.49 288.376 Q1826.99 290.876 1826.99 295.089 Q1826.99 300.112 1823.61 302.705 Q1820.26 305.298 1813.75 305.298 Q1811.3 305.298 1808.52 304.742 Q1805.77 304.186 1802.8 303.099 L1802.8 298.284 Q1805.65 299.881 1808.38 300.691 Q1811.11 301.501 1813.75 301.501 Q1817.76 301.501 1819.93 299.927 Q1822.11 298.353 1822.11 295.437 Q1822.11 292.89 1820.53 291.455 Q1818.98 290.02 1815.42 289.302 L1812.57 288.747 Q1807.34 287.705 1805 285.483 Q1802.66 283.261 1802.66 279.302 Q1802.66 274.719 1805.88 272.08 Q1809.12 269.441 1814.79 269.441 Q1817.22 269.441 1819.75 269.881 Q1822.27 270.321 1824.91 271.201 Z" fill="#000000" fill-rule="evenodd" fill-opacity="1" /><path clip-path="url(#clip930)" d="M 0 0 M1853.64 290.599 L1853.64 292.682 L1834.05 292.682 Q1834.33 297.08 1836.69 299.395 Q1839.08 301.686 1843.31 301.686 Q1845.77 301.686 1848.06 301.085 Q1850.37 300.483 1852.64 299.279 L1852.64 303.307 Q1850.35 304.279 1847.94 304.788 Q1845.53 305.298 1843.06 305.298 Q1836.85 305.298 1833.22 301.686 Q1829.61 298.075 1829.61 291.918 Q1829.61 285.552 1833.03 281.825 Q1836.48 278.075 1842.32 278.075 Q1847.55 278.075 1850.58 281.455 Q1853.64 284.812 1853.64 290.599 M1849.38 289.349 Q1849.33 285.853 1847.41 283.77 Q1845.51 281.687 1842.36 281.687 Q1838.8 281.687 1836.65 283.7 Q1834.52 285.714 1834.19 289.372 L1849.38 289.349 Z" fill="#000000" fill-rule="evenodd" fill-opacity="1" /><path clip-path="url(#clip930)" d="M 0 0 M1873.13 282.682 Q1872.41 282.265 1871.55 282.08 Q1870.72 281.872 1869.7 281.872 Q1866.09 281.872 1864.14 284.233 Q1862.22 286.571 1862.22 290.969 L1862.22 304.626 L1857.94 304.626 L1857.94 278.7 L1862.22 278.7 L1862.22 282.728 Q1863.57 280.367 1865.72 279.233 Q1867.87 278.075 1870.95 278.075 Q1871.39 278.075 1871.92 278.145 Q1872.46 278.191 1873.1 278.307 L1873.13 282.682 Z" fill="#000000" fill-rule="evenodd" fill-opacity="1" /><path clip-path="url(#clip930)" d="M 0 0 M1893.82 291.362 Q1893.82 286.733 1891.9 284.187 Q1890 281.64 1886.55 281.64 Q1883.13 281.64 1881.21 284.187 Q1879.31 286.733 1879.31 291.362 Q1879.31 295.969 1881.21 298.515 Q1883.13 301.061 1886.55 301.061 Q1890 301.061 1891.9 298.515 Q1893.82 295.969 1893.82 291.362 M1898.08 301.409 Q1898.08 308.029 1895.14 311.247 Q1892.2 314.487 1886.14 314.487 Q1883.89 314.487 1881.9 314.14 Q1879.91 313.816 1878.03 313.122 L1878.03 308.978 Q1879.91 309.997 1881.74 310.483 Q1883.57 310.969 1885.46 310.969 Q1889.65 310.969 1891.74 308.77 Q1893.82 306.594 1893.82 302.173 L1893.82 300.066 Q1892.5 302.358 1890.44 303.492 Q1888.38 304.626 1885.51 304.626 Q1880.74 304.626 1877.83 300.992 Q1874.91 297.358 1874.91 291.362 Q1874.91 285.344 1877.83 281.71 Q1880.74 278.075 1885.51 278.075 Q1888.38 278.075 1890.44 279.21 Q1892.5 280.344 1893.82 282.636 L1893.82 278.7 L1898.08 278.7 L1898.08 301.409 Z" fill="#000000" fill-rule="evenodd" fill-opacity="1" /><path clip-path="url(#clip930)" d="M 0 0 M1924.1 288.978 L1924.1 304.626 L1919.84 304.626 L1919.84 289.117 Q1919.84 285.437 1918.4 283.608 Q1916.97 281.779 1914.1 281.779 Q1910.65 281.779 1908.66 283.978 Q1906.67 286.177 1906.67 289.974 L1906.67 304.626 L1902.39 304.626 L1902.39 268.608 L1906.67 268.608 L1906.67 282.728 Q1908.2 280.39 1910.26 279.233 Q1912.34 278.075 1915.05 278.075 Q1919.52 278.075 1921.81 280.853 Q1924.1 283.608 1924.1 288.978 Z" fill="#000000" fill-rule="evenodd" fill-opacity="1" /><path clip-path="url(#clip930)" d="M 0 0 M1928.57 278.7 L1932.83 278.7 L1932.83 304.626 L1928.57 304.626 L1928.57 278.7 M1928.57 268.608 L1932.83 268.608 L1932.83 274.001 L1928.57 274.001 L1928.57 268.608 Z" fill="#000000" fill-rule="evenodd" fill-opacity="1" /><path clip-path="url(#clip930)" d="M 0 0 M1954.35 282.636 L1954.35 268.608 L1958.61 268.608 L1958.61 304.626 L1954.35 304.626 L1954.35 300.737 Q1953.01 303.052 1950.95 304.186 Q1948.91 305.298 1946.04 305.298 Q1941.34 305.298 1938.38 301.548 Q1935.44 297.798 1935.44 291.687 Q1935.44 285.575 1938.38 281.825 Q1941.34 278.075 1946.04 278.075 Q1948.91 278.075 1950.95 279.21 Q1953.01 280.321 1954.35 282.636 M1939.84 291.687 Q1939.84 296.386 1941.76 299.071 Q1943.7 301.733 1947.08 301.733 Q1950.46 301.733 1952.41 299.071 Q1954.35 296.386 1954.35 291.687 Q1954.35 286.987 1952.41 284.325 Q1950.46 281.64 1947.08 281.64 Q1943.7 281.64 1941.76 284.325 Q1939.84 286.987 1939.84 291.687 Z" fill="#000000" fill-rule="evenodd" fill-opacity="1" /><path clip-path="url(#clip930)" d="M 0 0 M1985.26 290.599 L1985.26 292.682 L1965.67 292.682 Q1965.95 297.08 1968.31 299.395 Q1970.7 301.686 1974.93 301.686 Q1977.39 301.686 1979.68 301.085 Q1981.99 300.483 1984.26 299.279 L1984.26 303.307 Q1981.97 304.279 1979.56 304.788 Q1977.15 305.298 1974.68 305.298 Q1968.47 305.298 1964.84 301.686 Q1961.23 298.075 1961.23 291.918 Q1961.23 285.552 1964.65 281.825 Q1968.1 278.075 1973.94 278.075 Q1979.17 278.075 1982.2 281.455 Q1985.26 284.812 1985.26 290.599 M1981 289.349 Q1980.95 285.853 1979.03 283.77 Q1977.13 281.687 1973.98 281.687 Q1970.42 281.687 1968.26 283.7 Q1966.14 285.714 1965.81 289.372 L1981 289.349 Z" fill="#000000" fill-rule="evenodd" fill-opacity="1" /><path clip-path="url(#clip930)" d="M 0 0 M2023.45 279.696 L2023.45 283.677 Q2021.64 282.682 2019.82 282.196 Q2018.01 281.687 2016.16 281.687 Q2012.01 281.687 2009.72 284.325 Q2007.43 286.941 2007.43 291.687 Q2007.43 296.432 2009.72 299.071 Q2012.01 301.686 2016.16 301.686 Q2018.01 301.686 2019.82 301.2 Q2021.64 300.691 2023.45 299.696 L2023.45 303.631 Q2021.67 304.464 2019.75 304.881 Q2017.85 305.298 2015.7 305.298 Q2009.84 305.298 2006.39 301.617 Q2002.94 297.936 2002.94 291.687 Q2002.94 285.344 2006.41 281.71 Q2009.91 278.075 2015.97 278.075 Q2017.94 278.075 2019.82 278.492 Q2021.69 278.886 2023.45 279.696 Z" fill="#000000" fill-rule="evenodd" fill-opacity="1" /><path clip-path="url(#clip930)" d="M 0 0 M2037.96 281.687 Q2034.54 281.687 2032.55 284.372 Q2030.56 287.034 2030.56 291.687 Q2030.56 296.339 2032.52 299.024 Q2034.51 301.686 2037.96 301.686 Q2041.37 301.686 2043.36 299.001 Q2045.35 296.316 2045.35 291.687 Q2045.35 287.08 2043.36 284.395 Q2041.37 281.687 2037.96 281.687 M2037.96 278.075 Q2043.52 278.075 2046.69 281.687 Q2049.86 285.298 2049.86 291.687 Q2049.86 298.052 2046.69 301.686 Q2043.52 305.298 2037.96 305.298 Q2032.38 305.298 2029.21 301.686 Q2026.07 298.052 2026.07 291.687 Q2026.07 285.298 2029.21 281.687 Q2032.38 278.075 2037.96 278.075 Z" fill="#000000" fill-rule="evenodd" fill-opacity="1" /><path clip-path="url(#clip930)" d="M 0 0 M2069.35 282.682 Q2068.63 282.265 2067.78 282.08 Q2066.94 281.872 2065.93 281.872 Q2062.32 281.872 2060.37 284.233 Q2058.45 286.571 2058.45 290.969 L2058.45 304.626 L2054.17 304.626 L2054.17 278.7 L2058.45 278.7 L2058.45 282.728 Q2059.79 280.367 2061.94 279.233 Q2064.1 278.075 2067.18 278.075 Q2067.62 278.075 2068.15 278.145 Q2068.68 278.191 2069.33 278.307 L2069.35 282.682 Z" fill="#000000" fill-rule="evenodd" fill-opacity="1" /><path clip-path="url(#clip930)" d="M 0 0 M2088.01 282.682 Q2087.29 282.265 2086.44 282.08 Q2085.6 281.872 2084.58 281.872 Q2080.97 281.872 2079.03 284.233 Q2077.11 286.571 2077.11 290.969 L2077.11 304.626 L2072.82 304.626 L2072.82 278.7 L2077.11 278.7 L2077.11 282.728 Q2078.45 280.367 2080.6 279.233 Q2082.75 278.075 2085.83 278.075 Q2086.27 278.075 2086.81 278.145 Q2087.34 278.191 2087.99 278.307 L2088.01 282.682 Z" fill="#000000" fill-rule="evenodd" fill-opacity="1" /><path clip-path="url(#clip930)" d="M 0 0 M2113.61 290.599 L2113.61 292.682 L2094.03 292.682 Q2094.31 297.08 2096.67 299.395 Q2099.05 301.686 2103.29 301.686 Q2105.74 301.686 2108.03 301.085 Q2110.35 300.483 2112.62 299.279 L2112.62 303.307 Q2110.32 304.279 2107.92 304.788 Q2105.51 305.298 2103.03 305.298 Q2096.83 305.298 2093.19 301.686 Q2089.58 298.075 2089.58 291.918 Q2089.58 285.552 2093.01 281.825 Q2096.46 278.075 2102.29 278.075 Q2107.52 278.075 2110.56 281.455 Q2113.61 284.812 2113.61 290.599 M2109.35 289.349 Q2109.31 285.853 2107.38 283.77 Q2105.49 281.687 2102.34 281.687 Q2098.77 281.687 2096.62 283.7 Q2094.49 285.714 2094.17 289.372 L2109.35 289.349 Z" fill="#000000" fill-rule="evenodd" fill-opacity="1" /><path clip-path="url(#clip930)" d="M 0 0 M2118.08 268.608 L2122.34 268.608 L2122.34 304.626 L2118.08 304.626 L2118.08 268.608 Z" fill="#000000" fill-rule="evenodd" fill-opacity="1" /><path clip-path="url(#clip930)" d="M 0 0 M2138.59 291.594 Q2133.43 291.594 2131.44 292.774 Q2129.44 293.955 2129.44 296.802 Q2129.44 299.071 2130.93 300.413 Q2132.43 301.733 2135 301.733 Q2138.54 301.733 2140.67 299.233 Q2142.82 296.71 2142.82 292.543 L2142.82 291.594 L2138.59 291.594 M2147.08 289.835 L2147.08 304.626 L2142.82 304.626 L2142.82 300.691 Q2141.37 303.052 2139.19 304.186 Q2137.01 305.298 2133.87 305.298 Q2129.88 305.298 2127.52 303.075 Q2125.19 300.83 2125.19 297.08 Q2125.19 292.705 2128.1 290.483 Q2131.04 288.261 2136.85 288.261 L2142.82 288.261 L2142.82 287.844 Q2142.82 284.904 2140.88 283.307 Q2138.96 281.687 2135.46 281.687 Q2133.24 281.687 2131.13 282.219 Q2129.03 282.751 2127.08 283.816 L2127.08 279.881 Q2129.42 278.978 2131.62 278.538 Q2133.82 278.075 2135.9 278.075 Q2141.53 278.075 2144.31 280.992 Q2147.08 283.909 2147.08 289.835 Z" fill="#000000" fill-rule="evenodd" fill-opacity="1" /><path clip-path="url(#clip930)" d="M 0 0 M2155.76 271.339 L2155.76 278.7 L2164.54 278.7 L2164.54 282.011 L2155.76 282.011 L2155.76 296.085 Q2155.76 299.256 2156.62 300.159 Q2157.5 301.061 2160.16 301.061 L2164.54 301.061 L2164.54 304.626 L2160.16 304.626 Q2155.23 304.626 2153.36 302.798 Q2151.48 300.946 2151.48 296.085 L2151.48 282.011 L2148.36 282.011 L2148.36 278.7 L2151.48 278.7 L2151.48 271.339 L2155.76 271.339 Z" fill="#000000" fill-rule="evenodd" fill-opacity="1" /><path clip-path="url(#clip930)" d="M 0 0 M2169 278.7 L2173.26 278.7 L2173.26 304.626 L2169 304.626 L2169 278.7 M2169 268.608 L2173.26 268.608 L2173.26 274.001 L2169 274.001 L2169 268.608 Z" fill="#000000" fill-rule="evenodd" fill-opacity="1" /><path clip-path="url(#clip930)" d="M 0 0 M2187.78 281.687 Q2184.35 281.687 2182.36 284.372 Q2180.37 287.034 2180.37 291.687 Q2180.37 296.339 2182.34 299.024 Q2184.33 301.686 2187.78 301.686 Q2191.18 301.686 2193.17 299.001 Q2195.16 296.316 2195.16 291.687 Q2195.16 287.08 2193.17 284.395 Q2191.18 281.687 2187.78 281.687 M2187.78 278.075 Q2193.33 278.075 2196.5 281.687 Q2199.68 285.298 2199.68 291.687 Q2199.68 298.052 2196.5 301.686 Q2193.33 305.298 2187.78 305.298 Q2182.2 305.298 2179.03 301.686 Q2175.88 298.052 2175.88 291.687 Q2175.88 285.298 2179.03 281.687 Q2182.2 278.075 2187.78 278.075 Z" fill="#000000" fill-rule="evenodd" fill-opacity="1" /><path clip-path="url(#clip930)" d="M 0 0 M2225.69 288.978 L2225.69 304.626 L2221.43 304.626 L2221.43 289.117 Q2221.43 285.437 2220 283.608 Q2218.56 281.779 2215.69 281.779 Q2212.24 281.779 2210.25 283.978 Q2208.26 286.177 2208.26 289.974 L2208.26 304.626 L2203.98 304.626 L2203.98 278.7 L2208.26 278.7 L2208.26 282.728 Q2209.79 280.39 2211.85 279.233 Q2213.93 278.075 2216.64 278.075 Q2221.11 278.075 2223.4 280.853 Q2225.69 283.608 2225.69 288.978 Z" fill="#000000" fill-rule="evenodd" fill-opacity="1" /><polyline clip-path="url(#clip930)" style="stroke:#ff0000; stroke-width:4; stroke-opacity:1; fill:none" points="
  1640.92,347.826 1779.56,347.826 
  "/>
<path clip-path="url(#clip930)" d="M 0 0 M1830.53 333.208 L1830.53 338.139 Q1828.17 335.94 1825.49 334.852 Q1822.83 333.764 1819.82 333.764 Q1813.89 333.764 1810.74 337.398 Q1807.59 341.009 1807.59 347.861 Q1807.59 354.69 1810.74 358.324 Q1813.89 361.935 1819.82 361.935 Q1822.83 361.935 1825.49 360.847 Q1828.17 359.759 1830.53 357.56 L1830.53 362.444 Q1828.08 364.111 1825.33 364.944 Q1822.59 365.778 1819.54 365.778 Q1811.69 365.778 1807.18 360.986 Q1802.66 356.171 1802.66 347.861 Q1802.66 339.528 1807.18 334.736 Q1811.69 329.921 1819.54 329.921 Q1822.64 329.921 1825.37 330.755 Q1828.13 331.565 1830.53 333.208 Z" fill="#000000" fill-rule="evenodd" fill-opacity="1" /><path clip-path="url(#clip930)" d="M 0 0 M1856.55 349.458 L1856.55 365.106 L1852.29 365.106 L1852.29 349.597 Q1852.29 345.917 1850.86 344.088 Q1849.42 342.259 1846.55 342.259 Q1843.1 342.259 1841.11 344.458 Q1839.12 346.657 1839.12 350.454 L1839.12 365.106 L1834.84 365.106 L1834.84 329.088 L1839.12 329.088 L1839.12 343.208 Q1840.65 340.87 1842.71 339.713 Q1844.79 338.555 1847.5 338.555 Q1851.97 338.555 1854.26 341.333 Q1856.55 344.088 1856.55 349.458 Z" fill="#000000" fill-rule="evenodd" fill-opacity="1" /><path clip-path="url(#clip930)" d="M 0 0 M1860.58 354.875 L1860.58 339.18 L1864.84 339.18 L1864.84 354.713 Q1864.84 358.393 1866.27 360.245 Q1867.71 362.074 1870.58 362.074 Q1874.03 362.074 1876.02 359.875 Q1878.03 357.676 1878.03 353.879 L1878.03 339.18 L1882.29 339.18 L1882.29 365.106 L1878.03 365.106 L1878.03 361.125 Q1876.48 363.486 1874.42 364.643 Q1872.39 365.778 1869.68 365.778 Q1865.21 365.778 1862.89 363 Q1860.58 360.222 1860.58 354.875 M1871.3 338.555 L1871.3 338.555 Z" fill="#000000" fill-rule="evenodd" fill-opacity="1" /><path clip-path="url(#clip930)" d="M 0 0 M1901.78 343.162 Q1901.07 342.745 1900.21 342.56 Q1899.38 342.352 1898.36 342.352 Q1894.75 342.352 1892.8 344.713 Q1890.88 347.051 1890.88 351.449 L1890.88 365.106 L1886.6 365.106 L1886.6 339.18 L1890.88 339.18 L1890.88 343.208 Q1892.22 340.847 1894.38 339.713 Q1896.53 338.555 1899.61 338.555 Q1900.05 338.555 1900.58 338.625 Q1901.11 338.671 1901.76 338.787 L1901.78 343.162 Z" fill="#000000" fill-rule="evenodd" fill-opacity="1" /><path clip-path="url(#clip930)" d="M 0 0 M1923.87 340.176 L1923.87 344.157 Q1922.06 343.162 1920.23 342.676 Q1918.43 342.167 1916.58 342.167 Q1912.43 342.167 1910.14 344.805 Q1907.85 347.421 1907.85 352.167 Q1907.85 356.912 1910.14 359.551 Q1912.43 362.166 1916.58 362.166 Q1918.43 362.166 1920.23 361.68 Q1922.06 361.171 1923.87 360.176 L1923.87 364.111 Q1922.08 364.944 1920.16 365.361 Q1918.27 365.778 1916.11 365.778 Q1910.26 365.778 1906.81 362.097 Q1903.36 358.416 1903.36 352.167 Q1903.36 345.824 1906.83 342.19 Q1910.33 338.555 1916.39 338.555 Q1918.36 338.555 1920.23 338.972 Q1922.11 339.366 1923.87 340.176 Z" fill="#000000" fill-rule="evenodd" fill-opacity="1" /><path clip-path="url(#clip930)" d="M 0 0 M1949.89 349.458 L1949.89 365.106 L1945.63 365.106 L1945.63 349.597 Q1945.63 345.917 1944.19 344.088 Q1942.76 342.259 1939.89 342.259 Q1936.44 342.259 1934.45 344.458 Q1932.45 346.657 1932.45 350.454 L1932.45 365.106 L1928.17 365.106 L1928.17 329.088 L1932.45 329.088 L1932.45 343.208 Q1933.98 340.87 1936.04 339.713 Q1938.13 338.555 1940.83 338.555 Q1945.3 338.555 1947.59 341.333 Q1949.89 344.088 1949.89 349.458 Z" fill="#000000" fill-rule="evenodd" fill-opacity="1" /><path clip-path="url(#clip930)" d="M 0 0 M1954.35 339.18 L1958.61 339.18 L1958.61 365.106 L1954.35 365.106 L1954.35 339.18 M1954.35 329.088 L1958.61 329.088 L1958.61 334.481 L1954.35 334.481 L1954.35 329.088 Z" fill="#000000" fill-rule="evenodd" fill-opacity="1" /><path clip-path="url(#clip930)" d="M 0 0 M1963.08 329.088 L1967.34 329.088 L1967.34 365.106 L1963.08 365.106 L1963.08 329.088 Z" fill="#000000" fill-rule="evenodd" fill-opacity="1" /><path clip-path="url(#clip930)" d="M 0 0 M1971.81 329.088 L1976.07 329.088 L1976.07 365.106 L1971.81 365.106 L1971.81 329.088 Z" fill="#000000" fill-rule="evenodd" fill-opacity="1" /><path clip-path="url(#clip930)" d="M 0 0 M2014.26 340.176 L2014.26 344.157 Q2012.45 343.162 2010.63 342.676 Q2008.82 342.167 2006.97 342.167 Q2002.82 342.167 2000.53 344.805 Q1998.24 347.421 1998.24 352.167 Q1998.24 356.912 2000.53 359.551 Q2002.82 362.166 2006.97 362.166 Q2008.82 362.166 2010.63 361.68 Q2012.45 361.171 2014.26 360.176 L2014.26 364.111 Q2012.48 364.944 2010.56 365.361 Q2008.66 365.778 2006.51 365.778 Q2000.65 365.778 1997.2 362.097 Q1993.75 358.416 1993.75 352.167 Q1993.75 345.824 1997.22 342.19 Q2000.72 338.555 2006.78 338.555 Q2008.75 338.555 2010.63 338.972 Q2012.5 339.366 2014.26 340.176 Z" fill="#000000" fill-rule="evenodd" fill-opacity="1" /><path clip-path="url(#clip930)" d="M 0 0 M2028.77 342.167 Q2025.35 342.167 2023.36 344.852 Q2021.37 347.514 2021.37 352.167 Q2021.37 356.819 2023.33 359.504 Q2025.32 362.166 2028.77 362.166 Q2032.18 362.166 2034.17 359.481 Q2036.16 356.796 2036.16 352.167 Q2036.16 347.56 2034.17 344.875 Q2032.18 342.167 2028.77 342.167 M2028.77 338.555 Q2034.33 338.555 2037.5 342.167 Q2040.67 345.778 2040.67 352.167 Q2040.67 358.532 2037.5 362.166 Q2034.33 365.778 2028.77 365.778 Q2023.2 365.778 2020.02 362.166 Q2016.88 358.532 2016.88 352.167 Q2016.88 345.778 2020.02 342.167 Q2023.2 338.555 2028.77 338.555 Z" fill="#000000" fill-rule="evenodd" fill-opacity="1" /><path clip-path="url(#clip930)" d="M 0 0 M2060.16 343.162 Q2059.44 342.745 2058.59 342.56 Q2057.76 342.352 2056.74 342.352 Q2053.13 342.352 2051.18 344.713 Q2049.26 347.051 2049.26 351.449 L2049.26 365.106 L2044.98 365.106 L2044.98 339.18 L2049.26 339.18 L2049.26 343.208 Q2050.6 340.847 2052.76 339.713 Q2054.91 338.555 2057.99 338.555 Q2058.43 338.555 2058.96 338.625 Q2059.49 338.671 2060.14 338.787 L2060.16 343.162 Z" fill="#000000" fill-rule="evenodd" fill-opacity="1" /><path clip-path="url(#clip930)" d="M 0 0 M2078.82 343.162 Q2078.1 342.745 2077.25 342.56 Q2076.41 342.352 2075.39 342.352 Q2071.78 342.352 2069.84 344.713 Q2067.92 347.051 2067.92 351.449 L2067.92 365.106 L2063.63 365.106 L2063.63 339.18 L2067.92 339.18 L2067.92 343.208 Q2069.26 340.847 2071.41 339.713 Q2073.57 338.555 2076.64 338.555 Q2077.08 338.555 2077.62 338.625 Q2078.15 338.671 2078.8 338.787 L2078.82 343.162 Z" fill="#000000" fill-rule="evenodd" fill-opacity="1" /><path clip-path="url(#clip930)" d="M 0 0 M2104.42 351.079 L2104.42 353.162 L2084.84 353.162 Q2085.12 357.56 2087.48 359.875 Q2089.86 362.166 2094.1 362.166 Q2096.55 362.166 2098.84 361.565 Q2101.16 360.963 2103.43 359.759 L2103.43 363.787 Q2101.13 364.759 2098.73 365.268 Q2096.32 365.778 2093.84 365.778 Q2087.64 365.778 2084 362.166 Q2080.39 358.555 2080.39 352.398 Q2080.39 346.032 2083.82 342.305 Q2087.27 338.555 2093.1 338.555 Q2098.33 338.555 2101.37 341.935 Q2104.42 345.292 2104.42 351.079 M2100.16 349.829 Q2100.12 346.333 2098.19 344.25 Q2096.3 342.167 2093.15 342.167 Q2089.58 342.167 2087.43 344.18 Q2085.3 346.194 2084.98 349.852 L2100.16 349.829 Z" fill="#000000" fill-rule="evenodd" fill-opacity="1" /><path clip-path="url(#clip930)" d="M 0 0 M2108.89 329.088 L2113.15 329.088 L2113.15 365.106 L2108.89 365.106 L2108.89 329.088 Z" fill="#000000" fill-rule="evenodd" fill-opacity="1" /><path clip-path="url(#clip930)" d="M 0 0 M2129.4 352.074 Q2124.24 352.074 2122.25 353.254 Q2120.25 354.435 2120.25 357.282 Q2120.25 359.551 2121.74 360.893 Q2123.24 362.213 2125.81 362.213 Q2129.35 362.213 2131.48 359.713 Q2133.63 357.19 2133.63 353.023 L2133.63 352.074 L2129.4 352.074 M2137.89 350.315 L2137.89 365.106 L2133.63 365.106 L2133.63 361.171 Q2132.18 363.532 2130 364.666 Q2127.82 365.778 2124.68 365.778 Q2120.69 365.778 2118.33 363.555 Q2116 361.31 2116 357.56 Q2116 353.185 2118.91 350.963 Q2121.85 348.741 2127.66 348.741 L2133.63 348.741 L2133.63 348.324 Q2133.63 345.384 2131.69 343.787 Q2129.77 342.167 2126.27 342.167 Q2124.05 342.167 2121.94 342.699 Q2119.84 343.231 2117.89 344.296 L2117.89 340.361 Q2120.23 339.458 2122.43 339.018 Q2124.63 338.555 2126.71 338.555 Q2132.34 338.555 2135.12 341.472 Q2137.89 344.389 2137.89 350.315 Z" fill="#000000" fill-rule="evenodd" fill-opacity="1" /><path clip-path="url(#clip930)" d="M 0 0 M2146.57 331.819 L2146.57 339.18 L2155.35 339.18 L2155.35 342.491 L2146.57 342.491 L2146.57 356.565 Q2146.57 359.736 2147.43 360.639 Q2148.31 361.541 2150.97 361.541 L2155.35 361.541 L2155.35 365.106 L2150.97 365.106 Q2146.04 365.106 2144.17 363.278 Q2142.29 361.426 2142.29 356.565 L2142.29 342.491 L2139.17 342.491 L2139.17 339.18 L2142.29 339.18 L2142.29 331.819 L2146.57 331.819 Z" fill="#000000" fill-rule="evenodd" fill-opacity="1" /><path clip-path="url(#clip930)" d="M 0 0 M2159.81 339.18 L2164.07 339.18 L2164.07 365.106 L2159.81 365.106 L2159.81 339.18 M2159.81 329.088 L2164.07 329.088 L2164.07 334.481 L2159.81 334.481 L2159.81 329.088 Z" fill="#000000" fill-rule="evenodd" fill-opacity="1" /><path clip-path="url(#clip930)" d="M 0 0 M2178.59 342.167 Q2175.16 342.167 2173.17 344.852 Q2171.18 347.514 2171.18 352.167 Q2171.18 356.819 2173.15 359.504 Q2175.14 362.166 2178.59 362.166 Q2181.99 362.166 2183.98 359.481 Q2185.97 356.796 2185.97 352.167 Q2185.97 347.56 2183.98 344.875 Q2181.99 342.167 2178.59 342.167 M2178.59 338.555 Q2184.14 338.555 2187.31 342.167 Q2190.49 345.778 2190.49 352.167 Q2190.49 358.532 2187.31 362.166 Q2184.14 365.778 2178.59 365.778 Q2173.01 365.778 2169.84 362.166 Q2166.69 358.532 2166.69 352.167 Q2166.69 345.778 2169.84 342.167 Q2173.01 338.555 2178.59 338.555 Z" fill="#000000" fill-rule="evenodd" fill-opacity="1" /><path clip-path="url(#clip930)" d="M 0 0 M2216.5 349.458 L2216.5 365.106 L2212.24 365.106 L2212.24 349.597 Q2212.24 345.917 2210.81 344.088 Q2209.37 342.259 2206.5 342.259 Q2203.06 342.259 2201.06 344.458 Q2199.07 346.657 2199.07 350.454 L2199.07 365.106 L2194.79 365.106 L2194.79 339.18 L2199.07 339.18 L2199.07 343.208 Q2200.6 340.87 2202.66 339.713 Q2204.75 338.555 2207.45 338.555 Q2211.92 338.555 2214.21 341.333 Q2216.5 344.088 2216.5 349.458 Z" fill="#000000" fill-rule="evenodd" fill-opacity="1" /></svg>
