<?xml version="1.0" encoding="utf-8"?>
<svg xmlns="http://www.w3.org/2000/svg" xmlns:xlink="http://www.w3.org/1999/xlink" width="600" height="400" viewBox="0 0 2400 1600">
<defs>
  <clipPath id="clip970">
    <rect x="0" y="0" width="2400" height="1600"/>
  </clipPath>
</defs>
<path clip-path="url(#clip970)" d="
M0 1600 L2400 1600 L2400 0 L0 0  Z
  " fill="#ffffff" fill-rule="evenodd" fill-opacity="1"/>
<defs>
  <clipPath id="clip971">
    <rect x="480" y="0" width="1681" height="1600"/>
  </clipPath>
</defs>
<path clip-path="url(#clip970)" d="
M224.866 1423.18 L2352.76 1423.18 L2352.76 123.472 L224.866 123.472  Z
  " fill="#ffffff" fill-rule="evenodd" fill-opacity="1"/>
<defs>
  <clipPath id="clip972">
    <rect x="224" y="123" width="2129" height="1301"/>
  </clipPath>
</defs>
<polyline clip-path="url(#clip972)" style="stroke:#000000; stroke-width:2; stroke-opacity:0.1; fill:none" points="
  480.038,1423.18 480.038,123.472 
  "/>
<polyline clip-path="url(#clip972)" style="stroke:#000000; stroke-width:2; stroke-opacity:0.1; fill:none" points="
  919.111,1423.18 919.111,123.472 
  "/>
<polyline clip-path="url(#clip972)" style="stroke:#000000; stroke-width:2; stroke-opacity:0.1; fill:none" points="
  1358.18,1423.18 1358.18,123.472 
  "/>
<polyline clip-path="url(#clip972)" style="stroke:#000000; stroke-width:2; stroke-opacity:0.1; fill:none" points="
  1797.26,1423.18 1797.26,123.472 
  "/>
<polyline clip-path="url(#clip972)" style="stroke:#000000; stroke-width:2; stroke-opacity:0.1; fill:none" points="
  2236.33,1423.18 2236.33,123.472 
  "/>
<polyline clip-path="url(#clip970)" style="stroke:#000000; stroke-width:4; stroke-opacity:1; fill:none" points="
  224.866,1423.18 2352.76,1423.18 
  "/>
<polyline clip-path="url(#clip970)" style="stroke:#000000; stroke-width:4; stroke-opacity:1; fill:none" points="
  480.038,1423.18 480.038,1407.58 
  "/>
<polyline clip-path="url(#clip970)" style="stroke:#000000; stroke-width:4; stroke-opacity:1; fill:none" points="
  919.111,1423.18 919.111,1407.58 
  "/>
<polyline clip-path="url(#clip970)" style="stroke:#000000; stroke-width:4; stroke-opacity:1; fill:none" points="
  1358.18,1423.18 1358.18,1407.58 
  "/>
<polyline clip-path="url(#clip970)" style="stroke:#000000; stroke-width:4; stroke-opacity:1; fill:none" points="
  1797.26,1423.18 1797.26,1407.58 
  "/>
<polyline clip-path="url(#clip970)" style="stroke:#000000; stroke-width:4; stroke-opacity:1; fill:none" points="
  2236.33,1423.18 2236.33,1407.58 
  "/>
<path clip-path="url(#clip970)" d="M 0 0 M443.406 1479.92 L451.045 1479.92 L451.045 1453.55 L442.735 1455.22 L442.735 1450.96 L450.999 1449.29 L455.675 1449.29 L455.675 1479.92 L463.314 1479.92 L463.314 1483.85 L443.406 1483.85 L443.406 1479.92 Z" fill="#000000" fill-rule="evenodd" fill-opacity="1" /><path clip-path="url(#clip970)" d="M 0 0 M478.383 1452.37 Q474.772 1452.37 472.943 1455.94 Q471.138 1459.48 471.138 1466.61 Q471.138 1473.71 472.943 1477.28 Q474.772 1480.82 478.383 1480.82 Q482.017 1480.82 483.823 1477.28 Q485.651 1473.71 485.651 1466.61 Q485.651 1459.48 483.823 1455.94 Q482.017 1452.37 478.383 1452.37 M478.383 1448.67 Q484.193 1448.67 487.249 1453.27 Q490.327 1457.86 490.327 1466.61 Q490.327 1475.33 487.249 1479.94 Q484.193 1484.52 478.383 1484.52 Q472.573 1484.52 469.494 1479.94 Q466.439 1475.33 466.439 1466.61 Q466.439 1457.86 469.494 1453.27 Q472.573 1448.67 478.383 1448.67 Z" fill="#000000" fill-rule="evenodd" fill-opacity="1" /><path clip-path="url(#clip970)" d="M 0 0 M505.397 1452.37 Q501.786 1452.37 499.957 1455.94 Q498.151 1459.48 498.151 1466.61 Q498.151 1473.71 499.957 1477.28 Q501.786 1480.82 505.397 1480.82 Q509.031 1480.82 510.837 1477.28 Q512.665 1473.71 512.665 1466.61 Q512.665 1459.48 510.837 1455.94 Q509.031 1452.37 505.397 1452.37 M505.397 1448.67 Q511.207 1448.67 514.262 1453.27 Q517.341 1457.86 517.341 1466.61 Q517.341 1475.33 514.262 1479.94 Q511.207 1484.52 505.397 1484.52 Q499.587 1484.52 496.508 1479.94 Q493.452 1475.33 493.452 1466.61 Q493.452 1457.86 496.508 1453.27 Q499.587 1448.67 505.397 1448.67 Z" fill="#000000" fill-rule="evenodd" fill-opacity="1" /><path clip-path="url(#clip970)" d="M 0 0 M883.776 1479.92 L891.415 1479.92 L891.415 1453.55 L883.105 1455.22 L883.105 1450.96 L891.368 1449.29 L896.044 1449.29 L896.044 1479.92 L903.683 1479.92 L903.683 1483.85 L883.776 1483.85 L883.776 1479.92 Z" fill="#000000" fill-rule="evenodd" fill-opacity="1" /><path clip-path="url(#clip970)" d="M 0 0 M912.78 1479.92 L929.1 1479.92 L929.1 1483.85 L907.155 1483.85 L907.155 1479.92 Q909.817 1477.16 914.401 1472.53 Q919.007 1467.88 920.188 1466.54 Q922.433 1464.01 923.313 1462.28 Q924.216 1460.52 924.216 1458.83 Q924.216 1456.07 922.271 1454.34 Q920.35 1452.6 917.248 1452.6 Q915.049 1452.6 912.595 1453.37 Q910.165 1454.13 907.387 1455.68 L907.387 1450.96 Q910.211 1449.82 912.665 1449.25 Q915.118 1448.67 917.155 1448.67 Q922.526 1448.67 925.72 1451.35 Q928.915 1454.04 928.915 1458.53 Q928.915 1460.66 928.104 1462.58 Q927.317 1464.48 925.211 1467.07 Q924.632 1467.74 921.53 1470.96 Q918.428 1474.15 912.78 1479.92 Z" fill="#000000" fill-rule="evenodd" fill-opacity="1" /><path clip-path="url(#clip970)" d="M 0 0 M934.215 1449.29 L952.572 1449.29 L952.572 1453.23 L938.498 1453.23 L938.498 1461.7 Q939.516 1461.35 940.535 1461.19 Q941.553 1461 942.572 1461 Q948.359 1461 951.739 1464.18 Q955.118 1467.35 955.118 1472.76 Q955.118 1478.34 951.646 1481.44 Q948.174 1484.52 941.854 1484.52 Q939.678 1484.52 937.41 1484.15 Q935.165 1483.78 932.757 1483.04 L932.757 1478.34 Q934.84 1479.48 937.063 1480.03 Q939.285 1480.59 941.762 1480.59 Q945.766 1480.59 948.104 1478.48 Q950.442 1476.38 950.442 1472.76 Q950.442 1469.15 948.104 1467.05 Q945.766 1464.94 941.762 1464.94 Q939.887 1464.94 938.012 1465.36 Q936.16 1465.77 934.215 1466.65 L934.215 1449.29 Z" fill="#000000" fill-rule="evenodd" fill-opacity="1" /><path clip-path="url(#clip970)" d="M 0 0 M1322.05 1479.92 L1329.69 1479.92 L1329.69 1453.55 L1321.38 1455.22 L1321.38 1450.96 L1329.64 1449.29 L1334.32 1449.29 L1334.32 1479.92 L1341.96 1479.92 L1341.96 1483.85 L1322.05 1483.85 L1322.05 1479.92 Z" fill="#000000" fill-rule="evenodd" fill-opacity="1" /><path clip-path="url(#clip970)" d="M 0 0 M1347.07 1449.29 L1365.43 1449.29 L1365.43 1453.23 L1351.36 1453.23 L1351.36 1461.7 Q1352.37 1461.35 1353.39 1461.19 Q1354.41 1461 1355.43 1461 Q1361.22 1461 1364.6 1464.18 Q1367.98 1467.35 1367.98 1472.76 Q1367.98 1478.34 1364.5 1481.44 Q1361.03 1484.52 1354.71 1484.52 Q1352.54 1484.52 1350.27 1484.15 Q1348.02 1483.78 1345.62 1483.04 L1345.62 1478.34 Q1347.7 1479.48 1349.92 1480.03 Q1352.14 1480.59 1354.62 1480.59 Q1358.62 1480.59 1360.96 1478.48 Q1363.3 1476.38 1363.3 1472.76 Q1363.3 1469.15 1360.96 1467.05 Q1358.62 1464.94 1354.62 1464.94 Q1352.74 1464.94 1350.87 1465.36 Q1349.02 1465.77 1347.07 1466.65 L1347.07 1449.29 Z" fill="#000000" fill-rule="evenodd" fill-opacity="1" /><path clip-path="url(#clip970)" d="M 0 0 M1383.05 1452.37 Q1379.43 1452.37 1377.61 1455.94 Q1375.8 1459.48 1375.8 1466.61 Q1375.8 1473.71 1377.61 1477.28 Q1379.43 1480.82 1383.05 1480.82 Q1386.68 1480.82 1388.49 1477.28 Q1390.31 1473.71 1390.31 1466.61 Q1390.31 1459.48 1388.49 1455.94 Q1386.68 1452.37 1383.05 1452.37 M1383.05 1448.67 Q1388.86 1448.67 1391.91 1453.27 Q1394.99 1457.86 1394.99 1466.61 Q1394.99 1475.33 1391.91 1479.94 Q1388.86 1484.52 1383.05 1484.52 Q1377.24 1484.52 1374.16 1479.94 Q1371.1 1475.33 1371.1 1466.61 Q1371.1 1457.86 1374.16 1453.27 Q1377.24 1448.67 1383.05 1448.67 Z" fill="#000000" fill-rule="evenodd" fill-opacity="1" /><path clip-path="url(#clip970)" d="M 0 0 M1761.58 1479.92 L1769.21 1479.92 L1769.21 1453.55 L1760.9 1455.22 L1760.9 1450.96 L1769.17 1449.29 L1773.84 1449.29 L1773.84 1479.92 L1781.48 1479.92 L1781.48 1483.85 L1761.58 1483.85 L1761.58 1479.92 Z" fill="#000000" fill-rule="evenodd" fill-opacity="1" /><path clip-path="url(#clip970)" d="M 0 0 M1785.37 1449.29 L1807.59 1449.29 L1807.59 1451.28 L1795.05 1483.85 L1790.16 1483.85 L1801.97 1453.23 L1785.37 1453.23 L1785.37 1449.29 Z" fill="#000000" fill-rule="evenodd" fill-opacity="1" /><path clip-path="url(#clip970)" d="M 0 0 M1812.71 1449.29 L1831.07 1449.29 L1831.07 1453.23 L1816.99 1453.23 L1816.99 1461.7 Q1818.01 1461.35 1819.03 1461.19 Q1820.05 1461 1821.07 1461 Q1826.85 1461 1830.23 1464.18 Q1833.61 1467.35 1833.61 1472.76 Q1833.61 1478.34 1830.14 1481.44 Q1826.67 1484.52 1820.35 1484.52 Q1818.17 1484.52 1815.9 1484.15 Q1813.66 1483.78 1811.25 1483.04 L1811.25 1478.34 Q1813.33 1479.48 1815.56 1480.03 Q1817.78 1480.59 1820.26 1480.59 Q1824.26 1480.59 1826.6 1478.48 Q1828.94 1476.38 1828.94 1472.76 Q1828.94 1469.15 1826.6 1467.05 Q1824.26 1464.94 1820.26 1464.94 Q1818.38 1464.94 1816.51 1465.36 Q1814.65 1465.77 1812.71 1466.65 L1812.71 1449.29 Z" fill="#000000" fill-rule="evenodd" fill-opacity="1" /><path clip-path="url(#clip970)" d="M 0 0 M2203.97 1479.92 L2220.29 1479.92 L2220.29 1483.85 L2198.35 1483.85 L2198.35 1479.92 Q2201.01 1477.16 2205.59 1472.53 Q2210.2 1467.88 2211.38 1466.54 Q2213.62 1464.01 2214.5 1462.28 Q2215.41 1460.52 2215.41 1458.83 Q2215.41 1456.07 2213.46 1454.34 Q2211.54 1452.6 2208.44 1452.6 Q2206.24 1452.6 2203.79 1453.37 Q2201.35 1454.13 2198.58 1455.68 L2198.58 1450.96 Q2201.4 1449.82 2203.85 1449.25 Q2206.31 1448.67 2208.35 1448.67 Q2213.72 1448.67 2216.91 1451.35 Q2220.1 1454.04 2220.1 1458.53 Q2220.1 1460.66 2219.29 1462.58 Q2218.51 1464.48 2216.4 1467.07 Q2215.82 1467.74 2212.72 1470.96 Q2209.62 1474.15 2203.97 1479.92 Z" fill="#000000" fill-rule="evenodd" fill-opacity="1" /><path clip-path="url(#clip970)" d="M 0 0 M2235.36 1452.37 Q2231.75 1452.37 2229.92 1455.94 Q2228.11 1459.48 2228.11 1466.61 Q2228.11 1473.71 2229.92 1477.28 Q2231.75 1480.82 2235.36 1480.82 Q2238.99 1480.82 2240.8 1477.28 Q2242.63 1473.71 2242.63 1466.61 Q2242.63 1459.48 2240.8 1455.94 Q2238.99 1452.37 2235.36 1452.37 M2235.36 1448.67 Q2241.17 1448.67 2244.22 1453.27 Q2247.3 1457.86 2247.3 1466.61 Q2247.3 1475.33 2244.22 1479.94 Q2241.17 1484.52 2235.36 1484.52 Q2229.55 1484.52 2226.47 1479.94 Q2223.41 1475.33 2223.41 1466.61 Q2223.41 1457.86 2226.47 1453.27 Q2229.55 1448.67 2235.36 1448.67 Z" fill="#000000" fill-rule="evenodd" fill-opacity="1" /><path clip-path="url(#clip970)" d="M 0 0 M2262.37 1452.37 Q2258.76 1452.37 2256.93 1455.94 Q2255.13 1459.48 2255.13 1466.61 Q2255.13 1473.71 2256.93 1477.28 Q2258.76 1480.82 2262.37 1480.82 Q2266.01 1480.82 2267.81 1477.28 Q2269.64 1473.71 2269.64 1466.61 Q2269.64 1459.48 2267.81 1455.94 Q2266.01 1452.37 2262.37 1452.37 M2262.37 1448.67 Q2268.18 1448.67 2271.24 1453.27 Q2274.32 1457.86 2274.32 1466.61 Q2274.32 1475.33 2271.24 1479.94 Q2268.18 1484.52 2262.37 1484.52 Q2256.56 1484.52 2253.48 1479.94 Q2250.43 1475.33 2250.43 1466.61 Q2250.43 1457.86 2253.48 1453.27 Q2256.56 1448.67 2262.37 1448.67 Z" fill="#000000" fill-rule="evenodd" fill-opacity="1" /><path clip-path="url(#clip970)" d="M 0 0 M1003.61 1556.04 L985.469 1508.52 L992.185 1508.52 L1007.24 1548.53 L1022.33 1508.52 L1029.01 1508.52 L1010.9 1556.04 L1003.61 1556.04 Z" fill="#000000" fill-rule="evenodd" fill-opacity="1" /><path clip-path="url(#clip970)" d="M 0 0 M1060.58 1536.76 L1060.58 1539.62 L1033.66 1539.62 Q1034.04 1545.67 1037.29 1548.85 Q1040.56 1552 1046.39 1552 Q1049.76 1552 1052.91 1551.17 Q1056.1 1550.35 1059.22 1548.69 L1059.22 1554.23 Q1056.06 1555.57 1052.75 1556.27 Q1049.44 1556.97 1046.04 1556.97 Q1037.51 1556.97 1032.51 1552 Q1027.55 1547.04 1027.55 1538.57 Q1027.55 1529.82 1032.26 1524.69 Q1037 1519.54 1045.02 1519.54 Q1052.21 1519.54 1056.38 1524.18 Q1060.58 1528.8 1060.58 1536.76 M1054.73 1535.04 Q1054.66 1530.23 1052.02 1527.37 Q1049.41 1524.5 1045.08 1524.5 Q1040.18 1524.5 1037.22 1527.27 Q1034.29 1530.04 1033.85 1535.07 L1054.73 1535.04 Z" fill="#000000" fill-rule="evenodd" fill-opacity="1" /><path clip-path="url(#clip970)" d="M 0 0 M1096.36 1534.53 L1096.36 1556.04 L1090.5 1556.04 L1090.5 1534.72 Q1090.5 1529.66 1088.53 1527.14 Q1086.56 1524.63 1082.61 1524.63 Q1077.87 1524.63 1075.13 1527.65 Q1072.39 1530.68 1072.39 1535.9 L1072.39 1556.04 L1066.5 1556.04 L1066.5 1520.4 L1072.39 1520.4 L1072.39 1525.93 Q1074.49 1522.72 1077.33 1521.13 Q1080.19 1519.54 1083.91 1519.54 Q1090.06 1519.54 1093.21 1523.36 Q1096.36 1527.14 1096.36 1534.53 Z" fill="#000000" fill-rule="evenodd" fill-opacity="1" /><path clip-path="url(#clip970)" d="M 0 0 M1108.3 1510.27 L1108.3 1520.4 L1120.36 1520.4 L1120.36 1524.95 L1108.3 1524.95 L1108.3 1544.3 Q1108.3 1548.66 1109.47 1549.9 Q1110.68 1551.14 1114.34 1551.14 L1120.36 1551.14 L1120.36 1556.04 L1114.34 1556.04 Q1107.56 1556.04 1104.99 1553.53 Q1102.41 1550.98 1102.41 1544.3 L1102.41 1524.95 L1098.11 1524.95 L1098.11 1520.4 L1102.41 1520.4 L1102.41 1510.27 L1108.3 1510.27 Z" fill="#000000" fill-rule="evenodd" fill-opacity="1" /><path clip-path="url(#clip970)" d="M 0 0 M1153.91 1513.81 L1153.91 1550.76 L1161.67 1550.76 Q1171.51 1550.76 1176.06 1546.3 Q1180.64 1541.85 1180.64 1532.24 Q1180.64 1522.69 1176.06 1518.26 Q1171.51 1513.81 1161.67 1513.81 L1153.91 1513.81 M1147.48 1508.52 L1160.69 1508.52 Q1174.5 1508.52 1180.96 1514.28 Q1187.42 1520.01 1187.42 1532.24 Q1187.42 1544.52 1180.93 1550.28 Q1174.44 1556.04 1160.69 1556.04 L1147.48 1556.04 L1147.48 1508.52 Z" fill="#000000" fill-rule="evenodd" fill-opacity="1" /><path clip-path="url(#clip970)" d="M 0 0 M1193.56 1520.4 L1199.42 1520.4 L1199.42 1556.04 L1193.56 1556.04 L1193.56 1520.4 M1193.56 1506.52 L1199.42 1506.52 L1199.42 1513.93 L1193.56 1513.93 L1193.56 1506.52 Z" fill="#000000" fill-rule="evenodd" fill-opacity="1" /><path clip-path="url(#clip970)" d="M 0 0 M1221.76 1538.12 Q1214.67 1538.12 1211.93 1539.75 Q1209.19 1541.37 1209.19 1545.29 Q1209.19 1548.4 1211.23 1550.25 Q1213.3 1552.07 1216.83 1552.07 Q1221.7 1552.07 1224.63 1548.63 Q1227.59 1545.16 1227.59 1539.43 L1227.59 1538.12 L1221.76 1538.12 M1233.45 1535.71 L1233.45 1556.04 L1227.59 1556.04 L1227.59 1550.63 Q1225.58 1553.88 1222.59 1555.44 Q1219.6 1556.97 1215.27 1556.97 Q1209.8 1556.97 1206.55 1553.91 Q1203.34 1550.82 1203.34 1545.67 Q1203.34 1539.65 1207.35 1536.6 Q1211.39 1533.54 1219.38 1533.54 L1227.59 1533.54 L1227.59 1532.97 Q1227.59 1528.93 1224.92 1526.73 Q1222.27 1524.5 1217.47 1524.5 Q1214.41 1524.5 1211.52 1525.23 Q1208.62 1525.97 1205.95 1527.43 L1205.95 1522.02 Q1209.16 1520.78 1212.18 1520.17 Q1215.21 1519.54 1218.07 1519.54 Q1225.81 1519.54 1229.63 1523.55 Q1233.45 1527.56 1233.45 1535.71 Z" fill="#000000" fill-rule="evenodd" fill-opacity="1" /><path clip-path="url(#clip970)" d="M 0 0 M1267.34 1527.24 Q1269.54 1523.29 1272.59 1521.41 Q1275.65 1519.54 1279.79 1519.54 Q1285.36 1519.54 1288.38 1523.45 Q1291.41 1527.33 1291.41 1534.53 L1291.41 1556.04 L1285.52 1556.04 L1285.52 1534.72 Q1285.52 1529.59 1283.7 1527.11 Q1281.89 1524.63 1278.16 1524.63 Q1273.61 1524.63 1270.97 1527.65 Q1268.33 1530.68 1268.33 1535.9 L1268.33 1556.04 L1262.44 1556.04 L1262.44 1534.72 Q1262.44 1529.56 1260.63 1527.11 Q1258.81 1524.63 1255.03 1524.63 Q1250.54 1524.63 1247.9 1527.68 Q1245.25 1530.71 1245.25 1535.9 L1245.25 1556.04 L1239.37 1556.04 L1239.37 1520.4 L1245.25 1520.4 L1245.25 1525.93 Q1247.26 1522.66 1250.06 1521.1 Q1252.86 1519.54 1256.71 1519.54 Q1260.6 1519.54 1263.3 1521.51 Q1266.04 1523.48 1267.34 1527.24 Z" fill="#000000" fill-rule="evenodd" fill-opacity="1" /><path clip-path="url(#clip970)" d="M 0 0 M1328.04 1536.76 L1328.04 1539.62 L1301.11 1539.62 Q1301.49 1545.67 1304.74 1548.85 Q1308.02 1552 1313.84 1552 Q1317.22 1552 1320.37 1551.17 Q1323.55 1550.35 1326.67 1548.69 L1326.67 1554.23 Q1323.52 1555.57 1320.21 1556.27 Q1316.9 1556.97 1313.49 1556.97 Q1304.96 1556.97 1299.97 1552 Q1295 1547.04 1295 1538.57 Q1295 1529.82 1299.71 1524.69 Q1304.45 1519.54 1312.48 1519.54 Q1319.67 1519.54 1323.84 1524.18 Q1328.04 1528.8 1328.04 1536.76 M1322.18 1535.04 Q1322.12 1530.23 1319.48 1527.37 Q1316.87 1524.5 1312.54 1524.5 Q1307.64 1524.5 1304.68 1527.27 Q1301.75 1530.04 1301.3 1535.07 L1322.18 1535.04 Z" fill="#000000" fill-rule="evenodd" fill-opacity="1" /><path clip-path="url(#clip970)" d="M 0 0 M1339.98 1510.27 L1339.98 1520.4 L1352.04 1520.4 L1352.04 1524.95 L1339.98 1524.95 L1339.98 1544.3 Q1339.98 1548.66 1341.15 1549.9 Q1342.36 1551.14 1346.02 1551.14 L1352.04 1551.14 L1352.04 1556.04 L1346.02 1556.04 Q1339.24 1556.04 1336.67 1553.53 Q1334.09 1550.98 1334.09 1544.3 L1334.09 1524.95 L1329.79 1524.95 L1329.79 1520.4 L1334.09 1520.4 L1334.09 1510.27 L1339.98 1510.27 Z" fill="#000000" fill-rule="evenodd" fill-opacity="1" /><path clip-path="url(#clip970)" d="M 0 0 M1388.67 1536.76 L1388.67 1539.62 L1361.75 1539.62 Q1362.13 1545.67 1365.37 1548.85 Q1368.65 1552 1374.48 1552 Q1377.85 1552 1381 1551.17 Q1384.19 1550.35 1387.3 1548.69 L1387.3 1554.23 Q1384.15 1555.57 1380.84 1556.27 Q1377.53 1556.97 1374.13 1556.97 Q1365.6 1556.97 1360.6 1552 Q1355.64 1547.04 1355.64 1538.57 Q1355.64 1529.82 1360.35 1524.69 Q1365.09 1519.54 1373.11 1519.54 Q1380.3 1519.54 1384.47 1524.18 Q1388.67 1528.8 1388.67 1536.76 M1382.82 1535.04 Q1382.75 1530.23 1380.11 1527.37 Q1377.5 1524.5 1373.17 1524.5 Q1368.27 1524.5 1365.31 1527.27 Q1362.38 1530.04 1361.94 1535.07 L1382.82 1535.04 Z" fill="#000000" fill-rule="evenodd" fill-opacity="1" /><path clip-path="url(#clip970)" d="M 0 0 M1415.47 1525.87 Q1414.49 1525.3 1413.31 1525.04 Q1412.16 1524.76 1410.76 1524.76 Q1405.8 1524.76 1403.12 1528 Q1400.48 1531.22 1400.48 1537.27 L1400.48 1556.04 L1394.59 1556.04 L1394.59 1520.4 L1400.48 1520.4 L1400.48 1525.93 Q1402.33 1522.69 1405.29 1521.13 Q1408.25 1519.54 1412.48 1519.54 Q1413.09 1519.54 1413.82 1519.63 Q1414.55 1519.7 1415.44 1519.85 L1415.47 1525.87 Z" fill="#000000" fill-rule="evenodd" fill-opacity="1" /><path clip-path="url(#clip970)" d="M 0 0 M1456.4 1506.58 Q1452.14 1513.9 1450.07 1521.06 Q1448 1528.23 1448 1535.58 Q1448 1542.93 1450.07 1550.16 Q1452.17 1557.35 1456.4 1564.64 L1451.31 1564.64 Q1446.54 1557.16 1444.15 1549.93 Q1441.79 1542.71 1441.79 1535.58 Q1441.79 1528.48 1444.15 1521.29 Q1446.51 1514.09 1451.31 1506.58 L1456.4 1506.58 Z" fill="#000000" fill-rule="evenodd" fill-opacity="1" /><path clip-path="url(#clip970)" d="M 0 0 M1490.3 1527.24 Q1492.5 1523.29 1495.55 1521.41 Q1498.61 1519.54 1502.75 1519.54 Q1508.32 1519.54 1511.34 1523.45 Q1514.36 1527.33 1514.36 1534.53 L1514.36 1556.04 L1508.48 1556.04 L1508.48 1534.72 Q1508.48 1529.59 1506.66 1527.11 Q1504.85 1524.63 1501.12 1524.63 Q1496.57 1524.63 1493.93 1527.65 Q1491.29 1530.68 1491.29 1535.9 L1491.29 1556.04 L1485.4 1556.04 L1485.4 1534.72 Q1485.4 1529.56 1483.59 1527.11 Q1481.77 1524.63 1477.98 1524.63 Q1473.5 1524.63 1470.85 1527.68 Q1468.21 1530.71 1468.21 1535.9 L1468.21 1556.04 L1462.32 1556.04 L1462.32 1520.4 L1468.21 1520.4 L1468.21 1525.93 Q1470.22 1522.66 1473.02 1521.1 Q1475.82 1519.54 1479.67 1519.54 Q1483.55 1519.54 1486.26 1521.51 Q1489 1523.48 1490.3 1527.24 Z" fill="#000000" fill-rule="evenodd" fill-opacity="1" /><path clip-path="url(#clip970)" d="M 0 0 M1548.26 1527.24 Q1550.46 1523.29 1553.51 1521.41 Q1556.57 1519.54 1560.71 1519.54 Q1566.28 1519.54 1569.3 1523.45 Q1572.32 1527.33 1572.32 1534.53 L1572.32 1556.04 L1566.44 1556.04 L1566.44 1534.72 Q1566.44 1529.59 1564.62 1527.11 Q1562.81 1524.63 1559.08 1524.63 Q1554.53 1524.63 1551.89 1527.65 Q1549.25 1530.68 1549.25 1535.9 L1549.25 1556.04 L1543.36 1556.04 L1543.36 1534.72 Q1543.36 1529.56 1541.55 1527.11 Q1539.73 1524.63 1535.94 1524.63 Q1531.46 1524.63 1528.81 1527.68 Q1526.17 1530.71 1526.17 1535.9 L1526.17 1556.04 L1520.28 1556.04 L1520.28 1520.4 L1526.17 1520.4 L1526.17 1525.93 Q1528.18 1522.66 1530.98 1521.1 Q1533.78 1519.54 1537.63 1519.54 Q1541.51 1519.54 1544.22 1521.51 Q1546.96 1523.48 1548.26 1527.24 Z" fill="#000000" fill-rule="evenodd" fill-opacity="1" /><path clip-path="url(#clip970)" d="M 0 0 M1577.54 1506.58 L1582.64 1506.58 Q1587.41 1514.09 1589.77 1521.29 Q1592.15 1528.48 1592.15 1535.58 Q1592.15 1542.71 1589.77 1549.93 Q1587.41 1557.16 1582.64 1564.64 L1577.54 1564.64 Q1581.78 1557.35 1583.85 1550.16 Q1585.95 1542.93 1585.95 1535.58 Q1585.95 1528.23 1583.85 1521.06 Q1581.78 1513.9 1577.54 1506.58 Z" fill="#000000" fill-rule="evenodd" fill-opacity="1" /><polyline clip-path="url(#clip972)" style="stroke:#000000; stroke-width:2; stroke-opacity:0.1; fill:none" points="
  224.866,1410.99 2352.76,1410.99 
  "/>
<polyline clip-path="url(#clip972)" style="stroke:#000000; stroke-width:2; stroke-opacity:0.1; fill:none" points="
  224.866,985.019 2352.76,985.019 
  "/>
<polyline clip-path="url(#clip972)" style="stroke:#000000; stroke-width:2; stroke-opacity:0.1; fill:none" points="
  224.866,559.048 2352.76,559.048 
  "/>
<polyline clip-path="url(#clip972)" style="stroke:#000000; stroke-width:2; stroke-opacity:0.1; fill:none" points="
  224.866,133.077 2352.76,133.077 
  "/>
<polyline clip-path="url(#clip970)" style="stroke:#000000; stroke-width:4; stroke-opacity:1; fill:none" points="
  224.866,1423.18 224.866,123.472 
  "/>
<polyline clip-path="url(#clip970)" style="stroke:#000000; stroke-width:4; stroke-opacity:1; fill:none" points="
  224.866,1410.99 250.401,1410.99 
  "/>
<polyline clip-path="url(#clip970)" style="stroke:#000000; stroke-width:4; stroke-opacity:1; fill:none" points="
  224.866,985.019 250.401,985.019 
  "/>
<polyline clip-path="url(#clip970)" style="stroke:#000000; stroke-width:4; stroke-opacity:1; fill:none" points="
  224.866,559.048 250.401,559.048 
  "/>
<polyline clip-path="url(#clip970)" style="stroke:#000000; stroke-width:4; stroke-opacity:1; fill:none" points="
  224.866,133.077 250.401,133.077 
  "/>
<path clip-path="url(#clip970)" d="M 0 0 M176.922 1396.79 Q173.311 1396.79 171.482 1400.35 Q169.677 1403.9 169.677 1411.02 Q169.677 1418.13 171.482 1421.7 Q173.311 1425.24 176.922 1425.24 Q180.556 1425.24 182.362 1421.7 Q184.19 1418.13 184.19 1411.02 Q184.19 1403.9 182.362 1400.35 Q180.556 1396.79 176.922 1396.79 M176.922 1393.09 Q182.732 1393.09 185.788 1397.69 Q188.866 1402.27 188.866 1411.02 Q188.866 1419.75 185.788 1424.36 Q182.732 1428.94 176.922 1428.94 Q171.112 1428.94 168.033 1424.36 Q164.977 1419.75 164.977 1411.02 Q164.977 1402.27 168.033 1397.69 Q171.112 1393.09 176.922 1393.09 Z" fill="#000000" fill-rule="evenodd" fill-opacity="1" /><path clip-path="url(#clip970)" d="M 0 0 M140.95 967.739 L159.306 967.739 L159.306 971.674 L145.232 971.674 L145.232 980.146 Q146.251 979.799 147.269 979.637 Q148.288 979.452 149.306 979.452 Q155.093 979.452 158.473 982.623 Q161.852 985.795 161.852 991.211 Q161.852 996.79 158.38 999.892 Q154.908 1002.97 148.589 1002.97 Q146.413 1002.97 144.144 1002.6 Q141.899 1002.23 139.492 1001.49 L139.492 996.79 Q141.575 997.924 143.797 998.48 Q146.019 999.035 148.496 999.035 Q152.501 999.035 154.839 996.929 Q157.177 994.822 157.177 991.211 Q157.177 987.6 154.839 985.494 Q152.501 983.387 148.496 983.387 Q146.621 983.387 144.746 983.804 Q142.894 984.221 140.95 985.1 L140.95 967.739 Z" fill="#000000" fill-rule="evenodd" fill-opacity="1" /><path clip-path="url(#clip970)" d="M 0 0 M176.922 970.818 Q173.311 970.818 171.482 974.383 Q169.677 977.924 169.677 985.054 Q169.677 992.16 171.482 995.725 Q173.311 999.267 176.922 999.267 Q180.556 999.267 182.362 995.725 Q184.19 992.16 184.19 985.054 Q184.19 977.924 182.362 974.383 Q180.556 970.818 176.922 970.818 M176.922 967.114 Q182.732 967.114 185.788 971.721 Q188.866 976.304 188.866 985.054 Q188.866 993.781 185.788 998.387 Q182.732 1002.97 176.922 1002.97 Q171.112 1002.97 168.033 998.387 Q164.977 993.781 164.977 985.054 Q164.977 976.304 168.033 971.721 Q171.112 967.114 176.922 967.114 Z" fill="#000000" fill-rule="evenodd" fill-opacity="1" /><path clip-path="url(#clip970)" d="M 0 0 M114.931 572.393 L122.57 572.393 L122.57 546.027 L114.26 547.694 L114.26 543.435 L122.524 541.768 L127.2 541.768 L127.2 572.393 L134.839 572.393 L134.839 576.328 L114.931 576.328 L114.931 572.393 Z" fill="#000000" fill-rule="evenodd" fill-opacity="1" /><path clip-path="url(#clip970)" d="M 0 0 M149.908 544.847 Q146.297 544.847 144.468 548.412 Q142.663 551.953 142.663 559.083 Q142.663 566.189 144.468 569.754 Q146.297 573.296 149.908 573.296 Q153.542 573.296 155.348 569.754 Q157.177 566.189 157.177 559.083 Q157.177 551.953 155.348 548.412 Q153.542 544.847 149.908 544.847 M149.908 541.143 Q155.718 541.143 158.774 545.75 Q161.852 550.333 161.852 559.083 Q161.852 567.81 158.774 572.416 Q155.718 576.999 149.908 576.999 Q144.098 576.999 141.019 572.416 Q137.964 567.81 137.964 559.083 Q137.964 550.333 141.019 545.75 Q144.098 541.143 149.908 541.143 Z" fill="#000000" fill-rule="evenodd" fill-opacity="1" /><path clip-path="url(#clip970)" d="M 0 0 M176.922 544.847 Q173.311 544.847 171.482 548.412 Q169.677 551.953 169.677 559.083 Q169.677 566.189 171.482 569.754 Q173.311 573.296 176.922 573.296 Q180.556 573.296 182.362 569.754 Q184.19 566.189 184.19 559.083 Q184.19 551.953 182.362 548.412 Q180.556 544.847 176.922 544.847 M176.922 541.143 Q182.732 541.143 185.788 545.75 Q188.866 550.333 188.866 559.083 Q188.866 567.81 185.788 572.416 Q182.732 576.999 176.922 576.999 Q171.112 576.999 168.033 572.416 Q164.977 567.81 164.977 559.083 Q164.977 550.333 168.033 545.75 Q171.112 541.143 176.922 541.143 Z" fill="#000000" fill-rule="evenodd" fill-opacity="1" /><path clip-path="url(#clip970)" d="M 0 0 M115.927 146.422 L123.566 146.422 L123.566 120.056 L115.256 121.723 L115.256 117.464 L123.519 115.797 L128.195 115.797 L128.195 146.422 L135.834 146.422 L135.834 150.357 L115.927 150.357 L115.927 146.422 Z" fill="#000000" fill-rule="evenodd" fill-opacity="1" /><path clip-path="url(#clip970)" d="M 0 0 M140.95 115.797 L159.306 115.797 L159.306 119.732 L145.232 119.732 L145.232 128.204 Q146.251 127.857 147.269 127.695 Q148.288 127.51 149.306 127.51 Q155.093 127.51 158.473 130.681 Q161.852 133.852 161.852 139.269 Q161.852 144.848 158.38 147.95 Q154.908 151.028 148.589 151.028 Q146.413 151.028 144.144 150.658 Q141.899 150.288 139.492 149.547 L139.492 144.848 Q141.575 145.982 143.797 146.538 Q146.019 147.093 148.496 147.093 Q152.501 147.093 154.839 144.987 Q157.177 142.88 157.177 139.269 Q157.177 135.658 154.839 133.552 Q152.501 131.445 148.496 131.445 Q146.621 131.445 144.746 131.862 Q142.894 132.278 140.95 133.158 L140.95 115.797 Z" fill="#000000" fill-rule="evenodd" fill-opacity="1" /><path clip-path="url(#clip970)" d="M 0 0 M176.922 118.876 Q173.311 118.876 171.482 122.44 Q169.677 125.982 169.677 133.112 Q169.677 140.218 171.482 143.783 Q173.311 147.325 176.922 147.325 Q180.556 147.325 182.362 143.783 Q184.19 140.218 184.19 133.112 Q184.19 125.982 182.362 122.44 Q180.556 118.876 176.922 118.876 M176.922 115.172 Q182.732 115.172 185.788 119.778 Q188.866 124.362 188.866 133.112 Q188.866 141.839 185.788 146.445 Q182.732 151.028 176.922 151.028 Q171.112 151.028 168.033 146.445 Q164.977 141.839 164.977 133.112 Q164.977 124.362 168.033 119.778 Q171.112 115.172 176.922 115.172 Z" fill="#000000" fill-rule="evenodd" fill-opacity="1" /><path clip-path="url(#clip970)" d="M 0 0 M45.7677 1058.67 L63.6235 1058.67 L63.6235 1050.58 Q63.6235 1046.1 61.3 1043.65 Q58.9765 1041.19 54.6797 1041.19 Q50.4147 1041.19 48.0912 1043.65 Q45.7677 1046.1 45.7677 1050.58 L45.7677 1058.67 M40.4842 1065.1 L40.4842 1050.58 Q40.4842 1042.6 44.1126 1038.52 Q47.7092 1034.42 54.6797 1034.42 Q61.7138 1034.42 65.3104 1038.52 Q68.907 1042.6 68.907 1050.58 L68.907 1058.67 L88.0042 1058.67 L88.0042 1065.1 L40.4842 1065.1 Z" fill="#000000" fill-rule="evenodd" fill-opacity="1" /><path clip-path="url(#clip970)" d="M 0 0 M57.8307 1008.76 Q57.2578 1009.75 57.0032 1010.93 Q56.7167 1012.07 56.7167 1013.47 Q56.7167 1018.44 59.9632 1021.11 Q63.1779 1023.75 69.2253 1023.75 L88.0042 1023.75 L88.0042 1029.64 L52.3562 1029.64 L52.3562 1023.75 L57.8944 1023.75 Q54.6479 1021.91 53.0883 1018.95 Q51.4968 1015.99 51.4968 1011.75 Q51.4968 1011.15 51.5923 1010.42 Q51.656 1009.68 51.8151 1008.79 L57.8307 1008.76 Z" fill="#000000" fill-rule="evenodd" fill-opacity="1" /><path clip-path="url(#clip970)" d="M 0 0 M68.7161 973.559 L71.5806 973.559 L71.5806 1000.49 Q77.6281 1000.1 80.8109 996.858 Q83.9619 993.579 83.9619 987.755 Q83.9619 984.381 83.1344 981.23 Q82.3069 978.047 80.6518 974.928 L86.1899 974.928 Q87.5267 978.079 88.227 981.389 Q88.9272 984.699 88.9272 988.105 Q88.9272 996.635 83.9619 1001.63 Q78.9967 1006.6 70.5303 1006.6 Q61.7774 1006.6 56.6531 1001.89 Q51.4968 997.144 51.4968 989.123 Q51.4968 981.93 56.1438 977.761 Q60.7589 973.559 68.7161 973.559 M66.9973 979.416 Q62.1912 979.479 59.3266 982.121 Q56.4621 984.731 56.4621 989.06 Q56.4621 993.961 59.2312 996.921 Q62.0002 999.85 67.0292 1000.3 L66.9973 979.416 Z" fill="#000000" fill-rule="evenodd" fill-opacity="1" /><path clip-path="url(#clip970)" d="M 0 0 M53.4065 944.691 L58.9447 944.691 Q57.6716 947.173 57.035 949.847 Q56.3984 952.521 56.3984 955.385 Q56.3984 959.746 57.7352 961.942 Q59.072 964.106 61.7456 964.106 Q63.7826 964.106 64.9603 962.547 Q66.1061 960.987 67.1565 956.276 L67.6021 954.271 Q68.9389 948.033 71.3897 945.423 Q73.8086 942.781 78.1691 942.781 Q83.1344 942.781 86.0308 946.728 Q88.9272 950.643 88.9272 957.518 Q88.9272 960.382 88.3543 963.501 Q87.8132 966.589 86.6992 970.026 L80.6518 970.026 Q82.3387 966.78 83.198 963.629 Q84.0256 960.478 84.0256 957.39 Q84.0256 953.253 82.6251 951.025 Q81.1929 948.797 78.6147 948.797 Q76.2276 948.797 74.9545 950.42 Q73.6813 952.011 72.5037 957.454 L72.0262 959.491 Q70.8804 964.934 68.5251 967.353 Q66.138 969.772 62.0002 969.772 Q56.9713 969.772 54.2341 966.207 Q51.4968 962.642 51.4968 956.085 Q51.4968 952.839 51.9743 949.974 Q52.4517 947.11 53.4065 944.691 Z" fill="#000000" fill-rule="evenodd" fill-opacity="1" /><path clip-path="url(#clip970)" d="M 0 0 M53.4065 913.913 L58.9447 913.913 Q57.6716 916.395 57.035 919.069 Q56.3984 921.742 56.3984 924.607 Q56.3984 928.968 57.7352 931.164 Q59.072 933.328 61.7456 933.328 Q63.7826 933.328 64.9603 931.768 Q66.1061 930.209 67.1565 925.498 L67.6021 923.493 Q68.9389 917.255 71.3897 914.645 Q73.8086 912.003 78.1691 912.003 Q83.1344 912.003 86.0308 915.95 Q88.9272 919.865 88.9272 926.74 Q88.9272 929.604 88.3543 932.723 Q87.8132 935.811 86.6992 939.248 L80.6518 939.248 Q82.3387 936.002 83.198 932.851 Q84.0256 929.7 84.0256 926.612 Q84.0256 922.474 82.6251 920.246 Q81.1929 918.018 78.6147 918.018 Q76.2276 918.018 74.9545 919.642 Q73.6813 921.233 72.5037 926.676 L72.0262 928.713 Q70.8804 934.156 68.5251 936.575 Q66.138 938.993 62.0002 938.993 Q56.9713 938.993 54.2341 935.429 Q51.4968 931.864 51.4968 925.307 Q51.4968 922.061 51.9743 919.196 Q52.4517 916.332 53.4065 913.913 Z" fill="#000000" fill-rule="evenodd" fill-opacity="1" /><path clip-path="url(#clip970)" d="M 0 0 M73.9359 906.465 L52.3562 906.465 L52.3562 900.608 L73.7131 900.608 Q78.7739 900.608 81.3202 898.635 Q83.8346 896.662 83.8346 892.715 Q83.8346 887.972 80.8109 885.235 Q77.7872 882.466 72.5673 882.466 L52.3562 882.466 L52.3562 876.61 L88.0042 876.61 L88.0042 882.466 L82.5296 882.466 Q85.7762 884.599 87.3676 887.431 Q88.9272 890.232 88.9272 893.956 Q88.9272 900.099 85.1078 903.282 Q81.2883 906.465 73.9359 906.465 M51.4968 891.728 L51.4968 891.728 Z" fill="#000000" fill-rule="evenodd" fill-opacity="1" /><path clip-path="url(#clip970)" d="M 0 0 M57.8307 849.81 Q57.2578 850.797 57.0032 851.974 Q56.7167 853.12 56.7167 854.521 Q56.7167 859.486 59.9632 862.159 Q63.1779 864.801 69.2253 864.801 L88.0042 864.801 L88.0042 870.689 L52.3562 870.689 L52.3562 864.801 L57.8944 864.801 Q54.6479 862.955 53.0883 859.995 Q51.4968 857.035 51.4968 852.802 Q51.4968 852.197 51.5923 851.465 Q51.656 850.733 51.8151 849.842 L57.8307 849.81 Z" fill="#000000" fill-rule="evenodd" fill-opacity="1" /><path clip-path="url(#clip970)" d="M 0 0 M68.7161 814.608 L71.5806 814.608 L71.5806 841.535 Q77.6281 841.153 80.8109 837.906 Q83.9619 834.628 83.9619 828.803 Q83.9619 825.429 83.1344 822.278 Q82.3069 819.095 80.6518 815.976 L86.1899 815.976 Q87.5267 819.127 88.227 822.437 Q88.9272 825.748 88.9272 829.153 Q88.9272 837.683 83.9619 842.68 Q78.9967 847.646 70.5303 847.646 Q61.7774 847.646 56.6531 842.935 Q51.4968 838.193 51.4968 830.172 Q51.4968 822.978 56.1438 818.809 Q60.7589 814.608 68.7161 814.608 M66.9973 820.464 Q62.1912 820.528 59.3266 823.169 Q56.4621 825.779 56.4621 830.108 Q56.4621 835.01 59.2312 837.97 Q62.0002 840.898 67.0292 841.344 L66.9973 820.464 Z" fill="#000000" fill-rule="evenodd" fill-opacity="1" /><path clip-path="url(#clip970)" d="M 0 0 M45.7677 781.06 L82.7206 781.06 L82.7206 773.294 Q82.7206 763.459 78.2646 758.908 Q73.8086 754.324 64.1964 754.324 Q54.6479 754.324 50.2237 758.908 Q45.7677 763.459 45.7677 773.294 L45.7677 781.06 M40.4842 787.49 L40.4842 774.281 Q40.4842 760.467 46.2451 754.006 Q51.9743 747.545 64.1964 747.545 Q76.4822 747.545 82.2432 754.038 Q88.0042 760.531 88.0042 774.281 L88.0042 787.49 L40.4842 787.49 Z" fill="#000000" fill-rule="evenodd" fill-opacity="1" /><path clip-path="url(#clip970)" d="M 0 0 M57.8307 720.745 Q57.2578 721.732 57.0032 722.91 Q56.7167 724.055 56.7167 725.456 Q56.7167 730.421 59.9632 733.095 Q63.1779 735.736 69.2253 735.736 L88.0042 735.736 L88.0042 741.625 L52.3562 741.625 L52.3562 735.736 L57.8944 735.736 Q54.6479 733.89 53.0883 730.93 Q51.4968 727.97 51.4968 723.737 Q51.4968 723.132 51.5923 722.4 Q51.656 721.668 51.8151 720.777 L57.8307 720.745 Z" fill="#000000" fill-rule="evenodd" fill-opacity="1" /><path clip-path="url(#clip970)" d="M 0 0 M56.4621 702.221 Q56.4621 706.932 60.1542 709.669 Q63.8145 712.406 70.212 712.406 Q76.6095 712.406 80.3017 709.701 Q83.9619 706.963 83.9619 702.221 Q83.9619 697.542 80.2698 694.805 Q76.5777 692.068 70.212 692.068 Q63.8781 692.068 60.186 694.805 Q56.4621 697.542 56.4621 702.221 M51.4968 702.221 Q51.4968 694.582 56.4621 690.222 Q61.4273 685.861 70.212 685.861 Q78.9649 685.861 83.9619 690.222 Q88.9272 694.582 88.9272 702.221 Q88.9272 709.892 83.9619 714.252 Q78.9649 718.581 70.212 718.581 Q61.4273 718.581 56.4621 714.252 Q51.4968 709.892 51.4968 702.221 Z" fill="#000000" fill-rule="evenodd" fill-opacity="1" /><path clip-path="url(#clip970)" d="M 0 0 M82.657 674.053 L101.563 674.053 L101.563 679.941 L52.3562 679.941 L52.3562 674.053 L57.7671 674.053 Q54.5842 672.207 53.0564 669.406 Q51.4968 666.573 51.4968 662.658 Q51.4968 656.165 56.6531 652.123 Q61.8093 648.049 70.212 648.049 Q78.6147 648.049 83.771 652.123 Q88.9272 656.165 88.9272 662.658 Q88.9272 666.573 87.3994 669.406 Q85.8398 672.207 82.657 674.053 M70.212 654.128 Q63.7508 654.128 60.0905 656.802 Q56.3984 659.443 56.3984 664.09 Q56.3984 668.737 60.0905 671.411 Q63.7508 674.053 70.212 674.053 Q76.6732 674.053 80.3653 671.411 Q84.0256 668.737 84.0256 664.09 Q84.0256 659.443 80.3653 656.802 Q76.6732 654.128 70.212 654.128 Z" fill="#000000" fill-rule="evenodd" fill-opacity="1" /><path clip-path="url(#clip970)" d="M 0 0 M38.5426 607.117 Q45.8632 611.382 53.0246 613.451 Q60.186 615.52 67.5384 615.52 Q74.8908 615.52 82.1159 613.451 Q89.3091 611.351 96.5979 607.117 L96.5979 612.21 Q89.1182 616.984 81.8931 619.371 Q74.668 621.727 67.5384 621.727 Q60.4406 621.727 53.2474 619.371 Q46.0542 617.016 38.5426 612.21 L38.5426 607.117 Z" fill="#000000" fill-rule="evenodd" fill-opacity="1" /><path clip-path="url(#clip970)" d="M 0 0 M38.479 601.197 L38.479 595.309 L67.7294 595.309 L52.3562 577.835 L52.3562 570.355 L69.0344 589.262 L88.0042 569.56 L88.0042 577.199 L70.5939 595.309 L88.0042 595.309 L88.0042 601.197 L38.479 601.197 Z" fill="#000000" fill-rule="evenodd" fill-opacity="1" /><path clip-path="url(#clip970)" d="M 0 0 M45.7677 556.733 L63.6235 556.733 L63.6235 548.648 Q63.6235 544.161 61.3 541.71 Q58.9765 539.259 54.6797 539.259 Q50.4147 539.259 48.0912 541.71 Q45.7677 544.161 45.7677 548.648 L45.7677 556.733 M40.4842 563.162 L40.4842 548.648 Q40.4842 540.659 44.1126 536.585 Q47.7092 532.479 54.6797 532.479 Q61.7138 532.479 65.3104 536.585 Q68.907 540.659 68.907 548.648 L68.907 556.733 L88.0042 556.733 L88.0042 563.162 L40.4842 563.162 Z" fill="#000000" fill-rule="evenodd" fill-opacity="1" /><path clip-path="url(#clip970)" d="M 0 0 M70.0847 513.064 Q70.0847 520.162 71.7079 522.899 Q73.3312 525.636 77.2461 525.636 Q80.3653 525.636 82.2114 523.599 Q84.0256 521.53 84.0256 517.997 Q84.0256 513.128 80.5881 510.2 Q77.1188 507.239 71.3897 507.239 L70.0847 507.239 L70.0847 513.064 M67.6657 501.383 L88.0042 501.383 L88.0042 507.239 L82.5933 507.239 Q85.8398 509.245 87.3994 512.237 Q88.9272 515.228 88.9272 519.557 Q88.9272 525.032 85.8716 528.278 Q82.7843 531.493 77.6281 531.493 Q71.6125 531.493 68.5569 527.482 Q65.5014 523.44 65.5014 515.451 L65.5014 507.239 L64.9285 507.239 Q60.8862 507.239 58.6901 509.913 Q56.4621 512.555 56.4621 517.361 Q56.4621 520.416 57.1941 523.313 Q57.9262 526.209 59.3903 528.883 L53.9795 528.883 Q52.7381 525.668 52.1334 522.644 Q51.4968 519.621 51.4968 516.756 Q51.4968 509.022 55.5072 505.202 Q59.5176 501.383 67.6657 501.383 Z" fill="#000000" fill-rule="evenodd" fill-opacity="1" /><path clip-path="url(#clip970)" d="M 0 0 M38.5426 496.163 L38.5426 491.071 Q46.0542 486.296 53.2474 483.941 Q60.4406 481.554 67.5384 481.554 Q74.668 481.554 81.8931 483.941 Q89.1182 486.296 96.5979 491.071 L96.5979 496.163 Q89.3091 491.93 82.1159 489.861 Q74.8908 487.76 67.5384 487.76 Q60.186 487.76 53.0246 489.861 Q45.8632 491.93 38.5426 496.163 Z" fill="#000000" fill-rule="evenodd" fill-opacity="1" /><path clip-path="url(#clip970)" d="M 0 0 M928.463 27.2059 L936.362 27.2059 L950.54 65.2844 L964.718 27.2059 L972.618 27.2059 L955.604 72.576 L945.477 72.576 L928.463 27.2059 Z" fill="#000000" fill-rule="evenodd" fill-opacity="1" /><path clip-path="url(#clip970)" d="M 0 0 M1019.24 48.0275 L1019.24 51.6733 L984.973 51.6733 Q985.459 59.3701 989.591 63.421 Q993.763 67.4314 1001.18 67.4314 Q1005.47 67.4314 1009.48 66.3781 Q1013.53 65.3249 1017.5 63.2184 L1017.5 70.267 Q1013.49 71.9684 1009.28 72.8596 Q1005.07 73.7508 1000.73 73.7508 Q989.875 73.7508 983.515 67.4314 Q977.195 61.1119 977.195 50.3365 Q977.195 39.1965 983.191 32.6746 Q989.226 26.1121 999.435 26.1121 Q1008.59 26.1121 1013.9 32.0264 Q1019.24 37.9003 1019.24 48.0275 M1011.79 45.84 Q1011.71 39.7232 1008.35 36.0774 Q1005.02 32.4315 999.516 32.4315 Q993.277 32.4315 989.51 35.9558 Q985.783 39.4801 985.216 45.8805 L1011.79 45.84 Z" fill="#000000" fill-rule="evenodd" fill-opacity="1" /><path clip-path="url(#clip970)" d="M 0 0 M1064.78 45.1919 L1064.78 72.576 L1057.32 72.576 L1057.32 45.4349 Q1057.32 38.994 1054.81 35.7938 Q1052.3 32.5936 1047.28 32.5936 Q1041.24 32.5936 1037.76 36.4419 Q1034.27 40.2903 1034.27 46.9338 L1034.27 72.576 L1026.78 72.576 L1026.78 27.2059 L1034.27 27.2059 L1034.27 34.2544 Q1036.95 30.163 1040.55 28.1376 Q1044.2 26.1121 1048.94 26.1121 Q1056.76 26.1121 1060.77 30.9732 Q1064.78 35.7938 1064.78 45.1919 Z" fill="#000000" fill-rule="evenodd" fill-opacity="1" /><path clip-path="url(#clip970)" d="M 0 0 M1079.97 14.324 L1079.97 27.2059 L1095.32 27.2059 L1095.32 32.9987 L1079.97 32.9987 L1079.97 57.6282 Q1079.97 63.1779 1081.47 64.7578 Q1083 66.3376 1087.66 66.3376 L1095.32 66.3376 L1095.32 72.576 L1087.66 72.576 Q1079.03 72.576 1075.75 69.3758 Q1072.47 66.1351 1072.47 57.6282 L1072.47 32.9987 L1067 32.9987 L1067 27.2059 L1072.47 27.2059 L1072.47 14.324 L1079.97 14.324 Z" fill="#000000" fill-rule="evenodd" fill-opacity="1" /><path clip-path="url(#clip970)" d="M 0 0 M1136.72 65.7705 L1136.72 89.8329 L1129.23 89.8329 L1129.23 27.2059 L1136.72 27.2059 L1136.72 34.0924 Q1139.07 30.0415 1142.63 28.0971 Q1146.24 26.1121 1151.22 26.1121 Q1159.49 26.1121 1164.63 32.6746 Q1169.82 39.2371 1169.82 49.9314 Q1169.82 60.6258 1164.63 67.1883 Q1159.49 73.7508 1151.22 73.7508 Q1146.24 73.7508 1142.63 71.8063 Q1139.07 69.8214 1136.72 65.7705 M1162.08 49.9314 Q1162.08 41.7081 1158.68 37.0496 Q1155.31 32.3505 1149.4 32.3505 Q1143.48 32.3505 1140.08 37.0496 Q1136.72 41.7081 1136.72 49.9314 Q1136.72 58.1548 1140.08 62.8538 Q1143.48 67.5124 1149.4 67.5124 Q1155.31 67.5124 1158.68 62.8538 Q1162.08 58.1548 1162.08 49.9314 Z" fill="#000000" fill-rule="evenodd" fill-opacity="1" /><path clip-path="url(#clip970)" d="M 0 0 M1203.92 34.1734 Q1202.67 33.4443 1201.17 33.1202 Q1199.71 32.7556 1197.93 32.7556 Q1191.61 32.7556 1188.21 36.8875 Q1184.84 40.9789 1184.84 48.6757 L1184.84 72.576 L1177.35 72.576 L1177.35 27.2059 L1184.84 27.2059 L1184.84 34.2544 Q1187.19 30.1225 1190.96 28.1376 Q1194.73 26.1121 1200.12 26.1121 Q1200.89 26.1121 1201.82 26.2337 Q1202.75 26.3147 1203.88 26.5172 L1203.92 34.1734 Z" fill="#000000" fill-rule="evenodd" fill-opacity="1" /><path clip-path="url(#clip970)" d="M 0 0 M1248.73 48.0275 L1248.73 51.6733 L1214.46 51.6733 Q1214.94 59.3701 1219.07 63.421 Q1223.25 67.4314 1230.66 67.4314 Q1234.95 67.4314 1238.96 66.3781 Q1243.02 65.3249 1246.99 63.2184 L1246.99 70.267 Q1242.98 71.9684 1238.76 72.8596 Q1234.55 73.7508 1230.21 73.7508 Q1219.36 73.7508 1213 67.4314 Q1206.68 61.1119 1206.68 50.3365 Q1206.68 39.1965 1212.67 32.6746 Q1218.71 26.1121 1228.92 26.1121 Q1238.07 26.1121 1243.38 32.0264 Q1248.73 37.9003 1248.73 48.0275 M1241.27 45.84 Q1241.19 39.7232 1237.83 36.0774 Q1234.51 32.4315 1229 32.4315 Q1222.76 32.4315 1218.99 35.9558 Q1215.27 39.4801 1214.7 45.8805 L1241.27 45.84 Z" fill="#000000" fill-rule="evenodd" fill-opacity="1" /><path clip-path="url(#clip970)" d="M 0 0 M1285.47 28.5427 L1285.47 35.5912 Q1282.31 33.9709 1278.91 33.1607 Q1275.5 32.3505 1271.86 32.3505 Q1266.31 32.3505 1263.51 34.0519 Q1260.76 35.7533 1260.76 39.156 Q1260.76 41.7486 1262.74 43.2475 Q1264.73 44.7058 1270.72 46.0426 L1273.28 46.6097 Q1281.22 48.3111 1284.54 51.4303 Q1287.9 54.509 1287.9 60.0587 Q1287.9 66.3781 1282.88 70.0644 Q1277.89 73.7508 1269.14 73.7508 Q1265.5 73.7508 1261.53 73.0216 Q1257.6 72.3329 1253.22 70.9151 L1253.22 63.2184 Q1257.36 65.3654 1261.37 66.4591 Q1265.38 67.5124 1269.31 67.5124 Q1274.57 67.5124 1277.41 65.73 Q1280.24 63.9071 1280.24 60.6258 Q1280.24 57.5877 1278.18 55.9673 Q1276.15 54.3469 1269.22 52.8481 L1266.63 52.2405 Q1259.71 50.7821 1256.63 47.7845 Q1253.55 44.7463 1253.55 39.4801 Q1253.55 33.0797 1258.08 29.5959 Q1262.62 26.1121 1270.97 26.1121 Q1275.1 26.1121 1278.74 26.7198 Q1282.39 27.3274 1285.47 28.5427 Z" fill="#000000" fill-rule="evenodd" fill-opacity="1" /><path clip-path="url(#clip970)" d="M 0 0 M1324.64 28.5427 L1324.64 35.5912 Q1321.48 33.9709 1318.08 33.1607 Q1314.68 32.3505 1311.03 32.3505 Q1305.48 32.3505 1302.69 34.0519 Q1299.93 35.7533 1299.93 39.156 Q1299.93 41.7486 1301.92 43.2475 Q1303.9 44.7058 1309.9 46.0426 L1312.45 46.6097 Q1320.39 48.3111 1323.71 51.4303 Q1327.07 54.509 1327.07 60.0587 Q1327.07 66.3781 1322.05 70.0644 Q1317.07 73.7508 1308.32 73.7508 Q1304.67 73.7508 1300.7 73.0216 Q1296.77 72.3329 1292.4 70.9151 L1292.4 63.2184 Q1296.53 65.3654 1300.54 66.4591 Q1304.55 67.5124 1308.48 67.5124 Q1313.74 67.5124 1316.58 65.73 Q1319.42 63.9071 1319.42 60.6258 Q1319.42 57.5877 1317.35 55.9673 Q1315.32 54.3469 1308.4 52.8481 L1305.8 52.2405 Q1298.88 50.7821 1295.8 47.7845 Q1292.72 44.7463 1292.72 39.4801 Q1292.72 33.0797 1297.26 29.5959 Q1301.79 26.1121 1310.14 26.1121 Q1314.27 26.1121 1317.92 26.7198 Q1321.56 27.3274 1324.64 28.5427 Z" fill="#000000" fill-rule="evenodd" fill-opacity="1" /><path clip-path="url(#clip970)" d="M 0 0 M1334.12 54.671 L1334.12 27.2059 L1341.57 27.2059 L1341.57 54.3874 Q1341.57 60.8284 1344.09 64.0691 Q1346.6 67.2693 1351.62 67.2693 Q1357.66 67.2693 1361.14 63.421 Q1364.66 59.5726 1364.66 52.9291 L1364.66 27.2059 L1372.12 27.2059 L1372.12 72.576 L1364.66 72.576 L1364.66 65.6084 Q1361.95 69.7404 1358.34 71.7658 Q1354.78 73.7508 1350.04 73.7508 Q1342.22 73.7508 1338.17 68.8897 Q1334.12 64.0286 1334.12 54.671 M1352.88 26.1121 L1352.88 26.1121 Z" fill="#000000" fill-rule="evenodd" fill-opacity="1" /><path clip-path="url(#clip970)" d="M 0 0 M1406.23 34.1734 Q1404.97 33.4443 1403.47 33.1202 Q1402.01 32.7556 1400.23 32.7556 Q1393.91 32.7556 1390.51 36.8875 Q1387.15 40.9789 1387.15 48.6757 L1387.15 72.576 L1379.65 72.576 L1379.65 27.2059 L1387.15 27.2059 L1387.15 34.2544 Q1389.5 30.1225 1393.26 28.1376 Q1397.03 26.1121 1402.42 26.1121 Q1403.19 26.1121 1404.12 26.2337 Q1405.05 26.3147 1406.19 26.5172 L1406.23 34.1734 Z" fill="#000000" fill-rule="evenodd" fill-opacity="1" /><path clip-path="url(#clip970)" d="M 0 0 M1451.03 48.0275 L1451.03 51.6733 L1416.76 51.6733 Q1417.24 59.3701 1421.38 63.421 Q1425.55 67.4314 1432.96 67.4314 Q1437.26 67.4314 1441.27 66.3781 Q1445.32 65.3249 1449.29 63.2184 L1449.29 70.267 Q1445.28 71.9684 1441.06 72.8596 Q1436.85 73.7508 1432.52 73.7508 Q1421.66 73.7508 1415.3 67.4314 Q1408.98 61.1119 1408.98 50.3365 Q1408.98 39.1965 1414.98 32.6746 Q1421.01 26.1121 1431.22 26.1121 Q1440.38 26.1121 1445.68 32.0264 Q1451.03 37.9003 1451.03 48.0275 M1443.58 45.84 Q1443.49 39.7232 1440.13 36.0774 Q1436.81 32.4315 1431.3 32.4315 Q1425.06 32.4315 1421.3 35.9558 Q1417.57 39.4801 1417 45.8805 L1443.58 45.84 Z" fill="#000000" fill-rule="evenodd" fill-opacity="1" /><path clip-path="url(#clip970)" d="M 0 0 M1515.07 34.0924 L1515.07 9.54393 L1522.53 9.54393 L1522.53 72.576 L1515.07 72.576 L1515.07 65.7705 Q1512.72 69.8214 1509.12 71.8063 Q1505.55 73.7508 1500.53 73.7508 Q1492.31 73.7508 1487.12 67.1883 Q1481.98 60.6258 1481.98 49.9314 Q1481.98 39.2371 1487.12 32.6746 Q1492.31 26.1121 1500.53 26.1121 Q1505.55 26.1121 1509.12 28.0971 Q1512.72 30.0415 1515.07 34.0924 M1489.68 49.9314 Q1489.68 58.1548 1493.04 62.8538 Q1496.44 67.5124 1502.35 67.5124 Q1508.27 67.5124 1511.67 62.8538 Q1515.07 58.1548 1515.07 49.9314 Q1515.07 41.7081 1511.67 37.0496 Q1508.27 32.3505 1502.35 32.3505 Q1496.44 32.3505 1493.04 37.0496 Q1489.68 41.7081 1489.68 49.9314 Z" fill="#000000" fill-rule="evenodd" fill-opacity="1" /><path clip-path="url(#clip970)" d="M 0 0 M1556.64 34.1734 Q1555.38 33.4443 1553.88 33.1202 Q1552.42 32.7556 1550.64 32.7556 Q1544.32 32.7556 1540.92 36.8875 Q1537.56 40.9789 1537.56 48.6757 L1537.56 72.576 L1530.06 72.576 L1530.06 27.2059 L1537.56 27.2059 L1537.56 34.2544 Q1539.91 30.1225 1543.67 28.1376 Q1547.44 26.1121 1552.83 26.1121 Q1553.6 26.1121 1554.53 26.2337 Q1555.46 26.3147 1556.6 26.5172 L1556.64 34.1734 Z" fill="#000000" fill-rule="evenodd" fill-opacity="1" /><path clip-path="url(#clip970)" d="M 0 0 M1580.21 32.4315 Q1574.22 32.4315 1570.73 37.1306 Q1567.25 41.7891 1567.25 49.9314 Q1567.25 58.0738 1570.69 62.7728 Q1574.18 67.4314 1580.21 67.4314 Q1586.17 67.4314 1589.65 62.7323 Q1593.14 58.0333 1593.14 49.9314 Q1593.14 41.8701 1589.65 37.1711 Q1586.17 32.4315 1580.21 32.4315 M1580.21 26.1121 Q1589.94 26.1121 1595.48 32.4315 Q1601.03 38.7509 1601.03 49.9314 Q1601.03 61.0714 1595.48 67.4314 Q1589.94 73.7508 1580.21 73.7508 Q1570.45 73.7508 1564.9 67.4314 Q1559.39 61.0714 1559.39 49.9314 Q1559.39 38.7509 1564.9 32.4315 Q1570.45 26.1121 1580.21 26.1121 Z" fill="#000000" fill-rule="evenodd" fill-opacity="1" /><path clip-path="url(#clip970)" d="M 0 0 M1616.06 65.7705 L1616.06 89.8329 L1608.57 89.8329 L1608.57 27.2059 L1616.06 27.2059 L1616.06 34.0924 Q1618.41 30.0415 1621.98 28.0971 Q1625.58 26.1121 1630.57 26.1121 Q1638.83 26.1121 1643.97 32.6746 Q1649.16 39.2371 1649.16 49.9314 Q1649.16 60.6258 1643.97 67.1883 Q1638.83 73.7508 1630.57 73.7508 Q1625.58 73.7508 1621.98 71.8063 Q1618.41 69.8214 1616.06 65.7705 M1641.42 49.9314 Q1641.42 41.7081 1638.02 37.0496 Q1634.66 32.3505 1628.74 32.3505 Q1622.83 32.3505 1619.43 37.0496 Q1616.06 41.7081 1616.06 49.9314 Q1616.06 58.1548 1619.43 62.8538 Q1622.83 67.5124 1628.74 67.5124 Q1634.66 67.5124 1638.02 62.8538 Q1641.42 58.1548 1641.42 49.9314 Z" fill="#000000" fill-rule="evenodd" fill-opacity="1" /><polyline clip-path="url(#clip972)" style="stroke:#009af9; stroke-width:4; stroke-opacity:1; fill:none" points="
  285.09,160.256 289.991,187.852 294.892,214.509 299.793,240.273 304.694,265.186 327.353,370.383 350.011,461.482 372.67,541.022 395.329,610.97 417.988,672.874 
  440.647,727.971 463.305,777.258 485.964,821.551 513.198,869.118 540.432,911.388 567.666,949.134 594.9,982.987 640.952,1032.8 687.004,1074.93 737.029,1113.74 
  787.055,1146.7 833.174,1172.87 879.292,1195.68 978.181,1235.64 1092.75,1270.58 1194.57,1294.36 1283.86,1311.08 1381.2,1325.95 1479.13,1338.16 1587.39,1349.18 
  1690.41,1357.76 1797.52,1365.13 1887.68,1370.37 1997.76,1375.77 2101.24,1380.05 2267.02,1385.63 2292.53,1386.37 
  "/>
<polyline clip-path="url(#clip972)" style="stroke:#e26f46; stroke-width:4; stroke-opacity:1; fill:none" points="
  285.09,614.827 289.991,624.601 294.892,634.243 299.793,643.754 304.694,653.137 350.011,734.102 395.329,805.511 440.647,868.517 485.964,924.138 513.198,954.39 
  540.432,982.478 567.666,1008.56 594.9,1032.8 640.952,1069.96 687.004,1102.85 737.029,1134.34 787.055,1162 833.174,1184.57 879.292,1204.67 978.181,1240.83 
  1092.75,1273.4 1194.57,1296.03 1283.86,1312.15 1381.2,1326.62 1479.13,1338.58 1587.39,1349.43 1690.41,1357.91 1797.52,1365.23 1887.68,1370.43 1997.76,1375.81 
  2101.24,1380.07 2267.02,1385.64 2292.53,1386.38 
  "/>
<polyline clip-path="url(#clip972)" style="stroke:#3da44d; stroke-width:4; stroke-opacity:1; fill:none" points="
  285.09,706.363 289.991,714.209 294.892,721.961 299.793,729.619 304.694,737.184 350.011,802.94 395.329,861.719 440.647,914.282 485.964,961.306 540.432,1011.34 
  594.9,1055.16 640.952,1087.95 687.004,1117.31 737.029,1145.74 787.055,1171 833.174,1191.8 879.292,1210.48 978.181,1244.49 1092.75,1275.56 1194.57,1297.4 
  1283.86,1313.07 1381.2,1327.22 1479.13,1338.98 1587.39,1349.68 1690.41,1358.08 1797.52,1365.34 1887.68,1370.51 1997.76,1375.86 2101.24,1380.11 2267.02,1385.66 
  2292.53,1386.4 
  "/>
<circle clip-path="url(#clip972)" cx="1622.1" cy="1352.25" r="14" fill="#c271d2" fill-rule="evenodd" fill-opacity="1" stroke="#000000" stroke-opacity="1" stroke-width="3.2"/>
<path clip-path="url(#clip970)" d="
M1535.49 469.196 L2281.83 469.196 L2281.83 166.796 L1535.49 166.796  Z
  " fill="#ffffff" fill-rule="evenodd" fill-opacity="1"/>
<polyline clip-path="url(#clip970)" style="stroke:#000000; stroke-width:4; stroke-opacity:1; fill:none" points="
  1535.49,469.196 2281.83,469.196 2281.83,166.796 1535.49,166.796 1535.49,469.196 
  "/>
<polyline clip-path="url(#clip970)" style="stroke:#009af9; stroke-width:4; stroke-opacity:1; fill:none" points="
  1559.13,227.276 1700.99,227.276 
  "/>
<path clip-path="url(#clip970)" d="M 0 0 M1724.64 218.63 L1728.89 218.63 L1728.89 244.556 L1724.64 244.556 L1724.64 218.63 M1724.64 208.537 L1728.89 208.537 L1728.89 213.931 L1724.64 213.931 L1724.64 208.537 Z" fill="#000000" fill-rule="evenodd" fill-opacity="1" /><path clip-path="url(#clip970)" d="M 0 0 M1754.91 228.908 L1754.91 244.556 L1750.65 244.556 L1750.65 229.047 Q1750.65 225.366 1749.22 223.537 Q1747.78 221.709 1744.91 221.709 Q1741.46 221.709 1739.47 223.908 Q1737.48 226.107 1737.48 229.903 L1737.48 244.556 L1733.2 244.556 L1733.2 218.63 L1737.48 218.63 L1737.48 222.658 Q1739.01 220.32 1741.07 219.162 Q1743.15 218.005 1745.86 218.005 Q1750.33 218.005 1752.62 220.783 Q1754.91 223.537 1754.91 228.908 Z" fill="#000000" fill-rule="evenodd" fill-opacity="1" /><path clip-path="url(#clip970)" d="M 0 0 M1778.04 219.625 L1778.04 223.607 Q1776.23 222.611 1774.4 222.125 Q1772.6 221.616 1770.75 221.616 Q1766.6 221.616 1764.31 224.255 Q1762.02 226.871 1762.02 231.616 Q1762.02 236.361 1764.31 239 Q1766.6 241.616 1770.75 241.616 Q1772.6 241.616 1774.4 241.13 Q1776.23 240.621 1778.04 239.625 L1778.04 243.56 Q1776.26 244.394 1774.33 244.81 Q1772.44 245.227 1770.28 245.227 Q1764.43 245.227 1760.98 241.546 Q1757.53 237.866 1757.53 231.616 Q1757.53 225.273 1761 221.639 Q1764.5 218.005 1770.56 218.005 Q1772.53 218.005 1774.4 218.422 Q1776.28 218.815 1778.04 219.625 Z" fill="#000000" fill-rule="evenodd" fill-opacity="1" /><path clip-path="url(#clip970)" d="M 0 0 M1792.55 221.616 Q1789.13 221.616 1787.13 224.301 Q1785.14 226.963 1785.14 231.616 Q1785.14 236.269 1787.11 238.954 Q1789.1 241.616 1792.55 241.616 Q1795.95 241.616 1797.94 238.931 Q1799.94 236.246 1799.94 231.616 Q1799.94 227.01 1797.94 224.324 Q1795.95 221.616 1792.55 221.616 M1792.55 218.005 Q1798.11 218.005 1801.28 221.616 Q1804.45 225.227 1804.45 231.616 Q1804.45 237.982 1801.28 241.616 Q1798.11 245.227 1792.55 245.227 Q1786.97 245.227 1783.8 241.616 Q1780.65 237.982 1780.65 231.616 Q1780.65 225.227 1783.8 221.616 Q1786.97 218.005 1792.55 218.005 Z" fill="#000000" fill-rule="evenodd" fill-opacity="1" /><path clip-path="url(#clip970)" d="M 0 0 M1829.1 223.607 Q1830.7 220.736 1832.92 219.371 Q1835.14 218.005 1838.15 218.005 Q1842.2 218.005 1844.4 220.852 Q1846.6 223.676 1846.6 228.908 L1846.6 244.556 L1842.32 244.556 L1842.32 229.047 Q1842.32 225.32 1841 223.514 Q1839.68 221.709 1836.97 221.709 Q1833.66 221.709 1831.74 223.908 Q1829.82 226.107 1829.82 229.903 L1829.82 244.556 L1825.54 244.556 L1825.54 229.047 Q1825.54 225.297 1824.22 223.514 Q1822.9 221.709 1820.14 221.709 Q1816.88 221.709 1814.96 223.931 Q1813.04 226.13 1813.04 229.903 L1813.04 244.556 L1808.76 244.556 L1808.76 218.63 L1813.04 218.63 L1813.04 222.658 Q1814.5 220.273 1816.53 219.139 Q1818.57 218.005 1821.37 218.005 Q1824.19 218.005 1826.16 219.44 Q1828.15 220.875 1829.1 223.607 Z" fill="#000000" fill-rule="evenodd" fill-opacity="1" /><path clip-path="url(#clip970)" d="M 0 0 M1855.19 240.667 L1855.19 254.417 L1850.91 254.417 L1850.91 218.63 L1855.19 218.63 L1855.19 222.565 Q1856.53 220.25 1858.57 219.139 Q1860.63 218.005 1863.48 218.005 Q1868.2 218.005 1871.14 221.755 Q1874.1 225.505 1874.1 231.616 Q1874.1 237.727 1871.14 241.477 Q1868.2 245.227 1863.48 245.227 Q1860.63 245.227 1858.57 244.116 Q1856.53 242.982 1855.19 240.667 M1869.68 231.616 Q1869.68 226.917 1867.74 224.255 Q1865.81 221.57 1862.44 221.57 Q1859.06 221.57 1857.11 224.255 Q1855.19 226.917 1855.19 231.616 Q1855.19 236.315 1857.11 239 Q1859.06 241.662 1862.44 241.662 Q1865.81 241.662 1867.74 239 Q1869.68 236.315 1869.68 231.616 Z" fill="#000000" fill-rule="evenodd" fill-opacity="1" /><path clip-path="url(#clip970)" d="M 0 0 M1893.59 222.611 Q1892.87 222.195 1892.02 222.01 Q1891.19 221.801 1890.17 221.801 Q1886.56 221.801 1884.61 224.162 Q1882.69 226.5 1882.69 230.898 L1882.69 244.556 L1878.41 244.556 L1878.41 218.63 L1882.69 218.63 L1882.69 222.658 Q1884.03 220.297 1886.19 219.162 Q1888.34 218.005 1891.42 218.005 Q1891.86 218.005 1892.39 218.074 Q1892.92 218.121 1893.57 218.236 L1893.59 222.611 Z" fill="#000000" fill-rule="evenodd" fill-opacity="1" /><path clip-path="url(#clip970)" d="M 0 0 M1919.19 230.528 L1919.19 232.611 L1899.61 232.611 Q1899.89 237.009 1902.25 239.324 Q1904.63 241.616 1908.87 241.616 Q1911.32 241.616 1913.62 241.014 Q1915.93 240.412 1918.2 239.209 L1918.2 243.236 Q1915.91 244.208 1913.5 244.718 Q1911.09 245.227 1908.62 245.227 Q1902.41 245.227 1898.78 241.616 Q1895.17 238.005 1895.17 231.847 Q1895.17 225.482 1898.59 221.755 Q1902.04 218.005 1907.87 218.005 Q1913.11 218.005 1916.14 221.385 Q1919.19 224.741 1919.19 230.528 M1914.94 229.278 Q1914.89 225.783 1912.97 223.699 Q1911.07 221.616 1907.92 221.616 Q1904.36 221.616 1902.2 223.63 Q1900.07 225.644 1899.75 229.301 L1914.94 229.278 Z" fill="#000000" fill-rule="evenodd" fill-opacity="1" /><path clip-path="url(#clip970)" d="M 0 0 M1940.19 219.394 L1940.19 223.422 Q1938.38 222.496 1936.44 222.033 Q1934.5 221.57 1932.41 221.57 Q1929.24 221.57 1927.64 222.542 Q1926.07 223.514 1926.07 225.459 Q1926.07 226.94 1927.2 227.797 Q1928.34 228.63 1931.76 229.394 L1933.22 229.718 Q1937.76 230.69 1939.66 232.472 Q1941.58 234.232 1941.58 237.403 Q1941.58 241.014 1938.71 243.121 Q1935.86 245.227 1930.86 245.227 Q1928.78 245.227 1926.51 244.81 Q1924.26 244.417 1921.76 243.607 L1921.76 239.209 Q1924.12 240.435 1926.42 241.06 Q1928.71 241.662 1930.95 241.662 Q1933.96 241.662 1935.58 240.644 Q1937.2 239.602 1937.2 237.727 Q1937.2 235.991 1936.02 235.065 Q1934.87 234.139 1930.91 233.283 L1929.43 232.935 Q1925.47 232.102 1923.71 230.389 Q1921.95 228.653 1921.95 225.644 Q1921.95 221.986 1924.54 219.996 Q1927.13 218.005 1931.9 218.005 Q1934.26 218.005 1936.35 218.352 Q1938.43 218.699 1940.19 219.394 Z" fill="#000000" fill-rule="evenodd" fill-opacity="1" /><path clip-path="url(#clip970)" d="M 0 0 M1962.57 219.394 L1962.57 223.422 Q1960.77 222.496 1958.82 222.033 Q1956.88 221.57 1954.8 221.57 Q1951.62 221.57 1950.03 222.542 Q1948.45 223.514 1948.45 225.459 Q1948.45 226.94 1949.59 227.797 Q1950.72 228.63 1954.15 229.394 L1955.61 229.718 Q1960.14 230.69 1962.04 232.472 Q1963.96 234.232 1963.96 237.403 Q1963.96 241.014 1961.09 243.121 Q1958.24 245.227 1953.25 245.227 Q1951.16 245.227 1948.89 244.81 Q1946.65 244.417 1944.15 243.607 L1944.15 239.209 Q1946.51 240.435 1948.8 241.06 Q1951.09 241.662 1953.34 241.662 Q1956.35 241.662 1957.97 240.644 Q1959.59 239.602 1959.59 237.727 Q1959.59 235.991 1958.41 235.065 Q1957.25 234.139 1953.29 233.283 L1951.81 232.935 Q1947.85 232.102 1946.09 230.389 Q1944.33 228.653 1944.33 225.644 Q1944.33 221.986 1946.93 219.996 Q1949.52 218.005 1954.29 218.005 Q1956.65 218.005 1958.73 218.352 Q1960.81 218.699 1962.57 219.394 Z" fill="#000000" fill-rule="evenodd" fill-opacity="1" /><path clip-path="url(#clip970)" d="M 0 0 M1968.43 218.63 L1972.69 218.63 L1972.69 244.556 L1968.43 244.556 L1968.43 218.63 M1968.43 208.537 L1972.69 208.537 L1972.69 213.931 L1968.43 213.931 L1968.43 208.537 Z" fill="#000000" fill-rule="evenodd" fill-opacity="1" /><path clip-path="url(#clip970)" d="M 0 0 M1995.77 231.616 Q1995.77 226.917 1993.82 224.255 Q1991.9 221.57 1988.52 221.57 Q1985.14 221.57 1983.2 224.255 Q1981.28 226.917 1981.28 231.616 Q1981.28 236.315 1983.2 239 Q1985.14 241.662 1988.52 241.662 Q1991.9 241.662 1993.82 239 Q1995.77 236.315 1995.77 231.616 M1981.28 222.565 Q1982.62 220.25 1984.66 219.139 Q1986.72 218.005 1989.56 218.005 Q1994.29 218.005 1997.23 221.755 Q2000.19 225.505 2000.19 231.616 Q2000.19 237.727 1997.23 241.477 Q1994.29 245.227 1989.56 245.227 Q1986.72 245.227 1984.66 244.116 Q1982.62 242.982 1981.28 240.667 L1981.28 244.556 L1976.99 244.556 L1976.99 208.537 L1981.28 208.537 L1981.28 222.565 Z" fill="#000000" fill-rule="evenodd" fill-opacity="1" /><path clip-path="url(#clip970)" d="M 0 0 M2004.66 208.537 L2008.92 208.537 L2008.92 244.556 L2004.66 244.556 L2004.66 208.537 Z" fill="#000000" fill-rule="evenodd" fill-opacity="1" /><path clip-path="url(#clip970)" d="M 0 0 M2035.56 230.528 L2035.56 232.611 L2015.98 232.611 Q2016.25 237.009 2018.62 239.324 Q2021 241.616 2025.24 241.616 Q2027.69 241.616 2029.98 241.014 Q2032.3 240.412 2034.56 239.209 L2034.56 243.236 Q2032.27 244.208 2029.86 244.718 Q2027.46 245.227 2024.98 245.227 Q2018.78 245.227 2015.14 241.616 Q2011.53 238.005 2011.53 231.847 Q2011.53 225.482 2014.96 221.755 Q2018.41 218.005 2024.24 218.005 Q2029.47 218.005 2032.5 221.385 Q2035.56 224.741 2035.56 230.528 M2031.3 229.278 Q2031.25 225.783 2029.33 223.699 Q2027.43 221.616 2024.29 221.616 Q2020.72 221.616 2018.57 223.63 Q2016.44 225.644 2016.12 229.301 L2031.3 229.278 Z" fill="#000000" fill-rule="evenodd" fill-opacity="1" /><polyline clip-path="url(#clip970)" style="stroke:#e26f46; stroke-width:4; stroke-opacity:1; fill:none" points="
  1559.13,287.756 1700.99,287.756 
  "/>
<path clip-path="url(#clip970)" d="M 0 0 M1724.64 279.11 L1728.89 279.11 L1728.89 305.036 L1724.64 305.036 L1724.64 279.11 M1724.64 269.017 L1728.89 269.017 L1728.89 274.411 L1724.64 274.411 L1724.64 269.017 Z" fill="#000000" fill-rule="evenodd" fill-opacity="1" /><path clip-path="url(#clip970)" d="M 0 0 M1749.89 279.874 L1749.89 283.902 Q1748.08 282.976 1746.14 282.513 Q1744.2 282.05 1742.11 282.05 Q1738.94 282.05 1737.34 283.022 Q1735.77 283.994 1735.77 285.939 Q1735.77 287.42 1736.9 288.277 Q1738.04 289.11 1741.46 289.874 L1742.92 290.198 Q1747.46 291.17 1749.36 292.952 Q1751.28 294.712 1751.28 297.883 Q1751.28 301.494 1748.41 303.601 Q1745.56 305.707 1740.56 305.707 Q1738.48 305.707 1736.21 305.29 Q1733.96 304.897 1731.46 304.087 L1731.46 299.689 Q1733.82 300.915 1736.12 301.54 Q1738.41 302.142 1740.65 302.142 Q1743.66 302.142 1745.28 301.124 Q1746.9 300.082 1746.9 298.207 Q1746.9 296.471 1745.72 295.545 Q1744.57 294.619 1740.61 293.763 L1739.13 293.415 Q1735.17 292.582 1733.41 290.869 Q1731.65 289.133 1731.65 286.124 Q1731.65 282.466 1734.24 280.476 Q1736.83 278.485 1741.6 278.485 Q1743.96 278.485 1746.05 278.832 Q1748.13 279.179 1749.89 279.874 Z" fill="#000000" fill-rule="evenodd" fill-opacity="1" /><path clip-path="url(#clip970)" d="M 0 0 M1765.79 282.096 Q1762.37 282.096 1760.38 284.781 Q1758.38 287.443 1758.38 292.096 Q1758.38 296.749 1760.35 299.434 Q1762.34 302.096 1765.79 302.096 Q1769.2 302.096 1771.19 299.411 Q1773.18 296.726 1773.18 292.096 Q1773.18 287.49 1771.19 284.804 Q1769.2 282.096 1765.79 282.096 M1765.79 278.485 Q1771.35 278.485 1774.52 282.096 Q1777.69 285.707 1777.69 292.096 Q1777.69 298.462 1774.52 302.096 Q1771.35 305.707 1765.79 305.707 Q1760.21 305.707 1757.04 302.096 Q1753.89 298.462 1753.89 292.096 Q1753.89 285.707 1757.04 282.096 Q1760.21 278.485 1765.79 278.485 Z" fill="#000000" fill-rule="evenodd" fill-opacity="1" /><path clip-path="url(#clip970)" d="M 0 0 M1786.37 271.749 L1786.37 279.11 L1795.14 279.11 L1795.14 282.42 L1786.37 282.42 L1786.37 296.494 Q1786.37 299.665 1787.23 300.568 Q1788.11 301.471 1790.77 301.471 L1795.14 301.471 L1795.14 305.036 L1790.77 305.036 Q1785.84 305.036 1783.96 303.207 Q1782.09 301.355 1782.09 296.494 L1782.09 282.42 L1778.96 282.42 L1778.96 279.11 L1782.09 279.11 L1782.09 271.749 L1786.37 271.749 Z" fill="#000000" fill-rule="evenodd" fill-opacity="1" /><path clip-path="url(#clip970)" d="M 0 0 M1821.16 289.388 L1821.16 305.036 L1816.9 305.036 L1816.9 289.527 Q1816.9 285.846 1815.47 284.017 Q1814.03 282.189 1811.16 282.189 Q1807.71 282.189 1805.72 284.388 Q1803.73 286.587 1803.73 290.383 L1803.73 305.036 L1799.45 305.036 L1799.45 269.017 L1803.73 269.017 L1803.73 283.138 Q1805.26 280.8 1807.32 279.642 Q1809.4 278.485 1812.11 278.485 Q1816.58 278.485 1818.87 281.263 Q1821.16 284.017 1821.16 289.388 Z" fill="#000000" fill-rule="evenodd" fill-opacity="1" /><path clip-path="url(#clip970)" d="M 0 0 M1847.81 291.008 L1847.81 293.091 L1828.22 293.091 Q1828.5 297.489 1830.86 299.804 Q1833.25 302.096 1837.48 302.096 Q1839.94 302.096 1842.23 301.494 Q1844.54 300.892 1846.81 299.689 L1846.81 303.716 Q1844.52 304.688 1842.11 305.198 Q1839.7 305.707 1837.23 305.707 Q1831.02 305.707 1827.39 302.096 Q1823.78 298.485 1823.78 292.327 Q1823.78 285.962 1827.2 282.235 Q1830.65 278.485 1836.49 278.485 Q1841.72 278.485 1844.75 281.865 Q1847.81 285.221 1847.81 291.008 M1843.55 289.758 Q1843.5 286.263 1841.58 284.179 Q1839.68 282.096 1836.53 282.096 Q1832.97 282.096 1830.82 284.11 Q1828.69 286.124 1828.36 289.781 L1843.55 289.758 Z" fill="#000000" fill-rule="evenodd" fill-opacity="1" /><path clip-path="url(#clip970)" d="M 0 0 M1867.3 283.091 Q1866.58 282.675 1865.72 282.49 Q1864.89 282.281 1863.87 282.281 Q1860.26 282.281 1858.31 284.642 Q1856.39 286.98 1856.39 291.378 L1856.39 305.036 L1852.11 305.036 L1852.11 279.11 L1856.39 279.11 L1856.39 283.138 Q1857.74 280.777 1859.89 279.642 Q1862.04 278.485 1865.12 278.485 Q1865.56 278.485 1866.09 278.554 Q1866.63 278.601 1867.27 278.716 L1867.3 283.091 Z" fill="#000000" fill-rule="evenodd" fill-opacity="1" /><path clip-path="url(#clip970)" d="M 0 0 M1891.12 284.087 Q1892.71 281.216 1894.94 279.851 Q1897.16 278.485 1900.17 278.485 Q1904.22 278.485 1906.42 281.332 Q1908.62 284.156 1908.62 289.388 L1908.62 305.036 L1904.33 305.036 L1904.33 289.527 Q1904.33 285.8 1903.01 283.994 Q1901.69 282.189 1898.99 282.189 Q1895.68 282.189 1893.75 284.388 Q1891.83 286.587 1891.83 290.383 L1891.83 305.036 L1887.55 305.036 L1887.55 289.527 Q1887.55 285.777 1886.23 283.994 Q1884.91 282.189 1882.16 282.189 Q1878.89 282.189 1876.97 284.411 Q1875.05 286.61 1875.05 290.383 L1875.05 305.036 L1870.77 305.036 L1870.77 279.11 L1875.05 279.11 L1875.05 283.138 Q1876.51 280.753 1878.55 279.619 Q1880.58 278.485 1883.38 278.485 Q1886.21 278.485 1888.18 279.92 Q1890.17 281.355 1891.12 284.087 Z" fill="#000000" fill-rule="evenodd" fill-opacity="1" /><path clip-path="url(#clip970)" d="M 0 0 M1924.87 292.003 Q1919.7 292.003 1917.71 293.184 Q1915.72 294.364 1915.72 297.212 Q1915.72 299.48 1917.2 300.823 Q1918.71 302.142 1921.28 302.142 Q1924.82 302.142 1926.95 299.642 Q1929.1 297.119 1929.1 292.952 L1929.1 292.003 L1924.87 292.003 M1933.36 290.244 L1933.36 305.036 L1929.1 305.036 L1929.1 301.101 Q1927.64 303.462 1925.47 304.596 Q1923.29 305.707 1920.14 305.707 Q1916.16 305.707 1913.8 303.485 Q1911.46 301.239 1911.46 297.489 Q1911.46 293.114 1914.38 290.892 Q1917.32 288.67 1923.13 288.67 L1929.1 288.67 L1929.1 288.253 Q1929.1 285.314 1927.16 283.716 Q1925.24 282.096 1921.74 282.096 Q1919.52 282.096 1917.41 282.628 Q1915.31 283.161 1913.36 284.226 L1913.36 280.29 Q1915.7 279.388 1917.9 278.948 Q1920.1 278.485 1922.18 278.485 Q1927.81 278.485 1930.58 281.402 Q1933.36 284.318 1933.36 290.244 Z" fill="#000000" fill-rule="evenodd" fill-opacity="1" /><path clip-path="url(#clip970)" d="M 0 0 M1937.83 269.017 L1942.09 269.017 L1942.09 305.036 L1937.83 305.036 L1937.83 269.017 Z" fill="#000000" fill-rule="evenodd" fill-opacity="1" /><polyline clip-path="url(#clip970)" style="stroke:#3da44d; stroke-width:4; stroke-opacity:1; fill:none" points="
  1559.13,348.236 1700.99,348.236 
  "/>
<path clip-path="url(#clip970)" d="M 0 0 M1741.14 329.497 L1741.14 333.039 L1737.07 333.039 Q1734.77 333.039 1733.87 333.965 Q1732.99 334.891 1732.99 337.298 L1732.99 339.59 L1740.01 339.59 L1740.01 342.9 L1732.99 342.9 L1732.99 365.516 L1728.71 365.516 L1728.71 342.9 L1724.64 342.9 L1724.64 339.59 L1728.71 339.59 L1728.71 337.784 Q1728.71 333.456 1730.72 331.488 Q1732.74 329.497 1737.11 329.497 L1741.14 329.497 Z" fill="#000000" fill-rule="evenodd" fill-opacity="1" /><path clip-path="url(#clip970)" d="M 0 0 M1757.39 352.483 Q1752.23 352.483 1750.24 353.664 Q1748.25 354.844 1748.25 357.692 Q1748.25 359.96 1749.73 361.303 Q1751.23 362.622 1753.8 362.622 Q1757.34 362.622 1759.47 360.122 Q1761.63 357.599 1761.63 353.432 L1761.63 352.483 L1757.39 352.483 M1765.88 350.724 L1765.88 365.516 L1761.63 365.516 L1761.63 361.581 Q1760.17 363.942 1757.99 365.076 Q1755.82 366.187 1752.67 366.187 Q1748.69 366.187 1746.32 363.965 Q1743.99 361.719 1743.99 357.969 Q1743.99 353.594 1746.9 351.372 Q1749.84 349.15 1755.65 349.15 L1761.63 349.15 L1761.63 348.733 Q1761.63 345.794 1759.68 344.196 Q1757.76 342.576 1754.26 342.576 Q1752.04 342.576 1749.94 343.108 Q1747.83 343.641 1745.89 344.706 L1745.89 340.77 Q1748.22 339.868 1750.42 339.428 Q1752.62 338.965 1754.7 338.965 Q1760.33 338.965 1763.11 341.882 Q1765.88 344.798 1765.88 350.724 Z" fill="#000000" fill-rule="evenodd" fill-opacity="1" /><path clip-path="url(#clip970)" d="M 0 0 M1791.9 349.868 L1791.9 365.516 L1787.64 365.516 L1787.64 350.007 Q1787.64 346.326 1786.21 344.497 Q1784.77 342.669 1781.9 342.669 Q1778.45 342.669 1776.46 344.868 Q1774.47 347.067 1774.47 350.863 L1774.47 365.516 L1770.19 365.516 L1770.19 339.59 L1774.47 339.59 L1774.47 343.618 Q1776 341.28 1778.06 340.122 Q1780.14 338.965 1782.85 338.965 Q1787.32 338.965 1789.61 341.743 Q1791.9 344.497 1791.9 349.868 Z" fill="#000000" fill-rule="evenodd" fill-opacity="1" /><path clip-path="url(#clip970)" d="M 0 0 M1817.92 349.868 L1817.92 365.516 L1813.66 365.516 L1813.66 350.007 Q1813.66 346.326 1812.23 344.497 Q1810.79 342.669 1807.92 342.669 Q1804.47 342.669 1802.48 344.868 Q1800.49 347.067 1800.49 350.863 L1800.49 365.516 L1796.21 365.516 L1796.21 339.59 L1800.49 339.59 L1800.49 343.618 Q1802.02 341.28 1804.08 340.122 Q1806.16 338.965 1808.87 338.965 Q1813.34 338.965 1815.63 341.743 Q1817.92 344.497 1817.92 349.868 Z" fill="#000000" fill-rule="evenodd" fill-opacity="1" /><path clip-path="url(#clip970)" d="M 0 0 M1832.44 342.576 Q1829.01 342.576 1827.02 345.261 Q1825.03 347.923 1825.03 352.576 Q1825.03 357.229 1827 359.914 Q1828.99 362.576 1832.44 362.576 Q1835.84 362.576 1837.83 359.891 Q1839.82 357.206 1839.82 352.576 Q1839.82 347.97 1837.83 345.284 Q1835.84 342.576 1832.44 342.576 M1832.44 338.965 Q1837.99 338.965 1841.16 342.576 Q1844.33 346.187 1844.33 352.576 Q1844.33 358.942 1841.16 362.576 Q1837.99 366.187 1832.44 366.187 Q1826.86 366.187 1823.69 362.576 Q1820.54 358.942 1820.54 352.576 Q1820.54 346.187 1823.69 342.576 Q1826.86 338.965 1832.44 338.965 Z" fill="#000000" fill-rule="evenodd" fill-opacity="1" /><circle clip-path="url(#clip970)" cx="1630.06" cy="408.716" r="23" fill="#c271d2" fill-rule="evenodd" fill-opacity="1" stroke="#000000" stroke-opacity="1" stroke-width="5.12"/>
<path clip-path="url(#clip970)" d="M 0 0 M1744.98 405.047 Q1746.58 402.176 1748.8 400.811 Q1751.02 399.445 1754.03 399.445 Q1758.08 399.445 1760.28 402.292 Q1762.48 405.116 1762.48 410.348 L1762.48 425.996 L1758.2 425.996 L1758.2 410.487 Q1758.2 406.76 1756.88 404.954 Q1755.56 403.149 1752.85 403.149 Q1749.54 403.149 1747.62 405.348 Q1745.7 407.547 1745.7 411.343 L1745.7 425.996 L1741.42 425.996 L1741.42 410.487 Q1741.42 406.737 1740.1 404.954 Q1738.78 403.149 1736.02 403.149 Q1732.76 403.149 1730.84 405.371 Q1728.92 407.57 1728.92 411.343 L1728.92 425.996 L1724.64 425.996 L1724.64 400.07 L1728.92 400.07 L1728.92 404.098 Q1730.38 401.713 1732.41 400.579 Q1734.45 399.445 1737.25 399.445 Q1740.07 399.445 1742.04 400.88 Q1744.03 402.315 1744.98 405.047 Z" fill="#000000" fill-rule="evenodd" fill-opacity="1" /><path clip-path="url(#clip970)" d="M 0 0 M1766.95 400.07 L1771.21 400.07 L1771.21 425.996 L1766.95 425.996 L1766.95 400.07 M1766.95 389.977 L1771.21 389.977 L1771.21 395.371 L1766.95 395.371 L1766.95 389.977 Z" fill="#000000" fill-rule="evenodd" fill-opacity="1" /><path clip-path="url(#clip970)" d="M 0 0 M1797.23 410.348 L1797.23 425.996 L1792.97 425.996 L1792.97 410.487 Q1792.97 406.806 1791.53 404.977 Q1790.1 403.149 1787.23 403.149 Q1783.78 403.149 1781.79 405.348 Q1779.8 407.547 1779.8 411.343 L1779.8 425.996 L1775.51 425.996 L1775.51 400.07 L1779.8 400.07 L1779.8 404.098 Q1781.32 401.76 1783.38 400.602 Q1785.47 399.445 1788.18 399.445 Q1792.64 399.445 1794.94 402.223 Q1797.23 404.977 1797.23 410.348 Z" fill="#000000" fill-rule="evenodd" fill-opacity="1" /><path clip-path="url(#clip970)" d="M 0 0 M1801.69 400.07 L1805.95 400.07 L1805.95 425.996 L1801.69 425.996 L1801.69 400.07 M1801.69 389.977 L1805.95 389.977 L1805.95 395.371 L1801.69 395.371 L1801.69 389.977 Z" fill="#000000" fill-rule="evenodd" fill-opacity="1" /><path clip-path="url(#clip970)" d="M 0 0 M1830.61 405.047 Q1832.2 402.176 1834.43 400.811 Q1836.65 399.445 1839.66 399.445 Q1843.71 399.445 1845.91 402.292 Q1848.11 405.116 1848.11 410.348 L1848.11 425.996 L1843.82 425.996 L1843.82 410.487 Q1843.82 406.76 1842.5 404.954 Q1841.19 403.149 1838.48 403.149 Q1835.17 403.149 1833.25 405.348 Q1831.32 407.547 1831.32 411.343 L1831.32 425.996 L1827.04 425.996 L1827.04 410.487 Q1827.04 406.737 1825.72 404.954 Q1824.4 403.149 1821.65 403.149 Q1818.38 403.149 1816.46 405.371 Q1814.54 407.57 1814.54 411.343 L1814.54 425.996 L1810.26 425.996 L1810.26 400.07 L1814.54 400.07 L1814.54 404.098 Q1816 401.713 1818.04 400.579 Q1820.07 399.445 1822.88 399.445 Q1825.7 399.445 1827.67 400.88 Q1829.66 402.315 1830.61 405.047 Z" fill="#000000" fill-rule="evenodd" fill-opacity="1" /><path clip-path="url(#clip970)" d="M 0 0 M1852.13 415.764 L1852.13 400.07 L1856.39 400.07 L1856.39 415.602 Q1856.39 419.283 1857.83 421.135 Q1859.26 422.963 1862.13 422.963 Q1865.58 422.963 1867.57 420.764 Q1869.59 418.565 1869.59 414.769 L1869.59 400.07 L1873.85 400.07 L1873.85 425.996 L1869.59 425.996 L1869.59 422.014 Q1868.04 424.375 1865.98 425.533 Q1863.94 426.667 1861.23 426.667 Q1856.76 426.667 1854.45 423.889 Q1852.13 421.111 1852.13 415.764 M1862.85 399.445 L1862.85 399.445 Z" fill="#000000" fill-rule="evenodd" fill-opacity="1" /><path clip-path="url(#clip970)" d="M 0 0 M1898.5 405.047 Q1900.1 402.176 1902.32 400.811 Q1904.54 399.445 1907.55 399.445 Q1911.6 399.445 1913.8 402.292 Q1916 405.116 1916 410.348 L1916 425.996 L1911.72 425.996 L1911.72 410.487 Q1911.72 406.76 1910.4 404.954 Q1909.08 403.149 1906.37 403.149 Q1903.06 403.149 1901.14 405.348 Q1899.22 407.547 1899.22 411.343 L1899.22 425.996 L1894.94 425.996 L1894.94 410.487 Q1894.94 406.737 1893.62 404.954 Q1892.3 403.149 1889.54 403.149 Q1886.28 403.149 1884.36 405.371 Q1882.44 407.57 1882.44 411.343 L1882.44 425.996 L1878.15 425.996 L1878.15 400.07 L1882.44 400.07 L1882.44 404.098 Q1883.89 401.713 1885.93 400.579 Q1887.97 399.445 1890.77 399.445 Q1893.59 399.445 1895.56 400.88 Q1897.55 402.315 1898.5 405.047 Z" fill="#000000" fill-rule="evenodd" fill-opacity="1" /><path clip-path="url(#clip970)" d="M 0 0 M1932.48 400.07 L1937 400.07 L1945.1 421.829 L1953.2 400.07 L1957.71 400.07 L1947.99 425.996 L1942.2 425.996 L1932.48 400.07 Z" fill="#000000" fill-rule="evenodd" fill-opacity="1" /><path clip-path="url(#clip970)" d="M 0 0 M1984.36 411.968 L1984.36 414.051 L1964.77 414.051 Q1965.05 418.449 1967.41 420.764 Q1969.8 423.056 1974.03 423.056 Q1976.49 423.056 1978.78 422.454 Q1981.09 421.852 1983.36 420.649 L1983.36 424.676 Q1981.07 425.648 1978.66 426.158 Q1976.25 426.667 1973.78 426.667 Q1967.57 426.667 1963.94 423.056 Q1960.33 419.445 1960.33 413.287 Q1960.33 406.922 1963.75 403.195 Q1967.2 399.445 1973.04 399.445 Q1978.27 399.445 1981.3 402.825 Q1984.36 406.181 1984.36 411.968 M1980.1 410.718 Q1980.05 407.223 1978.13 405.139 Q1976.23 403.056 1973.08 403.056 Q1969.52 403.056 1967.37 405.07 Q1965.24 407.084 1964.91 410.741 L1980.1 410.718 Z" fill="#000000" fill-rule="evenodd" fill-opacity="1" /><path clip-path="url(#clip970)" d="M 0 0 M2010.37 410.348 L2010.37 425.996 L2006.12 425.996 L2006.12 410.487 Q2006.12 406.806 2004.68 404.977 Q2003.24 403.149 2000.37 403.149 Q1996.93 403.149 1994.93 405.348 Q1992.94 407.547 1992.94 411.343 L1992.94 425.996 L1988.66 425.996 L1988.66 400.07 L1992.94 400.07 L1992.94 404.098 Q1994.47 401.76 1996.53 400.602 Q1998.62 399.445 2001.32 399.445 Q2005.79 399.445 2008.08 402.223 Q2010.37 404.977 2010.37 410.348 Z" fill="#000000" fill-rule="evenodd" fill-opacity="1" /><path clip-path="url(#clip970)" d="M 0 0 M2019.05 392.709 L2019.05 400.07 L2027.83 400.07 L2027.83 403.38 L2019.05 403.38 L2019.05 417.454 Q2019.05 420.625 2019.91 421.528 Q2020.79 422.431 2023.45 422.431 L2027.83 422.431 L2027.83 425.996 L2023.45 425.996 Q2018.52 425.996 2016.65 424.167 Q2014.77 422.315 2014.77 417.454 L2014.77 403.38 L2011.65 403.38 L2011.65 400.07 L2014.77 400.07 L2014.77 392.709 L2019.05 392.709 Z" fill="#000000" fill-rule="evenodd" fill-opacity="1" /><path clip-path="url(#clip970)" d="M 0 0 M2064.42 404.005 L2064.42 389.977 L2068.68 389.977 L2068.68 425.996 L2064.42 425.996 L2064.42 422.107 Q2063.08 424.422 2061.02 425.556 Q2058.99 426.667 2056.11 426.667 Q2051.42 426.667 2048.45 422.917 Q2045.51 419.167 2045.51 413.056 Q2045.51 406.945 2048.45 403.195 Q2051.42 399.445 2056.11 399.445 Q2058.99 399.445 2061.02 400.579 Q2063.08 401.69 2064.42 404.005 M2049.91 413.056 Q2049.91 417.755 2051.83 420.44 Q2053.78 423.102 2057.16 423.102 Q2060.54 423.102 2062.48 420.44 Q2064.42 417.755 2064.42 413.056 Q2064.42 408.357 2062.48 405.695 Q2060.54 403.01 2057.16 403.01 Q2053.78 403.01 2051.83 405.695 Q2049.91 408.357 2049.91 413.056 Z" fill="#000000" fill-rule="evenodd" fill-opacity="1" /><path clip-path="url(#clip970)" d="M 0 0 M2073.15 400.07 L2077.41 400.07 L2077.41 425.996 L2073.15 425.996 L2073.15 400.07 M2073.15 389.977 L2077.41 389.977 L2077.41 395.371 L2073.15 395.371 L2073.15 389.977 Z" fill="#000000" fill-rule="evenodd" fill-opacity="1" /><path clip-path="url(#clip970)" d="M 0 0 M2093.66 412.963 Q2088.5 412.963 2086.51 414.144 Q2084.52 415.324 2084.52 418.172 Q2084.52 420.44 2086 421.783 Q2087.5 423.102 2090.07 423.102 Q2093.61 423.102 2095.74 420.602 Q2097.9 418.079 2097.9 413.912 L2097.9 412.963 L2093.66 412.963 M2102.16 411.204 L2102.16 425.996 L2097.9 425.996 L2097.9 422.061 Q2096.44 424.422 2094.26 425.556 Q2092.09 426.667 2088.94 426.667 Q2084.96 426.667 2082.6 424.445 Q2080.26 422.199 2080.26 418.449 Q2080.26 414.074 2083.17 411.852 Q2086.11 409.63 2091.92 409.63 L2097.9 409.63 L2097.9 409.213 Q2097.9 406.274 2095.95 404.676 Q2094.03 403.056 2090.54 403.056 Q2088.31 403.056 2086.21 403.588 Q2084.1 404.121 2082.16 405.186 L2082.16 401.25 Q2084.49 400.348 2086.69 399.908 Q2088.89 399.445 2090.98 399.445 Q2096.6 399.445 2099.38 402.362 Q2102.16 405.278 2102.16 411.204 Z" fill="#000000" fill-rule="evenodd" fill-opacity="1" /><path clip-path="url(#clip970)" d="M 0 0 M2126.81 405.047 Q2128.41 402.176 2130.63 400.811 Q2132.85 399.445 2135.86 399.445 Q2139.91 399.445 2142.11 402.292 Q2144.31 405.116 2144.31 410.348 L2144.31 425.996 L2140.03 425.996 L2140.03 410.487 Q2140.03 406.76 2138.71 404.954 Q2137.39 403.149 2134.68 403.149 Q2131.37 403.149 2129.45 405.348 Q2127.53 407.547 2127.53 411.343 L2127.53 425.996 L2123.24 425.996 L2123.24 410.487 Q2123.24 406.737 2121.92 404.954 Q2120.61 403.149 2117.85 403.149 Q2114.59 403.149 2112.67 405.371 Q2110.74 407.57 2110.74 411.343 L2110.74 425.996 L2106.46 425.996 L2106.46 400.07 L2110.74 400.07 L2110.74 404.098 Q2112.2 401.713 2114.24 400.579 Q2116.28 399.445 2119.08 399.445 Q2121.9 399.445 2123.87 400.88 Q2125.86 402.315 2126.81 405.047 Z" fill="#000000" fill-rule="evenodd" fill-opacity="1" /><path clip-path="url(#clip970)" d="M 0 0 M2170.95 411.968 L2170.95 414.051 L2151.37 414.051 Q2151.65 418.449 2154.01 420.764 Q2156.39 423.056 2160.63 423.056 Q2163.08 423.056 2165.37 422.454 Q2167.69 421.852 2169.96 420.649 L2169.96 424.676 Q2167.67 425.648 2165.26 426.158 Q2162.85 426.667 2160.37 426.667 Q2154.17 426.667 2150.54 423.056 Q2146.92 419.445 2146.92 413.287 Q2146.92 406.922 2150.35 403.195 Q2153.8 399.445 2159.63 399.445 Q2164.86 399.445 2167.9 402.825 Q2170.95 406.181 2170.95 411.968 M2166.69 410.718 Q2166.65 407.223 2164.73 405.139 Q2162.83 403.056 2159.68 403.056 Q2156.11 403.056 2153.96 405.07 Q2151.83 407.084 2151.51 410.741 L2166.69 410.718 Z" fill="#000000" fill-rule="evenodd" fill-opacity="1" /><path clip-path="url(#clip970)" d="M 0 0 M2179.63 392.709 L2179.63 400.07 L2188.41 400.07 L2188.41 403.38 L2179.63 403.38 L2179.63 417.454 Q2179.63 420.625 2180.49 421.528 Q2181.37 422.431 2184.03 422.431 L2188.41 422.431 L2188.41 425.996 L2184.03 425.996 Q2179.1 425.996 2177.23 424.167 Q2175.35 422.315 2175.35 417.454 L2175.35 403.38 L2172.23 403.38 L2172.23 400.07 L2175.35 400.07 L2175.35 392.709 L2179.63 392.709 Z" fill="#000000" fill-rule="evenodd" fill-opacity="1" /><path clip-path="url(#clip970)" d="M 0 0 M2215.05 411.968 L2215.05 414.051 L2195.47 414.051 Q2195.74 418.449 2198.1 420.764 Q2200.49 423.056 2204.73 423.056 Q2207.18 423.056 2209.47 422.454 Q2211.79 421.852 2214.05 420.649 L2214.05 424.676 Q2211.76 425.648 2209.35 426.158 Q2206.95 426.667 2204.47 426.667 Q2198.27 426.667 2194.63 423.056 Q2191.02 419.445 2191.02 413.287 Q2191.02 406.922 2194.45 403.195 Q2197.9 399.445 2203.73 399.445 Q2208.96 399.445 2211.99 402.825 Q2215.05 406.181 2215.05 411.968 M2210.79 410.718 Q2210.74 407.223 2208.82 405.139 Q2206.92 403.056 2203.78 403.056 Q2200.21 403.056 2198.06 405.07 Q2195.93 407.084 2195.6 410.741 L2210.79 410.718 Z" fill="#000000" fill-rule="evenodd" fill-opacity="1" /><path clip-path="url(#clip970)" d="M 0 0 M2234.54 404.051 Q2233.82 403.635 2232.97 403.45 Q2232.13 403.241 2231.11 403.241 Q2227.5 403.241 2225.56 405.602 Q2223.64 407.94 2223.64 412.338 L2223.64 425.996 L2219.35 425.996 L2219.35 400.07 L2223.64 400.07 L2223.64 404.098 Q2224.98 401.737 2227.13 400.602 Q2229.29 399.445 2232.36 399.445 Q2232.8 399.445 2233.34 399.514 Q2233.87 399.561 2234.52 399.676 L2234.54 404.051 Z" fill="#000000" fill-rule="evenodd" fill-opacity="1" /></svg>
