<?xml version="1.0" encoding="utf-8"?>
<svg xmlns="http://www.w3.org/2000/svg" xmlns:xlink="http://www.w3.org/1999/xlink" width="600" height="400" viewBox="0 0 2400 1600">
<defs>
  <clipPath id="clip280">
    <rect x="0" y="0" width="2400" height="1600"/>
  </clipPath>
</defs>
<path clip-path="url(#clip280)" d="
M0 1600 L2400 1600 L2400 0 L0 0  Z
  " fill="#ffffff" fill-rule="evenodd" fill-opacity="1"/>
<defs>
  <clipPath id="clip281">
    <rect x="480" y="0" width="1681" height="1600"/>
  </clipPath>
</defs>
<path clip-path="url(#clip280)" d="
M211.602 1423.18 L2352.76 1423.18 L2352.76 123.472 L211.602 123.472  Z
  " fill="#ffffff" fill-rule="evenodd" fill-opacity="1"/>
<defs>
  <clipPath id="clip282">
    <rect x="211" y="123" width="2142" height="1301"/>
  </clipPath>
</defs>
<polyline clip-path="url(#clip282)" style="stroke:#000000; stroke-width:2; stroke-opacity:0.1; fill:none" points="
  272.201,1423.18 272.201,123.472 
  "/>
<polyline clip-path="url(#clip282)" style="stroke:#000000; stroke-width:2; stroke-opacity:0.1; fill:none" points="
  608.86,1423.18 608.86,123.472 
  "/>
<polyline clip-path="url(#clip282)" style="stroke:#000000; stroke-width:2; stroke-opacity:0.1; fill:none" points="
  945.52,1423.18 945.52,123.472 
  "/>
<polyline clip-path="url(#clip282)" style="stroke:#000000; stroke-width:2; stroke-opacity:0.1; fill:none" points="
  1282.18,1423.18 1282.18,123.472 
  "/>
<polyline clip-path="url(#clip282)" style="stroke:#000000; stroke-width:2; stroke-opacity:0.1; fill:none" points="
  1618.84,1423.18 1618.84,123.472 
  "/>
<polyline clip-path="url(#clip282)" style="stroke:#000000; stroke-width:2; stroke-opacity:0.1; fill:none" points="
  1955.5,1423.18 1955.5,123.472 
  "/>
<polyline clip-path="url(#clip282)" style="stroke:#000000; stroke-width:2; stroke-opacity:0.1; fill:none" points="
  2292.16,1423.18 2292.16,123.472 
  "/>
<polyline clip-path="url(#clip280)" style="stroke:#000000; stroke-width:4; stroke-opacity:1; fill:none" points="
  211.602,1423.18 2352.76,1423.18 
  "/>
<polyline clip-path="url(#clip280)" style="stroke:#000000; stroke-width:4; stroke-opacity:1; fill:none" points="
  272.201,1423.18 272.201,1407.58 
  "/>
<polyline clip-path="url(#clip280)" style="stroke:#000000; stroke-width:4; stroke-opacity:1; fill:none" points="
  608.86,1423.18 608.86,1407.58 
  "/>
<polyline clip-path="url(#clip280)" style="stroke:#000000; stroke-width:4; stroke-opacity:1; fill:none" points="
  945.52,1423.18 945.52,1407.58 
  "/>
<polyline clip-path="url(#clip280)" style="stroke:#000000; stroke-width:4; stroke-opacity:1; fill:none" points="
  1282.18,1423.18 1282.18,1407.58 
  "/>
<polyline clip-path="url(#clip280)" style="stroke:#000000; stroke-width:4; stroke-opacity:1; fill:none" points="
  1618.84,1423.18 1618.84,1407.58 
  "/>
<polyline clip-path="url(#clip280)" style="stroke:#000000; stroke-width:4; stroke-opacity:1; fill:none" points="
  1955.5,1423.18 1955.5,1407.58 
  "/>
<polyline clip-path="url(#clip280)" style="stroke:#000000; stroke-width:4; stroke-opacity:1; fill:none" points="
  2292.16,1423.18 2292.16,1407.58 
  "/>
<path clip-path="url(#clip280)" d="M 0 0 M272.201 1452.37 Q268.59 1452.37 266.761 1455.94 Q264.956 1459.48 264.956 1466.61 Q264.956 1473.71 266.761 1477.28 Q268.59 1480.82 272.201 1480.82 Q275.835 1480.82 277.641 1477.28 Q279.47 1473.71 279.47 1466.61 Q279.47 1459.48 277.641 1455.94 Q275.835 1452.37 272.201 1452.37 M272.201 1448.67 Q278.011 1448.67 281.067 1453.27 Q284.145 1457.86 284.145 1466.61 Q284.145 1475.33 281.067 1479.94 Q278.011 1484.52 272.201 1484.52 Q266.391 1484.52 263.312 1479.94 Q260.257 1475.33 260.257 1466.61 Q260.257 1457.86 263.312 1453.27 Q266.391 1448.67 272.201 1448.67 Z" fill="#000000" fill-rule="evenodd" fill-opacity="1" /><path clip-path="url(#clip280)" d="M 0 0 M585.736 1479.92 L593.374 1479.92 L593.374 1453.55 L585.064 1455.22 L585.064 1450.96 L593.328 1449.29 L598.004 1449.29 L598.004 1479.92 L605.643 1479.92 L605.643 1483.85 L585.736 1483.85 L585.736 1479.92 Z" fill="#000000" fill-rule="evenodd" fill-opacity="1" /><path clip-path="url(#clip280)" d="M 0 0 M620.712 1452.37 Q617.101 1452.37 615.272 1455.94 Q613.467 1459.48 613.467 1466.61 Q613.467 1473.71 615.272 1477.28 Q617.101 1480.82 620.712 1480.82 Q624.346 1480.82 626.152 1477.28 Q627.981 1473.71 627.981 1466.61 Q627.981 1459.48 626.152 1455.94 Q624.346 1452.37 620.712 1452.37 M620.712 1448.67 Q626.522 1448.67 629.578 1453.27 Q632.657 1457.86 632.657 1466.61 Q632.657 1475.33 629.578 1479.94 Q626.522 1484.52 620.712 1484.52 Q614.902 1484.52 611.823 1479.94 Q608.768 1475.33 608.768 1466.61 Q608.768 1457.86 611.823 1453.27 Q614.902 1448.67 620.712 1448.67 Z" fill="#000000" fill-rule="evenodd" fill-opacity="1" /><path clip-path="url(#clip280)" d="M 0 0 M926.666 1479.92 L942.985 1479.92 L942.985 1483.85 L921.041 1483.85 L921.041 1479.92 Q923.703 1477.16 928.286 1472.53 Q932.893 1467.88 934.073 1466.54 Q936.318 1464.01 937.198 1462.28 Q938.101 1460.52 938.101 1458.83 Q938.101 1456.07 936.156 1454.34 Q934.235 1452.6 931.133 1452.6 Q928.934 1452.6 926.481 1453.37 Q924.05 1454.13 921.272 1455.68 L921.272 1450.96 Q924.096 1449.82 926.55 1449.25 Q929.004 1448.67 931.041 1448.67 Q936.411 1448.67 939.605 1451.35 Q942.8 1454.04 942.8 1458.53 Q942.8 1460.66 941.99 1462.58 Q941.203 1464.48 939.096 1467.07 Q938.518 1467.74 935.416 1470.96 Q932.314 1474.15 926.666 1479.92 Z" fill="#000000" fill-rule="evenodd" fill-opacity="1" /><path clip-path="url(#clip280)" d="M 0 0 M958.054 1452.37 Q954.443 1452.37 952.615 1455.94 Q950.809 1459.48 950.809 1466.61 Q950.809 1473.71 952.615 1477.28 Q954.443 1480.82 958.054 1480.82 Q961.689 1480.82 963.494 1477.28 Q965.323 1473.71 965.323 1466.61 Q965.323 1459.48 963.494 1455.94 Q961.689 1452.37 958.054 1452.37 M958.054 1448.67 Q963.865 1448.67 966.92 1453.27 Q969.999 1457.86 969.999 1466.61 Q969.999 1475.33 966.92 1479.94 Q963.865 1484.52 958.054 1484.52 Q952.244 1484.52 949.166 1479.94 Q946.11 1475.33 946.11 1466.61 Q946.11 1457.86 949.166 1453.27 Q952.244 1448.67 958.054 1448.67 Z" fill="#000000" fill-rule="evenodd" fill-opacity="1" /><path clip-path="url(#clip280)" d="M 0 0 M1272.92 1465.22 Q1276.28 1465.94 1278.15 1468.2 Q1280.05 1470.47 1280.05 1473.81 Q1280.05 1478.92 1276.53 1481.72 Q1273.01 1484.52 1266.53 1484.52 Q1264.36 1484.52 1262.04 1484.08 Q1259.75 1483.67 1257.3 1482.81 L1257.3 1478.3 Q1259.24 1479.43 1261.55 1480.01 Q1263.87 1480.59 1266.39 1480.59 Q1270.79 1480.59 1273.08 1478.85 Q1275.4 1477.12 1275.4 1473.81 Q1275.4 1470.75 1273.24 1469.04 Q1271.11 1467.3 1267.29 1467.3 L1263.27 1467.3 L1263.27 1463.46 L1267.48 1463.46 Q1270.93 1463.46 1272.76 1462.09 Q1274.59 1460.7 1274.59 1458.11 Q1274.59 1455.45 1272.69 1454.04 Q1270.81 1452.6 1267.29 1452.6 Q1265.37 1452.6 1263.17 1453.02 Q1260.98 1453.44 1258.34 1454.31 L1258.34 1450.15 Q1261 1449.41 1263.31 1449.04 Q1265.65 1448.67 1267.71 1448.67 Q1273.04 1448.67 1276.14 1451.1 Q1279.24 1453.5 1279.24 1457.63 Q1279.24 1460.5 1277.6 1462.49 Q1275.95 1464.45 1272.92 1465.22 Z" fill="#000000" fill-rule="evenodd" fill-opacity="1" /><path clip-path="url(#clip280)" d="M 0 0 M1295.12 1452.37 Q1291.51 1452.37 1289.68 1455.94 Q1287.87 1459.48 1287.87 1466.61 Q1287.87 1473.71 1289.68 1477.28 Q1291.51 1480.82 1295.12 1480.82 Q1298.75 1480.82 1300.56 1477.28 Q1302.39 1473.71 1302.39 1466.61 Q1302.39 1459.48 1300.56 1455.94 Q1298.75 1452.37 1295.12 1452.37 M1295.12 1448.67 Q1300.93 1448.67 1303.98 1453.27 Q1307.06 1457.86 1307.06 1466.61 Q1307.06 1475.33 1303.98 1479.94 Q1300.93 1484.52 1295.12 1484.52 Q1289.31 1484.52 1286.23 1479.94 Q1283.17 1475.33 1283.17 1466.61 Q1283.17 1457.86 1286.23 1453.27 Q1289.31 1448.67 1295.12 1448.67 Z" fill="#000000" fill-rule="evenodd" fill-opacity="1" /><path clip-path="url(#clip280)" d="M 0 0 M1608.34 1453.37 L1596.54 1471.81 L1608.34 1471.81 L1608.34 1453.37 M1607.11 1449.29 L1612.99 1449.29 L1612.99 1471.81 L1617.92 1471.81 L1617.92 1475.7 L1612.99 1475.7 L1612.99 1483.85 L1608.34 1483.85 L1608.34 1475.7 L1592.74 1475.7 L1592.74 1471.19 L1607.11 1449.29 Z" fill="#000000" fill-rule="evenodd" fill-opacity="1" /><path clip-path="url(#clip280)" d="M 0 0 M1632.99 1452.37 Q1629.38 1452.37 1627.55 1455.94 Q1625.75 1459.48 1625.75 1466.61 Q1625.75 1473.71 1627.55 1477.28 Q1629.38 1480.82 1632.99 1480.82 Q1636.63 1480.82 1638.43 1477.28 Q1640.26 1473.71 1640.26 1466.61 Q1640.26 1459.48 1638.43 1455.94 Q1636.63 1452.37 1632.99 1452.37 M1632.99 1448.67 Q1638.8 1448.67 1641.86 1453.27 Q1644.94 1457.86 1644.94 1466.61 Q1644.94 1475.33 1641.86 1479.94 Q1638.8 1484.52 1632.99 1484.52 Q1627.18 1484.52 1624.1 1479.94 Q1621.05 1475.33 1621.05 1466.61 Q1621.05 1457.86 1624.1 1453.27 Q1627.18 1448.67 1632.99 1448.67 Z" fill="#000000" fill-rule="evenodd" fill-opacity="1" /><path clip-path="url(#clip280)" d="M 0 0 M1932.27 1449.29 L1950.63 1449.29 L1950.63 1453.23 L1936.55 1453.23 L1936.55 1461.7 Q1937.57 1461.35 1938.59 1461.19 Q1939.61 1461 1940.63 1461 Q1946.41 1461 1949.79 1464.18 Q1953.17 1467.35 1953.17 1472.76 Q1953.17 1478.34 1949.7 1481.44 Q1946.23 1484.52 1939.91 1484.52 Q1937.73 1484.52 1935.46 1484.15 Q1933.22 1483.78 1930.81 1483.04 L1930.81 1478.34 Q1932.89 1479.48 1935.12 1480.03 Q1937.34 1480.59 1939.82 1480.59 Q1943.82 1480.59 1946.16 1478.48 Q1948.5 1476.38 1948.5 1472.76 Q1948.5 1469.15 1946.16 1467.05 Q1943.82 1464.94 1939.82 1464.94 Q1937.94 1464.94 1936.07 1465.36 Q1934.21 1465.77 1932.27 1466.65 L1932.27 1449.29 Z" fill="#000000" fill-rule="evenodd" fill-opacity="1" /><path clip-path="url(#clip280)" d="M 0 0 M1968.24 1452.37 Q1964.63 1452.37 1962.8 1455.94 Q1961 1459.48 1961 1466.61 Q1961 1473.71 1962.8 1477.28 Q1964.63 1480.82 1968.24 1480.82 Q1971.88 1480.82 1973.68 1477.28 Q1975.51 1473.71 1975.51 1466.61 Q1975.51 1459.48 1973.68 1455.94 Q1971.88 1452.37 1968.24 1452.37 M1968.24 1448.67 Q1974.05 1448.67 1977.11 1453.27 Q1980.19 1457.86 1980.19 1466.61 Q1980.19 1475.33 1977.11 1479.94 Q1974.05 1484.52 1968.24 1484.52 Q1962.43 1484.52 1959.35 1479.94 Q1956.3 1475.33 1956.3 1466.61 Q1956.3 1457.86 1959.35 1453.27 Q1962.43 1448.67 1968.24 1448.67 Z" fill="#000000" fill-rule="evenodd" fill-opacity="1" /><path clip-path="url(#clip280)" d="M 0 0 M2279.06 1464.71 Q2275.91 1464.71 2274.06 1466.86 Q2272.23 1469.01 2272.23 1472.76 Q2272.23 1476.49 2274.06 1478.67 Q2275.91 1480.82 2279.06 1480.82 Q2282.2 1480.82 2284.03 1478.67 Q2285.88 1476.49 2285.88 1472.76 Q2285.88 1469.01 2284.03 1466.86 Q2282.2 1464.71 2279.06 1464.71 M2288.34 1450.06 L2288.34 1454.31 Q2286.58 1453.48 2284.77 1453.04 Q2282.99 1452.6 2281.23 1452.6 Q2276.6 1452.6 2274.15 1455.73 Q2271.72 1458.85 2271.37 1465.17 Q2272.74 1463.16 2274.8 1462.09 Q2276.86 1461 2279.33 1461 Q2284.54 1461 2287.55 1464.18 Q2290.58 1467.32 2290.58 1472.76 Q2290.58 1478.09 2287.44 1481.31 Q2284.29 1484.52 2279.06 1484.52 Q2273.06 1484.52 2269.89 1479.94 Q2266.72 1475.33 2266.72 1466.61 Q2266.72 1458.41 2270.61 1453.55 Q2274.5 1448.67 2281.05 1448.67 Q2282.81 1448.67 2284.59 1449.01 Q2286.39 1449.36 2288.34 1450.06 Z" fill="#000000" fill-rule="evenodd" fill-opacity="1" /><path clip-path="url(#clip280)" d="M 0 0 M2305.65 1452.37 Q2302.04 1452.37 2300.21 1455.94 Q2298.41 1459.48 2298.41 1466.61 Q2298.41 1473.71 2300.21 1477.28 Q2302.04 1480.82 2305.65 1480.82 Q2309.29 1480.82 2311.09 1477.28 Q2312.92 1473.71 2312.92 1466.61 Q2312.92 1459.48 2311.09 1455.94 Q2309.29 1452.37 2305.65 1452.37 M2305.65 1448.67 Q2311.46 1448.67 2314.52 1453.27 Q2317.6 1457.86 2317.6 1466.61 Q2317.6 1475.33 2314.52 1479.94 Q2311.46 1484.52 2305.65 1484.52 Q2299.84 1484.52 2296.76 1479.94 Q2293.71 1475.33 2293.71 1466.61 Q2293.71 1457.86 2296.76 1453.27 Q2299.84 1448.67 2305.65 1448.67 Z" fill="#000000" fill-rule="evenodd" fill-opacity="1" /><path clip-path="url(#clip280)" d="M 0 0 M1182.17 1510.27 L1182.17 1520.4 L1194.24 1520.4 L1194.24 1524.95 L1182.17 1524.95 L1182.17 1544.3 Q1182.17 1548.66 1183.35 1549.9 Q1184.56 1551.14 1188.22 1551.14 L1194.24 1551.14 L1194.24 1556.04 L1188.22 1556.04 Q1181.44 1556.04 1178.86 1553.53 Q1176.29 1550.98 1176.29 1544.3 L1176.29 1524.95 L1171.99 1524.95 L1171.99 1520.4 L1176.29 1520.4 L1176.29 1510.27 L1182.17 1510.27 Z" fill="#000000" fill-rule="evenodd" fill-opacity="1" /><path clip-path="url(#clip280)" d="M 0 0 M1200.38 1520.4 L1206.24 1520.4 L1206.24 1556.04 L1200.38 1556.04 L1200.38 1520.4 M1200.38 1506.52 L1206.24 1506.52 L1206.24 1513.93 L1200.38 1513.93 L1200.38 1506.52 Z" fill="#000000" fill-rule="evenodd" fill-opacity="1" /><path clip-path="url(#clip280)" d="M 0 0 M1240.13 1527.24 Q1242.33 1523.29 1245.39 1521.41 Q1248.44 1519.54 1252.58 1519.54 Q1258.15 1519.54 1261.17 1523.45 Q1264.2 1527.33 1264.2 1534.53 L1264.2 1556.04 L1258.31 1556.04 L1258.31 1534.72 Q1258.31 1529.59 1256.49 1527.11 Q1254.68 1524.63 1250.96 1524.63 Q1246.4 1524.63 1243.76 1527.65 Q1241.12 1530.68 1241.12 1535.9 L1241.12 1556.04 L1235.23 1556.04 L1235.23 1534.72 Q1235.23 1529.56 1233.42 1527.11 Q1231.6 1524.63 1227.82 1524.63 Q1223.33 1524.63 1220.69 1527.68 Q1218.04 1530.71 1218.04 1535.9 L1218.04 1556.04 L1212.16 1556.04 L1212.16 1520.4 L1218.04 1520.4 L1218.04 1525.93 Q1220.05 1522.66 1222.85 1521.1 Q1225.65 1519.54 1229.5 1519.54 Q1233.39 1519.54 1236.09 1521.51 Q1238.83 1523.48 1240.13 1527.24 Z" fill="#000000" fill-rule="evenodd" fill-opacity="1" /><path clip-path="url(#clip280)" d="M 0 0 M1300.83 1536.76 L1300.83 1539.62 L1273.9 1539.62 Q1274.29 1545.67 1277.53 1548.85 Q1280.81 1552 1286.64 1552 Q1290.01 1552 1293.16 1551.17 Q1296.34 1550.35 1299.46 1548.69 L1299.46 1554.23 Q1296.31 1555.57 1293 1556.27 Q1289.69 1556.97 1286.29 1556.97 Q1277.75 1556.97 1272.76 1552 Q1267.79 1547.04 1267.79 1538.57 Q1267.79 1529.82 1272.5 1524.69 Q1277.25 1519.54 1285.27 1519.54 Q1292.46 1519.54 1296.63 1524.18 Q1300.83 1528.8 1300.83 1536.76 M1294.97 1535.04 Q1294.91 1530.23 1292.27 1527.37 Q1289.66 1524.5 1285.33 1524.5 Q1280.43 1524.5 1277.47 1527.27 Q1274.54 1530.04 1274.09 1535.07 L1294.97 1535.04 Z" fill="#000000" fill-rule="evenodd" fill-opacity="1" /><path clip-path="url(#clip280)" d="M 0 0 M1341.76 1506.58 Q1337.5 1513.9 1335.43 1521.06 Q1333.36 1528.23 1333.36 1535.58 Q1333.36 1542.93 1335.43 1550.16 Q1337.53 1557.35 1341.76 1564.64 L1336.67 1564.64 Q1331.9 1557.16 1329.51 1549.93 Q1327.15 1542.71 1327.15 1535.58 Q1327.15 1528.48 1329.51 1521.29 Q1331.86 1514.09 1336.67 1506.58 L1341.76 1506.58 Z" fill="#000000" fill-rule="evenodd" fill-opacity="1" /><path clip-path="url(#clip280)" d="M 0 0 M1370.63 1521.45 L1370.63 1526.98 Q1368.15 1525.71 1365.47 1525.07 Q1362.8 1524.44 1359.94 1524.44 Q1355.58 1524.44 1353.38 1525.77 Q1351.22 1527.11 1351.22 1529.79 Q1351.22 1531.82 1352.77 1533 Q1354.33 1534.15 1359.05 1535.2 L1361.05 1535.64 Q1367.29 1536.98 1369.9 1539.43 Q1372.54 1541.85 1372.54 1546.21 Q1372.54 1551.17 1368.59 1554.07 Q1364.68 1556.97 1357.8 1556.97 Q1354.94 1556.97 1351.82 1556.39 Q1348.73 1555.85 1345.3 1554.74 L1345.3 1548.69 Q1348.54 1550.38 1351.69 1551.24 Q1354.84 1552.07 1357.93 1552.07 Q1362.07 1552.07 1364.3 1550.66 Q1366.52 1549.23 1366.52 1546.65 Q1366.52 1544.27 1364.9 1542.99 Q1363.31 1541.72 1357.87 1540.54 L1355.83 1540.07 Q1350.39 1538.92 1347.97 1536.56 Q1345.55 1534.18 1345.55 1530.04 Q1345.55 1525.01 1349.11 1522.27 Q1352.68 1519.54 1359.24 1519.54 Q1362.48 1519.54 1365.35 1520.01 Q1368.21 1520.49 1370.63 1521.45 Z" fill="#000000" fill-rule="evenodd" fill-opacity="1" /><path clip-path="url(#clip280)" d="M 0 0 M1377.76 1506.58 L1382.85 1506.58 Q1387.63 1514.09 1389.98 1521.29 Q1392.37 1528.48 1392.37 1535.58 Q1392.37 1542.71 1389.98 1549.93 Q1387.63 1557.16 1382.85 1564.64 L1377.76 1564.64 Q1381.99 1557.35 1384.06 1550.16 Q1386.16 1542.93 1386.16 1535.58 Q1386.16 1528.23 1384.06 1521.06 Q1381.99 1513.9 1377.76 1506.58 Z" fill="#000000" fill-rule="evenodd" fill-opacity="1" /><polyline clip-path="url(#clip282)" style="stroke:#000000; stroke-width:2; stroke-opacity:0.1; fill:none" points="
  211.602,1412.14 2352.76,1412.14 
  "/>
<polyline clip-path="url(#clip282)" style="stroke:#000000; stroke-width:2; stroke-opacity:0.1; fill:none" points="
  211.602,1168.4 2352.76,1168.4 
  "/>
<polyline clip-path="url(#clip282)" style="stroke:#000000; stroke-width:2; stroke-opacity:0.1; fill:none" points="
  211.602,924.667 2352.76,924.667 
  "/>
<polyline clip-path="url(#clip282)" style="stroke:#000000; stroke-width:2; stroke-opacity:0.1; fill:none" points="
  211.602,680.93 2352.76,680.93 
  "/>
<polyline clip-path="url(#clip282)" style="stroke:#000000; stroke-width:2; stroke-opacity:0.1; fill:none" points="
  211.602,437.194 2352.76,437.194 
  "/>
<polyline clip-path="url(#clip282)" style="stroke:#000000; stroke-width:2; stroke-opacity:0.1; fill:none" points="
  211.602,193.458 2352.76,193.458 
  "/>
<polyline clip-path="url(#clip280)" style="stroke:#000000; stroke-width:4; stroke-opacity:1; fill:none" points="
  211.602,1423.18 211.602,123.472 
  "/>
<polyline clip-path="url(#clip280)" style="stroke:#000000; stroke-width:4; stroke-opacity:1; fill:none" points="
  211.602,1412.14 237.296,1412.14 
  "/>
<polyline clip-path="url(#clip280)" style="stroke:#000000; stroke-width:4; stroke-opacity:1; fill:none" points="
  211.602,1168.4 237.296,1168.4 
  "/>
<polyline clip-path="url(#clip280)" style="stroke:#000000; stroke-width:4; stroke-opacity:1; fill:none" points="
  211.602,924.667 237.296,924.667 
  "/>
<polyline clip-path="url(#clip280)" style="stroke:#000000; stroke-width:4; stroke-opacity:1; fill:none" points="
  211.602,680.93 237.296,680.93 
  "/>
<polyline clip-path="url(#clip280)" style="stroke:#000000; stroke-width:4; stroke-opacity:1; fill:none" points="
  211.602,437.194 237.296,437.194 
  "/>
<polyline clip-path="url(#clip280)" style="stroke:#000000; stroke-width:4; stroke-opacity:1; fill:none" points="
  211.602,193.458 237.296,193.458 
  "/>
<path clip-path="url(#clip280)" d="M 0 0 M126.691 1397.94 Q123.08 1397.94 121.251 1401.5 Q119.445 1405.04 119.445 1412.17 Q119.445 1419.28 121.251 1422.84 Q123.08 1426.39 126.691 1426.39 Q130.325 1426.39 132.13 1422.84 Q133.959 1419.28 133.959 1412.17 Q133.959 1405.04 132.13 1401.5 Q130.325 1397.94 126.691 1397.94 M126.691 1394.23 Q132.501 1394.23 135.556 1398.84 Q138.635 1403.42 138.635 1412.17 Q138.635 1420.9 135.556 1425.51 Q132.501 1430.09 126.691 1430.09 Q120.88 1430.09 117.802 1425.51 Q114.746 1420.9 114.746 1412.17 Q114.746 1403.42 117.802 1398.84 Q120.88 1394.23 126.691 1394.23 Z" fill="#000000" fill-rule="evenodd" fill-opacity="1" /><path clip-path="url(#clip280)" d="M 0 0 M143.704 1423.54 L148.589 1423.54 L148.589 1429.42 L143.704 1429.42 L143.704 1423.54 Z" fill="#000000" fill-rule="evenodd" fill-opacity="1" /><path clip-path="url(#clip280)" d="M 0 0 M163.658 1397.94 Q160.047 1397.94 158.218 1401.5 Q156.413 1405.04 156.413 1412.17 Q156.413 1419.28 158.218 1422.84 Q160.047 1426.39 163.658 1426.39 Q167.292 1426.39 169.098 1422.84 Q170.927 1419.28 170.927 1412.17 Q170.927 1405.04 169.098 1401.5 Q167.292 1397.94 163.658 1397.94 M163.658 1394.23 Q169.468 1394.23 172.524 1398.84 Q175.602 1403.42 175.602 1412.17 Q175.602 1420.9 172.524 1425.51 Q169.468 1430.09 163.658 1430.09 Q157.848 1430.09 154.769 1425.51 Q151.714 1420.9 151.714 1412.17 Q151.714 1403.42 154.769 1398.84 Q157.848 1394.23 163.658 1394.23 Z" fill="#000000" fill-rule="evenodd" fill-opacity="1" /><path clip-path="url(#clip280)" d="M 0 0 M127.917 1154.2 Q124.306 1154.2 122.478 1157.77 Q120.672 1161.31 120.672 1168.44 Q120.672 1175.54 122.478 1179.11 Q124.306 1182.65 127.917 1182.65 Q131.552 1182.65 133.357 1179.11 Q135.186 1175.54 135.186 1168.44 Q135.186 1161.31 133.357 1157.77 Q131.552 1154.2 127.917 1154.2 M127.917 1150.5 Q133.728 1150.5 136.783 1155.1 Q139.862 1159.69 139.862 1168.44 Q139.862 1177.16 136.783 1181.77 Q133.728 1186.35 127.917 1186.35 Q122.107 1186.35 119.029 1181.77 Q115.973 1177.16 115.973 1168.44 Q115.973 1159.69 119.029 1155.1 Q122.107 1150.5 127.917 1150.5 Z" fill="#000000" fill-rule="evenodd" fill-opacity="1" /><path clip-path="url(#clip280)" d="M 0 0 M144.931 1179.8 L149.816 1179.8 L149.816 1185.68 L144.931 1185.68 L144.931 1179.8 Z" fill="#000000" fill-rule="evenodd" fill-opacity="1" /><path clip-path="url(#clip280)" d="M 0 0 M155.695 1181.75 L163.334 1181.75 L163.334 1155.38 L155.024 1157.05 L155.024 1152.79 L163.288 1151.12 L167.964 1151.12 L167.964 1181.75 L175.602 1181.75 L175.602 1185.68 L155.695 1185.68 L155.695 1181.75 Z" fill="#000000" fill-rule="evenodd" fill-opacity="1" /><path clip-path="url(#clip280)" d="M 0 0 M128.288 910.465 Q124.677 910.465 122.848 914.03 Q121.043 917.572 121.043 924.701 Q121.043 931.808 122.848 935.372 Q124.677 938.914 128.288 938.914 Q131.922 938.914 133.728 935.372 Q135.556 931.808 135.556 924.701 Q135.556 917.572 133.728 914.03 Q131.922 910.465 128.288 910.465 M128.288 906.762 Q134.098 906.762 137.154 911.368 Q140.232 915.951 140.232 924.701 Q140.232 933.428 137.154 938.034 Q134.098 942.618 128.288 942.618 Q122.478 942.618 119.399 938.034 Q116.343 933.428 116.343 924.701 Q116.343 915.951 119.399 911.368 Q122.478 906.762 128.288 906.762 Z" fill="#000000" fill-rule="evenodd" fill-opacity="1" /><path clip-path="url(#clip280)" d="M 0 0 M145.302 936.067 L150.186 936.067 L150.186 941.947 L145.302 941.947 L145.302 936.067 Z" fill="#000000" fill-rule="evenodd" fill-opacity="1" /><path clip-path="url(#clip280)" d="M 0 0 M159.283 938.011 L175.602 938.011 L175.602 941.947 L153.658 941.947 L153.658 938.011 Q156.32 935.257 160.903 930.627 Q165.51 925.974 166.69 924.632 Q168.936 922.109 169.815 920.373 Q170.718 918.613 170.718 916.923 Q170.718 914.169 168.774 912.433 Q166.852 910.697 163.751 910.697 Q161.552 910.697 159.098 911.461 Q156.667 912.224 153.89 913.775 L153.89 909.053 Q156.714 907.919 159.167 907.34 Q161.621 906.762 163.658 906.762 Q169.028 906.762 172.223 909.447 Q175.417 912.132 175.417 916.623 Q175.417 918.752 174.607 920.673 Q173.82 922.572 171.714 925.164 Q171.135 925.835 168.033 929.053 Q164.931 932.247 159.283 938.011 Z" fill="#000000" fill-rule="evenodd" fill-opacity="1" /><path clip-path="url(#clip280)" d="M 0 0 M127.339 666.729 Q123.728 666.729 121.899 670.294 Q120.093 673.836 120.093 680.965 Q120.093 688.072 121.899 691.636 Q123.728 695.178 127.339 695.178 Q130.973 695.178 132.779 691.636 Q134.607 688.072 134.607 680.965 Q134.607 673.836 132.779 670.294 Q130.973 666.729 127.339 666.729 M127.339 663.025 Q133.149 663.025 136.204 667.632 Q139.283 672.215 139.283 680.965 Q139.283 689.692 136.204 694.298 Q133.149 698.882 127.339 698.882 Q121.529 698.882 118.45 694.298 Q115.394 689.692 115.394 680.965 Q115.394 672.215 118.45 667.632 Q121.529 663.025 127.339 663.025 Z" fill="#000000" fill-rule="evenodd" fill-opacity="1" /><path clip-path="url(#clip280)" d="M 0 0 M144.353 692.331 L149.237 692.331 L149.237 698.21 L144.353 698.21 L144.353 692.331 Z" fill="#000000" fill-rule="evenodd" fill-opacity="1" /><path clip-path="url(#clip280)" d="M 0 0 M168.473 679.576 Q171.829 680.294 173.704 682.562 Q175.602 684.831 175.602 688.164 Q175.602 693.28 172.084 696.081 Q168.565 698.882 162.084 698.882 Q159.908 698.882 157.593 698.442 Q155.302 698.025 152.848 697.169 L152.848 692.655 Q154.792 693.789 157.107 694.368 Q159.422 694.947 161.945 694.947 Q166.343 694.947 168.635 693.211 Q170.95 691.474 170.95 688.164 Q170.95 685.109 168.797 683.396 Q166.667 681.66 162.848 681.66 L158.82 681.66 L158.82 677.817 L163.033 677.817 Q166.482 677.817 168.311 676.451 Q170.139 675.062 170.139 672.47 Q170.139 669.808 168.241 668.396 Q166.366 666.961 162.848 666.961 Q160.927 666.961 158.728 667.377 Q156.528 667.794 153.89 668.674 L153.89 664.507 Q156.552 663.766 158.866 663.396 Q161.204 663.025 163.265 663.025 Q168.589 663.025 171.69 665.456 Q174.792 667.863 174.792 671.984 Q174.792 674.854 173.149 676.845 Q171.505 678.812 168.473 679.576 Z" fill="#000000" fill-rule="evenodd" fill-opacity="1" /><path clip-path="url(#clip280)" d="M 0 0 M126.205 422.993 Q122.593 422.993 120.765 426.558 Q118.959 430.1 118.959 437.229 Q118.959 444.336 120.765 447.9 Q122.593 451.442 126.205 451.442 Q129.839 451.442 131.644 447.9 Q133.473 444.336 133.473 437.229 Q133.473 430.1 131.644 426.558 Q129.839 422.993 126.205 422.993 M126.205 419.289 Q132.015 419.289 135.07 423.896 Q138.149 428.479 138.149 437.229 Q138.149 445.956 135.07 450.562 Q132.015 455.146 126.205 455.146 Q120.394 455.146 117.316 450.562 Q114.26 445.956 114.26 437.229 Q114.26 428.479 117.316 423.896 Q120.394 419.289 126.205 419.289 Z" fill="#000000" fill-rule="evenodd" fill-opacity="1" /><path clip-path="url(#clip280)" d="M 0 0 M143.218 448.595 L148.103 448.595 L148.103 454.474 L143.218 454.474 L143.218 448.595 Z" fill="#000000" fill-rule="evenodd" fill-opacity="1" /><path clip-path="url(#clip280)" d="M 0 0 M166.019 423.988 L154.214 442.437 L166.019 442.437 L166.019 423.988 M164.792 419.914 L170.672 419.914 L170.672 442.437 L175.602 442.437 L175.602 446.326 L170.672 446.326 L170.672 454.474 L166.019 454.474 L166.019 446.326 L150.417 446.326 L150.417 441.812 L164.792 419.914 Z" fill="#000000" fill-rule="evenodd" fill-opacity="1" /><path clip-path="url(#clip280)" d="M 0 0 M127.686 179.257 Q124.075 179.257 122.246 182.822 Q120.441 186.364 120.441 193.493 Q120.441 200.6 122.246 204.164 Q124.075 207.706 127.686 207.706 Q131.32 207.706 133.126 204.164 Q134.954 200.6 134.954 193.493 Q134.954 186.364 133.126 182.822 Q131.32 179.257 127.686 179.257 M127.686 175.553 Q133.496 175.553 136.552 180.16 Q139.63 184.743 139.63 193.493 Q139.63 202.22 136.552 206.826 Q133.496 211.41 127.686 211.41 Q121.876 211.41 118.797 206.826 Q115.742 202.22 115.742 193.493 Q115.742 184.743 118.797 180.16 Q121.876 175.553 127.686 175.553 Z" fill="#000000" fill-rule="evenodd" fill-opacity="1" /><path clip-path="url(#clip280)" d="M 0 0 M144.7 204.859 L149.584 204.859 L149.584 210.738 L144.7 210.738 L144.7 204.859 Z" fill="#000000" fill-rule="evenodd" fill-opacity="1" /><path clip-path="url(#clip280)" d="M 0 0 M154.7 176.178 L173.056 176.178 L173.056 180.114 L158.982 180.114 L158.982 188.586 Q160.001 188.239 161.019 188.076 Q162.038 187.891 163.056 187.891 Q168.843 187.891 172.223 191.063 Q175.602 194.234 175.602 199.651 Q175.602 205.229 172.13 208.331 Q168.658 211.41 162.339 211.41 Q160.163 211.41 157.894 211.039 Q155.649 210.669 153.241 209.928 L153.241 205.229 Q155.325 206.363 157.547 206.919 Q159.769 207.475 162.246 207.475 Q166.251 207.475 168.589 205.368 Q170.927 203.262 170.927 199.651 Q170.927 196.039 168.589 193.933 Q166.251 191.826 162.246 191.826 Q160.371 191.826 158.496 192.243 Q156.644 192.66 154.7 193.539 L154.7 176.178 Z" fill="#000000" fill-rule="evenodd" fill-opacity="1" /><path clip-path="url(#clip280)" d="M 0 0 M68.7161 1078 L71.5806 1078 L71.5806 1104.93 Q77.6281 1104.55 80.8109 1101.3 Q83.9619 1098.02 83.9619 1092.2 Q83.9619 1088.83 83.1344 1085.68 Q82.3069 1082.49 80.6518 1079.37 L86.1899 1079.37 Q87.5267 1082.52 88.227 1085.83 Q88.9272 1089.14 88.9272 1092.55 Q88.9272 1101.08 83.9619 1106.08 Q78.9967 1111.04 70.5303 1111.04 Q61.7774 1111.04 56.6531 1106.33 Q51.4968 1101.59 51.4968 1093.57 Q51.4968 1086.38 56.1438 1082.21 Q60.7589 1078 68.7161 1078 M66.9973 1083.86 Q62.1912 1083.92 59.3266 1086.57 Q56.4621 1089.18 56.4621 1093.51 Q56.4621 1098.41 59.2312 1101.37 Q62.0002 1104.29 67.0292 1104.74 L66.9973 1083.86 Z" fill="#000000" fill-rule="evenodd" fill-opacity="1" /><path clip-path="url(#clip280)" d="M 0 0 M52.3562 1076.06 L52.3562 1069.86 L82.275 1058.72 L52.3562 1047.58 L52.3562 1041.37 L88.0042 1054.74 L88.0042 1062.7 L52.3562 1076.06 Z" fill="#000000" fill-rule="evenodd" fill-opacity="1" /><path clip-path="url(#clip280)" d="M 0 0 M70.0847 1019.03 Q70.0847 1026.12 71.7079 1028.86 Q73.3312 1031.6 77.2461 1031.6 Q80.3653 1031.6 82.2114 1029.56 Q84.0256 1027.49 84.0256 1023.96 Q84.0256 1019.09 80.5881 1016.16 Q77.1188 1013.2 71.3897 1013.2 L70.0847 1013.2 L70.0847 1019.03 M67.6657 1007.35 L88.0042 1007.35 L88.0042 1013.2 L82.5933 1013.2 Q85.8398 1015.21 87.3994 1018.2 Q88.9272 1021.19 88.9272 1025.52 Q88.9272 1030.99 85.8716 1034.24 Q82.7843 1037.46 77.6281 1037.46 Q71.6125 1037.46 68.5569 1033.44 Q65.5014 1029.4 65.5014 1021.41 L65.5014 1013.2 L64.9285 1013.2 Q60.8862 1013.2 58.6901 1015.88 Q56.4621 1018.52 56.4621 1023.32 Q56.4621 1026.38 57.1941 1029.28 Q57.9262 1032.17 59.3903 1034.85 L53.9795 1034.85 Q52.7381 1031.63 52.1334 1028.61 Q51.4968 1025.58 51.4968 1022.72 Q51.4968 1014.98 55.5072 1011.16 Q59.5176 1007.35 67.6657 1007.35 Z" fill="#000000" fill-rule="evenodd" fill-opacity="1" /><path clip-path="url(#clip280)" d="M 0 0 M82.657 995.537 L101.563 995.537 L101.563 1001.43 L52.3562 1001.43 L52.3562 995.537 L57.7671 995.537 Q54.5842 993.691 53.0564 990.89 Q51.4968 988.057 51.4968 984.142 Q51.4968 977.649 56.6531 973.607 Q61.8093 969.533 70.212 969.533 Q78.6147 969.533 83.771 973.607 Q88.9272 977.649 88.9272 984.142 Q88.9272 988.057 87.3994 990.89 Q85.8398 993.691 82.657 995.537 M70.212 975.612 Q63.7508 975.612 60.0905 978.286 Q56.3984 980.928 56.3984 985.575 Q56.3984 990.222 60.0905 992.895 Q63.7508 995.537 70.212 995.537 Q76.6732 995.537 80.3653 992.895 Q84.0256 990.222 84.0256 985.575 Q84.0256 980.928 80.3653 978.286 Q76.6732 975.612 70.212 975.612 Z" fill="#000000" fill-rule="evenodd" fill-opacity="1" /><path clip-path="url(#clip280)" d="M 0 0 M56.4621 949.576 Q56.4621 954.287 60.1542 957.024 Q63.8145 959.762 70.212 959.762 Q76.6095 959.762 80.3017 957.056 Q83.9619 954.319 83.9619 949.576 Q83.9619 944.898 80.2698 942.16 Q76.5777 939.423 70.212 939.423 Q63.8781 939.423 60.186 942.16 Q56.4621 944.898 56.4621 949.576 M51.4968 949.576 Q51.4968 941.938 56.4621 937.577 Q61.4273 933.217 70.212 933.217 Q78.9649 933.217 83.9619 937.577 Q88.9272 941.938 88.9272 949.576 Q88.9272 957.247 83.9619 961.608 Q78.9649 965.936 70.212 965.936 Q61.4273 965.936 56.4621 961.608 Q51.4968 957.247 51.4968 949.576 Z" fill="#000000" fill-rule="evenodd" fill-opacity="1" /><path clip-path="url(#clip280)" d="M 0 0 M57.8307 906.417 Q57.2578 907.404 57.0032 908.581 Q56.7167 909.727 56.7167 911.128 Q56.7167 916.093 59.9632 918.766 Q63.1779 921.408 69.2253 921.408 L88.0042 921.408 L88.0042 927.297 L52.3562 927.297 L52.3562 921.408 L57.8944 921.408 Q54.6479 919.562 53.0883 916.602 Q51.4968 913.642 51.4968 909.409 Q51.4968 908.804 51.5923 908.072 Q51.656 907.34 51.8151 906.449 L57.8307 906.417 Z" fill="#000000" fill-rule="evenodd" fill-opacity="1" /><path clip-path="url(#clip280)" d="M 0 0 M70.0847 884.073 Q70.0847 891.171 71.7079 893.908 Q73.3312 896.646 77.2461 896.646 Q80.3653 896.646 82.2114 894.609 Q84.0256 892.54 84.0256 889.007 Q84.0256 884.137 80.5881 881.209 Q77.1188 878.249 71.3897 878.249 L70.0847 878.249 L70.0847 884.073 M67.6657 872.392 L88.0042 872.392 L88.0042 878.249 L82.5933 878.249 Q85.8398 880.254 87.3994 883.246 Q88.9272 886.238 88.9272 890.566 Q88.9272 896.041 85.8716 899.287 Q82.7843 902.502 77.6281 902.502 Q71.6125 902.502 68.5569 898.492 Q65.5014 894.449 65.5014 886.461 L65.5014 878.249 L64.9285 878.249 Q60.8862 878.249 58.6901 880.922 Q56.4621 883.564 56.4621 888.37 Q56.4621 891.426 57.1941 894.322 Q57.9262 897.219 59.3903 899.892 L53.9795 899.892 Q52.7381 896.677 52.1334 893.654 Q51.4968 890.63 51.4968 887.765 Q51.4968 880.031 55.5072 876.212 Q59.5176 872.392 67.6657 872.392 Z" fill="#000000" fill-rule="evenodd" fill-opacity="1" /><path clip-path="url(#clip280)" d="M 0 0 M42.2347 860.457 L52.3562 860.457 L52.3562 848.394 L56.9077 848.394 L56.9077 860.457 L76.2594 860.457 Q80.6199 860.457 81.8613 859.279 Q83.1026 858.069 83.1026 854.409 L83.1026 848.394 L88.0042 848.394 L88.0042 854.409 Q88.0042 861.189 85.4897 863.767 Q82.9434 866.345 76.2594 866.345 L56.9077 866.345 L56.9077 870.642 L52.3562 870.642 L52.3562 866.345 L42.2347 866.345 L42.2347 860.457 Z" fill="#000000" fill-rule="evenodd" fill-opacity="1" /><path clip-path="url(#clip280)" d="M 0 0 M52.3562 842.251 L52.3562 836.394 L88.0042 836.394 L88.0042 842.251 L52.3562 842.251 M38.479 842.251 L38.479 836.394 L45.895 836.394 L45.895 842.251 L38.479 842.251 Z" fill="#000000" fill-rule="evenodd" fill-opacity="1" /><path clip-path="url(#clip280)" d="M 0 0 M56.4621 816.438 Q56.4621 821.148 60.1542 823.886 Q63.8145 826.623 70.212 826.623 Q76.6095 826.623 80.3017 823.917 Q83.9619 821.18 83.9619 816.438 Q83.9619 811.759 80.2698 809.022 Q76.5777 806.284 70.212 806.284 Q63.8781 806.284 60.186 809.022 Q56.4621 811.759 56.4621 816.438 M51.4968 816.438 Q51.4968 808.799 56.4621 804.438 Q61.4273 800.078 70.212 800.078 Q78.9649 800.078 83.9619 804.438 Q88.9272 808.799 88.9272 816.438 Q88.9272 824.108 83.9619 828.469 Q78.9649 832.798 70.212 832.798 Q61.4273 832.798 56.4621 828.469 Q51.4968 824.108 51.4968 816.438 Z" fill="#000000" fill-rule="evenodd" fill-opacity="1" /><path clip-path="url(#clip280)" d="M 0 0 M66.4881 764.303 L88.0042 764.303 L88.0042 770.159 L66.679 770.159 Q61.6183 770.159 59.1038 772.132 Q56.5894 774.106 56.5894 778.053 Q56.5894 782.795 59.6131 785.532 Q62.6368 788.269 67.8567 788.269 L88.0042 788.269 L88.0042 794.158 L52.3562 794.158 L52.3562 788.269 L57.8944 788.269 Q54.6797 786.169 53.0883 783.336 Q51.4968 780.471 51.4968 776.748 Q51.4968 770.605 55.3163 767.454 Q59.1038 764.303 66.4881 764.303 Z" fill="#000000" fill-rule="evenodd" fill-opacity="1" /><path clip-path="url(#clip280)" d="M 0 0 M57.8307 716.783 Q57.2578 717.769 57.0032 718.947 Q56.7167 720.093 56.7167 721.493 Q56.7167 726.458 59.9632 729.132 Q63.1779 731.774 69.2253 731.774 L88.0042 731.774 L88.0042 737.662 L52.3562 737.662 L52.3562 731.774 L57.8944 731.774 Q54.6479 729.928 53.0883 726.968 Q51.4968 724.008 51.4968 719.774 Q51.4968 719.17 51.5923 718.438 Q51.656 717.706 51.8151 716.814 L57.8307 716.783 Z" fill="#000000" fill-rule="evenodd" fill-opacity="1" /><path clip-path="url(#clip280)" d="M 0 0 M70.0847 694.439 Q70.0847 701.537 71.7079 704.274 Q73.3312 707.011 77.2461 707.011 Q80.3653 707.011 82.2114 704.974 Q84.0256 702.905 84.0256 699.372 Q84.0256 694.503 80.5881 691.574 Q77.1188 688.614 71.3897 688.614 L70.0847 688.614 L70.0847 694.439 M67.6657 682.758 L88.0042 682.758 L88.0042 688.614 L82.5933 688.614 Q85.8398 690.62 87.3994 693.611 Q88.9272 696.603 88.9272 700.932 Q88.9272 706.406 85.8716 709.653 Q82.7843 712.868 77.6281 712.868 Q71.6125 712.868 68.5569 708.857 Q65.5014 704.815 65.5014 696.826 L65.5014 688.614 L64.9285 688.614 Q60.8862 688.614 58.6901 691.288 Q56.4621 693.93 56.4621 698.736 Q56.4621 701.791 57.1941 704.688 Q57.9262 707.584 59.3903 710.258 L53.9795 710.258 Q52.7381 707.043 52.1334 704.019 Q51.4968 700.996 51.4968 698.131 Q51.4968 690.397 55.5072 686.577 Q59.5176 682.758 67.6657 682.758 Z" fill="#000000" fill-rule="evenodd" fill-opacity="1" /><path clip-path="url(#clip280)" d="M 0 0 M42.2347 670.822 L52.3562 670.822 L52.3562 658.759 L56.9077 658.759 L56.9077 670.822 L76.2594 670.822 Q80.6199 670.822 81.8613 669.645 Q83.1026 668.435 83.1026 664.775 L83.1026 658.759 L88.0042 658.759 L88.0042 664.775 Q88.0042 671.554 85.4897 674.132 Q82.9434 676.71 76.2594 676.71 L56.9077 676.71 L56.9077 681.007 L52.3562 681.007 L52.3562 676.71 L42.2347 676.71 L42.2347 670.822 Z" fill="#000000" fill-rule="evenodd" fill-opacity="1" /><path clip-path="url(#clip280)" d="M 0 0 M68.7161 622.125 L71.5806 622.125 L71.5806 649.051 Q77.6281 648.67 80.8109 645.423 Q83.9619 642.145 83.9619 636.32 Q83.9619 632.946 83.1344 629.795 Q82.3069 626.612 80.6518 623.493 L86.1899 623.493 Q87.5267 626.644 88.227 629.954 Q88.9272 633.265 88.9272 636.67 Q88.9272 645.2 83.9619 650.197 Q78.9967 655.163 70.5303 655.163 Q61.7774 655.163 56.6531 650.452 Q51.4968 645.709 51.4968 637.689 Q51.4968 630.495 56.1438 626.326 Q60.7589 622.125 68.7161 622.125 M66.9973 627.981 Q62.1912 628.045 59.3266 630.686 Q56.4621 633.296 56.4621 637.625 Q56.4621 642.527 59.2312 645.487 Q62.0002 648.415 67.0292 648.861 L66.9973 627.981 Z" fill="#000000" fill-rule="evenodd" fill-opacity="1" /><path clip-path="url(#clip280)" d="M 0 0 M38.5426 581.193 Q45.8632 585.458 53.0246 587.527 Q60.186 589.596 67.5384 589.596 Q74.8908 589.596 82.1159 587.527 Q89.3091 585.426 96.5979 581.193 L96.5979 586.286 Q89.1182 591.06 81.8931 593.447 Q74.668 595.802 67.5384 595.802 Q60.4406 595.802 53.2474 593.447 Q46.0542 591.092 38.5426 586.286 L38.5426 581.193 Z" fill="#000000" fill-rule="evenodd" fill-opacity="1" /><path clip-path="url(#clip280)" d="M 0 0 M38.479 575.273 L38.479 569.385 L67.7294 569.385 L52.3562 551.911 L52.3562 544.431 L69.0344 563.337 L88.0042 543.635 L88.0042 551.274 L70.5939 569.385 L88.0042 569.385 L88.0042 575.273 L38.479 575.273 Z" fill="#000000" fill-rule="evenodd" fill-opacity="1" /><path clip-path="url(#clip280)" d="M 0 0 M69.7664 514.035 Q63.4007 514.035 59.8996 516.677 Q56.3984 519.287 56.3984 524.029 Q56.3984 528.74 59.8996 531.381 Q63.4007 533.991 69.7664 533.991 Q76.1003 533.991 79.6014 531.381 Q83.1026 528.74 83.1026 524.029 Q83.1026 519.287 79.6014 516.677 Q76.1003 514.035 69.7664 514.035 M83.58 508.178 Q92.683 508.178 97.1071 512.221 Q101.563 516.263 101.563 524.602 Q101.563 527.689 101.086 530.427 Q100.64 533.164 99.6852 535.742 L93.9879 535.742 Q95.3884 533.164 96.0568 530.649 Q96.7252 528.135 96.7252 525.525 Q96.7252 519.764 93.7015 516.899 Q90.7096 514.035 84.6303 514.035 L81.7339 514.035 Q84.885 515.849 86.4446 518.682 Q88.0042 521.515 88.0042 525.461 Q88.0042 532.018 83.0071 536.028 Q78.01 540.039 69.7664 540.039 Q61.491 540.039 56.4939 536.028 Q51.4968 532.018 51.4968 525.461 Q51.4968 521.515 53.0564 518.682 Q54.616 515.849 57.7671 514.035 L52.3562 514.035 L52.3562 508.178 L83.58 508.178 Z" fill="#000000" fill-rule="evenodd" fill-opacity="1" /><path clip-path="url(#clip280)" d="M 0 0 M40.4842 491.628 L40.4842 486.217 L94.0516 502.768 L94.0516 508.178 L40.4842 491.628 Z" fill="#000000" fill-rule="evenodd" fill-opacity="1" /><path clip-path="url(#clip280)" d="M 0 0 M53.4065 457.348 L58.9447 457.348 Q57.6716 459.831 57.035 462.504 Q56.3984 465.178 56.3984 468.043 Q56.3984 472.403 57.7352 474.599 Q59.072 476.764 61.7456 476.764 Q63.7826 476.764 64.9603 475.204 Q66.1061 473.644 67.1565 468.934 L67.6021 466.929 Q68.9389 460.69 71.3897 458.08 Q73.8086 455.439 78.1691 455.439 Q83.1344 455.439 86.0308 459.385 Q88.9272 463.3 88.9272 470.175 Q88.9272 473.04 88.3543 476.159 Q87.8132 479.246 86.6992 482.684 L80.6518 482.684 Q82.3387 479.437 83.198 476.286 Q84.0256 473.135 84.0256 470.048 Q84.0256 465.91 82.6251 463.682 Q81.1929 461.454 78.6147 461.454 Q76.2276 461.454 74.9545 463.077 Q73.6813 464.669 72.5037 470.111 L72.0262 472.148 Q70.8804 477.591 68.5251 480.01 Q66.138 482.429 62.0002 482.429 Q56.9713 482.429 54.2341 478.864 Q51.4968 475.3 51.4968 468.743 Q51.4968 465.496 51.9743 462.632 Q52.4517 459.767 53.4065 457.348 Z" fill="#000000" fill-rule="evenodd" fill-opacity="1" /><path clip-path="url(#clip280)" d="M 0 0 M38.5426 450.219 L38.5426 445.126 Q46.0542 440.352 53.2474 437.996 Q60.4406 435.609 67.5384 435.609 Q74.668 435.609 81.8931 437.996 Q89.1182 440.352 96.5979 445.126 L96.5979 450.219 Q89.3091 445.985 82.1159 443.917 Q74.8908 441.816 67.5384 441.816 Q60.186 441.816 53.0246 443.917 Q45.8632 445.985 38.5426 450.219 Z" fill="#000000" fill-rule="evenodd" fill-opacity="1" /><path clip-path="url(#clip280)" d="M 0 0 M888.917 65.7705 L888.917 89.8329 L881.423 89.8329 L881.423 27.2059 L888.917 27.2059 L888.917 34.0924 Q891.267 30.0415 894.832 28.0971 Q898.437 26.1121 903.42 26.1121 Q911.683 26.1121 916.828 32.6746 Q922.013 39.2371 922.013 49.9314 Q922.013 60.6258 916.828 67.1883 Q911.683 73.7508 903.42 73.7508 Q898.437 73.7508 894.832 71.8063 Q891.267 69.8214 888.917 65.7705 M914.276 49.9314 Q914.276 41.7081 910.873 37.0496 Q907.511 32.3505 901.597 32.3505 Q895.682 32.3505 892.28 37.0496 Q888.917 41.7081 888.917 49.9314 Q888.917 58.1548 892.28 62.8538 Q895.682 67.5124 901.597 67.5124 Q907.511 67.5124 910.873 62.8538 Q914.276 58.1548 914.276 49.9314 Z" fill="#000000" fill-rule="evenodd" fill-opacity="1" /><path clip-path="url(#clip280)" d="M 0 0 M947.412 32.4315 Q941.417 32.4315 937.933 37.1306 Q934.45 41.7891 934.45 49.9314 Q934.45 58.0738 937.893 62.7728 Q941.377 67.4314 947.412 67.4314 Q953.367 67.4314 956.851 62.7323 Q960.335 58.0333 960.335 49.9314 Q960.335 41.8701 956.851 37.1711 Q953.367 32.4315 947.412 32.4315 M947.412 26.1121 Q957.135 26.1121 962.684 32.4315 Q968.234 38.7509 968.234 49.9314 Q968.234 61.0714 962.684 67.4314 Q957.135 73.7508 947.412 73.7508 Q937.65 73.7508 932.1 67.4314 Q926.591 61.0714 926.591 49.9314 Q926.591 38.7509 932.1 32.4315 Q937.65 26.1121 947.412 26.1121 Z" fill="#000000" fill-rule="evenodd" fill-opacity="1" /><path clip-path="url(#clip280)" d="M 0 0 M993.633 32.4315 Q987.638 32.4315 984.154 37.1306 Q980.67 41.7891 980.67 49.9314 Q980.67 58.0738 984.114 62.7728 Q987.597 67.4314 993.633 67.4314 Q999.588 67.4314 1003.07 62.7323 Q1006.56 58.0333 1006.56 49.9314 Q1006.56 41.8701 1003.07 37.1711 Q999.588 32.4315 993.633 32.4315 M993.633 26.1121 Q1003.36 26.1121 1008.91 32.4315 Q1014.45 38.7509 1014.45 49.9314 Q1014.45 61.0714 1008.91 67.4314 Q1003.36 73.7508 993.633 73.7508 Q983.871 73.7508 978.321 67.4314 Q972.812 61.0714 972.812 49.9314 Q972.812 38.7509 978.321 32.4315 Q983.871 26.1121 993.633 26.1121 Z" fill="#000000" fill-rule="evenodd" fill-opacity="1" /><path clip-path="url(#clip280)" d="M 0 0 M1022.27 9.54393 L1029.73 9.54393 L1029.73 72.576 L1022.27 72.576 L1022.27 9.54393 Z" fill="#000000" fill-rule="evenodd" fill-opacity="1" /><path clip-path="url(#clip280)" d="M 0 0 M1102.72 48.0275 L1102.72 51.6733 L1068.45 51.6733 Q1068.94 59.3701 1073.07 63.421 Q1077.24 67.4314 1084.66 67.4314 Q1088.95 67.4314 1092.96 66.3781 Q1097.01 65.3249 1100.98 63.2184 L1100.98 70.267 Q1096.97 71.9684 1092.76 72.8596 Q1088.55 73.7508 1084.21 73.7508 Q1073.36 73.7508 1067 67.4314 Q1060.68 61.1119 1060.68 50.3365 Q1060.68 39.1965 1066.67 32.6746 Q1072.71 26.1121 1082.92 26.1121 Q1092.07 26.1121 1097.38 32.0264 Q1102.72 37.9003 1102.72 48.0275 M1095.27 45.84 Q1095.19 39.7232 1091.83 36.0774 Q1088.51 32.4315 1083 32.4315 Q1076.76 32.4315 1072.99 35.9558 Q1069.26 39.4801 1068.7 45.8805 L1095.27 45.84 Z" fill="#000000" fill-rule="evenodd" fill-opacity="1" /><path clip-path="url(#clip280)" d="M 0 0 M1105.2 27.2059 L1113.09 27.2059 L1127.27 65.2844 L1141.45 27.2059 L1149.35 27.2059 L1132.34 72.576 L1122.21 72.576 L1105.2 27.2059 Z" fill="#000000" fill-rule="evenodd" fill-opacity="1" /><path clip-path="url(#clip280)" d="M 0 0 M1177.79 49.7694 Q1168.75 49.7694 1165.27 51.8354 Q1161.79 53.9013 1161.79 58.8839 Q1161.79 62.8538 1164.38 65.2034 Q1167.01 67.5124 1171.51 67.5124 Q1177.71 67.5124 1181.43 63.1374 Q1185.2 58.7219 1185.2 51.4303 L1185.2 49.7694 L1177.79 49.7694 M1192.65 46.6907 L1192.65 72.576 L1185.2 72.576 L1185.2 65.6895 Q1182.65 69.8214 1178.84 71.8063 Q1175.03 73.7508 1169.52 73.7508 Q1162.56 73.7508 1158.42 69.8619 Q1154.33 65.9325 1154.33 59.3701 Q1154.33 51.7138 1159.44 47.825 Q1164.58 43.9361 1174.75 43.9361 L1185.2 43.9361 L1185.2 43.2069 Q1185.2 38.0623 1181.8 35.2672 Q1178.44 32.4315 1172.32 32.4315 Q1168.43 32.4315 1164.74 33.3632 Q1161.06 34.295 1157.65 36.1584 L1157.65 29.2718 Q1161.75 27.692 1165.59 26.9223 Q1169.44 26.1121 1173.09 26.1121 Q1182.93 26.1121 1187.79 31.2163 Q1192.65 36.3204 1192.65 46.6907 Z" fill="#000000" fill-rule="evenodd" fill-opacity="1" /><path clip-path="url(#clip280)" d="M 0 0 M1207.68 65.7705 L1207.68 89.8329 L1200.19 89.8329 L1200.19 27.2059 L1207.68 27.2059 L1207.68 34.0924 Q1210.03 30.0415 1213.6 28.0971 Q1217.2 26.1121 1222.19 26.1121 Q1230.45 26.1121 1235.59 32.6746 Q1240.78 39.2371 1240.78 49.9314 Q1240.78 60.6258 1235.59 67.1883 Q1230.45 73.7508 1222.19 73.7508 Q1217.2 73.7508 1213.6 71.8063 Q1210.03 69.8214 1207.68 65.7705 M1233.04 49.9314 Q1233.04 41.7081 1229.64 37.0496 Q1226.28 32.3505 1220.36 32.3505 Q1214.45 32.3505 1211.05 37.0496 Q1207.68 41.7081 1207.68 49.9314 Q1207.68 58.1548 1211.05 62.8538 Q1214.45 67.5124 1220.36 67.5124 Q1226.28 67.5124 1229.64 62.8538 Q1233.04 58.1548 1233.04 49.9314 Z" fill="#000000" fill-rule="evenodd" fill-opacity="1" /><path clip-path="url(#clip280)" d="M 0 0 M1266.18 32.4315 Q1260.18 32.4315 1256.7 37.1306 Q1253.22 41.7891 1253.22 49.9314 Q1253.22 58.0738 1256.66 62.7728 Q1260.14 67.4314 1266.18 67.4314 Q1272.13 67.4314 1275.62 62.7323 Q1279.1 58.0333 1279.1 49.9314 Q1279.1 41.8701 1275.62 37.1711 Q1272.13 32.4315 1266.18 32.4315 M1266.18 26.1121 Q1275.9 26.1121 1281.45 32.4315 Q1287 38.7509 1287 49.9314 Q1287 61.0714 1281.45 67.4314 Q1275.9 73.7508 1266.18 73.7508 Q1256.42 73.7508 1250.87 67.4314 Q1245.36 61.0714 1245.36 49.9314 Q1245.36 38.7509 1250.87 32.4315 Q1256.42 26.1121 1266.18 26.1121 Z" fill="#000000" fill-rule="evenodd" fill-opacity="1" /><path clip-path="url(#clip280)" d="M 0 0 M1321.11 34.1734 Q1319.85 33.4443 1318.35 33.1202 Q1316.9 32.7556 1315.11 32.7556 Q1308.79 32.7556 1305.39 36.8875 Q1302.03 40.9789 1302.03 48.6757 L1302.03 72.576 L1294.53 72.576 L1294.53 27.2059 L1302.03 27.2059 L1302.03 34.2544 Q1304.38 30.1225 1308.15 28.1376 Q1311.91 26.1121 1317.3 26.1121 Q1318.07 26.1121 1319 26.2337 Q1319.93 26.3147 1321.07 26.5172 L1321.11 34.1734 Z" fill="#000000" fill-rule="evenodd" fill-opacity="1" /><path clip-path="url(#clip280)" d="M 0 0 M1349.55 49.7694 Q1340.51 49.7694 1337.03 51.8354 Q1333.54 53.9013 1333.54 58.8839 Q1333.54 62.8538 1336.14 65.2034 Q1338.77 67.5124 1343.27 67.5124 Q1349.46 67.5124 1353.19 63.1374 Q1356.96 58.7219 1356.96 51.4303 L1356.96 49.7694 L1349.55 49.7694 M1364.41 46.6907 L1364.41 72.576 L1356.96 72.576 L1356.96 65.6895 Q1354.41 69.8214 1350.6 71.8063 Q1346.79 73.7508 1341.28 73.7508 Q1334.31 73.7508 1330.18 69.8619 Q1326.09 65.9325 1326.09 59.3701 Q1326.09 51.7138 1331.2 47.825 Q1336.34 43.9361 1346.51 43.9361 L1356.96 43.9361 L1356.96 43.2069 Q1356.96 38.0623 1353.56 35.2672 Q1350.19 32.4315 1344.08 32.4315 Q1340.19 32.4315 1336.5 33.3632 Q1332.82 34.295 1329.41 36.1584 L1329.41 29.2718 Q1333.5 27.692 1337.35 26.9223 Q1341.2 26.1121 1344.85 26.1121 Q1354.69 26.1121 1359.55 31.2163 Q1364.41 36.3204 1364.41 46.6907 Z" fill="#000000" fill-rule="evenodd" fill-opacity="1" /><path clip-path="url(#clip280)" d="M 0 0 M1379.6 14.324 L1379.6 27.2059 L1394.96 27.2059 L1394.96 32.9987 L1379.6 32.9987 L1379.6 57.6282 Q1379.6 63.1779 1381.1 64.7578 Q1382.64 66.3376 1387.3 66.3376 L1394.96 66.3376 L1394.96 72.576 L1387.3 72.576 Q1378.67 72.576 1375.39 69.3758 Q1372.11 66.1351 1372.11 57.6282 L1372.11 32.9987 L1366.64 32.9987 L1366.64 27.2059 L1372.11 27.2059 L1372.11 14.324 L1379.6 14.324 Z" fill="#000000" fill-rule="evenodd" fill-opacity="1" /><path clip-path="url(#clip280)" d="M 0 0 M1402.77 27.2059 L1410.23 27.2059 L1410.23 72.576 L1402.77 72.576 L1402.77 27.2059 M1402.77 9.54393 L1410.23 9.54393 L1410.23 18.9825 L1402.77 18.9825 L1402.77 9.54393 Z" fill="#000000" fill-rule="evenodd" fill-opacity="1" /><path clip-path="url(#clip280)" d="M 0 0 M1435.63 32.4315 Q1429.63 32.4315 1426.15 37.1306 Q1422.66 41.7891 1422.66 49.9314 Q1422.66 58.0738 1426.11 62.7728 Q1429.59 67.4314 1435.63 67.4314 Q1441.58 67.4314 1445.07 62.7323 Q1448.55 58.0333 1448.55 49.9314 Q1448.55 41.8701 1445.07 37.1711 Q1441.58 32.4315 1435.63 32.4315 M1435.63 26.1121 Q1445.35 26.1121 1450.9 32.4315 Q1456.45 38.7509 1456.45 49.9314 Q1456.45 61.0714 1450.9 67.4314 Q1445.35 73.7508 1435.63 73.7508 Q1425.86 73.7508 1420.31 67.4314 Q1414.81 61.0714 1414.81 49.9314 Q1414.81 38.7509 1420.31 32.4315 Q1425.86 26.1121 1435.63 26.1121 Z" fill="#000000" fill-rule="evenodd" fill-opacity="1" /><path clip-path="url(#clip280)" d="M 0 0 M1501.98 45.1919 L1501.98 72.576 L1494.53 72.576 L1494.53 45.4349 Q1494.53 38.994 1492.02 35.7938 Q1489.5 32.5936 1484.48 32.5936 Q1478.45 32.5936 1474.96 36.4419 Q1471.48 40.2903 1471.48 46.9338 L1471.48 72.576 L1463.98 72.576 L1463.98 27.2059 L1471.48 27.2059 L1471.48 34.2544 Q1474.15 30.163 1477.76 28.1376 Q1481.4 26.1121 1486.14 26.1121 Q1493.96 26.1121 1497.97 30.9732 Q1501.98 35.7938 1501.98 45.1919 Z" fill="#000000" fill-rule="evenodd" fill-opacity="1" /><path clip-path="url(#clip280)" d="M 0 0 M1562.46 34.1734 Q1561.21 33.4443 1559.71 33.1202 Q1558.25 32.7556 1556.47 32.7556 Q1550.15 32.7556 1546.74 36.8875 Q1543.38 40.9789 1543.38 48.6757 L1543.38 72.576 L1535.89 72.576 L1535.89 27.2059 L1543.38 27.2059 L1543.38 34.2544 Q1545.73 30.1225 1549.5 28.1376 Q1553.27 26.1121 1558.65 26.1121 Q1559.42 26.1121 1560.35 26.2337 Q1561.29 26.3147 1562.42 26.5172 L1562.46 34.1734 Z" fill="#000000" fill-rule="evenodd" fill-opacity="1" /><path clip-path="url(#clip280)" d="M 0 0 M1590.9 49.7694 Q1581.87 49.7694 1578.38 51.8354 Q1574.9 53.9013 1574.9 58.8839 Q1574.9 62.8538 1577.49 65.2034 Q1580.12 67.5124 1584.62 67.5124 Q1590.82 67.5124 1594.54 63.1374 Q1598.31 58.7219 1598.31 51.4303 L1598.31 49.7694 L1590.9 49.7694 M1605.77 46.6907 L1605.77 72.576 L1598.31 72.576 L1598.31 65.6895 Q1595.76 69.8214 1591.95 71.8063 Q1588.14 73.7508 1582.63 73.7508 Q1575.67 73.7508 1571.54 69.8619 Q1567.44 65.9325 1567.44 59.3701 Q1567.44 51.7138 1572.55 47.825 Q1577.69 43.9361 1587.86 43.9361 L1598.31 43.9361 L1598.31 43.2069 Q1598.31 38.0623 1594.91 35.2672 Q1591.55 32.4315 1585.43 32.4315 Q1581.54 32.4315 1577.85 33.3632 Q1574.17 34.295 1570.77 36.1584 L1570.77 29.2718 Q1574.86 27.692 1578.71 26.9223 Q1582.55 26.1121 1586.2 26.1121 Q1596.04 26.1121 1600.9 31.2163 Q1605.77 36.3204 1605.77 46.6907 Z" fill="#000000" fill-rule="evenodd" fill-opacity="1" /><path clip-path="url(#clip280)" d="M 0 0 M1620.96 14.324 L1620.96 27.2059 L1636.31 27.2059 L1636.31 32.9987 L1620.96 32.9987 L1620.96 57.6282 Q1620.96 63.1779 1622.46 64.7578 Q1623.99 66.3376 1628.65 66.3376 L1636.31 66.3376 L1636.31 72.576 L1628.65 72.576 Q1620.02 72.576 1616.74 69.3758 Q1613.46 66.1351 1613.46 57.6282 L1613.46 32.9987 L1607.99 32.9987 L1607.99 27.2059 L1613.46 27.2059 L1613.46 14.324 L1620.96 14.324 Z" fill="#000000" fill-rule="evenodd" fill-opacity="1" /><path clip-path="url(#clip280)" d="M 0 0 M1682.94 48.0275 L1682.94 51.6733 L1648.66 51.6733 Q1649.15 59.3701 1653.28 63.421 Q1657.45 67.4314 1664.87 67.4314 Q1669.16 67.4314 1673.17 66.3781 Q1677.22 65.3249 1681.19 63.2184 L1681.19 70.267 Q1677.18 71.9684 1672.97 72.8596 Q1668.76 73.7508 1664.42 73.7508 Q1653.57 73.7508 1647.21 67.4314 Q1640.89 61.1119 1640.89 50.3365 Q1640.89 39.1965 1646.88 32.6746 Q1652.92 26.1121 1663.13 26.1121 Q1672.28 26.1121 1677.59 32.0264 Q1682.94 37.9003 1682.94 48.0275 M1675.48 45.84 Q1675.4 39.7232 1672.04 36.0774 Q1668.72 32.4315 1663.21 32.4315 Q1656.97 32.4315 1653.2 35.9558 Q1649.47 39.4801 1648.91 45.8805 L1675.48 45.84 Z" fill="#000000" fill-rule="evenodd" fill-opacity="1" /><polyline clip-path="url(#clip282)" style="stroke:#009af9; stroke-width:4; stroke-opacity:1; fill:none" points="
  291.928,1386.4 474.328,1148.37 583.943,1005.32 676.621,884.375 777.295,752.996 870.108,631.876 969.613,502.023 1084.9,351.575 1136.13,284.725 1187.35,217.875 
  1209.81,188.564 1232.27,160.757 1254.73,175.143 1277.19,189.044 1326.17,217.799 1375.15,244.618 1424.41,269.851 1473.68,293.516 1582.62,341.023 1686.28,381.028 
  1794.06,418.21 1884.78,446.575 1995.55,478.12 2099.67,505.119 2266.49,543.882 2292.16,549.417 
  "/>
<circle clip-path="url(#clip282)" cx="1231.51" cy="160.256" r="14" fill="#e26f46" fill-rule="evenodd" fill-opacity="1" stroke="#000000" stroke-opacity="1" stroke-width="3.2"/>
<path clip-path="url(#clip280)" d="
M1341.91 803.566 L2281.38 803.566 L2281.38 682.606 L1341.91 682.606  Z
  " fill="#ffffff" fill-rule="evenodd" fill-opacity="1"/>
<polyline clip-path="url(#clip280)" style="stroke:#000000; stroke-width:4; stroke-opacity:1; fill:none" points="
  1341.91,803.566 2281.38,803.566 2281.38,682.606 1341.91,682.606 1341.91,803.566 
  "/>
<circle clip-path="url(#clip280)" cx="1437.07" cy="743.086" r="23" fill="#e26f46" fill-rule="evenodd" fill-opacity="1" stroke="#000000" stroke-opacity="1" stroke-width="5.12"/>
<path clip-path="url(#clip280)" d="M 0 0 M1536.52 756.477 L1536.52 770.227 L1532.23 770.227 L1532.23 734.44 L1536.52 734.44 L1536.52 738.375 Q1537.86 736.061 1539.89 734.949 Q1541.95 733.815 1544.8 733.815 Q1549.52 733.815 1552.46 737.565 Q1555.43 741.315 1555.43 747.426 Q1555.43 753.537 1552.46 757.287 Q1549.52 761.037 1544.8 761.037 Q1541.95 761.037 1539.89 759.926 Q1537.86 758.792 1536.52 756.477 M1551.01 747.426 Q1551.01 742.727 1549.06 740.065 Q1547.14 737.38 1543.76 737.38 Q1540.38 737.38 1538.44 740.065 Q1536.52 742.727 1536.52 747.426 Q1536.52 752.125 1538.44 754.81 Q1540.38 757.472 1543.76 757.472 Q1547.14 757.472 1549.06 754.81 Q1551.01 752.125 1551.01 747.426 Z" fill="#000000" fill-rule="evenodd" fill-opacity="1" /><path clip-path="url(#clip280)" d="M 0 0 M1569.94 737.426 Q1566.51 737.426 1564.52 740.111 Q1562.53 742.773 1562.53 747.426 Q1562.53 752.079 1564.5 754.764 Q1566.49 757.426 1569.94 757.426 Q1573.34 757.426 1575.33 754.741 Q1577.32 752.056 1577.32 747.426 Q1577.32 742.82 1575.33 740.135 Q1573.34 737.426 1569.94 737.426 M1569.94 733.815 Q1575.5 733.815 1578.67 737.426 Q1581.84 741.037 1581.84 747.426 Q1581.84 753.792 1578.67 757.426 Q1575.5 761.037 1569.94 761.037 Q1564.36 761.037 1561.19 757.426 Q1558.04 753.792 1558.04 747.426 Q1558.04 741.037 1561.19 737.426 Q1564.36 733.815 1569.94 733.815 Z" fill="#000000" fill-rule="evenodd" fill-opacity="1" /><path clip-path="url(#clip280)" d="M 0 0 M1596.35 737.426 Q1592.93 737.426 1590.94 740.111 Q1588.95 742.773 1588.95 747.426 Q1588.95 752.079 1590.91 754.764 Q1592.9 757.426 1596.35 757.426 Q1599.76 757.426 1601.75 754.741 Q1603.74 752.056 1603.74 747.426 Q1603.74 742.82 1601.75 740.135 Q1599.76 737.426 1596.35 737.426 M1596.35 733.815 Q1601.91 733.815 1605.08 737.426 Q1608.25 741.037 1608.25 747.426 Q1608.25 753.792 1605.08 757.426 Q1601.91 761.037 1596.35 761.037 Q1590.77 761.037 1587.6 757.426 Q1584.45 753.792 1584.45 747.426 Q1584.45 741.037 1587.6 737.426 Q1590.77 733.815 1596.35 733.815 Z" fill="#000000" fill-rule="evenodd" fill-opacity="1" /><path clip-path="url(#clip280)" d="M 0 0 M1612.72 724.348 L1616.98 724.348 L1616.98 760.366 L1612.72 760.366 L1612.72 724.348 Z" fill="#000000" fill-rule="evenodd" fill-opacity="1" /><path clip-path="url(#clip280)" d="M 0 0 M1653.57 747.102 Q1653.57 742.473 1651.65 739.926 Q1649.76 737.38 1646.31 737.38 Q1642.88 737.38 1640.96 739.926 Q1639.06 742.473 1639.06 747.102 Q1639.06 751.709 1640.96 754.255 Q1642.88 756.801 1646.31 756.801 Q1649.76 756.801 1651.65 754.255 Q1653.57 751.709 1653.57 747.102 M1657.83 757.148 Q1657.83 763.769 1654.89 766.986 Q1651.95 770.227 1645.89 770.227 Q1643.64 770.227 1641.65 769.88 Q1639.66 769.556 1637.79 768.861 L1637.79 764.718 Q1639.66 765.736 1641.49 766.222 Q1643.32 766.709 1645.22 766.709 Q1649.41 766.709 1651.49 764.509 Q1653.57 762.334 1653.57 757.912 L1653.57 755.806 Q1652.26 758.097 1650.19 759.232 Q1648.13 760.366 1645.26 760.366 Q1640.5 760.366 1637.58 756.732 Q1634.66 753.098 1634.66 747.102 Q1634.66 741.084 1637.58 737.449 Q1640.5 733.815 1645.26 733.815 Q1648.13 733.815 1650.19 734.949 Q1652.26 736.084 1653.57 738.375 L1653.57 734.44 L1657.83 734.44 L1657.83 757.148 Z" fill="#000000" fill-rule="evenodd" fill-opacity="1" /><path clip-path="url(#clip280)" d="M 0 0 M1677.32 738.422 Q1676.61 738.005 1675.75 737.82 Q1674.92 737.611 1673.9 737.611 Q1670.29 737.611 1668.34 739.973 Q1666.42 742.311 1666.42 746.709 L1666.42 760.366 L1662.14 760.366 L1662.14 734.44 L1666.42 734.44 L1666.42 738.468 Q1667.76 736.107 1669.92 734.973 Q1672.07 733.815 1675.15 733.815 Q1675.59 733.815 1676.12 733.885 Q1676.65 733.931 1677.3 734.047 L1677.32 738.422 Z" fill="#000000" fill-rule="evenodd" fill-opacity="1" /><path clip-path="url(#clip280)" d="M 0 0 M1690.8 737.426 Q1687.37 737.426 1685.38 740.111 Q1683.39 742.773 1683.39 747.426 Q1683.39 752.079 1685.36 754.764 Q1687.35 757.426 1690.8 757.426 Q1694.2 757.426 1696.19 754.741 Q1698.18 752.056 1698.18 747.426 Q1698.18 742.82 1696.19 740.135 Q1694.2 737.426 1690.8 737.426 M1690.8 733.815 Q1696.35 733.815 1699.52 737.426 Q1702.69 741.037 1702.69 747.426 Q1702.69 753.792 1699.52 757.426 Q1696.35 761.037 1690.8 761.037 Q1685.22 761.037 1682.05 757.426 Q1678.9 753.792 1678.9 747.426 Q1678.9 741.037 1682.05 737.426 Q1685.22 733.815 1690.8 733.815 Z" fill="#000000" fill-rule="evenodd" fill-opacity="1" /><path clip-path="url(#clip280)" d="M 0 0 M1704.69 734.44 L1708.94 734.44 L1714.27 754.672 L1719.57 734.44 L1724.59 734.44 L1729.92 754.672 L1735.22 734.44 L1739.48 734.44 L1732.69 760.366 L1727.67 760.366 L1722.09 739.116 L1716.49 760.366 L1711.47 760.366 L1704.69 734.44 Z" fill="#000000" fill-rule="evenodd" fill-opacity="1" /><path clip-path="url(#clip280)" d="M 0 0 M1748.16 727.079 L1748.16 734.44 L1756.93 734.44 L1756.93 737.75 L1748.16 737.75 L1748.16 751.824 Q1748.16 754.996 1749.01 755.898 Q1749.89 756.801 1752.56 756.801 L1756.93 756.801 L1756.93 760.366 L1752.56 760.366 Q1747.62 760.366 1745.75 758.537 Q1743.88 756.685 1743.88 751.824 L1743.88 737.75 L1740.75 737.75 L1740.75 734.44 L1743.88 734.44 L1743.88 727.079 L1748.16 727.079 Z" fill="#000000" fill-rule="evenodd" fill-opacity="1" /><path clip-path="url(#clip280)" d="M 0 0 M1782.95 744.718 L1782.95 760.366 L1778.69 760.366 L1778.69 744.857 Q1778.69 741.176 1777.25 739.348 Q1775.82 737.519 1772.95 737.519 Q1769.5 737.519 1767.51 739.718 Q1765.52 741.917 1765.52 745.713 L1765.52 760.366 L1761.24 760.366 L1761.24 724.348 L1765.52 724.348 L1765.52 738.468 Q1767.05 736.13 1769.11 734.973 Q1771.19 733.815 1773.9 733.815 Q1778.37 733.815 1780.66 736.593 Q1782.95 739.348 1782.95 744.718 Z" fill="#000000" fill-rule="evenodd" fill-opacity="1" /><path clip-path="url(#clip280)" d="M 0 0 M1821.14 735.436 L1821.14 739.417 Q1819.34 738.422 1817.51 737.936 Q1815.7 737.426 1813.85 737.426 Q1809.71 737.426 1807.42 740.065 Q1805.12 742.681 1805.12 747.426 Q1805.12 752.172 1807.42 754.81 Q1809.71 757.426 1813.85 757.426 Q1815.7 757.426 1817.51 756.94 Q1819.34 756.431 1821.14 755.435 L1821.14 759.371 Q1819.36 760.204 1817.44 760.621 Q1815.54 761.037 1813.39 761.037 Q1807.53 761.037 1804.08 757.357 Q1800.63 753.676 1800.63 747.426 Q1800.63 741.084 1804.11 737.449 Q1807.6 733.815 1813.67 733.815 Q1815.63 733.815 1817.51 734.232 Q1819.38 734.625 1821.14 735.436 Z" fill="#000000" fill-rule="evenodd" fill-opacity="1" /><path clip-path="url(#clip280)" d="M 0 0 M1835.66 737.426 Q1832.23 737.426 1830.24 740.111 Q1828.25 742.773 1828.25 747.426 Q1828.25 752.079 1830.22 754.764 Q1832.21 757.426 1835.66 757.426 Q1839.06 757.426 1841.05 754.741 Q1843.04 752.056 1843.04 747.426 Q1843.04 742.82 1841.05 740.135 Q1839.06 737.426 1835.66 737.426 M1835.66 733.815 Q1841.21 733.815 1844.38 737.426 Q1847.56 741.037 1847.56 747.426 Q1847.56 753.792 1844.38 757.426 Q1841.21 761.037 1835.66 761.037 Q1830.08 761.037 1826.91 757.426 Q1823.76 753.792 1823.76 747.426 Q1823.76 741.037 1826.91 737.426 Q1830.08 733.815 1835.66 733.815 Z" fill="#000000" fill-rule="evenodd" fill-opacity="1" /><path clip-path="url(#clip280)" d="M 0 0 M1873.57 744.718 L1873.57 760.366 L1869.31 760.366 L1869.31 744.857 Q1869.31 741.176 1867.88 739.348 Q1866.44 737.519 1863.57 737.519 Q1860.12 737.519 1858.13 739.718 Q1856.14 741.917 1856.14 745.713 L1856.14 760.366 L1851.86 760.366 L1851.86 734.44 L1856.14 734.44 L1856.14 738.468 Q1857.67 736.13 1859.73 734.973 Q1861.81 733.815 1864.52 733.815 Q1868.99 733.815 1871.28 736.593 Q1873.57 739.348 1873.57 744.718 Z" fill="#000000" fill-rule="evenodd" fill-opacity="1" /><path clip-path="url(#clip280)" d="M 0 0 M1894.57 735.204 L1894.57 739.232 Q1892.76 738.306 1890.82 737.843 Q1888.87 737.38 1886.79 737.38 Q1883.62 737.38 1882.02 738.352 Q1880.45 739.324 1880.45 741.269 Q1880.45 742.75 1881.58 743.607 Q1882.72 744.44 1886.14 745.204 L1887.6 745.528 Q1892.14 746.5 1894.04 748.283 Q1895.96 750.042 1895.96 753.213 Q1895.96 756.824 1893.09 758.931 Q1890.24 761.037 1885.24 761.037 Q1883.16 761.037 1880.89 760.621 Q1878.64 760.227 1876.14 759.417 L1876.14 755.019 Q1878.5 756.246 1880.8 756.871 Q1883.09 757.472 1885.33 757.472 Q1888.34 757.472 1889.96 756.454 Q1891.58 755.412 1891.58 753.537 Q1891.58 751.801 1890.4 750.875 Q1889.24 749.949 1885.29 749.093 L1883.8 748.746 Q1879.85 747.912 1878.09 746.199 Q1876.33 744.463 1876.33 741.454 Q1876.33 737.797 1878.92 735.806 Q1881.51 733.815 1886.28 733.815 Q1888.64 733.815 1890.73 734.162 Q1892.81 734.51 1894.57 735.204 Z" fill="#000000" fill-rule="evenodd" fill-opacity="1" /><path clip-path="url(#clip280)" d="M 0 0 M1904.64 727.079 L1904.64 734.44 L1913.41 734.44 L1913.41 737.75 L1904.64 737.75 L1904.64 751.824 Q1904.64 754.996 1905.49 755.898 Q1906.37 756.801 1909.04 756.801 L1913.41 756.801 L1913.41 760.366 L1909.04 760.366 Q1904.11 760.366 1902.23 758.537 Q1900.36 756.685 1900.36 751.824 L1900.36 737.75 L1897.23 737.75 L1897.23 734.44 L1900.36 734.44 L1900.36 727.079 L1904.64 727.079 Z" fill="#000000" fill-rule="evenodd" fill-opacity="1" /><path clip-path="url(#clip280)" d="M 0 0 M1932.9 738.422 Q1932.18 738.005 1931.33 737.82 Q1930.49 737.611 1929.48 737.611 Q1925.86 737.611 1923.92 739.973 Q1922 742.311 1922 746.709 L1922 760.366 L1917.72 760.366 L1917.72 734.44 L1922 734.44 L1922 738.468 Q1923.34 736.107 1925.49 734.973 Q1927.65 733.815 1930.73 733.815 Q1931.17 733.815 1931.7 733.885 Q1932.23 733.931 1932.88 734.047 L1932.9 738.422 Z" fill="#000000" fill-rule="evenodd" fill-opacity="1" /><path clip-path="url(#clip280)" d="M 0 0 M1949.15 747.334 Q1943.99 747.334 1942 748.514 Q1940.01 749.695 1940.01 752.542 Q1940.01 754.81 1941.49 756.153 Q1942.99 757.472 1945.56 757.472 Q1949.11 757.472 1951.24 754.972 Q1953.39 752.449 1953.39 748.283 L1953.39 747.334 L1949.15 747.334 M1957.65 745.574 L1957.65 760.366 L1953.39 760.366 L1953.39 756.431 Q1951.93 758.792 1949.75 759.926 Q1947.58 761.037 1944.43 761.037 Q1940.45 761.037 1938.09 758.815 Q1935.75 756.57 1935.75 752.82 Q1935.75 748.445 1938.67 746.223 Q1941.61 744 1947.42 744 L1953.39 744 L1953.39 743.584 Q1953.39 740.644 1951.44 739.047 Q1949.52 737.426 1946.03 737.426 Q1943.8 737.426 1941.7 737.959 Q1939.59 738.491 1937.65 739.556 L1937.65 735.621 Q1939.99 734.718 1942.18 734.278 Q1944.38 733.815 1946.47 733.815 Q1952.09 733.815 1954.87 736.732 Q1957.65 739.649 1957.65 745.574 Z" fill="#000000" fill-rule="evenodd" fill-opacity="1" /><path clip-path="url(#clip280)" d="M 0 0 M1962.11 734.44 L1966.37 734.44 L1966.37 760.366 L1962.11 760.366 L1962.11 734.44 M1962.11 724.348 L1966.37 724.348 L1966.37 729.741 L1962.11 729.741 L1962.11 724.348 Z" fill="#000000" fill-rule="evenodd" fill-opacity="1" /><path clip-path="url(#clip280)" d="M 0 0 M1992.39 744.718 L1992.39 760.366 L1988.13 760.366 L1988.13 744.857 Q1988.13 741.176 1986.7 739.348 Q1985.26 737.519 1982.39 737.519 Q1978.94 737.519 1976.95 739.718 Q1974.96 741.917 1974.96 745.713 L1974.96 760.366 L1970.68 760.366 L1970.68 734.44 L1974.96 734.44 L1974.96 738.468 Q1976.49 736.13 1978.55 734.973 Q1980.63 733.815 1983.34 733.815 Q1987.81 733.815 1990.1 736.593 Q1992.39 739.348 1992.39 744.718 Z" fill="#000000" fill-rule="evenodd" fill-opacity="1" /><path clip-path="url(#clip280)" d="M 0 0 M2019.04 746.338 L2019.04 748.422 L1999.45 748.422 Q1999.73 752.82 2002.09 755.135 Q2004.48 757.426 2008.71 757.426 Q2011.17 757.426 2013.46 756.824 Q2015.77 756.222 2018.04 755.019 L2018.04 759.047 Q2015.75 760.019 2013.34 760.528 Q2010.93 761.037 2008.46 761.037 Q2002.25 761.037 1998.62 757.426 Q1995.01 753.815 1995.01 747.658 Q1995.01 741.292 1998.43 737.565 Q2001.88 733.815 2007.72 733.815 Q2012.95 733.815 2015.98 737.195 Q2019.04 740.551 2019.04 746.338 M2014.78 745.088 Q2014.73 741.593 2012.81 739.51 Q2010.91 737.426 2007.76 737.426 Q2004.2 737.426 2002.04 739.44 Q1999.92 741.454 1999.59 745.111 L2014.78 745.088 Z" fill="#000000" fill-rule="evenodd" fill-opacity="1" /><path clip-path="url(#clip280)" d="M 0 0 M2040.56 738.375 L2040.56 724.348 L2044.82 724.348 L2044.82 760.366 L2040.56 760.366 L2040.56 756.477 Q2039.22 758.792 2037.16 759.926 Q2035.12 761.037 2032.25 761.037 Q2027.55 761.037 2024.59 757.287 Q2021.65 753.537 2021.65 747.426 Q2021.65 741.315 2024.59 737.565 Q2027.55 733.815 2032.25 733.815 Q2035.12 733.815 2037.16 734.949 Q2039.22 736.061 2040.56 738.375 M2026.05 747.426 Q2026.05 752.125 2027.97 754.81 Q2029.92 757.472 2033.29 757.472 Q2036.67 757.472 2038.62 754.81 Q2040.56 752.125 2040.56 747.426 Q2040.56 742.727 2038.62 740.065 Q2036.67 737.38 2033.29 737.38 Q2029.92 737.38 2027.97 740.065 Q2026.05 742.727 2026.05 747.426 Z" fill="#000000" fill-rule="evenodd" fill-opacity="1" /><path clip-path="url(#clip280)" d="M 0 0 M2082.97 747.426 Q2082.97 742.727 2081.03 740.065 Q2079.1 737.38 2075.73 737.38 Q2072.35 737.38 2070.4 740.065 Q2068.48 742.727 2068.48 747.426 Q2068.48 752.125 2070.4 754.81 Q2072.35 757.472 2075.73 757.472 Q2079.1 757.472 2081.03 754.81 Q2082.97 752.125 2082.97 747.426 M2068.48 738.375 Q2069.82 736.061 2071.86 734.949 Q2073.92 733.815 2076.77 733.815 Q2081.49 733.815 2084.43 737.565 Q2087.39 741.315 2087.39 747.426 Q2087.39 753.537 2084.43 757.287 Q2081.49 761.037 2076.77 761.037 Q2073.92 761.037 2071.86 759.926 Q2069.82 758.792 2068.48 756.477 L2068.48 760.366 L2064.2 760.366 L2064.2 724.348 L2068.48 724.348 L2068.48 738.375 Z" fill="#000000" fill-rule="evenodd" fill-opacity="1" /><path clip-path="url(#clip280)" d="M 0 0 M2102.65 762.773 Q2100.84 767.403 2099.13 768.815 Q2097.41 770.227 2094.54 770.227 L2091.14 770.227 L2091.14 766.662 L2093.64 766.662 Q2095.4 766.662 2096.37 765.829 Q2097.35 764.996 2098.53 761.894 L2099.29 759.949 L2088.8 734.44 L2093.32 734.44 L2101.42 754.718 L2109.52 734.44 L2114.04 734.44 L2102.65 762.773 Z" fill="#000000" fill-rule="evenodd" fill-opacity="1" /><path clip-path="url(#clip280)" d="M 0 0 M2150.63 738.375 L2150.63 724.348 L2154.89 724.348 L2154.89 760.366 L2150.63 760.366 L2150.63 756.477 Q2149.29 758.792 2147.23 759.926 Q2145.19 761.037 2142.32 761.037 Q2137.62 761.037 2134.66 757.287 Q2131.72 753.537 2131.72 747.426 Q2131.72 741.315 2134.66 737.565 Q2137.62 733.815 2142.32 733.815 Q2145.19 733.815 2147.23 734.949 Q2149.29 736.061 2150.63 738.375 M2136.12 747.426 Q2136.12 752.125 2138.04 754.81 Q2139.98 757.472 2143.36 757.472 Q2146.74 757.472 2148.69 754.81 Q2150.63 752.125 2150.63 747.426 Q2150.63 742.727 2148.69 740.065 Q2146.74 737.38 2143.36 737.38 Q2139.98 737.38 2138.04 740.065 Q2136.12 742.727 2136.12 747.426 Z" fill="#000000" fill-rule="evenodd" fill-opacity="1" /><path clip-path="url(#clip280)" d="M 0 0 M2170.15 762.773 Q2168.34 767.403 2166.63 768.815 Q2164.91 770.227 2162.04 770.227 L2158.64 770.227 L2158.64 766.662 L2161.14 766.662 Q2162.9 766.662 2163.87 765.829 Q2164.84 764.996 2166.03 761.894 L2166.79 759.949 L2156.3 734.44 L2160.82 734.44 L2168.92 754.718 L2177.02 734.44 L2181.53 734.44 L2170.15 762.773 Z" fill="#000000" fill-rule="evenodd" fill-opacity="1" /><path clip-path="url(#clip280)" d="M 0 0 M2185.84 724.348 L2190.12 724.348 L2190.12 745.621 L2202.83 734.44 L2208.27 734.44 L2194.52 746.57 L2208.85 760.366 L2203.29 760.366 L2190.12 747.704 L2190.12 760.366 L2185.84 760.366 L2185.84 724.348 Z" fill="#000000" fill-rule="evenodd" fill-opacity="1" /><path clip-path="url(#clip280)" d="M 0 0 M2233.8 746.338 L2233.8 748.422 L2214.22 748.422 Q2214.5 752.82 2216.86 755.135 Q2219.24 757.426 2223.48 757.426 Q2225.93 757.426 2228.22 756.824 Q2230.54 756.222 2232.81 755.019 L2232.81 759.047 Q2230.52 760.019 2228.11 760.528 Q2225.7 761.037 2223.22 761.037 Q2217.02 761.037 2213.39 757.426 Q2209.78 753.815 2209.78 747.658 Q2209.78 741.292 2213.2 737.565 Q2216.65 733.815 2222.48 733.815 Q2227.72 733.815 2230.75 737.195 Q2233.8 740.551 2233.8 746.338 M2229.54 745.088 Q2229.5 741.593 2227.58 739.51 Q2225.68 737.426 2222.53 737.426 Q2218.97 737.426 2216.81 739.44 Q2214.68 741.454 2214.36 745.111 L2229.54 745.088 Z" fill="#000000" fill-rule="evenodd" fill-opacity="1" /></svg>
