<?xml version="1.0" encoding="utf-8"?>
<svg xmlns="http://www.w3.org/2000/svg" xmlns:xlink="http://www.w3.org/1999/xlink" width="600" height="400" viewBox="0 0 2400 1600">
<defs>
  <clipPath id="clip160">
    <rect x="0" y="0" width="2400" height="1600"/>
  </clipPath>
</defs>
<path clip-path="url(#clip160)" d="
M0 1600 L2400 1600 L2400 0 L0 0  Z
  " fill="#ffffff" fill-rule="evenodd" fill-opacity="1"/>
<defs>
  <clipPath id="clip161">
    <rect x="480" y="0" width="1681" height="1600"/>
  </clipPath>
</defs>
<path clip-path="url(#clip160)" d="
M279.519 1423.18 L2352.76 1423.18 L2352.76 123.472 L279.519 123.472  Z
  " fill="#ffffff" fill-rule="evenodd" fill-opacity="1"/>
<defs>
  <clipPath id="clip162">
    <rect x="279" y="123" width="2074" height="1301"/>
  </clipPath>
</defs>
<polyline clip-path="url(#clip162)" style="stroke:#000000; stroke-width:2; stroke-opacity:0.1; fill:none" points="
  338.195,1423.18 338.195,123.472 
  "/>
<polyline clip-path="url(#clip162)" style="stroke:#000000; stroke-width:2; stroke-opacity:0.1; fill:none" points="
  664.176,1423.18 664.176,123.472 
  "/>
<polyline clip-path="url(#clip162)" style="stroke:#000000; stroke-width:2; stroke-opacity:0.1; fill:none" points="
  990.157,1423.18 990.157,123.472 
  "/>
<polyline clip-path="url(#clip162)" style="stroke:#000000; stroke-width:2; stroke-opacity:0.1; fill:none" points="
  1316.14,1423.18 1316.14,123.472 
  "/>
<polyline clip-path="url(#clip162)" style="stroke:#000000; stroke-width:2; stroke-opacity:0.1; fill:none" points="
  1642.12,1423.18 1642.12,123.472 
  "/>
<polyline clip-path="url(#clip162)" style="stroke:#000000; stroke-width:2; stroke-opacity:0.1; fill:none" points="
  1968.1,1423.18 1968.1,123.472 
  "/>
<polyline clip-path="url(#clip162)" style="stroke:#000000; stroke-width:2; stroke-opacity:0.1; fill:none" points="
  2294.08,1423.18 2294.08,123.472 
  "/>
<polyline clip-path="url(#clip160)" style="stroke:#000000; stroke-width:4; stroke-opacity:1; fill:none" points="
  279.519,1423.18 2352.76,1423.18 
  "/>
<polyline clip-path="url(#clip160)" style="stroke:#000000; stroke-width:4; stroke-opacity:1; fill:none" points="
  338.195,1423.18 338.195,1407.58 
  "/>
<polyline clip-path="url(#clip160)" style="stroke:#000000; stroke-width:4; stroke-opacity:1; fill:none" points="
  664.176,1423.18 664.176,1407.58 
  "/>
<polyline clip-path="url(#clip160)" style="stroke:#000000; stroke-width:4; stroke-opacity:1; fill:none" points="
  990.157,1423.18 990.157,1407.58 
  "/>
<polyline clip-path="url(#clip160)" style="stroke:#000000; stroke-width:4; stroke-opacity:1; fill:none" points="
  1316.14,1423.18 1316.14,1407.58 
  "/>
<polyline clip-path="url(#clip160)" style="stroke:#000000; stroke-width:4; stroke-opacity:1; fill:none" points="
  1642.12,1423.18 1642.12,1407.58 
  "/>
<polyline clip-path="url(#clip160)" style="stroke:#000000; stroke-width:4; stroke-opacity:1; fill:none" points="
  1968.1,1423.18 1968.1,1407.58 
  "/>
<polyline clip-path="url(#clip160)" style="stroke:#000000; stroke-width:4; stroke-opacity:1; fill:none" points="
  2294.08,1423.18 2294.08,1407.58 
  "/>
<path clip-path="url(#clip160)" d="M 0 0 M338.195 1452.37 Q334.584 1452.37 332.755 1455.94 Q330.95 1459.48 330.95 1466.61 Q330.95 1473.71 332.755 1477.28 Q334.584 1480.82 338.195 1480.82 Q341.829 1480.82 343.635 1477.28 Q345.464 1473.71 345.464 1466.61 Q345.464 1459.48 343.635 1455.94 Q341.829 1452.37 338.195 1452.37 M338.195 1448.67 Q344.005 1448.67 347.061 1453.27 Q350.14 1457.86 350.14 1466.61 Q350.14 1475.33 347.061 1479.94 Q344.005 1484.52 338.195 1484.52 Q332.385 1484.52 329.306 1479.94 Q326.251 1475.33 326.251 1466.61 Q326.251 1457.86 329.306 1453.27 Q332.385 1448.67 338.195 1448.67 Z" fill="#000000" fill-rule="evenodd" fill-opacity="1" /><path clip-path="url(#clip160)" d="M 0 0 M627.544 1479.92 L635.183 1479.92 L635.183 1453.55 L626.873 1455.22 L626.873 1450.96 L635.137 1449.29 L639.813 1449.29 L639.813 1479.92 L647.451 1479.92 L647.451 1483.85 L627.544 1483.85 L627.544 1479.92 Z" fill="#000000" fill-rule="evenodd" fill-opacity="1" /><path clip-path="url(#clip160)" d="M 0 0 M662.521 1452.37 Q658.91 1452.37 657.081 1455.94 Q655.276 1459.48 655.276 1466.61 Q655.276 1473.71 657.081 1477.28 Q658.91 1480.82 662.521 1480.82 Q666.155 1480.82 667.961 1477.28 Q669.789 1473.71 669.789 1466.61 Q669.789 1459.48 667.961 1455.94 Q666.155 1452.37 662.521 1452.37 M662.521 1448.67 Q668.331 1448.67 671.387 1453.27 Q674.465 1457.86 674.465 1466.61 Q674.465 1475.33 671.387 1479.94 Q668.331 1484.52 662.521 1484.52 Q656.711 1484.52 653.632 1479.94 Q650.576 1475.33 650.576 1466.61 Q650.576 1457.86 653.632 1453.27 Q656.711 1448.67 662.521 1448.67 Z" fill="#000000" fill-rule="evenodd" fill-opacity="1" /><path clip-path="url(#clip160)" d="M 0 0 M689.535 1452.37 Q685.924 1452.37 684.095 1455.94 Q682.289 1459.48 682.289 1466.61 Q682.289 1473.71 684.095 1477.28 Q685.924 1480.82 689.535 1480.82 Q693.169 1480.82 694.974 1477.28 Q696.803 1473.71 696.803 1466.61 Q696.803 1459.48 694.974 1455.94 Q693.169 1452.37 689.535 1452.37 M689.535 1448.67 Q695.345 1448.67 698.4 1453.27 Q701.479 1457.86 701.479 1466.61 Q701.479 1475.33 698.4 1479.94 Q695.345 1484.52 689.535 1484.52 Q683.724 1484.52 680.646 1479.94 Q677.59 1475.33 677.59 1466.61 Q677.59 1457.86 680.646 1453.27 Q683.724 1448.67 689.535 1448.67 Z" fill="#000000" fill-rule="evenodd" fill-opacity="1" /><path clip-path="url(#clip160)" d="M 0 0 M957.796 1479.92 L974.115 1479.92 L974.115 1483.85 L952.171 1483.85 L952.171 1479.92 Q954.833 1477.16 959.416 1472.53 Q964.023 1467.88 965.203 1466.54 Q967.448 1464.01 968.328 1462.28 Q969.231 1460.52 969.231 1458.83 Q969.231 1456.07 967.286 1454.34 Q965.365 1452.6 962.263 1452.6 Q960.064 1452.6 957.611 1453.37 Q955.18 1454.13 952.402 1455.68 L952.402 1450.96 Q955.226 1449.82 957.68 1449.25 Q960.134 1448.67 962.171 1448.67 Q967.541 1448.67 970.735 1451.35 Q973.93 1454.04 973.93 1458.53 Q973.93 1460.66 973.12 1462.58 Q972.333 1464.48 970.226 1467.07 Q969.647 1467.74 966.546 1470.96 Q963.444 1474.15 957.796 1479.92 Z" fill="#000000" fill-rule="evenodd" fill-opacity="1" /><path clip-path="url(#clip160)" d="M 0 0 M989.184 1452.37 Q985.573 1452.37 983.745 1455.94 Q981.939 1459.48 981.939 1466.61 Q981.939 1473.71 983.745 1477.28 Q985.573 1480.82 989.184 1480.82 Q992.819 1480.82 994.624 1477.28 Q996.453 1473.71 996.453 1466.61 Q996.453 1459.48 994.624 1455.94 Q992.819 1452.37 989.184 1452.37 M989.184 1448.67 Q994.995 1448.67 998.05 1453.27 Q1001.13 1457.86 1001.13 1466.61 Q1001.13 1475.33 998.05 1479.94 Q994.995 1484.52 989.184 1484.52 Q983.374 1484.52 980.296 1479.94 Q977.24 1475.33 977.24 1466.61 Q977.24 1457.86 980.296 1453.27 Q983.374 1448.67 989.184 1448.67 Z" fill="#000000" fill-rule="evenodd" fill-opacity="1" /><path clip-path="url(#clip160)" d="M 0 0 M1016.2 1452.37 Q1012.59 1452.37 1010.76 1455.94 Q1008.95 1459.48 1008.95 1466.61 Q1008.95 1473.71 1010.76 1477.28 Q1012.59 1480.82 1016.2 1480.82 Q1019.83 1480.82 1021.64 1477.28 Q1023.47 1473.71 1023.47 1466.61 Q1023.47 1459.48 1021.64 1455.94 Q1019.83 1452.37 1016.2 1452.37 M1016.2 1448.67 Q1022.01 1448.67 1025.06 1453.27 Q1028.14 1457.86 1028.14 1466.61 Q1028.14 1475.33 1025.06 1479.94 Q1022.01 1484.52 1016.2 1484.52 Q1010.39 1484.52 1007.31 1479.94 Q1004.25 1475.33 1004.25 1466.61 Q1004.25 1457.86 1007.31 1453.27 Q1010.39 1448.67 1016.2 1448.67 Z" fill="#000000" fill-rule="evenodd" fill-opacity="1" /><path clip-path="url(#clip160)" d="M 0 0 M1293.37 1465.22 Q1296.73 1465.94 1298.6 1468.2 Q1300.5 1470.47 1300.5 1473.81 Q1300.5 1478.92 1296.98 1481.72 Q1293.46 1484.52 1286.98 1484.52 Q1284.81 1484.52 1282.49 1484.08 Q1280.2 1483.67 1277.75 1482.81 L1277.75 1478.3 Q1279.69 1479.43 1282.01 1480.01 Q1284.32 1480.59 1286.84 1480.59 Q1291.24 1480.59 1293.53 1478.85 Q1295.85 1477.12 1295.85 1473.81 Q1295.85 1470.75 1293.7 1469.04 Q1291.57 1467.3 1287.75 1467.3 L1283.72 1467.3 L1283.72 1463.46 L1287.93 1463.46 Q1291.38 1463.46 1293.21 1462.09 Q1295.04 1460.7 1295.04 1458.11 Q1295.04 1455.45 1293.14 1454.04 Q1291.26 1452.6 1287.75 1452.6 Q1285.82 1452.6 1283.63 1453.02 Q1281.43 1453.44 1278.79 1454.31 L1278.79 1450.15 Q1281.45 1449.41 1283.76 1449.04 Q1286.1 1448.67 1288.16 1448.67 Q1293.49 1448.67 1296.59 1451.1 Q1299.69 1453.5 1299.69 1457.63 Q1299.69 1460.5 1298.05 1462.49 Q1296.4 1464.45 1293.37 1465.22 Z" fill="#000000" fill-rule="evenodd" fill-opacity="1" /><path clip-path="url(#clip160)" d="M 0 0 M1315.57 1452.37 Q1311.96 1452.37 1310.13 1455.94 Q1308.32 1459.48 1308.32 1466.61 Q1308.32 1473.71 1310.13 1477.28 Q1311.96 1480.82 1315.57 1480.82 Q1319.2 1480.82 1321.01 1477.28 Q1322.84 1473.71 1322.84 1466.61 Q1322.84 1459.48 1321.01 1455.94 Q1319.2 1452.37 1315.57 1452.37 M1315.57 1448.67 Q1321.38 1448.67 1324.44 1453.27 Q1327.51 1457.86 1327.51 1466.61 Q1327.51 1475.33 1324.44 1479.94 Q1321.38 1484.52 1315.57 1484.52 Q1309.76 1484.52 1306.68 1479.94 Q1303.63 1475.33 1303.63 1466.61 Q1303.63 1457.86 1306.68 1453.27 Q1309.76 1448.67 1315.57 1448.67 Z" fill="#000000" fill-rule="evenodd" fill-opacity="1" /><path clip-path="url(#clip160)" d="M 0 0 M1342.58 1452.37 Q1338.97 1452.37 1337.14 1455.94 Q1335.34 1459.48 1335.34 1466.61 Q1335.34 1473.71 1337.14 1477.28 Q1338.97 1480.82 1342.58 1480.82 Q1346.22 1480.82 1348.02 1477.28 Q1349.85 1473.71 1349.85 1466.61 Q1349.85 1459.48 1348.02 1455.94 Q1346.22 1452.37 1342.58 1452.37 M1342.58 1448.67 Q1348.39 1448.67 1351.45 1453.27 Q1354.53 1457.86 1354.53 1466.61 Q1354.53 1475.33 1351.45 1479.94 Q1348.39 1484.52 1342.58 1484.52 Q1336.77 1484.52 1333.7 1479.94 Q1330.64 1475.33 1330.64 1466.61 Q1330.64 1457.86 1333.7 1453.27 Q1336.77 1448.67 1342.58 1448.67 Z" fill="#000000" fill-rule="evenodd" fill-opacity="1" /><path clip-path="url(#clip160)" d="M 0 0 M1618.11 1453.37 L1606.31 1471.81 L1618.11 1471.81 L1618.11 1453.37 M1616.89 1449.29 L1622.77 1449.29 L1622.77 1471.81 L1627.7 1471.81 L1627.7 1475.7 L1622.77 1475.7 L1622.77 1483.85 L1618.11 1483.85 L1618.11 1475.7 L1602.51 1475.7 L1602.51 1471.19 L1616.89 1449.29 Z" fill="#000000" fill-rule="evenodd" fill-opacity="1" /><path clip-path="url(#clip160)" d="M 0 0 M1642.77 1452.37 Q1639.16 1452.37 1637.33 1455.94 Q1635.52 1459.48 1635.52 1466.61 Q1635.52 1473.71 1637.33 1477.28 Q1639.16 1480.82 1642.77 1480.82 Q1646.4 1480.82 1648.21 1477.28 Q1650.03 1473.71 1650.03 1466.61 Q1650.03 1459.48 1648.21 1455.94 Q1646.4 1452.37 1642.77 1452.37 M1642.77 1448.67 Q1648.58 1448.67 1651.63 1453.27 Q1654.71 1457.86 1654.71 1466.61 Q1654.71 1475.33 1651.63 1479.94 Q1648.58 1484.52 1642.77 1484.52 Q1636.96 1484.52 1633.88 1479.94 Q1630.82 1475.33 1630.82 1466.61 Q1630.82 1457.86 1633.88 1453.27 Q1636.96 1448.67 1642.77 1448.67 Z" fill="#000000" fill-rule="evenodd" fill-opacity="1" /><path clip-path="url(#clip160)" d="M 0 0 M1669.78 1452.37 Q1666.17 1452.37 1664.34 1455.94 Q1662.53 1459.48 1662.53 1466.61 Q1662.53 1473.71 1664.34 1477.28 Q1666.17 1480.82 1669.78 1480.82 Q1673.41 1480.82 1675.22 1477.28 Q1677.05 1473.71 1677.05 1466.61 Q1677.05 1459.48 1675.22 1455.94 Q1673.41 1452.37 1669.78 1452.37 M1669.78 1448.67 Q1675.59 1448.67 1678.65 1453.27 Q1681.72 1457.86 1681.72 1466.61 Q1681.72 1475.33 1678.65 1479.94 Q1675.59 1484.52 1669.78 1484.52 Q1663.97 1484.52 1660.89 1479.94 Q1657.84 1475.33 1657.84 1466.61 Q1657.84 1457.86 1660.89 1453.27 Q1663.97 1448.67 1669.78 1448.67 Z" fill="#000000" fill-rule="evenodd" fill-opacity="1" /><path clip-path="url(#clip160)" d="M 0 0 M1931.36 1449.29 L1949.72 1449.29 L1949.72 1453.23 L1935.65 1453.23 L1935.65 1461.7 Q1936.66 1461.35 1937.68 1461.19 Q1938.7 1461 1939.72 1461 Q1945.51 1461 1948.89 1464.18 Q1952.27 1467.35 1952.27 1472.76 Q1952.27 1478.34 1948.79 1481.44 Q1945.32 1484.52 1939 1484.52 Q1936.83 1484.52 1934.56 1484.15 Q1932.31 1483.78 1929.9 1483.04 L1929.9 1478.34 Q1931.99 1479.48 1934.21 1480.03 Q1936.43 1480.59 1938.91 1480.59 Q1942.91 1480.59 1945.25 1478.48 Q1947.59 1476.38 1947.59 1472.76 Q1947.59 1469.15 1945.25 1467.05 Q1942.91 1464.94 1938.91 1464.94 Q1937.03 1464.94 1935.16 1465.36 Q1933.31 1465.77 1931.36 1466.65 L1931.36 1449.29 Z" fill="#000000" fill-rule="evenodd" fill-opacity="1" /><path clip-path="url(#clip160)" d="M 0 0 M1967.33 1452.37 Q1963.72 1452.37 1961.9 1455.94 Q1960.09 1459.48 1960.09 1466.61 Q1960.09 1473.71 1961.9 1477.28 Q1963.72 1480.82 1967.33 1480.82 Q1970.97 1480.82 1972.77 1477.28 Q1974.6 1473.71 1974.6 1466.61 Q1974.6 1459.48 1972.77 1455.94 Q1970.97 1452.37 1967.33 1452.37 M1967.33 1448.67 Q1973.14 1448.67 1976.2 1453.27 Q1979.28 1457.86 1979.28 1466.61 Q1979.28 1475.33 1976.2 1479.94 Q1973.14 1484.52 1967.33 1484.52 Q1961.52 1484.52 1958.45 1479.94 Q1955.39 1475.33 1955.39 1466.61 Q1955.39 1457.86 1958.45 1453.27 Q1961.52 1448.67 1967.33 1448.67 Z" fill="#000000" fill-rule="evenodd" fill-opacity="1" /><path clip-path="url(#clip160)" d="M 0 0 M1994.35 1452.37 Q1990.74 1452.37 1988.91 1455.94 Q1987.1 1459.48 1987.1 1466.61 Q1987.1 1473.71 1988.91 1477.28 Q1990.74 1480.82 1994.35 1480.82 Q1997.98 1480.82 1999.79 1477.28 Q2001.62 1473.71 2001.62 1466.61 Q2001.62 1459.48 1999.79 1455.94 Q1997.98 1452.37 1994.35 1452.37 M1994.35 1448.67 Q2000.16 1448.67 2003.21 1453.27 Q2006.29 1457.86 2006.29 1466.61 Q2006.29 1475.33 2003.21 1479.94 Q2000.16 1484.52 1994.35 1484.52 Q1988.54 1484.52 1985.46 1479.94 Q1982.4 1475.33 1982.4 1466.61 Q1982.4 1457.86 1985.46 1453.27 Q1988.54 1448.67 1994.35 1448.67 Z" fill="#000000" fill-rule="evenodd" fill-opacity="1" /><path clip-path="url(#clip160)" d="M 0 0 M2267.47 1464.71 Q2264.32 1464.71 2262.47 1466.86 Q2260.64 1469.01 2260.64 1472.76 Q2260.64 1476.49 2262.47 1478.67 Q2264.32 1480.82 2267.47 1480.82 Q2270.62 1480.82 2272.45 1478.67 Q2274.3 1476.49 2274.3 1472.76 Q2274.3 1469.01 2272.45 1466.86 Q2270.62 1464.71 2267.47 1464.71 M2276.75 1450.06 L2276.75 1454.31 Q2274.99 1453.48 2273.19 1453.04 Q2271.41 1452.6 2269.65 1452.6 Q2265.02 1452.6 2262.56 1455.73 Q2260.13 1458.85 2259.79 1465.17 Q2261.15 1463.16 2263.21 1462.09 Q2265.27 1461 2267.75 1461 Q2272.96 1461 2275.97 1464.18 Q2279 1467.32 2279 1472.76 Q2279 1478.09 2275.85 1481.31 Q2272.7 1484.52 2267.47 1484.52 Q2261.48 1484.52 2258.3 1479.94 Q2255.13 1475.33 2255.13 1466.61 Q2255.13 1458.41 2259.02 1453.55 Q2262.91 1448.67 2269.46 1448.67 Q2271.22 1448.67 2273 1449.01 Q2274.81 1449.36 2276.75 1450.06 Z" fill="#000000" fill-rule="evenodd" fill-opacity="1" /><path clip-path="url(#clip160)" d="M 0 0 M2294.07 1452.37 Q2290.46 1452.37 2288.63 1455.94 Q2286.82 1459.48 2286.82 1466.61 Q2286.82 1473.71 2288.63 1477.28 Q2290.46 1480.82 2294.07 1480.82 Q2297.7 1480.82 2299.51 1477.28 Q2301.34 1473.71 2301.34 1466.61 Q2301.34 1459.48 2299.51 1455.94 Q2297.7 1452.37 2294.07 1452.37 M2294.07 1448.67 Q2299.88 1448.67 2302.93 1453.27 Q2306.01 1457.86 2306.01 1466.61 Q2306.01 1475.33 2302.93 1479.94 Q2299.88 1484.52 2294.07 1484.52 Q2288.26 1484.52 2285.18 1479.94 Q2282.12 1475.33 2282.12 1466.61 Q2282.12 1457.86 2285.18 1453.27 Q2288.26 1448.67 2294.07 1448.67 Z" fill="#000000" fill-rule="evenodd" fill-opacity="1" /><path clip-path="url(#clip160)" d="M 0 0 M2321.08 1452.37 Q2317.47 1452.37 2315.64 1455.94 Q2313.84 1459.48 2313.84 1466.61 Q2313.84 1473.71 2315.64 1477.28 Q2317.47 1480.82 2321.08 1480.82 Q2324.72 1480.82 2326.52 1477.28 Q2328.35 1473.71 2328.35 1466.61 Q2328.35 1459.48 2326.52 1455.94 Q2324.72 1452.37 2321.08 1452.37 M2321.08 1448.67 Q2326.89 1448.67 2329.95 1453.27 Q2333.03 1457.86 2333.03 1466.61 Q2333.03 1475.33 2329.95 1479.94 Q2326.89 1484.52 2321.08 1484.52 Q2315.27 1484.52 2312.19 1479.94 Q2309.14 1475.33 2309.14 1466.61 Q2309.14 1457.86 2312.19 1453.27 Q2315.27 1448.67 2321.08 1448.67 Z" fill="#000000" fill-rule="evenodd" fill-opacity="1" /><path clip-path="url(#clip160)" d="M 0 0 M1216.13 1510.27 L1216.13 1520.4 L1228.2 1520.4 L1228.2 1524.95 L1216.13 1524.95 L1216.13 1544.3 Q1216.13 1548.66 1217.31 1549.9 Q1218.52 1551.14 1222.18 1551.14 L1228.2 1551.14 L1228.2 1556.04 L1222.18 1556.04 Q1215.4 1556.04 1212.82 1553.53 Q1210.24 1550.98 1210.24 1544.3 L1210.24 1524.95 L1205.95 1524.95 L1205.95 1520.4 L1210.24 1520.4 L1210.24 1510.27 L1216.13 1510.27 Z" fill="#000000" fill-rule="evenodd" fill-opacity="1" /><path clip-path="url(#clip160)" d="M 0 0 M1234.34 1520.4 L1240.19 1520.4 L1240.19 1556.04 L1234.34 1556.04 L1234.34 1520.4 M1234.34 1506.52 L1240.19 1506.52 L1240.19 1513.93 L1234.34 1513.93 L1234.34 1506.52 Z" fill="#000000" fill-rule="evenodd" fill-opacity="1" /><path clip-path="url(#clip160)" d="M 0 0 M1274.09 1527.24 Q1276.29 1523.29 1279.34 1521.41 Q1282.4 1519.54 1286.54 1519.54 Q1292.11 1519.54 1295.13 1523.45 Q1298.15 1527.33 1298.15 1534.53 L1298.15 1556.04 L1292.27 1556.04 L1292.27 1534.72 Q1292.27 1529.59 1290.45 1527.11 Q1288.64 1524.63 1284.91 1524.63 Q1280.36 1524.63 1277.72 1527.65 Q1275.08 1530.68 1275.08 1535.9 L1275.08 1556.04 L1269.19 1556.04 L1269.19 1534.72 Q1269.19 1529.56 1267.38 1527.11 Q1265.56 1524.63 1261.77 1524.63 Q1257.29 1524.63 1254.64 1527.68 Q1252 1530.71 1252 1535.9 L1252 1556.04 L1246.11 1556.04 L1246.11 1520.4 L1252 1520.4 L1252 1525.93 Q1254.01 1522.66 1256.81 1521.1 Q1259.61 1519.54 1263.46 1519.54 Q1267.34 1519.54 1270.05 1521.51 Q1272.79 1523.48 1274.09 1527.24 Z" fill="#000000" fill-rule="evenodd" fill-opacity="1" /><path clip-path="url(#clip160)" d="M 0 0 M1334.79 1536.76 L1334.79 1539.62 L1307.86 1539.62 Q1308.24 1545.67 1311.49 1548.85 Q1314.77 1552 1320.59 1552 Q1323.97 1552 1327.12 1551.17 Q1330.3 1550.35 1333.42 1548.69 L1333.42 1554.23 Q1330.27 1555.57 1326.96 1556.27 Q1323.65 1556.97 1320.24 1556.97 Q1311.71 1556.97 1306.72 1552 Q1301.75 1547.04 1301.75 1538.57 Q1301.75 1529.82 1306.46 1524.69 Q1311.2 1519.54 1319.22 1519.54 Q1326.42 1519.54 1330.59 1524.18 Q1334.79 1528.8 1334.79 1536.76 M1328.93 1535.04 Q1328.87 1530.23 1326.23 1527.37 Q1323.62 1524.5 1319.29 1524.5 Q1314.39 1524.5 1311.43 1527.27 Q1308.5 1530.04 1308.05 1535.07 L1328.93 1535.04 Z" fill="#000000" fill-rule="evenodd" fill-opacity="1" /><path clip-path="url(#clip160)" d="M 0 0 M1375.72 1506.58 Q1371.46 1513.9 1369.39 1521.06 Q1367.32 1528.23 1367.32 1535.58 Q1367.32 1542.93 1369.39 1550.16 Q1371.49 1557.35 1375.72 1564.64 L1370.63 1564.64 Q1365.85 1557.16 1363.47 1549.93 Q1361.11 1542.71 1361.11 1535.58 Q1361.11 1528.48 1363.47 1521.29 Q1365.82 1514.09 1370.63 1506.58 L1375.72 1506.58 Z" fill="#000000" fill-rule="evenodd" fill-opacity="1" /><path clip-path="url(#clip160)" d="M 0 0 M1404.59 1521.45 L1404.59 1526.98 Q1402.11 1525.71 1399.43 1525.07 Q1396.76 1524.44 1393.89 1524.44 Q1389.53 1524.44 1387.34 1525.77 Q1385.17 1527.11 1385.17 1529.79 Q1385.17 1531.82 1386.73 1533 Q1388.29 1534.15 1393 1535.2 L1395.01 1535.64 Q1401.25 1536.98 1403.86 1539.43 Q1406.5 1541.85 1406.5 1546.21 Q1406.5 1551.17 1402.55 1554.07 Q1398.64 1556.97 1391.76 1556.97 Q1388.9 1556.97 1385.78 1556.39 Q1382.69 1555.85 1379.25 1554.74 L1379.25 1548.69 Q1382.5 1550.38 1385.65 1551.24 Q1388.8 1552.07 1391.89 1552.07 Q1396.03 1552.07 1398.25 1550.66 Q1400.48 1549.23 1400.48 1546.65 Q1400.48 1544.27 1398.86 1542.99 Q1397.27 1541.72 1391.83 1540.54 L1389.79 1540.07 Q1384.35 1538.92 1381.93 1536.56 Q1379.51 1534.18 1379.51 1530.04 Q1379.51 1525.01 1383.07 1522.27 Q1386.64 1519.54 1393.19 1519.54 Q1396.44 1519.54 1399.31 1520.01 Q1402.17 1520.49 1404.59 1521.45 Z" fill="#000000" fill-rule="evenodd" fill-opacity="1" /><path clip-path="url(#clip160)" d="M 0 0 M1411.72 1506.58 L1416.81 1506.58 Q1421.59 1514.09 1423.94 1521.29 Q1426.33 1528.48 1426.33 1535.58 Q1426.33 1542.71 1423.94 1549.93 Q1421.59 1557.16 1416.81 1564.64 L1411.72 1564.64 Q1415.95 1557.35 1418.02 1550.16 Q1420.12 1542.93 1420.12 1535.58 Q1420.12 1528.23 1418.02 1521.06 Q1415.95 1513.9 1411.72 1506.58 Z" fill="#000000" fill-rule="evenodd" fill-opacity="1" /><polyline clip-path="url(#clip162)" style="stroke:#000000; stroke-width:2; stroke-opacity:0.1; fill:none" points="
  279.519,1398.46 2352.76,1398.46 
  "/>
<polyline clip-path="url(#clip162)" style="stroke:#000000; stroke-width:2; stroke-opacity:0.1; fill:none" points="
  279.519,1008.32 2352.76,1008.32 
  "/>
<polyline clip-path="url(#clip162)" style="stroke:#000000; stroke-width:2; stroke-opacity:0.1; fill:none" points="
  279.519,618.174 2352.76,618.174 
  "/>
<polyline clip-path="url(#clip162)" style="stroke:#000000; stroke-width:2; stroke-opacity:0.1; fill:none" points="
  279.519,228.032 2352.76,228.032 
  "/>
<polyline clip-path="url(#clip160)" style="stroke:#000000; stroke-width:4; stroke-opacity:1; fill:none" points="
  279.519,1423.18 279.519,123.472 
  "/>
<polyline clip-path="url(#clip160)" style="stroke:#000000; stroke-width:4; stroke-opacity:1; fill:none" points="
  279.519,1398.46 304.398,1398.46 
  "/>
<polyline clip-path="url(#clip160)" style="stroke:#000000; stroke-width:4; stroke-opacity:1; fill:none" points="
  279.519,1008.32 304.398,1008.32 
  "/>
<polyline clip-path="url(#clip160)" style="stroke:#000000; stroke-width:4; stroke-opacity:1; fill:none" points="
  279.519,618.174 304.398,618.174 
  "/>
<polyline clip-path="url(#clip160)" style="stroke:#000000; stroke-width:4; stroke-opacity:1; fill:none" points="
  279.519,228.032 304.398,228.032 
  "/>
<path clip-path="url(#clip160)" d="M 0 0 M231.574 1384.26 Q227.963 1384.26 226.135 1387.82 Q224.329 1391.36 224.329 1398.49 Q224.329 1405.6 226.135 1409.16 Q227.963 1412.7 231.574 1412.7 Q235.209 1412.7 237.014 1409.16 Q238.843 1405.6 238.843 1398.49 Q238.843 1391.36 237.014 1387.82 Q235.209 1384.26 231.574 1384.26 M231.574 1380.55 Q237.384 1380.55 240.44 1385.16 Q243.519 1389.74 243.519 1398.49 Q243.519 1407.22 240.44 1411.82 Q237.384 1416.41 231.574 1416.41 Q225.764 1416.41 222.686 1411.82 Q219.63 1407.22 219.63 1398.49 Q219.63 1389.74 222.686 1385.16 Q225.764 1380.55 231.574 1380.55 Z" fill="#000000" fill-rule="evenodd" fill-opacity="1" /><path clip-path="url(#clip160)" d="M 0 0 M117.107 1028.11 L124.746 1028.11 L124.746 1001.74 L116.436 1003.41 L116.436 999.15 L124.7 997.483 L129.376 997.483 L129.376 1028.11 L137.015 1028.11 L137.015 1032.04 L117.107 1032.04 L117.107 1028.11 Z" fill="#000000" fill-rule="evenodd" fill-opacity="1" /><path clip-path="url(#clip160)" d="M 0 0 M170.255 1006.58 L159.677 1017.21 L170.255 1027.78 L167.501 1030.58 L156.876 1019.96 L146.251 1030.58 L143.519 1027.78 L154.075 1017.21 L143.519 1006.58 L146.251 1003.78 L156.876 1014.4 L167.501 1003.78 L170.255 1006.58 Z" fill="#000000" fill-rule="evenodd" fill-opacity="1" /><path clip-path="url(#clip160)" d="M 0 0 M176.135 1028.11 L183.774 1028.11 L183.774 1001.74 L175.464 1003.41 L175.464 999.15 L183.727 997.483 L188.403 997.483 L188.403 1028.11 L196.042 1028.11 L196.042 1032.04 L176.135 1032.04 L176.135 1028.11 Z" fill="#000000" fill-rule="evenodd" fill-opacity="1" /><path clip-path="url(#clip160)" d="M 0 0 M211.111 1000.56 Q207.5 1000.56 205.672 1004.13 Q203.866 1007.67 203.866 1014.8 Q203.866 1021.9 205.672 1025.47 Q207.5 1029.01 211.111 1029.01 Q214.746 1029.01 216.551 1025.47 Q218.38 1021.9 218.38 1014.8 Q218.38 1007.67 216.551 1004.13 Q214.746 1000.56 211.111 1000.56 M211.111 996.858 Q216.922 996.858 219.977 1001.46 Q223.056 1006.05 223.056 1014.8 Q223.056 1023.52 219.977 1028.13 Q216.922 1032.71 211.111 1032.71 Q205.301 1032.71 202.223 1028.13 Q199.167 1023.52 199.167 1014.8 Q199.167 1006.05 202.223 1001.46 Q205.301 996.858 211.111 996.858 Z" fill="#000000" fill-rule="evenodd" fill-opacity="1" /><path clip-path="url(#clip160)" d="M 0 0 M235.732 979.863 L226.14 994.853 L235.732 994.853 L235.732 979.863 M234.735 976.553 L239.513 976.553 L239.513 994.853 L243.519 994.853 L243.519 998.012 L239.513 998.012 L239.513 1004.63 L235.732 1004.63 L235.732 998.012 L223.056 998.012 L223.056 994.345 L234.735 976.553 Z" fill="#000000" fill-rule="evenodd" fill-opacity="1" /><path clip-path="url(#clip160)" d="M 0 0 M120.695 637.966 L137.015 637.966 L137.015 641.902 L115.07 641.902 L115.07 637.966 Q117.732 635.212 122.316 630.582 Q126.922 625.929 128.103 624.587 Q130.348 622.064 131.228 620.328 Q132.13 618.568 132.13 616.879 Q132.13 614.124 130.186 612.388 Q128.265 610.652 125.163 610.652 Q122.964 610.652 120.51 611.416 Q118.08 612.179 115.302 613.73 L115.302 609.008 Q118.126 607.874 120.58 607.295 Q123.033 606.717 125.07 606.717 Q130.441 606.717 133.635 609.402 Q136.829 612.087 136.829 616.578 Q136.829 618.707 136.019 620.628 Q135.232 622.527 133.126 625.119 Q132.547 625.79 129.445 629.008 Q126.343 632.203 120.695 637.966 Z" fill="#000000" fill-rule="evenodd" fill-opacity="1" /><path clip-path="url(#clip160)" d="M 0 0 M170.255 616.439 L159.677 627.064 L170.255 637.642 L167.501 640.443 L156.876 629.818 L146.251 640.443 L143.519 637.642 L154.075 627.064 L143.519 616.439 L146.251 613.638 L156.876 624.263 L167.501 613.638 L170.255 616.439 Z" fill="#000000" fill-rule="evenodd" fill-opacity="1" /><path clip-path="url(#clip160)" d="M 0 0 M176.135 637.966 L183.774 637.966 L183.774 611.601 L175.464 613.267 L175.464 609.008 L183.727 607.342 L188.403 607.342 L188.403 637.966 L196.042 637.966 L196.042 641.902 L176.135 641.902 L176.135 637.966 Z" fill="#000000" fill-rule="evenodd" fill-opacity="1" /><path clip-path="url(#clip160)" d="M 0 0 M211.111 610.42 Q207.5 610.42 205.672 613.985 Q203.866 617.527 203.866 624.656 Q203.866 631.763 205.672 635.327 Q207.5 638.869 211.111 638.869 Q214.746 638.869 216.551 635.327 Q218.38 631.763 218.38 624.656 Q218.38 617.527 216.551 613.985 Q214.746 610.42 211.111 610.42 M211.111 606.717 Q216.922 606.717 219.977 611.323 Q223.056 615.906 223.056 624.656 Q223.056 633.383 219.977 637.99 Q216.922 642.573 211.111 642.573 Q205.301 642.573 202.223 637.99 Q199.167 633.383 199.167 624.656 Q199.167 615.906 202.223 611.323 Q205.301 606.717 211.111 606.717 Z" fill="#000000" fill-rule="evenodd" fill-opacity="1" /><path clip-path="url(#clip160)" d="M 0 0 M235.732 589.721 L226.14 604.711 L235.732 604.711 L235.732 589.721 M234.735 586.411 L239.513 586.411 L239.513 604.711 L243.519 604.711 L243.519 607.871 L239.513 607.871 L239.513 614.491 L235.732 614.491 L235.732 607.871 L223.056 607.871 L223.056 604.203 L234.735 586.411 Z" fill="#000000" fill-rule="evenodd" fill-opacity="1" /><path clip-path="url(#clip160)" d="M 0 0 M129.885 233.126 Q133.242 233.843 135.117 236.112 Q137.015 238.38 137.015 241.714 Q137.015 246.829 133.496 249.63 Q129.978 252.431 123.496 252.431 Q121.32 252.431 119.006 251.991 Q116.714 251.575 114.26 250.718 L114.26 246.204 Q116.205 247.339 118.519 247.917 Q120.834 248.496 123.357 248.496 Q127.755 248.496 130.047 246.76 Q132.362 245.024 132.362 241.714 Q132.362 238.658 130.209 236.945 Q128.08 235.209 124.26 235.209 L120.232 235.209 L120.232 231.367 L124.445 231.367 Q127.894 231.367 129.723 230.001 Q131.552 228.612 131.552 226.019 Q131.552 223.357 129.654 221.945 Q127.779 220.51 124.26 220.51 Q122.339 220.51 120.14 220.927 Q117.941 221.343 115.302 222.223 L115.302 218.056 Q117.964 217.316 120.279 216.945 Q122.617 216.575 124.677 216.575 Q130.001 216.575 133.103 219.006 Q136.204 221.413 136.204 225.533 Q136.204 228.404 134.561 230.394 Q132.917 232.362 129.885 233.126 Z" fill="#000000" fill-rule="evenodd" fill-opacity="1" /><path clip-path="url(#clip160)" d="M 0 0 M170.255 226.297 L159.677 236.922 L170.255 247.501 L167.501 250.302 L156.876 239.677 L146.251 250.302 L143.519 247.501 L154.075 236.922 L143.519 226.297 L146.251 223.496 L156.876 234.121 L167.501 223.496 L170.255 226.297 Z" fill="#000000" fill-rule="evenodd" fill-opacity="1" /><path clip-path="url(#clip160)" d="M 0 0 M176.135 247.825 L183.774 247.825 L183.774 221.459 L175.464 223.126 L175.464 218.867 L183.727 217.2 L188.403 217.2 L188.403 247.825 L196.042 247.825 L196.042 251.76 L176.135 251.76 L176.135 247.825 Z" fill="#000000" fill-rule="evenodd" fill-opacity="1" /><path clip-path="url(#clip160)" d="M 0 0 M211.111 220.279 Q207.5 220.279 205.672 223.843 Q203.866 227.385 203.866 234.515 Q203.866 241.621 205.672 245.186 Q207.5 248.728 211.111 248.728 Q214.746 248.728 216.551 245.186 Q218.38 241.621 218.38 234.515 Q218.38 227.385 216.551 223.843 Q214.746 220.279 211.111 220.279 M211.111 216.575 Q216.922 216.575 219.977 221.181 Q223.056 225.765 223.056 234.515 Q223.056 243.242 219.977 247.848 Q216.922 252.431 211.111 252.431 Q205.301 252.431 202.223 247.848 Q199.167 243.242 199.167 234.515 Q199.167 225.765 202.223 221.181 Q205.301 216.575 211.111 216.575 Z" fill="#000000" fill-rule="evenodd" fill-opacity="1" /><path clip-path="url(#clip160)" d="M 0 0 M235.732 199.58 L226.14 214.57 L235.732 214.57 L235.732 199.58 M234.735 196.27 L239.513 196.27 L239.513 214.57 L243.519 214.57 L243.519 217.729 L239.513 217.729 L239.513 224.35 L235.732 224.35 L235.732 217.729 L223.056 217.729 L223.056 214.062 L234.735 196.27 Z" fill="#000000" fill-rule="evenodd" fill-opacity="1" /><path clip-path="url(#clip160)" d="M 0 0 M42.2347 1156.19 L52.3562 1156.19 L52.3562 1144.13 L56.9077 1144.13 L56.9077 1156.19 L76.2594 1156.19 Q80.6199 1156.19 81.8613 1155.01 Q83.1026 1153.8 83.1026 1150.14 L83.1026 1144.13 L88.0042 1144.13 L88.0042 1150.14 Q88.0042 1156.92 85.4897 1159.5 Q82.9434 1162.08 76.2594 1162.08 L56.9077 1162.08 L56.9077 1166.38 L52.3562 1166.38 L52.3562 1162.08 L42.2347 1162.08 L42.2347 1156.19 Z" fill="#000000" fill-rule="evenodd" fill-opacity="1" /><path clip-path="url(#clip160)" d="M 0 0 M56.4621 1124.17 Q56.4621 1128.88 60.1542 1131.62 Q63.8145 1134.36 70.212 1134.36 Q76.6095 1134.36 80.3017 1131.65 Q83.9619 1128.91 83.9619 1124.17 Q83.9619 1119.49 80.2698 1116.76 Q76.5777 1114.02 70.212 1114.02 Q63.8781 1114.02 60.186 1116.76 Q56.4621 1119.49 56.4621 1124.17 M51.4968 1124.17 Q51.4968 1116.53 56.4621 1112.17 Q61.4273 1107.81 70.212 1107.81 Q78.9649 1107.81 83.9619 1112.17 Q88.9272 1116.53 88.9272 1124.17 Q88.9272 1131.84 83.9619 1136.2 Q78.9649 1140.53 70.212 1140.53 Q61.4273 1140.53 56.4621 1136.2 Q51.4968 1131.84 51.4968 1124.17 Z" fill="#000000" fill-rule="evenodd" fill-opacity="1" /><path clip-path="url(#clip160)" d="M 0 0 M42.2347 1095.88 L52.3562 1095.88 L52.3562 1083.81 L56.9077 1083.81 L56.9077 1095.88 L76.2594 1095.88 Q80.6199 1095.88 81.8613 1094.7 Q83.1026 1093.49 83.1026 1089.83 L83.1026 1083.81 L88.0042 1083.81 L88.0042 1089.83 Q88.0042 1096.61 85.4897 1099.19 Q82.9434 1101.76 76.2594 1101.76 L56.9077 1101.76 L56.9077 1106.06 L52.3562 1106.06 L52.3562 1101.76 L42.2347 1101.76 L42.2347 1095.88 Z" fill="#000000" fill-rule="evenodd" fill-opacity="1" /><path clip-path="url(#clip160)" d="M 0 0 M70.0847 1061.47 Q70.0847 1068.57 71.7079 1071.3 Q73.3312 1074.04 77.2461 1074.04 Q80.3653 1074.04 82.2114 1072 Q84.0256 1069.94 84.0256 1066.4 Q84.0256 1061.53 80.5881 1058.61 Q77.1188 1055.65 71.3897 1055.65 L70.0847 1055.65 L70.0847 1061.47 M67.6657 1049.79 L88.0042 1049.79 L88.0042 1055.65 L82.5933 1055.65 Q85.8398 1057.65 87.3994 1060.64 Q88.9272 1063.63 88.9272 1067.96 Q88.9272 1073.44 85.8716 1076.68 Q82.7843 1079.9 77.6281 1079.9 Q71.6125 1079.9 68.5569 1075.89 Q65.5014 1071.85 65.5014 1063.86 L65.5014 1055.65 L64.9285 1055.65 Q60.8862 1055.65 58.6901 1058.32 Q56.4621 1060.96 56.4621 1065.77 Q56.4621 1068.82 57.1941 1071.72 Q57.9262 1074.61 59.3903 1077.29 L53.9795 1077.29 Q52.7381 1074.07 52.1334 1071.05 Q51.4968 1068.03 51.4968 1065.16 Q51.4968 1057.43 55.5072 1053.61 Q59.5176 1049.79 67.6657 1049.79 Z" fill="#000000" fill-rule="evenodd" fill-opacity="1" /><path clip-path="url(#clip160)" d="M 0 0 M38.479 1043.65 L38.479 1037.79 L88.0042 1037.79 L88.0042 1043.65 L38.479 1043.65 Z" fill="#000000" fill-rule="evenodd" fill-opacity="1" /><path clip-path="url(#clip160)" d="M 0 0 M70.0847 994.725 Q70.0847 1001.82 71.7079 1004.56 Q73.3312 1007.3 77.2461 1007.3 Q80.3653 1007.3 82.2114 1005.26 Q84.0256 1003.19 84.0256 999.659 Q84.0256 994.789 80.5881 991.861 Q77.1188 988.901 71.3897 988.901 L70.0847 988.901 L70.0847 994.725 M67.6657 983.044 L88.0042 983.044 L88.0042 988.901 L82.5933 988.901 Q85.8398 990.906 87.3994 993.898 Q88.9272 996.89 88.9272 1001.22 Q88.9272 1006.69 85.8716 1009.94 Q82.7843 1013.15 77.6281 1013.15 Q71.6125 1013.15 68.5569 1009.14 Q65.5014 1005.1 65.5014 997.112 L65.5014 988.901 L64.9285 988.901 Q60.8862 988.901 58.6901 991.574 Q56.4621 994.216 56.4621 999.022 Q56.4621 1002.08 57.1941 1004.97 Q57.9262 1007.87 59.3903 1010.54 L53.9795 1010.54 Q52.7381 1007.33 52.1334 1004.31 Q51.4968 1001.28 51.4968 998.417 Q51.4968 990.683 55.5072 986.864 Q59.5176 983.044 67.6657 983.044 Z" fill="#000000" fill-rule="evenodd" fill-opacity="1" /><path clip-path="url(#clip160)" d="M 0 0 M52.3562 976.901 L52.3562 971.045 L88.0042 971.045 L88.0042 976.901 L52.3562 976.901 M38.479 976.901 L38.479 971.045 L45.895 971.045 L45.895 976.901 L38.479 976.901 Z" fill="#000000" fill-rule="evenodd" fill-opacity="1" /><path clip-path="url(#clip160)" d="M 0 0 M57.8307 944.245 Q57.2578 945.232 57.0032 946.41 Q56.7167 947.555 56.7167 948.956 Q56.7167 953.921 59.9632 956.595 Q63.1779 959.236 69.2253 959.236 L88.0042 959.236 L88.0042 965.125 L52.3562 965.125 L52.3562 959.236 L57.8944 959.236 Q54.6479 957.39 53.0883 954.43 Q51.4968 951.47 51.4968 947.237 Q51.4968 946.632 51.5923 945.9 Q51.656 945.168 51.8151 944.277 L57.8307 944.245 Z" fill="#000000" fill-rule="evenodd" fill-opacity="1" /><path clip-path="url(#clip160)" d="M 0 0 M70.212 912.512 Q63.7508 912.512 60.0905 915.186 Q56.3984 917.828 56.3984 922.474 Q56.3984 927.121 60.0905 929.795 Q63.7508 932.437 70.212 932.437 Q76.6732 932.437 80.3653 929.795 Q84.0256 927.121 84.0256 922.474 Q84.0256 917.828 80.3653 915.186 Q76.6732 912.512 70.212 912.512 M57.7671 932.437 Q54.5842 930.591 53.0564 927.79 Q51.4968 924.957 51.4968 921.042 Q51.4968 914.549 56.6531 910.507 Q61.8093 906.433 70.212 906.433 Q78.6147 906.433 83.771 910.507 Q88.9272 914.549 88.9272 921.042 Q88.9272 924.957 87.3994 927.79 Q85.8398 930.591 82.657 932.437 L88.0042 932.437 L88.0042 938.325 L38.479 938.325 L38.479 932.437 L57.7671 932.437 Z" fill="#000000" fill-rule="evenodd" fill-opacity="1" /><path clip-path="url(#clip160)" d="M 0 0 M56.4621 886.476 Q56.4621 891.187 60.1542 893.924 Q63.8145 896.662 70.212 896.662 Q76.6095 896.662 80.3017 893.956 Q83.9619 891.219 83.9619 886.476 Q83.9619 881.798 80.2698 879.06 Q76.5777 876.323 70.212 876.323 Q63.8781 876.323 60.186 879.06 Q56.4621 881.798 56.4621 886.476 M51.4968 886.476 Q51.4968 878.838 56.4621 874.477 Q61.4273 870.117 70.212 870.117 Q78.9649 870.117 83.9619 874.477 Q88.9272 878.838 88.9272 886.476 Q88.9272 894.147 83.9619 898.508 Q78.9649 902.836 70.212 902.836 Q61.4273 902.836 56.4621 898.508 Q51.4968 894.147 51.4968 886.476 Z" fill="#000000" fill-rule="evenodd" fill-opacity="1" /><path clip-path="url(#clip160)" d="M 0 0 M57.8307 843.317 Q57.2578 844.304 57.0032 845.481 Q56.7167 846.627 56.7167 848.028 Q56.7167 852.993 59.9632 855.666 Q63.1779 858.308 69.2253 858.308 L88.0042 858.308 L88.0042 864.196 L52.3562 864.196 L52.3562 858.308 L57.8944 858.308 Q54.6479 856.462 53.0883 853.502 Q51.4968 850.542 51.4968 846.309 Q51.4968 845.704 51.5923 844.972 Q51.656 844.24 51.8151 843.349 L57.8307 843.317 Z" fill="#000000" fill-rule="evenodd" fill-opacity="1" /><path clip-path="url(#clip160)" d="M 0 0 M66.4881 808.687 L88.0042 808.687 L88.0042 814.544 L66.679 814.544 Q61.6183 814.544 59.1038 816.517 Q56.5894 818.491 56.5894 822.437 Q56.5894 827.18 59.6131 829.917 Q62.6368 832.654 67.8567 832.654 L88.0042 832.654 L88.0042 838.543 L52.3562 838.543 L52.3562 832.654 L57.8944 832.654 Q54.6797 830.554 53.0883 827.721 Q51.4968 824.856 51.4968 821.132 Q51.4968 814.99 55.3163 811.839 Q59.1038 808.687 66.4881 808.687 Z" fill="#000000" fill-rule="evenodd" fill-opacity="1" /><path clip-path="url(#clip160)" d="M 0 0 M68.7161 772.053 L71.5806 772.053 L71.5806 798.98 Q77.6281 798.598 80.8109 795.351 Q83.9619 792.073 83.9619 786.248 Q83.9619 782.875 83.1344 779.724 Q82.3069 776.541 80.6518 773.421 L86.1899 773.421 Q87.5267 776.572 88.227 779.883 Q88.9272 783.193 88.9272 786.598 Q88.9272 795.129 83.9619 800.126 Q78.9967 805.091 70.5303 805.091 Q61.7774 805.091 56.6531 800.38 Q51.4968 795.638 51.4968 787.617 Q51.4968 780.424 56.1438 776.254 Q60.7589 772.053 68.7161 772.053 M66.9973 777.909 Q62.1912 777.973 59.3266 780.615 Q56.4621 783.225 56.4621 787.553 Q56.4621 792.455 59.2312 795.415 Q62.0002 798.343 67.0292 798.789 L66.9973 777.909 Z" fill="#000000" fill-rule="evenodd" fill-opacity="1" /><path clip-path="url(#clip160)" d="M 0 0 M70.212 741.688 Q76.6732 741.688 80.3653 739.047 Q84.0256 736.373 84.0256 731.726 Q84.0256 727.079 80.3653 724.406 Q76.6732 721.732 70.212 721.732 Q63.7508 721.732 60.0905 724.406 Q56.3984 727.079 56.3984 731.726 Q56.3984 736.373 60.0905 739.047 Q63.7508 741.688 70.212 741.688 M82.657 721.732 Q85.8398 723.578 87.3994 726.411 Q88.9272 729.212 88.9272 733.158 Q88.9272 739.62 83.771 743.694 Q78.6147 747.736 70.212 747.736 Q61.8093 747.736 56.6531 743.694 Q51.4968 739.62 51.4968 733.158 Q51.4968 729.212 53.0564 726.411 Q54.5842 723.578 57.7671 721.732 L52.3562 721.732 L52.3562 715.875 L101.563 715.875 L101.563 721.732 L82.657 721.732 Z" fill="#000000" fill-rule="evenodd" fill-opacity="1" /><path clip-path="url(#clip160)" d="M 0 0 M73.9359 710.337 L52.3562 710.337 L52.3562 704.481 L73.7131 704.481 Q78.7739 704.481 81.3202 702.507 Q83.8346 700.534 83.8346 696.587 Q83.8346 691.845 80.8109 689.108 Q77.7872 686.339 72.5673 686.339 L52.3562 686.339 L52.3562 680.482 L88.0042 680.482 L88.0042 686.339 L82.5296 686.339 Q85.7762 688.471 87.3676 691.304 Q88.9272 694.105 88.9272 697.829 Q88.9272 703.972 85.1078 707.154 Q81.2883 710.337 73.9359 710.337 M51.4968 695.601 L51.4968 695.601 Z" fill="#000000" fill-rule="evenodd" fill-opacity="1" /><path clip-path="url(#clip160)" d="M 0 0 M70.0847 658.139 Q70.0847 665.236 71.7079 667.974 Q73.3312 670.711 77.2461 670.711 Q80.3653 670.711 82.2114 668.674 Q84.0256 666.605 84.0256 663.072 Q84.0256 658.202 80.5881 655.274 Q77.1188 652.314 71.3897 652.314 L70.0847 652.314 L70.0847 658.139 M67.6657 646.457 L88.0042 646.457 L88.0042 652.314 L82.5933 652.314 Q85.8398 654.319 87.3994 657.311 Q88.9272 660.303 88.9272 664.632 Q88.9272 670.106 85.8716 673.353 Q82.7843 676.567 77.6281 676.567 Q71.6125 676.567 68.5569 672.557 Q65.5014 668.515 65.5014 660.526 L65.5014 652.314 L64.9285 652.314 Q60.8862 652.314 58.6901 654.987 Q56.4621 657.629 56.4621 662.435 Q56.4621 665.491 57.1941 668.387 Q57.9262 671.284 59.3903 673.957 L53.9795 673.957 Q52.7381 670.743 52.1334 667.719 Q51.4968 664.695 51.4968 661.831 Q51.4968 654.096 55.5072 650.277 Q59.5176 646.457 67.6657 646.457 Z" fill="#000000" fill-rule="evenodd" fill-opacity="1" /><path clip-path="url(#clip160)" d="M 0 0 M66.4881 610.682 L88.0042 610.682 L88.0042 616.539 L66.679 616.539 Q61.6183 616.539 59.1038 618.512 Q56.5894 620.485 56.5894 624.432 Q56.5894 629.175 59.6131 631.912 Q62.6368 634.649 67.8567 634.649 L88.0042 634.649 L88.0042 640.537 L52.3562 640.537 L52.3562 634.649 L57.8944 634.649 Q54.6797 632.548 53.0883 629.716 Q51.4968 626.851 51.4968 623.127 Q51.4968 616.984 55.3163 613.833 Q59.1038 610.682 66.4881 610.682 Z" fill="#000000" fill-rule="evenodd" fill-opacity="1" /><path clip-path="url(#clip160)" d="M 0 0 M42.2347 598.746 L52.3562 598.746 L52.3562 586.683 L56.9077 586.683 L56.9077 598.746 L76.2594 598.746 Q80.6199 598.746 81.8613 597.569 Q83.1026 596.359 83.1026 592.699 L83.1026 586.683 L88.0042 586.683 L88.0042 592.699 Q88.0042 599.479 85.4897 602.057 Q82.9434 604.635 76.2594 604.635 L56.9077 604.635 L56.9077 608.932 L52.3562 608.932 L52.3562 604.635 L42.2347 604.635 L42.2347 598.746 Z" fill="#000000" fill-rule="evenodd" fill-opacity="1" /><path clip-path="url(#clip160)" d="M 0 0 M52.3562 580.541 L52.3562 574.684 L88.0042 574.684 L88.0042 580.541 L52.3562 580.541 M38.479 580.541 L38.479 574.684 L45.895 574.684 L45.895 580.541 L38.479 580.541 Z" fill="#000000" fill-rule="evenodd" fill-opacity="1" /><path clip-path="url(#clip160)" d="M 0 0 M42.2347 562.748 L52.3562 562.748 L52.3562 550.685 L56.9077 550.685 L56.9077 562.748 L76.2594 562.748 Q80.6199 562.748 81.8613 561.571 Q83.1026 560.361 83.1026 556.701 L83.1026 550.685 L88.0042 550.685 L88.0042 556.701 Q88.0042 563.48 85.4897 566.059 Q82.9434 568.637 76.2594 568.637 L56.9077 568.637 L56.9077 572.934 L52.3562 572.934 L52.3562 568.637 L42.2347 568.637 L42.2347 562.748 Z" fill="#000000" fill-rule="evenodd" fill-opacity="1" /><path clip-path="url(#clip160)" d="M 0 0 M91.3143 529.71 Q97.68 532.193 99.6216 534.548 Q101.563 536.904 101.563 540.85 L101.563 545.529 L96.6615 545.529 L96.6615 542.092 Q96.6615 539.673 95.5157 538.336 Q94.3699 536.999 90.1048 535.376 L87.4312 534.326 L52.3562 548.744 L52.3562 542.537 L80.238 531.397 L52.3562 520.257 L52.3562 514.051 L91.3143 529.71 Z" fill="#000000" fill-rule="evenodd" fill-opacity="1" /><path clip-path="url(#clip160)" d="M 0 0 M38.5426 473.119 Q45.8632 477.384 53.0246 479.453 Q60.186 481.522 67.5384 481.522 Q74.8908 481.522 82.1159 479.453 Q89.3091 477.352 96.5979 473.119 L96.5979 478.212 Q89.1182 482.986 81.8931 485.373 Q74.668 487.729 67.5384 487.729 Q60.4406 487.729 53.2474 485.373 Q46.0542 483.018 38.5426 478.212 L38.5426 473.119 Z" fill="#000000" fill-rule="evenodd" fill-opacity="1" /><path clip-path="url(#clip160)" d="M 0 0 M38.479 467.199 L38.479 461.311 L67.7294 461.311 L52.3562 443.837 L52.3562 436.357 L69.0344 455.263 L88.0042 435.562 L88.0042 443.2 L70.5939 461.311 L88.0042 461.311 L88.0042 467.199 L38.479 467.199 Z" fill="#000000" fill-rule="evenodd" fill-opacity="1" /><path clip-path="url(#clip160)" d="M 0 0 M69.7664 405.961 Q63.4007 405.961 59.8996 408.603 Q56.3984 411.213 56.3984 415.955 Q56.3984 420.666 59.8996 423.308 Q63.4007 425.918 69.7664 425.918 Q76.1003 425.918 79.6014 423.308 Q83.1026 420.666 83.1026 415.955 Q83.1026 411.213 79.6014 408.603 Q76.1003 405.961 69.7664 405.961 M83.58 400.105 Q92.683 400.105 97.1071 404.147 Q101.563 408.189 101.563 416.528 Q101.563 419.615 101.086 422.353 Q100.64 425.09 99.6852 427.668 L93.9879 427.668 Q95.3884 425.09 96.0568 422.576 Q96.7252 420.061 96.7252 417.451 Q96.7252 411.69 93.7015 408.826 Q90.7096 405.961 84.6303 405.961 L81.7339 405.961 Q84.885 407.775 86.4446 410.608 Q88.0042 413.441 88.0042 417.387 Q88.0042 423.944 83.0071 427.955 Q78.01 431.965 69.7664 431.965 Q61.491 431.965 56.4939 427.955 Q51.4968 423.944 51.4968 417.387 Q51.4968 413.441 53.0564 410.608 Q54.616 407.775 57.7671 405.961 L52.3562 405.961 L52.3562 400.105 L83.58 400.105 Z" fill="#000000" fill-rule="evenodd" fill-opacity="1" /><path clip-path="url(#clip160)" d="M 0 0 M38.5426 394.885 L38.5426 389.792 Q46.0542 385.018 53.2474 382.663 Q60.4406 380.275 67.5384 380.275 Q74.668 380.275 81.8931 382.663 Q89.1182 385.018 96.5979 389.792 L96.5979 394.885 Q89.3091 390.652 82.1159 388.583 Q74.8908 386.482 67.5384 386.482 Q60.186 386.482 53.0246 388.583 Q45.8632 390.652 38.5426 394.885 Z" fill="#000000" fill-rule="evenodd" fill-opacity="1" /><path clip-path="url(#clip160)" d="M 0 0 M913.984 14.324 L913.984 27.2059 L929.337 27.2059 L929.337 32.9987 L913.984 32.9987 L913.984 57.6282 Q913.984 63.1779 915.483 64.7578 Q917.022 66.3376 921.681 66.3376 L929.337 66.3376 L929.337 72.576 L921.681 72.576 Q913.052 72.576 909.771 69.3758 Q906.49 66.1351 906.49 57.6282 L906.49 32.9987 L901.021 32.9987 L901.021 27.2059 L906.49 27.2059 L906.49 14.324 L913.984 14.324 Z" fill="#000000" fill-rule="evenodd" fill-opacity="1" /><path clip-path="url(#clip160)" d="M 0 0 M954.736 32.4315 Q948.741 32.4315 945.257 37.1306 Q941.773 41.7891 941.773 49.9314 Q941.773 58.0738 945.216 62.7728 Q948.7 67.4314 954.736 67.4314 Q960.691 67.4314 964.175 62.7323 Q967.658 58.0333 967.658 49.9314 Q967.658 41.8701 964.175 37.1711 Q960.691 32.4315 954.736 32.4315 M954.736 26.1121 Q964.458 26.1121 970.008 32.4315 Q975.558 38.7509 975.558 49.9314 Q975.558 61.0714 970.008 67.4314 Q964.458 73.7508 954.736 73.7508 Q944.973 73.7508 939.423 67.4314 Q933.914 61.0714 933.914 49.9314 Q933.914 38.7509 939.423 32.4315 Q944.973 26.1121 954.736 26.1121 Z" fill="#000000" fill-rule="evenodd" fill-opacity="1" /><path clip-path="url(#clip160)" d="M 0 0 M990.748 14.324 L990.748 27.2059 L1006.1 27.2059 L1006.1 32.9987 L990.748 32.9987 L990.748 57.6282 Q990.748 63.1779 992.247 64.7578 Q993.787 66.3376 998.445 66.3376 L1006.1 66.3376 L1006.1 72.576 L998.445 72.576 Q989.817 72.576 986.535 69.3758 Q983.254 66.1351 983.254 57.6282 L983.254 32.9987 L977.786 32.9987 L977.786 27.2059 L983.254 27.2059 L983.254 14.324 L990.748 14.324 Z" fill="#000000" fill-rule="evenodd" fill-opacity="1" /><path clip-path="url(#clip160)" d="M 0 0 M1034.54 49.7694 Q1025.51 49.7694 1022.02 51.8354 Q1018.54 53.9013 1018.54 58.8839 Q1018.54 62.8538 1021.13 65.2034 Q1023.76 67.5124 1028.26 67.5124 Q1034.46 67.5124 1038.18 63.1374 Q1041.95 58.7219 1041.95 51.4303 L1041.95 49.7694 L1034.54 49.7694 M1049.41 46.6907 L1049.41 72.576 L1041.95 72.576 L1041.95 65.6895 Q1039.4 69.8214 1035.59 71.8063 Q1031.78 73.7508 1026.27 73.7508 Q1019.31 73.7508 1015.18 69.8619 Q1011.08 65.9325 1011.08 59.3701 Q1011.08 51.7138 1016.19 47.825 Q1021.33 43.9361 1031.5 43.9361 L1041.95 43.9361 L1041.95 43.2069 Q1041.95 38.0623 1038.55 35.2672 Q1035.19 32.4315 1029.07 32.4315 Q1025.18 32.4315 1021.49 33.3632 Q1017.81 34.295 1014.41 36.1584 L1014.41 29.2718 Q1018.5 27.692 1022.35 26.9223 Q1026.19 26.1121 1029.84 26.1121 Q1039.68 26.1121 1044.54 31.2163 Q1049.41 36.3204 1049.41 46.6907 Z" fill="#000000" fill-rule="evenodd" fill-opacity="1" /><path clip-path="url(#clip160)" d="M 0 0 M1057.22 9.54393 L1064.68 9.54393 L1064.68 72.576 L1057.22 72.576 L1057.22 9.54393 Z" fill="#000000" fill-rule="evenodd" fill-opacity="1" /><path clip-path="url(#clip160)" d="M 0 0 M1119.49 49.7694 Q1110.45 49.7694 1106.97 51.8354 Q1103.49 53.9013 1103.49 58.8839 Q1103.49 62.8538 1106.08 65.2034 Q1108.71 67.5124 1113.21 67.5124 Q1119.41 67.5124 1123.13 63.1374 Q1126.9 58.7219 1126.9 51.4303 L1126.9 49.7694 L1119.49 49.7694 M1134.35 46.6907 L1134.35 72.576 L1126.9 72.576 L1126.9 65.6895 Q1124.35 69.8214 1120.54 71.8063 Q1116.73 73.7508 1111.22 73.7508 Q1104.25 73.7508 1100.12 69.8619 Q1096.03 65.9325 1096.03 59.3701 Q1096.03 51.7138 1101.14 47.825 Q1106.28 43.9361 1116.45 43.9361 L1126.9 43.9361 L1126.9 43.2069 Q1126.9 38.0623 1123.5 35.2672 Q1120.13 32.4315 1114.02 32.4315 Q1110.13 32.4315 1106.44 33.3632 Q1102.76 34.295 1099.35 36.1584 L1099.35 29.2718 Q1103.44 27.692 1107.29 26.9223 Q1111.14 26.1121 1114.79 26.1121 Q1124.63 26.1121 1129.49 31.2163 Q1134.35 36.3204 1134.35 46.6907 Z" fill="#000000" fill-rule="evenodd" fill-opacity="1" /><path clip-path="url(#clip160)" d="M 0 0 M1142.17 27.2059 L1149.62 27.2059 L1149.62 72.576 L1142.17 72.576 L1142.17 27.2059 M1142.17 9.54393 L1149.62 9.54393 L1149.62 18.9825 L1142.17 18.9825 L1142.17 9.54393 Z" fill="#000000" fill-rule="evenodd" fill-opacity="1" /><path clip-path="url(#clip160)" d="M 0 0 M1183.73 34.1734 Q1182.48 33.4443 1180.98 33.1202 Q1179.52 32.7556 1177.74 32.7556 Q1171.42 32.7556 1168.02 36.8875 Q1164.65 40.9789 1164.65 48.6757 L1164.65 72.576 L1157.16 72.576 L1157.16 27.2059 L1164.65 27.2059 L1164.65 34.2544 Q1167 30.1225 1170.77 28.1376 Q1174.54 26.1121 1179.93 26.1121 Q1180.7 26.1121 1181.63 26.2337 Q1182.56 26.3147 1183.69 26.5172 L1183.73 34.1734 Z" fill="#000000" fill-rule="evenodd" fill-opacity="1" /><path clip-path="url(#clip160)" d="M 0 0 M1224.12 49.9314 Q1224.12 41.7081 1220.72 37.0496 Q1217.36 32.3505 1211.44 32.3505 Q1205.53 32.3505 1202.12 37.0496 Q1198.76 41.7081 1198.76 49.9314 Q1198.76 58.1548 1202.12 62.8538 Q1205.53 67.5124 1211.44 67.5124 Q1217.36 67.5124 1220.72 62.8538 Q1224.12 58.1548 1224.12 49.9314 M1198.76 34.0924 Q1201.11 30.0415 1204.68 28.0971 Q1208.28 26.1121 1213.26 26.1121 Q1221.53 26.1121 1226.67 32.6746 Q1231.86 39.2371 1231.86 49.9314 Q1231.86 60.6258 1226.67 67.1883 Q1221.53 73.7508 1213.26 73.7508 Q1208.28 73.7508 1204.68 71.8063 Q1201.11 69.8214 1198.76 65.7705 L1198.76 72.576 L1191.27 72.576 L1191.27 9.54393 L1198.76 9.54393 L1198.76 34.0924 Z" fill="#000000" fill-rule="evenodd" fill-opacity="1" /><path clip-path="url(#clip160)" d="M 0 0 M1257.26 32.4315 Q1251.26 32.4315 1247.78 37.1306 Q1244.29 41.7891 1244.29 49.9314 Q1244.29 58.0738 1247.74 62.7728 Q1251.22 67.4314 1257.26 67.4314 Q1263.21 67.4314 1266.7 62.7323 Q1270.18 58.0333 1270.18 49.9314 Q1270.18 41.8701 1266.7 37.1711 Q1263.21 32.4315 1257.26 32.4315 M1257.26 26.1121 Q1266.98 26.1121 1272.53 32.4315 Q1278.08 38.7509 1278.08 49.9314 Q1278.08 61.0714 1272.53 67.4314 Q1266.98 73.7508 1257.26 73.7508 Q1247.49 73.7508 1241.95 67.4314 Q1236.44 61.0714 1236.44 49.9314 Q1236.44 38.7509 1241.95 32.4315 Q1247.49 26.1121 1257.26 26.1121 Z" fill="#000000" fill-rule="evenodd" fill-opacity="1" /><path clip-path="url(#clip160)" d="M 0 0 M1312.19 34.1734 Q1310.93 33.4443 1309.43 33.1202 Q1307.97 32.7556 1306.19 32.7556 Q1299.87 32.7556 1296.47 36.8875 Q1293.11 40.9789 1293.11 48.6757 L1293.11 72.576 L1285.61 72.576 L1285.61 27.2059 L1293.11 27.2059 L1293.11 34.2544 Q1295.46 30.1225 1299.22 28.1376 Q1302.99 26.1121 1308.38 26.1121 Q1309.15 26.1121 1310.08 26.2337 Q1311.01 26.3147 1312.15 26.5172 L1312.19 34.1734 Z" fill="#000000" fill-rule="evenodd" fill-opacity="1" /><path clip-path="url(#clip160)" d="M 0 0 M1356.26 45.1919 L1356.26 72.576 L1348.81 72.576 L1348.81 45.4349 Q1348.81 38.994 1346.3 35.7938 Q1343.78 32.5936 1338.76 32.5936 Q1332.73 32.5936 1329.24 36.4419 Q1325.76 40.2903 1325.76 46.9338 L1325.76 72.576 L1318.26 72.576 L1318.26 27.2059 L1325.76 27.2059 L1325.76 34.2544 Q1328.43 30.163 1332.04 28.1376 Q1335.68 26.1121 1340.42 26.1121 Q1348.24 26.1121 1352.25 30.9732 Q1356.26 35.7938 1356.26 45.1919 Z" fill="#000000" fill-rule="evenodd" fill-opacity="1" /><path clip-path="url(#clip160)" d="M 0 0 M1402.89 48.0275 L1402.89 51.6733 L1368.62 51.6733 Q1369.1 59.3701 1373.23 63.421 Q1377.41 67.4314 1384.82 67.4314 Q1389.11 67.4314 1393.12 66.3781 Q1397.18 65.3249 1401.15 63.2184 L1401.15 70.267 Q1397.14 71.9684 1392.92 72.8596 Q1388.71 73.7508 1384.37 73.7508 Q1373.52 73.7508 1367.16 67.4314 Q1360.84 61.1119 1360.84 50.3365 Q1360.84 39.1965 1366.83 32.6746 Q1372.87 26.1121 1383.08 26.1121 Q1392.23 26.1121 1397.54 32.0264 Q1402.89 37.9003 1402.89 48.0275 M1395.43 45.84 Q1395.35 39.7232 1391.99 36.0774 Q1388.67 32.4315 1383.16 32.4315 Q1376.92 32.4315 1373.15 35.9558 Q1369.43 39.4801 1368.86 45.8805 L1395.43 45.84 Z" fill="#000000" fill-rule="evenodd" fill-opacity="1" /><path clip-path="url(#clip160)" d="M 0 0 M1441.53 49.9314 Q1441.53 58.1548 1444.9 62.8538 Q1448.3 67.5124 1454.21 67.5124 Q1460.13 67.5124 1463.53 62.8538 Q1466.93 58.1548 1466.93 49.9314 Q1466.93 41.7081 1463.53 37.0496 Q1460.13 32.3505 1454.21 32.3505 Q1448.3 32.3505 1444.9 37.0496 Q1441.53 41.7081 1441.53 49.9314 M1466.93 65.7705 Q1464.58 69.8214 1460.98 71.8063 Q1457.41 73.7508 1452.39 73.7508 Q1444.17 73.7508 1438.98 67.1883 Q1433.84 60.6258 1433.84 49.9314 Q1433.84 39.2371 1438.98 32.6746 Q1444.17 26.1121 1452.39 26.1121 Q1457.41 26.1121 1460.98 28.0971 Q1464.58 30.0415 1466.93 34.0924 L1466.93 27.2059 L1474.39 27.2059 L1474.39 89.8329 L1466.93 89.8329 L1466.93 65.7705 Z" fill="#000000" fill-rule="evenodd" fill-opacity="1" /><path clip-path="url(#clip160)" d="M 0 0 M1481.43 54.671 L1481.43 27.2059 L1488.89 27.2059 L1488.89 54.3874 Q1488.89 60.8284 1491.4 64.0691 Q1493.91 67.2693 1498.93 67.2693 Q1504.97 67.2693 1508.45 63.421 Q1511.98 59.5726 1511.98 52.9291 L1511.98 27.2059 L1519.43 27.2059 L1519.43 72.576 L1511.98 72.576 L1511.98 65.6084 Q1509.26 69.7404 1505.66 71.7658 Q1502.09 73.7508 1497.35 73.7508 Q1489.54 73.7508 1485.49 68.8897 Q1481.43 64.0286 1481.43 54.671 M1500.19 26.1121 L1500.19 26.1121 Z" fill="#000000" fill-rule="evenodd" fill-opacity="1" /><path clip-path="url(#clip160)" d="M 0 0 M1547.87 49.7694 Q1538.84 49.7694 1535.35 51.8354 Q1531.87 53.9013 1531.87 58.8839 Q1531.87 62.8538 1534.46 65.2034 Q1537.09 67.5124 1541.59 67.5124 Q1547.79 67.5124 1551.52 63.1374 Q1555.28 58.7219 1555.28 51.4303 L1555.28 49.7694 L1547.87 49.7694 M1562.74 46.6907 L1562.74 72.576 L1555.28 72.576 L1555.28 65.6895 Q1552.73 69.8214 1548.92 71.8063 Q1545.11 73.7508 1539.61 73.7508 Q1532.64 73.7508 1528.51 69.8619 Q1524.41 65.9325 1524.41 59.3701 Q1524.41 51.7138 1529.52 47.825 Q1534.66 43.9361 1544.83 43.9361 L1555.28 43.9361 L1555.28 43.2069 Q1555.28 38.0623 1551.88 35.2672 Q1548.52 32.4315 1542.4 32.4315 Q1538.51 32.4315 1534.83 33.3632 Q1531.14 34.295 1527.74 36.1584 L1527.74 29.2718 Q1531.83 27.692 1535.68 26.9223 Q1539.52 26.1121 1543.17 26.1121 Q1553.01 26.1121 1557.88 31.2163 Q1562.74 36.3204 1562.74 46.6907 Z" fill="#000000" fill-rule="evenodd" fill-opacity="1" /><path clip-path="url(#clip160)" d="M 0 0 M1608.27 45.1919 L1608.27 72.576 L1600.81 72.576 L1600.81 45.4349 Q1600.81 38.994 1598.3 35.7938 Q1595.79 32.5936 1590.77 32.5936 Q1584.73 32.5936 1581.25 36.4419 Q1577.76 40.2903 1577.76 46.9338 L1577.76 72.576 L1570.27 72.576 L1570.27 27.2059 L1577.76 27.2059 L1577.76 34.2544 Q1580.44 30.163 1584.04 28.1376 Q1587.69 26.1121 1592.43 26.1121 Q1600.25 26.1121 1604.26 30.9732 Q1608.27 35.7938 1608.27 45.1919 Z" fill="#000000" fill-rule="evenodd" fill-opacity="1" /><path clip-path="url(#clip160)" d="M 0 0 M1623.46 14.324 L1623.46 27.2059 L1638.81 27.2059 L1638.81 32.9987 L1623.46 32.9987 L1623.46 57.6282 Q1623.46 63.1779 1624.96 64.7578 Q1626.5 66.3376 1631.16 66.3376 L1638.81 66.3376 L1638.81 72.576 L1631.16 72.576 Q1622.53 72.576 1619.25 69.3758 Q1615.96 66.1351 1615.96 57.6282 L1615.96 32.9987 L1610.5 32.9987 L1610.5 27.2059 L1615.96 27.2059 L1615.96 14.324 L1623.46 14.324 Z" fill="#000000" fill-rule="evenodd" fill-opacity="1" /><path clip-path="url(#clip160)" d="M 0 0 M1646.63 27.2059 L1654.08 27.2059 L1654.08 72.576 L1646.63 72.576 L1646.63 27.2059 M1646.63 9.54393 L1654.08 9.54393 L1654.08 18.9825 L1646.63 18.9825 L1646.63 9.54393 Z" fill="#000000" fill-rule="evenodd" fill-opacity="1" /><path clip-path="url(#clip160)" d="M 0 0 M1669.27 14.324 L1669.27 27.2059 L1684.63 27.2059 L1684.63 32.9987 L1669.27 32.9987 L1669.27 57.6282 Q1669.27 63.1779 1670.77 64.7578 Q1672.31 66.3376 1676.97 66.3376 L1684.63 66.3376 L1684.63 72.576 L1676.97 72.576 Q1668.34 72.576 1665.06 69.3758 Q1661.78 66.1351 1661.78 57.6282 L1661.78 32.9987 L1656.31 32.9987 L1656.31 27.2059 L1661.78 27.2059 L1661.78 14.324 L1669.27 14.324 Z" fill="#000000" fill-rule="evenodd" fill-opacity="1" /><path clip-path="url(#clip160)" d="M 0 0 M1711.32 76.7889 Q1708.16 84.8907 1705.17 87.3618 Q1702.17 89.8329 1697.15 89.8329 L1691.19 89.8329 L1691.19 83.5945 L1695.57 83.5945 Q1698.64 83.5945 1700.35 82.1361 Q1702.05 80.6778 1704.11 75.2496 L1705.45 71.8468 L1687.1 27.2059 L1695 27.2059 L1709.18 62.6918 L1723.35 27.2059 L1731.25 27.2059 L1711.32 76.7889 Z" fill="#000000" fill-rule="evenodd" fill-opacity="1" /><polyline clip-path="url(#clip162)" style="stroke:#009af9; stroke-width:4; stroke-opacity:1; fill:none" points="
  357.296,1386.4 533.911,1274.19 640.049,1206.84 729.787,1149.94 827.268,1088.17 917.137,1031.25 1013.49,970.246 1125.12,899.582 1224.32,836.799 1311.31,781.753 
  1406.16,721.747 1501.56,661.392 1607.05,594.669 1707.42,531.191 1811.78,465.195 1899.63,409.645 2006.88,341.829 2107.7,278.085 2269.22,175.97 2294.08,160.256 
  
  "/>
</svg>
