<?xml version="1.0" encoding="utf-8"?>
<svg xmlns="http://www.w3.org/2000/svg" xmlns:xlink="http://www.w3.org/1999/xlink" width="600" height="400" viewBox="0 0 2400 1600">
<defs>
  <clipPath id="clip400">
    <rect x="0" y="0" width="2400" height="1600"/>
  </clipPath>
</defs>
<path clip-path="url(#clip400)" d="
M0 1600 L2400 1600 L2400 0 L0 0  Z
  " fill="#ffffff" fill-rule="evenodd" fill-opacity="1"/>
<defs>
  <clipPath id="clip401">
    <rect x="480" y="0" width="1681" height="1600"/>
  </clipPath>
</defs>
<path clip-path="url(#clip400)" d="
M223.269 1423.18 L2352.76 1423.18 L2352.76 123.472 L223.269 123.472  Z
  " fill="#ffffff" fill-rule="evenodd" fill-opacity="1"/>
<defs>
  <clipPath id="clip402">
    <rect x="223" y="123" width="2130" height="1301"/>
  </clipPath>
</defs>
<polyline clip-path="url(#clip402)" style="stroke:#000000; stroke-width:2; stroke-opacity:0.1; fill:none" points="
  283.538,1423.18 283.538,123.472 
  "/>
<polyline clip-path="url(#clip402)" style="stroke:#000000; stroke-width:2; stroke-opacity:0.1; fill:none" points="
  618.363,1423.18 618.363,123.472 
  "/>
<polyline clip-path="url(#clip402)" style="stroke:#000000; stroke-width:2; stroke-opacity:0.1; fill:none" points="
  953.187,1423.18 953.187,123.472 
  "/>
<polyline clip-path="url(#clip402)" style="stroke:#000000; stroke-width:2; stroke-opacity:0.1; fill:none" points="
  1288.01,1423.18 1288.01,123.472 
  "/>
<polyline clip-path="url(#clip402)" style="stroke:#000000; stroke-width:2; stroke-opacity:0.1; fill:none" points="
  1622.84,1423.18 1622.84,123.472 
  "/>
<polyline clip-path="url(#clip402)" style="stroke:#000000; stroke-width:2; stroke-opacity:0.1; fill:none" points="
  1957.66,1423.18 1957.66,123.472 
  "/>
<polyline clip-path="url(#clip402)" style="stroke:#000000; stroke-width:2; stroke-opacity:0.1; fill:none" points="
  2292.49,1423.18 2292.49,123.472 
  "/>
<polyline clip-path="url(#clip400)" style="stroke:#000000; stroke-width:4; stroke-opacity:1; fill:none" points="
  223.269,1423.18 2352.76,1423.18 
  "/>
<polyline clip-path="url(#clip400)" style="stroke:#000000; stroke-width:4; stroke-opacity:1; fill:none" points="
  283.538,1423.18 283.538,1407.58 
  "/>
<polyline clip-path="url(#clip400)" style="stroke:#000000; stroke-width:4; stroke-opacity:1; fill:none" points="
  618.363,1423.18 618.363,1407.58 
  "/>
<polyline clip-path="url(#clip400)" style="stroke:#000000; stroke-width:4; stroke-opacity:1; fill:none" points="
  953.187,1423.18 953.187,1407.58 
  "/>
<polyline clip-path="url(#clip400)" style="stroke:#000000; stroke-width:4; stroke-opacity:1; fill:none" points="
  1288.01,1423.18 1288.01,1407.58 
  "/>
<polyline clip-path="url(#clip400)" style="stroke:#000000; stroke-width:4; stroke-opacity:1; fill:none" points="
  1622.84,1423.18 1622.84,1407.58 
  "/>
<polyline clip-path="url(#clip400)" style="stroke:#000000; stroke-width:4; stroke-opacity:1; fill:none" points="
  1957.66,1423.18 1957.66,1407.58 
  "/>
<polyline clip-path="url(#clip400)" style="stroke:#000000; stroke-width:4; stroke-opacity:1; fill:none" points="
  2292.49,1423.18 2292.49,1407.58 
  "/>
<path clip-path="url(#clip400)" d="M 0 0 M283.538 1452.37 Q279.926 1452.37 278.098 1455.94 Q276.292 1459.48 276.292 1466.61 Q276.292 1473.71 278.098 1477.28 Q279.926 1480.82 283.538 1480.82 Q287.172 1480.82 288.977 1477.28 Q290.806 1473.71 290.806 1466.61 Q290.806 1459.48 288.977 1455.94 Q287.172 1452.37 283.538 1452.37 M283.538 1448.67 Q289.348 1448.67 292.403 1453.27 Q295.482 1457.86 295.482 1466.61 Q295.482 1475.33 292.403 1479.94 Q289.348 1484.52 283.538 1484.52 Q277.727 1484.52 274.649 1479.94 Q271.593 1475.33 271.593 1466.61 Q271.593 1457.86 274.649 1453.27 Q277.727 1448.67 283.538 1448.67 Z" fill="#000000" fill-rule="evenodd" fill-opacity="1" /><path clip-path="url(#clip400)" d="M 0 0 M595.238 1479.92 L602.876 1479.92 L602.876 1453.55 L594.566 1455.22 L594.566 1450.96 L602.83 1449.29 L607.506 1449.29 L607.506 1479.92 L615.145 1479.92 L615.145 1483.85 L595.238 1483.85 L595.238 1479.92 Z" fill="#000000" fill-rule="evenodd" fill-opacity="1" /><path clip-path="url(#clip400)" d="M 0 0 M630.214 1452.37 Q626.603 1452.37 624.775 1455.94 Q622.969 1459.48 622.969 1466.61 Q622.969 1473.71 624.775 1477.28 Q626.603 1480.82 630.214 1480.82 Q633.849 1480.82 635.654 1477.28 Q637.483 1473.71 637.483 1466.61 Q637.483 1459.48 635.654 1455.94 Q633.849 1452.37 630.214 1452.37 M630.214 1448.67 Q636.024 1448.67 639.08 1453.27 Q642.159 1457.86 642.159 1466.61 Q642.159 1475.33 639.08 1479.94 Q636.024 1484.52 630.214 1484.52 Q624.404 1484.52 621.325 1479.94 Q618.27 1475.33 618.27 1466.61 Q618.27 1457.86 621.325 1453.27 Q624.404 1448.67 630.214 1448.67 Z" fill="#000000" fill-rule="evenodd" fill-opacity="1" /><path clip-path="url(#clip400)" d="M 0 0 M934.333 1479.92 L950.653 1479.92 L950.653 1483.85 L928.708 1483.85 L928.708 1479.92 Q931.37 1477.16 935.954 1472.53 Q940.56 1467.88 941.741 1466.54 Q943.986 1464.01 944.866 1462.28 Q945.769 1460.52 945.769 1458.83 Q945.769 1456.07 943.824 1454.34 Q941.903 1452.6 938.801 1452.6 Q936.602 1452.6 934.148 1453.37 Q931.718 1454.13 928.94 1455.68 L928.94 1450.96 Q931.764 1449.82 934.218 1449.25 Q936.671 1448.67 938.708 1448.67 Q944.079 1448.67 947.273 1451.35 Q950.468 1454.04 950.468 1458.53 Q950.468 1460.66 949.657 1462.58 Q948.87 1464.48 946.764 1467.07 Q946.185 1467.74 943.083 1470.96 Q939.982 1474.15 934.333 1479.92 Z" fill="#000000" fill-rule="evenodd" fill-opacity="1" /><path clip-path="url(#clip400)" d="M 0 0 M965.722 1452.37 Q962.111 1452.37 960.282 1455.94 Q958.477 1459.48 958.477 1466.61 Q958.477 1473.71 960.282 1477.28 Q962.111 1480.82 965.722 1480.82 Q969.356 1480.82 971.162 1477.28 Q972.991 1473.71 972.991 1466.61 Q972.991 1459.48 971.162 1455.94 Q969.356 1452.37 965.722 1452.37 M965.722 1448.67 Q971.532 1448.67 974.588 1453.27 Q977.667 1457.86 977.667 1466.61 Q977.667 1475.33 974.588 1479.94 Q971.532 1484.52 965.722 1484.52 Q959.912 1484.52 956.833 1479.94 Q953.778 1475.33 953.778 1466.61 Q953.778 1457.86 956.833 1453.27 Q959.912 1448.67 965.722 1448.67 Z" fill="#000000" fill-rule="evenodd" fill-opacity="1" /><path clip-path="url(#clip400)" d="M 0 0 M1278.75 1465.22 Q1282.11 1465.94 1283.98 1468.2 Q1285.88 1470.47 1285.88 1473.81 Q1285.88 1478.92 1282.36 1481.72 Q1278.85 1484.52 1272.36 1484.52 Q1270.19 1484.52 1267.87 1484.08 Q1265.58 1483.67 1263.13 1482.81 L1263.13 1478.3 Q1265.07 1479.43 1267.39 1480.01 Q1269.7 1480.59 1272.23 1480.59 Q1276.62 1480.59 1278.92 1478.85 Q1281.23 1477.12 1281.23 1473.81 Q1281.23 1470.75 1279.08 1469.04 Q1276.95 1467.3 1273.13 1467.3 L1269.1 1467.3 L1269.1 1463.46 L1273.31 1463.46 Q1276.76 1463.46 1278.59 1462.09 Q1280.42 1460.7 1280.42 1458.11 Q1280.42 1455.45 1278.52 1454.04 Q1276.65 1452.6 1273.13 1452.6 Q1271.21 1452.6 1269.01 1453.02 Q1266.81 1453.44 1264.17 1454.31 L1264.17 1450.15 Q1266.83 1449.41 1269.15 1449.04 Q1271.48 1448.67 1273.54 1448.67 Q1278.87 1448.67 1281.97 1451.1 Q1285.07 1453.5 1285.07 1457.63 Q1285.07 1460.5 1283.43 1462.49 Q1281.79 1464.45 1278.75 1465.22 Z" fill="#000000" fill-rule="evenodd" fill-opacity="1" /><path clip-path="url(#clip400)" d="M 0 0 M1300.95 1452.37 Q1297.34 1452.37 1295.51 1455.94 Q1293.71 1459.48 1293.71 1466.61 Q1293.71 1473.71 1295.51 1477.28 Q1297.34 1480.82 1300.95 1480.82 Q1304.59 1480.82 1306.39 1477.28 Q1308.22 1473.71 1308.22 1466.61 Q1308.22 1459.48 1306.39 1455.94 Q1304.59 1452.37 1300.95 1452.37 M1300.95 1448.67 Q1306.76 1448.67 1309.82 1453.27 Q1312.9 1457.86 1312.9 1466.61 Q1312.9 1475.33 1309.82 1479.94 Q1306.76 1484.52 1300.95 1484.52 Q1295.14 1484.52 1292.06 1479.94 Q1289.01 1475.33 1289.01 1466.61 Q1289.01 1457.86 1292.06 1453.27 Q1295.14 1448.67 1300.95 1448.67 Z" fill="#000000" fill-rule="evenodd" fill-opacity="1" /><path clip-path="url(#clip400)" d="M 0 0 M1612.34 1453.37 L1600.53 1471.81 L1612.34 1471.81 L1612.34 1453.37 M1611.11 1449.29 L1616.99 1449.29 L1616.99 1471.81 L1621.92 1471.81 L1621.92 1475.7 L1616.99 1475.7 L1616.99 1483.85 L1612.34 1483.85 L1612.34 1475.7 L1596.74 1475.7 L1596.74 1471.19 L1611.11 1449.29 Z" fill="#000000" fill-rule="evenodd" fill-opacity="1" /><path clip-path="url(#clip400)" d="M 0 0 M1636.99 1452.37 Q1633.38 1452.37 1631.55 1455.94 Q1629.75 1459.48 1629.75 1466.61 Q1629.75 1473.71 1631.55 1477.28 Q1633.38 1480.82 1636.99 1480.82 Q1640.63 1480.82 1642.43 1477.28 Q1644.26 1473.71 1644.26 1466.61 Q1644.26 1459.48 1642.43 1455.94 Q1640.63 1452.37 1636.99 1452.37 M1636.99 1448.67 Q1642.8 1448.67 1645.86 1453.27 Q1648.94 1457.86 1648.94 1466.61 Q1648.94 1475.33 1645.86 1479.94 Q1642.8 1484.52 1636.99 1484.52 Q1631.18 1484.52 1628.1 1479.94 Q1625.05 1475.33 1625.05 1466.61 Q1625.05 1457.86 1628.1 1453.27 Q1631.18 1448.67 1636.99 1448.67 Z" fill="#000000" fill-rule="evenodd" fill-opacity="1" /><path clip-path="url(#clip400)" d="M 0 0 M1934.43 1449.29 L1952.79 1449.29 L1952.79 1453.23 L1938.72 1453.23 L1938.72 1461.7 Q1939.73 1461.35 1940.75 1461.19 Q1941.77 1461 1942.79 1461 Q1948.58 1461 1951.96 1464.18 Q1955.34 1467.35 1955.34 1472.76 Q1955.34 1478.34 1951.86 1481.44 Q1948.39 1484.52 1942.07 1484.52 Q1939.9 1484.52 1937.63 1484.15 Q1935.38 1483.78 1932.98 1483.04 L1932.98 1478.34 Q1935.06 1479.48 1937.28 1480.03 Q1939.5 1480.59 1941.98 1480.59 Q1945.98 1480.59 1948.32 1478.48 Q1950.66 1476.38 1950.66 1472.76 Q1950.66 1469.15 1948.32 1467.05 Q1945.98 1464.94 1941.98 1464.94 Q1940.1 1464.94 1938.23 1465.36 Q1936.38 1465.77 1934.43 1466.65 L1934.43 1449.29 Z" fill="#000000" fill-rule="evenodd" fill-opacity="1" /><path clip-path="url(#clip400)" d="M 0 0 M1970.41 1452.37 Q1966.79 1452.37 1964.97 1455.94 Q1963.16 1459.48 1963.16 1466.61 Q1963.16 1473.71 1964.97 1477.28 Q1966.79 1480.82 1970.41 1480.82 Q1974.04 1480.82 1975.85 1477.28 Q1977.67 1473.71 1977.67 1466.61 Q1977.67 1459.48 1975.85 1455.94 Q1974.04 1452.37 1970.41 1452.37 M1970.41 1448.67 Q1976.22 1448.67 1979.27 1453.27 Q1982.35 1457.86 1982.35 1466.61 Q1982.35 1475.33 1979.27 1479.94 Q1976.22 1484.52 1970.41 1484.52 Q1964.6 1484.52 1961.52 1479.94 Q1958.46 1475.33 1958.46 1466.61 Q1958.46 1457.86 1961.52 1453.27 Q1964.6 1448.67 1970.41 1448.67 Z" fill="#000000" fill-rule="evenodd" fill-opacity="1" /><path clip-path="url(#clip400)" d="M 0 0 M2279.39 1464.71 Q2276.24 1464.71 2274.39 1466.86 Q2272.56 1469.01 2272.56 1472.76 Q2272.56 1476.49 2274.39 1478.67 Q2276.24 1480.82 2279.39 1480.82 Q2282.53 1480.82 2284.36 1478.67 Q2286.21 1476.49 2286.21 1472.76 Q2286.21 1469.01 2284.36 1466.86 Q2282.53 1464.71 2279.39 1464.71 M2288.67 1450.06 L2288.67 1454.31 Q2286.91 1453.48 2285.1 1453.04 Q2283.32 1452.6 2281.56 1452.6 Q2276.93 1452.6 2274.48 1455.73 Q2272.05 1458.85 2271.7 1465.17 Q2273.07 1463.16 2275.13 1462.09 Q2277.19 1461 2279.66 1461 Q2284.87 1461 2287.88 1464.18 Q2290.91 1467.32 2290.91 1472.76 Q2290.91 1478.09 2287.77 1481.31 Q2284.62 1484.52 2279.39 1484.52 Q2273.39 1484.52 2270.22 1479.94 Q2267.05 1475.33 2267.05 1466.61 Q2267.05 1458.41 2270.94 1453.55 Q2274.83 1448.67 2281.38 1448.67 Q2283.14 1448.67 2284.92 1449.01 Q2286.72 1449.36 2288.67 1450.06 Z" fill="#000000" fill-rule="evenodd" fill-opacity="1" /><path clip-path="url(#clip400)" d="M 0 0 M2305.98 1452.37 Q2302.37 1452.37 2300.54 1455.94 Q2298.74 1459.48 2298.74 1466.61 Q2298.74 1473.71 2300.54 1477.28 Q2302.37 1480.82 2305.98 1480.82 Q2309.62 1480.82 2311.42 1477.28 Q2313.25 1473.71 2313.25 1466.61 Q2313.25 1459.48 2311.42 1455.94 Q2309.62 1452.37 2305.98 1452.37 M2305.98 1448.67 Q2311.79 1448.67 2314.85 1453.27 Q2317.93 1457.86 2317.93 1466.61 Q2317.93 1475.33 2314.85 1479.94 Q2311.79 1484.52 2305.98 1484.52 Q2300.17 1484.52 2297.09 1479.94 Q2294.04 1475.33 2294.04 1466.61 Q2294.04 1457.86 2297.09 1453.27 Q2300.17 1448.67 2305.98 1448.67 Z" fill="#000000" fill-rule="evenodd" fill-opacity="1" /><path clip-path="url(#clip400)" d="M 0 0 M1188.01 1510.27 L1188.01 1520.4 L1200.07 1520.4 L1200.07 1524.95 L1188.01 1524.95 L1188.01 1544.3 Q1188.01 1548.66 1189.18 1549.9 Q1190.39 1551.14 1194.05 1551.14 L1200.07 1551.14 L1200.07 1556.04 L1194.05 1556.04 Q1187.28 1556.04 1184.7 1553.53 Q1182.12 1550.98 1182.12 1544.3 L1182.12 1524.95 L1177.82 1524.95 L1177.82 1520.4 L1182.12 1520.4 L1182.12 1510.27 L1188.01 1510.27 Z" fill="#000000" fill-rule="evenodd" fill-opacity="1" /><path clip-path="url(#clip400)" d="M 0 0 M1206.21 1520.4 L1212.07 1520.4 L1212.07 1556.04 L1206.21 1556.04 L1206.21 1520.4 M1206.21 1506.52 L1212.07 1506.52 L1212.07 1513.93 L1206.21 1513.93 L1206.21 1506.52 Z" fill="#000000" fill-rule="evenodd" fill-opacity="1" /><path clip-path="url(#clip400)" d="M 0 0 M1245.97 1527.24 Q1248.16 1523.29 1251.22 1521.41 Q1254.27 1519.54 1258.41 1519.54 Q1263.98 1519.54 1267.01 1523.45 Q1270.03 1527.33 1270.03 1534.53 L1270.03 1556.04 L1264.14 1556.04 L1264.14 1534.72 Q1264.14 1529.59 1262.33 1527.11 Q1260.51 1524.63 1256.79 1524.63 Q1252.24 1524.63 1249.6 1527.65 Q1246.95 1530.68 1246.95 1535.9 L1246.95 1556.04 L1241.07 1556.04 L1241.07 1534.72 Q1241.07 1529.56 1239.25 1527.11 Q1237.44 1524.63 1233.65 1524.63 Q1229.16 1524.63 1226.52 1527.68 Q1223.88 1530.71 1223.88 1535.9 L1223.88 1556.04 L1217.99 1556.04 L1217.99 1520.4 L1223.88 1520.4 L1223.88 1525.93 Q1225.88 1522.66 1228.68 1521.1 Q1231.48 1519.54 1235.34 1519.54 Q1239.22 1519.54 1241.92 1521.51 Q1244.66 1523.48 1245.97 1527.24 Z" fill="#000000" fill-rule="evenodd" fill-opacity="1" /><path clip-path="url(#clip400)" d="M 0 0 M1306.66 1536.76 L1306.66 1539.62 L1279.74 1539.62 Q1280.12 1545.67 1283.37 1548.85 Q1286.64 1552 1292.47 1552 Q1295.84 1552 1298.99 1551.17 Q1302.18 1550.35 1305.3 1548.69 L1305.3 1554.23 Q1302.14 1555.57 1298.83 1556.27 Q1295.52 1556.97 1292.12 1556.97 Q1283.59 1556.97 1278.59 1552 Q1273.63 1547.04 1273.63 1538.57 Q1273.63 1529.82 1278.34 1524.69 Q1283.08 1519.54 1291.1 1519.54 Q1298.29 1519.54 1302.46 1524.18 Q1306.66 1528.8 1306.66 1536.76 M1300.81 1535.04 Q1300.74 1530.23 1298.1 1527.37 Q1295.49 1524.5 1291.16 1524.5 Q1286.26 1524.5 1283.3 1527.27 Q1280.37 1530.04 1279.93 1535.07 L1300.81 1535.04 Z" fill="#000000" fill-rule="evenodd" fill-opacity="1" /><path clip-path="url(#clip400)" d="M 0 0 M1347.6 1506.58 Q1343.33 1513.9 1341.26 1521.06 Q1339.19 1528.23 1339.19 1535.58 Q1339.19 1542.93 1341.26 1550.16 Q1343.36 1557.35 1347.6 1564.64 L1342.5 1564.64 Q1337.73 1557.16 1335.34 1549.93 Q1332.99 1542.71 1332.99 1535.58 Q1332.99 1528.48 1335.34 1521.29 Q1337.7 1514.09 1342.5 1506.58 L1347.6 1506.58 Z" fill="#000000" fill-rule="evenodd" fill-opacity="1" /><path clip-path="url(#clip400)" d="M 0 0 M1376.46 1521.45 L1376.46 1526.98 Q1373.98 1525.71 1371.31 1525.07 Q1368.63 1524.44 1365.77 1524.44 Q1361.41 1524.44 1359.21 1525.77 Q1357.05 1527.11 1357.05 1529.79 Q1357.05 1531.82 1358.61 1533 Q1360.17 1534.15 1364.88 1535.2 L1366.88 1535.64 Q1373.12 1536.98 1375.73 1539.43 Q1378.37 1541.85 1378.37 1546.21 Q1378.37 1551.17 1374.43 1554.07 Q1370.51 1556.97 1363.64 1556.97 Q1360.77 1556.97 1357.65 1556.39 Q1354.57 1555.85 1351.13 1554.74 L1351.13 1548.69 Q1354.37 1550.38 1357.53 1551.24 Q1360.68 1552.07 1363.76 1552.07 Q1367.9 1552.07 1370.13 1550.66 Q1372.36 1549.23 1372.36 1546.65 Q1372.36 1544.27 1370.73 1542.99 Q1369.14 1541.72 1363.7 1540.54 L1361.66 1540.07 Q1356.22 1538.92 1353.8 1536.56 Q1351.38 1534.18 1351.38 1530.04 Q1351.38 1525.01 1354.95 1522.27 Q1358.51 1519.54 1365.07 1519.54 Q1368.32 1519.54 1371.18 1520.01 Q1374.04 1520.49 1376.46 1521.45 Z" fill="#000000" fill-rule="evenodd" fill-opacity="1" /><path clip-path="url(#clip400)" d="M 0 0 M1383.59 1506.58 L1388.69 1506.58 Q1393.46 1514.09 1395.82 1521.29 Q1398.2 1528.48 1398.2 1535.58 Q1398.2 1542.71 1395.82 1549.93 Q1393.46 1557.16 1388.69 1564.64 L1383.59 1564.64 Q1387.83 1557.35 1389.9 1550.16 Q1392 1542.93 1392 1535.58 Q1392 1528.23 1389.9 1521.06 Q1387.83 1513.9 1383.59 1506.58 Z" fill="#000000" fill-rule="evenodd" fill-opacity="1" /><polyline clip-path="url(#clip402)" style="stroke:#000000; stroke-width:2; stroke-opacity:0.1; fill:none" points="
  223.269,1386.4 2352.76,1386.4 
  "/>
<polyline clip-path="url(#clip402)" style="stroke:#000000; stroke-width:2; stroke-opacity:0.1; fill:none" points="
  223.269,1127.23 2352.76,1127.23 
  "/>
<polyline clip-path="url(#clip402)" style="stroke:#000000; stroke-width:2; stroke-opacity:0.1; fill:none" points="
  223.269,868.058 2352.76,868.058 
  "/>
<polyline clip-path="url(#clip402)" style="stroke:#000000; stroke-width:2; stroke-opacity:0.1; fill:none" points="
  223.269,608.889 2352.76,608.889 
  "/>
<polyline clip-path="url(#clip402)" style="stroke:#000000; stroke-width:2; stroke-opacity:0.1; fill:none" points="
  223.269,349.72 2352.76,349.72 
  "/>
<polyline clip-path="url(#clip400)" style="stroke:#000000; stroke-width:4; stroke-opacity:1; fill:none" points="
  223.269,1423.18 223.269,123.472 
  "/>
<polyline clip-path="url(#clip400)" style="stroke:#000000; stroke-width:4; stroke-opacity:1; fill:none" points="
  223.269,1386.4 248.823,1386.4 
  "/>
<polyline clip-path="url(#clip400)" style="stroke:#000000; stroke-width:4; stroke-opacity:1; fill:none" points="
  223.269,1127.23 248.823,1127.23 
  "/>
<polyline clip-path="url(#clip400)" style="stroke:#000000; stroke-width:4; stroke-opacity:1; fill:none" points="
  223.269,868.058 248.823,868.058 
  "/>
<polyline clip-path="url(#clip400)" style="stroke:#000000; stroke-width:4; stroke-opacity:1; fill:none" points="
  223.269,608.889 248.823,608.889 
  "/>
<polyline clip-path="url(#clip400)" style="stroke:#000000; stroke-width:4; stroke-opacity:1; fill:none" points="
  223.269,349.72 248.823,349.72 
  "/>
<path clip-path="url(#clip400)" d="M 0 0 M175.325 1372.19 Q171.714 1372.19 169.885 1375.76 Q168.079 1379.3 168.079 1386.43 Q168.079 1393.54 169.885 1397.1 Q171.714 1400.64 175.325 1400.64 Q178.959 1400.64 180.764 1397.1 Q182.593 1393.54 182.593 1386.43 Q182.593 1379.3 180.764 1375.76 Q178.959 1372.19 175.325 1372.19 M175.325 1368.49 Q181.135 1368.49 184.19 1373.1 Q187.269 1377.68 187.269 1386.43 Q187.269 1395.16 184.19 1399.76 Q181.135 1404.35 175.325 1404.35 Q169.514 1404.35 166.436 1399.76 Q163.38 1395.16 163.38 1386.43 Q163.38 1377.68 166.436 1373.1 Q169.514 1368.49 175.325 1368.49 Z" fill="#000000" fill-rule="evenodd" fill-opacity="1" /><path clip-path="url(#clip400)" d="M 0 0 M153.126 1125.87 Q156.482 1126.59 158.357 1128.86 Q160.255 1131.13 160.255 1134.46 Q160.255 1139.58 156.737 1142.38 Q153.218 1145.18 146.737 1145.18 Q144.561 1145.18 142.246 1144.74 Q139.954 1144.32 137.501 1143.47 L137.501 1138.95 Q139.445 1140.09 141.76 1140.66 Q144.075 1141.24 146.598 1141.24 Q150.996 1141.24 153.288 1139.51 Q155.603 1137.77 155.603 1134.46 Q155.603 1131.41 153.45 1129.69 Q151.32 1127.96 147.501 1127.96 L143.473 1127.96 L143.473 1124.11 L147.686 1124.11 Q151.135 1124.11 152.964 1122.75 Q154.792 1121.36 154.792 1118.77 Q154.792 1116.1 152.894 1114.69 Q151.019 1113.26 147.501 1113.26 Q145.579 1113.26 143.38 1113.67 Q141.181 1114.09 138.542 1114.97 L138.542 1110.8 Q141.204 1110.06 143.519 1109.69 Q145.857 1109.32 147.917 1109.32 Q153.241 1109.32 156.343 1111.75 Q159.445 1114.16 159.445 1118.28 Q159.445 1121.15 157.802 1123.14 Q156.158 1125.11 153.126 1125.87 Z" fill="#000000" fill-rule="evenodd" fill-opacity="1" /><path clip-path="url(#clip400)" d="M 0 0 M175.325 1113.03 Q171.714 1113.03 169.885 1116.59 Q168.079 1120.13 168.079 1127.26 Q168.079 1134.37 169.885 1137.93 Q171.714 1141.47 175.325 1141.47 Q178.959 1141.47 180.764 1137.93 Q182.593 1134.37 182.593 1127.26 Q182.593 1120.13 180.764 1116.59 Q178.959 1113.03 175.325 1113.03 M175.325 1109.32 Q181.135 1109.32 184.19 1113.93 Q187.269 1118.51 187.269 1127.26 Q187.269 1135.99 184.19 1140.59 Q181.135 1145.18 175.325 1145.18 Q169.514 1145.18 166.436 1140.59 Q163.38 1135.99 163.38 1127.26 Q163.38 1118.51 166.436 1113.93 Q169.514 1109.32 175.325 1109.32 Z" fill="#000000" fill-rule="evenodd" fill-opacity="1" /><path clip-path="url(#clip400)" d="M 0 0 M148.728 866.195 Q145.579 866.195 143.728 868.347 Q141.899 870.5 141.899 874.25 Q141.899 877.977 143.728 880.153 Q145.579 882.306 148.728 882.306 Q151.876 882.306 153.704 880.153 Q155.556 877.977 155.556 874.25 Q155.556 870.5 153.704 868.347 Q151.876 866.195 148.728 866.195 M158.01 851.542 L158.01 855.801 Q156.251 854.968 154.445 854.528 Q152.663 854.088 150.903 854.088 Q146.274 854.088 143.82 857.213 Q141.39 860.338 141.042 866.658 Q142.408 864.644 144.468 863.579 Q146.529 862.491 149.005 862.491 Q154.214 862.491 157.223 865.662 Q160.255 868.81 160.255 874.25 Q160.255 879.574 157.107 882.792 Q153.959 886.009 148.728 886.009 Q142.732 886.009 139.561 881.426 Q136.39 876.82 136.39 868.093 Q136.39 859.898 140.279 855.037 Q144.167 850.153 150.718 850.153 Q152.478 850.153 154.26 850.5 Q156.065 850.847 158.01 851.542 Z" fill="#000000" fill-rule="evenodd" fill-opacity="1" /><path clip-path="url(#clip400)" d="M 0 0 M175.325 853.857 Q171.714 853.857 169.885 857.421 Q168.079 860.963 168.079 868.093 Q168.079 875.199 169.885 878.764 Q171.714 882.306 175.325 882.306 Q178.959 882.306 180.764 878.764 Q182.593 875.199 182.593 868.093 Q182.593 860.963 180.764 857.421 Q178.959 853.857 175.325 853.857 M175.325 850.153 Q181.135 850.153 184.19 854.759 Q187.269 859.343 187.269 868.093 Q187.269 876.82 184.19 881.426 Q181.135 886.009 175.325 886.009 Q169.514 886.009 166.436 881.426 Q163.38 876.82 163.38 868.093 Q163.38 859.343 166.436 854.759 Q169.514 850.153 175.325 850.153 Z" fill="#000000" fill-rule="evenodd" fill-opacity="1" /><path clip-path="url(#clip400)" d="M 0 0 M138.635 625.452 L138.635 621.192 Q140.394 622.026 142.2 622.465 Q144.005 622.905 145.741 622.905 Q150.371 622.905 152.802 619.803 Q155.255 616.678 155.603 610.336 Q154.26 612.327 152.2 613.391 Q150.14 614.456 147.64 614.456 Q142.454 614.456 139.422 611.331 Q136.413 608.183 136.413 602.743 Q136.413 597.419 139.561 594.202 Q142.709 590.984 147.941 590.984 Q153.936 590.984 157.084 595.591 Q160.255 600.174 160.255 608.924 Q160.255 617.095 156.366 621.979 Q152.501 626.84 145.95 626.84 Q144.191 626.84 142.385 626.493 Q140.579 626.146 138.635 625.452 M147.941 610.799 Q151.089 610.799 152.917 608.646 Q154.769 606.493 154.769 602.743 Q154.769 599.017 152.917 596.864 Q151.089 594.688 147.941 594.688 Q144.792 594.688 142.941 596.864 Q141.112 599.017 141.112 602.743 Q141.112 606.493 142.941 608.646 Q144.792 610.799 147.941 610.799 Z" fill="#000000" fill-rule="evenodd" fill-opacity="1" /><path clip-path="url(#clip400)" d="M 0 0 M175.325 594.688 Q171.714 594.688 169.885 598.253 Q168.079 601.794 168.079 608.924 Q168.079 616.03 169.885 619.595 Q171.714 623.137 175.325 623.137 Q178.959 623.137 180.764 619.595 Q182.593 616.03 182.593 608.924 Q182.593 601.794 180.764 598.253 Q178.959 594.688 175.325 594.688 M175.325 590.984 Q181.135 590.984 184.19 595.591 Q187.269 600.174 187.269 608.924 Q187.269 617.651 184.19 622.257 Q181.135 626.84 175.325 626.84 Q169.514 626.84 166.436 622.257 Q163.38 617.651 163.38 608.924 Q163.38 600.174 166.436 595.591 Q169.514 590.984 175.325 590.984 Z" fill="#000000" fill-rule="evenodd" fill-opacity="1" /><path clip-path="url(#clip400)" d="M 0 0 M114.931 363.065 L122.57 363.065 L122.57 336.7 L114.26 338.366 L114.26 334.107 L122.524 332.44 L127.2 332.44 L127.2 363.065 L134.839 363.065 L134.839 367 L114.931 367 L114.931 363.065 Z" fill="#000000" fill-rule="evenodd" fill-opacity="1" /><path clip-path="url(#clip400)" d="M 0 0 M143.936 363.065 L160.255 363.065 L160.255 367 L138.311 367 L138.311 363.065 Q140.973 360.311 145.556 355.681 Q150.163 351.028 151.343 349.686 Q153.589 347.163 154.468 345.426 Q155.371 343.667 155.371 341.977 Q155.371 339.223 153.427 337.487 Q151.505 335.751 148.403 335.751 Q146.204 335.751 143.751 336.514 Q141.32 337.278 138.542 338.829 L138.542 334.107 Q141.366 332.973 143.82 332.394 Q146.274 331.815 148.311 331.815 Q153.681 331.815 156.876 334.501 Q160.07 337.186 160.07 341.676 Q160.07 343.806 159.26 345.727 Q158.473 347.625 156.366 350.218 Q155.788 350.889 152.686 354.107 Q149.584 357.301 143.936 363.065 Z" fill="#000000" fill-rule="evenodd" fill-opacity="1" /><path clip-path="url(#clip400)" d="M 0 0 M175.325 335.519 Q171.714 335.519 169.885 339.084 Q168.079 342.625 168.079 349.755 Q168.079 356.862 169.885 360.426 Q171.714 363.968 175.325 363.968 Q178.959 363.968 180.764 360.426 Q182.593 356.862 182.593 349.755 Q182.593 342.625 180.764 339.084 Q178.959 335.519 175.325 335.519 M175.325 331.815 Q181.135 331.815 184.19 336.422 Q187.269 341.005 187.269 349.755 Q187.269 358.482 184.19 363.088 Q181.135 367.672 175.325 367.672 Q169.514 367.672 166.436 363.088 Q163.38 358.482 163.38 349.755 Q163.38 341.005 166.436 336.422 Q169.514 331.815 175.325 331.815 Z" fill="#000000" fill-rule="evenodd" fill-opacity="1" /><path clip-path="url(#clip400)" d="M 0 0 M82.657 971.459 L101.563 971.459 L101.563 977.347 L52.3562 977.347 L52.3562 971.459 L57.7671 971.459 Q54.5842 969.613 53.0564 966.812 Q51.4968 963.979 51.4968 960.064 Q51.4968 953.571 56.6531 949.529 Q61.8093 945.455 70.212 945.455 Q78.6147 945.455 83.771 949.529 Q88.9272 953.571 88.9272 960.064 Q88.9272 963.979 87.3994 966.812 Q85.8398 969.613 82.657 971.459 M70.212 951.534 Q63.7508 951.534 60.0905 954.208 Q56.3984 956.849 56.3984 961.496 Q56.3984 966.143 60.0905 968.817 Q63.7508 971.459 70.212 971.459 Q76.6732 971.459 80.3653 968.817 Q84.0256 966.143 84.0256 961.496 Q84.0256 956.849 80.3653 954.208 Q76.6732 951.534 70.212 951.534 Z" fill="#000000" fill-rule="evenodd" fill-opacity="1" /><path clip-path="url(#clip400)" d="M 0 0 M56.4621 925.498 Q56.4621 930.209 60.1542 932.946 Q63.8145 935.683 70.212 935.683 Q76.6095 935.683 80.3017 932.978 Q83.9619 930.241 83.9619 925.498 Q83.9619 920.819 80.2698 918.082 Q76.5777 915.345 70.212 915.345 Q63.8781 915.345 60.186 918.082 Q56.4621 920.819 56.4621 925.498 M51.4968 925.498 Q51.4968 917.859 56.4621 913.499 Q61.4273 909.138 70.212 909.138 Q78.9649 909.138 83.9619 913.499 Q88.9272 917.859 88.9272 925.498 Q88.9272 933.169 83.9619 937.529 Q78.9649 941.858 70.212 941.858 Q61.4273 941.858 56.4621 937.529 Q51.4968 933.169 51.4968 925.498 Z" fill="#000000" fill-rule="evenodd" fill-opacity="1" /><path clip-path="url(#clip400)" d="M 0 0 M56.4621 889.182 Q56.4621 893.892 60.1542 896.63 Q63.8145 899.367 70.212 899.367 Q76.6095 899.367 80.3017 896.662 Q83.9619 893.924 83.9619 889.182 Q83.9619 884.503 80.2698 881.766 Q76.5777 879.029 70.212 879.029 Q63.8781 879.029 60.186 881.766 Q56.4621 884.503 56.4621 889.182 M51.4968 889.182 Q51.4968 881.543 56.4621 877.182 Q61.4273 872.822 70.212 872.822 Q78.9649 872.822 83.9619 877.182 Q88.9272 881.543 88.9272 889.182 Q88.9272 896.853 83.9619 901.213 Q78.9649 905.542 70.212 905.542 Q61.4273 905.542 56.4621 901.213 Q51.4968 896.853 51.4968 889.182 Z" fill="#000000" fill-rule="evenodd" fill-opacity="1" /><path clip-path="url(#clip400)" d="M 0 0 M38.479 866.679 L38.479 860.823 L88.0042 860.823 L88.0042 866.679 L38.479 866.679 Z" fill="#000000" fill-rule="evenodd" fill-opacity="1" /><path clip-path="url(#clip400)" d="M 0 0 M70.0847 817.759 Q70.0847 824.856 71.7079 827.594 Q73.3312 830.331 77.2461 830.331 Q80.3653 830.331 82.2114 828.294 Q84.0256 826.225 84.0256 822.692 Q84.0256 817.822 80.5881 814.894 Q77.1188 811.934 71.3897 811.934 L70.0847 811.934 L70.0847 817.759 M67.6657 806.078 L88.0042 806.078 L88.0042 811.934 L82.5933 811.934 Q85.8398 813.939 87.3994 816.931 Q88.9272 819.923 88.9272 824.252 Q88.9272 829.726 85.8716 832.973 Q82.7843 836.187 77.6281 836.187 Q71.6125 836.187 68.5569 832.177 Q65.5014 828.135 65.5014 820.146 L65.5014 811.934 L64.9285 811.934 Q60.8862 811.934 58.6901 814.608 Q56.4621 817.249 56.4621 822.055 Q56.4621 825.111 57.1941 828.007 Q57.9262 830.904 59.3903 833.577 L53.9795 833.577 Q52.7381 830.363 52.1334 827.339 Q51.4968 824.315 51.4968 821.451 Q51.4968 813.716 55.5072 809.897 Q59.5176 806.078 67.6657 806.078 Z" fill="#000000" fill-rule="evenodd" fill-opacity="1" /><path clip-path="url(#clip400)" d="M 0 0 M57.8307 779.278 Q57.2578 780.265 57.0032 781.442 Q56.7167 782.588 56.7167 783.989 Q56.7167 788.954 59.9632 791.627 Q63.1779 794.269 69.2253 794.269 L88.0042 794.269 L88.0042 800.157 L52.3562 800.157 L52.3562 794.269 L57.8944 794.269 Q54.6479 792.423 53.0883 789.463 Q51.4968 786.503 51.4968 782.27 Q51.4968 781.665 51.5923 780.933 Q51.656 780.201 51.8151 779.31 L57.8307 779.278 Z" fill="#000000" fill-rule="evenodd" fill-opacity="1" /><path clip-path="url(#clip400)" d="M 0 0 M68.7161 744.076 L71.5806 744.076 L71.5806 771.003 Q77.6281 770.621 80.8109 767.374 Q83.9619 764.096 83.9619 758.271 Q83.9619 754.897 83.1344 751.746 Q82.3069 748.563 80.6518 745.444 L86.1899 745.444 Q87.5267 748.595 88.227 751.905 Q88.9272 755.216 88.9272 758.621 Q88.9272 767.151 83.9619 772.148 Q78.9967 777.114 70.5303 777.114 Q61.7774 777.114 56.6531 772.403 Q51.4968 767.661 51.4968 759.64 Q51.4968 752.446 56.1438 748.277 Q60.7589 744.076 68.7161 744.076 M66.9973 749.932 Q62.1912 749.996 59.3266 752.637 Q56.4621 755.247 56.4621 759.576 Q56.4621 764.478 59.2312 767.438 Q62.0002 770.366 67.0292 770.812 L66.9973 749.932 Z" fill="#000000" fill-rule="evenodd" fill-opacity="1" /><path clip-path="url(#clip400)" d="M 0 0 M70.0847 721.732 Q70.0847 728.83 71.7079 731.567 Q73.3312 734.304 77.2461 734.304 Q80.3653 734.304 82.2114 732.267 Q84.0256 730.198 84.0256 726.665 Q84.0256 721.796 80.5881 718.867 Q77.1188 715.907 71.3897 715.907 L70.0847 715.907 L70.0847 721.732 M67.6657 710.051 L88.0042 710.051 L88.0042 715.907 L82.5933 715.907 Q85.8398 717.913 87.3994 720.904 Q88.9272 723.896 88.9272 728.225 Q88.9272 733.699 85.8716 736.946 Q82.7843 740.161 77.6281 740.161 Q71.6125 740.161 68.5569 736.15 Q65.5014 732.108 65.5014 724.119 L65.5014 715.907 L64.9285 715.907 Q60.8862 715.907 58.6901 718.581 Q56.4621 721.223 56.4621 726.029 Q56.4621 729.084 57.1941 731.981 Q57.9262 734.877 59.3903 737.551 L53.9795 737.551 Q52.7381 734.336 52.1334 731.312 Q51.4968 728.289 51.4968 725.424 Q51.4968 717.69 55.5072 713.87 Q59.5176 710.051 67.6657 710.051 Z" fill="#000000" fill-rule="evenodd" fill-opacity="1" /><path clip-path="url(#clip400)" d="M 0 0 M38.5426 669.119 Q45.8632 673.384 53.0246 675.453 Q60.186 677.522 67.5384 677.522 Q74.8908 677.522 82.1159 675.453 Q89.3091 673.353 96.5979 669.119 L96.5979 674.212 Q89.1182 678.986 81.8931 681.373 Q74.668 683.729 67.5384 683.729 Q60.4406 683.729 53.2474 681.373 Q46.0542 679.018 38.5426 674.212 L38.5426 669.119 Z" fill="#000000" fill-rule="evenodd" fill-opacity="1" /><path clip-path="url(#clip400)" d="M 0 0 M59.1993 635.222 Q55.2526 633.026 53.3747 629.97 Q51.4968 626.915 51.4968 622.777 Q51.4968 617.207 55.4117 614.183 Q59.2948 611.16 66.4881 611.16 L88.0042 611.16 L88.0042 617.048 L66.679 617.048 Q61.5546 617.048 59.072 618.862 Q56.5894 620.676 56.5894 624.4 Q56.5894 628.952 59.6131 631.594 Q62.6368 634.235 67.8567 634.235 L88.0042 634.235 L88.0042 640.124 L66.679 640.124 Q61.5228 640.124 59.072 641.938 Q56.5894 643.752 56.5894 647.54 Q56.5894 652.027 59.6449 654.669 Q62.6686 657.311 67.8567 657.311 L88.0042 657.311 L88.0042 663.199 L52.3562 663.199 L52.3562 657.311 L57.8944 657.311 Q54.616 655.306 53.0564 652.505 Q51.4968 649.704 51.4968 645.853 Q51.4968 641.97 53.4702 639.264 Q55.4436 636.527 59.1993 635.222 Z" fill="#000000" fill-rule="evenodd" fill-opacity="1" /><path clip-path="url(#clip400)" d="M 0 0 M63.1142 602.63 L63.1142 589.134 L66.7427 589.134 L66.7427 608.168 L63.2416 608.168 Q62.2549 607.086 60.4725 605.08 Q50.7648 594.131 47.7729 594.131 Q45.6722 594.131 44.3991 595.786 Q43.0941 597.442 43.0941 600.147 Q43.0941 601.802 43.667 603.744 Q44.2081 605.685 45.3221 607.977 L41.4072 607.977 Q40.516 605.526 40.0704 603.425 Q39.6248 601.293 39.6248 599.479 Q39.6248 594.863 41.7255 592.094 Q43.8262 589.325 47.2636 589.325 Q51.6878 589.325 60.7271 599.86 Q62.2549 601.643 63.1142 602.63 Z" fill="#000000" fill-rule="evenodd" fill-opacity="1" /><path clip-path="url(#clip400)" d="M 0 0 M38.5426 583.914 L38.5426 578.822 Q46.0542 574.048 53.2474 571.692 Q60.4406 569.305 67.5384 569.305 Q74.668 569.305 81.8931 571.692 Q89.1182 574.048 96.5979 578.822 L96.5979 583.914 Q89.3091 579.681 82.1159 577.612 Q74.8908 575.512 67.5384 575.512 Q60.186 575.512 53.0246 577.612 Q45.8632 579.681 38.5426 583.914 Z" fill="#000000" fill-rule="evenodd" fill-opacity="1" /><path clip-path="url(#clip400)" d="M 0 0 M1027.88 65.7705 L1027.88 89.8329 L1020.39 89.8329 L1020.39 27.2059 L1027.88 27.2059 L1027.88 34.0924 Q1030.23 30.0415 1033.8 28.0971 Q1037.4 26.1121 1042.39 26.1121 Q1050.65 26.1121 1055.79 32.6746 Q1060.98 39.2371 1060.98 49.9314 Q1060.98 60.6258 1055.79 67.1883 Q1050.65 73.7508 1042.39 73.7508 Q1037.4 73.7508 1033.8 71.8063 Q1030.23 69.8214 1027.88 65.7705 M1053.24 49.9314 Q1053.24 41.7081 1049.84 37.0496 Q1046.48 32.3505 1040.56 32.3505 Q1034.65 32.3505 1031.25 37.0496 Q1027.88 41.7081 1027.88 49.9314 Q1027.88 58.1548 1031.25 62.8538 Q1034.65 67.5124 1040.56 67.5124 Q1046.48 67.5124 1049.84 62.8538 Q1053.24 58.1548 1053.24 49.9314 Z" fill="#000000" fill-rule="evenodd" fill-opacity="1" /><path clip-path="url(#clip400)" d="M 0 0 M1086.38 32.4315 Q1080.38 32.4315 1076.9 37.1306 Q1073.42 41.7891 1073.42 49.9314 Q1073.42 58.0738 1076.86 62.7728 Q1080.34 67.4314 1086.38 67.4314 Q1092.33 67.4314 1095.82 62.7323 Q1099.3 58.0333 1099.3 49.9314 Q1099.3 41.8701 1095.82 37.1711 Q1092.33 32.4315 1086.38 32.4315 M1086.38 26.1121 Q1096.1 26.1121 1101.65 32.4315 Q1107.2 38.7509 1107.2 49.9314 Q1107.2 61.0714 1101.65 67.4314 Q1096.1 73.7508 1086.38 73.7508 Q1076.62 73.7508 1071.07 67.4314 Q1065.56 61.0714 1065.56 49.9314 Q1065.56 38.7509 1071.07 32.4315 Q1076.62 26.1121 1086.38 26.1121 Z" fill="#000000" fill-rule="evenodd" fill-opacity="1" /><path clip-path="url(#clip400)" d="M 0 0 M1132.6 32.4315 Q1126.6 32.4315 1123.12 37.1306 Q1119.64 41.7891 1119.64 49.9314 Q1119.64 58.0738 1123.08 62.7728 Q1126.56 67.4314 1132.6 67.4314 Q1138.55 67.4314 1142.04 62.7323 Q1145.52 58.0333 1145.52 49.9314 Q1145.52 41.8701 1142.04 37.1711 Q1138.55 32.4315 1132.6 32.4315 M1132.6 26.1121 Q1142.32 26.1121 1147.87 32.4315 Q1153.42 38.7509 1153.42 49.9314 Q1153.42 61.0714 1147.87 67.4314 Q1142.32 73.7508 1132.6 73.7508 Q1122.84 73.7508 1117.29 67.4314 Q1111.78 61.0714 1111.78 49.9314 Q1111.78 38.7509 1117.29 32.4315 Q1122.84 26.1121 1132.6 26.1121 Z" fill="#000000" fill-rule="evenodd" fill-opacity="1" /><path clip-path="url(#clip400)" d="M 0 0 M1161.24 9.54393 L1168.69 9.54393 L1168.69 72.576 L1161.24 72.576 L1161.24 9.54393 Z" fill="#000000" fill-rule="evenodd" fill-opacity="1" /><path clip-path="url(#clip400)" d="M 0 0 M1231.81 28.5427 L1231.81 35.5912 Q1228.65 33.9709 1225.24 33.1607 Q1221.84 32.3505 1218.2 32.3505 Q1212.65 32.3505 1209.85 34.0519 Q1207.1 35.7533 1207.1 39.156 Q1207.1 41.7486 1209.08 43.2475 Q1211.07 44.7058 1217.06 46.0426 L1219.61 46.6097 Q1227.55 48.3111 1230.87 51.4303 Q1234.24 54.509 1234.24 60.0587 Q1234.24 66.3781 1229.21 70.0644 Q1224.23 73.7508 1215.48 73.7508 Q1211.84 73.7508 1207.87 73.0216 Q1203.94 72.3329 1199.56 70.9151 L1199.56 63.2184 Q1203.69 65.3654 1207.7 66.4591 Q1211.71 67.5124 1215.64 67.5124 Q1220.91 67.5124 1223.74 65.73 Q1226.58 63.9071 1226.58 60.6258 Q1226.58 57.5877 1224.51 55.9673 Q1222.49 54.3469 1215.56 52.8481 L1212.97 52.2405 Q1206.04 50.7821 1202.96 47.7845 Q1199.89 44.7463 1199.89 39.4801 Q1199.89 33.0797 1204.42 29.5959 Q1208.96 26.1121 1217.3 26.1121 Q1221.44 26.1121 1225.08 26.7198 Q1228.73 27.3274 1231.81 28.5427 Z" fill="#000000" fill-rule="evenodd" fill-opacity="1" /><path clip-path="url(#clip400)" d="M 0 0 M1249.27 65.7705 L1249.27 89.8329 L1241.77 89.8329 L1241.77 27.2059 L1249.27 27.2059 L1249.27 34.0924 Q1251.62 30.0415 1255.18 28.0971 Q1258.79 26.1121 1263.77 26.1121 Q1272.03 26.1121 1277.18 32.6746 Q1282.36 39.2371 1282.36 49.9314 Q1282.36 60.6258 1277.18 67.1883 Q1272.03 73.7508 1263.77 73.7508 Q1258.79 73.7508 1255.18 71.8063 Q1251.62 69.8214 1249.27 65.7705 M1274.62 49.9314 Q1274.62 41.7081 1271.22 37.0496 Q1267.86 32.3505 1261.94 32.3505 Q1256.03 32.3505 1252.63 37.0496 Q1249.27 41.7081 1249.27 49.9314 Q1249.27 58.1548 1252.63 62.8538 Q1256.03 67.5124 1261.94 67.5124 Q1267.86 67.5124 1271.22 62.8538 Q1274.62 58.1548 1274.62 49.9314 Z" fill="#000000" fill-rule="evenodd" fill-opacity="1" /><path clip-path="url(#clip400)" d="M 0 0 M1316.47 34.1734 Q1315.21 33.4443 1313.72 33.1202 Q1312.26 32.7556 1310.47 32.7556 Q1304.16 32.7556 1300.75 36.8875 Q1297.39 40.9789 1297.39 48.6757 L1297.39 72.576 L1289.9 72.576 L1289.9 27.2059 L1297.39 27.2059 L1297.39 34.2544 Q1299.74 30.1225 1303.51 28.1376 Q1307.27 26.1121 1312.66 26.1121 Q1313.43 26.1121 1314.36 26.2337 Q1315.3 26.3147 1316.43 26.5172 L1316.47 34.1734 Z" fill="#000000" fill-rule="evenodd" fill-opacity="1" /><path clip-path="url(#clip400)" d="M 0 0 M1361.27 48.0275 L1361.27 51.6733 L1327 51.6733 Q1327.49 59.3701 1331.62 63.421 Q1335.79 67.4314 1343.21 67.4314 Q1347.5 67.4314 1351.51 66.3781 Q1355.56 65.3249 1359.53 63.2184 L1359.53 70.267 Q1355.52 71.9684 1351.31 72.8596 Q1347.09 73.7508 1342.76 73.7508 Q1331.9 73.7508 1325.54 67.4314 Q1319.22 61.1119 1319.22 50.3365 Q1319.22 39.1965 1325.22 32.6746 Q1331.26 26.1121 1341.46 26.1121 Q1350.62 26.1121 1355.93 32.0264 Q1361.27 37.9003 1361.27 48.0275 M1353.82 45.84 Q1353.74 39.7232 1350.38 36.0774 Q1347.05 32.4315 1341.55 32.4315 Q1335.31 32.4315 1331.54 35.9558 Q1327.81 39.4801 1327.25 45.8805 L1353.82 45.84 Z" fill="#000000" fill-rule="evenodd" fill-opacity="1" /><path clip-path="url(#clip400)" d="M 0 0 M1389.71 49.7694 Q1380.68 49.7694 1377.19 51.8354 Q1373.71 53.9013 1373.71 58.8839 Q1373.71 62.8538 1376.3 65.2034 Q1378.94 67.5124 1383.43 67.5124 Q1389.63 67.5124 1393.36 63.1374 Q1397.12 58.7219 1397.12 51.4303 L1397.12 49.7694 L1389.71 49.7694 M1404.58 46.6907 L1404.58 72.576 L1397.12 72.576 L1397.12 65.6895 Q1394.57 69.8214 1390.76 71.8063 Q1386.96 73.7508 1381.45 73.7508 Q1374.48 73.7508 1370.35 69.8619 Q1366.26 65.9325 1366.26 59.3701 Q1366.26 51.7138 1371.36 47.825 Q1376.5 43.9361 1386.67 43.9361 L1397.12 43.9361 L1397.12 43.2069 Q1397.12 38.0623 1393.72 35.2672 Q1390.36 32.4315 1384.24 32.4315 Q1380.35 32.4315 1376.67 33.3632 Q1372.98 34.295 1369.58 36.1584 L1369.58 29.2718 Q1373.67 27.692 1377.52 26.9223 Q1381.37 26.1121 1385.01 26.1121 Q1394.86 26.1121 1399.72 31.2163 Q1404.58 36.3204 1404.58 46.6907 Z" fill="#000000" fill-rule="evenodd" fill-opacity="1" /><path clip-path="url(#clip400)" d="M 0 0 M1442.25 34.0924 L1442.25 9.54393 L1449.7 9.54393 L1449.7 72.576 L1442.25 72.576 L1442.25 65.7705 Q1439.9 69.8214 1436.3 71.8063 Q1432.73 73.7508 1427.71 73.7508 Q1419.48 73.7508 1414.3 67.1883 Q1409.15 60.6258 1409.15 49.9314 Q1409.15 39.2371 1414.3 32.6746 Q1419.48 26.1121 1427.71 26.1121 Q1432.73 26.1121 1436.3 28.0971 Q1439.9 30.0415 1442.25 34.0924 M1416.85 49.9314 Q1416.85 58.1548 1420.21 62.8538 Q1423.62 67.5124 1429.53 67.5124 Q1435.45 67.5124 1438.85 62.8538 Q1442.25 58.1548 1442.25 49.9314 Q1442.25 41.7081 1438.85 37.0496 Q1435.45 32.3505 1429.53 32.3505 Q1423.62 32.3505 1420.21 37.0496 Q1416.85 41.7081 1416.85 49.9314 Z" fill="#000000" fill-rule="evenodd" fill-opacity="1" /><path clip-path="url(#clip400)" d="M 0 0 M1457.52 27.2059 L1464.98 27.2059 L1464.98 72.576 L1457.52 72.576 L1457.52 27.2059 M1457.52 9.54393 L1464.98 9.54393 L1464.98 18.9825 L1457.52 18.9825 L1457.52 9.54393 Z" fill="#000000" fill-rule="evenodd" fill-opacity="1" /><path clip-path="url(#clip400)" d="M 0 0 M1510.51 45.1919 L1510.51 72.576 L1503.05 72.576 L1503.05 45.4349 Q1503.05 38.994 1500.54 35.7938 Q1498.03 32.5936 1493.01 32.5936 Q1486.97 32.5936 1483.49 36.4419 Q1480.01 40.2903 1480.01 46.9338 L1480.01 72.576 L1472.51 72.576 L1472.51 27.2059 L1480.01 27.2059 L1480.01 34.2544 Q1482.68 30.163 1486.28 28.1376 Q1489.93 26.1121 1494.67 26.1121 Q1502.49 26.1121 1506.5 30.9732 Q1510.51 35.7938 1510.51 45.1919 Z" fill="#000000" fill-rule="evenodd" fill-opacity="1" /><path clip-path="url(#clip400)" d="M 0 0 M1548.18 49.3643 Q1548.18 41.2625 1544.82 36.8065 Q1541.5 32.3505 1535.46 32.3505 Q1529.47 32.3505 1526.1 36.8065 Q1522.78 41.2625 1522.78 49.3643 Q1522.78 57.4256 1526.1 61.8816 Q1529.47 66.3376 1535.46 66.3376 Q1541.5 66.3376 1544.82 61.8816 Q1548.18 57.4256 1548.18 49.3643 M1555.64 66.9452 Q1555.64 78.5308 1550.49 84.1616 Q1545.35 89.8329 1534.73 89.8329 Q1530.8 89.8329 1527.32 89.2252 Q1523.84 88.6581 1520.55 87.4428 L1520.55 80.1917 Q1523.84 81.9741 1527.04 82.8248 Q1530.24 83.6755 1533.56 83.6755 Q1540.89 83.6755 1544.54 79.8271 Q1548.18 76.0193 1548.18 68.282 L1548.18 64.5957 Q1545.87 68.6061 1542.27 70.5911 Q1538.66 72.576 1533.64 72.576 Q1525.29 72.576 1520.19 66.2161 Q1515.09 59.8562 1515.09 49.3643 Q1515.09 38.832 1520.19 32.472 Q1525.29 26.1121 1533.64 26.1121 Q1538.66 26.1121 1542.27 28.0971 Q1545.87 30.082 1548.18 34.0924 L1548.18 27.2059 L1555.64 27.2059 L1555.64 66.9452 Z" fill="#000000" fill-rule="evenodd" fill-opacity="1" /><polyline clip-path="url(#clip402)" style="stroke:#009af9; stroke-width:4; stroke-opacity:1; fill:none" points="
  283.538,1386.4 288.442,1386.25 293.347,1385.98 298.252,1385.63 303.157,1385.21 348.508,1379.26 393.86,1370.62 439.211,1359.95 484.563,1347.58 539.072,1330.77 
  593.581,1312.06 639.667,1294.88 685.754,1276.55 785.879,1233.08 878.186,1188.94 977.149,1137.65 1091.81,1073.48 1142.76,1043.44 1193.7,1012.49 1216.04,998.637 
  1238.38,985.103 1260.72,985.103 1283.06,985.103 1331.76,985.103 1380.47,985.103 1429.47,985.103 1478.47,985.103 1586.82,985.103 1689.91,985.103 1797.1,985.103 
  1887.33,985.103 1997.49,985.103 2101.05,985.103 2266.96,985.103 2292.49,985.103 
  "/>
<polyline clip-path="url(#clip402)" style="stroke:#e26f46; stroke-width:4; stroke-opacity:1; fill:none" points="
  283.538,1386.4 303.157,1385.21 484.563,1347.58 593.581,1312.06 685.754,1276.55 785.879,1233.08 878.186,1188.94 977.149,1137.65 1091.81,1073.48 1193.7,1012.49 
  1283.06,956.095 1380.47,891.677 1478.47,823.923 1586.82,745.712 1689.91,668.21 1797.1,584.557 1887.33,511.796 1997.49,420.153 2101.05,331.274 2266.96,183.557 
  2292.49,160.256 
  "/>
<path clip-path="url(#clip400)" d="
M294.252 348.236 L825.397 348.236 L825.397 166.796 L294.252 166.796  Z
  " fill="#ffffff" fill-rule="evenodd" fill-opacity="1"/>
<polyline clip-path="url(#clip400)" style="stroke:#000000; stroke-width:4; stroke-opacity:1; fill:none" points="
  294.252,348.236 825.397,348.236 825.397,166.796 294.252,166.796 294.252,348.236 
  "/>
<polyline clip-path="url(#clip400)" style="stroke:#009af9; stroke-width:4; stroke-opacity:1; fill:none" points="
  317.913,227.276 459.879,227.276 
  "/>
<path clip-path="url(#clip400)" d="M 0 0 M504.049 219.625 L504.049 223.607 Q502.243 222.611 500.415 222.125 Q498.609 221.616 496.757 221.616 Q492.614 221.616 490.322 224.255 Q488.03 226.871 488.03 231.616 Q488.03 236.361 490.322 239 Q492.614 241.616 496.757 241.616 Q498.609 241.616 500.415 241.13 Q502.243 240.621 504.049 239.625 L504.049 243.56 Q502.266 244.394 500.345 244.81 Q498.447 245.227 496.294 245.227 Q490.438 245.227 486.989 241.546 Q483.54 237.866 483.54 231.616 Q483.54 225.273 487.012 221.639 Q490.507 218.005 496.572 218.005 Q498.54 218.005 500.415 218.422 Q502.29 218.815 504.049 219.625 Z" fill="#000000" fill-rule="evenodd" fill-opacity="1" /><path clip-path="url(#clip400)" d="M 0 0 M518.563 221.616 Q515.137 221.616 513.146 224.301 Q511.155 226.963 511.155 231.616 Q511.155 236.269 513.123 238.954 Q515.114 241.616 518.563 241.616 Q521.965 241.616 523.956 238.931 Q525.947 236.246 525.947 231.616 Q525.947 227.01 523.956 224.324 Q521.965 221.616 518.563 221.616 M518.563 218.005 Q524.118 218.005 527.289 221.616 Q530.461 225.227 530.461 231.616 Q530.461 237.982 527.289 241.616 Q524.118 245.227 518.563 245.227 Q512.984 245.227 509.813 241.616 Q506.665 237.982 506.665 231.616 Q506.665 225.227 509.813 221.616 Q512.984 218.005 518.563 218.005 Z" fill="#000000" fill-rule="evenodd" fill-opacity="1" /><path clip-path="url(#clip400)" d="M 0 0 M556.479 228.908 L556.479 244.556 L552.22 244.556 L552.22 229.047 Q552.22 225.366 550.785 223.537 Q549.349 221.709 546.479 221.709 Q543.03 221.709 541.039 223.908 Q539.049 226.107 539.049 229.903 L539.049 244.556 L534.766 244.556 L534.766 218.63 L539.049 218.63 L539.049 222.658 Q540.576 220.32 542.637 219.162 Q544.72 218.005 547.428 218.005 Q551.896 218.005 554.187 220.783 Q556.479 223.537 556.479 228.908 Z" fill="#000000" fill-rule="evenodd" fill-opacity="1" /><path clip-path="url(#clip400)" d="M 0 0 M577.474 219.394 L577.474 223.422 Q575.669 222.496 573.724 222.033 Q571.78 221.57 569.697 221.57 Q566.525 221.57 564.928 222.542 Q563.354 223.514 563.354 225.459 Q563.354 226.94 564.488 227.797 Q565.623 228.63 569.048 229.394 L570.507 229.718 Q575.044 230.69 576.942 232.472 Q578.863 234.232 578.863 237.403 Q578.863 241.014 575.993 243.121 Q573.146 245.227 568.146 245.227 Q566.062 245.227 563.794 244.81 Q561.548 244.417 559.048 243.607 L559.048 239.209 Q561.41 240.435 563.701 241.06 Q565.993 241.662 568.238 241.662 Q571.248 241.662 572.868 240.644 Q574.488 239.602 574.488 237.727 Q574.488 235.991 573.308 235.065 Q572.15 234.139 568.192 233.283 L566.71 232.935 Q562.752 232.102 560.993 230.389 Q559.234 228.653 559.234 225.644 Q559.234 221.986 561.826 219.996 Q564.419 218.005 569.187 218.005 Q571.548 218.005 573.632 218.352 Q575.715 218.699 577.474 219.394 Z" fill="#000000" fill-rule="evenodd" fill-opacity="1" /><path clip-path="url(#clip400)" d="M 0 0 M587.544 211.269 L587.544 218.63 L596.317 218.63 L596.317 221.94 L587.544 221.94 L587.544 236.014 Q587.544 239.185 588.4 240.088 Q589.28 240.991 591.942 240.991 L596.317 240.991 L596.317 244.556 L591.942 244.556 Q587.011 244.556 585.136 242.727 Q583.261 240.875 583.261 236.014 L583.261 221.94 L580.136 221.94 L580.136 218.63 L583.261 218.63 L583.261 211.269 L587.544 211.269 Z" fill="#000000" fill-rule="evenodd" fill-opacity="1" /><path clip-path="url(#clip400)" d="M 0 0 M615.807 222.611 Q615.09 222.195 614.233 222.01 Q613.4 221.801 612.382 221.801 Q608.77 221.801 606.826 224.162 Q604.905 226.5 604.905 230.898 L604.905 244.556 L600.622 244.556 L600.622 218.63 L604.905 218.63 L604.905 222.658 Q606.247 220.297 608.4 219.162 Q610.553 218.005 613.632 218.005 Q614.071 218.005 614.604 218.074 Q615.136 218.121 615.784 218.236 L615.807 222.611 Z" fill="#000000" fill-rule="evenodd" fill-opacity="1" /><path clip-path="url(#clip400)" d="M 0 0 M632.057 231.523 Q626.895 231.523 624.905 232.704 Q622.914 233.884 622.914 236.732 Q622.914 239 624.395 240.343 Q625.9 241.662 628.469 241.662 Q632.011 241.662 634.141 239.162 Q636.293 236.639 636.293 232.472 L636.293 231.523 L632.057 231.523 M640.553 229.764 L640.553 244.556 L636.293 244.556 L636.293 240.621 Q634.835 242.982 632.659 244.116 Q630.483 245.227 627.335 245.227 Q623.354 245.227 620.993 243.005 Q618.655 240.759 618.655 237.009 Q618.655 232.634 621.571 230.412 Q624.511 228.19 630.321 228.19 L636.293 228.19 L636.293 227.773 Q636.293 224.834 634.349 223.236 Q632.428 221.616 628.932 221.616 Q626.71 221.616 624.604 222.148 Q622.497 222.681 620.553 223.746 L620.553 219.81 Q622.891 218.908 625.09 218.468 Q627.289 218.005 629.372 218.005 Q634.997 218.005 637.775 220.922 Q640.553 223.838 640.553 229.764 Z" fill="#000000" fill-rule="evenodd" fill-opacity="1" /><path clip-path="url(#clip400)" d="M 0 0 M645.02 218.63 L649.279 218.63 L649.279 244.556 L645.02 244.556 L645.02 218.63 M645.02 208.537 L649.279 208.537 L649.279 213.931 L645.02 213.931 L645.02 208.537 Z" fill="#000000" fill-rule="evenodd" fill-opacity="1" /><path clip-path="url(#clip400)" d="M 0 0 M675.298 228.908 L675.298 244.556 L671.039 244.556 L671.039 229.047 Q671.039 225.366 669.603 223.537 Q668.168 221.709 665.298 221.709 Q661.849 221.709 659.858 223.908 Q657.867 226.107 657.867 229.903 L657.867 244.556 L653.585 244.556 L653.585 218.63 L657.867 218.63 L657.867 222.658 Q659.395 220.32 661.455 219.162 Q663.539 218.005 666.247 218.005 Q670.715 218.005 673.006 220.783 Q675.298 223.537 675.298 228.908 Z" fill="#000000" fill-rule="evenodd" fill-opacity="1" /><path clip-path="url(#clip400)" d="M 0 0 M701.941 230.528 L701.941 232.611 L682.358 232.611 Q682.636 237.009 684.997 239.324 Q687.381 241.616 691.617 241.616 Q694.071 241.616 696.363 241.014 Q698.677 240.412 700.946 239.209 L700.946 243.236 Q698.654 244.208 696.247 244.718 Q693.839 245.227 691.363 245.227 Q685.159 245.227 681.525 241.616 Q677.914 238.005 677.914 231.847 Q677.914 225.482 681.34 221.755 Q684.789 218.005 690.622 218.005 Q695.853 218.005 698.886 221.385 Q701.941 224.741 701.941 230.528 M697.682 229.278 Q697.636 225.783 695.714 223.699 Q693.816 221.616 690.668 221.616 Q687.103 221.616 684.951 223.63 Q682.821 225.644 682.497 229.301 L697.682 229.278 Z" fill="#000000" fill-rule="evenodd" fill-opacity="1" /><path clip-path="url(#clip400)" d="M 0 0 M723.469 222.565 L723.469 208.537 L727.728 208.537 L727.728 244.556 L723.469 244.556 L723.469 240.667 Q722.126 242.982 720.066 244.116 Q718.029 245.227 715.159 245.227 Q710.46 245.227 707.497 241.477 Q704.557 237.727 704.557 231.616 Q704.557 225.505 707.497 221.755 Q710.46 218.005 715.159 218.005 Q718.029 218.005 720.066 219.139 Q722.126 220.25 723.469 222.565 M708.955 231.616 Q708.955 236.315 710.876 239 Q712.821 241.662 716.2 241.662 Q719.58 241.662 721.524 239 Q723.469 236.315 723.469 231.616 Q723.469 226.917 721.524 224.255 Q719.58 221.57 716.2 221.57 Q712.821 221.57 710.876 224.255 Q708.955 226.917 708.955 231.616 Z" fill="#000000" fill-rule="evenodd" fill-opacity="1" /><polyline clip-path="url(#clip400)" style="stroke:#e26f46; stroke-width:4; stroke-opacity:1; fill:none" points="
  317.913,287.756 459.879,287.756 
  "/>
<path clip-path="url(#clip400)" d="M 0 0 M483.54 294.804 L483.54 279.11 L487.799 279.11 L487.799 294.642 Q487.799 298.323 489.234 300.175 Q490.669 302.003 493.54 302.003 Q496.989 302.003 498.979 299.804 Q500.993 297.605 500.993 293.809 L500.993 279.11 L505.252 279.11 L505.252 305.036 L500.993 305.036 L500.993 301.054 Q499.442 303.415 497.382 304.573 Q495.345 305.707 492.637 305.707 Q488.169 305.707 485.854 302.929 Q483.54 300.151 483.54 294.804 M494.257 278.485 L494.257 278.485 Z" fill="#000000" fill-rule="evenodd" fill-opacity="1" /><path clip-path="url(#clip400)" d="M 0 0 M531.271 289.388 L531.271 305.036 L527.012 305.036 L527.012 289.527 Q527.012 285.846 525.576 284.017 Q524.141 282.189 521.271 282.189 Q517.822 282.189 515.831 284.388 Q513.84 286.587 513.84 290.383 L513.84 305.036 L509.558 305.036 L509.558 279.11 L513.84 279.11 L513.84 283.138 Q515.368 280.8 517.428 279.642 Q519.512 278.485 522.22 278.485 Q526.688 278.485 528.979 281.263 Q531.271 284.017 531.271 289.388 Z" fill="#000000" fill-rule="evenodd" fill-opacity="1" /><path clip-path="url(#clip400)" d="M 0 0 M554.396 280.105 L554.396 284.087 Q552.59 283.091 550.762 282.605 Q548.956 282.096 547.104 282.096 Q542.961 282.096 540.669 284.735 Q538.377 287.351 538.377 292.096 Q538.377 296.841 540.669 299.48 Q542.961 302.096 547.104 302.096 Q548.956 302.096 550.762 301.61 Q552.59 301.101 554.396 300.105 L554.396 304.04 Q552.613 304.874 550.692 305.29 Q548.794 305.707 546.641 305.707 Q540.785 305.707 537.336 302.026 Q533.887 298.346 533.887 292.096 Q533.887 285.753 537.359 282.119 Q540.854 278.485 546.919 278.485 Q548.887 278.485 550.762 278.902 Q552.636 279.295 554.396 280.105 Z" fill="#000000" fill-rule="evenodd" fill-opacity="1" /><path clip-path="url(#clip400)" d="M 0 0 M568.91 282.096 Q565.484 282.096 563.493 284.781 Q561.502 287.443 561.502 292.096 Q561.502 296.749 563.47 299.434 Q565.461 302.096 568.91 302.096 Q572.312 302.096 574.303 299.411 Q576.294 296.726 576.294 292.096 Q576.294 287.49 574.303 284.804 Q572.312 282.096 568.91 282.096 M568.91 278.485 Q574.465 278.485 577.636 282.096 Q580.808 285.707 580.808 292.096 Q580.808 298.462 577.636 302.096 Q574.465 305.707 568.91 305.707 Q563.331 305.707 560.16 302.096 Q557.011 298.462 557.011 292.096 Q557.011 285.707 560.16 282.096 Q563.331 278.485 568.91 278.485 Z" fill="#000000" fill-rule="evenodd" fill-opacity="1" /><path clip-path="url(#clip400)" d="M 0 0 M606.826 289.388 L606.826 305.036 L602.567 305.036 L602.567 289.527 Q602.567 285.846 601.132 284.017 Q599.696 282.189 596.826 282.189 Q593.377 282.189 591.386 284.388 Q589.396 286.587 589.396 290.383 L589.396 305.036 L585.113 305.036 L585.113 279.11 L589.396 279.11 L589.396 283.138 Q590.923 280.8 592.984 279.642 Q595.067 278.485 597.775 278.485 Q602.243 278.485 604.534 281.263 Q606.826 284.017 606.826 289.388 Z" fill="#000000" fill-rule="evenodd" fill-opacity="1" /><path clip-path="url(#clip400)" d="M 0 0 M627.821 279.874 L627.821 283.902 Q626.016 282.976 624.071 282.513 Q622.127 282.05 620.044 282.05 Q616.872 282.05 615.275 283.022 Q613.701 283.994 613.701 285.939 Q613.701 287.42 614.835 288.277 Q615.969 289.11 619.395 289.874 L620.854 290.198 Q625.391 291.17 627.289 292.952 Q629.21 294.712 629.21 297.883 Q629.21 301.494 626.34 303.601 Q623.493 305.707 618.493 305.707 Q616.409 305.707 614.141 305.29 Q611.895 304.897 609.395 304.087 L609.395 299.689 Q611.757 300.915 614.048 301.54 Q616.34 302.142 618.585 302.142 Q621.594 302.142 623.215 301.124 Q624.835 300.082 624.835 298.207 Q624.835 296.471 623.655 295.545 Q622.497 294.619 618.539 293.763 L617.057 293.415 Q613.099 292.582 611.34 290.869 Q609.581 289.133 609.581 286.124 Q609.581 282.466 612.173 280.476 Q614.766 278.485 619.534 278.485 Q621.895 278.485 623.979 278.832 Q626.062 279.179 627.821 279.874 Z" fill="#000000" fill-rule="evenodd" fill-opacity="1" /><path clip-path="url(#clip400)" d="M 0 0 M637.891 271.749 L637.891 279.11 L646.664 279.11 L646.664 282.42 L637.891 282.42 L637.891 296.494 Q637.891 299.665 638.747 300.568 Q639.627 301.471 642.289 301.471 L646.664 301.471 L646.664 305.036 L642.289 305.036 Q637.358 305.036 635.483 303.207 Q633.608 301.355 633.608 296.494 L633.608 282.42 L630.483 282.42 L630.483 279.11 L633.608 279.11 L633.608 271.749 L637.891 271.749 Z" fill="#000000" fill-rule="evenodd" fill-opacity="1" /><path clip-path="url(#clip400)" d="M 0 0 M666.154 283.091 Q665.437 282.675 664.58 282.49 Q663.747 282.281 662.728 282.281 Q659.117 282.281 657.173 284.642 Q655.252 286.98 655.252 291.378 L655.252 305.036 L650.969 305.036 L650.969 279.11 L655.252 279.11 L655.252 283.138 Q656.594 280.777 658.747 279.642 Q660.9 278.485 663.978 278.485 Q664.418 278.485 664.951 278.554 Q665.483 278.601 666.131 278.716 L666.154 283.091 Z" fill="#000000" fill-rule="evenodd" fill-opacity="1" /><path clip-path="url(#clip400)" d="M 0 0 M682.404 292.003 Q677.242 292.003 675.252 293.184 Q673.261 294.364 673.261 297.212 Q673.261 299.48 674.742 300.823 Q676.247 302.142 678.816 302.142 Q682.358 302.142 684.488 299.642 Q686.64 297.119 686.64 292.952 L686.64 292.003 L682.404 292.003 M690.9 290.244 L690.9 305.036 L686.64 305.036 L686.64 301.101 Q685.182 303.462 683.006 304.596 Q680.83 305.707 677.682 305.707 Q673.701 305.707 671.34 303.485 Q669.002 301.239 669.002 297.489 Q669.002 293.114 671.918 290.892 Q674.858 288.67 680.668 288.67 L686.64 288.67 L686.64 288.253 Q686.64 285.314 684.696 283.716 Q682.775 282.096 679.279 282.096 Q677.057 282.096 674.951 282.628 Q672.844 283.161 670.9 284.226 L670.9 280.29 Q673.238 279.388 675.437 278.948 Q677.636 278.485 679.719 278.485 Q685.344 278.485 688.122 281.402 Q690.9 284.318 690.9 290.244 Z" fill="#000000" fill-rule="evenodd" fill-opacity="1" /><path clip-path="url(#clip400)" d="M 0 0 M695.367 279.11 L699.626 279.11 L699.626 305.036 L695.367 305.036 L695.367 279.11 M695.367 269.017 L699.626 269.017 L699.626 274.411 L695.367 274.411 L695.367 269.017 Z" fill="#000000" fill-rule="evenodd" fill-opacity="1" /><path clip-path="url(#clip400)" d="M 0 0 M725.645 289.388 L725.645 305.036 L721.386 305.036 L721.386 289.527 Q721.386 285.846 719.95 284.017 Q718.515 282.189 715.645 282.189 Q712.196 282.189 710.205 284.388 Q708.214 286.587 708.214 290.383 L708.214 305.036 L703.932 305.036 L703.932 279.11 L708.214 279.11 L708.214 283.138 Q709.742 280.8 711.802 279.642 Q713.886 278.485 716.594 278.485 Q721.062 278.485 723.353 281.263 Q725.645 284.017 725.645 289.388 Z" fill="#000000" fill-rule="evenodd" fill-opacity="1" /><path clip-path="url(#clip400)" d="M 0 0 M752.288 291.008 L752.288 293.091 L732.705 293.091 Q732.983 297.489 735.344 299.804 Q737.728 302.096 741.964 302.096 Q744.418 302.096 746.71 301.494 Q749.024 300.892 751.293 299.689 L751.293 303.716 Q749.001 304.688 746.594 305.198 Q744.186 305.707 741.71 305.707 Q735.506 305.707 731.872 302.096 Q728.261 298.485 728.261 292.327 Q728.261 285.962 731.686 282.235 Q735.136 278.485 740.969 278.485 Q746.2 278.485 749.233 281.865 Q752.288 285.221 752.288 291.008 M748.029 289.758 Q747.983 286.263 746.061 284.179 Q744.163 282.096 741.015 282.096 Q737.45 282.096 735.298 284.11 Q733.168 286.124 732.844 289.781 L748.029 289.758 Z" fill="#000000" fill-rule="evenodd" fill-opacity="1" /><path clip-path="url(#clip400)" d="M 0 0 M773.816 283.045 L773.816 269.017 L778.075 269.017 L778.075 305.036 L773.816 305.036 L773.816 301.147 Q772.473 303.462 770.413 304.596 Q768.376 305.707 765.506 305.707 Q760.807 305.707 757.844 301.957 Q754.904 298.207 754.904 292.096 Q754.904 285.985 757.844 282.235 Q760.807 278.485 765.506 278.485 Q768.376 278.485 770.413 279.619 Q772.473 280.73 773.816 283.045 M759.302 292.096 Q759.302 296.795 761.223 299.48 Q763.168 302.142 766.547 302.142 Q769.927 302.142 771.871 299.48 Q773.816 296.795 773.816 292.096 Q773.816 287.397 771.871 284.735 Q769.927 282.05 766.547 282.05 Q763.168 282.05 761.223 284.735 Q759.302 287.397 759.302 292.096 Z" fill="#000000" fill-rule="evenodd" fill-opacity="1" /></svg>
