<?xml version="1.0" encoding="utf-8"?>
<svg xmlns="http://www.w3.org/2000/svg" xmlns:xlink="http://www.w3.org/1999/xlink" width="600" height="400" viewBox="0 0 2400 1600">
<defs>
  <clipPath id="clip440">
    <rect x="0" y="0" width="2400" height="1600"/>
  </clipPath>
</defs>
<path clip-path="url(#clip440)" d="
M0 1600 L2400 1600 L2400 0 L0 0  Z
  " fill="#ffffff" fill-rule="evenodd" fill-opacity="1"/>
<defs>
  <clipPath id="clip441">
    <rect x="480" y="0" width="1681" height="1600"/>
  </clipPath>
</defs>
<path clip-path="url(#clip440)" d="
M298.847 1423.18 L2352.76 1423.18 L2352.76 123.472 L298.847 123.472  Z
  " fill="#ffffff" fill-rule="evenodd" fill-opacity="1"/>
<defs>
  <clipPath id="clip442">
    <rect x="298" y="123" width="2055" height="1301"/>
  </clipPath>
</defs>
<polyline clip-path="url(#clip442)" style="stroke:#000000; stroke-width:2; stroke-opacity:0.1; fill:none" points="
  356.977,1423.18 356.977,123.472 
  "/>
<polyline clip-path="url(#clip442)" style="stroke:#000000; stroke-width:2; stroke-opacity:0.1; fill:none" points="
  799.655,1423.18 799.655,123.472 
  "/>
<polyline clip-path="url(#clip442)" style="stroke:#000000; stroke-width:2; stroke-opacity:0.1; fill:none" points="
  1242.33,1423.18 1242.33,123.472 
  "/>
<polyline clip-path="url(#clip442)" style="stroke:#000000; stroke-width:2; stroke-opacity:0.1; fill:none" points="
  1685.01,1423.18 1685.01,123.472 
  "/>
<polyline clip-path="url(#clip442)" style="stroke:#000000; stroke-width:2; stroke-opacity:0.1; fill:none" points="
  2127.69,1423.18 2127.69,123.472 
  "/>
<polyline clip-path="url(#clip440)" style="stroke:#000000; stroke-width:4; stroke-opacity:1; fill:none" points="
  298.847,1423.18 2352.76,1423.18 
  "/>
<polyline clip-path="url(#clip440)" style="stroke:#000000; stroke-width:4; stroke-opacity:1; fill:none" points="
  356.977,1423.18 356.977,1407.58 
  "/>
<polyline clip-path="url(#clip440)" style="stroke:#000000; stroke-width:4; stroke-opacity:1; fill:none" points="
  799.655,1423.18 799.655,1407.58 
  "/>
<polyline clip-path="url(#clip440)" style="stroke:#000000; stroke-width:4; stroke-opacity:1; fill:none" points="
  1242.33,1423.18 1242.33,1407.58 
  "/>
<polyline clip-path="url(#clip440)" style="stroke:#000000; stroke-width:4; stroke-opacity:1; fill:none" points="
  1685.01,1423.18 1685.01,1407.58 
  "/>
<polyline clip-path="url(#clip440)" style="stroke:#000000; stroke-width:4; stroke-opacity:1; fill:none" points="
  2127.69,1423.18 2127.69,1407.58 
  "/>
<path clip-path="url(#clip440)" d="M 0 0 M284.465 1452.37 Q280.854 1452.37 279.026 1455.94 Q277.22 1459.48 277.22 1466.61 Q277.22 1473.71 279.026 1477.28 Q280.854 1480.82 284.465 1480.82 Q288.1 1480.82 289.905 1477.28 Q291.734 1473.71 291.734 1466.61 Q291.734 1459.48 289.905 1455.94 Q288.1 1452.37 284.465 1452.37 M284.465 1448.67 Q290.276 1448.67 293.331 1453.27 Q296.41 1457.86 296.41 1466.61 Q296.41 1475.33 293.331 1479.94 Q290.276 1484.52 284.465 1484.52 Q278.655 1484.52 275.577 1479.94 Q272.521 1475.33 272.521 1466.61 Q272.521 1457.86 275.577 1453.27 Q278.655 1448.67 284.465 1448.67 Z" fill="#000000" fill-rule="evenodd" fill-opacity="1" /><path clip-path="url(#clip440)" d="M 0 0 M301.479 1477.97 L306.364 1477.97 L306.364 1483.85 L301.479 1483.85 L301.479 1477.97 Z" fill="#000000" fill-rule="evenodd" fill-opacity="1" /><path clip-path="url(#clip440)" d="M 0 0 M321.433 1452.37 Q317.822 1452.37 315.993 1455.94 Q314.188 1459.48 314.188 1466.61 Q314.188 1473.71 315.993 1477.28 Q317.822 1480.82 321.433 1480.82 Q325.067 1480.82 326.873 1477.28 Q328.701 1473.71 328.701 1466.61 Q328.701 1459.48 326.873 1455.94 Q325.067 1452.37 321.433 1452.37 M321.433 1448.67 Q327.243 1448.67 330.299 1453.27 Q333.377 1457.86 333.377 1466.61 Q333.377 1475.33 330.299 1479.94 Q327.243 1484.52 321.433 1484.52 Q315.623 1484.52 312.544 1479.94 Q309.489 1475.33 309.489 1466.61 Q309.489 1457.86 312.544 1453.27 Q315.623 1448.67 321.433 1448.67 Z" fill="#000000" fill-rule="evenodd" fill-opacity="1" /><path clip-path="url(#clip440)" d="M 0 0 M348.447 1452.37 Q344.836 1452.37 343.007 1455.94 Q341.201 1459.48 341.201 1466.61 Q341.201 1473.71 343.007 1477.28 Q344.836 1480.82 348.447 1480.82 Q352.081 1480.82 353.886 1477.28 Q355.715 1473.71 355.715 1466.61 Q355.715 1459.48 353.886 1455.94 Q352.081 1452.37 348.447 1452.37 M348.447 1448.67 Q354.257 1448.67 357.312 1453.27 Q360.391 1457.86 360.391 1466.61 Q360.391 1475.33 357.312 1479.94 Q354.257 1484.52 348.447 1484.52 Q342.636 1484.52 339.558 1479.94 Q336.502 1475.33 336.502 1466.61 Q336.502 1457.86 339.558 1453.27 Q342.636 1448.67 348.447 1448.67 Z" fill="#000000" fill-rule="evenodd" fill-opacity="1" /><path clip-path="url(#clip440)" d="M 0 0 M375.46 1452.37 Q371.849 1452.37 370.021 1455.94 Q368.215 1459.48 368.215 1466.61 Q368.215 1473.71 370.021 1477.28 Q371.849 1480.82 375.46 1480.82 Q379.095 1480.82 380.9 1477.28 Q382.729 1473.71 382.729 1466.61 Q382.729 1459.48 380.9 1455.94 Q379.095 1452.37 375.46 1452.37 M375.46 1448.67 Q381.271 1448.67 384.326 1453.27 Q387.405 1457.86 387.405 1466.61 Q387.405 1475.33 384.326 1479.94 Q381.271 1484.52 375.46 1484.52 Q369.65 1484.52 366.572 1479.94 Q363.516 1475.33 363.516 1466.61 Q363.516 1457.86 366.572 1453.27 Q369.65 1448.67 375.46 1448.67 Z" fill="#000000" fill-rule="evenodd" fill-opacity="1" /><path clip-path="url(#clip440)" d="M 0 0 M402.474 1452.37 Q398.863 1452.37 397.034 1455.94 Q395.229 1459.48 395.229 1466.61 Q395.229 1473.71 397.034 1477.28 Q398.863 1480.82 402.474 1480.82 Q406.108 1480.82 407.914 1477.28 Q409.743 1473.71 409.743 1466.61 Q409.743 1459.48 407.914 1455.94 Q406.108 1452.37 402.474 1452.37 M402.474 1448.67 Q408.284 1448.67 411.34 1453.27 Q414.418 1457.86 414.418 1466.61 Q414.418 1475.33 411.34 1479.94 Q408.284 1484.52 402.474 1484.52 Q396.664 1484.52 393.585 1479.94 Q390.53 1475.33 390.53 1466.61 Q390.53 1457.86 393.585 1453.27 Q396.664 1448.67 402.474 1448.67 Z" fill="#000000" fill-rule="evenodd" fill-opacity="1" /><path clip-path="url(#clip440)" d="M 0 0 M429.488 1452.37 Q425.877 1452.37 424.048 1455.94 Q422.243 1459.48 422.243 1466.61 Q422.243 1473.71 424.048 1477.28 Q425.877 1480.82 429.488 1480.82 Q433.122 1480.82 434.928 1477.28 Q436.756 1473.71 436.756 1466.61 Q436.756 1459.48 434.928 1455.94 Q433.122 1452.37 429.488 1452.37 M429.488 1448.67 Q435.298 1448.67 438.354 1453.27 Q441.432 1457.86 441.432 1466.61 Q441.432 1475.33 438.354 1479.94 Q435.298 1484.52 429.488 1484.52 Q423.678 1484.52 420.599 1479.94 Q417.543 1475.33 417.543 1466.61 Q417.543 1457.86 420.599 1453.27 Q423.678 1448.67 429.488 1448.67 Z" fill="#000000" fill-rule="evenodd" fill-opacity="1" /><path clip-path="url(#clip440)" d="M 0 0 M727.642 1452.37 Q724.031 1452.37 722.202 1455.94 Q720.397 1459.48 720.397 1466.61 Q720.397 1473.71 722.202 1477.28 Q724.031 1480.82 727.642 1480.82 Q731.276 1480.82 733.082 1477.28 Q734.91 1473.71 734.91 1466.61 Q734.91 1459.48 733.082 1455.94 Q731.276 1452.37 727.642 1452.37 M727.642 1448.67 Q733.452 1448.67 736.508 1453.27 Q739.586 1457.86 739.586 1466.61 Q739.586 1475.33 736.508 1479.94 Q733.452 1484.52 727.642 1484.52 Q721.832 1484.52 718.753 1479.94 Q715.698 1475.33 715.698 1466.61 Q715.698 1457.86 718.753 1453.27 Q721.832 1448.67 727.642 1448.67 Z" fill="#000000" fill-rule="evenodd" fill-opacity="1" /><path clip-path="url(#clip440)" d="M 0 0 M744.656 1477.97 L749.54 1477.97 L749.54 1483.85 L744.656 1483.85 L744.656 1477.97 Z" fill="#000000" fill-rule="evenodd" fill-opacity="1" /><path clip-path="url(#clip440)" d="M 0 0 M764.609 1452.37 Q760.998 1452.37 759.17 1455.94 Q757.364 1459.48 757.364 1466.61 Q757.364 1473.71 759.17 1477.28 Q760.998 1480.82 764.609 1480.82 Q768.244 1480.82 770.049 1477.28 Q771.878 1473.71 771.878 1466.61 Q771.878 1459.48 770.049 1455.94 Q768.244 1452.37 764.609 1452.37 M764.609 1448.67 Q770.419 1448.67 773.475 1453.27 Q776.554 1457.86 776.554 1466.61 Q776.554 1475.33 773.475 1479.94 Q770.419 1484.52 764.609 1484.52 Q758.799 1484.52 755.72 1479.94 Q752.665 1475.33 752.665 1466.61 Q752.665 1457.86 755.72 1453.27 Q758.799 1448.67 764.609 1448.67 Z" fill="#000000" fill-rule="evenodd" fill-opacity="1" /><path clip-path="url(#clip440)" d="M 0 0 M791.623 1452.37 Q788.012 1452.37 786.183 1455.94 Q784.378 1459.48 784.378 1466.61 Q784.378 1473.71 786.183 1477.28 Q788.012 1480.82 791.623 1480.82 Q795.257 1480.82 797.063 1477.28 Q798.892 1473.71 798.892 1466.61 Q798.892 1459.48 797.063 1455.94 Q795.257 1452.37 791.623 1452.37 M791.623 1448.67 Q797.433 1448.67 800.489 1453.27 Q803.567 1457.86 803.567 1466.61 Q803.567 1475.33 800.489 1479.94 Q797.433 1484.52 791.623 1484.52 Q785.813 1484.52 782.734 1479.94 Q779.679 1475.33 779.679 1466.61 Q779.679 1457.86 782.734 1453.27 Q785.813 1448.67 791.623 1448.67 Z" fill="#000000" fill-rule="evenodd" fill-opacity="1" /><path clip-path="url(#clip440)" d="M 0 0 M818.637 1452.37 Q815.026 1452.37 813.197 1455.94 Q811.391 1459.48 811.391 1466.61 Q811.391 1473.71 813.197 1477.28 Q815.026 1480.82 818.637 1480.82 Q822.271 1480.82 824.077 1477.28 Q825.905 1473.71 825.905 1466.61 Q825.905 1459.48 824.077 1455.94 Q822.271 1452.37 818.637 1452.37 M818.637 1448.67 Q824.447 1448.67 827.503 1453.27 Q830.581 1457.86 830.581 1466.61 Q830.581 1475.33 827.503 1479.94 Q824.447 1484.52 818.637 1484.52 Q812.827 1484.52 809.748 1479.94 Q806.692 1475.33 806.692 1466.61 Q806.692 1457.86 809.748 1453.27 Q812.827 1448.67 818.637 1448.67 Z" fill="#000000" fill-rule="evenodd" fill-opacity="1" /><path clip-path="url(#clip440)" d="M 0 0 M845.651 1452.37 Q842.039 1452.37 840.211 1455.94 Q838.405 1459.48 838.405 1466.61 Q838.405 1473.71 840.211 1477.28 Q842.039 1480.82 845.651 1480.82 Q849.285 1480.82 851.09 1477.28 Q852.919 1473.71 852.919 1466.61 Q852.919 1459.48 851.09 1455.94 Q849.285 1452.37 845.651 1452.37 M845.651 1448.67 Q851.461 1448.67 854.516 1453.27 Q857.595 1457.86 857.595 1466.61 Q857.595 1475.33 854.516 1479.94 Q851.461 1484.52 845.651 1484.52 Q839.84 1484.52 836.762 1479.94 Q833.706 1475.33 833.706 1466.61 Q833.706 1457.86 836.762 1453.27 Q839.84 1448.67 845.651 1448.67 Z" fill="#000000" fill-rule="evenodd" fill-opacity="1" /><path clip-path="url(#clip440)" d="M 0 0 M862.711 1449.29 L881.067 1449.29 L881.067 1453.23 L866.993 1453.23 L866.993 1461.7 Q868.012 1461.35 869.03 1461.19 Q870.049 1461 871.067 1461 Q876.854 1461 880.234 1464.18 Q883.613 1467.35 883.613 1472.76 Q883.613 1478.34 880.141 1481.44 Q876.669 1484.52 870.35 1484.52 Q868.174 1484.52 865.905 1484.15 Q863.66 1483.78 861.252 1483.04 L861.252 1478.34 Q863.336 1479.48 865.558 1480.03 Q867.78 1480.59 870.257 1480.59 Q874.262 1480.59 876.599 1478.48 Q878.937 1476.38 878.937 1472.76 Q878.937 1469.15 876.599 1467.05 Q874.262 1464.94 870.257 1464.94 Q868.382 1464.94 866.507 1465.36 Q864.655 1465.77 862.711 1466.65 L862.711 1449.29 Z" fill="#000000" fill-rule="evenodd" fill-opacity="1" /><path clip-path="url(#clip440)" d="M 0 0 M1170.44 1452.37 Q1166.83 1452.37 1165 1455.94 Q1163.19 1459.48 1163.19 1466.61 Q1163.19 1473.71 1165 1477.28 Q1166.83 1480.82 1170.44 1480.82 Q1174.07 1480.82 1175.88 1477.28 Q1177.7 1473.71 1177.7 1466.61 Q1177.7 1459.48 1175.88 1455.94 Q1174.07 1452.37 1170.44 1452.37 M1170.44 1448.67 Q1176.25 1448.67 1179.3 1453.27 Q1182.38 1457.86 1182.38 1466.61 Q1182.38 1475.33 1179.3 1479.94 Q1176.25 1484.52 1170.44 1484.52 Q1164.63 1484.52 1161.55 1479.94 Q1158.49 1475.33 1158.49 1466.61 Q1158.49 1457.86 1161.55 1453.27 Q1164.63 1448.67 1170.44 1448.67 Z" fill="#000000" fill-rule="evenodd" fill-opacity="1" /><path clip-path="url(#clip440)" d="M 0 0 M1187.45 1477.97 L1192.33 1477.97 L1192.33 1483.85 L1187.45 1483.85 L1187.45 1477.97 Z" fill="#000000" fill-rule="evenodd" fill-opacity="1" /><path clip-path="url(#clip440)" d="M 0 0 M1207.4 1452.37 Q1203.79 1452.37 1201.96 1455.94 Q1200.16 1459.48 1200.16 1466.61 Q1200.16 1473.71 1201.96 1477.28 Q1203.79 1480.82 1207.4 1480.82 Q1211.04 1480.82 1212.84 1477.28 Q1214.67 1473.71 1214.67 1466.61 Q1214.67 1459.48 1212.84 1455.94 Q1211.04 1452.37 1207.4 1452.37 M1207.4 1448.67 Q1213.21 1448.67 1216.27 1453.27 Q1219.35 1457.86 1219.35 1466.61 Q1219.35 1475.33 1216.27 1479.94 Q1213.21 1484.52 1207.4 1484.52 Q1201.59 1484.52 1198.51 1479.94 Q1195.46 1475.33 1195.46 1466.61 Q1195.46 1457.86 1198.51 1453.27 Q1201.59 1448.67 1207.4 1448.67 Z" fill="#000000" fill-rule="evenodd" fill-opacity="1" /><path clip-path="url(#clip440)" d="M 0 0 M1234.42 1452.37 Q1230.81 1452.37 1228.98 1455.94 Q1227.17 1459.48 1227.17 1466.61 Q1227.17 1473.71 1228.98 1477.28 Q1230.81 1480.82 1234.42 1480.82 Q1238.05 1480.82 1239.86 1477.28 Q1241.69 1473.71 1241.69 1466.61 Q1241.69 1459.48 1239.86 1455.94 Q1238.05 1452.37 1234.42 1452.37 M1234.42 1448.67 Q1240.23 1448.67 1243.28 1453.27 Q1246.36 1457.86 1246.36 1466.61 Q1246.36 1475.33 1243.28 1479.94 Q1240.23 1484.52 1234.42 1484.52 Q1228.61 1484.52 1225.53 1479.94 Q1222.47 1475.33 1222.47 1466.61 Q1222.47 1457.86 1225.53 1453.27 Q1228.61 1448.67 1234.42 1448.67 Z" fill="#000000" fill-rule="evenodd" fill-opacity="1" /><path clip-path="url(#clip440)" d="M 0 0 M1261.43 1452.37 Q1257.82 1452.37 1255.99 1455.94 Q1254.19 1459.48 1254.19 1466.61 Q1254.19 1473.71 1255.99 1477.28 Q1257.82 1480.82 1261.43 1480.82 Q1265.07 1480.82 1266.87 1477.28 Q1268.7 1473.71 1268.7 1466.61 Q1268.7 1459.48 1266.87 1455.94 Q1265.07 1452.37 1261.43 1452.37 M1261.43 1448.67 Q1267.24 1448.67 1270.3 1453.27 Q1273.38 1457.86 1273.38 1466.61 Q1273.38 1475.33 1270.3 1479.94 Q1267.24 1484.52 1261.43 1484.52 Q1255.62 1484.52 1252.54 1479.94 Q1249.49 1475.33 1249.49 1466.61 Q1249.49 1457.86 1252.54 1453.27 Q1255.62 1448.67 1261.43 1448.67 Z" fill="#000000" fill-rule="evenodd" fill-opacity="1" /><path clip-path="url(#clip440)" d="M 0 0 M1279.26 1479.92 L1286.89 1479.92 L1286.89 1453.55 L1278.58 1455.22 L1278.58 1450.96 L1286.85 1449.29 L1291.52 1449.29 L1291.52 1479.92 L1299.16 1479.92 L1299.16 1483.85 L1279.26 1483.85 L1279.26 1479.92 Z" fill="#000000" fill-rule="evenodd" fill-opacity="1" /><path clip-path="url(#clip440)" d="M 0 0 M1314.23 1452.37 Q1310.62 1452.37 1308.79 1455.94 Q1306.99 1459.48 1306.99 1466.61 Q1306.99 1473.71 1308.79 1477.28 Q1310.62 1480.82 1314.23 1480.82 Q1317.87 1480.82 1319.67 1477.28 Q1321.5 1473.71 1321.5 1466.61 Q1321.5 1459.48 1319.67 1455.94 Q1317.87 1452.37 1314.23 1452.37 M1314.23 1448.67 Q1320.04 1448.67 1323.1 1453.27 Q1326.18 1457.86 1326.18 1466.61 Q1326.18 1475.33 1323.1 1479.94 Q1320.04 1484.52 1314.23 1484.52 Q1308.42 1484.52 1305.34 1479.94 Q1302.29 1475.33 1302.29 1466.61 Q1302.29 1457.86 1305.34 1453.27 Q1308.42 1448.67 1314.23 1448.67 Z" fill="#000000" fill-rule="evenodd" fill-opacity="1" /><path clip-path="url(#clip440)" d="M 0 0 M1613.61 1452.37 Q1610 1452.37 1608.17 1455.94 Q1606.37 1459.48 1606.37 1466.61 Q1606.37 1473.71 1608.17 1477.28 Q1610 1480.82 1613.61 1480.82 Q1617.25 1480.82 1619.05 1477.28 Q1620.88 1473.71 1620.88 1466.61 Q1620.88 1459.48 1619.05 1455.94 Q1617.25 1452.37 1613.61 1452.37 M1613.61 1448.67 Q1619.42 1448.67 1622.48 1453.27 Q1625.56 1457.86 1625.56 1466.61 Q1625.56 1475.33 1622.48 1479.94 Q1619.42 1484.52 1613.61 1484.52 Q1607.8 1484.52 1604.72 1479.94 Q1601.67 1475.33 1601.67 1466.61 Q1601.67 1457.86 1604.72 1453.27 Q1607.8 1448.67 1613.61 1448.67 Z" fill="#000000" fill-rule="evenodd" fill-opacity="1" /><path clip-path="url(#clip440)" d="M 0 0 M1630.63 1477.97 L1635.51 1477.97 L1635.51 1483.85 L1630.63 1483.85 L1630.63 1477.97 Z" fill="#000000" fill-rule="evenodd" fill-opacity="1" /><path clip-path="url(#clip440)" d="M 0 0 M1650.58 1452.37 Q1646.97 1452.37 1645.14 1455.94 Q1643.33 1459.48 1643.33 1466.61 Q1643.33 1473.71 1645.14 1477.28 Q1646.97 1480.82 1650.58 1480.82 Q1654.21 1480.82 1656.02 1477.28 Q1657.85 1473.71 1657.85 1466.61 Q1657.85 1459.48 1656.02 1455.94 Q1654.21 1452.37 1650.58 1452.37 M1650.58 1448.67 Q1656.39 1448.67 1659.45 1453.27 Q1662.52 1457.86 1662.52 1466.61 Q1662.52 1475.33 1659.45 1479.94 Q1656.39 1484.52 1650.58 1484.52 Q1644.77 1484.52 1641.69 1479.94 Q1638.64 1475.33 1638.64 1466.61 Q1638.64 1457.86 1641.69 1453.27 Q1644.77 1448.67 1650.58 1448.67 Z" fill="#000000" fill-rule="evenodd" fill-opacity="1" /><path clip-path="url(#clip440)" d="M 0 0 M1677.59 1452.37 Q1673.98 1452.37 1672.15 1455.94 Q1670.35 1459.48 1670.35 1466.61 Q1670.35 1473.71 1672.15 1477.28 Q1673.98 1480.82 1677.59 1480.82 Q1681.23 1480.82 1683.03 1477.28 Q1684.86 1473.71 1684.86 1466.61 Q1684.86 1459.48 1683.03 1455.94 Q1681.23 1452.37 1677.59 1452.37 M1677.59 1448.67 Q1683.4 1448.67 1686.46 1453.27 Q1689.54 1457.86 1689.54 1466.61 Q1689.54 1475.33 1686.46 1479.94 Q1683.4 1484.52 1677.59 1484.52 Q1671.78 1484.52 1668.71 1479.94 Q1665.65 1475.33 1665.65 1466.61 Q1665.65 1457.86 1668.71 1453.27 Q1671.78 1448.67 1677.59 1448.67 Z" fill="#000000" fill-rule="evenodd" fill-opacity="1" /><path clip-path="url(#clip440)" d="M 0 0 M1704.61 1452.37 Q1701 1452.37 1699.17 1455.94 Q1697.36 1459.48 1697.36 1466.61 Q1697.36 1473.71 1699.17 1477.28 Q1701 1480.82 1704.61 1480.82 Q1708.24 1480.82 1710.05 1477.28 Q1711.88 1473.71 1711.88 1466.61 Q1711.88 1459.48 1710.05 1455.94 Q1708.24 1452.37 1704.61 1452.37 M1704.61 1448.67 Q1710.42 1448.67 1713.47 1453.27 Q1716.55 1457.86 1716.55 1466.61 Q1716.55 1475.33 1713.47 1479.94 Q1710.42 1484.52 1704.61 1484.52 Q1698.8 1484.52 1695.72 1479.94 Q1692.66 1475.33 1692.66 1466.61 Q1692.66 1457.86 1695.72 1453.27 Q1698.8 1448.67 1704.61 1448.67 Z" fill="#000000" fill-rule="evenodd" fill-opacity="1" /><path clip-path="url(#clip440)" d="M 0 0 M1722.43 1479.92 L1730.07 1479.92 L1730.07 1453.55 L1721.76 1455.22 L1721.76 1450.96 L1730.02 1449.29 L1734.7 1449.29 L1734.7 1479.92 L1742.34 1479.92 L1742.34 1483.85 L1722.43 1483.85 L1722.43 1479.92 Z" fill="#000000" fill-rule="evenodd" fill-opacity="1" /><path clip-path="url(#clip440)" d="M 0 0 M1747.45 1449.29 L1765.81 1449.29 L1765.81 1453.23 L1751.74 1453.23 L1751.74 1461.7 Q1752.76 1461.35 1753.77 1461.19 Q1754.79 1461 1755.81 1461 Q1761.6 1461 1764.98 1464.18 Q1768.36 1467.35 1768.36 1472.76 Q1768.36 1478.34 1764.89 1481.44 Q1761.41 1484.52 1755.09 1484.52 Q1752.92 1484.52 1750.65 1484.15 Q1748.4 1483.78 1746 1483.04 L1746 1478.34 Q1748.08 1479.48 1750.3 1480.03 Q1752.52 1480.59 1755 1480.59 Q1759.01 1480.59 1761.34 1478.48 Q1763.68 1476.38 1763.68 1472.76 Q1763.68 1469.15 1761.34 1467.05 Q1759.01 1464.94 1755 1464.94 Q1753.13 1464.94 1751.25 1465.36 Q1749.4 1465.77 1747.45 1466.65 L1747.45 1449.29 Z" fill="#000000" fill-rule="evenodd" fill-opacity="1" /><path clip-path="url(#clip440)" d="M 0 0 M2055.98 1452.37 Q2052.37 1452.37 2050.54 1455.94 Q2048.73 1459.48 2048.73 1466.61 Q2048.73 1473.71 2050.54 1477.28 Q2052.37 1480.82 2055.98 1480.82 Q2059.61 1480.82 2061.42 1477.28 Q2063.25 1473.71 2063.25 1466.61 Q2063.25 1459.48 2061.42 1455.94 Q2059.61 1452.37 2055.98 1452.37 M2055.98 1448.67 Q2061.79 1448.67 2064.84 1453.27 Q2067.92 1457.86 2067.92 1466.61 Q2067.92 1475.33 2064.84 1479.94 Q2061.79 1484.52 2055.98 1484.52 Q2050.17 1484.52 2047.09 1479.94 Q2044.03 1475.33 2044.03 1466.61 Q2044.03 1457.86 2047.09 1453.27 Q2050.17 1448.67 2055.98 1448.67 Z" fill="#000000" fill-rule="evenodd" fill-opacity="1" /><path clip-path="url(#clip440)" d="M 0 0 M2072.99 1477.97 L2077.88 1477.97 L2077.88 1483.85 L2072.99 1483.85 L2072.99 1477.97 Z" fill="#000000" fill-rule="evenodd" fill-opacity="1" /><path clip-path="url(#clip440)" d="M 0 0 M2092.95 1452.37 Q2089.34 1452.37 2087.51 1455.94 Q2085.7 1459.48 2085.7 1466.61 Q2085.7 1473.71 2087.51 1477.28 Q2089.34 1480.82 2092.95 1480.82 Q2096.58 1480.82 2098.39 1477.28 Q2100.22 1473.71 2100.22 1466.61 Q2100.22 1459.48 2098.39 1455.94 Q2096.58 1452.37 2092.95 1452.37 M2092.95 1448.67 Q2098.76 1448.67 2101.81 1453.27 Q2104.89 1457.86 2104.89 1466.61 Q2104.89 1475.33 2101.81 1479.94 Q2098.76 1484.52 2092.95 1484.52 Q2087.14 1484.52 2084.06 1479.94 Q2081 1475.33 2081 1466.61 Q2081 1457.86 2084.06 1453.27 Q2087.14 1448.67 2092.95 1448.67 Z" fill="#000000" fill-rule="evenodd" fill-opacity="1" /><path clip-path="url(#clip440)" d="M 0 0 M2119.96 1452.37 Q2116.35 1452.37 2114.52 1455.94 Q2112.71 1459.48 2112.71 1466.61 Q2112.71 1473.71 2114.52 1477.28 Q2116.35 1480.82 2119.96 1480.82 Q2123.59 1480.82 2125.4 1477.28 Q2127.23 1473.71 2127.23 1466.61 Q2127.23 1459.48 2125.4 1455.94 Q2123.59 1452.37 2119.96 1452.37 M2119.96 1448.67 Q2125.77 1448.67 2128.83 1453.27 Q2131.9 1457.86 2131.9 1466.61 Q2131.9 1475.33 2128.83 1479.94 Q2125.77 1484.52 2119.96 1484.52 Q2114.15 1484.52 2111.07 1479.94 Q2108.02 1475.33 2108.02 1466.61 Q2108.02 1457.86 2111.07 1453.27 Q2114.15 1448.67 2119.96 1448.67 Z" fill="#000000" fill-rule="evenodd" fill-opacity="1" /><path clip-path="url(#clip440)" d="M 0 0 M2146.97 1452.37 Q2143.36 1452.37 2141.53 1455.94 Q2139.73 1459.48 2139.73 1466.61 Q2139.73 1473.71 2141.53 1477.28 Q2143.36 1480.82 2146.97 1480.82 Q2150.61 1480.82 2152.41 1477.28 Q2154.24 1473.71 2154.24 1466.61 Q2154.24 1459.48 2152.41 1455.94 Q2150.61 1452.37 2146.97 1452.37 M2146.97 1448.67 Q2152.78 1448.67 2155.84 1453.27 Q2158.92 1457.86 2158.92 1466.61 Q2158.92 1475.33 2155.84 1479.94 Q2152.78 1484.52 2146.97 1484.52 Q2141.16 1484.52 2138.09 1479.94 Q2135.03 1475.33 2135.03 1466.61 Q2135.03 1457.86 2138.09 1453.27 Q2141.16 1448.67 2146.97 1448.67 Z" fill="#000000" fill-rule="evenodd" fill-opacity="1" /><path clip-path="url(#clip440)" d="M 0 0 M2168.02 1479.92 L2184.33 1479.92 L2184.33 1483.85 L2162.39 1483.85 L2162.39 1479.92 Q2165.05 1477.16 2169.64 1472.53 Q2174.24 1467.88 2175.42 1466.54 Q2177.67 1464.01 2178.55 1462.28 Q2179.45 1460.52 2179.45 1458.83 Q2179.45 1456.07 2177.51 1454.34 Q2175.58 1452.6 2172.48 1452.6 Q2170.28 1452.6 2167.83 1453.37 Q2165.4 1454.13 2162.62 1455.68 L2162.62 1450.96 Q2165.45 1449.82 2167.9 1449.25 Q2170.35 1448.67 2172.39 1448.67 Q2177.76 1448.67 2180.96 1451.35 Q2184.15 1454.04 2184.15 1458.53 Q2184.15 1460.66 2183.34 1462.58 Q2182.55 1464.48 2180.45 1467.07 Q2179.87 1467.74 2176.77 1470.96 Q2173.66 1474.15 2168.02 1479.92 Z" fill="#000000" fill-rule="evenodd" fill-opacity="1" /><path clip-path="url(#clip440)" d="M 0 0 M2199.4 1452.37 Q2195.79 1452.37 2193.96 1455.94 Q2192.16 1459.48 2192.16 1466.61 Q2192.16 1473.71 2193.96 1477.28 Q2195.79 1480.82 2199.4 1480.82 Q2203.04 1480.82 2204.84 1477.28 Q2206.67 1473.71 2206.67 1466.61 Q2206.67 1459.48 2204.84 1455.94 Q2203.04 1452.37 2199.4 1452.37 M2199.4 1448.67 Q2205.21 1448.67 2208.27 1453.27 Q2211.35 1457.86 2211.35 1466.61 Q2211.35 1475.33 2208.27 1479.94 Q2205.21 1484.52 2199.4 1484.52 Q2193.59 1484.52 2190.52 1479.94 Q2187.46 1475.33 2187.46 1466.61 Q2187.46 1457.86 2190.52 1453.27 Q2193.59 1448.67 2199.4 1448.67 Z" fill="#000000" fill-rule="evenodd" fill-opacity="1" /><path clip-path="url(#clip440)" d="M 0 0 M1048.34 1525.81 L1048.34 1506.52 L1054.19 1506.52 L1054.19 1556.04 L1048.34 1556.04 L1048.34 1550.7 Q1046.49 1553.88 1043.66 1555.44 Q1040.86 1556.97 1036.91 1556.97 Q1030.45 1556.97 1026.37 1551.81 Q1022.33 1546.65 1022.33 1538.25 Q1022.33 1529.85 1026.37 1524.69 Q1030.45 1519.54 1036.91 1519.54 Q1040.86 1519.54 1043.66 1521.1 Q1046.49 1522.62 1048.34 1525.81 M1028.38 1538.25 Q1028.38 1544.71 1031.02 1548.4 Q1033.7 1552.07 1038.34 1552.07 Q1042.99 1552.07 1045.66 1548.4 Q1048.34 1544.71 1048.34 1538.25 Q1048.34 1531.79 1045.66 1528.13 Q1042.99 1524.44 1038.34 1524.44 Q1033.7 1524.44 1031.02 1528.13 Q1028.38 1531.79 1028.38 1538.25 Z" fill="#000000" fill-rule="evenodd" fill-opacity="1" /><path clip-path="url(#clip440)" d="M 0 0 M1080.99 1525.87 Q1080.01 1525.3 1078.83 1525.04 Q1077.68 1524.76 1076.28 1524.76 Q1071.32 1524.76 1068.64 1528 Q1066 1531.22 1066 1537.27 L1066 1556.04 L1060.11 1556.04 L1060.11 1520.4 L1066 1520.4 L1066 1525.93 Q1067.85 1522.69 1070.81 1521.13 Q1073.77 1519.54 1078 1519.54 Q1078.61 1519.54 1079.34 1519.63 Q1080.07 1519.7 1080.96 1519.85 L1080.99 1525.87 Z" fill="#000000" fill-rule="evenodd" fill-opacity="1" /><path clip-path="url(#clip440)" d="M 0 0 M1099.52 1524.5 Q1094.81 1524.5 1092.07 1528.19 Q1089.33 1531.85 1089.33 1538.25 Q1089.33 1544.65 1092.04 1548.34 Q1094.77 1552 1099.52 1552 Q1104.2 1552 1106.93 1548.31 Q1109.67 1544.62 1109.67 1538.25 Q1109.67 1531.92 1106.93 1528.23 Q1104.2 1524.5 1099.52 1524.5 M1099.52 1519.54 Q1107.16 1519.54 1111.52 1524.5 Q1115.88 1529.47 1115.88 1538.25 Q1115.88 1547 1111.52 1552 Q1107.16 1556.97 1099.52 1556.97 Q1091.85 1556.97 1087.49 1552 Q1083.16 1547 1083.16 1538.25 Q1083.16 1529.47 1087.49 1524.5 Q1091.85 1519.54 1099.52 1519.54 Z" fill="#000000" fill-rule="evenodd" fill-opacity="1" /><path clip-path="url(#clip440)" d="M 0 0 M1127.68 1550.7 L1127.68 1569.6 L1121.8 1569.6 L1121.8 1520.4 L1127.68 1520.4 L1127.68 1525.81 Q1129.53 1522.62 1132.33 1521.1 Q1135.16 1519.54 1139.08 1519.54 Q1145.57 1519.54 1149.61 1524.69 Q1153.69 1529.85 1153.69 1538.25 Q1153.69 1546.65 1149.61 1551.81 Q1145.57 1556.97 1139.08 1556.97 Q1135.16 1556.97 1132.33 1555.44 Q1129.53 1553.88 1127.68 1550.7 M1147.61 1538.25 Q1147.61 1531.79 1144.94 1528.13 Q1142.29 1524.44 1137.65 1524.44 Q1133 1524.44 1130.33 1528.13 Q1127.68 1531.79 1127.68 1538.25 Q1127.68 1544.71 1130.33 1548.4 Q1133 1552.07 1137.65 1552.07 Q1142.29 1552.07 1144.94 1548.4 Q1147.61 1544.71 1147.61 1538.25 Z" fill="#000000" fill-rule="evenodd" fill-opacity="1" /><path clip-path="url(#clip440)" d="M 0 0 M1159.83 1506.52 L1165.69 1506.52 L1165.69 1556.04 L1159.83 1556.04 L1159.83 1506.52 Z" fill="#000000" fill-rule="evenodd" fill-opacity="1" /><path clip-path="url(#clip440)" d="M 0 0 M1202.32 1536.76 L1202.32 1539.62 L1175.4 1539.62 Q1175.78 1545.67 1179.02 1548.85 Q1182.3 1552 1188.13 1552 Q1191.5 1552 1194.65 1551.17 Q1197.83 1550.35 1200.95 1548.69 L1200.95 1554.23 Q1197.8 1555.57 1194.49 1556.27 Q1191.18 1556.97 1187.78 1556.97 Q1179.25 1556.97 1174.25 1552 Q1169.28 1547.04 1169.28 1538.57 Q1169.28 1529.82 1174 1524.69 Q1178.74 1519.54 1186.76 1519.54 Q1193.95 1519.54 1198.12 1524.18 Q1202.32 1528.8 1202.32 1536.76 M1196.47 1535.04 Q1196.4 1530.23 1193.76 1527.37 Q1191.15 1524.5 1186.82 1524.5 Q1181.92 1524.5 1178.96 1527.27 Q1176.03 1530.04 1175.59 1535.07 L1196.47 1535.04 Z" fill="#000000" fill-rule="evenodd" fill-opacity="1" /><path clip-path="url(#clip440)" d="M 0 0 M1214.26 1510.27 L1214.26 1520.4 L1226.32 1520.4 L1226.32 1524.95 L1214.26 1524.95 L1214.26 1544.3 Q1214.26 1548.66 1215.44 1549.9 Q1216.65 1551.14 1220.31 1551.14 L1226.32 1551.14 L1226.32 1556.04 L1220.31 1556.04 Q1213.53 1556.04 1210.95 1553.53 Q1208.37 1550.98 1208.37 1544.3 L1208.37 1524.95 L1204.07 1524.95 L1204.07 1520.4 L1208.37 1520.4 L1208.37 1510.27 L1214.26 1510.27 Z" fill="#000000" fill-rule="evenodd" fill-opacity="1" /><path clip-path="url(#clip440)" d="M 0 0 M1276.64 1525.81 L1276.64 1506.52 L1282.5 1506.52 L1282.5 1556.04 L1276.64 1556.04 L1276.64 1550.7 Q1274.8 1553.88 1271.96 1555.44 Q1269.16 1556.97 1265.22 1556.97 Q1258.75 1556.97 1254.68 1551.81 Q1250.64 1546.65 1250.64 1538.25 Q1250.64 1529.85 1254.68 1524.69 Q1258.75 1519.54 1265.22 1519.54 Q1269.16 1519.54 1271.96 1521.1 Q1274.8 1522.62 1276.64 1525.81 M1256.69 1538.25 Q1256.69 1544.71 1259.33 1548.4 Q1262 1552.07 1266.65 1552.07 Q1271.3 1552.07 1273.97 1548.4 Q1276.64 1544.71 1276.64 1538.25 Q1276.64 1531.79 1273.97 1528.13 Q1271.3 1524.44 1266.65 1524.44 Q1262 1524.44 1259.33 1528.13 Q1256.69 1531.79 1256.69 1538.25 Z" fill="#000000" fill-rule="evenodd" fill-opacity="1" /><path clip-path="url(#clip440)" d="M 0 0 M1288.64 1520.4 L1294.5 1520.4 L1294.5 1556.04 L1288.64 1556.04 L1288.64 1520.4 M1288.64 1506.52 L1294.5 1506.52 L1294.5 1513.93 L1288.64 1513.93 L1288.64 1506.52 Z" fill="#000000" fill-rule="evenodd" fill-opacity="1" /><path clip-path="url(#clip440)" d="M 0 0 M1316.84 1538.12 Q1309.74 1538.12 1307.01 1539.75 Q1304.27 1541.37 1304.27 1545.29 Q1304.27 1548.4 1306.31 1550.25 Q1308.38 1552.07 1311.91 1552.07 Q1316.78 1552.07 1319.71 1548.63 Q1322.67 1545.16 1322.67 1539.43 L1322.67 1538.12 L1316.84 1538.12 M1328.52 1535.71 L1328.52 1556.04 L1322.67 1556.04 L1322.67 1550.63 Q1320.66 1553.88 1317.67 1555.44 Q1314.68 1556.97 1310.35 1556.97 Q1304.87 1556.97 1301.63 1553.91 Q1298.41 1550.82 1298.41 1545.67 Q1298.41 1539.65 1302.42 1536.6 Q1306.47 1533.54 1314.45 1533.54 L1322.67 1533.54 L1322.67 1532.97 Q1322.67 1528.93 1319.99 1526.73 Q1317.35 1524.5 1312.54 1524.5 Q1309.49 1524.5 1306.59 1525.23 Q1303.7 1525.97 1301.02 1527.43 L1301.02 1522.02 Q1304.24 1520.78 1307.26 1520.17 Q1310.29 1519.54 1313.15 1519.54 Q1320.88 1519.54 1324.7 1523.55 Q1328.52 1527.56 1328.52 1535.71 Z" fill="#000000" fill-rule="evenodd" fill-opacity="1" /><path clip-path="url(#clip440)" d="M 0 0 M1362.42 1527.24 Q1364.62 1523.29 1367.67 1521.41 Q1370.73 1519.54 1374.87 1519.54 Q1380.44 1519.54 1383.46 1523.45 Q1386.48 1527.33 1386.48 1534.53 L1386.48 1556.04 L1380.59 1556.04 L1380.59 1534.72 Q1380.59 1529.59 1378.78 1527.11 Q1376.97 1524.63 1373.24 1524.63 Q1368.69 1524.63 1366.05 1527.65 Q1363.41 1530.68 1363.41 1535.9 L1363.41 1556.04 L1357.52 1556.04 L1357.52 1534.72 Q1357.52 1529.56 1355.7 1527.11 Q1353.89 1524.63 1350.1 1524.63 Q1345.61 1524.63 1342.97 1527.68 Q1340.33 1530.71 1340.33 1535.9 L1340.33 1556.04 L1334.44 1556.04 L1334.44 1520.4 L1340.33 1520.4 L1340.33 1525.93 Q1342.34 1522.66 1345.14 1521.1 Q1347.94 1519.54 1351.79 1519.54 Q1355.67 1519.54 1358.38 1521.51 Q1361.12 1523.48 1362.42 1527.24 Z" fill="#000000" fill-rule="evenodd" fill-opacity="1" /><path clip-path="url(#clip440)" d="M 0 0 M1423.12 1536.76 L1423.12 1539.62 L1396.19 1539.62 Q1396.57 1545.67 1399.82 1548.85 Q1403.1 1552 1408.92 1552 Q1412.3 1552 1415.45 1551.17 Q1418.63 1550.35 1421.75 1548.69 L1421.75 1554.23 Q1418.6 1555.57 1415.29 1556.27 Q1411.98 1556.97 1408.57 1556.97 Q1400.04 1556.97 1395.04 1552 Q1390.08 1547.04 1390.08 1538.57 Q1390.08 1529.82 1394.79 1524.69 Q1399.53 1519.54 1407.55 1519.54 Q1414.75 1519.54 1418.92 1524.18 Q1423.12 1528.8 1423.12 1536.76 M1417.26 1535.04 Q1417.2 1530.23 1414.56 1527.37 Q1411.95 1524.5 1407.62 1524.5 Q1402.72 1524.5 1399.76 1527.27 Q1396.83 1530.04 1396.38 1535.07 L1417.26 1535.04 Z" fill="#000000" fill-rule="evenodd" fill-opacity="1" /><path clip-path="url(#clip440)" d="M 0 0 M1435.05 1510.27 L1435.05 1520.4 L1447.12 1520.4 L1447.12 1524.95 L1435.05 1524.95 L1435.05 1544.3 Q1435.05 1548.66 1436.23 1549.9 Q1437.44 1551.14 1441.1 1551.14 L1447.12 1551.14 L1447.12 1556.04 L1441.1 1556.04 Q1434.32 1556.04 1431.74 1553.53 Q1429.16 1550.98 1429.16 1544.3 L1429.16 1524.95 L1424.87 1524.95 L1424.87 1520.4 L1429.16 1520.4 L1429.16 1510.27 L1435.05 1510.27 Z" fill="#000000" fill-rule="evenodd" fill-opacity="1" /><path clip-path="url(#clip440)" d="M 0 0 M1483.75 1536.76 L1483.75 1539.62 L1456.82 1539.62 Q1457.21 1545.67 1460.45 1548.85 Q1463.73 1552 1469.56 1552 Q1472.93 1552 1476.08 1551.17 Q1479.26 1550.35 1482.38 1548.69 L1482.38 1554.23 Q1479.23 1555.57 1475.92 1556.27 Q1472.61 1556.97 1469.21 1556.97 Q1460.67 1556.97 1455.68 1552 Q1450.71 1547.04 1450.71 1538.57 Q1450.71 1529.82 1455.42 1524.69 Q1460.17 1519.54 1468.19 1519.54 Q1475.38 1519.54 1479.55 1524.18 Q1483.75 1528.8 1483.75 1536.76 M1477.89 1535.04 Q1477.83 1530.23 1475.19 1527.37 Q1472.58 1524.5 1468.25 1524.5 Q1463.35 1524.5 1460.39 1527.27 Q1457.46 1530.04 1457.01 1535.07 L1477.89 1535.04 Z" fill="#000000" fill-rule="evenodd" fill-opacity="1" /><path clip-path="url(#clip440)" d="M 0 0 M1510.55 1525.87 Q1509.56 1525.3 1508.39 1525.04 Q1507.24 1524.76 1505.84 1524.76 Q1500.87 1524.76 1498.2 1528 Q1495.56 1531.22 1495.56 1537.27 L1495.56 1556.04 L1489.67 1556.04 L1489.67 1520.4 L1495.56 1520.4 L1495.56 1525.93 Q1497.41 1522.69 1500.37 1521.13 Q1503.33 1519.54 1507.56 1519.54 Q1508.16 1519.54 1508.9 1519.63 Q1509.63 1519.7 1510.52 1519.85 L1510.55 1525.87 Z" fill="#000000" fill-rule="evenodd" fill-opacity="1" /><path clip-path="url(#clip440)" d="M 0 0 M1551.48 1506.58 Q1547.22 1513.9 1545.15 1521.06 Q1543.08 1528.23 1543.08 1535.58 Q1543.08 1542.93 1545.15 1550.16 Q1547.25 1557.35 1551.48 1564.64 L1546.39 1564.64 Q1541.61 1557.16 1539.23 1549.93 Q1536.87 1542.71 1536.87 1535.58 Q1536.87 1528.48 1539.23 1521.29 Q1541.58 1514.09 1546.39 1506.58 L1551.48 1506.58 Z" fill="#000000" fill-rule="evenodd" fill-opacity="1" /><path clip-path="url(#clip440)" d="M 0 0 M1585.38 1527.24 Q1587.58 1523.29 1590.63 1521.41 Q1593.69 1519.54 1597.82 1519.54 Q1603.39 1519.54 1606.42 1523.45 Q1609.44 1527.33 1609.44 1534.53 L1609.44 1556.04 L1603.55 1556.04 L1603.55 1534.72 Q1603.55 1529.59 1601.74 1527.11 Q1599.92 1524.63 1596.2 1524.63 Q1591.65 1524.63 1589.01 1527.65 Q1586.37 1530.68 1586.37 1535.9 L1586.37 1556.04 L1580.48 1556.04 L1580.48 1534.72 Q1580.48 1529.56 1578.66 1527.11 Q1576.85 1524.63 1573.06 1524.63 Q1568.57 1524.63 1565.93 1527.68 Q1563.29 1530.71 1563.29 1535.9 L1563.29 1556.04 L1557.4 1556.04 L1557.4 1520.4 L1563.29 1520.4 L1563.29 1525.93 Q1565.3 1522.66 1568.1 1521.1 Q1570.9 1519.54 1574.75 1519.54 Q1578.63 1519.54 1581.34 1521.51 Q1584.07 1523.48 1585.38 1527.24 Z" fill="#000000" fill-rule="evenodd" fill-opacity="1" /><path clip-path="url(#clip440)" d="M 0 0 M1614.66 1506.58 L1619.75 1506.58 Q1624.53 1514.09 1626.88 1521.29 Q1629.27 1528.48 1629.27 1535.58 Q1629.27 1542.71 1626.88 1549.93 Q1624.53 1557.16 1619.75 1564.64 L1614.66 1564.64 Q1618.89 1557.35 1620.96 1550.16 Q1623.06 1542.93 1623.06 1535.58 Q1623.06 1528.23 1620.96 1521.06 Q1618.89 1513.9 1614.66 1506.58 Z" fill="#000000" fill-rule="evenodd" fill-opacity="1" /><polyline clip-path="url(#clip442)" style="stroke:#000000; stroke-width:2; stroke-opacity:0.1; fill:none" points="
  298.847,1386.4 2352.76,1386.4 
  "/>
<polyline clip-path="url(#clip442)" style="stroke:#000000; stroke-width:2; stroke-opacity:0.1; fill:none" points="
  298.847,967.262 2352.76,967.262 
  "/>
<polyline clip-path="url(#clip442)" style="stroke:#000000; stroke-width:2; stroke-opacity:0.1; fill:none" points="
  298.847,548.129 2352.76,548.129 
  "/>
<polyline clip-path="url(#clip442)" style="stroke:#000000; stroke-width:2; stroke-opacity:0.1; fill:none" points="
  298.847,128.995 2352.76,128.995 
  "/>
<polyline clip-path="url(#clip440)" style="stroke:#000000; stroke-width:4; stroke-opacity:1; fill:none" points="
  298.847,1423.18 298.847,123.472 
  "/>
<polyline clip-path="url(#clip440)" style="stroke:#000000; stroke-width:4; stroke-opacity:1; fill:none" points="
  298.847,1386.4 323.494,1386.4 
  "/>
<polyline clip-path="url(#clip440)" style="stroke:#000000; stroke-width:4; stroke-opacity:1; fill:none" points="
  298.847,967.262 323.494,967.262 
  "/>
<polyline clip-path="url(#clip440)" style="stroke:#000000; stroke-width:4; stroke-opacity:1; fill:none" points="
  298.847,548.129 323.494,548.129 
  "/>
<polyline clip-path="url(#clip440)" style="stroke:#000000; stroke-width:4; stroke-opacity:1; fill:none" points="
  298.847,128.995 323.494,128.995 
  "/>
<path clip-path="url(#clip440)" d="M 0 0 M250.903 1372.19 Q247.292 1372.19 245.463 1375.76 Q243.657 1379.3 243.657 1386.43 Q243.657 1393.54 245.463 1397.1 Q247.292 1400.64 250.903 1400.64 Q254.537 1400.64 256.343 1397.1 Q258.171 1393.54 258.171 1386.43 Q258.171 1379.3 256.343 1375.76 Q254.537 1372.19 250.903 1372.19 M250.903 1368.49 Q256.713 1368.49 259.768 1373.1 Q262.847 1377.68 262.847 1386.43 Q262.847 1395.16 259.768 1399.76 Q256.713 1404.35 250.903 1404.35 Q245.093 1404.35 242.014 1399.76 Q238.958 1395.16 238.958 1386.43 Q238.958 1377.68 242.014 1373.1 Q245.093 1368.49 250.903 1368.49 Z" fill="#000000" fill-rule="evenodd" fill-opacity="1" /><path clip-path="url(#clip440)" d="M 0 0 M52.4505 956.43 L70.8068 956.43 L70.8068 960.365 L56.7328 960.365 L56.7328 968.837 Q57.7513 968.49 58.7699 968.328 Q59.7884 968.143 60.8069 968.143 Q66.5939 968.143 69.9735 971.314 Q73.3531 974.485 73.3531 979.902 Q73.3531 985.48 69.8809 988.582 Q66.4087 991.661 60.0893 991.661 Q57.9134 991.661 55.6449 991.291 Q53.3995 990.92 50.9921 990.18 L50.9921 985.48 Q53.0754 986.615 55.2977 987.17 Q57.5199 987.726 59.9967 987.726 Q64.0013 987.726 66.3393 985.619 Q68.6772 983.513 68.6772 979.902 Q68.6772 976.291 66.3393 974.184 Q64.0013 972.078 59.9967 972.078 Q58.1217 972.078 56.2467 972.494 Q54.3949 972.911 52.4505 973.791 L52.4505 956.43 Z" fill="#000000" fill-rule="evenodd" fill-opacity="1" /><path clip-path="url(#clip440)" d="M 0 0 M78.4225 985.11 L83.3068 985.11 L83.3068 990.99 L78.4225 990.99 L78.4225 985.11 Z" fill="#000000" fill-rule="evenodd" fill-opacity="1" /><path clip-path="url(#clip440)" d="M 0 0 M98.3761 959.508 Q94.765 959.508 92.9363 963.073 Q91.1308 966.615 91.1308 973.744 Q91.1308 980.851 92.9363 984.416 Q94.765 987.957 98.3761 987.957 Q102.01 987.957 103.816 984.416 Q105.645 980.851 105.645 973.744 Q105.645 966.615 103.816 963.073 Q102.01 959.508 98.3761 959.508 M98.3761 955.805 Q104.186 955.805 107.242 960.411 Q110.321 964.994 110.321 973.744 Q110.321 982.471 107.242 987.078 Q104.186 991.661 98.3761 991.661 Q92.566 991.661 89.4873 987.078 Q86.4318 982.471 86.4318 973.744 Q86.4318 964.994 89.4873 960.411 Q92.566 955.805 98.3761 955.805 Z" fill="#000000" fill-rule="evenodd" fill-opacity="1" /><path clip-path="url(#clip440)" d="M 0 0 M143.561 965.527 L132.982 976.152 L143.561 986.73 L140.806 989.531 L130.182 978.906 L119.557 989.531 L116.825 986.73 L127.381 976.152 L116.825 965.527 L119.557 962.726 L130.182 973.351 L140.806 962.726 L143.561 965.527 Z" fill="#000000" fill-rule="evenodd" fill-opacity="1" /><path clip-path="url(#clip440)" d="M 0 0 M149.441 987.055 L157.08 987.055 L157.08 960.689 L148.769 962.356 L148.769 958.096 L157.033 956.43 L161.709 956.43 L161.709 987.055 L169.348 987.055 L169.348 990.99 L149.441 990.99 L149.441 987.055 Z" fill="#000000" fill-rule="evenodd" fill-opacity="1" /><path clip-path="url(#clip440)" d="M 0 0 M184.417 959.508 Q180.806 959.508 178.978 963.073 Q177.172 966.615 177.172 973.744 Q177.172 980.851 178.978 984.416 Q180.806 987.957 184.417 987.957 Q188.052 987.957 189.857 984.416 Q191.686 980.851 191.686 973.744 Q191.686 966.615 189.857 963.073 Q188.052 959.508 184.417 959.508 M184.417 955.805 Q190.227 955.805 193.283 960.411 Q196.362 964.994 196.362 973.744 Q196.362 982.471 193.283 987.078 Q190.227 991.661 184.417 991.661 Q178.607 991.661 175.528 987.078 Q172.473 982.471 172.473 973.744 Q172.473 964.994 175.528 960.411 Q178.607 955.805 184.417 955.805 Z" fill="#000000" fill-rule="evenodd" fill-opacity="1" /><path clip-path="url(#clip440)" d="M 0 0 M196.362 949.906 L220.473 949.906 L220.473 953.103 L196.362 953.103 L196.362 949.906 Z" fill="#000000" fill-rule="evenodd" fill-opacity="1" /><path clip-path="url(#clip440)" d="M 0 0 M225.25 960.382 L231.457 960.382 L231.457 938.96 L224.705 940.314 L224.705 936.853 L231.419 935.499 L235.219 935.499 L235.219 960.382 L241.425 960.382 L241.425 963.579 L225.25 963.579 L225.25 960.382 Z" fill="#000000" fill-rule="evenodd" fill-opacity="1" /><path clip-path="url(#clip440)" d="M 0 0 M257.054 948.439 Q259.782 949.022 261.305 950.865 Q262.847 952.708 262.847 955.417 Q262.847 959.573 259.988 961.849 Q257.13 964.125 251.863 964.125 Q250.096 964.125 248.215 963.767 Q246.353 963.429 244.359 962.733 L244.359 959.065 Q245.939 959.987 247.82 960.457 Q249.701 960.927 251.751 960.927 Q255.324 960.927 257.186 959.517 Q259.067 958.106 259.067 955.417 Q259.067 952.934 257.318 951.542 Q255.587 950.132 252.484 950.132 L249.212 950.132 L249.212 947.01 L252.635 947.01 Q255.437 947.01 256.923 945.9 Q258.409 944.772 258.409 942.665 Q258.409 940.502 256.866 939.355 Q255.343 938.189 252.484 938.189 Q250.923 938.189 249.136 938.527 Q247.35 938.866 245.205 939.581 L245.205 936.195 Q247.368 935.593 249.249 935.292 Q251.149 934.991 252.823 934.991 Q257.148 934.991 259.669 936.966 Q262.189 938.922 262.189 942.27 Q262.189 944.602 260.854 946.22 Q259.518 947.818 257.054 948.439 Z" fill="#000000" fill-rule="evenodd" fill-opacity="1" /><path clip-path="url(#clip440)" d="M 0 0 M54.2169 567.921 L61.8558 567.921 L61.8558 541.555 L53.5456 543.222 L53.5456 538.963 L61.8095 537.296 L66.4854 537.296 L66.4854 567.921 L74.1242 567.921 L74.1242 571.856 L54.2169 571.856 L54.2169 567.921 Z" fill="#000000" fill-rule="evenodd" fill-opacity="1" /><path clip-path="url(#clip440)" d="M 0 0 M79.1937 565.977 L84.0779 565.977 L84.0779 571.856 L79.1937 571.856 L79.1937 565.977 Z" fill="#000000" fill-rule="evenodd" fill-opacity="1" /><path clip-path="url(#clip440)" d="M 0 0 M99.1472 540.375 Q95.5362 540.375 93.7075 543.94 Q91.9019 547.481 91.9019 554.611 Q91.9019 561.717 93.7075 565.282 Q95.5362 568.824 99.1472 568.824 Q102.781 568.824 104.587 565.282 Q106.416 561.717 106.416 554.611 Q106.416 547.481 104.587 543.94 Q102.781 540.375 99.1472 540.375 M99.1472 536.671 Q104.957 536.671 108.013 541.278 Q111.092 545.861 111.092 554.611 Q111.092 563.338 108.013 567.944 Q104.957 572.527 99.1472 572.527 Q93.3371 572.527 90.2584 567.944 Q87.2029 563.338 87.2029 554.611 Q87.2029 545.861 90.2584 541.278 Q93.3371 536.671 99.1472 536.671 Z" fill="#000000" fill-rule="evenodd" fill-opacity="1" /><path clip-path="url(#clip440)" d="M 0 0 M144.332 546.393 L133.754 557.018 L144.332 567.597 L141.578 570.398 L130.953 559.773 L120.328 570.398 L117.596 567.597 L128.152 557.018 L117.596 546.393 L120.328 543.592 L130.953 554.217 L141.578 543.592 L144.332 546.393 Z" fill="#000000" fill-rule="evenodd" fill-opacity="1" /><path clip-path="url(#clip440)" d="M 0 0 M150.212 567.921 L157.851 567.921 L157.851 541.555 L149.54 543.222 L149.54 538.963 L157.804 537.296 L162.48 537.296 L162.48 567.921 L170.119 567.921 L170.119 571.856 L150.212 571.856 L150.212 567.921 Z" fill="#000000" fill-rule="evenodd" fill-opacity="1" /><path clip-path="url(#clip440)" d="M 0 0 M185.188 540.375 Q181.577 540.375 179.749 543.94 Q177.943 547.481 177.943 554.611 Q177.943 561.717 179.749 565.282 Q181.577 568.824 185.188 568.824 Q188.823 568.824 190.628 565.282 Q192.457 561.717 192.457 554.611 Q192.457 547.481 190.628 543.94 Q188.823 540.375 185.188 540.375 M185.188 536.671 Q190.999 536.671 194.054 541.278 Q197.133 545.861 197.133 554.611 Q197.133 563.338 194.054 567.944 Q190.999 572.527 185.188 572.527 Q179.378 572.527 176.3 567.944 Q173.244 563.338 173.244 554.611 Q173.244 545.861 176.3 541.278 Q179.378 536.671 185.188 536.671 Z" fill="#000000" fill-rule="evenodd" fill-opacity="1" /><path clip-path="url(#clip440)" d="M 0 0 M197.133 530.773 L221.244 530.773 L221.244 533.97 L197.133 533.97 L197.133 530.773 Z" fill="#000000" fill-rule="evenodd" fill-opacity="1" /><path clip-path="url(#clip440)" d="M 0 0 M226.022 541.248 L232.228 541.248 L232.228 519.826 L225.476 521.181 L225.476 517.72 L232.191 516.366 L235.99 516.366 L235.99 541.248 L242.196 541.248 L242.196 544.446 L226.022 544.446 L226.022 541.248 Z" fill="#000000" fill-rule="evenodd" fill-opacity="1" /><path clip-path="url(#clip440)" d="M 0 0 M249.588 541.248 L262.847 541.248 L262.847 544.446 L245.017 544.446 L245.017 541.248 Q247.18 539.01 250.904 535.249 Q254.647 531.468 255.606 530.378 Q257.431 528.327 258.145 526.917 Q258.879 525.488 258.879 524.115 Q258.879 521.876 257.299 520.466 Q255.738 519.055 253.218 519.055 Q251.431 519.055 249.437 519.676 Q247.462 520.297 245.205 521.557 L245.205 517.72 Q247.5 516.798 249.494 516.328 Q251.487 515.858 253.142 515.858 Q257.506 515.858 260.101 518.04 Q262.697 520.221 262.697 523.87 Q262.697 525.6 262.038 527.161 Q261.399 528.704 259.687 530.81 Q259.217 531.356 256.697 533.97 Q254.177 536.565 249.588 541.248 Z" fill="#000000" fill-rule="evenodd" fill-opacity="1" /><path clip-path="url(#clip440)" d="M 0 0 M55.2123 148.787 L62.8511 148.787 L62.8511 122.422 L54.541 124.088 L54.541 119.829 L62.8049 118.163 L67.4808 118.163 L67.4808 148.787 L75.1196 148.787 L75.1196 152.723 L55.2123 152.723 L55.2123 148.787 Z" fill="#000000" fill-rule="evenodd" fill-opacity="1" /><path clip-path="url(#clip440)" d="M 0 0 M80.189 146.843 L85.0733 146.843 L85.0733 152.723 L80.189 152.723 L80.189 146.843 Z" fill="#000000" fill-rule="evenodd" fill-opacity="1" /><path clip-path="url(#clip440)" d="M 0 0 M90.189 118.163 L108.545 118.163 L108.545 122.098 L94.4713 122.098 L94.4713 130.57 Q95.4899 130.223 96.5084 130.061 Q97.5269 129.875 98.5454 129.875 Q104.332 129.875 107.712 133.047 Q111.092 136.218 111.092 141.635 Q111.092 147.213 107.619 150.315 Q104.147 153.394 97.8278 153.394 Q95.6519 153.394 93.3834 153.024 Q91.138 152.653 88.7306 151.912 L88.7306 147.213 Q90.814 148.348 93.0362 148.903 Q95.2584 149.459 97.7352 149.459 Q101.74 149.459 104.078 147.352 Q106.416 145.246 106.416 141.635 Q106.416 138.024 104.078 135.917 Q101.74 133.811 97.7352 133.811 Q95.8602 133.811 93.9852 134.227 Q92.1334 134.644 90.189 135.524 L90.189 118.163 Z" fill="#000000" fill-rule="evenodd" fill-opacity="1" /><path clip-path="url(#clip440)" d="M 0 0 M144.332 127.26 L133.754 137.885 L144.332 148.463 L141.578 151.264 L130.953 140.639 L120.328 151.264 L117.596 148.463 L128.152 137.885 L117.596 127.26 L120.328 124.459 L130.953 135.084 L141.578 124.459 L144.332 127.26 Z" fill="#000000" fill-rule="evenodd" fill-opacity="1" /><path clip-path="url(#clip440)" d="M 0 0 M150.212 148.787 L157.851 148.787 L157.851 122.422 L149.54 124.088 L149.54 119.829 L157.804 118.163 L162.48 118.163 L162.48 148.787 L170.119 148.787 L170.119 152.723 L150.212 152.723 L150.212 148.787 Z" fill="#000000" fill-rule="evenodd" fill-opacity="1" /><path clip-path="url(#clip440)" d="M 0 0 M185.188 121.241 Q181.577 121.241 179.749 124.806 Q177.943 128.348 177.943 135.477 Q177.943 142.584 179.749 146.149 Q181.577 149.69 185.188 149.69 Q188.823 149.69 190.628 146.149 Q192.457 142.584 192.457 135.477 Q192.457 128.348 190.628 124.806 Q188.823 121.241 185.188 121.241 M185.188 117.538 Q190.999 117.538 194.054 122.144 Q197.133 126.727 197.133 135.477 Q197.133 144.204 194.054 148.811 Q190.999 153.394 185.188 153.394 Q179.378 153.394 176.3 148.811 Q173.244 144.204 173.244 135.477 Q173.244 126.727 176.3 122.144 Q179.378 117.538 185.188 117.538 Z" fill="#000000" fill-rule="evenodd" fill-opacity="1" /><path clip-path="url(#clip440)" d="M 0 0 M197.133 111.639 L221.244 111.639 L221.244 114.836 L197.133 114.836 L197.133 111.639 Z" fill="#000000" fill-rule="evenodd" fill-opacity="1" /><path clip-path="url(#clip440)" d="M 0 0 M226.022 122.115 L232.228 122.115 L232.228 100.693 L225.476 102.047 L225.476 98.5864 L232.191 97.2322 L235.99 97.2322 L235.99 122.115 L242.196 122.115 L242.196 125.312 L226.022 125.312 L226.022 122.115 Z" fill="#000000" fill-rule="evenodd" fill-opacity="1" /><path clip-path="url(#clip440)" d="M 0 0 M249.588 122.115 L262.847 122.115 L262.847 125.312 L245.017 125.312 L245.017 122.115 Q247.18 119.877 250.904 116.115 Q254.647 112.335 255.606 111.244 Q257.431 109.194 258.145 107.783 Q258.879 106.354 258.879 104.981 Q258.879 102.743 257.299 101.332 Q255.738 99.9217 253.218 99.9217 Q251.431 99.9217 249.437 100.542 Q247.462 101.163 245.205 102.423 L245.205 98.5864 Q247.5 97.6648 249.494 97.1946 Q251.487 96.7244 253.142 96.7244 Q257.506 96.7244 260.101 98.9061 Q262.697 101.088 262.697 104.736 Q262.697 106.467 262.038 108.028 Q261.399 109.57 259.687 111.677 Q259.217 112.222 256.697 114.836 Q254.177 117.432 249.588 122.115 Z" fill="#000000" fill-rule="evenodd" fill-opacity="1" /><path clip-path="url(#clip440)" d="M 0 0 M855.795 34.0924 L855.795 9.54393 L863.249 9.54393 L863.249 72.576 L855.795 72.576 L855.795 65.7705 Q853.446 69.8214 849.841 71.8063 Q846.276 73.7508 841.253 73.7508 Q833.029 73.7508 827.844 67.1883 Q822.699 60.6258 822.699 49.9314 Q822.699 39.2371 827.844 32.6746 Q833.029 26.1121 841.253 26.1121 Q846.276 26.1121 849.841 28.0971 Q853.446 30.0415 855.795 34.0924 M830.396 49.9314 Q830.396 58.1548 833.758 62.8538 Q837.161 67.5124 843.076 67.5124 Q848.99 67.5124 852.393 62.8538 Q855.795 58.1548 855.795 49.9314 Q855.795 41.7081 852.393 37.0496 Q848.99 32.3505 843.076 32.3505 Q837.161 32.3505 833.758 37.0496 Q830.396 41.7081 830.396 49.9314 Z" fill="#000000" fill-rule="evenodd" fill-opacity="1" /><path clip-path="url(#clip440)" d="M 0 0 M871.067 27.2059 L878.521 27.2059 L878.521 72.576 L871.067 72.576 L871.067 27.2059 M871.067 9.54393 L878.521 9.54393 L878.521 18.9825 L871.067 18.9825 L871.067 9.54393 Z" fill="#000000" fill-rule="evenodd" fill-opacity="1" /><path clip-path="url(#clip440)" d="M 0 0 M915.263 28.5427 L915.263 35.5912 Q912.103 33.9709 908.7 33.1607 Q905.297 32.3505 901.652 32.3505 Q896.102 32.3505 893.307 34.0519 Q890.552 35.7533 890.552 39.156 Q890.552 41.7486 892.537 43.2475 Q894.522 44.7058 900.517 46.0426 L903.069 46.6097 Q911.009 48.3111 914.331 51.4303 Q917.693 54.509 917.693 60.0587 Q917.693 66.3781 912.67 70.0644 Q907.687 73.7508 898.938 73.7508 Q895.292 73.7508 891.322 73.0216 Q887.392 72.3329 883.017 70.9151 L883.017 63.2184 Q887.149 65.3654 891.16 66.4591 Q895.17 67.5124 899.1 67.5124 Q904.366 67.5124 907.201 65.73 Q910.037 63.9071 910.037 60.6258 Q910.037 57.5877 907.971 55.9673 Q905.946 54.3469 899.019 52.8481 L896.426 52.2405 Q889.499 50.7821 886.42 47.7845 Q883.342 44.7463 883.342 39.4801 Q883.342 33.0797 887.879 29.5959 Q892.416 26.1121 900.76 26.1121 Q904.892 26.1121 908.538 26.7198 Q912.184 27.3274 915.263 28.5427 Z" fill="#000000" fill-rule="evenodd" fill-opacity="1" /><path clip-path="url(#clip440)" d="M 0 0 M932.884 14.324 L932.884 27.2059 L948.237 27.2059 L948.237 32.9987 L932.884 32.9987 L932.884 57.6282 Q932.884 63.1779 934.383 64.7578 Q935.922 66.3376 940.581 66.3376 L948.237 66.3376 L948.237 72.576 L940.581 72.576 Q931.952 72.576 928.671 69.3758 Q925.39 66.1351 925.39 57.6282 L925.39 32.9987 L919.921 32.9987 L919.921 27.2059 L925.39 27.2059 L925.39 14.324 L932.884 14.324 Z" fill="#000000" fill-rule="evenodd" fill-opacity="1" /><path clip-path="url(#clip440)" d="M 0 0 M982.346 34.1734 Q981.09 33.4443 979.591 33.1202 Q978.133 32.7556 976.35 32.7556 Q970.031 32.7556 966.628 36.8875 Q963.266 40.9789 963.266 48.6757 L963.266 72.576 L955.772 72.576 L955.772 27.2059 L963.266 27.2059 L963.266 34.2544 Q965.615 30.1225 969.383 28.1376 Q973.15 26.1121 978.538 26.1121 Q979.307 26.1121 980.239 26.2337 Q981.171 26.3147 982.305 26.5172 L982.346 34.1734 Z" fill="#000000" fill-rule="evenodd" fill-opacity="1" /><path clip-path="url(#clip440)" d="M 0 0 M990.164 27.2059 L997.618 27.2059 L997.618 72.576 L990.164 72.576 L990.164 27.2059 M990.164 9.54393 L997.618 9.54393 L997.618 18.9825 L990.164 18.9825 L990.164 9.54393 Z" fill="#000000" fill-rule="evenodd" fill-opacity="1" /><path clip-path="url(#clip440)" d="M 0 0 M1038.01 49.9314 Q1038.01 41.7081 1034.6 37.0496 Q1031.24 32.3505 1025.33 32.3505 Q1019.41 32.3505 1016.01 37.0496 Q1012.65 41.7081 1012.65 49.9314 Q1012.65 58.1548 1016.01 62.8538 Q1019.41 67.5124 1025.33 67.5124 Q1031.24 67.5124 1034.6 62.8538 Q1038.01 58.1548 1038.01 49.9314 M1012.65 34.0924 Q1015 30.0415 1018.56 28.0971 Q1022.17 26.1121 1027.15 26.1121 Q1035.41 26.1121 1040.56 32.6746 Q1045.74 39.2371 1045.74 49.9314 Q1045.74 60.6258 1040.56 67.1883 Q1035.41 73.7508 1027.15 73.7508 Q1022.17 73.7508 1018.56 71.8063 Q1015 69.8214 1012.65 65.7705 L1012.65 72.576 L1005.15 72.576 L1005.15 9.54393 L1012.65 9.54393 L1012.65 34.0924 Z" fill="#000000" fill-rule="evenodd" fill-opacity="1" /><path clip-path="url(#clip440)" d="M 0 0 M1052.79 54.671 L1052.79 27.2059 L1060.24 27.2059 L1060.24 54.3874 Q1060.24 60.8284 1062.76 64.0691 Q1065.27 67.2693 1070.29 67.2693 Q1076.33 67.2693 1079.81 63.421 Q1083.33 59.5726 1083.33 52.9291 L1083.33 27.2059 L1090.79 27.2059 L1090.79 72.576 L1083.33 72.576 L1083.33 65.6084 Q1080.62 69.7404 1077.02 71.7658 Q1073.45 73.7508 1068.71 73.7508 Q1060.89 73.7508 1056.84 68.8897 Q1052.79 64.0286 1052.79 54.671 M1071.55 26.1121 L1071.55 26.1121 Z" fill="#000000" fill-rule="evenodd" fill-opacity="1" /><path clip-path="url(#clip440)" d="M 0 0 M1105.98 14.324 L1105.98 27.2059 L1121.33 27.2059 L1121.33 32.9987 L1105.98 32.9987 L1105.98 57.6282 Q1105.98 63.1779 1107.48 64.7578 Q1109.02 66.3376 1113.68 66.3376 L1121.33 66.3376 L1121.33 72.576 L1113.68 72.576 Q1105.05 72.576 1101.77 69.3758 Q1098.49 66.1351 1098.49 57.6282 L1098.49 32.9987 L1093.02 32.9987 L1093.02 27.2059 L1098.49 27.2059 L1098.49 14.324 L1105.98 14.324 Z" fill="#000000" fill-rule="evenodd" fill-opacity="1" /><path clip-path="url(#clip440)" d="M 0 0 M1129.15 27.2059 L1136.6 27.2059 L1136.6 72.576 L1129.15 72.576 L1129.15 27.2059 M1129.15 9.54393 L1136.6 9.54393 L1136.6 18.9825 L1129.15 18.9825 L1129.15 9.54393 Z" fill="#000000" fill-rule="evenodd" fill-opacity="1" /><path clip-path="url(#clip440)" d="M 0 0 M1162 32.4315 Q1156.01 32.4315 1152.52 37.1306 Q1149.04 41.7891 1149.04 49.9314 Q1149.04 58.0738 1152.48 62.7728 Q1155.97 67.4314 1162 67.4314 Q1167.96 67.4314 1171.44 62.7323 Q1174.93 58.0333 1174.93 49.9314 Q1174.93 41.8701 1171.44 37.1711 Q1167.96 32.4315 1162 32.4315 M1162 26.1121 Q1171.73 26.1121 1177.28 32.4315 Q1182.82 38.7509 1182.82 49.9314 Q1182.82 61.0714 1177.28 67.4314 Q1171.73 73.7508 1162 73.7508 Q1152.24 73.7508 1146.69 67.4314 Q1141.18 61.0714 1141.18 49.9314 Q1141.18 38.7509 1146.69 32.4315 Q1152.24 26.1121 1162 26.1121 Z" fill="#000000" fill-rule="evenodd" fill-opacity="1" /><path clip-path="url(#clip440)" d="M 0 0 M1228.36 45.1919 L1228.36 72.576 L1220.9 72.576 L1220.9 45.4349 Q1220.9 38.994 1218.39 35.7938 Q1215.88 32.5936 1210.86 32.5936 Q1204.82 32.5936 1201.34 36.4419 Q1197.85 40.2903 1197.85 46.9338 L1197.85 72.576 L1190.36 72.576 L1190.36 27.2059 L1197.85 27.2059 L1197.85 34.2544 Q1200.53 30.163 1204.13 28.1376 Q1207.78 26.1121 1212.52 26.1121 Q1220.34 26.1121 1224.35 30.9732 Q1228.36 35.7938 1228.36 45.1919 Z" fill="#000000" fill-rule="evenodd" fill-opacity="1" /><path clip-path="url(#clip440)" d="M 0 0 M1280.13 32.4315 Q1274.13 32.4315 1270.65 37.1306 Q1267.16 41.7891 1267.16 49.9314 Q1267.16 58.0738 1270.61 62.7728 Q1274.09 67.4314 1280.13 67.4314 Q1286.08 67.4314 1289.57 62.7323 Q1293.05 58.0333 1293.05 49.9314 Q1293.05 41.8701 1289.57 37.1711 Q1286.08 32.4315 1280.13 32.4315 M1280.13 26.1121 Q1289.85 26.1121 1295.4 32.4315 Q1300.95 38.7509 1300.95 49.9314 Q1300.95 61.0714 1295.4 67.4314 Q1289.85 73.7508 1280.13 73.7508 Q1270.36 73.7508 1264.82 67.4314 Q1259.31 61.0714 1259.31 49.9314 Q1259.31 38.7509 1264.82 32.4315 Q1270.36 26.1121 1280.13 26.1121 Z" fill="#000000" fill-rule="evenodd" fill-opacity="1" /><path clip-path="url(#clip440)" d="M 0 0 M1331.74 9.54393 L1331.74 15.7418 L1324.61 15.7418 Q1320.6 15.7418 1319.02 17.3622 Q1317.48 18.9825 1317.48 23.1955 L1317.48 27.2059 L1329.75 27.2059 L1329.75 32.9987 L1317.48 32.9987 L1317.48 72.576 L1309.98 72.576 L1309.98 32.9987 L1302.85 32.9987 L1302.85 27.2059 L1309.98 27.2059 L1309.98 24.0462 Q1309.98 16.471 1313.51 13.0277 Q1317.03 9.54393 1324.69 9.54393 L1331.74 9.54393 Z" fill="#000000" fill-rule="evenodd" fill-opacity="1" /><path clip-path="url(#clip440)" d="M 0 0 M1395.78 34.0924 L1395.78 9.54393 L1403.23 9.54393 L1403.23 72.576 L1395.78 72.576 L1395.78 65.7705 Q1393.43 69.8214 1389.83 71.8063 Q1386.26 73.7508 1381.24 73.7508 Q1373.01 73.7508 1367.83 67.1883 Q1362.69 60.6258 1362.69 49.9314 Q1362.69 39.2371 1367.83 32.6746 Q1373.01 26.1121 1381.24 26.1121 Q1386.26 26.1121 1389.83 28.0971 Q1393.43 30.0415 1395.78 34.0924 M1370.38 49.9314 Q1370.38 58.1548 1373.74 62.8538 Q1377.15 67.5124 1383.06 67.5124 Q1388.98 67.5124 1392.38 62.8538 Q1395.78 58.1548 1395.78 49.9314 Q1395.78 41.7081 1392.38 37.0496 Q1388.98 32.3505 1383.06 32.3505 Q1377.15 32.3505 1373.74 37.0496 Q1370.38 41.7081 1370.38 49.9314 Z" fill="#000000" fill-rule="evenodd" fill-opacity="1" /><path clip-path="url(#clip440)" d="M 0 0 M1437.34 34.1734 Q1436.09 33.4443 1434.59 33.1202 Q1433.13 32.7556 1431.35 32.7556 Q1425.03 32.7556 1421.63 36.8875 Q1418.26 40.9789 1418.26 48.6757 L1418.26 72.576 L1410.77 72.576 L1410.77 27.2059 L1418.26 27.2059 L1418.26 34.2544 Q1420.61 30.1225 1424.38 28.1376 Q1428.15 26.1121 1433.54 26.1121 Q1434.31 26.1121 1435.24 26.2337 Q1436.17 26.3147 1437.3 26.5172 L1437.34 34.1734 Z" fill="#000000" fill-rule="evenodd" fill-opacity="1" /><path clip-path="url(#clip440)" d="M 0 0 M1460.92 32.4315 Q1454.92 32.4315 1451.44 37.1306 Q1447.96 41.7891 1447.96 49.9314 Q1447.96 58.0738 1451.4 62.7728 Q1454.88 67.4314 1460.92 67.4314 Q1466.87 67.4314 1470.36 62.7323 Q1473.84 58.0333 1473.84 49.9314 Q1473.84 41.8701 1470.36 37.1711 Q1466.87 32.4315 1460.92 32.4315 M1460.92 26.1121 Q1470.64 26.1121 1476.19 32.4315 Q1481.74 38.7509 1481.74 49.9314 Q1481.74 61.0714 1476.19 67.4314 Q1470.64 73.7508 1460.92 73.7508 Q1451.16 73.7508 1445.61 67.4314 Q1440.1 61.0714 1440.1 49.9314 Q1440.1 38.7509 1445.61 32.4315 Q1451.16 26.1121 1460.92 26.1121 Z" fill="#000000" fill-rule="evenodd" fill-opacity="1" /><path clip-path="url(#clip440)" d="M 0 0 M1496.77 65.7705 L1496.77 89.8329 L1489.28 89.8329 L1489.28 27.2059 L1496.77 27.2059 L1496.77 34.0924 Q1499.12 30.0415 1502.68 28.0971 Q1506.29 26.1121 1511.27 26.1121 Q1519.54 26.1121 1524.68 32.6746 Q1529.87 39.2371 1529.87 49.9314 Q1529.87 60.6258 1524.68 67.1883 Q1519.54 73.7508 1511.27 73.7508 Q1506.29 73.7508 1502.68 71.8063 Q1499.12 69.8214 1496.77 65.7705 M1522.13 49.9314 Q1522.13 41.7081 1518.73 37.0496 Q1515.36 32.3505 1509.45 32.3505 Q1503.53 32.3505 1500.13 37.0496 Q1496.77 41.7081 1496.77 49.9314 Q1496.77 58.1548 1500.13 62.8538 Q1503.53 67.5124 1509.45 67.5124 Q1515.36 67.5124 1518.73 62.8538 Q1522.13 58.1548 1522.13 49.9314 Z" fill="#000000" fill-rule="evenodd" fill-opacity="1" /><path clip-path="url(#clip440)" d="M 0 0 M1537.68 9.54393 L1545.14 9.54393 L1545.14 72.576 L1537.68 72.576 L1537.68 9.54393 Z" fill="#000000" fill-rule="evenodd" fill-opacity="1" /><path clip-path="url(#clip440)" d="M 0 0 M1591.76 48.0275 L1591.76 51.6733 L1557.49 51.6733 Q1557.98 59.3701 1562.11 63.421 Q1566.28 67.4314 1573.7 67.4314 Q1577.99 67.4314 1582 66.3781 Q1586.05 65.3249 1590.02 63.2184 L1590.02 70.267 Q1586.01 71.9684 1581.8 72.8596 Q1577.59 73.7508 1573.25 73.7508 Q1562.39 73.7508 1556.03 67.4314 Q1549.72 61.1119 1549.72 50.3365 Q1549.72 39.1965 1555.71 32.6746 Q1561.75 26.1121 1571.95 26.1121 Q1581.11 26.1121 1586.42 32.0264 Q1591.76 37.9003 1591.76 48.0275 M1584.31 45.84 Q1584.23 39.7232 1580.87 36.0774 Q1577.54 32.4315 1572.04 32.4315 Q1565.8 32.4315 1562.03 35.9558 Q1558.3 39.4801 1557.74 45.8805 L1584.31 45.84 Z" fill="#000000" fill-rule="evenodd" fill-opacity="1" /><path clip-path="url(#clip440)" d="M 0 0 M1606.95 14.324 L1606.95 27.2059 L1622.31 27.2059 L1622.31 32.9987 L1606.95 32.9987 L1606.95 57.6282 Q1606.95 63.1779 1608.45 64.7578 Q1609.99 66.3376 1614.65 66.3376 L1622.31 66.3376 L1622.31 72.576 L1614.65 72.576 Q1606.02 72.576 1602.74 69.3758 Q1599.46 66.1351 1599.46 57.6282 L1599.46 32.9987 L1593.99 32.9987 L1593.99 27.2059 L1599.46 27.2059 L1599.46 14.324 L1606.95 14.324 Z" fill="#000000" fill-rule="evenodd" fill-opacity="1" /><path clip-path="url(#clip440)" d="M 0 0 M1685.42 28.5427 L1685.42 35.5912 Q1682.26 33.9709 1678.86 33.1607 Q1675.46 32.3505 1671.81 32.3505 Q1666.26 32.3505 1663.46 34.0519 Q1660.71 35.7533 1660.71 39.156 Q1660.71 41.7486 1662.69 43.2475 Q1664.68 44.7058 1670.68 46.0426 L1673.23 46.6097 Q1681.17 48.3111 1684.49 51.4303 Q1687.85 54.509 1687.85 60.0587 Q1687.85 66.3781 1682.83 70.0644 Q1677.85 73.7508 1669.1 73.7508 Q1665.45 73.7508 1661.48 73.0216 Q1657.55 72.3329 1653.18 70.9151 L1653.18 63.2184 Q1657.31 65.3654 1661.32 66.4591 Q1665.33 67.5124 1669.26 67.5124 Q1674.52 67.5124 1677.36 65.73 Q1680.19 63.9071 1680.19 60.6258 Q1680.19 57.5877 1678.13 55.9673 Q1676.1 54.3469 1669.18 52.8481 L1666.58 52.2405 Q1659.66 50.7821 1656.58 47.7845 Q1653.5 44.7463 1653.5 39.4801 Q1653.5 33.0797 1658.04 29.5959 Q1662.57 26.1121 1670.92 26.1121 Q1675.05 26.1121 1678.7 26.7198 Q1682.34 27.3274 1685.42 28.5427 Z" fill="#000000" fill-rule="evenodd" fill-opacity="1" /><path clip-path="url(#clip440)" d="M 0 0 M1695.67 27.2059 L1703.12 27.2059 L1703.12 72.576 L1695.67 72.576 L1695.67 27.2059 M1695.67 9.54393 L1703.12 9.54393 L1703.12 18.9825 L1695.67 18.9825 L1695.67 9.54393 Z" fill="#000000" fill-rule="evenodd" fill-opacity="1" /><path clip-path="url(#clip440)" d="M 0 0 M1707.7 27.2059 L1743.11 27.2059 L1743.11 34.0114 L1715.07 66.6212 L1743.11 66.6212 L1743.11 72.576 L1706.69 72.576 L1706.69 65.7705 L1734.72 33.1607 L1707.7 33.1607 L1707.7 27.2059 Z" fill="#000000" fill-rule="evenodd" fill-opacity="1" /><path clip-path="url(#clip440)" d="M 0 0 M1789.73 48.0275 L1789.73 51.6733 L1755.46 51.6733 Q1755.95 59.3701 1760.08 63.421 Q1764.25 67.4314 1771.66 67.4314 Q1775.96 67.4314 1779.97 66.3781 Q1784.02 65.3249 1787.99 63.2184 L1787.99 70.267 Q1783.98 71.9684 1779.77 72.8596 Q1775.55 73.7508 1771.22 73.7508 Q1760.36 73.7508 1754 67.4314 Q1747.68 61.1119 1747.68 50.3365 Q1747.68 39.1965 1753.68 32.6746 Q1759.71 26.1121 1769.92 26.1121 Q1779.08 26.1121 1784.38 32.0264 Q1789.73 37.9003 1789.73 48.0275 M1782.28 45.84 Q1782.2 39.7232 1778.83 36.0774 Q1775.51 32.4315 1770 32.4315 Q1763.77 32.4315 1760 35.9558 Q1756.27 39.4801 1755.7 45.8805 L1782.28 45.84 Z" fill="#000000" fill-rule="evenodd" fill-opacity="1" /><path clip-path="url(#clip440)" d="M 0 0 M1826.47 28.5427 L1826.47 35.5912 Q1823.31 33.9709 1819.91 33.1607 Q1816.51 32.3505 1812.86 32.3505 Q1807.31 32.3505 1804.52 34.0519 Q1801.76 35.7533 1801.76 39.156 Q1801.76 41.7486 1803.75 43.2475 Q1805.73 44.7058 1811.73 46.0426 L1814.28 46.6097 Q1822.22 48.3111 1825.54 51.4303 Q1828.9 54.509 1828.9 60.0587 Q1828.9 66.3781 1823.88 70.0644 Q1818.9 73.7508 1810.15 73.7508 Q1806.5 73.7508 1802.53 73.0216 Q1798.6 72.3329 1794.23 70.9151 L1794.23 63.2184 Q1798.36 65.3654 1802.37 66.4591 Q1806.38 67.5124 1810.31 67.5124 Q1815.58 67.5124 1818.41 65.73 Q1821.25 63.9071 1821.25 60.6258 Q1821.25 57.5877 1819.18 55.9673 Q1817.16 54.3469 1810.23 52.8481 L1807.64 52.2405 Q1800.71 50.7821 1797.63 47.7845 Q1794.55 44.7463 1794.55 39.4801 Q1794.55 33.0797 1799.09 29.5959 Q1803.63 26.1121 1811.97 26.1121 Q1816.1 26.1121 1819.75 26.7198 Q1823.39 27.3274 1826.47 28.5427 Z" fill="#000000" fill-rule="evenodd" fill-opacity="1" /><polyline clip-path="url(#clip442)" style="stroke:#009af9; stroke-width:4; stroke-opacity:1; fill:none" points="
  356.977,1386.4 361.707,1386.4 366.438,1386.4 371.169,1386.4 375.899,1386.39 397.77,1385.58 419.641,1376.23 430.577,1363.55 441.512,1343.19 452.448,1314.16 
  463.383,1276.23 474.319,1229.83 485.254,1175.88 496.19,1115.65 507.125,1050.6 528.996,911.984 550.867,771.193 564.011,689.398 577.155,611.599 590.298,538.928 
  603.442,472.2 616.585,411.948 629.729,358.468 642.872,311.859 656.016,272.062 667.129,243.6 678.241,219.72 689.354,200.226 700.467,184.894 722.692,165.746 
  744.918,160.256 769.061,167.394 793.204,185.748 817.347,213.039 841.49,247.241 886.005,322.718 930.521,407.181 978.246,500.76 1025.97,592.612 1081.27,692.94 
  1136.56,784.417 1185.7,857.511 1234.84,922.863 1277.93,974.058 1321.02,1019.91 1368,1064.29 1414.98,1103.37 1462.24,1137.89 1509.5,1168.14 1614,1222.31 
  1713.44,1260.9 1816.82,1291.04 1903.85,1310.44 2010.1,1328.59 2109.98,1341.45 2270,1356.06 2294.63,1357.81 
  "/>
<circle clip-path="url(#clip442)" cx="1618.67" cy="1224.37" r="14" fill="#e26f46" fill-rule="evenodd" fill-opacity="1" stroke="#000000" stroke-opacity="1" stroke-width="3.2"/>
<path clip-path="url(#clip442)" d="
M1618.67 1224.37 L1625.27 1227.25 L1686.31 1251.43 L1722.99 1264.07 L1754 1273.78 L1787.69 1283.42 L1818.75 1291.52 L1852.05 1299.46 L1890.63 1307.79 L1924.91 1314.47 
  L1954.98 1319.84 L1987.76 1325.2 L2020.73 1330.13 L2057.19 1335.08 L2091.87 1339.37 L2127.94 1343.41 L2158.3 1346.53 L2195.37 1350.01 L2230.21 1352.98 L2286.04 1357.21 
  L2294.63 1357.81 L2294.63 1386.4 L2286.04 1386.4 L2230.21 1386.4 L2195.37 1386.4 L2158.3 1386.4 L2127.94 1386.4 L2091.87 1386.4 L2057.19 1386.4 L2020.73 1386.4 
  L1987.76 1386.4 L1954.98 1386.4 L1924.91 1386.4 L1890.63 1386.4 L1852.05 1386.4 L1818.75 1386.4 L1787.69 1386.4 L1754 1386.4 L1722.99 1386.4 L1686.31 1386.4 
  L1625.27 1386.4 L1618.67 1386.4  Z
  " fill="#ff0000" fill-rule="evenodd" fill-opacity="0.5"/>
<polyline clip-path="url(#clip442)" style="stroke:#3da44d; stroke-width:4; stroke-opacity:1; fill:none" points="
  1618.67,1224.37 1625.27,1227.25 1686.31,1251.43 1722.99,1264.07 1754,1273.78 1787.69,1283.42 1818.75,1291.52 1852.05,1299.46 1890.63,1307.79 1924.91,1314.47 
  1954.98,1319.84 1987.76,1325.2 2020.73,1330.13 2057.19,1335.08 2091.87,1339.37 2127.94,1343.41 2158.3,1346.53 2195.37,1350.01 2230.21,1352.98 2286.04,1357.21 
  2294.63,1357.81 
  "/>
<path clip-path="url(#clip440)" d="
M1562.56 408.716 L2284.29 408.716 L2284.29 166.796 L1562.56 166.796  Z
  " fill="#ffffff" fill-rule="evenodd" fill-opacity="1"/>
<polyline clip-path="url(#clip440)" style="stroke:#000000; stroke-width:4; stroke-opacity:1; fill:none" points="
  1562.56,408.716 2284.29,408.716 2284.29,166.796 1562.56,166.796 1562.56,408.716 
  "/>
<polyline clip-path="url(#clip440)" style="stroke:#009af9; stroke-width:4; stroke-opacity:1; fill:none" points="
  1585.39,227.276 1722.31,227.276 
  "/>
<path clip-path="url(#clip440)" d="M 0 0 M1764.05 222.565 L1764.05 208.537 L1768.31 208.537 L1768.31 244.556 L1764.05 244.556 L1764.05 240.667 Q1762.7 242.982 1760.64 244.116 Q1758.61 245.227 1755.74 245.227 Q1751.04 245.227 1748.07 241.477 Q1745.13 237.727 1745.13 231.616 Q1745.13 225.505 1748.07 221.755 Q1751.04 218.005 1755.74 218.005 Q1758.61 218.005 1760.64 219.139 Q1762.7 220.25 1764.05 222.565 M1749.53 231.616 Q1749.53 236.315 1751.45 239 Q1753.4 241.662 1756.78 241.662 Q1760.16 241.662 1762.1 239 Q1764.05 236.315 1764.05 231.616 Q1764.05 226.917 1762.1 224.255 Q1760.16 221.57 1756.78 221.57 Q1753.4 221.57 1751.45 224.255 Q1749.53 226.917 1749.53 231.616 Z" fill="#000000" fill-rule="evenodd" fill-opacity="1" /><path clip-path="url(#clip440)" d="M 0 0 M1787.8 222.611 Q1787.08 222.195 1786.22 222.01 Q1785.39 221.801 1784.37 221.801 Q1780.76 221.801 1778.81 224.162 Q1776.89 226.5 1776.89 230.898 L1776.89 244.556 L1772.61 244.556 L1772.61 218.63 L1776.89 218.63 L1776.89 222.658 Q1778.24 220.297 1780.39 219.162 Q1782.54 218.005 1785.62 218.005 Q1786.06 218.005 1786.59 218.074 Q1787.12 218.121 1787.77 218.236 L1787.8 222.611 Z" fill="#000000" fill-rule="evenodd" fill-opacity="1" /><path clip-path="url(#clip440)" d="M 0 0 M1801.27 221.616 Q1797.84 221.616 1795.85 224.301 Q1793.86 226.963 1793.86 231.616 Q1793.86 236.269 1795.83 238.954 Q1797.82 241.616 1801.27 241.616 Q1804.67 241.616 1806.66 238.931 Q1808.65 236.246 1808.65 231.616 Q1808.65 227.01 1806.66 224.324 Q1804.67 221.616 1801.27 221.616 M1801.27 218.005 Q1806.82 218.005 1809.99 221.616 Q1813.17 225.227 1813.17 231.616 Q1813.17 237.982 1809.99 241.616 Q1806.82 245.227 1801.27 245.227 Q1795.69 245.227 1792.52 241.616 Q1789.37 237.982 1789.37 231.616 Q1789.37 225.227 1792.52 221.616 Q1795.69 218.005 1801.27 218.005 Z" fill="#000000" fill-rule="evenodd" fill-opacity="1" /><path clip-path="url(#clip440)" d="M 0 0 M1821.75 240.667 L1821.75 254.417 L1817.47 254.417 L1817.47 218.63 L1821.75 218.63 L1821.75 222.565 Q1823.1 220.25 1825.13 219.139 Q1827.19 218.005 1830.04 218.005 Q1834.76 218.005 1837.7 221.755 Q1840.67 225.505 1840.67 231.616 Q1840.67 237.727 1837.7 241.477 Q1834.76 245.227 1830.04 245.227 Q1827.19 245.227 1825.13 244.116 Q1823.1 242.982 1821.75 240.667 M1836.24 231.616 Q1836.24 226.917 1834.3 224.255 Q1832.38 221.57 1829 221.57 Q1825.62 221.57 1823.68 224.255 Q1821.75 226.917 1821.75 231.616 Q1821.75 236.315 1823.68 239 Q1825.62 241.662 1829 241.662 Q1832.38 241.662 1834.3 239 Q1836.24 236.315 1836.24 231.616 Z" fill="#000000" fill-rule="evenodd" fill-opacity="1" /><path clip-path="url(#clip440)" d="M 0 0 M1845.13 208.537 L1849.39 208.537 L1849.39 244.556 L1845.13 244.556 L1845.13 208.537 Z" fill="#000000" fill-rule="evenodd" fill-opacity="1" /><path clip-path="url(#clip440)" d="M 0 0 M1876.04 230.528 L1876.04 232.611 L1856.45 232.611 Q1856.73 237.009 1859.09 239.324 Q1861.48 241.616 1865.71 241.616 Q1868.17 241.616 1870.46 241.014 Q1872.77 240.412 1875.04 239.209 L1875.04 243.236 Q1872.75 244.208 1870.34 244.718 Q1867.93 245.227 1865.46 245.227 Q1859.25 245.227 1855.62 241.616 Q1852.01 238.005 1852.01 231.847 Q1852.01 225.482 1855.43 221.755 Q1858.88 218.005 1864.72 218.005 Q1869.95 218.005 1872.98 221.385 Q1876.04 224.741 1876.04 230.528 M1871.78 229.278 Q1871.73 225.783 1869.81 223.699 Q1867.91 221.616 1864.76 221.616 Q1861.2 221.616 1859.05 223.63 Q1856.92 225.644 1856.59 229.301 L1871.78 229.278 Z" fill="#000000" fill-rule="evenodd" fill-opacity="1" /><path clip-path="url(#clip440)" d="M 0 0 M1884.72 211.269 L1884.72 218.63 L1893.49 218.63 L1893.49 221.94 L1884.72 221.94 L1884.72 236.014 Q1884.72 239.185 1885.57 240.088 Q1886.45 240.991 1889.11 240.991 L1893.49 240.991 L1893.49 244.556 L1889.11 244.556 Q1884.18 244.556 1882.31 242.727 Q1880.43 240.875 1880.43 236.014 L1880.43 221.94 L1877.31 221.94 L1877.31 218.63 L1880.43 218.63 L1880.43 211.269 L1884.72 211.269 Z" fill="#000000" fill-rule="evenodd" fill-opacity="1" /><path clip-path="url(#clip440)" d="M 0 0 M1929.55 219.394 L1929.55 223.422 Q1927.75 222.496 1925.8 222.033 Q1923.86 221.57 1921.78 221.57 Q1918.61 221.57 1917.01 222.542 Q1915.43 223.514 1915.43 225.459 Q1915.43 226.94 1916.57 227.797 Q1917.7 228.63 1921.13 229.394 L1922.59 229.718 Q1927.12 230.69 1929.02 232.472 Q1930.94 234.232 1930.94 237.403 Q1930.94 241.014 1928.07 243.121 Q1925.23 245.227 1920.23 245.227 Q1918.14 245.227 1915.87 244.81 Q1913.63 244.417 1911.13 243.607 L1911.13 239.209 Q1913.49 240.435 1915.78 241.06 Q1918.07 241.662 1920.32 241.662 Q1923.33 241.662 1924.95 240.644 Q1926.57 239.602 1926.57 237.727 Q1926.57 235.991 1925.39 235.065 Q1924.23 234.139 1920.27 233.283 L1918.79 232.935 Q1914.83 232.102 1913.07 230.389 Q1911.31 228.653 1911.31 225.644 Q1911.31 221.986 1913.91 219.996 Q1916.5 218.005 1921.27 218.005 Q1923.63 218.005 1925.71 218.352 Q1927.8 218.699 1929.55 219.394 Z" fill="#000000" fill-rule="evenodd" fill-opacity="1" /><path clip-path="url(#clip440)" d="M 0 0 M1935.41 218.63 L1939.67 218.63 L1939.67 244.556 L1935.41 244.556 L1935.41 218.63 M1935.41 208.537 L1939.67 208.537 L1939.67 213.931 L1935.41 213.931 L1935.41 208.537 Z" fill="#000000" fill-rule="evenodd" fill-opacity="1" /><path clip-path="url(#clip440)" d="M 0 0 M1942.29 218.63 L1962.52 218.63 L1962.52 222.519 L1946.5 241.153 L1962.52 241.153 L1962.52 244.556 L1941.71 244.556 L1941.71 240.667 L1957.73 222.033 L1942.29 222.033 L1942.29 218.63 Z" fill="#000000" fill-rule="evenodd" fill-opacity="1" /><path clip-path="url(#clip440)" d="M 0 0 M1989.16 230.528 L1989.16 232.611 L1969.58 232.611 Q1969.86 237.009 1972.22 239.324 Q1974.6 241.616 1978.84 241.616 Q1981.29 241.616 1983.58 241.014 Q1985.9 240.412 1988.17 239.209 L1988.17 243.236 Q1985.87 244.208 1983.47 244.718 Q1981.06 245.227 1978.58 245.227 Q1972.38 245.227 1968.74 241.616 Q1965.13 238.005 1965.13 231.847 Q1965.13 225.482 1968.56 221.755 Q1972.01 218.005 1977.84 218.005 Q1983.07 218.005 1986.1 221.385 Q1989.16 224.741 1989.16 230.528 M1984.9 229.278 Q1984.85 225.783 1982.93 223.699 Q1981.04 221.616 1977.89 221.616 Q1974.32 221.616 1972.17 223.63 Q1970.04 225.644 1969.72 229.301 L1984.9 229.278 Z" fill="#000000" fill-rule="evenodd" fill-opacity="1" /><path clip-path="url(#clip440)" d="M 0 0 M2025.76 222.565 L2025.76 208.537 L2030.02 208.537 L2030.02 244.556 L2025.76 244.556 L2025.76 240.667 Q2024.41 242.982 2022.35 244.116 Q2020.32 245.227 2017.45 245.227 Q2012.75 245.227 2009.79 241.477 Q2006.85 237.727 2006.85 231.616 Q2006.85 225.505 2009.79 221.755 Q2012.75 218.005 2017.45 218.005 Q2020.32 218.005 2022.35 219.139 Q2024.41 220.25 2025.76 222.565 M2011.24 231.616 Q2011.24 236.315 2013.16 239 Q2015.11 241.662 2018.49 241.662 Q2021.87 241.662 2023.81 239 Q2025.76 236.315 2025.76 231.616 Q2025.76 226.917 2023.81 224.255 Q2021.87 221.57 2018.49 221.57 Q2015.11 221.57 2013.16 224.255 Q2011.24 226.917 2011.24 231.616 Z" fill="#000000" fill-rule="evenodd" fill-opacity="1" /><path clip-path="url(#clip440)" d="M 0 0 M2034.48 218.63 L2038.74 218.63 L2038.74 244.556 L2034.48 244.556 L2034.48 218.63 M2034.48 208.537 L2038.74 208.537 L2038.74 213.931 L2034.48 213.931 L2034.48 208.537 Z" fill="#000000" fill-rule="evenodd" fill-opacity="1" /><path clip-path="url(#clip440)" d="M 0 0 M2059.74 219.394 L2059.74 223.422 Q2057.93 222.496 2055.99 222.033 Q2054.04 221.57 2051.96 221.57 Q2048.79 221.57 2047.19 222.542 Q2045.62 223.514 2045.62 225.459 Q2045.62 226.94 2046.75 227.797 Q2047.89 228.63 2051.31 229.394 L2052.77 229.718 Q2057.31 230.69 2059.21 232.472 Q2061.13 234.232 2061.13 237.403 Q2061.13 241.014 2058.26 243.121 Q2055.41 245.227 2050.41 245.227 Q2048.33 245.227 2046.06 244.81 Q2043.81 244.417 2041.31 243.607 L2041.31 239.209 Q2043.67 240.435 2045.97 241.06 Q2048.26 241.662 2050.5 241.662 Q2053.51 241.662 2055.13 240.644 Q2056.75 239.602 2056.75 237.727 Q2056.75 235.991 2055.57 235.065 Q2054.41 234.139 2050.46 233.283 L2048.97 232.935 Q2045.02 232.102 2043.26 230.389 Q2041.5 228.653 2041.5 225.644 Q2041.5 221.986 2044.09 219.996 Q2046.68 218.005 2051.45 218.005 Q2053.81 218.005 2055.9 218.352 Q2057.98 218.699 2059.74 219.394 Z" fill="#000000" fill-rule="evenodd" fill-opacity="1" /><path clip-path="url(#clip440)" d="M 0 0 M2069.81 211.269 L2069.81 218.63 L2078.58 218.63 L2078.58 221.94 L2069.81 221.94 L2069.81 236.014 Q2069.81 239.185 2070.66 240.088 Q2071.54 240.991 2074.21 240.991 L2078.58 240.991 L2078.58 244.556 L2074.21 244.556 Q2069.28 244.556 2067.4 242.727 Q2065.53 240.875 2065.53 236.014 L2065.53 221.94 L2062.4 221.94 L2062.4 218.63 L2065.53 218.63 L2065.53 211.269 L2069.81 211.269 Z" fill="#000000" fill-rule="evenodd" fill-opacity="1" /><path clip-path="url(#clip440)" d="M 0 0 M2098.07 222.611 Q2097.35 222.195 2096.5 222.01 Q2095.66 221.801 2094.65 221.801 Q2091.03 221.801 2089.09 224.162 Q2087.17 226.5 2087.17 230.898 L2087.17 244.556 L2082.89 244.556 L2082.89 218.63 L2087.17 218.63 L2087.17 222.658 Q2088.51 220.297 2090.66 219.162 Q2092.82 218.005 2095.9 218.005 Q2096.34 218.005 2096.87 218.074 Q2097.4 218.121 2098.05 218.236 L2098.07 222.611 Z" fill="#000000" fill-rule="evenodd" fill-opacity="1" /><path clip-path="url(#clip440)" d="M 0 0 M2102.54 218.63 L2106.8 218.63 L2106.8 244.556 L2102.54 244.556 L2102.54 218.63 M2102.54 208.537 L2106.8 208.537 L2106.8 213.931 L2102.54 213.931 L2102.54 208.537 Z" fill="#000000" fill-rule="evenodd" fill-opacity="1" /><path clip-path="url(#clip440)" d="M 0 0 M2129.88 231.616 Q2129.88 226.917 2127.93 224.255 Q2126.01 221.57 2122.63 221.57 Q2119.25 221.57 2117.31 224.255 Q2115.39 226.917 2115.39 231.616 Q2115.39 236.315 2117.31 239 Q2119.25 241.662 2122.63 241.662 Q2126.01 241.662 2127.93 239 Q2129.88 236.315 2129.88 231.616 M2115.39 222.565 Q2116.73 220.25 2118.77 219.139 Q2120.83 218.005 2123.67 218.005 Q2128.4 218.005 2131.34 221.755 Q2134.3 225.505 2134.3 231.616 Q2134.3 237.727 2131.34 241.477 Q2128.4 245.227 2123.67 245.227 Q2120.83 245.227 2118.77 244.116 Q2116.73 242.982 2115.39 240.667 L2115.39 244.556 L2111.1 244.556 L2111.1 208.537 L2115.39 208.537 L2115.39 222.565 Z" fill="#000000" fill-rule="evenodd" fill-opacity="1" /><path clip-path="url(#clip440)" d="M 0 0 M2138.33 234.324 L2138.33 218.63 L2142.59 218.63 L2142.59 234.162 Q2142.59 237.843 2144.02 239.695 Q2145.46 241.523 2148.33 241.523 Q2151.78 241.523 2153.77 239.324 Q2155.78 237.125 2155.78 233.329 L2155.78 218.63 L2160.04 218.63 L2160.04 244.556 L2155.78 244.556 L2155.78 240.574 Q2154.23 242.935 2152.17 244.093 Q2150.13 245.227 2147.42 245.227 Q2142.96 245.227 2140.64 242.449 Q2138.33 239.671 2138.33 234.324 M2149.04 218.005 L2149.04 218.005 Z" fill="#000000" fill-rule="evenodd" fill-opacity="1" /><path clip-path="url(#clip440)" d="M 0 0 M2168.72 211.269 L2168.72 218.63 L2177.49 218.63 L2177.49 221.94 L2168.72 221.94 L2168.72 236.014 Q2168.72 239.185 2169.58 240.088 Q2170.46 240.991 2173.12 240.991 L2177.49 240.991 L2177.49 244.556 L2173.12 244.556 Q2168.19 244.556 2166.31 242.727 Q2164.44 240.875 2164.44 236.014 L2164.44 221.94 L2161.31 221.94 L2161.31 218.63 L2164.44 218.63 L2164.44 211.269 L2168.72 211.269 Z" fill="#000000" fill-rule="evenodd" fill-opacity="1" /><path clip-path="url(#clip440)" d="M 0 0 M2181.96 218.63 L2186.22 218.63 L2186.22 244.556 L2181.96 244.556 L2181.96 218.63 M2181.96 208.537 L2186.22 208.537 L2186.22 213.931 L2181.96 213.931 L2181.96 208.537 Z" fill="#000000" fill-rule="evenodd" fill-opacity="1" /><path clip-path="url(#clip440)" d="M 0 0 M2200.73 221.616 Q2197.31 221.616 2195.32 224.301 Q2193.33 226.963 2193.33 231.616 Q2193.33 236.269 2195.29 238.954 Q2197.28 241.616 2200.73 241.616 Q2204.14 241.616 2206.13 238.931 Q2208.12 236.246 2208.12 231.616 Q2208.12 227.01 2206.13 224.324 Q2204.14 221.616 2200.73 221.616 M2200.73 218.005 Q2206.29 218.005 2209.46 221.616 Q2212.63 225.227 2212.63 231.616 Q2212.63 237.982 2209.46 241.616 Q2206.29 245.227 2200.73 245.227 Q2195.15 245.227 2191.98 241.616 Q2188.84 237.982 2188.84 231.616 Q2188.84 225.227 2191.98 221.616 Q2195.15 218.005 2200.73 218.005 Z" fill="#000000" fill-rule="evenodd" fill-opacity="1" /><path clip-path="url(#clip440)" d="M 0 0 M2238.65 228.908 L2238.65 244.556 L2234.39 244.556 L2234.39 229.047 Q2234.39 225.366 2232.96 223.537 Q2231.52 221.709 2228.65 221.709 Q2225.2 221.709 2223.21 223.908 Q2221.22 226.107 2221.22 229.903 L2221.22 244.556 L2216.94 244.556 L2216.94 218.63 L2221.22 218.63 L2221.22 222.658 Q2222.75 220.32 2224.81 219.162 Q2226.89 218.005 2229.6 218.005 Q2234.07 218.005 2236.36 220.783 Q2238.65 223.537 2238.65 228.908 Z" fill="#000000" fill-rule="evenodd" fill-opacity="1" /><circle clip-path="url(#clip440)" cx="1653.85" cy="287.756" r="23" fill="#e26f46" fill-rule="evenodd" fill-opacity="1" stroke="#000000" stroke-opacity="1" stroke-width="5.12"/>
<path clip-path="url(#clip440)" d="M 0 0 M1765.64 280.105 L1765.64 284.087 Q1763.84 283.091 1762.01 282.605 Q1760.2 282.096 1758.35 282.096 Q1754.21 282.096 1751.92 284.735 Q1749.62 287.351 1749.62 292.096 Q1749.62 296.841 1751.92 299.48 Q1754.21 302.096 1758.35 302.096 Q1760.2 302.096 1762.01 301.61 Q1763.84 301.101 1765.64 300.105 L1765.64 304.04 Q1763.86 304.874 1761.94 305.29 Q1760.04 305.707 1757.89 305.707 Q1752.03 305.707 1748.58 302.026 Q1745.13 298.346 1745.13 292.096 Q1745.13 285.753 1748.61 282.119 Q1752.1 278.485 1758.17 278.485 Q1760.13 278.485 1762.01 278.902 Q1763.88 279.295 1765.64 280.105 Z" fill="#000000" fill-rule="evenodd" fill-opacity="1" /><path clip-path="url(#clip440)" d="M 0 0 M1785.13 283.091 Q1784.42 282.675 1783.56 282.49 Q1782.73 282.281 1781.71 282.281 Q1778.1 282.281 1776.15 284.642 Q1774.23 286.98 1774.23 291.378 L1774.23 305.036 L1769.95 305.036 L1769.95 279.11 L1774.23 279.11 L1774.23 283.138 Q1775.57 280.777 1777.73 279.642 Q1779.88 278.485 1782.96 278.485 Q1783.4 278.485 1783.93 278.554 Q1784.46 278.601 1785.11 278.716 L1785.13 283.091 Z" fill="#000000" fill-rule="evenodd" fill-opacity="1" /><path clip-path="url(#clip440)" d="M 0 0 M1789.6 279.11 L1793.86 279.11 L1793.86 305.036 L1789.6 305.036 L1789.6 279.11 M1789.6 269.017 L1793.86 269.017 L1793.86 274.411 L1789.6 274.411 L1789.6 269.017 Z" fill="#000000" fill-rule="evenodd" fill-opacity="1" /><path clip-path="url(#clip440)" d="M 0 0 M1802.54 271.749 L1802.54 279.11 L1811.31 279.11 L1811.31 282.42 L1802.54 282.42 L1802.54 296.494 Q1802.54 299.665 1803.4 300.568 Q1804.28 301.471 1806.94 301.471 L1811.31 301.471 L1811.31 305.036 L1806.94 305.036 Q1802.01 305.036 1800.13 303.207 Q1798.26 301.355 1798.26 296.494 L1798.26 282.42 L1795.13 282.42 L1795.13 279.11 L1798.26 279.11 L1798.26 271.749 L1802.54 271.749 Z" fill="#000000" fill-rule="evenodd" fill-opacity="1" /><path clip-path="url(#clip440)" d="M 0 0 M1815.78 279.11 L1820.04 279.11 L1820.04 305.036 L1815.78 305.036 L1815.78 279.11 M1815.78 269.017 L1820.04 269.017 L1820.04 274.411 L1815.78 274.411 L1815.78 269.017 Z" fill="#000000" fill-rule="evenodd" fill-opacity="1" /><path clip-path="url(#clip440)" d="M 0 0 M1843.17 280.105 L1843.17 284.087 Q1841.36 283.091 1839.53 282.605 Q1837.73 282.096 1835.87 282.096 Q1831.73 282.096 1829.44 284.735 Q1827.15 287.351 1827.15 292.096 Q1827.15 296.841 1829.44 299.48 Q1831.73 302.096 1835.87 302.096 Q1837.73 302.096 1839.53 301.61 Q1841.36 301.101 1843.17 300.105 L1843.17 304.04 Q1841.38 304.874 1839.46 305.29 Q1837.56 305.707 1835.41 305.707 Q1829.55 305.707 1826.11 302.026 Q1822.66 298.346 1822.66 292.096 Q1822.66 285.753 1826.13 282.119 Q1829.62 278.485 1835.69 278.485 Q1837.66 278.485 1839.53 278.902 Q1841.41 279.295 1843.17 280.105 Z" fill="#000000" fill-rule="evenodd" fill-opacity="1" /><path clip-path="url(#clip440)" d="M 0 0 M1859.42 292.003 Q1854.25 292.003 1852.26 293.184 Q1850.27 294.364 1850.27 297.212 Q1850.27 299.48 1851.75 300.823 Q1853.26 302.142 1855.83 302.142 Q1859.37 302.142 1861.5 299.642 Q1863.65 297.119 1863.65 292.952 L1863.65 292.003 L1859.42 292.003 M1867.91 290.244 L1867.91 305.036 L1863.65 305.036 L1863.65 301.101 Q1862.19 303.462 1860.02 304.596 Q1857.84 305.707 1854.69 305.707 Q1850.71 305.707 1848.35 303.485 Q1846.01 301.239 1846.01 297.489 Q1846.01 293.114 1848.93 290.892 Q1851.87 288.67 1857.68 288.67 L1863.65 288.67 L1863.65 288.253 Q1863.65 285.314 1861.71 283.716 Q1859.79 282.096 1856.29 282.096 Q1854.07 282.096 1851.96 282.628 Q1849.86 283.161 1847.91 284.226 L1847.91 280.29 Q1850.25 279.388 1852.45 278.948 Q1854.65 278.485 1856.73 278.485 Q1862.36 278.485 1865.13 281.402 Q1867.91 284.318 1867.91 290.244 Z" fill="#000000" fill-rule="evenodd" fill-opacity="1" /><path clip-path="url(#clip440)" d="M 0 0 M1872.38 269.017 L1876.64 269.017 L1876.64 305.036 L1872.38 305.036 L1872.38 269.017 Z" fill="#000000" fill-rule="evenodd" fill-opacity="1" /><path clip-path="url(#clip440)" d="M 0 0 M1913.23 283.045 L1913.23 269.017 L1917.49 269.017 L1917.49 305.036 L1913.23 305.036 L1913.23 301.147 Q1911.89 303.462 1909.83 304.596 Q1907.8 305.707 1904.92 305.707 Q1900.23 305.707 1897.26 301.957 Q1894.32 298.207 1894.32 292.096 Q1894.32 285.985 1897.26 282.235 Q1900.23 278.485 1904.92 278.485 Q1907.8 278.485 1909.83 279.619 Q1911.89 280.73 1913.23 283.045 M1898.72 292.096 Q1898.72 296.795 1900.64 299.48 Q1902.59 302.142 1905.97 302.142 Q1909.35 302.142 1911.29 299.48 Q1913.23 296.795 1913.23 292.096 Q1913.23 287.397 1911.29 284.735 Q1909.35 282.05 1905.97 282.05 Q1902.59 282.05 1900.64 284.735 Q1898.72 287.397 1898.72 292.096 Z" fill="#000000" fill-rule="evenodd" fill-opacity="1" /><path clip-path="url(#clip440)" d="M 0 0 M1921.96 279.11 L1926.22 279.11 L1926.22 305.036 L1921.96 305.036 L1921.96 279.11 M1921.96 269.017 L1926.22 269.017 L1926.22 274.411 L1921.96 274.411 L1921.96 269.017 Z" fill="#000000" fill-rule="evenodd" fill-opacity="1" /><path clip-path="url(#clip440)" d="M 0 0 M1942.47 292.003 Q1937.31 292.003 1935.32 293.184 Q1933.33 294.364 1933.33 297.212 Q1933.33 299.48 1934.81 300.823 Q1936.31 302.142 1938.88 302.142 Q1942.42 302.142 1944.55 299.642 Q1946.71 297.119 1946.71 292.952 L1946.71 292.003 L1942.47 292.003 M1950.97 290.244 L1950.97 305.036 L1946.71 305.036 L1946.71 301.101 Q1945.25 303.462 1943.07 304.596 Q1940.9 305.707 1937.75 305.707 Q1933.77 305.707 1931.41 303.485 Q1929.07 301.239 1929.07 297.489 Q1929.07 293.114 1931.98 290.892 Q1934.92 288.67 1940.73 288.67 L1946.71 288.67 L1946.71 288.253 Q1946.71 285.314 1944.76 283.716 Q1942.84 282.096 1939.35 282.096 Q1937.12 282.096 1935.02 282.628 Q1932.91 283.161 1930.97 284.226 L1930.97 280.29 Q1933.3 279.388 1935.5 278.948 Q1937.7 278.485 1939.79 278.485 Q1945.41 278.485 1948.19 281.402 Q1950.97 284.318 1950.97 290.244 Z" fill="#000000" fill-rule="evenodd" fill-opacity="1" /><path clip-path="url(#clip440)" d="M 0 0 M1975.62 284.087 Q1977.22 281.216 1979.44 279.851 Q1981.66 278.485 1984.67 278.485 Q1988.72 278.485 1990.92 281.332 Q1993.12 284.156 1993.12 289.388 L1993.12 305.036 L1988.84 305.036 L1988.84 289.527 Q1988.84 285.8 1987.52 283.994 Q1986.2 282.189 1983.49 282.189 Q1980.18 282.189 1978.26 284.388 Q1976.34 286.587 1976.34 290.383 L1976.34 305.036 L1972.05 305.036 L1972.05 289.527 Q1972.05 285.777 1970.73 283.994 Q1969.42 282.189 1966.66 282.189 Q1963.4 282.189 1961.48 284.411 Q1959.55 286.61 1959.55 290.383 L1959.55 305.036 L1955.27 305.036 L1955.27 279.11 L1959.55 279.11 L1959.55 283.138 Q1961.01 280.753 1963.05 279.619 Q1965.09 278.485 1967.89 278.485 Q1970.71 278.485 1972.68 279.92 Q1974.67 281.355 1975.62 284.087 Z" fill="#000000" fill-rule="evenodd" fill-opacity="1" /><path clip-path="url(#clip440)" d="M 0 0 M2019.76 291.008 L2019.76 293.091 L2000.18 293.091 Q2000.46 297.489 2002.82 299.804 Q2005.2 302.096 2009.44 302.096 Q2011.89 302.096 2014.18 301.494 Q2016.5 300.892 2018.77 299.689 L2018.77 303.716 Q2016.48 304.688 2014.07 305.198 Q2011.66 305.707 2009.18 305.707 Q2002.98 305.707 1999.35 302.096 Q1995.73 298.485 1995.73 292.327 Q1995.73 285.962 1999.16 282.235 Q2002.61 278.485 2008.44 278.485 Q2013.67 278.485 2016.71 281.865 Q2019.76 285.221 2019.76 291.008 M2015.5 289.758 Q2015.46 286.263 2013.54 284.179 Q2011.64 282.096 2008.49 282.096 Q2004.92 282.096 2002.77 284.11 Q2000.64 286.124 2000.32 289.781 L2015.5 289.758 Z" fill="#000000" fill-rule="evenodd" fill-opacity="1" /><path clip-path="url(#clip440)" d="M 0 0 M2028.44 271.749 L2028.44 279.11 L2037.22 279.11 L2037.22 282.42 L2028.44 282.42 L2028.44 296.494 Q2028.44 299.665 2029.3 300.568 Q2030.18 301.471 2032.84 301.471 L2037.22 301.471 L2037.22 305.036 L2032.84 305.036 Q2027.91 305.036 2026.04 303.207 Q2024.16 301.355 2024.16 296.494 L2024.16 282.42 L2021.04 282.42 L2021.04 279.11 L2024.16 279.11 L2024.16 271.749 L2028.44 271.749 Z" fill="#000000" fill-rule="evenodd" fill-opacity="1" /><path clip-path="url(#clip440)" d="M 0 0 M2063.86 291.008 L2063.86 293.091 L2044.28 293.091 Q2044.55 297.489 2046.91 299.804 Q2049.3 302.096 2053.54 302.096 Q2055.99 302.096 2058.28 301.494 Q2060.6 300.892 2062.86 299.689 L2062.86 303.716 Q2060.57 304.688 2058.16 305.198 Q2055.76 305.707 2053.28 305.707 Q2047.08 305.707 2043.44 302.096 Q2039.83 298.485 2039.83 292.327 Q2039.83 285.962 2043.26 282.235 Q2046.71 278.485 2052.54 278.485 Q2057.77 278.485 2060.8 281.865 Q2063.86 285.221 2063.86 291.008 M2059.6 289.758 Q2059.55 286.263 2057.63 284.179 Q2055.73 282.096 2052.59 282.096 Q2049.02 282.096 2046.87 284.11 Q2044.74 286.124 2044.41 289.781 L2059.6 289.758 Z" fill="#000000" fill-rule="evenodd" fill-opacity="1" /><path clip-path="url(#clip440)" d="M 0 0 M2083.35 283.091 Q2082.63 282.675 2081.78 282.49 Q2080.94 282.281 2079.92 282.281 Q2076.31 282.281 2074.37 284.642 Q2072.45 286.98 2072.45 291.378 L2072.45 305.036 L2068.16 305.036 L2068.16 279.11 L2072.45 279.11 L2072.45 283.138 Q2073.79 280.777 2075.94 279.642 Q2078.1 278.485 2081.17 278.485 Q2081.61 278.485 2082.15 278.554 Q2082.68 278.601 2083.33 278.716 L2083.35 283.091 Z" fill="#000000" fill-rule="evenodd" fill-opacity="1" /><path clip-path="url(#clip440)" d="
M1585.39 372.428 L1722.31 372.428 L1722.31 324.044 L1585.39 324.044 L1585.39 372.428  Z
  " fill="#ff0000" fill-rule="evenodd" fill-opacity="0.5"/>
<polyline clip-path="url(#clip440)" style="stroke:#3da44d; stroke-width:4; stroke-opacity:1; fill:none" points="
  1585.39,324.044 1722.31,324.044 
  "/>
<path clip-path="url(#clip440)" d="M 0 0 M1760.32 343.571 Q1759.6 343.155 1758.75 342.97 Q1757.91 342.761 1756.89 342.761 Q1753.28 342.761 1751.34 345.122 Q1749.42 347.46 1749.42 351.858 L1749.42 365.516 L1745.13 365.516 L1745.13 339.59 L1749.42 339.59 L1749.42 343.618 Q1750.76 341.257 1752.91 340.122 Q1755.06 338.965 1758.14 338.965 Q1758.58 338.965 1759.12 339.034 Q1759.65 339.081 1760.3 339.196 L1760.32 343.571 Z" fill="#000000" fill-rule="evenodd" fill-opacity="1" /><path clip-path="url(#clip440)" d="M 0 0 M1776.57 352.483 Q1771.41 352.483 1769.42 353.664 Q1767.43 354.844 1767.43 357.692 Q1767.43 359.96 1768.91 361.303 Q1770.41 362.622 1772.98 362.622 Q1776.52 362.622 1778.65 360.122 Q1780.81 357.599 1780.81 353.432 L1780.81 352.483 L1776.57 352.483 M1785.06 350.724 L1785.06 365.516 L1780.81 365.516 L1780.81 361.581 Q1779.35 363.942 1777.17 365.076 Q1774.99 366.187 1771.85 366.187 Q1767.87 366.187 1765.5 363.965 Q1763.17 361.719 1763.17 357.969 Q1763.17 353.594 1766.08 351.372 Q1769.02 349.15 1774.83 349.15 L1780.81 349.15 L1780.81 348.733 Q1780.81 345.794 1778.86 344.196 Q1776.94 342.576 1773.44 342.576 Q1771.22 342.576 1769.12 343.108 Q1767.01 343.641 1765.06 344.706 L1765.06 340.77 Q1767.4 339.868 1769.6 339.428 Q1771.8 338.965 1773.88 338.965 Q1779.51 338.965 1782.29 341.882 Q1785.06 344.798 1785.06 350.724 Z" fill="#000000" fill-rule="evenodd" fill-opacity="1" /><path clip-path="url(#clip440)" d="M 0 0 M1789.53 339.59 L1793.79 339.59 L1793.79 365.516 L1789.53 365.516 L1789.53 339.59 M1789.53 329.497 L1793.79 329.497 L1793.79 334.891 L1789.53 334.891 L1789.53 329.497 Z" fill="#000000" fill-rule="evenodd" fill-opacity="1" /><path clip-path="url(#clip440)" d="M 0 0 M1819.81 349.868 L1819.81 365.516 L1815.55 365.516 L1815.55 350.007 Q1815.55 346.326 1814.12 344.497 Q1812.68 342.669 1809.81 342.669 Q1806.36 342.669 1804.37 344.868 Q1802.38 347.067 1802.38 350.863 L1802.38 365.516 L1798.1 365.516 L1798.1 339.59 L1802.38 339.59 L1802.38 343.618 Q1803.91 341.28 1805.97 340.122 Q1808.05 338.965 1810.76 338.965 Q1815.23 338.965 1817.52 341.743 Q1819.81 344.497 1819.81 349.868 Z" fill="#000000" fill-rule="evenodd" fill-opacity="1" /><path clip-path="url(#clip440)" d="M 0 0 M1822.12 350.632 L1834.6 350.632 L1834.6 354.428 L1822.12 354.428 L1822.12 350.632 Z" fill="#000000" fill-rule="evenodd" fill-opacity="1" /><path clip-path="url(#clip440)" d="M 0 0 M1849.99 342.576 Q1846.57 342.576 1844.58 345.261 Q1842.59 347.923 1842.59 352.576 Q1842.59 357.229 1844.55 359.914 Q1846.55 362.576 1849.99 362.576 Q1853.4 362.576 1855.39 359.891 Q1857.38 357.206 1857.38 352.576 Q1857.38 347.97 1855.39 345.284 Q1853.4 342.576 1849.99 342.576 M1849.99 338.965 Q1855.55 338.965 1858.72 342.576 Q1861.89 346.187 1861.89 352.576 Q1861.89 358.942 1858.72 362.576 Q1855.55 366.187 1849.99 366.187 Q1844.42 366.187 1841.24 362.576 Q1838.1 358.942 1838.1 352.576 Q1838.1 346.187 1841.24 342.576 Q1844.42 338.965 1849.99 338.965 Z" fill="#000000" fill-rule="evenodd" fill-opacity="1" /><path clip-path="url(#clip440)" d="M 0 0 M1865.92 355.284 L1865.92 339.59 L1870.18 339.59 L1870.18 355.122 Q1870.18 358.803 1871.61 360.655 Q1873.05 362.483 1875.92 362.483 Q1879.37 362.483 1881.36 360.284 Q1883.37 358.085 1883.37 354.289 L1883.37 339.59 L1887.63 339.59 L1887.63 365.516 L1883.37 365.516 L1883.37 361.534 Q1881.82 363.895 1879.76 365.053 Q1877.73 366.187 1875.02 366.187 Q1870.55 366.187 1868.24 363.409 Q1865.92 360.631 1865.92 355.284 M1876.64 338.965 L1876.64 338.965 Z" fill="#000000" fill-rule="evenodd" fill-opacity="1" /><path clip-path="url(#clip440)" d="M 0 0 M1896.31 332.229 L1896.31 339.59 L1905.09 339.59 L1905.09 342.9 L1896.31 342.9 L1896.31 356.974 Q1896.31 360.145 1897.17 361.048 Q1898.05 361.951 1900.71 361.951 L1905.09 361.951 L1905.09 365.516 L1900.71 365.516 Q1895.78 365.516 1893.91 363.687 Q1892.03 361.835 1892.03 356.974 L1892.03 342.9 L1888.91 342.9 L1888.91 339.59 L1892.03 339.59 L1892.03 332.229 L1896.31 332.229 Z" fill="#000000" fill-rule="evenodd" fill-opacity="1" /><path clip-path="url(#clip440)" d="M 0 0 M1939.65 343.571 Q1938.93 343.155 1938.07 342.97 Q1937.24 342.761 1936.22 342.761 Q1932.61 342.761 1930.67 345.122 Q1928.74 347.46 1928.74 351.858 L1928.74 365.516 L1924.46 365.516 L1924.46 339.59 L1928.74 339.59 L1928.74 343.618 Q1930.09 341.257 1932.24 340.122 Q1934.39 338.965 1937.47 338.965 Q1937.91 338.965 1938.44 339.034 Q1938.98 339.081 1939.62 339.196 L1939.65 343.571 Z" fill="#000000" fill-rule="evenodd" fill-opacity="1" /><path clip-path="url(#clip440)" d="M 0 0 M1965.25 351.488 L1965.25 353.571 L1945.67 353.571 Q1945.94 357.969 1948.3 360.284 Q1950.69 362.576 1954.92 362.576 Q1957.38 362.576 1959.67 361.974 Q1961.98 361.372 1964.25 360.169 L1964.25 364.196 Q1961.96 365.168 1959.55 365.678 Q1957.15 366.187 1954.67 366.187 Q1948.47 366.187 1944.83 362.576 Q1941.22 358.965 1941.22 352.807 Q1941.22 346.442 1944.65 342.715 Q1948.1 338.965 1953.93 338.965 Q1959.16 338.965 1962.19 342.345 Q1965.25 345.701 1965.25 351.488 M1960.99 350.238 Q1960.94 346.743 1959.02 344.659 Q1957.12 342.576 1953.98 342.576 Q1950.41 342.576 1948.26 344.59 Q1946.13 346.604 1945.8 350.261 L1960.99 350.238 Z" fill="#000000" fill-rule="evenodd" fill-opacity="1" /><path clip-path="url(#clip440)" d="M 0 0 M1986.78 352.252 Q1986.78 347.622 1984.85 345.076 Q1982.96 342.53 1979.51 342.53 Q1976.08 342.53 1974.16 345.076 Q1972.26 347.622 1972.26 352.252 Q1972.26 356.858 1974.16 359.405 Q1976.08 361.951 1979.51 361.951 Q1982.96 361.951 1984.85 359.405 Q1986.78 356.858 1986.78 352.252 M1991.04 362.298 Q1991.04 368.918 1988.1 372.136 Q1985.16 375.377 1979.09 375.377 Q1976.85 375.377 1974.85 375.03 Q1972.86 374.705 1970.99 374.011 L1970.99 369.868 Q1972.86 370.886 1974.69 371.372 Q1976.52 371.858 1978.42 371.858 Q1982.61 371.858 1984.69 369.659 Q1986.78 367.483 1986.78 363.062 L1986.78 360.956 Q1985.46 363.247 1983.4 364.381 Q1981.34 365.516 1978.47 365.516 Q1973.7 365.516 1970.78 361.881 Q1967.86 358.247 1967.86 352.252 Q1967.86 346.233 1970.78 342.599 Q1973.7 338.965 1978.47 338.965 Q1981.34 338.965 1983.4 340.099 Q1985.46 341.233 1986.78 343.525 L1986.78 339.59 L1991.04 339.59 L1991.04 362.298 Z" fill="#000000" fill-rule="evenodd" fill-opacity="1" /><path clip-path="url(#clip440)" d="M 0 0 M1995.5 339.59 L1999.76 339.59 L1999.76 365.516 L1995.5 365.516 L1995.5 339.59 M1995.5 329.497 L1999.76 329.497 L1999.76 334.891 L1995.5 334.891 L1995.5 329.497 Z" fill="#000000" fill-rule="evenodd" fill-opacity="1" /><path clip-path="url(#clip440)" d="M 0 0 M2014.28 342.576 Q2010.85 342.576 2008.86 345.261 Q2006.87 347.923 2006.87 352.576 Q2006.87 357.229 2008.84 359.914 Q2010.83 362.576 2014.28 362.576 Q2017.68 362.576 2019.67 359.891 Q2021.66 357.206 2021.66 352.576 Q2021.66 347.97 2019.67 345.284 Q2017.68 342.576 2014.28 342.576 M2014.28 338.965 Q2019.83 338.965 2023 342.576 Q2026.17 346.187 2026.17 352.576 Q2026.17 358.942 2023 362.576 Q2019.83 366.187 2014.28 366.187 Q2008.7 366.187 2005.53 362.576 Q2002.38 358.942 2002.38 352.576 Q2002.38 346.187 2005.53 342.576 Q2008.7 338.965 2014.28 338.965 Z" fill="#000000" fill-rule="evenodd" fill-opacity="1" /><path clip-path="url(#clip440)" d="M 0 0 M2052.19 349.868 L2052.19 365.516 L2047.93 365.516 L2047.93 350.007 Q2047.93 346.326 2046.5 344.497 Q2045.06 342.669 2042.19 342.669 Q2038.74 342.669 2036.75 344.868 Q2034.76 347.067 2034.76 350.863 L2034.76 365.516 L2030.48 365.516 L2030.48 339.59 L2034.76 339.59 L2034.76 343.618 Q2036.29 341.28 2038.35 340.122 Q2040.43 338.965 2043.14 338.965 Q2047.61 338.965 2049.9 341.743 Q2052.19 344.497 2052.19 349.868 Z" fill="#000000" fill-rule="evenodd" fill-opacity="1" /></svg>
